<?xml version="1.0" encoding="UTF-8" standalone="no"?>
<svg
   xmlns:dc="http://purl.org/dc/elements/1.1/"
   xmlns:cc="http://creativecommons.org/ns#"
   xmlns:rdf="http://www.w3.org/1999/02/22-rdf-syntax-ns#"
   xmlns:svg="http://www.w3.org/2000/svg"
   xmlns="http://www.w3.org/2000/svg"
   xmlns:sodipodi="http://sodipodi.sourceforge.net/DTD/sodipodi-0.dtd"
   xmlns:inkscape="http://www.inkscape.org/namespaces/inkscape"
   inkscape:version="1.0 (4035a4f, 2020-05-01)"
   sodipodi:docname="new.svg"
   id="svg835"
   height="17"
   width="17"
   p-id="21657"
   version="1.1"
   viewBox="0 0 1024 1024"
   class="icon"
   t="1695547981469">
  <metadata
     id="metadata841">
    <rdf:RDF>
      <cc:Work
         rdf:about="">
        <dc:format>image/svg+xml</dc:format>
        <dc:type
           rdf:resource="http://purl.org/dc/dcmitype/StillImage" />
      </cc:Work>
    </rdf:RDF>
  </metadata>
  <defs
     id="defs839" />
  <sodipodi:namedview
     inkscape:current-layer="svg835"
     inkscape:window-maximized="1"
     inkscape:window-y="25"
     inkscape:window-x="56"
     inkscape:cy="100"
     inkscape:cx="100"
     inkscape:zoom="3.34"
     showgrid="false"
     id="namedview837"
     inkscape:window-height="847"
     inkscape:window-width="1384"
     inkscape:pageshadow="2"
     inkscape:pageopacity="0"
     guidetolerance="10"
     gridtolerance="10"
     objecttolerance="10"
     borderopacity="1"
     bordercolor="#666666"
     pagecolor="#ffffff" />
  <path
     style="stroke-width:1.10978"
     id="path833"
     p-id="21658"
     d="m 507.77693,94.275449 h 6.9132 c 86.36756,0 155.92564,0 210.71031,7.339351 56.82076,7.6708 104.6449,24.00677 142.66746,62.02933 37.97521,37.9752 54.31117,85.84669 61.98197,142.66745 7.33935,54.73733 7.33935,124.2954 7.33935,210.66297 v 6.91318 c 0,86.36755 0,155.92564 -7.33935,210.71032 -7.6708,56.82075 -24.00676,104.6449 -62.02932,142.66745 -37.97521,37.97521 -85.84671,54.31118 -142.66746,61.98198 -54.73732,7.33935 -124.2954,7.33935 -210.66296,7.33935 h -6.9132 c -86.36754,0 -155.92562,0 -210.7103,-7.33935 -56.82076,-7.6708 -104.6449,-24.00677 -142.66746,-62.02933 C 116.42396,839.24295 100.08799,791.37145 92.417192,734.5507 85.077844,679.81337 85.077844,610.25528 85.077844,523.88773 v -6.91318 c 0,-86.36757 0,-155.92564 7.339348,-210.71032 7.670798,-56.82076 24.006768,-104.6449 62.029328,-142.66745 37.97521,-37.97521 85.8467,-54.31118 142.66746,-61.98198 54.73733,-7.339351 124.29541,-7.339351 210.66295,-7.339351 z M 309.70924,195.5111 c -46.30892,6.20293 -70.83655,17.61443 -88.30892,35.03947 -17.51974,17.51973 -28.88389,42.04736 -35.08682,88.35628 -6.43969,47.68208 -6.53439,110.89518 -6.53439,201.52428 0,90.62912 0.0947,153.84222 6.53439,201.5243 6.20293,46.30892 17.61443,70.83654 35.03947,88.30892 17.51972,17.51975 42.04735,28.8839 88.35627,35.13418 47.68209,6.34498 110.89519,6.48703 201.52429,6.48703 90.62911,0 153.84221,-0.0947 201.52429,-6.53438 46.30892,-6.20293 70.83655,-17.61444 88.30894,-35.03948 17.51972,-17.51973 28.88388,-42.04735 35.13416,-88.35627 6.39234,-47.68208 6.48704,-110.89518 6.48704,-201.5243 0,-90.6291 -0.0947,-153.8422 -6.53439,-201.52428 -6.20293,-46.30892 -17.61444,-70.83655 -35.03946,-88.30893 -17.51974,-17.51974 -42.04737,-28.88389 -88.35629,-35.08682 -47.68208,-6.43968 -110.89518,-6.53439 -201.52429,-6.53439 -90.6291,0 -153.8422,0.0947 -201.52429,6.53439 z m 61.55582,90.20295 a 47.350632,47.350632 0 0 1 53.08006,19.03496 L 590.16703,553.43453 V 331.02861 a 47.35064,47.350641 0 1 1 94.70128,0 v 378.80506 a 47.350632,47.350632 0 0 1 -86.74637,26.2796 L 432.30003,487.42775 v 222.40592 a 47.350632,47.350632 0 1 1 -94.70126,0 V 331.02861 a 47.350632,47.350632 0 0 1 33.61894,-45.31456 z" fill="transparent"/>
</svg>
