<?xml version="1.0" standalone="no"?>
<!DOCTYPE svg PUBLIC "-//W3C//DTD SVG 1.1//EN" "http://www.w3.org/Graphics/SVG/1.1/DTD/svg11.dtd" >
<svg xmlns="http://www.w3.org/2000/svg">
<metadata></metadata>
<defs>
<font id="pontawesomeregular" horiz-adv-x="1024" >
<font-face units-per-em="1024" ascent="832" descent="-192" />
<missing-glyph horiz-adv-x="500" />
<glyph unicode="&#x2000;" horiz-adv-x="416" />
<glyph unicode="&#x2001;" horiz-adv-x="833" />
<glyph unicode="&#x2002;" horiz-adv-x="416" />
<glyph unicode="&#x2003;" horiz-adv-x="833" />
<glyph unicode="&#x2004;" horiz-adv-x="277" />
<glyph unicode="&#x2005;" horiz-adv-x="208" />
<glyph unicode="&#x2006;" horiz-adv-x="138" />
<glyph unicode="&#x2007;" horiz-adv-x="138" />
<glyph unicode="&#x2008;" horiz-adv-x="104" />
<glyph unicode="&#x2009;" horiz-adv-x="166" />
<glyph unicode="&#x200a;" horiz-adv-x="46" />
<glyph unicode="&#x202f;" horiz-adv-x="166" />
<glyph unicode="&#x205f;" horiz-adv-x="208" />
<glyph unicode="&#x25fc;" horiz-adv-x="500" d="M0 0z" />
<glyph unicode="&#xf000;" horiz-adv-x="960" d="M688 384h141q57 0 94 -37t37 -94v-314q0 -57 -37 -94t-94 -37h-698q-57 0 -94 37t-37 94v762q0 57 37 94t94 37h698q57 0 94 -36t37 -92h-701q-57 0 -94 -37t-37 -94v-506q0 -57 37 -94t94 -37h573v255q0 29 -18 47t-47 18h-79q-12 -58 -62.5 -93t-113.5 -35 q-84 0 -138 54t-54 138t54 138t138 54q63 0 113.5 -35t62.5 -93z" />
<glyph unicode="&#xf100;" horiz-adv-x="896" d="M896 0h-896v640h896v-640zM448 312l320 264h-640zM316 320l-252 192v-384zM580 320l252 -192v384zM514 270l-66 -50l-66 50l-254 -206h640z" />
<glyph unicode="&#xf101;" horiz-adv-x="896" d="M448 312l448 328h-896zM316 320l-316 224v-448zM580 320l316 -224v448zM544 256l-96 -64l-96 64l-352 -256h896z" />
<glyph unicode="&#xf102;" horiz-adv-x="896" d="M896 -128h-896v640l128 91v101h141l179 128l179 -128h141v-101l128 -91v-640zM448 184l256 211v245h-512v-245zM256 512v64h128v-64h-128zM256 384v64h320v-64h-320zM316 192l-252 192v-384zM580 192l252 -192v384zM514 142l-66 -50l-66 50l-254 -206h640z" />
<glyph unicode="&#xf103;" horiz-adv-x="768" d="M384 672v-192q157 -17 267.5 -140.5t116.5 -331.5q-24 77 -70.5 134.5t-101.5 88t-109 45t-103 12.5v-192l-384 288z" />
<glyph unicode="&#xf104;" horiz-adv-x="768" d="M384 665v-192q-157 -17 -267.5 -140.5t-116.5 -331.5q24 77 70.5 134.5t101.5 88t109 45t103 12.5v-192l384 288z" />
<glyph unicode="&#xf105;" horiz-adv-x="768" d="M768 0h-768v256l64 384h640l64 -384v-256zM640 576h-512l-49 -320h113l64 -128h256l64 128h113z" />
<glyph unicode="&#xf106;" d="M592 400q80 -80 176 -80t176 80t80 176t-80 176t-176 80t-176 -80t-80 -176t80 -176zM0 637v-634q0 -57 37 -94t94 -37h634q57 0 94 37t37 94v189h-64v-191q0 -29 -18 -47t-47 -18h-638q-29 0 -47 18t-18 47v638q0 29 18 47t47 18h255v64h-253q-57 0 -94 -37t-37 -94z " />
<glyph unicode="&#xf110;" d="M0 500q0 126 72.5 197t200.5 71q60 0 123 -34t116 -90q124 124 239 124q128 0 200.5 -71t72.5 -197t-131 -257l-356 -343q-10 -10 -25 -10t-25 10l-357 344q-6 4 -15 15q-51 51 -83 116t-32 125z" />
<glyph unicode="&#xf111;" d="M0 500q0 126 72.5 197t200.5 71q60 0 123 -34t116 -90q124 124 239 124q128 0 200.5 -71t72.5 -197t-131 -257l-356 -343q-10 -10 -25 -10t-25 10l-357 344q-6 4 -15 15q-51 51 -83 116t-32 125zM73 500q0 -95 107 -202l332 -320l331 319q108 107 108 203q0 164 -144 190 q-42 5 -56 5q-48 0 -106 -36.5t-105 -91.5q-10 -12 -28 -12t-28 12q-30 35 -83 77q-69 51 -128 51q-149 0 -187 -113q-13 -29 -13 -82z" />
<glyph unicode="&#xf112;" horiz-adv-x="384" d="M384 -64l-192 128l-192 -128v768h384v-768zM244 455l72 52q10 9 -4 9l-88 1l-27 83q-5 15 -10 0l-27 -83l-88 -1q-14 0 -4 -9l72 -52l-28 -83q-1 -4 -0.5 -6.5t2.5 -2.5t6 2l72 52l72 -52q5 -3 7 -1.5t1 8.5z" />
<glyph unicode="&#xf113;" horiz-adv-x="384" d="M384 -128v832h-384v-832l192 320z" />
<glyph unicode="&#xf114;" horiz-adv-x="512" d="M64 640h448v64h-512v-768l64 64v640zM512 -128v704h-384v-704l192 320z" />
<glyph unicode="&#xf115;" horiz-adv-x="768" d="M384 384q165 2 272 38t112 90v128q-4 54 -112 91q-108 35 -272 37q-165 -2 -271 -37q-109 -37 -113 -91v-128q5 -54 113 -90q105 -36 271 -38zM384 704q111 -2 181 -19q72 -18 75 -45q-3 -27 -75 -45t-181 -18t-181 18t-75 45q3 27 75 45q70 17 181 19zM384 128 q165 2 272 38t112 90v128q0 10 -6 20q-2 4 -8 12q-34 -42 -135 -68.5t-235 -26.5t-235 26.5t-135 68.5q-6 -8 -8 -12q-6 -10 -6 -20v-128q5 -54 113 -90q105 -36 271 -38zM384 -128q165 2 272 38t112 90v128q-2 18 -14 32q-34 -42 -135 -68.5t-235 -26.5t-235 26.5 t-135 68.5q-12 -14 -14 -32v-128q5 -54 113 -90q105 -36 271 -38z" />
<glyph unicode="&#xf116;" d="M714 672q124 -2 186 -27q61 -25 61 -51v-586q-29 16 -89 33t-125 23q-92 6 -160 -4q-70 -10 -74 -28q0 -31 -31 -32h-1h-1q-31 1 -31 32q-4 18 -74 28q-68 10 -160 4q-66 -6 -125 -23t-89 -33v586q0 26 61 51q62 25 186 27q123 -2 170 -19q49 -18 63 -37q14 19 63 37 q47 17 170 19zM449 100v444q0 26 -48 42q-47 16 -144 16t-144 -16q-48 -16 -48 -42v-443q41 27 192 27q138 0 192 -28zM897 101v443q0 26 -48 42q-47 16 -144 16t-144 -16q-48 -16 -48 -42v-444q54 28 192 28q151 0 192 -27zM193 512h128q26 -1 44.5 -20t19.5 -44h-256 q1 26 20 44.5t44 19.5zM641 512h128q25 -1 44 -19.5t20 -44.5h-256q1 25 19.5 44t44.5 20zM193 384h128q26 -1 44.5 -20t19.5 -44h-256q1 26 20 44.5t44 19.5zM641 384h128q25 -1 44 -19.5t20 -44.5h-256q1 25 19.5 44t44.5 20zM193 256h128q26 -1 44.5 -20t19.5 -44h-256 q1 26 20 44.5t44 19.5zM641 256h128q25 -1 44 -19.5t20 -44.5h-256q1 25 19.5 44t44.5 20z" />
<glyph unicode="&#xf117;" horiz-adv-x="896" d="M0 -104v91q0 32 8 47.5t31 28.5q185 106 273 145v147q-39 27 -39 87v116q0 85 48.5 130.5t126.5 45.5q64 0 115 -34q60 -42 60 -142v-116q0 -58 -38 -87v-147q72 -29 272 -145q23 -13 31 -28.5t8 -47.5v-91q0 -8 -5.5 -14t-13.5 -6h-858q-8 0 -13.5 6t-5.5 14z" />
<glyph unicode="&#xf118;" horiz-adv-x="768" d="M0 -80q0 -20 13.5 -34t33.5 -14h673q20 0 34 14t14 34q0 111 -79 223q-60 90 -145 129q101 93 101 240q0 127 -75.5 215.5t-185.5 88.5t-186 -88.5t-76 -215.5q0 -147 100 -240q-89 -42 -155.5 -142t-66.5 -210zM665 -32h-563q19 84 75.5 150.5t124.5 80.5q17 4 27.5 17 t10.5 31v34q0 29 -25 41q-44 26 -70.5 77.5t-26.5 112.5q0 86 48.5 147t117.5 61q68 0 116.5 -61t48.5 -147q0 -61 -26.5 -112.5t-70.5 -77.5q-25 -12 -25 -41v-34q0 -18 10.5 -31t27.5 -17q68 -14 124.5 -80.5t75.5 -150.5z" />
<glyph unicode="&#xf119;" d="M91 -102v92q0 29 7.5 43.5t29.5 27.5q187 105 256 136v137q-37 28 -37 82v109q0 86 48 125.5t117 39.5q63 0 109 -31q56 -38 56 -134v-109q0 -54 -37 -82v-137q79 -34 256 -136q22 -13 29.5 -27.5t7.5 -43.5v-92q0 -4 -3 -8t-7 -4h-822q-4 0 -7 4t-3 8zM-128 40v63 q0 32 34 50l17 11q102 62 168 84v95q-21 8 -28.5 18t-7.5 40v65q0 53 29 83.5t81 30.5t81 -30.5t29 -83.5v-65v-24q-1 -9 -11 -19.5t-27 -13.5v-96q34 -10 69 -28q-114 -57 -200 -108l-5 -4q-51 -28 -61 -76h-161q-7 0 -7 8zM719 221q52 22 68 27v95q-18 6 -30 18 q-8 11 -8 40v65q0 53 29 83.5t81 30.5t81 -30.5t29 -83.5v-65v-6v-7q0 -8 -2 -14q-1 -1 -1.5 -3.5t-0.5 -3.5q-1 -4 -5 -6l-6 -6q-6 -6 -21 -11v-96q66 -22 168 -84l17 -11q34 -18 34 -50v-63q0 -8 -7 -8h-161q-12 49 -61 76l-13 8q-97 56 -191 105z" />
<glyph unicode="&#xf11a;" d="M0 -69q0 104 67 208t156 144q-100 96 -100 240q0 126 76.5 215t184.5 89q51 0 108 -26q-51 -26 -89 -72q-14 2 -19 2q-69 0 -117.5 -61t-48.5 -147q0 -60 27 -112t72 -78q24 -13 24 -41v-35q0 -16 -10.5 -29t-27.5 -17q-68 -15 -124 -80.5t-77 -151.5h95q-14 -58 -17 -95 h-131q-20 0 -34.5 14t-14.5 33zM256 -133q0 -20 14 -33.5t34 -13.5h672q20 0 34 14t14 33q0 102 -66.5 206.5t-156.5 146.5q101 90 101 240q0 124 -77 213.5t-185 89.5t-185 -89.5t-77 -213.5q0 -150 101 -240q-139 -69 -199 -234q-24 -67 -24 -119zM922 -85h-564 q19 85 76 151t125 80q38 12 38 48v34q0 29 -25 42q-44 26 -71 78t-27 112q0 86 48.5 146.5t117.5 60.5t117.5 -60.5t48.5 -146.5q0 -60 -27 -112t-71 -78q-24 -14 -24 -42v-34q0 -36 38 -48q68 -14 124.5 -80t75.5 -151z" />
<glyph unicode="&#xf11b;" d="M513 251l-277 -285l-32 -66l-141 -92l-23 24l89 145l63 34l277 285l-57 59l462 477l157 -162l-462 -477zM294 367q-57 -20 -117.5 -5.5t-105.5 60.5q-42 44 -57 103t1 115l123 -127l122 33l32 125l-124 128q56 16 112.5 0.5t99.5 -59.5t57.5 -103t-1.5 -116q-10 8 -2 -1 l7 -7l22 -21l-108 -115l56 -58l-36 -37l-34 36q-42 44 -47 49zM706 243l242 -252q30 -33 30 -75q0 -44 -30 -75q-30 -32 -72 -32q-43 0 -73 32l-246 254z" />
<glyph unicode="&#xf11c;" d="M23 -28q0 17 13 30l497 498q-29 84 6 167q33 84 114 130t167 29q47 -9 84 -37l-214 -116l120 -192l209 104q3 -54 -16.5 -103t-55.5 -80q-85 -71 -173 -70q-48 0 -91 12l-494 -495q-12 -12 -31 -12q-18 0 -31 12l-91 92q-13 13 -13 31z" />
<glyph unicode="&#xf11d;" horiz-adv-x="896" d="M896 373l-124 41l-29 70l56 118l-72 72l-116 -58l-70 29l-44 123h-102l-40 -124l-71 -29l-118 56l-72 -72l58 -116l-29 -70l-123 -44v-102l124 -41l29 -70l-56 -118l72 -72l116 58l70 -29l44 -123h102l40 124l71 29l118 -56l72 72l-59 116l30 70l123 44v102zM448 482 q69 -2 114.5 -47.5t46.5 -114.5q-1 -69 -46.5 -114.5t-114.5 -47.5q-69 2 -114.5 47.5t-47.5 114.5q2 69 47.5 114.5t114.5 47.5z" />
<glyph unicode="&#xf11e;" d="M614 536v75q0 8 80 17q8 17 16 27q-27 60 -27 74q0 2 2 4l1 1q2 0 3 1l3 2q5 2 11 6l32 19l16 8q4 0 23.5 -23t28.5 -38q2 1 16 1t16 -1q33 44 49 60l3 1q3 0 67 -37q2 -2 2 -4q0 -14 -27 -74q9 -12 16 -27q79 -9 79 -17v-75q0 -9 -79 -16q-4 -9 -16 -28q27 -60 27 -73 q0 -2 -2 -4l-67 -38q-3 0 -22.5 23t-29.5 38h-9q-1 -1 -7 -1t-7 1h-9q-9 -15 -28.5 -38t-23.5 -23q-1 0 -66 38q-2 2 -2 4q0 13 27 73q-10 13 -16 28q-80 8 -80 16zM0 252v99q0 15 12 16l83 13q11 29 17 40q-19 29 -48 62q-4 4 -4 10q0 7 4 11q16 22 47 50.5t39 28.5 q7 0 11 -4l61 -48q28 12 41 17q6 64 13 82q3 13 16 13h99q15 0 16 -13l12 -82q8 -3 40 -16l63 47q4 4 11 4q4 0 11 -4q77 -72 77 -86q0 -6 -13 -22q-5 -5 -13 -17q-15 -18 -24 -32q12 -26 18 -43l81 -13q13 -1 13 -16v-98q0 -6 -4 -11t-9 -5l-82 -13q-3 -9 -17 -41l48 -61 q3 -6 3 -11t-3 -10q-18 -24 -48 -51.5t-38 -27.5q-7 0 -11 3l-62 48q-19 -10 -41 -16q-6 -58 -12 -83q-4 -13 -16 -13h-99q-6 0 -11 4.5t-5 9.5l-13 81q-28 9 -40 17l-62 -48q-5 -3 -11 -3q-7 0 -11 4q-77 71 -77 85q0 6 4 10l21 29q7 9 13.5 16.5t9.5 11.5l3 4 q-17 36 -19 44l-81 13q-13 0 -13 15zM771 526q20 -20 48 -20q29 0 48.5 20t19.5 48t-20 48t-48 20t-48 -20t-20 -48t20 -48zM245 205q41 -41 96 -41t96 40.5t41 96.5t-40 96t-97 40q-56 0 -96 -40t-40 -96t40 -96zM614 -10v75q0 8 80 17q8 17 16 27q-27 60 -27 74q0 2 2 4 l1 1q2 0 3 1l3 2q5 2 11 6l32 18q15 9 16 9q4 0 23.5 -23t28.5 -38q2 1 16 1t16 -1q16 24 49 60l3 1q3 0 67 -37q2 -2 2 -4q0 -14 -27 -74q9 -13 16 -27q79 -9 79 -17v-75q0 -9 -79 -16q-4 -9 -16 -28q27 -60 27 -74q0 -1 -2 -3l-67 -38q-3 0 -22.5 23t-29.5 38h-9 q-1 -1 -7 -1t-7 1h-9q-9 -15 -28.5 -38t-23.5 -23q-1 0 -66 38q-2 2 -2 3q0 14 27 74q-10 13 -16 28q-80 8 -80 16zM751 28q0 -29 20 -49t48 -20t48 20t20 49q0 27 -20 47.5t-48 20.5t-48 -20.5t-20 -47.5z" />
<glyph unicode="&#xf11f;" d="M387 436l3 -12q0 -2 2 -12l-57 -37l24 -59l67 14q4 -4 7 -10q1 -3 3 -5t3 -5l-39 -56l46 -46l56 39q3 -1 5 -3l1 -1q2 -2 5 -2l4 -3l2 -2l3 -2l-14 -67l59 -24l37 57q1 -1 6 -1l12 -2q1 -1 3 -1t3 -1l12 -67h64l12 67l12 3q2 0 12 2l37 -57l59 24l-14 67l3 2l2 2l10 6 q2 2 5 3l56 -39l46 46l-39 56q1 3 3 5q4 4 7 10q1 3 3 5l67 -14l24 59l-57 37q0 2 1 3t1 3l2 12q0 5 1 6l67 12v64l-67 12l-2 12q-1 1 -1 6q0 2 -1 3t-1 3l57 37l-24 59l-67 -14l-6 10l-2 2l-2 3q-2 2 -3 5l39 56l-46 46l-56 -39q-3 1 -5 3q-4 4 -10 7q-3 1 -5 3l14 67 l-59 24l-37 -57q-2 0 -3 1t-3 1l-12 2q-5 0 -6 1l-12 67h-64l-12 -67l-12 -2q-1 -1 -6 -1q-2 0 -3 -1t-3 -1l-37 57l-59 -24l14 -67l-10 -6l-2 -2l-3 -2q-2 -2 -5 -3l-56 39l-46 -46l39 -56q-1 -3 -3 -5l-1 -1q-1 -1 -1 -2q0 -2 -1 -2q-1 -3 -3 -5l-2 -2l-2 -3l-67 14 l-24 -59l57 -37q-1 -1 -1 -6l-2 -12q-1 -1 -1 -3t-1 -3l-67 -12v-64zM533 480q0 58 40.5 98.5t98.5 40.5t98.5 -40.5t40.5 -98.5t-40.5 -98.5t-98.5 -40.5q-59 0 -98 41q-41 39 -41 98zM0 0l70 -12q2 -8 6 -17l2 -4q0 -2 1 -3l1 -2q0 -4 4 -8l-41 -58l45 -45l58 41l2 -1 q1 -1 3 -1q2 -2 3 -2l7 -2q2 -1 4.5 -2t4 -2t2.5 -1l8 -3l12 -70h64l12 70q10 2 18 6q2 0 4 2t4 2l4 2q2 2 4 2l58 -41l45 45l-41 58l4 8v1q3 3 4 6q0 1 2 5q0 1 1 3t1 3l2 8l70 12v64l-70 12q-2 10 -6 18l-1 2q-1 1 -1 2q-2 2 -2 4l-2 4q-2 2 -2 4l41 58l-45 45l-58 -41 l-8 4q-4 2 -7.5 4t-6.5 3l-3 1q-4 0 -5 1t-4 1l-12 70h-64l-12 -70q-8 -2 -17 -6l-4 -2q-2 0 -3 -1l-2 -1q-1 0 -3 -2q-2 0 -3 -1l-2 -1l-58 41l-45 -45l41 -58q0 -1 -1 -2l-3 -6l-7 -17l-3 -9l-70 -12v-64zM160 32q0 27 18.5 45.5t45.5 18.5q26 0 46 -18q18 -20 18 -46 q0 -27 -18.5 -45.5t-45.5 -18.5q-29 0 -45 19q-19 16 -19 45z" />
<glyph unicode="&#xf120;" horiz-adv-x="896" d="M64 384v320h128v-320h-128zM384 576v128h128v-128h-128zM704 320v384h128v-384h-128zM576 512v-128h-256v128h256zM256 320v-128h-256v128h256zM512 320v-384h-128v384h128zM896 128h-256v128h256v-128zM192 128v-192h-128v192h128zM832 64v-128h-128v128h128z" />
<glyph unicode="&#xf121;" horiz-adv-x="896" d="M128 576v-31q0 -14 9.5 -23.5t23.5 -9.5h190q14 0 23.5 9.5t9.5 23.5v31h512v128h-512v31q0 14 -9.5 23.5t-23.5 9.5h-190q-14 0 -23.5 -9.5t-9.5 -23.5v-31h-128v-128h128zM320 704v-128h-128v128h128zM512 256v-31q0 -14 9.5 -23.5t23.5 -9.5h190q14 0 23.5 9.5 t9.5 23.5v31h128v128h-128v31q0 14 -9.5 23.5t-23.5 9.5h-190q-14 0 -23.5 -9.5t-9.5 -23.5v-31h-512v-128h512zM704 384v-128h-128v128h128zM128 -64v-31q0 -14 9.5 -23.5t23.5 -9.5h190q14 0 23.5 9.5t9.5 23.5v31h512v128h-512v31q0 14 -9.5 23.5t-23.5 9.5h-190 q-14 0 -23.5 -9.5t-9.5 -23.5v-31h-128v-128h128zM320 64v-128h-128v128h128z" />
<glyph unicode="&#xf122;" horiz-adv-x="896" d="M0 592v-160q0 -20 15 -33q13 -15 33 -15h16v-576h128v576h16q19 0 33.5 14.5t14.5 33.5v160q0 17 -14 34q-17 14 -34 14h-16v192h-128v-192h-16q-19 0 -33.5 -14.5t-14.5 -33.5zM320 208v-160q0 -20 15 -33q13 -15 33 -15h16v-192h128v192h16q19 0 33.5 14.5t14.5 33.5 v160q0 17 -14 34q-17 14 -34 14h-16v576h-128v-576h-16q-19 0 -33.5 -14.5t-14.5 -33.5zM640 592v-160q0 -20 15 -33q13 -15 33 -15h16v-576h128v576h16q19 0 33.5 14.5t14.5 33.5v160q0 17 -14 34q-17 14 -34 14h-16v192h-128v-192h-16q-19 0 -33.5 -14.5t-14.5 -33.5z M192 576v-128h-128v128h128zM832 576v-128h-128v128h128zM512 192v-128h-128v128h128z" />
<glyph unicode="&#xf123;" horiz-adv-x="768" d="M660 384h44q25 -1 44 -20t20 -44v-448q-1 -25 -20 -44t-44 -20h-640q-25 1 -44 20t-20 44v448q1 25 20 44t44 20h64v192q4 100 80 176t176 80q100 -4 176 -80t80 -176v-192h20zM512 384v192q-2 50 -40 88t-88 40q-50 -2 -88 -40t-40 -88v-192h256zM64 320v-448h448v64 h-384v64h384v64h-384v64h384v64h-384v64h384v64h-448z" />
<glyph unicode="&#xf124;" horiz-adv-x="768" d="M512 576v-16q0 -16 64 -16q28 0 46 9t18 23q-4 100 -80 176t-176 80q-100 -4 -176 -80t-80 -176v-192h-64q-25 -1 -44 -20t-20 -44v-448q1 -25 20 -44t44 -20h640q25 1 44 20t20 44v448q-1 25 -20 44t-44 20h-448v192q2 50 40 88t88 40q50 -2 88 -40t40 -88zM512 256 h-384v-64h384v-64h-384v-64h384v-64h-384v-64h384v-64h-448v448h448v-64z" />
<glyph unicode="&#xf125;" horiz-adv-x="960" d="M832 576v-99q0 -28 18 -46.5t46 -18.5t46 18.5t18 46.5v99q-4 100 -80 176t-176 80q-100 -4 -176 -80t-80 -176v-192h-384q-25 0 -44 -19.5t-20 -44.5v-448q1 -25 20 -44t44 -20h640q25 1 44 20t20 44v448q-1 25 -20 44t-44 20h-128v192q2 50 40 88t88 40q50 -2 88 -40 t40 -88zM512 256h-384v-64h384v-64h-384v-64h384v-64h-384v-64h384v-64h-448v448h448v-64z" />
<glyph unicode="&#xf126;" horiz-adv-x="768" d="M128 704q272 -7 452.5 -187.5t187.5 -452.5q2 -5 -8 -32q-10 -28 -56 -32q-46 4 -56 32q-10 27 -8 32q-5 218 -149.5 362.5t-362.5 149.5q-5 -2 -32 8q-28 10 -32 56q4 46 32 56q27 10 32 8zM128 448q163 -4 271.5 -112.5t112.5 -271.5q2 -5 -8 -32q-10 -28 -56 -32 q-46 4 -56 32q-10 27 -8 32q-3 109 -75 181t-181 75q-4 -1 -32 9t-32 55q5 46 32 56t32 8zM128 192q54 -1 90.5 -37.5t37.5 -90.5q-1 -54 -37.5 -90.5t-90.5 -37.5q-54 1 -90.5 37.5t-37.5 90.5q1 54 37.5 90.5t90.5 37.5z" />
<glyph unicode="&#xf127;" horiz-adv-x="896" d="M641 768q109 -3 181 -75t75 -181q-3 -109 -75 -181t-181 -75q-31 0 -58 7l-71 -71h-128v-64h-64v-64h-64v-64l-64 -64h-128l-64 64v64l391 391q-6 29 -6 57q3 109 75 181t181 75zM704 512q27 1 45 19t18 45t-18 45t-45 18t-45 -18t-18 -45t18 -45t45 -19zM64 64v-64 l320 320v64z" />
<glyph unicode="&#xf128;" d="M192 -128h128v128h128v128h128v71q2 -2 5 -2q2 -2 5 -3l2 -1q1 -1 2 -1l4 -3l141 -70q23 -12 49.5 -5.5t43.5 29.5l184 277q31 51 -10 98l-292 292q-47 41 -98 10l-277 -184q-23 -17 -29.5 -43.5t5.5 -49.5l70 -141q1 0 1 -2l1 -1l2 -3q1 0 1 -2t1 -2l2 -3l-357 -357 l-32 -224h192v64zM546 657q0 14 9 23l45 45q9 9 23 9q16 0 22 -9l272 -272q9 -6 9 -22q0 -14 -9 -23l-45 -45q-9 -9 -23 -9q-16 0 -22 9l-272 272q-9 6 -9 22zM462 289l-311 -312l-46 46l312 311z" />
<glyph unicode="&#xf129;" horiz-adv-x="960" d="M0 -192v960q0 27 18.5 45.5t45.5 18.5q26 0 46 -18q18 -20 18 -46v-960h-128zM192 102v596q64 40 104 55t88 15q112 0 192 -54t192 -54q86 0 192 73v-596q-109 -73 -192 -73q-112 0 -192 54t-192 54q-86 0 -192 -70z" />
<glyph unicode="&#xf130;" d="M0 319q0 100 39 195t111 167q148 150 361 150q103 0 196.5 -38.5t165.5 -111.5q72 -72 111.5 -167.5t39.5 -194.5t-39.5 -194.5t-111.5 -167.5t-165.5 -111t-196.5 -39q-211 0 -361 150q-71 71 -110.5 167t-39.5 195zM308 712l85 -117q57 24 118 24q63 0 118 -24l85 117 q-95 50 -203 50q-105 0 -203 -50zM348 156q67 -67 163 -67t163.5 67t67.5 163t-67.5 163.5t-163.5 67.5q-81 0 -143 -49t-80 -122q-16 -60 0 -119.5t60 -103.5zM69 319q0 -106 49 -203l117 85q-24 57 -24 118t24 118l-117 86q-49 -97 -49 -204zM788 201l116 -85 q49 97 49 203q0 107 -49 204l-116 -86q23 -60 23 -118t-23 -118zM393 43l-85 -116q95 -50 203 -50t203 50l-85 116q-55 -24 -118 -24q-61 0 -118 24z" />
<glyph unicode="&#xf131;" d="M0 -136v631q2 -2 11 -2l21 -3l11 -2l2 -1q91 -15 151 -15q44 0 72 22t28 55q0 22 -30 64q-30 37 -30 90q0 48 35.5 77.5t89.5 29.5q52 0 84 -28.5t32 -75.5q0 -49 -34 -83q-34 -37 -34 -79q0 -33 23.5 -50.5t65.5 -17.5q39 0 111 9q59 10 100 11v-1l-2 -11q0 -5 -1 -6 l-2 -15l-2 -13q-15 -93 -15 -151q0 -44 21.5 -72t54.5 -28q27 0 64 30q41 29 91 29q48 0 77 -34.5t29 -89.5q0 -52 -28 -84t-75 -32q-50 0 -84 34q-37 34 -79 34q-68 0 -68 -76q0 -27 10 -71q10 -37 10 -71v-3q-20 0 -21 -1q-22 -2 -59 -6q-80 -12 -132 -12 q-42 0 -65.5 17.5t-23.5 50.5q0 44 34 78q34 37 34 84t-32 75.5t-84 28.5q-54 0 -89.5 -29.5t-35.5 -77.5q0 -53 30 -90q30 -42 30 -64q0 -33 -28 -55t-72 -22q-60 0 -151 15l-17 3l-17 2l-8 1q-2 0 -3 1z" />
<glyph unicode="&#xf132;" d="M960 256l-115 116l179 179l-91 90l-178 -179l-102 102l179 178l-91 91l-178 -180l-115 116l-87 -88l512 -511zM209 355q-46 -162 66 -271v-1q67 -67 164.5 -77t179.5 36q83 40 175 117l-444 443q-107 -123 -141 -247zM320 1l-192 -193l-128 129l192 191z" />
<glyph unicode="&#xf133;" horiz-adv-x="832" d="M724 405l69 90q37 -79 39 -175q-4 -177 -121.5 -294.5t-294.5 -121.5q-177 4 -294.5 121.5t-121.5 294.5q4 177 121.5 294.5t294.5 121.5q144 0 257 -89l-79 -61q-79 54 -178 54q-136 -3 -226.5 -93.5t-93.5 -226.5q3 -136 93.5 -226.5t226.5 -93.5q136 3 226.5 93.5 t93.5 226.5q0 44 -12 85zM416 368q16 -2 25 -4l167 143q88 73 160 133q24 17 36 4t-4 -36q-58 -72 -275 -327l3 -25q-2 -48 -33.5 -79t-78.5 -32q-47 1 -78.5 32.5t-32.5 78.5q1 47 32 78.5t79 33.5zM448 576q0 -13 -9.5 -22.5t-22.5 -9.5t-22.5 9.5t-9.5 23.5q0 13 9 22 t23 9t23 -9t9 -23zM288 576q13 0 22.5 -9t9.5 -22q0 -14 -9.5 -23.5t-22.5 -9.5t-22.5 9.5t-9.5 23.5t9 22.5t23 8.5zM576 544q0 -13 -9.5 -22.5t-22.5 -9.5t-22.5 9.5t-9.5 23.5q0 13 9 22t23 9t23 -9t9 -23zM224 448q0 -13 -9.5 -22.5t-22.5 -9.5t-22.5 9.5t-9.5 23.5 q0 13 9 22t23 9t23 -9t9 -23zM128 320q0 14 9 23t23 9t23 -9t9 -22q0 -14 -9.5 -23.5t-22.5 -9.5t-22.5 9.5t-9.5 22.5zM640 320q0 14 9 23t23 9t23 -9t9 -22q0 -14 -9.5 -23.5t-22.5 -9.5t-22.5 9.5t-9.5 22.5z" />
<glyph unicode="&#xf134;" d="M0 319q0 138 70 259q70 117 188.5 185t253.5 68q138 0 256 -69q119 -69 187.5 -188t68.5 -255q0 -135 -68 -253.5t-185 -188.5q-121 -70 -259 -70q-137 0 -255 68t-187 186q-70 115 -70 258zM143 165q63 -150 215 -215q76 -32 154 -32t153.5 31.5t130.5 86.5t86 130 t31 153q0 79 -31 154t-86 130t-130 86t-154 31q-78 0 -153 -31t-130 -86t-86.5 -130.5t-31.5 -153.5q0 -76 32 -154zM482 653q14 12 31 12q18 0 30.5 -12.5t12.5 -30.5t-12.5 -31t-30.5 -13t-30 14q-14 12 -14 30t13 31zM339 578q0 18 13 31t31 13t30.5 -13t12.5 -31 t-12.5 -30.5t-30.5 -12.5q-16 0 -30 13t-14 30zM612 609q13 13 31 13t31 -13t13 -31t-13 -30.5t-31 -12.5t-31 12.5t-13 30.5t13 31zM222 523q14 12 31 12q18 0 30.5 -12.5t12.5 -30.5t-12.5 -31t-30.5 -13t-31 13t-13 31t13 31zM743 523q12 12 30 12t31 -12.5t13 -30.5 t-13 -31t-31 -13t-30.5 13t-12.5 31t13 31zM432 224q0 30 19 52t48 27l118 174q7 8 15 4.5t5 -13.5l-60 -197q15 -23 15 -47q0 -33 -23.5 -56.5t-56.5 -23.5t-56.5 23.5t-23.5 56.5zM179 393q12 12 30 12t31 -12.5t13 -30.5t-13 -31t-31 -13t-30.5 13t-12.5 31t13 31z M786 393q14 12 31 12q18 0 30.5 -12.5t12.5 -30.5t-12.5 -31t-30.5 -13t-31 13t-13 31t13 31z" />
<glyph unicode="&#xf135;" horiz-adv-x="896" d="M896 0h-512v640h512v-640zM320 576v-64h-64v-384h64v-64h-128v512h128zM128 512v-64h-64v-256h64v-64h-128v384h128zM512 512v-384h256v384h-256z" />
<glyph unicode="&#xf136;" d="M960 64l-480 -128l-480 128v576l480 128l480 -128v-576zM480 719l-128 -34l416 -111l129 34zM640 540l-416 111l-160 -43l416 -111zM448 441l-384 103v-433l384 -102v432zM768 510v-156l-128 -34v156l-128 -35v-432l384 102l1 433z" />
<glyph unicode="&#xf137;" horiz-adv-x="640" d="M136 768q56 -1 87 -57.5t31 -151.5q-3 -50 -25 -84q-24 -38 -25 -89q1 -31 14 -64q10 -31 12 -56q-1 -66 -26 -102t-68 -36q-40 2 -66 45.5t-36 115.5l-23 144q-9 53 -11 111q1 95 39.5 158.5t96.5 65.5zM503 512q58 -2 96.5 -65.5t39.5 -158.5q-2 -58 -11 -111l-23 -144 q-10 -72 -36 -115.5t-66 -45.5q-43 0 -68.5 36t-25.5 102q2 26 13 56q12 35 13 64q-2 53 -24 89q-23 35 -26 84q0 95 31 151.5t87 57.5z" />
<glyph unicode="&#xf138;" horiz-adv-x="896" d="M64 705h768q27 -1 45 -19t19 -45v-640q-1 -27 -19 -45t-45 -19h-768q-27 1 -45 19t-19 45v640q1 27 19 45t45 19zM384 385l-192 192l-64 -64l128 -128l-128 -128l64 -64zM384 257v-64h256v64h-256z" />
<glyph unicode="&#xf139;" d="M512 640h448q25 -1 44 -20t20 -44v-512q-1 -25 -20 -44t-44 -20h-896q-25 1 -44 20t-20 44v512q1 25 20 44t44 20h448zM576 512h384v32q1 1 -4 16q-5 14 -28 16h-832q-23 -2 -28 -16q-5 -15 -4 -16v-32h192l-128 -128h-64v-288q-1 -1 4 -16q5 -14 28 -16h832q23 2 28 16 q5 15 4 16v288h-512zM448 512l-128 -128h-64l128 128h64zM128 256v64h256v-64h-256zM640 320v-64h-192v64h192zM256 192v-64h-128v64h128zM448 192v-64h-128v64h128z" />
<glyph unicode="&#xf13a;" d="M512 704q163 -4 271.5 -112.5t112.5 -271.5q-3 -139 -85.5 -241.5t-214.5 -133.5q4 4 13 20q8 14 22 24q15 8 38 24q39 28 55 52q12 16 23 23q20 14 46 60.5t21 65.5q-10 12 -35 14q-25 0 -35 3q-7 4 -7 15q0 19 -32 25q-14 3 -43 17q-28 14 -40 11q-13 -3 -17 -5 t-18 -13q-16 -11 -23 -11q-45 -4 -50 30q-3 22 -15 28q-15 5 -17 4q0 4 4 13q5 11 -3 17q-9 -2 -27 -15t-33 9q-12 28 3 43q16 15 41 19.5t40 -8.5q13 -14 20 -16q6 2 0 15q-6 11 -4 22q5 9 15 17q10 7 10 14q-4 38 24 45q-7 7 0 12q3 2 8 7q3 3 9 -3q2 0 6.5 3t8 7t1.5 6 q-10 5 -15 10q-8 5 21 22l3 1l-20 16q-16 13 -29 18q-9 2 -12 0q-4 -3 -16 5q-1 1 -4 2t-7 2t-7 -1t-3 -6q3 -15 3 -29q0 -15 -20 -1q-24 16 -32 20q-13 7 20 23q5 2 2 6q0 5 6 9q5 4 -12 3q-18 -2 -26 8q-19 19 -39 12q-7 -2 0 -7q4 -6 3 -7q-2 -1 -18 5q-1 0 -8.5 3 t-9 3.5t-8 2.5t-9.5 1.5t-8.5 -0.5t-10.5 -2.5t-10 -5.5l-42 -28q-21 -14 -22 -22q5 5 24 12.5t26 1.5q5 -11 3 -29q-2 -20 4 -32h-1q-8 8 -9 -7q-6 -22 -14 -39q-11 -23 5 -56t14 -41t2 -12q6 -10 9 -14q4 -8 6 -6q1 2 -5 21t-5 23q2 2 3 -6q1 -7 8 -17l14 -18q8 -11 8 -18 q0 -23 29 -36l70 -27q9 -2 11 -1q6 0 15 -15q3 -6 7 -9q4 -4 16 -10.5t16 -6.5q5 0 6 3t6 3q3 -1 10 -5.5t8 -7.5v-9q0 -7 -1 -9l-12 -19q-11 -17 -9 -32v-10q0 -5 14 -21q14 -18 18 -26q5 -11 27 -24q33 -26 -11 -99q-8 -17 -7.5 -36.5t8.5 -24.5q-35 -7 -76 -7 q-163 4 -271.5 112.5t-112.5 271.5q4 163 112.5 271.5t271.5 112.5zM625 620q4 4 -2 14q-6 8 -8 21q-1 11 -12.5 19.5t-24.5 10.5q-12 1 -29 6q-16 4 -26 -2q-23 -20 13 -22q15 -2 36 -20q42 -31 53 -27zM476 666q5 -4 18 -0.5t18 14.5q2 8 -7 8q-12 1 -21 -6q-1 -1 -1 -4 l-2 -4l-4 -5q-2 -2 -1 -3zM544 617q13 0 8 13q-1 4 -13 11q-10 5 -16 9q-7 5 -38 5q-6 -1 -2 -5q3 -4 14 -4q14 -1 20.5 -6t-1.5 -16q-1 -1 0 -2t3.5 -2t5.5 -1q14 -2 19 -2zM602 344q17 2 2 8q-8 2 -12 0q-4 -3 -10 -3q-6 1 -24 12q-17 10 -37 10q-8 -2 -9 -4t1 -4 q1 -1 14 -2q10 -1 32 -13q19 -10 30 -9q7 1 13 5z" />
<glyph unicode="&#xf13b;" d="M443 658q6 4 30 -2l30 -11q25 30 57 83q22 37 45 95q-42 9 -98 9q-49 0 -101 -11q2 -51 10 -83q12 -46 27 -80zM551 588q7 -18 7 -41q0 -13 -8 -43q25 -27 72 -63q37 -30 86 -47q12 29 35 46q25 19 56 24q6 72 5 139q-2 89 -11 144q-22 16 -55 32q-27 13 -62 25 q-18 -55 -52 -112q-27 -47 -73 -104zM350 502q-15 29 -8 67q4 30 32 60q-21 59 -26 82q-13 61 -14 88q-126 -45 -217 -155q-87 -105 -112 -249q90 7 179 33q86 23 166 74zM920 367q18 1 53 5q28 3 47 8q-13 89 -47 159q-40 82 -99 141q5 -37 5 -114q0 -21 -2 -59 q-4 -37 -5 -59q24 -18 33 -34q14 -28 15 -47zM1 294h-1q86 -108 216 -168q130 -59 274 -61q18 48 71 66q51 17 94 -15q23 23 55 70q20 30 41 79q-9 4 -24 21q-9 9 -18 29q-62 20 -112 54q-54 36 -98 82q-27 -12 -47 -12q-25 -1 -49 10q-78 -57 -191 -90q-87 -25 -212 -38 l-1 -2q1 -3 1 -7q-2 -3 0 -6v-6q0 -4 1 -6zM901 292h1q-19 -23 -34 -30q-18 -10 -47 -15q-8 -28 -38 -82q-18 -34 -53 -78q91 26 160 70q81 50 132 117q1 3 1 8q-1 3 0 7q1 3 1 8q-1 4 0 8q-22 -4 -60 -8q-44 -4 -63 -5zM489 -8h-1q-125 0 -246 46q-126 47 -220 128 q18 -62 65 -131q42 -64 101 -114q72 -4 153 15q71 17 148 56zM701 6q-13 -54 -64 -78q-52 -24 -104 5q-40 -25 -110 -50q-53 -19 -123 -31q99 -44 204 -44q106 0 200 39q97 40 172.5 115t113.5 177q-56 -47 -134 -83q-71 -33 -155 -50z" />
<glyph unicode="&#xf13c;" horiz-adv-x="1152" d="M0 636v-640q0 -29 19 -45q16 -19 44 -19h1025q26 0 44.5 18.5t18.5 45.5v640q0 25 -17.5 43.5t-46.5 20.5h-1023q-27 0 -45.5 -18.5t-18.5 -45.5zM191 572v-129l-64 1v127zM383 572v-129l-128 1v127zM575 572v-129l-128 1v127zM767 572v-129l-128 1v127zM1023 572v-129 l-192 1v127zM255 379v-127l-128 -1v129zM447 380v-129l-128 1v127zM639 380v-129l-128 1v127zM831 380v-129l-128 1v127zM1023 379v-127l-128 -1v129zM191 188v-129l-64 1v127zM767 187v-127l-512 -1v129zM1023 188v-129l-192 1v127z" />
<glyph unicode="&#xf13d;" horiz-adv-x="1152" d="M0 636v-640q0 -29 19 -45q16 -19 44 -19h1025q26 0 44.5 18.5t18.5 45.5v640q0 25 -17.5 43.5t-46.5 20.5h-1023q-27 0 -45.5 -18.5t-18.5 -45.5zM1088 640v-640h-1024v640h1024zM191 572l-64 -1v-127l64 -1v129zM383 572l-128 -1v-127l128 -1v129zM575 572l-128 -1v-127 l128 -1v129zM767 572l-128 -1v-127l128 -1v129zM1023 572l-192 -1v-127l192 -1v129zM255 379l-128 1v-129l128 1v127zM447 380l-128 -1v-127l128 -1v129zM639 380l-128 -1v-127l128 -1v129zM831 380l-128 -1v-127l128 -1v129zM1023 379l-128 1v-129l128 1v127zM191 188 l-64 -1v-127l64 -1v129zM767 187l-512 1v-129l512 1v127zM1023 188l-192 -1v-127l192 -1v129z" />
<glyph unicode="&#xf13e;" d="M704 320l256 256l-256 256v-192h-704v-128h704v-192zM1024 832h-64v-512h64v512zM64 320h-64v-512h64v512zM320 0h704v128h-704v192l-256 -256l256 -256v192z" />
<glyph unicode="&#xf140;" horiz-adv-x="640" d="M320 832q136 -3 226.5 -93.5t93.5 -226.5q-2 -59 -24 -130t-66 -159.5t-86.5 -165t-109.5 -191.5q-8 -13 -12 -20t-10.5 -18t-11.5 -20q-170 292 -217 387q-98 198 -103 317q3 136 93.5 226.5t226.5 93.5zM320 384q55 1 91 37t37 91q-1 55 -37 91t-91 37q-55 -1 -91 -37 t-37 -91q1 -55 37 -91t91 -37z" />
<glyph unicode="&#xf141;" d="M74 640h876q31 -1 52 -22t22 -52v-492q-1 -31 -22 -52t-52 -22h-876q-31 1 -52 22t-22 52v492q1 31 22 52t52 22zM448 512l-96 -128l-96 128h-128v-384h128v192l96 -123l96 123v-192h128v384h-128zM832 320v192h-128v-192h-96l159 -224l161 224h-96z" />
<glyph unicode="&#xf142;" horiz-adv-x="896" d="M896 192h-218l-102 96l-230 -326l-58 345l-58 -115h-230v128h152l200 410l70 -442l141 198l173 -166h160v-128z" />
<glyph unicode="&#xf143;" d="M1024 128h-64v64h64v256h-64v64h64v256h-1024v-256h128v-64h-128v-256h128v-64h-128v-256h1024v256zM192 704v-128h-64v128h64zM320 704v-128h-64v128h64zM448 704v-128h-64v128h64zM576 704v-128h-64v128h64zM896 704v-64h-64v64h64zM896 512v-64h-704v64h704zM192 384 v-128h-64v128h64zM320 384v-128h-64v128h64zM448 384v-128h-64v128h64zM576 384v-128h-64v128h64zM896 384v-64h-64v64h64zM896 192v-64h-704v64h704zM192 64v-128h-64v128h64zM320 64v-128h-64v128h64zM448 64v-128h-64v128h64zM576 64v-128h-64v128h64zM896 64v-64h-64v64 h64z" />
<glyph unicode="&#xf144;" d="M0 576h1024q0 55 -36 91.5t-91 36.5h-128q-28 0 -46.5 18t-18.5 46t-18.5 46t-46.5 18h-254q-28 0 -46.5 -18t-18.5 -46t-18.5 -46t-46.5 -18h-124q-57 0 -94 -36t-37 -92zM640 704h-256q0 28 18.5 46t46.5 18h126q28 0 46.5 -18t18.5 -46zM192 512v-639q0 -29 18 -47 t47 -18h510q29 0 47 18t18 47v639h-640zM384 448v-512h-128v512h128zM576 448v-512h-128v512h128zM768 448v-512h-128v512h128z" />
<glyph unicode="&#xf145;" horiz-adv-x="704" d="M384 704h256q48 0 56 -8t8 -56v-64q0 -48 -8 -56t-56 -8v-576q0 -48 -8 -56t-56 -8h-448q-48 0 -56 8t-8 56v576q-48 0 -56 8t-8 56v64q0 48 8 56t56 8h256v64h64v-64zM640 640h-576v-64h576v64zM512 512v-448v-64q-48 0 -56 8t-8 56v448h-64v-448v-64q-48 0 -56 8t-8 56 v448h-64v-448v-64q-48 0 -56 8t-8 56v448h-64v-576h64h384v576h-64z" />
<glyph unicode="&#xf146;" horiz-adv-x="896" d="M896 640v-640q-1 -27 -19 -45t-45 -19h-768q-27 1 -45 19t-19 45v640q1 27 19 45t45 19h768q27 -1 45 -19t19 -45zM128 576v64h-64v-64h64zM256 576v64h-64v-64h64zM384 576v64h-64v-64h64zM448 640v-64h384v64h-384zM64 512v-512h768v512h-768z" />
<glyph unicode="&#xf147;" horiz-adv-x="896" d="M448 768q190 -5 316.5 -131.5t131.5 -316.5q-5 -190 -131.5 -316.5t-316.5 -131.5q-190 5 -316.5 131.5t-131.5 316.5q5 190 131.5 316.5t316.5 131.5zM448 0q136 3 226.5 93.5t93.5 226.5q-4 135 -94.5 225.5t-225.5 94.5q-135 -4 -225.5 -94.5t-94.5 -225.5 q3 -136 93.5 -226.5t226.5 -93.5zM448 640l64 -64v-192h128l64 -64l-64 -64h-256v320z" />
<glyph unicode="&#xf148;" horiz-adv-x="896" d="M448 768q190 -5 316.5 -131.5t131.5 -316.5q-5 -190 -131.5 -316.5t-316.5 -131.5q-190 5 -316.5 131.5t-131.5 316.5q0 120 64 227v-99h91q-25 -58 -27 -128q3 -136 93.5 -226.5t226.5 -93.5q136 3 226.5 93.5t93.5 226.5q-3 136 -93.5 226.5t-226.5 93.5 q-80 0 -152 -40l88 -88h-256v256l74 -74q112 74 246 74zM384 256l-64 64l128 128l64 -64h128l64 -64l-64 -64h-128v-192l-65 -63l-63 63v192z" />
<glyph unicode="&#xf149;" horiz-adv-x="768" d="M768 -64h-768v768h768v-768zM64 640v-640l640 640h-640z" />
<glyph unicode="&#xf14a;" horiz-adv-x="512" d="M64 256q-24 0 -44 20t-20 44t20 44t44 20t44 -20t20 -44t-20 -44t-44 -20zM256 256q-24 0 -44 20t-20 44t20 44t44 20t44 -20t20 -44t-20 -44t-44 -20zM448 256q-24 0 -44 20t-20 44t20 44t44 20t44 -20t20 -44t-20 -44t-44 -20z" />
<glyph unicode="&#xf14b;" horiz-adv-x="768" d="M0 256v128q0 48 40 88t88 40h512q48 0 88 -40t40 -88v-128q0 -48 -40 -88t-88 -40h-512q-48 0 -88 40t-40 88zM192 256q48 0 56 8t8 56t-8 56t-56 8t-56 -8t-8 -56t8 -56t56 -8zM384 256q48 0 56 8t8 56t-8 56t-56 8t-56 -8t-8 -56t8 -56t56 -8zM576 256q48 0 56 8t8 56 t-8 56t-56 8t-56 -8t-8 -56t8 -56t56 -8z" />
<glyph unicode="&#xf14c;" d="M224 544q95 -2 158.5 -65.5t65.5 -158.5q-2 -95 -65.5 -158.5t-158.5 -65.5q-95 2 -158.5 65.5t-65.5 158.5q2 95 65.5 158.5t158.5 65.5zM1024 512v-192q-4 -46 -32 -56q-27 -10 -32 -8h-192v-128l-192 192l192 192v-128h128v128h128zM96 320q0 -28 12 -52l168 168 q-24 12 -52 12q-54 -1 -90.5 -37.5t-37.5 -90.5zM224 192q54 1 90.5 37.5t37.5 90.5q0 28 -12 52l-168 -168q24 -12 52 -12z" />
<glyph unicode="&#xf14d;" d="M433 787q76 -49 119.5 -105.5t50.5 -107t-7.5 -94t-47.5 -75.5q-27 -29 -27 -58q0 -32 31 -51q42 -21 79 4.5t35 76.5q-14 158 116 169q-46 -100 10 -161q55 -61 67 -183q1 -116 -73.5 -213.5t-219.5 -128.5q69 34 69 112q1 57 -37.5 88.5t-101.5 13.5 q-70 -21 -107.5 30.5t-11.5 145.5q-69 -66 -89 -147t9.5 -150t97.5 -109q-90 25 -151.5 69t-88.5 94.5t-32.5 106.5t9.5 107.5t46 94.5q52 68 114 115q62 45 109 91q95 93 32 265z" />
<glyph unicode="&#xf14e;" horiz-adv-x="832" d="M320 704v128h128v-128h-128zM704 384h-704v256h704l128 -128zM320 576v-128h128v128h-128zM448 320v-512h-128v512h128z" />
<glyph unicode="&#xf14f;" d="M786 745q105 50 170 69q13 4 28 8.5t21 7t12 3t7 -0.5t0.5 -7t-3 -12t-7 -21t-8.5 -28q-19 -65 -69 -170q-135 16 -151 151zM717 708q14 -73 62 -121t121 -62q-33 -56 -72 -110q-44 -58 -104 -117.5t-120 -100.5l-33 -179l-210 -210l-6 187l134 134q-69 -32 -117 -44 q-44 -11 -45 -9l-59 59q-1 1 8 44q9 42 42 116l-131 -132l-187 6l210 210l178 33q46 65 110 129q100 100 219 167z" />
<glyph unicode="&#xf150;" horiz-adv-x="896" d="M49 270l-35 -86q-15 -32 3 -46q12 -10 32 -6q11 0 19 6q15 4 24 9l36 14q16 7 30 12q2 2 5 2t4 1t3 1l132 -136l-4 -12l-11 -31q-24 -66 -25 -69q-12 -28 2 -44t46 -4q47 22 144 61q55 22 82 51q26 29 32 76.5t-4 124.5l56 46q62 50 125 128q164 206 140 386l-2 8 q-1 0 -1 2l-5 5q-3 3 -7 4h-4q-183 25 -383 -148q-76 -68 -119 -123l-45 -58q-81 10 -126 6q-44 -6 -71 -33t-49 -86zM615 611q26 23 56 23q32 0 55 -23t23 -57t-22.5 -57t-55.5 -23t-55.5 23t-22.5 57q0 35 22 57z" />
<glyph unicode="&#xf151;" d="M788 576h108q27 -1 45 -19.5t19 -44.5v-384q-1 -26 -20 -44.5t-44 -19.5h-192v-128q-4 -55 -103 -91q-99 -35 -249 -37q-150 2 -248 37q-100 36 -104 91v768q4 55 104 91q98 35 248 37q150 -2 249 -37q99 -36 103 -91v-128h84zM352 640q96 2 159 19q64 18 65 45 q-1 27 -65 45q-65 18 -159 18q-95 0 -158 -18q-64 -18 -66 -45q2 -27 66 -45q61 -17 158 -19zM128 512v-512h64v512h-64zM512 512v-512h64v512h-64zM320 448v-512h64v512h-64zM704 448v-256h128v256h-128z" />
<glyph unicode="&#xf152;" d="M960 64v512q-2 82 -56 136t-136 56h-384v-145q30 -17 47 -47h162q38 64 111 64q54 -1 90.5 -37.5t37.5 -90.5q-1 -54 -37.5 -90.5t-90.5 -37.5q-73 0 -111 64h-162q-38 -64 -111 -64q-54 1 -90.5 37.5t-37.5 90.5q0 73 64 111v145q-82 -2 -136 -56t-56 -136v-512 q2 -107 92 -164l292 292h145q38 64 111 64q54 -1 90.5 -37.5t37.5 -90.5q-1 -54 -37.5 -90.5t-90.5 -37.5q-73 0 -111 64h-81l-192 -192h448q82 2 136 56t56 136zM320 576q-27 -1 -45 -19t-18 -45t18 -45t45 -18t45 18t18 45t-18 45t-45 19zM640 512q1 -27 19 -45t45 -18 t45 18t18 45t-18 45t-45 18t-45 -18t-19 -45zM640 128q1 -27 19 -45t45 -18t45 18t18 45t-18 45t-45 18t-45 -18t-19 -45z" />
<glyph unicode="&#xf153;" horiz-adv-x="768" d="M384 832q163 -4 271.5 -112.5t112.5 -271.5v-64q-1 -27 -19 -45t-45 -19v-320q-3 -54 -93 -90q-89 -36 -227 -38q-138 2 -226 38q-91 36 -94 90v320q-27 1 -45 19t-19 45v64q4 163 112.5 271.5t271.5 112.5zM384 576q137 -2 227 -37q90 -38 93 -91q-3 136 -93.5 226.5 t-226.5 93.5q-136 -3 -226.5 -93.5t-93.5 -226.5q4 54 94 91q89 35 226 37zM384 384q81 0 144.5 17.5t92.5 46.5q-29 29 -92.5 46.5t-144.5 17.5t-144.5 -17.5t-92.5 -46.5q29 -29 92.5 -46.5t144.5 -17.5zM576 160v32q27 1 45 19t19 45v115q-97 -51 -256 -51t-256 51v-115 q1 -27 19 -45t45 -19v-64q1 -27 19 -45t45 -18t45 18t19 45v32q0 14 9 23t23 9t23 -9t9 -23v-128q0 -14 9 -23t23 -9t23 9t9 23v160q0 14 9 23t23 9t23 -9t9 -23v-32q0 -14 9 -23t23 -9t23 9t9 23z" />
<glyph unicode="&#xf154;" horiz-adv-x="768" d="M768 -192h-768l128 128h128v96l-33 14q-19 9 -31 18h-192v64h384q2 82 56 136t136 56q-1 52 -26.5 93t-69.5 67l-96 -96l-64 -128h-128l-64 64v128l128 64l256 256h64l64 64l64 -64l-64 -64v-64l-64 -64q60 -45 93.5 -111.5t34.5 -144.5q0 -27 -4 -47q68 -58 68 -145 q-1 -71 -43 -123.5t-108 -68.5h23zM512 128q1 -27 19 -45t45 -18t45 18t18 45t-18 45t-45 18t-45 -18t-19 -45z" />
<glyph unicode="&#xf155;" horiz-adv-x="929" d="M929 704q14 -54 -3 -98q-6 -17 -17 -29.5t-28.5 -20.5t-29.5 -12t-35.5 -9.5t-30.5 -7.5l-100 -28q-41 -9 -75 21q-36 29 -49.5 81.5t4.5 94.5q7 16 19.5 28t32.5 20.5t33.5 13t39 11t31.5 8.5q13 4 42 11.5t44 11.5q40 10 73.5 -17t48.5 -79zM859 614q13 4 16.5 24 t-3.5 46q-7 25 -21.5 39.5t-28.5 11.5q-13 -4 -17 -24t4 -46q7 -25 22 -39.5t28 -11.5zM81 409h-1q-25 -6 -45.5 7t-26.5 39q-7 26 5.5 47.5t38.5 29.5l245 65q-26 -8 -38.5 -30t-6.5 -48q13 -44 59 -46q4 22 15 40q-7 9 -12 23q-6 26 7 49t39 31l168 110q2 1 7 2l24 6 q-40 -12 -56.5 -54t-2.5 -94t49.5 -80.5t75.5 -19.5l-24 -6l-7 -2l-49 3q17 -15 19 -32q-1 -55 -35 -90.5t-93 -37.5q-59 1 -93 36.5t-35 91.5l2 19l-102 -26zM820 -128h-128l-192 128v-128h-128v128l-192 -128h-128l320 320v64h128v-64z" />
<glyph unicode="&#xf156;" d="M514 640q-28 0 -47 19t-19 47q1 26 18.5 43.5t43.5 18.5q29 0 47.5 -18.5t18.5 -47.5q-1 -26 -18.5 -43.5t-43.5 -18.5zM960 256h18q6 0 10 -4.5t3 -10.5q-10 -49 -63 -80.5t-128 -31.5t-128 31.5t-63 80.5q-1 6 3 10.5t10 4.5h18l127 245q-57 7 -102 28q-44 20 -89 21 v-486q27 -1 45 -19t19 -45h57q32 -1 51.5 -19t19.5 -45h-512q1 26 18 44.5t39 19.5h71q1 27 19 45t45 19v486q-46 -1 -88 -21q-47 -21 -103 -28l127 -245h18q6 0 10 -4.5t3 -10.5q-10 -49 -63 -80.5t-128 -31.5t-128 31.5t-63 80.5q-1 6 3 10.5t10 4.5h18l127 246 q-28 5 -52 16q-18 10 -21 28.5t10 33.5l1 1q19 18 43 8q32 -13 53 -13q37 5 87 32q51 27 200 32q149 -5 200 -32q50 -27 87 -32q24 0 54 13q23 11 42 -8l1 -1q13 -14 10 -34q-6 -35 -73 -44zM128 256h192l-96 180zM800 436l-96 -180h192z" />
<glyph unicode="&#xf157;" d="M832 800q82 -4 136 -112.5t56 -271.5q-2 -163 -56 -271.5t-136 -112.5q-66 3 -128 40q-63 37 -237 67l45 -203l-64 -96l-192 32l-64 287l-64 1q-54 3 -90.5 75.5t-37.5 180.5q1 108 37.5 180.5t90.5 75.5q412 7 521 64q110 57 183 64zM261 346q204 -12 325 -44 q-8 50 -10 114q0 140 46 246q-123 -38 -319 -50q-47 -76 -47 -196q0 -33 5 -70zM832 128q54 3 90.5 84.5t37.5 203.5q0 133 -45 218q-53 -28 -86.5 -81t-44.5 -109.5t-11 -119t7 -107.5t17 -77q16 -10 35 -12zM69 352l128 -3q-5 35 -5 67q0 117 45 193q-34 -1 -109 -1 q-26 -4 -44.5 -62t-19.5 -130q0 -32 5 -64z" />
<glyph unicode="&#xf158;" d="M519 653l488 -153q16 -7 16 -21q0 -15 -16 -22l-489 -152q-6 -1 -13 0l-313 98v-93q13 -7 23 -22q19 -32 0 -65q9 -14 9 -32v-165q-8 -26 -64 -26t-64 26v165q2 19 9 32q-9 13 -9 32q0 36 32 55v113l-111 35q-16 7 -16 22q0 14 16 21l489 152q7 1 13 0zM513 448 q27 0 45 9t18 23t-18 23t-45 9t-45 -9t-18 -23t18 -23t45 -9zM501 244h-1q12 -3 23 0l245 76v-160q-3 -48 -75 -72t-181 -24t-181 24t-75 72v160z" />
<glyph unicode="&#xf159;" horiz-adv-x="640" d="M256 256h-256l576 576l-192 -448h256l-576 -576z" />
<glyph unicode="&#xf15a;" d="M768 768q109 -3 181 -75t75 -181q-3 -65 -25 -104.5t-52 -48.5t-60.5 -2.5t-54.5 27.5q-36 24 -66 0q-34 -28 -18 -84q6 -21 20 -44q63 -81 64 -162q-4 -224 -320 -222h-384q-2 5 8 32q10 28 56 32h64q-9 4 -26.5 22.5t-34 47.5t-22 60.5t14 66t68.5 59.5q-91 5 -120 32 t-72 32q-48 4 -48 32t48 32q47 -6 88 -29q40 -24 80 10q9 9 11.5 22.5t-7.5 26t-34 15.5q-47 -8 -96 1t-64 27q9 122 61 165q50 43 58 41l9 37q0 1 11 -1t25 -17q5 12 11 17q8 5 9 5t16 -9q14 -9 14 -33q68 2 158 -95q89 -98 98 -311q21 141 12 222q-9 79 -12 167 q3 79 75 132t181 55zM160 448q14 0 23 9t9 23t-9 23t-23 9t-23 -9t-9 -23t9 -23t23 -9z" />
<glyph unicode="&#xf15b;" d="M512 768q136 -3 226.5 -93.5t93.5 -226.5q-1 -78 -34.5 -144.5t-93.5 -111.5v-192q-1 -27 -19 -45t-45 -19q-1 -27 -19 -45t-45 -19h-128q-27 1 -45 19t-19 45q-27 1 -45 19t-19 45v192q-60 45 -93.5 111.5t-34.5 144.5q3 136 93.5 226.5t226.5 93.5zM704 279 q64 72 64 169q-3 109 -75 181t-181 75q-109 -3 -181 -75t-75 -181q0 -97 64 -169q36 -30 46 -47q17 -28 18 -77v-27h64v128l-128 128v64l64 64l64 -64l64 64l64 -64l64 64l64 -64v-64l-128 -128v-128h64v27q1 72 58 119q4 3 6 5zM640 448l-64 -64l-64 64l-64 -64l-64 64v-64 l128 -128l128 128v64zM384 64v-32q0 -14 9 -23t23 -9h192q14 0 23 9t9 23v32h-256z" />
<glyph unicode="&#xf15c;" horiz-adv-x="768" d="M320 832h32q13 -1 22.5 -10.5t9.5 -21.5t-9 -21.5t-23 -10.5h-32v-64h256l192 -192v-128h-192l-64 -384l128 -64v-64h-512v64l128 64l-64 384h-192v128l192 192h64v64q1 25 20 44t44 20zM544 640h-224v-64h-64v64h-32l-128 -128h576zM385 320h-118l53 -320h64z" />
<glyph unicode="&#xf15d;" horiz-adv-x="896" d="M513 832h191q-2 -63 1.5 -120t15 -118.5t40 -100.5t71.5 -45v-576q-1 -25 -20 -44t-44 -20h-704q-25 1 -44 20t-20 44l1 576q43 6 71.5 45t40 100.5t15 118.5t1.5 120h192q0 -27 24.5 -45t70.5 -18t71.5 18.5t25.5 44.5zM705 -128v557q-63 114 -64 339h-64 q3 -83 -35 -136.5t-125 -55.5q-88 4 -125 56.5t-35 135.5h-64q3 -160 -22 -249.5t-106 -134.5v-480q0 -15 9 -23.5t22 -8.5h609zM353 448l32 -32v-320l-32 -32h-128l-32 32v320l32 32h128zM609 448l32 -32v-320l-32 -32h-128l-32 32v320l32 32h128zM321 384h-64v-256h64v256 zM577 384h-64v-256h64v256z" />
<glyph unicode="&#xf15e;" d="M640 640h256q27 -1 45 -19t19 -45v-512q-1 -27 -19 -45t-45 -19h-768q-27 1 -45 19t-19 45v512q1 27 19 45t45 19h256v66q1 26 18.5 43.5t43.5 18.5h132q26 -1 43.5 -18.5t18.5 -43.5v-66zM576 640v48q0 16 -16 16h-96q-16 0 -16 -16v-48h128zM832 576v-192h-640v192h-64 v-256h320v-64h128v64h320v256h-64z" />
<glyph unicode="&#xf15f;" horiz-adv-x="896" d="M384 448v8l-87 10q-65 8 -112.5 56t-56.5 112q-5 65 33 103t102 32q49 -6 90 -37t63 -78q22 47 63 78t90 37q64 6 102 -32t33 -103q-9 -64 -56.5 -112t-112.5 -56l-39 -5q-32 -4 -48 -5v-8h-64zM295 527q35 -3 55.5 17.5t16.5 55.5t-29.5 61t-60.5 30q-35 3 -55.5 -17.5 t-16.5 -55.5t29 -60.5t61 -30.5zM555 691q-35 -4 -60.5 -30t-29.5 -61t16.5 -55.5t55.5 -16.5t61 29.5t30 60.5q3 35 -17.5 55.5t-55.5 17.5zM384 448v-192h-384v192h384zM832 256h-384v192h384v-192zM384 192v-320h-320v320h320zM768 192v-320h-320v320h320z" />
<glyph unicode="&#xf160;" d="M705 706l32 -130h287v-642h-1024v642h301l32 130h372zM515 576q-120 0 -204 -84t-84 -204q0 -119 84 -203q85 -85 204 -85q118 0 203 85t85 203q0 119 -85 204q-84 84 -203 84zM852 429h145v85h-145v-85zM515 491q83 0 144 -59q59 -61 59 -144q0 -84 -59 -143 q-60 -60 -144 -60q-85 0 -143 60q-60 58 -60 143q0 84 60 144q59 59 143 59z" />
<glyph unicode="&#xf161;" d="M768 704v-320l256 320v-768l-256 320v-320h-768v768h768z" />
<glyph unicode="&#xf162;" d="M512 768h448q25 -1 44 -20t20 -44v-576q-1 -25 -20 -44t-44 -20h-320q14 -3 53.5 -19t85.5 -47.5t53 -61.5q-1 -25 -20 -44t-44 -20h-512q-25 1 -44 20t-20 44q7 30 53 61.5t85.5 47.5t53.5 19h-320q-25 1 -44 20t-20 44v576q1 25 20 44t44 20h448zM64 704v-576h896v576 h-896zM128 192v64q22 73 157 200q133 125 419 184h192v-448h-768z" />
<glyph unicode="&#xf163;" horiz-adv-x="640" d="M64 832h512q27 -1 45 -19t19 -45v-896q-1 -27 -19 -45t-45 -19h-512q-27 1 -45 19t-19 45v896q1 27 19 45t45 19zM352 768h-64q-14 0 -23 -9t-9 -23t9 -23t23 -9h64q14 0 23 9t9 23t-9 23t-23 9zM64 640v-640h512v640h-512zM288 -128h64q14 0 23 9t9 23t-9 23t-23 9h-64 q-14 0 -23 -9t-9 -23t9 -23t23 -9z" />
<glyph unicode="&#xf164;" horiz-adv-x="896" d="M440 583q4 202 202 249l1 -3q1 -1 1 -4l2 -13v-6q0 -42 -20 -87.5t-55 -80.5q-30 -30 -56 -40.5t-75 -14.5zM20 277q0 140 69 229.5t175 89.5q51 0 109 -19q64 -18 85 -18q28 0 88 21q63 21 107 21q60 0 106 -24t89 -78q-61 -52 -86 -96.5t-25 -103.5q0 -72 41 -134.5 t99 -80.5q-47 -146 -137 -227q-53 -47 -97 -47q-23 0 -86 20q-51 19 -93 19q-32 0 -87 -20q-49 -21 -81 -21q-60 0 -125 75q-66 74 -108.5 184.5t-42.5 209.5z" />
<glyph unicode="&#xf165;" horiz-adv-x="896" d="M15 -115q-5 14 4 39q13 27 8 53l-6 25q-6 24 2.5 33.5t33.5 10.5q43 3 59 27q7 10 7 29q11 -35 -8 -53.5t-58 -15.5q-21 2 -26 -6.5t4 -31.5q1 -7 5 -11l7 -20q1 -1 1 -12q0 -9 -10 -28t-7.5 -28.5t20.5 -14.5q1 -1 49 -10q62 -13 99 -24q125 -39 129 28q2 32 -16 63 l-11 21q-75 114 -97 138q-37 43 -64 23q-6 -6 -9 8q-5 31 5 52q5 12 13 26q11 19 28 66q15 44 34 79q15 25 22 31q63 81 71 111q-6 65 -9 177q-2 60 16 94.5t63 54.5q46 22 113 3q63 -19 94.5 -71.5t27.5 -107.5q-7 -137 93 -246q31 -33 57 -92q56 -129 30 -191 q-5 -12 -11 -12q-6 -2 -29 -31q-20 -29 -54.5 -28t-48.5 32q-5 8 -5 11q-14 21 -25 17t-15 -28q-4 -21 4 -55q12 -36 1 -112q-6 -35 10 -56q16 -20 41 -19.5t49 19.5q35 28 52 38t59 25q30 9 44 21q34 25 -33 49q-17 6 -28 26q-8 22 -7.5 42.5t7.5 27.5q0 -57 36 -82l13 -8 l9 -6q24 -13 24 -27q2 -12 -10 -25q-15 -16 -67 -41q-12 -4 -15 -7q-44 -21 -92 -69q-11 -8 -39 -10q-59 -3 -77 35q-6 13 -22 16q-30 2 -66 2h-26q-18 0 -66 -3q-50 0 -75 -25q-26 -23 -49 -23.5t-70 17.5q-46 17 -84 25q-3 2 -13 3l-16 3q-43 7 -59 13q-14 5 -21 16z M497 735q2 -2 4 0l3 3l2 1l2 2q3 3 8 5h5q11 0 14 5q0 1 -1 2v1l-3 2l-2 2l-6 4q-11 8 -14 8q-10 0 -7 -11q3 -6 -4 -13q-4 -4 -1 -11zM195 237l-3 -3q-20 -39 6 -95q1 -6 14 -16l12 -9l2 -2q18 -18 59 -52l29 -24q3 -3 11 -9l5 -5l3 -2l6 -4q16 -23 5 -40.5t-29 -18.5 l16 -25q20 -29 20 -72q26 14 4 53l-2 3q-1 3 -4 6q-4 4 -5 7q-2 2 -2 3q9 11 19 4q25 -31 95 -20q76 7 101 49q13 21 19.5 17t5.5 -29q0 -20 -13 -53q-12 -28 11 -30l8 44q10 45 4 94q-12 70 9 95q7 10 29 10q0 19 18 29q19 9 40.5 7t36.5 -12q0 11 -31 24l4 16q3 6 3 15 q0 2 2 12q1 3 0 13q-1 1 -1 11t-1 12q-3 9 -3 12l-2 14l-4 15q-5 28 -26.5 59.5t-41.5 42.5q14 -11 33 -47q49 -91 31 -159q-6 -24 -29 -24q-17 -3 -22 11q-4 7 -4 47q-2 53 -18 101q-5 15 -20 40l-7 8l-3 3q-1 1 -2 1q-17 66 -34 91q-32 37 -19 73t-23 42q-5 1 -25 10 q-18 9 -21 9q-5 1 -6 15q-2 16 5.5 30t19.5 15q18 1 28 -16t4 -35q-4 -10 0 -15q4 -3 9 -2.5t9.5 7t4.5 15.5q0 63 -33 76q-1 0 -4 1l-6 2t-6 1q-60 -3 -50 -76q0 -9 -1 -9q-11 11 -35 6q-7 -1 -10 3q1 29 -8 50q-9 19 -25 20.5t-24 -14.5q-23 -43 -1 -77q9 -16 18 0 q4 4 -1 4h-3q-4 0 -9 9.5t-5 18.5q-2 29 24 29q9 0 15 -10.5t6 -23.5q0 -12 -1 -13q-12 -10 -18 -16q-1 -6 -15 -14q-18 -10 -20 -22q-3 -8 4 -11q13 -8 23 -21q8 -11 31 -12q31 0 58 9q6 0 13 4q13 3 37 13q6 4 12 10q7 8 14 0q7 -6 -10 -12q-12 -3 -59 -24 q-26 -11 -39.5 -13t-45.5 1q-5 2 -5 -1l2 -1q2 -4 8 -10q34 -25 79 0q8 2 20 10q18 11 31 16q12 6 14 -5q0 -3 -2 -5l-8 -6l-6 -2l-2 -1q-2 -2 -3 -2q-5 -1 -6 -3q-16 -7 -38 -25q-23 -17 -40 -25q-15 -6 -27 0t-36 42q-12 20 -14 12v-5q0 -21 -25 -64q-25 -39 -6 -69 q-13 -4 -35.5 -51.5t-27.5 -80.5q-1 -2 -1 -40q0 -30 -3 -34q-4 -14 -17 -1q-17 17 -20 53q-1 10 2 32q3 11 0 11zM486 634l2 -1q8 -3 10 -18q0 -1 5 2l1 1q0 14 -9 19q-1 1 -7 1t-2 -4zM353 631l3 -4q6 0 4 -8q-2 -12 5 -12q1 0 1 2q4 19 -8 26q-5 0 -5 -4zM421 592 q14 6 18 -1q1 -1 1 -3q0 -7 -9 2q-4 4 -10 2zM371 585q0 7 11 9h6q-8 -2 -9 -6q-3 -6 -5 -6q-3 0 -3 3zM570 524h-1q-8 -8 3 -24.5t24 -18.5q3 -1 8 5q4 5 1.5 11.5t-10.5 8.5q-7 2 -14 8l-4 4l-3 4q-2 2 -2 3zM222 318l-2 -5q0 -9 12 6q3 3 4 6q0 6 2 8q1 1 1 5v2l-2 2 q-3 0 -6 -9q-1 -6 -9 -15z" />
<glyph unicode="&#xf166;" d="M1024 832v-489h-558v412zM420 749v-406h-420v348zM420 292v-401l-420 58v343h420zM1024 292v-484l-558 77v407h558z" />
<glyph unicode="&#xf167;" horiz-adv-x="896" d="M732 511h-569q0 71 39 132t106 95l-43 81q-4 7 3 11.5t12 -2.5l44 -82q64 26 124 26t124 -26l44 82q5 7 12 2.5t3 -11.5l-43 -81q66 -34 105 -94.5t39 -132.5zM301 621q7 -7 17 -7t17 7t7 17t-7 17t-17 7t-16.5 -7t-6.5 -17t6 -17zM561 621q7 -7 17 -7t16.5 7t6.5 17 t-6.5 17t-16.5 7t-17 -7t-7 -17t7 -17zM15 173v265q0 26 18.5 44.5t44.5 18.5q25 0 44 -18.5t19 -44.5v-265q0 -26 -18.5 -44.5t-44.5 -18.5t-44.5 18.5t-18.5 44.5zM755 173v265q0 26 18.5 44.5t44.5 18.5t44.5 -18.5t18.5 -44.5v-265q0 -26 -18.5 -44.5t-44.5 -18.5 t-44.5 18.5t-18.5 44.5zM731 489v-410q0 -28 -20 -48t-48 -20h-46v-140q0 -26 -18.5 -44.5t-44.5 -18.5t-45 18.5t-19 44.5v140h-84v-140q0 -26 -19 -44.5t-45 -18.5t-44.5 18.5t-18.5 44.5v140h-46q-28 0 -48 20t-20 48v410h566z" />
<glyph unicode="&#xf200;" horiz-adv-x="640" d="M448 256v-256h-256v256h-192l320 384l320 -384h-192z" />
<glyph unicode="&#xf201;" horiz-adv-x="640" d="M320 0l-320 384h192v256h256v-256h192z" />
<glyph unicode="&#xf202;" horiz-adv-x="640" d="M640 192h-256v-192l-384 320l384 320v-192h256v-256z" />
<glyph unicode="&#xf203;" horiz-adv-x="640" d="M256 192h-256v256h256v192l384 -320l-384 -320v192z" />
<glyph unicode="&#xf204;" horiz-adv-x="384" d="M256 256v-128h-128v128h-128l192 256l192 -256h-128z" />
<glyph unicode="&#xf205;" horiz-adv-x="384" d="M192 128l-192 256h128v128h128v-128h128z" />
<glyph unicode="&#xf206;" horiz-adv-x="384" d="M384 256h-128v-128l-256 192l256 192v-128h128v-128z" />
<glyph unicode="&#xf207;" horiz-adv-x="384" d="M128 256h-128v128h128v128l256 -192l-256 -192v128z" />
<glyph unicode="&#xf208;" horiz-adv-x="768" d="M19 343q18 -19 45 -19t45 19l211 210v-613q0 -29 19 -45q16 -19 45 -19q27 0 45.5 18.5t18.5 45.5v613l211 -210q13 -19 45 -19t45 19q19 18 19 45t-19 45l-320 320q-18 19 -45 19t-45 -19l-320 -320q-19 -18 -19 -45t19 -45z" />
<glyph unicode="&#xf209;" horiz-adv-x="896" d="M83 213l320 -320q18 -19 45 -19t45 19l320 320q19 18 19 45t-18.5 45.5t-45.5 18.5t-45 -19l-211 -210v613q0 26 -18 46q-20 18 -46 18q-27 0 -45.5 -18.5t-18.5 -45.5v-613l-211 210q-15 19 -45 19t-45 -19q-19 -18 -19 -45t19 -45z" />
<glyph unicode="&#xf20a;" horiz-adv-x="896" d="M19 271l320 -320q18 -19 45 -19t45.5 18.5t18.5 45.5t-19 45l-210 211h613q27 0 45.5 18.5t18.5 45.5q0 26 -18 46q-19 18 -46 18h-613l210 211q19 15 19 45t-19 45q-18 19 -45 19t-45 -19l-320 -320q-19 -18 -19 -45t19 -45z" />
<glyph unicode="&#xf20b;" horiz-adv-x="896" d="M0 316q0 -29 19 -45q16 -19 45 -19h613l-210 -211q-19 -13 -19 -45t19 -45q18 -19 45 -19t45 19l320 320q19 18 19 45t-19 45l-320 320q-18 19 -45 19t-45.5 -18.5t-18.5 -45.5t19 -45l210 -211h-613q-27 0 -45.5 -18.5t-18.5 -45.5z" />
<glyph unicode="&#xf20c;" horiz-adv-x="640" d="M512 128l-192 192l-192 -192l-128 128l320 320l320 -320z" />
<glyph unicode="&#xf20d;" horiz-adv-x="640" d="M320 64l-320 320l128 128l192 -192l192 192l128 -128z" />
<glyph unicode="&#xf20e;" horiz-adv-x="448" d="M448 128l-128 -128l-320 320l320 320l128 -128l-192 -192z" />
<glyph unicode="&#xf20f;" horiz-adv-x="448" d="M128 0l-128 128l192 192l-192 192l128 128l320 -320z" />
<glyph unicode="&#xf210;" horiz-adv-x="767" d="M0 192l384 384l384 -384h-768z" />
<glyph unicode="&#xf211;" horiz-adv-x="767" d="M384 64l-384 384h768z" />
<glyph unicode="&#xf212;" horiz-adv-x="383" d="M384 -64l-384 384l384 384v-768z" />
<glyph unicode="&#xf213;" horiz-adv-x="383" d="M384 320l-384 384v-768z" />
<glyph unicode="&#xf250;" d="M40 518q39 94 110 165t165.5 110t196.5 39t196.5 -39t166.5 -110q71 -72 110 -166.5t39 -196.5q0 -103 -39 -197t-110 -165q-150 -150 -363 -150q-104 0 -198 39t-164 111q-72 70 -111 164t-39 198q0 108 40 198zM832 480l-96 96l-320 -320l-128 128l-96 -96l224 -224z " />
<glyph unicode="&#xf251;" d="M40 518q39 94 110 165t165.5 110t196.5 39t196.5 -39t166.5 -110q71 -72 110 -166.5t39 -196.5q0 -103 -39 -197t-110 -165q-150 -150 -363 -150q-104 0 -198 39t-164 111q-72 70 -111 164t-39 198q0 108 40 198zM512 240l157 -156l88 88l-156 157l156 157l-88 88 l-157 -157l-157 157l-88 -89l156 -156l-156 -157l88 -88z" />
<glyph unicode="&#xf252;" d="M40 518q39 94 110 165t165.5 110t196.5 39t196.5 -39t166.5 -110q71 -72 110 -166.5t39 -196.5q0 -103 -39 -197t-110 -165q-150 -150 -363 -150q-104 0 -198 39t-164 111q-72 70 -111 164t-39 198q0 108 40 198zM440 427v6q0 28 17 54q11 21 55 26q2 -1 18 -1 q10 -2 27 -10q6 -5 16 -20l3 -9q1 -1 1 -3q4 -7 4 -24q0 -9 -1 -10q-1 -10 -8 -20l-7 -12l-4 -4l-1 -2l-4 -4l-2 -2l-2 -1q0 -1 -1 -1l-4 -4l-2 -1l-10 -7q-8 -5 -22 -16q-42 -34 -50 -43q-6 -6 -9 -14q-7 -17 -7 -39q-2 -18 -2 -26v-10l109 1l1 4v12l2 12l2 6q5 20 29 34 l29 21l18 15l16 13q7 4 13 12l2 2q1 1 3 3.5t4 4.5v1q27 35 27 80q0 39 -12.5 65.5t-42.5 53.5q-61 40 -138 39q-53 2 -106 -27q-72 -49 -74 -150v-4zM435 106q-1 -61 67 -71l2 1q28 -1 48 17.5t22 47.5q0 31 -18 50.5t-50 21.5l-3 -1q-27 1 -47.5 -18.5t-20.5 -47.5z" />
<glyph unicode="&#xf253;" d="M40 518q39 94 110 165t165.5 110t196.5 39t196.5 -39t166.5 -110q71 -72 110 -166.5t39 -196.5q0 -103 -39 -197t-110 -165q-150 -150 -363 -150q-104 0 -198 39t-164 111q-72 70 -111 164t-39 198q0 108 40 198zM448 64h128v192h192v128h-192v192h-128v-192h-192v-128 h192v-192z" />
<glyph unicode="&#xf254;" d="M40 518q39 94 110 165t165.5 110t196.5 39t196.5 -39t166.5 -110q71 -72 110 -166.5t39 -196.5q0 -103 -39 -197t-110 -165q-150 -150 -363 -150q-104 0 -198 39t-164 111q-72 70 -111 164t-39 198q0 108 40 198zM768 384h-512v-128h512v128z" />
<glyph unicode="&#xf255;" d="M40 518q39 94 110 165t165.5 110t196.5 39t196.5 -39t166.5 -110q71 -72 110 -166.5t39 -196.5q0 -103 -39 -197t-110 -165q-150 -150 -363 -150q-104 0 -198 39t-164 111q-72 70 -111 164t-39 198q0 108 40 198zM468 562q0 -30 17.5 -45t48.5 -14q35 -1 60.5 21t25.5 54 q0 59 -62 61q-39 -1 -64.5 -23.5t-25.5 -53.5zM345 320l16 -28q40 28 78 35q5 -2 5 -8q0 -10 -1 -11q-4 -11 -4 -17l-38 -153q-15 -62 -3 -87q8 -20 37 -22q39 2 95.5 33t99.5 76l-19 23l-23 -15q-20 -12 -39 -18q-8 -3 -11 -2q-3 -1 -5 1.5t-2 6.5q-3 12 3 29l43 164 q13 39 8 71q-7 28 -29 26q-33 1 -94 -28.5t-117 -75.5z" />
<glyph unicode="&#xf256;" d="M40 518q39 94 110 165t165.5 110t196.5 39t196.5 -39t166.5 -110q71 -72 110 -166.5t39 -196.5q0 -103 -39 -197t-110 -165q-150 -150 -363 -150q-104 0 -198 39t-164 111q-72 70 -111 164t-39 198q0 108 40 198zM576 576h-128v-320h128v320zM576 192h-128v-128h128v128z " />
<glyph unicode="&#xf257;" d="M40 518q39 94 110 165t165.5 110t196.5 39t196.5 -39t166.5 -110q71 -72 110 -166.5t39 -196.5q0 -103 -39 -197t-110 -165q-150 -150 -363 -150q-104 0 -198 39t-164 111q-72 70 -111 164t-39 198q0 108 40 198zM96 320q0 -175 122 -294q119 -122 294 -122 q177 0 294 122q58 57 90 134.5t32 159.5q0 85 -31.5 161.5t-90.5 132.5q-56 59 -132.5 90.5t-161.5 31.5q-81 0 -159 -32t-135 -90q-122 -117 -122 -294zM416 256l320 320l96 -96l-416 -416l-224 224l96 96z" />
<glyph unicode="&#xf258;" d="M40 518q39 94 110 165t165.5 110t196.5 39t196.5 -39t166.5 -110q71 -72 110 -166.5t39 -196.5q0 -103 -39 -197t-110 -165q-150 -150 -363 -150q-104 0 -198 39t-164 111q-72 70 -111 164t-39 198q0 108 40 198zM96 320q0 -175 122 -294q119 -122 294 -122 q177 0 294 122q58 57 90 134.5t32 159.5q0 85 -31.5 161.5t-90.5 132.5q-56 59 -132.5 90.5t-161.5 31.5q-81 0 -159 -32t-135 -90q-122 -117 -122 -294zM267 485l88 89l157 -157l157 157l88 -88l-156 -157l156 -157l-88 -88l-157 156l-157 -156l-88 88l156 157z" />
<glyph unicode="&#xf259;" d="M40 518q39 94 110 165t165.5 110t196.5 39t196.5 -39t166.5 -110q71 -72 110 -166.5t39 -196.5q0 -103 -39 -197t-110 -165q-150 -150 -363 -150q-104 0 -198 39t-164 111q-72 70 -111 164t-39 198q0 108 40 198zM96 320q0 -175 122 -294q119 -122 294 -122 q177 0 294 122q58 57 90 134.5t32 159.5q0 85 -31.5 161.5t-90.5 132.5q-56 59 -132.5 90.5t-161.5 31.5q-81 0 -159 -32t-135 -90q-122 -117 -122 -294zM327 428v4q2 101 74 150q53 29 106 27q77 1 138 -39q30 -27 42.5 -53.5t12.5 -65.5q0 -45 -27 -80v-1q-3 -3 -7 -8 l-2 -2q-6 -8 -13 -12l-16 -13l-18 -15l-29 -21q-24 -14 -29 -34l-2 -6l-2 -12v-12l-1 -4l-109 -1v10q0 8 2 26q0 22 7 39q3 8 9 14q8 9 50 43q14 11 22 16l10 7l2 1q5 6 7 6l2 2l4 4l1 2l4 4l7 12q7 10 8 20q1 1 1 10q0 17 -4 24q0 2 -1 3l-3 9q-10 15 -16 20q-17 8 -27 10 q-16 0 -18 1q-44 -5 -55 -26q-17 -26 -17 -54v-6zM435 106q0 28 20.5 47.5t47.5 18.5l3 1q32 -2 50 -21.5t18 -50.5q-2 -29 -22 -47.5t-48 -17.5l-2 -1q-68 10 -67 71z" />
<glyph unicode="&#xf25a;" d="M40 518q39 94 110 165t165.5 110t196.5 39t196.5 -39t166.5 -110q71 -72 110 -166.5t39 -196.5q0 -103 -39 -197t-110 -165q-150 -150 -363 -150q-104 0 -198 39t-164 111q-72 70 -111 164t-39 198q0 108 40 198zM96 320q0 -175 122 -294q119 -122 294 -122 q177 0 294 122q58 57 90 134.5t32 159.5q0 85 -31.5 161.5t-90.5 132.5q-56 59 -132.5 90.5t-161.5 31.5q-81 0 -159 -32t-135 -90q-122 -117 -122 -294zM448 384v192h128v-192h192v-128h-192v-192h-128v192h-192v128h192z" />
<glyph unicode="&#xf25b;" d="M40 518q39 94 110 165t165.5 110t196.5 39t196.5 -39t166.5 -110q71 -72 110 -166.5t39 -196.5q0 -103 -39 -197t-110 -165q-150 -150 -363 -150q-104 0 -198 39t-164 111q-72 70 -111 164t-39 198q0 108 40 198zM96 320q0 -175 122 -294q119 -122 294 -122 q177 0 294 122q58 57 90 134.5t32 159.5q0 85 -31.5 161.5t-90.5 132.5q-56 59 -132.5 90.5t-161.5 31.5q-81 0 -159 -32t-135 -90q-122 -117 -122 -294zM768 384v-128h-512v128h512z" />
<glyph unicode="&#xf25c;" d="M40 518q39 94 110 165t165.5 110t196.5 39t196.5 -39t166.5 -110q71 -72 110 -166.5t39 -196.5q0 -103 -39 -197t-110 -165q-150 -150 -363 -150q-104 0 -198 39t-164 111q-72 70 -111 164t-39 198q0 108 40 198zM96 320q0 -175 122 -294q119 -122 294 -122 q177 0 294 122q58 57 90 134.5t32 159.5q0 85 -31.5 161.5t-90.5 132.5q-56 59 -132.5 90.5t-161.5 31.5q-81 0 -159 -32t-135 -90q-122 -117 -122 -294zM468 562q0 31 25.5 53.5t64.5 23.5q62 -2 62 -61q0 -32 -25.5 -54t-60.5 -21q-31 -1 -48.5 14t-17.5 45zM361 292 l-16 28q56 46 117 75.5t94 28.5q22 2 29 -26q5 -32 -8 -71l-43 -164q-6 -17 -3 -29q0 -4 2 -6.5t5 -1.5q3 -1 11 2q19 6 39 18l23 15l19 -23q-43 -45 -99.5 -76t-95.5 -33q-29 2 -37 22q-12 25 3 87l38 153q0 6 4 17q1 1 1 11q0 6 -5 8q-38 -7 -78 -35z" />
<glyph unicode="&#xf25d;" d="M40 518q39 94 110 165t165.5 110t196.5 39t196.5 -39t166.5 -110q71 -72 110 -166.5t39 -196.5q0 -103 -39 -197t-110 -165q-150 -150 -363 -150q-104 0 -198 39t-164 111q-72 70 -111 164t-39 198q0 108 40 198zM96 320q0 -175 122 -294q119 -122 294 -122 q177 0 294 122q58 57 90 134.5t32 159.5q0 85 -31.5 161.5t-90.5 132.5q-56 59 -132.5 90.5t-161.5 31.5q-81 0 -159 -32t-135 -90q-122 -117 -122 -294zM576 576v-320h-128v320h128zM576 192v-128h-128v128h128z" />
<glyph unicode="&#xf25e;" d="M704 -192l320 320v384l-320 320h-384l-320 -320v-384l320 -320h384zM576 576v-320h-128v320h128zM576 192v-128h-128v128h128z" />
<glyph unicode="&#xf25f;" d="M704 -192l320 320v384l-320 320h-384l-320 -320v-384l320 -320h384zM384 704h256l256 -256v-256l-256 -256h-256l-256 256v256zM576 576h-128v-320h128v320zM576 192h-128v-128h128v128z" />
<glyph unicode="&#xf260;" d="M71 -96h882q26 0 37 19t-2 42l-442 746q-13 21 -34 21t-34 -21l-442 -746q-13 -23 -2 -42t37 -19zM576 448v-320h-128v320h128zM576 64v-64h-128v64h128z" />
<glyph unicode="&#xf261;" d="M69 -128h886q25 0 36 19t-1 41l-443 775q-13 23 -35 23t-35 -23l-443 -775q-13 -22 -1.5 -41t36.5 -19zM160 -6l316 580q13 23 36 23t36 -23l316 -580q12 -21 1 -39.5t-36 -18.5h-634q-25 0 -36 18.5t1 39.5zM576 448v-320h-128v320h128zM576 64v-64h-128v64h128z" />
<glyph unicode="&#xf280;" horiz-adv-x="512" d="M512 320l-512 320v-640z" />
<glyph unicode="&#xf281;" horiz-adv-x="512" d="M192 640v-640h-192v640h192zM512 0h-192v640h192v-640z" />
<glyph unicode="&#xf282;" horiz-adv-x="768" d="M384 320l-384 -256v512zM384 576l384 -256l-384 -256v512z" />
<glyph unicode="&#xf283;" horiz-adv-x="768" d="M384 64l-384 256l384 256v-512zM768 64l-384 256l384 256v-512z" />
<glyph unicode="&#xf284;" d="M40 122q38 -93 110 -164q72 -72 165 -111t197 -39q213 0 363 150q71 71 110 165t39 197q0 102 -39 196.5t-110 166.5q-72 71 -166.5 110t-196.5 39q-103 0 -197 -39t-165 -110q-150 -150 -150 -363q0 -108 40 -198zM96 320q0 173 121.5 294.5t294.5 121.5t294.5 -121.5 t121.5 -294.5t-121.5 -294.5t-294.5 -121.5q-174 0 -294 122q-122 120 -122 294zM768 320l-384 -224v448z" />
<glyph unicode="&#xf285;" d="M40 122q38 -93 110 -164q72 -72 165 -111t197 -39q213 0 363 150q71 71 110 165t39 197q0 102 -39 196.5t-110 166.5q-72 71 -166.5 110t-196.5 39q-103 0 -197 -39t-165 -110q-150 -150 -150 -363q0 -108 40 -198zM96 320q0 173 121.5 294.5t294.5 121.5t294.5 -121.5 t121.5 -294.5t-121.5 -294.5t-294.5 -121.5q-174 0 -294 122q-122 120 -122 294zM704 512v-384h-384v384h384z" />
<glyph unicode="&#xf286;" d="M40 122q38 -93 110 -164q72 -72 165 -111t197 -39q213 0 363 150q71 71 110 165t39 197q0 102 -39 196.5t-110 166.5q-72 71 -166.5 110t-196.5 39q-103 0 -197 -39t-165 -110q-150 -150 -150 -363q0 -108 40 -198zM96 320q0 173 121.5 294.5t294.5 121.5t294.5 -121.5 t121.5 -294.5t-121.5 -294.5t-294.5 -121.5q-174 0 -294 122q-122 120 -122 294zM448 512v-384h-128v384h128zM704 512v-384h-128v384h128z" />
<glyph unicode="&#xf287;" d="M40 122q38 -93 110 -164q72 -72 165 -111t197 -39q213 0 363 150q71 71 110 165t39 197q0 102 -39 196.5t-110 166.5q-72 71 -166.5 110t-196.5 39q-103 0 -197 -39t-165 -110q-150 -150 -150 -363q0 -108 40 -198zM96 320q0 173 121.5 294.5t294.5 121.5t294.5 -121.5 t121.5 -294.5t-121.5 -294.5t-294.5 -121.5q-174 0 -294 122q-122 120 -122 294zM544 320l-224 -160v320zM800 320l-224 -160v320z" />
<glyph unicode="&#xf288;" d="M40 122q38 -93 110 -164q72 -72 165 -111t197 -39q213 0 363 150q71 71 110 165t39 197q0 102 -39 196.5t-110 166.5q-72 71 -166.5 110t-196.5 39q-103 0 -197 -39t-165 -110q-150 -150 -150 -363q0 -108 40 -198zM96 320q0 173 121.5 294.5t294.5 121.5t294.5 -121.5 t121.5 -294.5t-121.5 -294.5t-294.5 -121.5q-174 0 -294 122q-122 120 -122 294zM448 160l-224 160l224 160v-320zM704 160l-224 160l224 160v-320z" />
<glyph unicode="&#xf290;" horiz-adv-x="768" d="M768 512h-768v128h768v-128zM768 0h-768l384 384z" />
<glyph unicode="&#xf291;" horiz-adv-x="768" d="M0 640h768l-384 -384zM768 0h-768v128h768v-128z" />
<glyph unicode="&#xf292;" horiz-adv-x="640" d="M128 704v-768h-128v768h128zM640 -64l-384 384l384 384v-768z" />
<glyph unicode="&#xf293;" horiz-adv-x="640" d="M384 320l-384 -384v768zM640 -64h-128v768h128v-768z" />
<glyph unicode="&#xf294;" d="M192 640v-640h-192v640h192zM1024 192h-320v-192l-384 320l384 320v-192h320v-256z" />
<glyph unicode="&#xf295;" d="M704 320l-384 -320v192h-320v256h320v192zM1024 0h-192v640h192v-640z" />
<glyph unicode="&#xf300;" d="M0 0v-64h64v-128h960v64h-896v960h-64v-64h-64v-64h64v-128h-64v-64h64v-128h-64v-64h64v-128h-64v-64h64v-128h-64zM220 31q28 -28 68 -28t68 28t28 68q0 30 -16 52l104 172h16l104 -172q-16 -22 -16 -52q0 -40 28 -68t68 -28t68 28t28 68q0 28 -17 54l171 298h6 q40 0 68 28t28 68t-28 68t-68 28t-68 -28t-28 -68q0 -28 17 -54l-171 -298h-14l-104 172q16 22 16 52q0 40 -28 68t-68 28t-68 -28t-28 -68q0 -30 16 -52l-104 -172h-8q-40 0 -68 -28t-28 -68t28 -68z" />
<glyph unicode="&#xf301;" d="M520 264h9q53 0 53 35v512q114 -18 215 -91q103 -75 165 -188.5t62 -232.5q0 -120 -74 -233q-74 -112 -193 -178t-245 -66q-193 0 -339.5 125.5t-172.5 316.5h520zM442 369h-442q26 166 151 291t291 151v-442z" />
<glyph unicode="&#xf302;" d="M0 0v-64h64v-128h960v64h-896v960h-64v-64h-64v-64h64v-128h-64v-64h64v-128h-64v-64h64v-128h-64v-64h64v-128h-64zM960 704l-256 -384l-128 128l-128 -256l-128 128l-128 -384h768v768z" />
<glyph unicode="&#xf303;" d="M0 0v-64h64v-128h960v64h-896v960h-64v-64h-64v-64h64v-128h-64v-64h64v-128h-64v-64h64v-128h-64v-64h64v-128h-64zM896 640h-192v-704h192v704zM640 448h-192v-512h192v512zM384 192h-192v-256h192v256z" />
<glyph unicode="&#xf310;" d="M704 320v-320h-320v-192l-384 192v832h704v-256h-64v192h-512l256 -128v-576h256v256h64zM768 384h-256v128h256v128l256 -192l-256 -192v128z" />
<glyph unicode="&#xf311;" horiz-adv-x="896" d="M448 64h256v256h64v-320h-320v-192l-384 192v832h704v-256h-64v192h-512l256 -128v-144l192 144v-128h256v-128h-256v-128l-192 144v-336z" />
<glyph unicode="&#xf312;" d="M585 832v-592h-146v592h146zM150 682l103 -103q-51 -51 -78 -116q-29 -71 -29 -143q0 -152 107 -259t259 -107t259 107t107 259q0 75 -28 143q-27 64 -79 116l103 103q71 -71 110 -163q40 -94 40 -199q0 -104 -39.5 -198t-109.5 -164q-71 -71 -165 -110.5t-198 -39.5 t-198 39.5t-164 110.5q-71 70 -110.5 164t-39.5 198q0 103 41 199q40 94 109 163z" />
<glyph unicode="&#xf313;" horiz-adv-x="640" d="M640 256h-256v-256h-128v256h-256v128h256v256h128v-256h256v-128z" />
<glyph unicode="&#xf314;" horiz-adv-x="640" d="M640 128l-128 -128l-192 192l-192 -192l-128 128l192 192l-192 192l128 128l192 -192l192 192l128 -128l-192 -192z" />
<glyph unicode="&#xf315;" horiz-adv-x="512" d="M512 256h-512v128h512v-128z" />
<glyph unicode="&#xf316;" horiz-adv-x="896" d="M768 448l-192 192l128 128l192 -192zM704 384l-512 -512l-191 -1l-1 193l512 512zM128 0v64h-64v-128h128v64h-64z" />
<glyph unicode="&#xf317;" horiz-adv-x="640" d="M320 640q136 -3 226.5 -93.5t93.5 -226.5q-3 -136 -93.5 -226.5t-226.5 -93.5q-136 3 -226.5 93.5t-93.5 226.5q3 136 93.5 226.5t226.5 93.5zM320 512q-82 -2 -136 -56t-56 -136q0 -41 17 -77l252 252q-36 17 -77 17zM320 128q82 2 136 56t56 136q0 41 -17 78l-254 -253 q35 -15 79 -17z" />
<glyph unicode="&#xf319;" horiz-adv-x="896" d="M725 -64l-277 149l-277 -149l59 303l-230 209l313 41l135 279l135 -279l313 -41l-230 -209z" />
<glyph unicode="&#xf31a;" horiz-adv-x="896" d="M725 -64l-277 149l-277 -149l59 303l-230 209l313 41l135 279l135 -279l313 -41l-230 -209zM704 384l-192 32l-64 160l-64 -160l-192 -32l160 -128l-64 -160l160 96l160 -96l-64 160z" />
<glyph unicode="&#xf31b;" horiz-adv-x="960" d="M284 366v-379q0 -16 11 -27t27 -11q25 -2 93 -26q64 -21 72 -23q83 -27 157 -27h76q77 1 114 43t32 110q23 22 32.5 57t-0.5 68q26 37 25 81q0 20 -9 45q33 37 33 89q0 46 -34 79.5t-80 33.5h-164q4 15 12 27l3 6t3 5q12 24 16 33q17 41 17 81v23q-3 38 -10 56 q-12 32 -38 51q-33 21 -85 21q-27 0 -47 -41q-10 -21 -19 -67q-6 -31 -7 -35q-10 -38 -29 -57q-18 -18 -60 -71q-80 -104 -105 -107q-15 -2 -25.5 -12.5t-10.5 -25.5zM0 366v-379q0 -16 11 -27t27 -11h170q16 0 27 11t11 27v379q0 15 -11 26t-27 11h-170q-16 0 -27 -11 t-11 -26zM76 62q0 16 11 27t27 11q15 0 26.5 -11t11.5 -27q0 -15 -11.5 -26t-26.5 -11q-16 0 -27 10.5t-11 26.5z" />
<glyph unicode="&#xf31c;" horiz-adv-x="960" d="M322 700q-16 0 -27 -11t-11 -26v-380q0 -14 11 -25t25 -13q23 -1 105 -106q37 -48 60 -71q18 -18 29 -58q1 -4 7 -35q9 -44 19 -67q20 -41 47 -41q49 0 85 21q26 19 38 51q7 18 10 57v23q0 39 -17 80q-8 19 -16 33l-2.5 5t-3.5 6q-8 12 -12 27h164q47 0 80.5 34t33.5 80 q0 50 -33 88q9 25 9 45q2 46 -25 81q10 33 0.5 68t-32.5 57q5 68 -32 110t-114 43h-76q-69 0 -157 -26q-7 -2 -31 -10t-41 -14q-68 -24 -93 -26zM208 700h-170q-16 0 -27 -11t-11 -26v-379q0 -16 11 -27t27 -11h170q16 0 27 11t11 27v379q0 15 -11 26t-27 11zM114 549 q-16 0 -27 11t-11 27t11 27t27 11q15 0 26.5 -11t11.5 -27t-11.5 -27t-26.5 -11z" />
<glyph unicode="&#xf31d;" horiz-adv-x="896" d="M0 362v-373q0 -31 22 -53t53 -22h168q15 0 80 -23q151 -52 237 -52h75q83 0 133 47.5t50 128.5q35 44 35 103q0 8 -2 26q22 41 22 84q0 18 -5 40q28 41 28 95q0 60 -44 104.5t-105 44.5h-103q28 56 28 112q0 66 -20 108q-41 79 -148 79q-28 0 -52 -22q-34 -33 -54 -137 q-7 -35 -21 -50q-31 -32 -62 -75q-64 -79 -80 -90h-160q-31 0 -53 -21.5t-22 -53.5zM224 362h19q20 0 44 21q27 24 46 47q20 23 38 48q3 4 6.5 8.5t5 6.5t2.5 3q31 38 44 53q33 33 53 137q8 36 22 50q54 0 74 -26t20 -86q0 -32 -28 -94q-28 -57 -28 -93h205q29 0 52 -22.5 t23 -52.5q0 -23 -13.5 -48.5t-30.5 -25.5q20 -23 20 -60q0 -42 -31 -70q11 -19 11 -40q0 -22 -10.5 -43t-27.5 -31q3 -16 3 -32q0 -98 -112 -98h-71q-77 0 -199 43q-2 1 -38 13q-2 1 -11.5 4t-17.5 6t-13 4q-30 5 -38 5h-19v373zM86 52q10 12 26 12q15 0 26 -11t11 -27 q0 -15 -11 -26t-26 -11t-26 11t-11 26q0 16 11 26z" />
<glyph unicode="&#xf31e;" horiz-adv-x="896" d="M243 728h-168q-31 0 -53 -22t-22 -53v-373q0 -32 22 -53.5t53 -21.5h160q16 -11 80 -90q31 -43 62 -75q14 -15 21 -50q20 -104 54 -137q24 -22 52 -22q107 0 148 79q20 42 20 108q0 56 -28 112h103q61 0 105 44.5t44 104.5q0 54 -28 95q5 22 5 40q0 43 -22 84q2 18 2 26 q0 59 -35 103q0 81 -50 128.5t-133 47.5h-75q-86 0 -237 -52q-65 -23 -80 -23zM224 280v373h19q8 0 38 5q5 1 13 4t17.5 6t11.5 4q36 12 38 13q122 43 199 43h71q112 0 112 -98q0 -16 -3 -32q17 -10 27.5 -31t10.5 -43q0 -21 -11 -40q31 -28 31 -70q0 -37 -20 -60 q17 0 30.5 -25.5t13.5 -48.5q0 -30 -23 -52.5t-52 -22.5h-205q0 -36 28 -93q28 -62 28 -94q0 -60 -20 -86t-74 -26q-14 14 -22 50q-20 104 -53 137q-13 15 -44 53q-1 1 -2.5 3t-5 6.5t-6.5 8.5q-18 25 -38 48q-19 23 -46 47q-24 21 -44 21h-19zM112 578q-16 0 -26 12 q-11 10 -11 26q0 15 11 26t26 11t26 -11t11 -26q0 -16 -11 -27t-26 -11z" />
<glyph unicode="&#xf31f;" horiz-adv-x="768" d="M193 512q-95 -97 -76 -231l-113 23q-6 167 112 285q107 101 246 110t256 -76l84 81l38 -269l-275 39l75 73q-83 52 -178 43t-169 -78zM659 359l113 -23q6 -167 -112 -285q-107 -101 -246 -110t-256 76l-84 -81l-38 269l275 -39l-75 -73q83 -52 178 -43t169 78 q95 97 76 231z" />
<glyph unicode="&#xf320;" horiz-adv-x="973" d="M711 249l249 -249q13 -13 13 -32t-13 -32l-64 -64q-13 -13 -32 -13t-32 13l-249 249q-93 -57 -199 -57q-163 4 -271.5 112.5t-112.5 271.5q4 163 112.5 271.5t271.5 112.5q163 -4 271.5 -112.5t112.5 -271.5q0 -106 -57 -199zM384 192q109 3 181 75t75 181 q-3 109 -75 181t-181 75q-109 -3 -181 -75t-75 -181q3 -109 75 -181t181 -75z" />
<glyph unicode="&#xf321;" horiz-adv-x="960" d="M384 768h192v-384h192l-288 -256l-288 256h192v384zM960 128h-960v-256h960v256zM832 64v-64h-128v64h128z" />
<glyph unicode="&#xf322;" horiz-adv-x="960" d="M768 512h-192v-320h-192v320h-192l288 256zM960 128h-960v-256h960v256zM896 64v-64h-128v64h128z" />
<glyph unicode="&#xf323;" horiz-adv-x="519" d="M450 427q68 -36 70 -88q-1 -60 -72 -103t-188 -45q-117 2 -188 45t-72 103q2 53 70 88q26 14 43.5 39t18.5 46v64q0 27 -23 52q-23 20 -24 45q0 43 45.5 68.5t129.5 25.5q85 0 131 -26q28 -17 38 -39t4 -41t-22 -33q-23 -25 -23 -52v-64q1 -21 18.5 -46t43.5 -39z M260 -192l-64 320q31 -3 64 -3q32 0 64 3z" />
<glyph unicode="&#xf324;" horiz-adv-x="832" d="M573 37q0 -23 -15 -38t-36 -15q-22 0 -38 16l-169 169l-315 -236l236 315l-168 169q-24 23 -12 56q14 32 48 32q163 0 262.5 53t158.5 175q9 25 35.5 32t50.5 -13l208 -209q20 -24 13.5 -50.5t-31.5 -35.5q-123 -62 -175.5 -160t-52.5 -260z" />
<glyph unicode="&#xf325;" horiz-adv-x="896" d="M652 762l208 -208q30 -30 30 -73t-30 -75q-16 -16 -36 -24q-104 -50 -149.5 -137t-45.5 -234q0 -45 -29 -74t-75 -29.5t-75 29.5l-167 169l-279 -199l199 279l-169 168q-21 18 -27.5 49t5.5 64q27 65 96 65q143 0 246 50l11 7q69 38 118 141q7 20 21 34q30 30 74 29 t74 -31zM587 304q53 107 196 175l-205 211q-69 -146 -176 -200l-13 -6q-120 -57 -281 -57l416 -416q0 168 63 293z" />
<glyph unicode="&#xf326;" horiz-adv-x="896" d="M768 64v-128q-1 -27 -19 -45t-45 -19h-640q-27 1 -45 19t-19 45v704q1 27 19 45t45 19h192q1 55 37 91t91 37q55 -1 91 -37t37 -91h192q27 -1 45 -19t19 -45v-320h-64v192h-640v-576h640v128h64zM222 640h-30q-28 0 -45.5 -17t-18.5 -47h512q-1 26 -20 44.5t-44 19.5h-64 q-25 1 -44 19.5t-20 44.5q-1 27 -19 45t-45 18t-45 -18t-19 -45t-19 -45t-45 -19h-34zM128 384v64h320v-64h-320zM896 128h-320v-128l-256 192l256 192v-128h320v-128zM128 256v64h128v-64h-128zM256 192v-64h-128v64h128zM320 64v-64h-192v64h192z" />
<glyph unicode="&#xf327;" horiz-adv-x="896" d="M512 448h-128v128h-128l192 192l192 -192h-128v-128zM256 256h-192v192h192v64h-256v-320h256v64zM640 256h192v192h-192v64h256v-320h-256v64zM768 384v-64h-640v64h640zM384 128v128h128v-128h128l-192 -192l-192 192h128z" />
<glyph unicode="&#xf328;" horiz-adv-x="768" d="M384 640l192 -192h-384zM768 384v-64h-768v64h768zM768 256v-64h-768v64h768zM576 128l-192 -192l-192 192h384z" />
<glyph unicode="&#xf329;" horiz-adv-x="896" d="M448 448l192 192h-128v128h-128v-128h-128zM256 256h-192v192h192v64h-256v-320h256v64zM640 256h192v192h-192v64h256v-320h-256v64zM768 384v-64h-640v64h640zM512 -64h-128v128h-128l192 192l192 -192h-128v-128z" />
<glyph unicode="&#xf32a;" horiz-adv-x="768" d="M576 640l-192 -192l-192 192h384zM768 384v-64h-768v64h768zM768 256v-64h-768v64h768zM384 128l192 -192h-384z" />
<glyph unicode="&#xf32b;" horiz-adv-x="896" d="M256 640h128v192h128v-192h128l-192 -192zM736 352l160 -160v-64h-224l-64 64h192l-128 128h-448l-128 -128h192l-64 -64h-224v64l160 160l-160 160v64h224l64 -64h-192l128 -128h448l128 128h-192l64 64h224v-64zM640 64h-128v-192h-128v192h-128l192 192z" />
<glyph unicode="&#xf32c;" horiz-adv-x="896" d="M256 640l192 192l192 -192h-128v-192h-128v192h-128zM896 512l-160 -160l160 -160v-64h-320v64h224l-128 128h-448l-128 -128h224v-64h-320v64l160 160l-160 160v64h320v-64h-224l128 -128h448l128 128h-224v64h320v-64zM640 64l-192 -192l-192 192h128v192h128v-192h128 z" />
<glyph unicode="&#xf32d;" d="M512 832q104 0 198 -39.5t165 -109.5q70 -71 109.5 -165t39.5 -198t-39.5 -198t-109.5 -164q-71 -71 -165 -110.5t-198 -39.5t-198 39.5t-164 110.5q-71 70 -110.5 164t-39.5 198t39.5 198t110.5 165q70 70 164 109.5t198 39.5zM512 -43v726q-150 0 -256 -106 q-107 -107 -107 -257q0 -149 107 -256t256 -107z" />
<glyph unicode="&#xf32e;" horiz-adv-x="832" d="M696 647l-67 -65q56 -56 82 -120q27 -66 27 -143t-27 -143q-26 -63 -82 -119l67 -67q69 72 102 151q34 81 34 179q0 96 -34 177q-34 83 -102 150zM448 640v-640h-64l-256 192h-128v256h128l256 192h64zM588 540l-64 -65q32 -32 49 -72q16 -38 16 -85t-16 -83 q-19 -44 -49 -71l64 -65q45 42 70 99q24 54 24 118q-2 67 -24 122q-24 56 -70 102z" />
<glyph unicode="&#xf32f;" horiz-adv-x="896" d="M448 640v-640h-64l-256 192h-128v256h128l256 192h64zM864 224l-64 -64l-96 96l-96 -96l-64 64l96 96l-95 97l63 63l96 -96l96 96l64 -64l-96 -96z" />
<glyph unicode="&#xf330;" horiz-adv-x="896" d="M896 768v-448l-434 120l168 136q-87 64 -182 64q-133 0 -226.5 -93.5t-93.5 -226.5t93.5 -226.5t226.5 -93.5q169 0 278 160l110 -64q-59 -102 -162 -163t-226 -61q-185 0 -316.5 131.5t-131.5 316.5t131.5 316.5t316.5 131.5q82 0 159.5 -29.5t132.5 -87.5z" />
<glyph unicode="&#xf331;" horiz-adv-x="896" d="M0 769v-448l434 120l-168 136q87 64 182 64q133 0 226.5 -93.5t93.5 -226.5t-93.5 -226.5t-226.5 -93.5q-169 0 -278 160l-110 -64q59 -102 162 -163t226 -61q185 0 316.5 131.5t131.5 316.5t-131.5 316.5t-316.5 131.5q-82 0 -159.5 -29.5t-132.5 -87.5z" />
<glyph unicode="&#xf332;" horiz-adv-x="768" d="M0 573v-506q0 -57 37 -94t94 -37h506q57 0 94 37t37 94v506q0 57 -37 94t-94 37h-506q-57 0 -94 -37t-37 -94zM64 65v510q0 29 18 47t47 18h510q29 0 47 -18t18 -47v-510q0 -29 -18 -47t-47 -18h-510q-29 0 -47 18t-18 47zM576 352h-384v-64h384v64z" />
<glyph unicode="&#xf333;" horiz-adv-x="768" d="M0 573v-506q0 -57 37 -94t94 -37h506q57 0 94 37t37 94v506q0 57 -37 94t-94 37h-506q-57 0 -94 -37t-37 -94zM64 65v510q0 29 18 47t47 18h510q29 0 47 -18t18 -47v-510q0 -29 -18 -47t-47 -18h-510q-29 0 -47 18t-18 47zM352 128h64v160h160v64h-160v160h-64v-160h-160 v-64h160v-160z" />
<glyph unicode="&#xf350;" horiz-adv-x="896" d="M896 544l-224 288h-672v-1024h896v736zM640 768l192 -256v-640h-768v896h576zM384 0h128v192h192v128h-192v192h-128v-192h-192v-128h192v-192z" />
<glyph unicode="&#xf351;" horiz-adv-x="896" d="M896 544l-224 288h-672v-1024h896v736zM640 768l192 -256v-640h-768v896h576zM106 21q0 -10 5 -15q1 -4 6 -6l17 -9q1 -1 3 -1t3 -1t5 -1q10 -2 12 -2q32 0 70 41q40 43 88 129q136 46 245 58q44 -25 94 -40.5t84 -15.5h6q3 0 11 2h4l12 6q1 0 5 4l4 4q6 10 8 24 q1 1 1 13q0 19 -4 23q-2 2 -3 5l-4 4q-16 17 -90 21q-55 0 -108 -8q-39 23 -60 44q-46 43 -81 131l2 8q0 4 2 6l3 20l5 39q12 88 7 106v7l-1 2q-1 1 -1 3l-2 5q-10 27 -36 27h-11q-16 0 -26 -7q-20 -11 -20 -59q0 -46 30 -174l-6 -16q-1 -2 -13 -29q-8 -19 -10 -23 q-2 -3 -3 -7q-1 -3 -2 -4l-8 -17l-6 -11q-2 -2 -2 -3q-7 -16 -15 -30l-3 -5q-8 -17 -29 -55l-13 -25q-1 -1 -3 -6q-4 -11 -10 -17l-18 -9l-5 -2l-24 -13q-2 -2 -9 -5q-51 -33 -74.5 -57.5t-30.5 -50.5q-1 -1 -1 -8zM409 584v8q0 4 1 7q0 3 0.5 12t0.5 14q1 7 3 7q8 0 16 -20 q9 -14 7 -54.5t-17 -62.5q-11 38 -11 89zM342 208l15 26q3 7 7 14l17 34q1 1 25 55q2 1 3 6l2 6l5 12q27 -54 85 -106l3 -2l4 -4l3 -2l3 -3q-98 -19 -179 -49zM667 226h37q7 0 12 -1q29 -2 43 -11q8 -5 8 -12l-2 -4q-8 -4 -24 -4q-31 0 -98 30zM148 18q17 44 83 100q1 0 3 2 l9 8l4 4q-30 -49 -59 -81q-25 -25 -40 -33z" />
<glyph unicode="&#xf352;" horiz-adv-x="896" d="M896 544l-224 288h-672v-1024h896v736zM640 768l192 -256v-640h-768v896h576zM613 53q64 77 64 181q0 103 -64 182q-11 13 -9.5 30.5t14.5 28.5q14 11 31 9t27 -16q84 -102 84 -234q0 -130 -84 -234q-12 -15 -32 -15q-15 0 -26 10q-13 10 -14.5 27.5t9.5 30.5zM141 296 v-123q0 -21 20 -21h85l107 -108q6 -6 15 -6q1 0 7 2q13 4 13 19v351q0 13 -12.5 18.5t-22.5 -3.5l-107 -108h-85q-20 0 -20 -21zM479 150q33 36 33 84t-33 85q-12 13 -11.5 30t12.5 29q12 11 29.5 10.5t28.5 -12.5q57 -60 57 -142q0 -81 -57 -141q-13 -13 -30 -13 q-15 0 -28 11q-12 12 -12.5 29t11.5 30z" />
<glyph unicode="&#xf353;" horiz-adv-x="896" d="M896 544l-224 288h-672v-1024h896v736zM640 768l192 -256v-640h-768v896h576zM288 384v128h-64v64h128v-192h64v-64h-192v64h64zM672 576v-256h-192v256h192zM608 512h-64v-128h64v128zM416 256v-256h-192v256h192zM544 192h-64v64h128v-192h64v-64h-192v64h64v128z M352 192h-64v-128h64v128z" />
<glyph unicode="&#xf354;" horiz-adv-x="896" d="M896 544l-224 288h-672v-1024h896v736zM640 768l192 -256v-640h-768v896h576zM591 383h16q66 0 113 -47t47 -113v-15q-1 -2 -1 -9l-2 -8h-189v189zM320 320v-64h-192v64h192zM383 159q0 59 35.5 102t92.5 55v-189h189q-12 -57 -55 -92.5t-102 -35.5q-66 0 -113 47 t-47 113zM320 192v-64h-192v64h192zM320 64v-64h-192v64h192z" />
<glyph unicode="&#xf355;" horiz-adv-x="896" d="M896 544l-256 288h-640v-1024h896v736zM608 768l224 -256v-640h-768v896h544zM384 64l-128 128l128 128l-64 64l-192 -192l192 -192zM768 192l-192 192l-64 -64l128 -128l-128 -128l64 -64z" />
<glyph unicode="&#xf356;" horiz-adv-x="896" d="M896 544l-224 288h-672v-1024h896v736zM640 768l192 -256v-640h-768v896h576zM192 228h32q13 0 22.5 -8t9.5 -20v-86q0 -48 38 -80q37 -34 90 -34v57q-28 0 -45 17q-19 13 -19 40v114q0 12 -9.5 20.5t-22.5 8.5q13 0 22.5 8.5t9.5 20.5v114q0 27 19 40q17 17 45 17v57 q-52 0 -90 -33t-38 -81v-86q0 -12 -9.5 -20t-22.5 -8h-32v-58zM512 57v-57q52 0 90 33t38 81v86q0 12 10 20t22 8h32v58h-32q-12 0 -22 8t-10 20v86q0 47 -37 81q-41 33 -91 33v-57q17 0 42 -14q8 -4 15 -17t7 -26v-114q0 -12 10 -20.5t22 -8.5q-12 0 -22 -8.5t-10 -20.5 v-114q0 -27 -19 -40q-17 -17 -45 -17z" />
<glyph unicode="&#xf357;" horiz-adv-x="896" d="M896 544l-224 288h-672v-1024h896v736zM640 768l192 -256v-640h-768v896h576zM320 320q-48 0 -88 40t-40 88t40 88t88 40t88 -40t40 -88t-40 -88t-88 -40zM320 256l128 -64l192 192l128 -192v-192h-640v128z" />
<glyph unicode="&#xf358;" horiz-adv-x="896" d="M896 544l-256 288h-640v-1024h896v736zM608 768l224 -256v-640h-768v896h544zM126 0q62 108 162 144l221 27v-155l257 238l-257 230v-138q-192 0 -308 -173q-45 -69 -59 -118q-11 -39 -16 -55z" />
<glyph unicode="&#xf359;" horiz-adv-x="896" d="M896 544l-224 288h-672v-1024h896v736zM640 768l192 -256v-640h-768v896h576zM431 354q59 6 112.5 -9t82.5 -48q30 35 81.5 50.5t111.5 9.5q-41 27 -95 27q-48 0 -98 -24q-52 23 -98 23q-53 0 -97 -29zM77 127q14 2 19 2q20 1 39 6l20 3q76 8 146.5 -12.5t121.5 -67.5 q43 64 120 100q39 19 78.5 25.5t124.5 9.5q-38 24 -89 31q-56 9 -123.5 -6t-122.5 -52q-83 37 -177.5 27t-156.5 -66z" />
<glyph unicode="&#xf35a;" horiz-adv-x="896" d="M896 544l-256 288h-640v-1024h896v736zM608 768l224 -256v-640h-768v896h544zM448 448h-256v-64h256v64zM704 320h-512v-64h512v64zM704 192h-512v-64h512v64zM704 64h-512v-64h512v64z" />
<glyph unicode="&#xf35b;" horiz-adv-x="896" d="M896 544l-224 288h-672v-1024h896v736zM640 768l192 -256v-640h-768v896h576zM512 448v-384h-320v384h320zM704 448v-384l-160 160v64z" />
<glyph unicode="&#xf35c;" horiz-adv-x="896" d="M896 544l-224 288h-672v-1024h896v736zM640 768l192 -256v-640h-768v896h576zM304 477v-66h-56l61 -272q4 -15 5 -29l1 -13h2l3 13l2 14q2 9 3 15l89 338h71l90 -338q0 -2 1.5 -7.5t1.5 -8.5t0.5 -6t1 -4.5t0.5 -2.5l2 -13h3l1 13q2 20 4 29l62 272h-56v66h186v-66h-43 l-102 -411h-99l-79 302q-2 3 -4 16l-2 12l-2 15h-2q0 -1 -2 -15q-2 -16 -6 -28l-80 -302h-98l-102 411h-44v66h187z" />
<glyph unicode="&#xf35d;" horiz-adv-x="896" d="M896 544l-224 288h-672v-1024h896v736zM640 768l192 -256v-640h-768v896h576zM271 66l121 176l-118 169h-42v66h180v-66h-47l66 -99l11 -14l3 -6h1l1 1q7 10 12 19l64 99h-46v66h174v-66h-42l-121 -175l119 -170h42v-66h-181v66h48l-67 100q-2 4 -4 6q-3 2 -3 5 q-5 3 -7 10h-1l-2 -2l-5 -8q-2 -5 -6 -11l-64 -100h47v-66h-175v66h42z" />
<glyph unicode="&#xf35e;" horiz-adv-x="896" d="M896 544l-224 288h-672v-1024h896v736zM640 768l192 -256v-640h-768v896h576zM314 66v345h-57v66h229q54 0 81 -11q39 -17 62 -54.5t23 -87.5t-24 -91q-23 -37 -55.5 -50t-84.5 -13h-85v-104h57v-66h-203v66h57zM403 240h74q87 0 87 84q0 83 -87 83h-74v-167z" />
<glyph unicode="&#xf35f;" horiz-adv-x="896" d="M896 544l-224 288h-672v-1024h896v736zM640 768l192 -256v-640h-768v896h576zM448 704v-64h-96v64h96zM352 640v-64h-96v64h96zM448 576v-64h-96v64h96zM352 512v-64h-96v64h96zM448 448v-64h-96v64h96zM352 384v-64h-96v64h96zM256 256v-224q0 -12 10 -22t22 -10h128 q13 0 22.5 9.5t9.5 22.5v288h-96v-64h-96zM416 128v-64h-128v64h128z" />
<glyph unicode="&#xf360;" horiz-adv-x="896" d="M896 544l-224 288h-672v-1024h896v736zM640 768l192 -256v-640h-768v896h576zM256 448l128 -96v160h128v-160l128 96l64 -96l-128 -96l128 -96l-64 -96l-128 96v-160h-128v160l-128 -96l-64 96l128 96l-128 96z" />
<glyph unicode="&#xf361;" horiz-adv-x="896" d="M896 544l-224 288h-672v-1024h896v736zM640 768l192 -256v-640h-768v896h576zM704 320h-512v-128h512v128z" />
<glyph unicode="&#xf380;" horiz-adv-x="1152" d="M256 224v-29q0 -57 37 -94t94 -37h186q57 0 94 37t37 94v29h256v128h-256v29q0 57 -37 94t-94 37h-186q-57 0 -94 -37t-37 -94v-29h-256v-128h256zM352 225v126q0 29 18 47t47 18h126q29 0 47 -18t18 -47v-126q0 -29 -18 -47t-47 -18h-126q-29 0 -47 18t-18 47z" />
<glyph unicode="&#xf381;" horiz-adv-x="896" d="M896 -64h-64v608l-224 224h-480v64h512l256 -256v-640zM768 512v-704h-768v896h576zM544 640h-480v-768h640v608zM576 448v-128h-128v-128h-128v128h-128v128h128v128h128v-128h128zM576 64v-128h-384v128h384z" />
<glyph unicode="&#xf382;" horiz-adv-x="896" d="M448 768h384q25 -1 44 -20t20 -44v-768q-1 -25 -20 -44t-44 -20h-768q-25 1 -44 20t-20 44v768q1 25 20 44t44 20h384zM768 32v576q-1 13 -10.5 22.5t-21.5 9.5h-576q-12 0 -21.5 -9.5t-10.5 -22.5v-576q0 -15 9 -23.5t23 -8.5h576q12 1 21.5 10.5t10.5 21.5zM640 384 v-128h-128v-128h-128v128h-128v128h128v128h128v-128h128z" />
<glyph unicode="&#xf383;" horiz-adv-x="896" d="M64 768h768q25 -1 44 -20t20 -44v-768q-1 -25 -20 -44t-44 -20h-768q-25 1 -44 20t-20 44v768q1 25 20 44t44 20zM768 32v576q-1 13 -10.5 22.5t-21.5 9.5h-576q-12 0 -21.5 -9.5t-10.5 -22.5v-576q0 -15 9 -23.5t23 -8.5h576q12 1 21.5 10.5t10.5 21.5zM640 512v-98 l-286 -286h-98v98l286 286h98z" />
<glyph unicode="&#xf384;" horiz-adv-x="896" d="M64 768h768q25 -1 44 -20t20 -44v-768q-1 -25 -20 -44t-44 -20h-768q-25 1 -44 20t-20 44v768q1 25 20 44t44 20zM768 32v576q-1 13 -10.5 22.5t-21.5 9.5h-576q-12 0 -21.5 -9.5t-10.5 -22.5v-576q0 -15 9 -23.5t23 -8.5h576q12 1 21.5 10.5t10.5 21.5zM448 448 q55 -1 91 -37t37 -91q-1 -55 -37 -91t-91 -37q-55 1 -91 37t-37 91q1 55 37 91t91 37z" />
<glyph unicode="&#xf385;" horiz-adv-x="896" d="M64 768h768q25 -1 44 -20t20 -44v-768q-1 -25 -20 -44t-44 -20h-768q-25 1 -44 20t-20 44v768q1 25 20 44t44 20zM768 32v576q-1 13 -10.5 22.5t-21.5 9.5h-576q-12 0 -21.5 -9.5t-10.5 -22.5v-576q0 -15 9 -23.5t23 -8.5h576q12 1 21.5 10.5t10.5 21.5zM640 384v-128 h-384v128h384z" />
<glyph unicode="&#xf386;" horiz-adv-x="896" d="M64 768h768q25 -1 44 -20t20 -44v-768q-1 -25 -20 -44t-44 -20h-768q-25 1 -44 20t-20 44v768q1 25 20 44t44 20zM768 32v576q-1 13 -10.5 22.5t-21.5 9.5h-576q-12 0 -21.5 -9.5t-10.5 -22.5v-576q0 -15 9 -23.5t23 -8.5h576q12 1 21.5 10.5t10.5 21.5zM704 320 l-256 -192v128h-192v128h192v128z" />
<glyph unicode="&#xf390;" d="M0 703v-702q0 -29 18 -47t47 -18h894q29 0 47 18t18 47v574q0 29 -18 47t-47 18h-383v63q0 29 -18 47t-47 18h-446q-29 0 -47 -18t-18 -47zM64 640v31q0 14 9.5 23.5t23.5 9.5h382q14 0 23.5 -9.5t9.5 -23.5v-31h-448z" />
<glyph unicode="&#xf391;" d="M0 703v-702q0 -29 18 -47t47 -18h894q29 0 47 18t18 47v574q0 29 -18 47t-47 18h-383v63q0 29 -18 47t-47 18h-446q-29 0 -47 -18t-18 -47zM64 640v31q0 14 9.5 23.5t23.5 9.5h382q14 0 23.5 -9.5t9.5 -23.5v-31h-448zM255 52q0 212 147 289q54 27 95 30l14 1v128 l256 -192l-256 -192v128h-11q-93 -9 -156.5 -63t-88.5 -129z" />
<glyph unicode="&#xf392;" d="M0 703v-702q0 -29 18 -47t47 -18h894q29 0 47 18t18 47v574q0 29 -18 47t-47 18h-383v63q0 29 -18 47t-47 18h-446q-29 0 -47 -18t-18 -47zM64 640v31q0 14 9.5 23.5t23.5 9.5h382q14 0 23.5 -9.5t9.5 -23.5v-31h-448zM448 320v128h128v-128h128v-128h-128v-128h-128v128 h-128v128h128z" />
<glyph unicode="&#xf393;" d="M0 703v-702q0 -29 18 -47t47 -18h894q29 0 47 18t18 47v574q0 29 -18 47t-47 18h-383v63q0 29 -18 47t-47 18h-446q-29 0 -47 -18t-18 -47zM64 640v31q0 14 9.5 23.5t23.5 9.5h382q14 0 23.5 -9.5t9.5 -23.5v-31h-448zM336 448l112 -80v128h96v-128l112 80l48 -80 l-112 -80l112 -80l-48 -80l-112 80v-128h-96v128l-112 -80l-48 80l112 80l-112 80z" />
<glyph unicode="&#xf394;" d="M0 703v-702q0 -29 18 -47t47 -18h894q29 0 47 18t18 47v574q0 29 -18 47t-47 18h-383v63q0 29 -18 47t-47 18h-446q-29 0 -47 -18t-18 -47zM64 640v31q0 14 9.5 23.5t23.5 9.5h382q14 0 23.5 -9.5t9.5 -23.5v-31h-448zM704 352v-128h-384v128h384z" />
<glyph unicode="&#xf395;" d="M384 -64v447q0 29 18 47t47 18h318q29 0 47 -18t18 -47q0 -28 18 -45.5t47 -17.5h127v256q0 24 -20 44t-44 20h-384v64q0 24 -20 44t-44 20h-448q-24 0 -44 -20t-20 -44v-768h384zM64 640v31q0 14 9.5 23.5t23.5 9.5h382q14 0 23.5 -9.5t9.5 -23.5v-31h-448zM1024 -64 v255q0 29 -18 47t-47 18h-191v63q0 29 -18 47t-47 18h-190q-29 0 -47 -18t-18 -47v-383h576zM512 256v31q0 14 9.5 23.5t23.5 9.5h126q14 0 23.5 -9.5t9.5 -23.5v-31h-192z" />
<glyph unicode="&#xf396;" d="M0 703v-702q0 -29 18 -47t47 -18h894q29 0 47 18t18 47v574q0 29 -18 47t-47 18h-383v63q0 29 -18 47t-47 18h-446q-29 0 -47 -18t-18 -47zM64 640v31q0 14 9.5 23.5t23.5 9.5h382q14 0 23.5 -9.5t9.5 -23.5v-31h-448zM64 33v510q0 14 9.5 23.5t23.5 9.5h830 q14 0 23.5 -9.5t9.5 -23.5v-510q0 -14 -9.5 -23.5t-23.5 -9.5h-830q-14 0 -23.5 9.5t-9.5 23.5z" />
<glyph unicode="&#xf397;" d="M0 703v-702q0 -29 18 -47t47 -18h894q29 0 47 18t18 47v574q0 29 -18 47t-47 18h-383v63q0 29 -18 47t-47 18h-446q-29 0 -47 -18t-18 -47zM64 640v31q0 14 9.5 23.5t23.5 9.5h382q14 0 23.5 -9.5t9.5 -23.5v-31h-448zM64 33v510q0 14 9.5 23.5t23.5 9.5h830 q14 0 23.5 -9.5t9.5 -23.5v-510q0 -14 -9.5 -23.5t-23.5 -9.5h-830q-14 0 -23.5 9.5t-9.5 23.5zM255 52q0 212 147 289q54 27 95 30l14 1v128l256 -192l-256 -192v128h-11q-93 -9 -156.5 -63t-88.5 -129z" />
<glyph unicode="&#xf398;" d="M0 703v-702q0 -29 18 -47t47 -18h894q29 0 47 18t18 47v574q0 29 -18 47t-47 18h-383v63q0 29 -18 47t-47 18h-446q-29 0 -47 -18t-18 -47zM64 640v31q0 14 9.5 23.5t23.5 9.5h382q14 0 23.5 -9.5t9.5 -23.5v-31h-448zM64 33v510q0 14 9.5 23.5t23.5 9.5h830 q14 0 23.5 -9.5t9.5 -23.5v-510q0 -14 -9.5 -23.5t-23.5 -9.5h-830q-14 0 -23.5 9.5t-9.5 23.5zM448 352v128h128v-128h128v-128h-128v-128h-128v128h-128v128h128z" />
<glyph unicode="&#xf399;" d="M0 703v-702q0 -29 18 -47t47 -18h894q29 0 47 18t18 47v574q0 29 -18 47t-47 18h-383v63q0 29 -18 47t-47 18h-446q-29 0 -47 -18t-18 -47zM64 640v31q0 14 9.5 23.5t23.5 9.5h382q14 0 23.5 -9.5t9.5 -23.5v-31h-448zM64 33v510q0 14 9.5 23.5t23.5 9.5h830 q14 0 23.5 -9.5t9.5 -23.5v-510q0 -14 -9.5 -23.5t-23.5 -9.5h-830q-14 0 -23.5 9.5t-9.5 23.5zM336 448l112 -80v128h96v-128l112 80l48 -80l-112 -80l112 -80l-48 -80l-112 80v-128h-96v128l-112 -80l-48 80l112 80l-112 80z" />
<glyph unicode="&#xf39a;" d="M0 703v-702q0 -29 18 -47t47 -18h894q29 0 47 18t18 47v574q0 29 -18 47t-47 18h-383v63q0 29 -18 47t-47 18h-446q-29 0 -47 -18t-18 -47zM64 640v31q0 14 9.5 23.5t23.5 9.5h382q14 0 23.5 -9.5t9.5 -23.5v-31h-448zM64 33v510q0 14 9.5 23.5t23.5 9.5h830 q14 0 23.5 -9.5t9.5 -23.5v-510q0 -14 -9.5 -23.5t-23.5 -9.5h-830q-14 0 -23.5 9.5t-9.5 23.5zM704 320v-128h-384v128h384z" />
<glyph unicode="&#xf400;" horiz-adv-x="832" d="M0 767v-830q0 -29 18 -47t47 -18h702q29 0 47 18t18 47v830q0 29 -18 47t-47 18h-702q-29 0 -47 -18t-18 -47zM128 1v702q0 29 18 47t47 18h191v-512l128 128l128 -128v512h63q29 0 47 -18t18 -47v-702q0 -29 -18 -47t-47 -18h-510q-29 0 -47 18t-18 47zM256 640h-64v-64 h64v64zM256 512h-64v-64h64v64zM256 384h-64v-64h64v64zM256 256h-64v-64h64v64zM640 64h-448v-64h448v64z" />
<glyph unicode="&#xf401;" horiz-adv-x="896" d="M0 767v-830q0 -29 18 -47t47 -18h702q29 0 47 18t18 47v383h-64v-319q0 -29 -18 -47t-47 -18h-510q-29 0 -47 18t-18 47v702q0 29 18 47t47 18h255v64h-383q-29 0 -47 -18t-18 -47zM640 448h128v128h128v128h-128v128h-128v-128h-128v-128h128v-128zM256 640h-64v-64h64 v64zM256 512h-64v-64h64v64zM256 384h-64v-64h64v64zM256 256h-64v-64h64v64zM640 64h-448v-64h448v64z" />
<glyph unicode="&#xf402;" horiz-adv-x="896" d="M0 767v-830q0 -29 18 -47t47 -18h702q29 0 47 18t18 47v383h-64v-319q0 -29 -18 -47t-47 -18h-510q-29 0 -47 18t-18 47v702q0 29 18 47t47 18h191v64h-319q-29 0 -47 -18t-18 -47zM704 544l96 -96l96 96l-96 96l96 96l-96 96l-96 -96l-96 96l-96 -96l96 -96l-96 -96 l96 -96zM256 640h-64v-64h64v64zM256 512h-64v-64h64v64zM256 384h-64v-64h64v64zM256 256h-64v-64h64v64zM640 64h-448v-64h448v64z" />
<glyph unicode="&#xf403;" horiz-adv-x="960" d="M0 767v-830q0 -29 18 -47t47 -18h702q29 0 47 18t18 47v255h-64v-192q0 -24 -20 -44t-44 -20h-512q-24 0 -44 20t-20 44v704q0 24 20 44t44 20h192v64h-319q-29 0 -47 -18t-18 -47zM512 767v-382q0 -29 18 -47t47 -18h318q29 0 47 18t18 47v382q0 29 -18 47t-47 18h-318 q-29 0 -47 -18t-18 -47zM608 417v318q0 14 9.5 23.5t23.5 9.5h63v-256l64 96l64 -96v256h31q14 0 23.5 -9.5t9.5 -23.5v-318q0 -14 -9.5 -23.5t-23.5 -9.5h-222q-14 0 -23.5 9.5t-9.5 23.5zM256 640h-64v-64h64v64zM256 512h-64v-64h64v64zM832 448h-192v-32h192v32z M256 384h-64v-64h64v64zM256 256h-64v-64h64v64zM640 64h-448v-64h448v64z" />
<glyph unicode="&#xf404;" horiz-adv-x="832" d="M0 767v-830q0 -29 18 -47t47 -18h702q29 0 47 18t18 47v830q0 29 -18 47t-47 18h-702q-29 0 -47 -18t-18 -47zM128 1v702q0 29 18 47t47 18h510q29 0 47 -18t18 -47v-702q0 -29 -18 -47t-47 -18h-510q-29 0 -47 18t-18 47zM256 640h-64v-64h64v64zM448 192h128v128 l128 128v192h-128v-128l-64 -64l-64 64v128h-128v-192l128 -128v-128zM256 512h-64v-64h64v64zM256 384h-64v-64h64v64zM256 256h-64v-64h64v64zM640 64h-448v-64h448v64z" />
<glyph unicode="&#xf405;" horiz-adv-x="832" d="M0 767v-830q0 -29 18 -47t47 -18h702q29 0 47 18t18 47v830q0 29 -18 47t-47 18h-702q-29 0 -47 -18t-18 -47zM128 1v702q0 29 18 47t47 18h510q29 0 47 -18t18 -47v-702q0 -29 -18 -47t-47 -18h-510q-29 0 -47 18t-18 47zM256 640h-64v-64h64v64zM704 192v252 q0 85 -49.5 140.5t-126.5 55.5t-126.5 -55.5t-49.5 -140.5v-252h352zM640 448h-224q0 56 31.5 92t80.5 36t80.5 -36t31.5 -92zM256 512h-64v-64h64v64zM256 384h-64v-64h64v64zM256 256h-64v-64h64v64zM640 64h-448v-64h448v64z" />
<glyph unicode="&#xf406;" horiz-adv-x="832" d="M0 767v-830q0 -29 18 -47t47 -18h702q29 0 47 18t18 47v830q0 29 -18 47t-47 18h-702q-29 0 -47 -18t-18 -47zM128 1v702q0 29 18 47t47 18h510q29 0 47 -18t18 -47v-702q0 -29 -18 -47t-47 -18h-510q-29 0 -47 18t-18 47zM256 640h-64v-64h64v64zM704 448h-288 q0 52 32.5 90t79.5 38q46 0 77 -33l35 65q-56 32 -112 32q-72 0 -124 -57t-52 -135v-256h352v256zM256 512h-64v-64h64v64zM256 384h-64v-64h64v64zM256 256h-64v-64h64v64zM640 64h-448v-64h448v64z" />
<glyph unicode="&#xf407;" horiz-adv-x="960" d="M0 767v-830q0 -29 18 -47t47 -18h702q29 0 47 18t18 47v159l-64 1v-97q0 -24 -20 -44t-44 -20h-512q-24 0 -44 20t-20 44v704q0 24 20 44t44 20h512q24 0 44 -20t20 -44v-32h64v95q0 29 -18 47t-47 18h-702q-29 0 -47 -18t-18 -47zM256 640h-64v-64h64v64zM672 160 l288 224l-288 224v-160h-288v-128h288v-160zM256 512h-64v-64h64v64zM256 384h-64v-64h64v64zM256 256h-64v-64h64v64zM640 64h-448v-64h448v64z" />
<glyph unicode="&#xf408;" horiz-adv-x="960" d="M0 767v-830q0 -29 18 -47t47 -18h702q29 0 47 18t18 47v159l-64 1v-97q0 -24 -20 -44t-44 -20h-512q-24 0 -44 20t-20 44v704q0 24 20 44t44 20h512q24 0 44 -20t20 -44v-32h64v95q0 29 -18 47t-47 18h-702q-29 0 -47 -18t-18 -47zM256 640h-64v-64h64v64zM672 448h288 v-128h-288v-160l-288 224l288 224v-160zM256 512h-64v-64h64v64zM256 384h-64v-64h64v64zM256 256h-64v-64h64v64zM640 64h-448v-64h448v64z" />
<glyph unicode="&#xf409;" horiz-adv-x="960" d="M0 767v-830q0 -29 18 -47t47 -18h702q29 0 47 18t18 47v159l-64 1v-97q0 -24 -20 -44t-44 -20h-512q-24 0 -44 20t-20 44v704q0 24 20 44t44 20h512q24 0 44 -20t20 -44v-32h64v95q0 29 -18 47t-47 18h-702q-29 0 -47 -18t-18 -47zM256 640h-64v-64h64v64zM576 448 l160 160v-160h224v-128h-224v-160l-160 160v-160l-256 224l256 224v-160zM256 512h-64v-64h64v64zM256 384h-64v-64h64v64zM256 256h-64v-64h64v64zM640 64h-448v-64h448v64z" />
<glyph unicode="&#xf40a;" horiz-adv-x="960" d="M0 767v-830q0 -29 18 -47t47 -18h702q29 0 47 18t18 47v159l-64 1v-97q0 -24 -20 -44t-44 -20h-512q-24 0 -44 20t-20 44v704q0 24 20 44t44 20h512q24 0 44 -20t20 -44v-32h64v95q0 29 -18 47t-47 18h-702q-29 0 -47 -18t-18 -47zM256 640h-64v-64h64v64zM640 448h-128 v64h160v64h-224v-128h-128l160 -192zM256 512h-64v-64h64v64zM832 320h128l-160 192l-160 -192h128v-64h-160v-64h224v128zM256 384h-64v-64h64v64zM256 256h-64v-64h64v64zM640 64h-448v-64h448v64z" />
<glyph unicode="&#xf40b;" d="M1024 -192l-512 256l-512 -256v704l512 320l512 -320v-704zM576 704v-256h-128v256l-384 -256v-512l384 192v64h128v-64l384 -192v512zM704 384v128l192 -192l-192 -192v128h-384v-128l-192 192l192 192v-128h384z" />
<glyph unicode="&#xf410;" horiz-adv-x="768" d="M0 -63v126q0 28 18 46.5t46 18.5v384q-28 0 -46 18.5t-18 46.5v126q0 29 18 47t47 18h126q29 0 47 -18t18 -47v-126q0 -28 -18 -46.5t-46 -18.5v-192h160l160 160v95q0 29 18 47t47 18h126q29 0 47 -18t18 -47v-126q0 -29 -18 -47t-47 -18h-95l-176 -176q-16 -16 -38 -16 h-202v-64q28 0 46 -18.5t18 -46.5v-126q0 -29 -18 -47t-47 -18h-126q-29 0 -47 18t-18 47zM64 671v-62q0 -14 9.5 -23.5t23.5 -9.5h62q14 0 23.5 9.5t9.5 23.5v62q0 14 -9.5 23.5t-23.5 9.5h-62q-14 0 -23.5 -9.5t-9.5 -23.5zM576 543v-62q0 -14 9.5 -23.5t23.5 -9.5h62 q14 0 23.5 9.5t9.5 23.5v62q0 14 -9.5 23.5t-23.5 9.5h-62q-14 0 -23.5 -9.5t-9.5 -23.5zM64 31v-62q0 -14 9.5 -23.5t23.5 -9.5h62q14 0 23.5 9.5t9.5 23.5v62q0 14 -9.5 23.5t-23.5 9.5h-62q-14 0 -23.5 -9.5t-9.5 -23.5z" />
<glyph unicode="&#xf411;" horiz-adv-x="768" d="M512 448h128v128h128v128h-128v128h-128v-128h-128v-128h128v-128zM0 -63v126q0 28 18 46.5t46 18.5v384q-28 0 -46 18.5t-18 46.5v126q0 29 18 47t47 18h126q29 0 47 -18t18 -47v-126q0 -28 -18 -46.5t-46 -18.5v-192h160l64 64h96v-96l-80 -80q-16 -16 -38 -16h-202 v-64q28 0 46 -18.5t18 -46.5v-126q0 -29 -18 -47t-47 -18h-126q-29 0 -47 18t-18 47zM64 671v-62q0 -14 9.5 -23.5t23.5 -9.5h62q14 0 23.5 9.5t9.5 23.5v62q0 14 -9.5 23.5t-23.5 9.5h-62q-14 0 -23.5 -9.5t-9.5 -23.5zM64 31v-62q0 -14 9.5 -23.5t23.5 -9.5h62 q14 0 23.5 9.5t9.5 23.5v62q0 14 -9.5 23.5t-23.5 9.5h-62q-14 0 -23.5 -9.5t-9.5 -23.5z" />
<glyph unicode="&#xf412;" horiz-adv-x="768" d="M576 544l96 -96l96 96l-96 96l96 96l-96 96l-96 -96l-96 96l-96 -96l96 -96l-96 -96l96 -96zM0 -63v126q0 28 18 46.5t46 18.5v384q-28 0 -46 18.5t-18 46.5v126q0 29 18 47t47 18h126q29 0 47 -18t18 -47v-126q0 -28 -18 -46.5t-46 -18.5v-192h160l64 64l96 -96l-80 -80 q-16 -16 -38 -16h-202v-64q28 0 46 -18.5t18 -46.5v-126q0 -29 -18 -47t-47 -18h-126q-29 0 -47 18t-18 47zM64 671v-62q0 -14 9.5 -23.5t23.5 -9.5h62q14 0 23.5 9.5t9.5 23.5v62q0 14 -9.5 23.5t-23.5 9.5h-62q-14 0 -23.5 -9.5t-9.5 -23.5zM64 31v-62q0 -14 9.5 -23.5 t23.5 -9.5h62q14 0 23.5 9.5t9.5 23.5v62q0 14 -9.5 23.5t-23.5 9.5h-62q-14 0 -23.5 -9.5t-9.5 -23.5z" />
<glyph unicode="&#xf413;" horiz-adv-x="768" d="M0 -63v126q0 28 18 46.5t46 18.5v384q-28 0 -46 18.5t-18 46.5v126q0 29 18 47t47 18h126q29 0 47 -18t18 -47v-126q0 -28 -18 -46.5t-46 -18.5v-96l160 -96h160q0 28 18.5 46t46.5 18h126q29 0 47 -18t18 -47v-126q0 -29 -18 -47t-47 -18h-126q-28 0 -46.5 18t-18.5 46 h-177q-13 0 -27 8l-116 72v-144q28 0 46 -18.5t18 -46.5v-126q0 -29 -18 -47t-47 -18h-126q-29 0 -47 18t-18 47zM64 671v-62q0 -14 9.5 -23.5t23.5 -9.5h62q14 0 23.5 9.5t9.5 23.5v62q0 14 -9.5 23.5t-23.5 9.5h-62q-14 0 -23.5 -9.5t-9.5 -23.5zM576 287v-62 q0 -14 9.5 -23.5t23.5 -9.5h62q14 0 23.5 9.5t9.5 23.5v62q0 14 -9.5 23.5t-23.5 9.5h-62q-14 0 -23.5 -9.5t-9.5 -23.5zM64 31v-62q0 -14 9.5 -23.5t23.5 -9.5h62q14 0 23.5 9.5t9.5 23.5v62q0 14 -9.5 23.5t-23.5 9.5h-62q-14 0 -23.5 -9.5t-9.5 -23.5z" />
<glyph unicode="&#xf414;" horiz-adv-x="896" d="M510 573l-89 52q-16 9 -20.5 26.5t4.5 32.5l21 37q9 16 26.5 20.5t32.5 -4.5l89 -52v104q0 17 13 30t31 13h43q17 0 30 -13t13 -30v-104l89 52q15 9 32.5 4.5t26.5 -20.5l21 -37q9 -15 4.5 -32.5t-19.5 -26.5l-90 -52l90 -51q15 -9 19.5 -26.5t-4.5 -32.5l-21 -37 q-9 -16 -26.5 -20.5t-32.5 4.5l-89 52v-104q0 -17 -13 -30t-30 -13h-43q-18 0 -31 13t-13 30v104l-89 -52q-15 -9 -32.5 -4.5t-26.5 20.5l-21 37q-9 15 -4.5 32.5t20.5 26.5zM18 -63v126q0 28 18 46.5t46 18.5v384q-28 0 -46 18.5t-18 46.5v126q0 29 18 47t47 18h126 q29 0 47 -18t18 -47v-126q0 -28 -18 -46.5t-46 -18.5v-192h160l32 32l96 -96l-48 -48q-16 -16 -38 -16h-202v-64q28 0 46 -18.5t18 -46.5v-126q0 -29 -18 -47t-47 -18h-126q-29 0 -47 18t-18 47zM82 671v-62q0 -14 9.5 -23.5t23.5 -9.5h62q14 0 23.5 9.5t9.5 23.5v62 q0 14 -9.5 23.5t-23.5 9.5h-62q-14 0 -23.5 -9.5t-9.5 -23.5zM82 31v-62q0 -14 9.5 -23.5t23.5 -9.5h62q14 0 23.5 9.5t9.5 23.5v62q0 14 -9.5 23.5t-23.5 9.5h-62q-14 0 -23.5 -9.5t-9.5 -23.5z" />
<glyph unicode="&#xf415;" horiz-adv-x="960" d="M576 394v192q0 14 9 23t23 9h11v64q0 62 44 106t105 44t105 -44t44 -106v-64h11q14 0 23 -9t9 -23v-192q0 -13 -9.5 -22.5t-22.5 -9.5h-320q-13 0 -22.5 9.5t-9.5 22.5zM0 -63v126q0 28 18 46.5t46 18.5v384q-28 0 -46 18.5t-18 46.5v126q0 29 18 47t47 18h126 q29 0 47 -18t18 -47v-126q0 -28 -18 -46.5t-46 -18.5v-192h160l96 96l80 -80l-144 -144h-192v-64q28 0 46 -18.5t18 -46.5v-126q0 -29 -18 -47t-47 -18h-126q-29 0 -47 18t-18 47zM853 618v64q0 35 -25 60.5t-60 25.5t-60 -25.5t-25 -60.5v-64h170zM64 671v-62 q0 -14 9.5 -23.5t23.5 -9.5h62q14 0 23.5 9.5t9.5 23.5v62q0 14 -9.5 23.5t-23.5 9.5h-62q-14 0 -23.5 -9.5t-9.5 -23.5zM64 31v-62q0 -14 9.5 -23.5t23.5 -9.5h62q14 0 23.5 9.5t9.5 23.5v62q0 14 -9.5 23.5t-23.5 9.5h-62q-14 0 -23.5 -9.5t-9.5 -23.5z" />
<glyph unicode="&#xf416;" horiz-adv-x="960" d="M576 704h255q29 0 47 -18t18 -47v-511q28 0 46 -18.5t18 -46.5v-126q0 -29 -18 -47t-47 -18h-126q-29 0 -47 18t-18 47v126q0 28 18 46.5t46 18.5v415q0 14 -9.5 23.5t-23.5 9.5h-159v-128l-256 192l256 192v-128zM0 -63v126q0 28 18 46.5t46 18.5v384q-28 0 -46 18.5 t-18 46.5v126q0 29 18 47t47 18h126q29 0 47 -18t18 -47v-126q0 -28 -18 -46.5t-46 -18.5v-384q28 0 46 -18.5t18 -46.5v-126q0 -29 -18 -47t-47 -18h-126q-29 0 -47 18t-18 47zM64 671v-62q0 -14 9.5 -23.5t23.5 -9.5h62q14 0 23.5 9.5t9.5 23.5v62q0 14 -9.5 23.5 t-23.5 9.5h-62q-14 0 -23.5 -9.5t-9.5 -23.5zM64 31v-62q0 -14 9.5 -23.5t23.5 -9.5h62q14 0 23.5 9.5t9.5 23.5v62q0 14 -9.5 23.5t-23.5 9.5h-62q-14 0 -23.5 -9.5t-9.5 -23.5zM768 31v-62q0 -14 9.5 -23.5t23.5 -9.5h62q14 0 23.5 9.5t9.5 23.5v62q0 14 -9.5 23.5 t-23.5 9.5h-62q-14 0 -23.5 -9.5t-9.5 -23.5z" />
<glyph unicode="&#xf417;" horiz-adv-x="960" d="M0 -64v126q0 28 18 46.5t46 18.5v511q0 28 18 46.5t47 18.5h255v128l256 -192l-256 -192v128h-192v-448q28 0 46 -18.5t18 -46.5v-126q0 -28 -18 -46.5t-47 -18.5h-126q-29 0 -47 18.5t-18 46.5zM576 63h192v448q-28 0 -46 18.5t-18 46.5v126q0 28 18 46.5t47 18.5h126 q29 0 47 -18.5t18 -46.5v-126q0 -28 -18 -46.5t-46 -18.5v-511q0 -28 -18 -46.5t-47 -18.5h-255v-128l-256 192l256 192v-128zM768 670v-62q0 -14 9.5 -23.5t23.5 -9.5h62q14 0 23.5 9.5t9.5 23.5v62q0 14 -9.5 23.5t-23.5 9.5h-62q-14 0 -23.5 -9.5t-9.5 -23.5zM64 30v-62 q0 -14 9.5 -23.5t23.5 -9.5h62q14 0 23.5 9.5t9.5 23.5v62q0 14 -9.5 23.5t-23.5 9.5h-62q-14 0 -23.5 -9.5t-9.5 -23.5z" />
<glyph unicode="&#xf418;" d="M800 512l128 -128l96 96l-128 128l128 128l-96 96l-128 -128l-128 128l-96 -96l128 -128l-128 -128l96 -96zM0 577v126q0 29 18 47t47 18h126q29 0 47 -18t18 -47v-126q0 -28 -18 -46.5t-46 -18.5v-448h160v128l256 -192l-256 -192v128h-223q-29 0 -47 18t-18 47v511 q-28 0 -46 18.5t-18 46.5zM64 671v-62q0 -14 9.5 -23.5t23.5 -9.5h62q14 0 23.5 9.5t9.5 23.5v62q0 14 -9.5 23.5t-23.5 9.5h-62q-14 0 -23.5 -9.5t-9.5 -23.5zM736 320l64 64l64 -64v-192h64v-256h-256v256h64v192zM864 64h-128v-128h128v128z" />
<glyph unicode="&#xf420;" horiz-adv-x="733" d="M246 675q-24 13 -35 31q-13 17 -5.5 31t31.5 15q49 1 92 -35q17 3 39 3q24 0 40 -4q16 14 37 24q31 13 56 12t33 -16q11 -30 -44 -62q37 -47 38 -94q2 -48 -1 -52q0 -4 -40 -32q-39 -27 -120 -32q-80 5 -119 32q-40 27 -42 32t1 53q1 47 39 94zM647 262q37 -7 65 -25 q25 -17 22.5 -34t-30.5 -23q-27 -6 -68 2q-11 1 -22 6q-13 -60 -44 -111q21 -11 42 -33t29 -44q8 -25 -4.5 -37t-36.5 -4q-23 8 -42.5 26.5t-30.5 36.5q-70 -70 -159 -70q-88 0 -158 68q-10 -17 -30 -35t-42 -26q-24 -8 -36.5 4t-4.5 37q8 23 28.5 44t40.5 32 q-30 47 -44 111q-15 -4 -20 -5q-41 -8 -68 -2q-29 5 -31 23q-2 17 23 34t65 25l21 3l-1 7q2 52 13 96q-25 -1 -55.5 12.5t-46.5 32.5t-9 34.5t32 16.5t53.5 -11.5t43.5 -29.5q11 26 26 50q69 -60 167 -71v-322q-1 -1 5 -16q5 -15 27 -16q23 2 28 16q5 15 4 16v322 q99 11 168 71q17 -27 26 -52q16 18 45.5 31t54.5 12t32 -15.5t-9 -34.5t-47.5 -34t-57.5 -12q12 -46 12 -96v-6q17 -2 24 -4z" />
<glyph unicode="&#xf421;" horiz-adv-x="765" d="M278 301l-50 -50q-32 -35 -32 -79q0 -45 32 -80l92 -92h-320v704h576v-320l-114 -108l-25 25q-35 32 -79 32q-45 0 -80 -32zM64 640v-64h64v64h-64zM512 576v64h-320v-64h320zM64 512v-64h64v64h-64zM512 448v64h-320v-64h320zM64 384v-64h64v64h-64zM256 320v64h-64v-64 h64zM711 365l50 -49q5 -5 5 -12t-5 -12l-287 -287q-4 -4 -11 -4q-8 0 -12 4l-155 155q-5 5 -5 12q0 5 5 12l50 49q5 5 12 5q6 0 11 -5l93 -93l226 225q5 5 12 5q6 0 11 -5z" />
<glyph unicode="&#xf422;" horiz-adv-x="896" d="M448 768q190 -5 316.5 -131.5t131.5 -316.5q-5 -190 -131.5 -316.5t-316.5 -131.5q-190 5 -316.5 131.5t-131.5 316.5q5 190 131.5 316.5t316.5 131.5zM448 0q136 3 226.5 93.5t93.5 226.5q-3 136 -93.5 226.5t-226.5 93.5q-136 -3 -226.5 -93.5t-93.5 -226.5 q3 -136 93.5 -226.5t226.5 -93.5zM512 576v-320h-128v320h128zM512 192v-128h-128v128h128z" />
<glyph unicode="&#xf423;" horiz-adv-x="896" d="M896 320q0 -120 -64 -227v99h-91q25 58 27 128q-3 136 -93.5 226.5t-226.5 93.5q-107 0 -191 -65l63 -63h-192v192l38 -38q125 102 282 102q190 -5 316.5 -131.5t131.5 -316.5zM384 256v320h128v-320h-128zM768 128v-192l-38 38q-125 -102 -282 -102q-190 5 -316.5 131.5 t-131.5 316.5q0 120 64 227v-99h91q-25 -58 -27 -128q3 -136 93.5 -226.5t226.5 -93.5q107 0 191 65l-63 63h192zM512 192v-128h-128v128h128z" />
<glyph unicode="&#xf424;" d="M512 0q131 9 192 64q33 30 46 42.5t10 13.5l200 200q-5 -190 -131.5 -316.5t-316.5 -131.5q-190 5 -316.5 131.5t-131.5 316.5q5 190 131.5 316.5t316.5 131.5q184 -1 317 -131l-91 -91q-94 94 -226 94q-136 -3 -226.5 -93.5t-93.5 -226.5q3 -136 93.5 -226.5 t226.5 -93.5zM928 608l96 -96l-256 -256l-160 164l96 96l65 -67zM448 256v320h128v-320h-128zM576 192v-128h-128v128h128z" />
<glyph unicode="&#xf430;" horiz-adv-x="896" d="M0 192v384q0 48 40.5 88t87.5 40h640q48 0 88 -40.5t40 -87.5v-384q0 -45 -41 -86.5t-87 -41.5h-320l-256 -256v256h-71q-56 4 -88.5 39t-32.5 89z" />
<glyph unicode="&#xf431;" horiz-adv-x="896" d="M320 640l2 16q3 19 21 33.5t41 14.5h448l16 -2q19 -3 33.5 -21t14.5 -41v-320q0 -26 -17.5 -44.5t-39.5 -18.5q-1 -1 -7 -1h-64v-192l-194 192h-192l-16 2q-19 3 -32.5 21t-13.5 41v320zM0 448l2 16q3 19 21 33.5t41 14.5h192v-199q4 -56 39 -88.5t89 -32.5h192v-64 q0 -21 -14 -39.5t-30 -21.5q-10 -3 -18 -3h-192l-194 -192v192h-64l-16 2q-19 3 -33.5 21t-14.5 41v320z" />
<glyph unicode="&#xf432;" horiz-adv-x="896" d="M0 192v384q0 48 40.5 88t87.5 40h640q48 0 88 -40.5t40 -87.5v-384q0 -45 -41 -86.5t-87 -41.5h-64v-256l-256 256h-327q-56 4 -88.5 39t-32.5 89zM384 192h128v128h128v128h-128v128h-128v-128h-128v-128h128v-128z" />
<glyph unicode="&#xf440;" d="M11 336q81 133 216.5 211.5t284.5 78.5t284 -78.5t216 -211.5q12 -20 12 -39t-12 -39q-81 -133 -216 -211.5t-284 -78.5t-284.5 78.5t-216.5 211.5q-11 20 -11 39t11 39zM338 370q0 -11 8 -19t19 -8q12 0 20 8t8 19q0 50 34.5 84.5t84.5 34.5q11 0 19 8t8 19q0 12 -8 20 t-19 8q-72 0 -123 -51t-51 -123zM73 297q79 -121 194.5 -188.5t244.5 -67.5t244.5 67.5t193.5 188.5q-85 133 -217 202q35 -62 35 -129q0 -106 -75 -181t-181 -75t-181 75t-75 181q0 71 34 129q-132 -69 -217 -202z" />
<glyph unicode="&#xf441;" d="M768 320h128v128h128v128h-128v128h-128v-128h-128v-128h128v-128zM0 247q0 19 11 39q81 133 216.5 211.5t284.5 78.5v-82q-71 0 -122.5 -51.5t-51.5 -122.5q0 -11 8 -19t20 -8q11 0 19 8t8 19q0 50 34.5 84.5t84.5 34.5v-82h146v-147h85q-78 -146 -231 -146 q-106 0 -181 75t-75 181q0 70 35 129q-133 -68 -218 -202q78 -120 194 -188t245 -68q125 0 231 56.5t182 162.5h26v147l10 1q22 -25 52 -72q11 -20 11 -39q0 -13 -11 -40q-81 -132 -216.5 -210.5t-284.5 -78.5t-284.5 78.5t-216.5 210.5q-11 27 -11 40z" />
</font>
</defs>
</svg>
