<?xml version="1.0" standalone="no"?>
<!DOCTYPE svg PUBLIC "-//W3C//DTD SVG 1.1//EN" "http://www.w3.org/Graphics/SVG/1.1/DTD/svg11.dtd" >
<!--
2014-8-20: Created.
-->
<svg xmlns="http://www.w3.org/2000/svg">
<metadata>
Created by FontForge 20120731 at Wed Aug 20 19:30:44 2014
 By Luo Zhenyu
Created by Luo Zhenyu with FontForge 2.0 (http://fontforge.sf.net)
</metadata>
<defs>
<font id="ponticons" horiz-adv-x="1024" >
  <font-face 
    font-family="ponticons"
    font-weight="500"
    font-stretch="normal"
    units-per-em="1024"
    panose-1="2 0 6 3 0 0 0 0 0 0"
    ascent="832"
    descent="-192"
    bbox="-0.5 -193 1028 835"
    underline-thickness="51.2"
    underline-position="-102.4"
    unicode-range="U+F000-F65B"
  />
    <missing-glyph />
    <glyph glyph-name="fa-alert-o" unicode="&#xf311;" horiz-adv-x="969" 
d="M420 83h128v-64h-128v64zM420 467h128v-320h-128v320zM448 593l-316 -580c-16 -28 2 -58 35 -58h634c33 0 51 30 35 58l-316 580c-17 31 -55 31 -72 0zM927 -109h-886c-34 0 -52 31 -35 60l443 775c17 30 53 30 70 0l443 -775c16 -29 -1 -60 -35 -60z" />
    <glyph glyph-name="fa-alert" unicode="&#xf310;" horiz-adv-x="965" 
d="M419 66v-64h128v64h-128zM419 450v-320h128v320h-128zM924 -94h-882c-35 0 -52 31 -35 61l442 746c17 28 51 28 68 0l442 -746c17 -30 0 -61 -35 -61z" />
    <glyph glyph-name="fa-align-center" unicode="&#xf604;" horiz-adv-x="896" 
d="M0 -128v128h896v-128h-896zM192 128v128h512v-128h-512zM0 384v128h896v-128h-896zM192 640v128h512v-128h-512z" />
    <glyph glyph-name="fa-align-justify" unicode="&#xf607;" horiz-adv-x="896" 
d="M0 -128v128h896v-128h-896zM0 128v128h896v-128h-896zM0 384v128h896v-128h-896zM0 640v128h896v-128h-896z" />
    <glyph glyph-name="fa-align-left" unicode="&#xf605;" horiz-adv-x="896" 
d="M0 -128v128h896v-128h-896zM0 128v128h640v-128h-640zM0 384v128h768v-128h-768zM0 640v128h512v-128h-512z" />
    <glyph glyph-name="fa-align-right" unicode="&#xf606;" horiz-adv-x="896" 
d="M0 -128v128h896v-128h-896zM256 128v128h640v-128h-640zM128 384v128h768v-128h-768zM384 640v128h512v-128h-512z" />
    <glyph glyph-name="fa-arrow-back" unicode="&#xf264;" horiz-adv-x="960" 
d="M960 400v-320h-96v224h-544v-160l-320 208l320 208v-160h640z" />
    <glyph glyph-name="fa-arrow-down" unicode="&#xf251;" horiz-adv-x="640" 
d="M640 384l-320 -384l-320 384h192v256h256v-256h192z" />
    <glyph glyph-name="fa-arrow-left" unicode="&#xf252;" horiz-adv-x="640" 
d="M640 448v-256h-256v-192l-384 320l384 320v-192h256z" />
    <glyph glyph-name="fa-arrow-right" unicode="&#xf253;" horiz-adv-x="640" 
d="M0 448h256v192l384 -320l-384 -320v192h-256v256z" />
    <glyph glyph-name="fa-arrow-slim-down" unicode="&#xf259;" horiz-adv-x="768" 
d="M749 365c13 -12 19 -27 19 -45s-6 -33 -19 -45l-320 -320c-12 -13 -27 -19 -45 -19s-33 6 -45 19l-320 320c-13 12 -19 27 -19 45s6 33 19 45c9 13 24 19 45 19s36 -6 45 -19l211 -210v485c0 36 28 64 64 64c19 0 34 -6 45 -19c13 -11 19 -26 19 -45v-485l211 210
c12 13 27 19 45 19s33 -6 45 -19z" />
    <glyph glyph-name="fa-arrow-slim-left" unicode="&#xf25a;" horiz-adv-x="768" 
d="M429 -45c-12 -13 -27 -19 -45 -19s-33 6 -45 19l-320 320c-13 12 -19 27 -19 45s6 33 19 45l320 320c12 13 27 19 45 19s33 -6 45 -19c13 -9 19 -24 19 -45s-6 -36 -19 -45l-210 -211h485c36 0 64 -28 64 -64c0 -19 -6 -34 -19 -45c-11 -13 -26 -19 -45 -19h-485
l210 -211c13 -12 19 -27 19 -45s-6 -33 -19 -45z" />
    <glyph glyph-name="fa-arrow-slim-right" unicode="&#xf25b;" horiz-adv-x="768" 
d="M339 -45c-13 12 -19 27 -19 45s6 33 19 45l210 211h-485c-19 0 -34 6 -45 19c-13 11 -19 26 -19 45c0 36 28 64 64 64h485l-210 211c-13 9 -19 24 -19 45s6 36 19 45c12 13 27 19 45 19s33 -6 45 -19l320 -320c13 -12 19 -27 19 -45s-6 -33 -19 -45l-320 -320
c-12 -13 -27 -19 -45 -19s-33 6 -45 19z" />
    <glyph glyph-name="fa-arrow-slim-up" unicode="&#xf258;" horiz-adv-x="768" 
d="M749 275c-12 -13 -27 -19 -45 -19s-33 6 -45 19l-211 210v-485c0 -19 -6 -34 -19 -45c-11 -13 -26 -19 -45 -19c-36 0 -64 28 -64 64v485l-211 -210c-9 -13 -24 -19 -45 -19s-36 6 -45 19c-13 12 -19 27 -19 45s6 33 19 45l320 320c12 13 27 19 45 19s33 -6 45 -19
l320 -320c13 -12 19 -27 19 -45s-6 -33 -19 -45z" />
    <glyph glyph-name="fa-arrow-small-down" unicode="&#xf255;" horiz-adv-x="384" 
d="M384 384l-192 -256l-192 256h128v128h128v-128h128z" />
    <glyph glyph-name="fa-arrow-small-left" unicode="&#xf256;" horiz-adv-x="384" 
d="M256 512v-128h128v-128h-128v-128l-256 192z" />
    <glyph glyph-name="fa-arrow-small-right" unicode="&#xf257;" horiz-adv-x="384" 
d="M128 512l256 -192l-256 -192v128h-128v128h128v128z" />
    <glyph glyph-name="fa-arrow-small-up" unicode="&#xf254;" horiz-adv-x="384" 
d="M384 256h-128v-128h-128v128h-128l192 256z" />
    <glyph glyph-name="fa-arrow-up" unicode="&#xf250;" horiz-adv-x="640" 
d="M640 256h-192v-256h-256v256h-192l320 384z" />
    <glyph glyph-name="fa-attachment" unicode="&#xf616;" horiz-adv-x="920" 
d="M351 -117c-16 -16 -40 -36 -67 -49s-58 -26 -87 -26c-27 -1 -48 6 -70 15s-41 26 -61 43c-19 21 -38 43 -49 71c-12 27 -19 55 -16 90c1 23 10 47 21 68c11 20 28 43 47 62l394 394c27 27 64 54 101 63c36 9 78 6 115 -29c36 -35 42 -74 32 -110
c-10 -37 -39 -74 -68 -105l-363 -361l-68 72l359 359c9 9 21 20 30 34s13 26 8 43c-9 7 -22 4 -37 -6c-16 -10 -29 -21 -40 -32l-391 -391c-5 -6 -10 -11 -14 -16c-5 -5 -9 -10 -13 -16c-8 -13 -11 -24 -14 -40c-1 -12 1 -26 7 -38c6 -13 14 -28 29 -40
c25 -27 49 -33 71 -29c22 3 46 20 73 44c38 39 74 75 108 109c34 33 68 67 103 102l103 103c35 34 71 70 110 109c24 24 48 47 66 69s35 48 47 83c12 40 -5 87 -33 127s-73 70 -118 77c-31 1 -57 -5 -84 -20c-28 -15 -50 -35 -73 -56l-429 -429l-71 68l430 432
c32 32 68 59 101 76c33 16 70 27 103 28c36 3 68 -4 101 -18c32 -14 62 -38 94 -67c31 -33 57 -69 70 -110s18 -85 5 -134c-5 -24 -18 -51 -33 -76c-16 -25 -38 -53 -62 -78c-77 -76 -149 -147 -225 -223z" />
    <glyph glyph-name="fa-bars-one" unicode="&#xf659;" horiz-adv-x="640" 
d="M0 0v128h640v-128h-640z" />
    <glyph glyph-name="fa-bars-three" unicode="&#xf65b;" horiz-adv-x="640" 
d="M0 0v128h640v-128h-640zM0 256v128h640v-128h-640zM0 512v128h640v-128h-640z" />
    <glyph glyph-name="fa-bars-two" unicode="&#xf65a;" horiz-adv-x="640" 
d="M0 0v128h640v-128h-640zM0 256v128h640v-128h-640z" />
    <glyph glyph-name="fa-beer" unicode="&#xf151;" horiz-adv-x="960" 
d="M832 448h-128v-256h128v256zM352 640c63 1 116 7 159 19c42 12 64 27 65 45c-1 18 -23 33 -65 45c-43 12 -96 18 -159 18s-116 -6 -158 -18c-43 -12 -65 -27 -66 -45c1 -18 23 -33 66 -45c42 -12 95 -18 158 -19zM576 512h-64v-512h64v512zM384 448h-64v-512h64v512z
M192 512h-64v-512h64v512zM896 576c36 -1 63 -29 64 -64v-384c-1 -35 -31 -63 -64 -64h-192v-128c-3 -37 -37 -67 -103 -91c-67 -24 -150 -36 -249 -37c-99 1 -182 13 -248 37c-67 24 -101 54 -104 91v768c3 37 37 67 104 91c66 24 149 36 248 37c99 -1 182 -13 249 -37
c66 -24 100 -54 103 -91v-128h84h108z" />
    <glyph glyph-name="fa-bell" unicode="&#xf161;" horiz-adv-x="1028" 
d="M514 -42c20 0 40 -9 53 -22s22 -33 22 -53c0 -21 -9 -40 -22 -53s-33 -22 -53 -22c-21 0 -40 9 -53 22s-22 32 -22 53c0 20 9 40 22 53s32 22 53 22zM447 832h134v-63c69 -16 131 -55 175 -108c43 -53 70 -121 70 -196v-272l202 -175v-47h-1028v47l202 175v272
c0 75 27 143 71 196c43 53 105 92 174 108v63z" />
    <glyph glyph-name="fa-book" unicode="&#xf116;" horiz-adv-x="960" 
d="M768 256c32 0 64 -30 64 -64h-256c0 32 30 64 64 64h128zM713 672c167 0 247 -46 247 -78v-586c-29 16 -120 49 -214 56c-115 9 -234 -9 -234 -32c0 -16 -8 -31 -31 -32h-1h-1c-23 1 -31 16 -31 32c0 23 -119 41 -234 32c-95 -8 -185 -40 -214 -56v586c0 32 80 78 247 78
s209 -32 233 -56c24 24 66 56 233 56zM448 100v444s-64 59 -192 59s-192 -27 -192 -59v-443c22 15 103 27 192 27s162 -12 192 -28zM896 101v443s-64 59 -192 59s-192 -27 -192 -59v-444c30 16 103 28 192 28s170 -12 192 -27zM768 384c32 0 64 -30 64 -64h-256
c0 32 30 64 64 64h128zM768 512c32 0 64 -30 64 -64h-256c0 32 30 64 64 64h128zM320 384c34 0 64 -32 64 -64h-256c0 34 32 64 64 64h128zM320 256c34 0 64 -32 64 -64h-256c0 34 32 64 64 64h128zM320 512c34 0 64 -32 64 -64h-256c0 34 32 64 64 64h128z" />
    <glyph glyph-name="fa-bookmark-alt" unicode="&#xf413;" horiz-adv-x="512" 
d="M444 486c11 9 8 14 -6 14l-131 1l-41 124c-4 14 -10 14 -15 0l-40 -124l-132 -1c-13 0 -16 -5 -6 -14l108 -78l-42 -124c-3 -14 1 -17 12 -11l108 78l108 -78c10 -6 15 -3 12 11l-42 124zM512 768v-896l-256 224l-256 -224v896h512z" />
    <glyph glyph-name="fa-bookmark" unicode="&#xf412;" horiz-adv-x="512" 
d="M256 192l-256 -320v896h512v-896z" />
    <glyph glyph-name="fa-bookmarks" unicode="&#xf414;" horiz-adv-x="640" 
d="M384 192l-256 -320v768h512v-768zM64 0l-64 -64v832h640v-64h-576v-704z" />
    <glyph glyph-name="fa-branch-add" unicode="&#xf521;" horiz-adv-x="768" 
d="M64 -63c0 -19 14 -33 33 -33h62c19 0 33 14 33 33v62c0 19 -14 33 -33 33h-62c-19 0 -33 -14 -33 -33v-62zM64 577c0 -19 14 -33 33 -33h62c19 0 33 14 33 33v62c0 19 -14 33 -33 33h-62c-19 0 -33 -14 -33 -33v-62zM0 31c0 37 27 65 64 65v384c-37 0 -64 28 -64 65v126
c0 39 26 65 65 65h126c39 0 65 -26 65 -65v-126c0 -37 -27 -65 -64 -65v-192h160l64 64h96v-96l-80 -80c-11 -11 -23 -16 -38 -16h-202v-64c37 0 64 -28 64 -65v-126c0 -39 -26 -65 -65 -65h-126c-39 0 -65 26 -65 65v126zM512 544h-128v128h128v128h128v-128h128v-128h-128
v-128h-128v128z" />
    <glyph glyph-name="fa-branch-branch" unicode="&#xf523;" horiz-adv-x="768" 
d="M64 -31c0 -19 14 -33 33 -33h62c19 0 33 14 33 33v62c0 19 -14 33 -33 33h-62c-19 0 -33 -14 -33 -33v-62zM576 225c0 -19 14 -33 33 -33h62c19 0 33 14 33 33v62c0 19 -14 33 -33 33h-62c-19 0 -33 -14 -33 -33v-62zM64 609c0 -19 14 -33 33 -33h62c19 0 33 14 33 33v62
c0 19 -14 33 -33 33h-62c-19 0 -33 -14 -33 -33v-62zM0 63c0 37 27 65 64 65v384c-37 0 -64 28 -64 65v126c0 39 26 65 65 65h126c39 0 65 -26 65 -65v-126c0 -37 -27 -65 -64 -65v-96l160 -96h160c0 37 28 64 65 64h126c39 0 65 -26 65 -65v-126c0 -39 -26 -65 -65 -65
h-126c-37 0 -65 27 -65 64h-177c-9 0 -18 3 -27 8l-116 72v-144c37 0 64 -28 64 -65v-126c0 -39 -26 -65 -65 -65h-126c-39 0 -65 26 -65 65v126z" />
    <glyph glyph-name="fa-branch-compare" unicode="&#xf527;" horiz-adv-x="960" 
d="M64 -31c0 -19 14 -33 33 -33h62c19 0 33 14 33 33v62c0 19 -14 33 -33 33h-62c-19 0 -33 -14 -33 -33v-62zM768 609c0 -19 14 -33 33 -33h62c19 0 33 14 33 33v62c0 19 -14 33 -33 33h-62c-19 0 -33 -14 -33 -33v-62zM576 192v-128h192v448c-37 0 -64 28 -64 65v126
c0 37 26 65 65 65h126c39 0 65 -28 65 -65v-126c0 -37 -27 -65 -64 -65v-511c0 -37 -26 -65 -65 -65h-255v-128l-256 192zM0 63c0 37 27 65 64 65v511c0 37 26 65 65 65h255v128l256 -192l-256 -192v128h-192v-448c37 0 64 -28 64 -65v-126c0 -37 -26 -65 -65 -65h-126
c-39 0 -65 28 -65 65v126z" />
    <glyph glyph-name="fa-branch-lock" unicode="&#xf525;" horiz-adv-x="960" 
d="M64 -63c0 -19 14 -33 33 -33h62c19 0 33 14 33 33v62c0 19 -14 33 -33 33h-62c-19 0 -33 -14 -33 -33v-62zM64 577c0 -19 14 -33 33 -33h62c19 0 33 14 33 33v62c0 19 -14 33 -33 33h-62c-19 0 -33 -14 -33 -33v-62zM853 586v64c0 47 -38 86 -85 86s-85 -39 -85 -86v-64
h170zM0 31c0 37 27 65 64 65v384c-37 0 -64 28 -64 65v126c0 39 26 65 65 65h126c39 0 65 -26 65 -65v-126c0 -37 -27 -65 -64 -65v-192h160l96 96l80 -80l-144 -144h-192v-64c37 0 64 -28 64 -65v-126c0 -39 -26 -65 -65 -65h-126c-39 0 -65 26 -65 65v126zM576 554
c0 19 13 32 32 32h11v64c0 83 68 150 149 150s149 -67 149 -150v-64h11c19 0 32 -13 32 -32v-192c0 -17 -15 -32 -32 -32h-320c-17 0 -32 15 -32 32v192z" />
    <glyph glyph-name="fa-branch-merge" unicode="&#xf526;" horiz-adv-x="960" 
d="M768 -63c0 -19 14 -33 33 -33h62c19 0 33 14 33 33v62c0 19 -14 33 -33 33h-62c-19 0 -33 -14 -33 -33v-62zM64 -63c0 -19 14 -33 33 -33h62c19 0 33 14 33 33v62c0 19 -14 33 -33 33h-62c-19 0 -33 -14 -33 -33v-62zM64 577c0 -19 14 -33 33 -33h62c19 0 33 14 33 33v62
c0 19 -14 33 -33 33h-62c-19 0 -33 -14 -33 -33v-62zM0 31c0 37 27 65 64 65v384c-37 0 -64 28 -64 65v126c0 39 26 65 65 65h126c39 0 65 -26 65 -65v-126c0 -37 -27 -65 -64 -65v-384c37 0 64 -28 64 -65v-126c0 -39 -26 -65 -65 -65h-126c-39 0 -65 26 -65 65v126z
M576 800v-128h255c39 0 65 -26 65 -65v-511c37 0 64 -28 64 -65v-126c0 -39 -26 -65 -65 -65h-126c-39 0 -65 26 -65 65v126c0 37 27 65 64 65v415c0 19 -14 33 -33 33h-159v-128l-256 192z" />
    <glyph glyph-name="fa-branch-pattern" unicode="&#xf524;" horiz-adv-x="861" 
d="M64 -63c0 -19 14 -33 33 -33h62c19 0 33 14 33 33v62c0 19 -14 33 -33 33h-62c-19 0 -33 -14 -33 -33v-62zM64 577c0 -19 14 -33 33 -33h62c19 0 33 14 33 33v62c0 19 -14 33 -33 33h-62c-19 0 -33 -14 -33 -33v-62zM0 31c0 37 27 65 64 65v384c-37 0 -64 28 -64 65v126
c0 39 26 65 65 65h126c39 0 65 -26 65 -65v-126c0 -37 -27 -65 -64 -65v-192h160l32 32l96 -96l-48 -48c-11 -11 -23 -16 -38 -16h-202v-64c37 0 64 -28 64 -65v-126c0 -39 -26 -65 -65 -65h-126c-39 0 -65 26 -65 65v126zM403 593c-21 12 -28 39 -16 59l21 37
c12 21 39 28 59 16l89 -52v104c0 23 20 43 44 43h43c23 0 43 -20 43 -43v-104l89 52c20 12 47 5 59 -16l21 -37c12 -20 5 -47 -15 -59l-90 -52l90 -51c20 -12 27 -39 15 -59l-21 -37c-12 -21 -39 -28 -59 -16l-89 52v-104c0 -23 -20 -43 -43 -43h-43c-24 0 -44 20 -44 43
v104l-89 -52c-20 -12 -47 -5 -59 16l-21 37c-12 20 -5 47 16 59l89 51z" />
    <glyph glyph-name="fa-branch-remove" unicode="&#xf522;" horiz-adv-x="768" 
d="M64 -63c0 -19 14 -33 33 -33h62c19 0 33 14 33 33v62c0 19 -14 33 -33 33h-62c-19 0 -33 -14 -33 -33v-62zM64 577c0 -19 14 -33 33 -33h62c19 0 33 14 33 33v62c0 19 -14 33 -33 33h-62c-19 0 -33 -14 -33 -33v-62zM0 31c0 37 27 65 64 65v384c-37 0 -64 28 -64 65v126
c0 39 26 65 65 65h126c39 0 65 -26 65 -65v-126c0 -37 -27 -65 -64 -65v-192h160l64 64l96 -96l-80 -80c-11 -11 -23 -16 -38 -16h-202v-64c37 0 64 -28 64 -65v-126c0 -39 -26 -65 -65 -65h-126c-39 0 -65 26 -65 65v126zM480 416l-96 96l96 96l-96 96l96 96l96 -96l96 96
l96 -96l-96 -96l96 -96l-96 -96l-96 96z" />
    <glyph glyph-name="fa-branch" unicode="&#xf520;" horiz-adv-x="768" 
d="M64 -31c0 -19 14 -33 33 -33h62c19 0 33 14 33 33v62c0 19 -14 33 -33 33h-62c-19 0 -33 -14 -33 -33v-62zM576 481c0 -19 14 -33 33 -33h62c19 0 33 14 33 33v62c0 19 -14 33 -33 33h-62c-19 0 -33 -14 -33 -33v-62zM64 609c0 -19 14 -33 33 -33h62c19 0 33 14 33 33v62
c0 19 -14 33 -33 33h-62c-19 0 -33 -14 -33 -33v-62zM0 63c0 37 27 65 64 65v384c-37 0 -64 28 -64 65v126c0 39 26 65 65 65h126c39 0 65 -26 65 -65v-126c0 -37 -27 -65 -64 -65v-192h160l160 160v95c0 39 26 65 65 65h126c39 0 65 -26 65 -65v-126c0 -39 -26 -65 -65 -65
h-95l-176 -176c-11 -11 -23 -16 -38 -16h-202v-64c37 0 64 -28 64 -65v-126c0 -39 -26 -65 -65 -65h-126c-39 0 -65 26 -65 65v126z" />
    <glyph glyph-name="fa-briefcase" unicode="&#xf15e;" horiz-adv-x="896" 
d="M832 512h-64v-192h-640v192h-64v-256h320v-64h128v64h320v256zM384 576h128v48c0 9 -7 16 -16 16h-96c-9 0 -16 -7 -16 -16v-48zM832 576c36 -1 63 -28 64 -64v-512c-1 -36 -28 -63 -64 -64h-768c-36 1 -63 28 -64 64v512c1 36 28 63 64 64h256v66c1 35 27 61 62 62h132
c35 -1 61 -27 62 -62v-66h256z" />
    <glyph glyph-name="fa-browser" unicode="&#xf146;" horiz-adv-x="896" 
d="M896 0c-1 -36 -28 -63 -64 -64h-768c-36 1 -63 28 -64 64v640c1 36 28 63 64 64h768c36 -1 63 -28 64 -64v-640zM832 640h-384v-64h384v64zM832 512h-768v-512h768v512zM64 576h64v64h-64v-64zM192 576h64v64h-64v-64zM320 576h64v64h-64v-64z" />
    <glyph glyph-name="fa-bug" unicode="&#xf550;" horiz-adv-x="732" 
d="M644 230c27 -5 48 -14 65 -25c33 -23 29 -49 -8 -57c-19 -4 -41 -3 -68 2c-8 1 -15 3 -22 6c-9 -41 -24 -78 -44 -111c25 -13 60 -45 71 -77c11 -33 -9 -52 -41 -41c-33 11 -61 42 -73 63c-44 -44 -99 -70 -159 -70s-114 25 -158 68c-12 -20 -40 -50 -72 -61
s-52 8 -41 41c11 32 44 63 69 76c-21 33 -35 70 -44 111c-7 -2 -13 -4 -20 -5c-27 -5 -49 -6 -68 -2c-19 3 -30 11 -31 23c-3 23 35 48 88 59l21 3l-1 7c1 33 5 65 13 96c-33 -1 -81 20 -102 45s-10 50 23 51s77 -18 97 -41c8 18 17 35 26 50c31 -27 87 -62 167 -71v-322
c-1 -1 1 -7 5 -16c3 -9 12 -15 27 -16c15 1 25 7 28 16s5 15 4 16v322c80 9 137 44 168 71c10 -16 19 -33 26 -52c21 24 67 44 100 43s44 -24 23 -50s-70 -49 -105 -46c8 -31 12 -63 12 -96v-6c7 -1 15 -2 24 -4zM243 643c-16 9 -28 20 -35 31c-16 23 -7 45 26 46
s72 -18 92 -35c11 2 24 3 39 3s28 -1 40 -4c10 9 22 17 37 24c41 17 78 16 89 -4c7 -19 -11 -43 -44 -62c24 -31 37 -62 38 -94s1 -49 -1 -52c0 -3 -13 -13 -40 -32s-67 -29 -120 -32c-53 3 -92 13 -119 32c-54 37 -44 20 -41 85c1 32 14 63 39 94z" />
    <glyph glyph-name="fa-buoy" unicode="&#xf130;" 
d="M308 -72c63 -33 131 -50 203 -50s140 17 203 50l-85 116c-37 -16 -76 -24 -118 -24c-41 0 -80 8 -118 24zM904 117c33 65 49 132 49 203s-16 139 -49 204l-116 -86c15 -39 23 -78 23 -118s-8 -79 -23 -118zM69 320c0 -71 16 -138 49 -203l117 85c-16 38 -24 77 -24 118
s8 80 24 118l-117 86c-33 -65 -49 -133 -49 -204zM348 157c45 -45 99 -67 163 -67c128 0 231 102 231 230s-103 231 -231 231c-111 0 -199 -76 -223 -171c-21 -80 1 -164 60 -223zM393 596c38 16 77 24 118 24c42 0 81 -8 118 -24l85 117c-63 33 -131 50 -203 50
c-70 0 -138 -17 -203 -50zM0 320c0 133 54 266 150 362c99 100 219 150 361 150c137 0 266 -53 362 -150c96 -96 151 -230 151 -362s-55 -266 -151 -362s-225 -150 -362 -150c-141 0 -261 50 -361 150c-95 95 -150 230 -150 362z" />
    <glyph glyph-name="fa-calendar-day" unicode="&#xf111;" horiz-adv-x="960" 
d="M480 320v0v0v0v0zM480 320v0v0v0v0v0v0v0v0v0zM480 320v0v0v0v0v0v0v0v0zM480 320v0v0v0v0v0v0v0v0v0v0v0v0v0v0v0v0zM480 320v0v0v0v0v0v0v0v0v0v0v0v0zM704 352h-64v64h128v-448h-64v384zM512 -32h-320v64h256v128h-256v64h256v128h-256v64h320v-448zM896 -128v640
h-832v-640h832zM704 576v192h-64v-192h64zM320 576v192h-64v-192h64zM0 703c0 39 26 65 65 65h127v31c0 19 14 33 33 33h126c19 0 33 -14 33 -33v-31h192v31c0 19 14 33 33 33h126c19 0 33 -14 33 -33v-31h127c39 0 65 -26 65 -65v-830c0 -39 -26 -65 -65 -65h-830
c-39 0 -65 26 -65 65v830z" />
    <glyph glyph-name="fa-calendar-month" unicode="&#xf110;" horiz-adv-x="960" 
d="M480 320v0v0v0v0zM480 320v0v0v0v0v0v0v0v0v0zM480 320v0v0v0v0v0v0v0v0zM480 320v0v0v0v0v0v0v0v0v0v0v0v0v0v0v0v0zM480 320v0v0v0v0v0v0v0v0v0v0v0v0zM512 64h128v-128h-128v128zM320 64h128v-128h-128v128zM128 64h128v-128h-128v128zM704 256h128v-128h-128v128z
M512 256h128v-128h-128v128zM320 256h128v-128h-128v128zM128 256h128v-128h-128v128zM704 448h128v-128h-128v128zM512 448h128v-128h-128v128zM320 448h128v-128h-128v128zM896 -128v640h-832v-640h832zM704 576v192h-64v-192h64zM320 576v192h-64v-192h64zM0 703
c0 39 26 65 65 65h127v31c0 19 14 33 33 33h126c19 0 33 -14 33 -33v-31h192v31c0 19 14 33 33 33h126c19 0 33 -14 33 -33v-31h127c39 0 65 -26 65 -65v-830c0 -39 -26 -65 -65 -65h-830c-39 0 -65 26 -65 65v830z" />
    <glyph glyph-name="fa-chart-area" unicode="&#xf402;" 
d="M960 -64h-768l128 384l128 -128l128 256l128 -128l256 384v-768zM64 0v128h-64v64h64v128h-64v64h64v128h-64v64h64v128h-64v64h64v64h64v-960h896v-64h-960v128h-64v64h64z" />
    <glyph glyph-name="fa-chart-bar" unicode="&#xf403;" 
d="M384 -64h-192v256h192v-256zM640 -64h-192v512h192v-512zM896 -64h-192v704h192v-704zM64 0v128h-64v64h64v128h-64v64h64v128h-64v64h64v128h-64v64h64v64h64v-960h896v-64h-960v128h-64v64h64z" />
    <glyph glyph-name="fa-chart-line" unicode="&#xf400;" 
d="M220 31c-19 19 -28 41 -28 68c0 53 43 96 96 96h8l104 172c-11 15 -16 32 -16 52c0 53 43 96 96 96s96 -43 96 -96c0 -20 -5 -37 -16 -52l104 -172h14l171 298c-11 17 -17 35 -17 54c0 53 43 96 96 96s96 -43 96 -96s-43 -96 -96 -96h-6l-171 -298c11 -17 17 -35 17 -54
c0 -53 -43 -96 -96 -96s-96 43 -96 96c0 19 5 37 16 52l-104 172h-16l-104 -172c11 -15 16 -33 16 -52c0 -53 -43 -96 -96 -96c-27 0 -49 9 -68 28zM64 0v128h-64v64h64v128h-64v64h64v128h-64v64h64v128h-64v64h64v64h64v-960h896v-64h-960v128h-64v64h64z" />
    <glyph glyph-name="fa-chart-pie" unicode="&#xf401;" 
d="M0 372c35 221 221 407 442 442v-442h-442zM520 268h9c37 0 53 14 53 34v512c75 -12 147 -41 215 -90c135 -98 227 -261 227 -422c0 -81 -25 -157 -74 -232c-99 -150 -270 -244 -438 -244c-257 0 -477 187 -512 442h512h8z" />
    <glyph glyph-name="fa-checkbox-checked" unicode="&#xf655;" 
d="M768 192h128v-256c0 -33 -31 -63 -64 -64h-768c-33 1 -63 31 -64 64v768c1 33 31 64 64 64h512v-128h-416c-16 0 -31 -15 -32 -32v-576c0 -20 13 -32 32 -32h576c16 1 31 16 32 32v160zM1024 640l-512 -512l-256 256l128 128l128 -128l384 384z" />
    <glyph glyph-name="fa-checkbox-selected" unicode="&#xf656;" horiz-adv-x="896" 
d="M256 512h384v-384h-384v384zM768 608c-1 17 -16 32 -32 32h-576c-16 0 -31 -15 -32 -32v-576c0 -20 13 -32 32 -32h576c16 1 31 16 32 32v576zM832 768c33 -1 63 -31 64 -64v-768c-1 -33 -31 -63 -64 -64h-768c-33 1 -63 31 -64 64v768c1 33 31 63 64 64h768z" />
    <glyph glyph-name="fa-checkbox-unchecked" unicode="&#xf654;" horiz-adv-x="896" 
d="M768 608c-1 17 -16 32 -32 32h-576c-16 0 -31 -15 -32 -32v-576c0 -20 13 -32 32 -32h576c16 1 31 16 32 32v576zM832 768c33 -1 63 -31 64 -64v-768c-1 -33 -31 -63 -64 -64h-768c-33 1 -63 31 -64 64v768c1 33 31 63 64 64h768z" />
    <glyph glyph-name="fa-checklist" unicode="&#xf551;" horiz-adv-x="766" 
d="M192 288h64v64h-64v-64zM128 608h-64v-64h64v64zM128 480h-64v-64h64v64zM128 352h-64v-64h64v64zM192 416h320v64h-320v-64zM192 544h320v64h-320v-64zM228 219c-21 -23 -32 -49 -32 -79s11 -57 32 -80l92 -92h-320v704h576v-320l-114 -108l-25 25c-23 21 -49 32 -79 32
c-31 0 -57 -11 -80 -32zM761 284c3 -3 5 -7 5 -12s-2 -9 -5 -12l-287 -287c-3 -3 -7 -4 -11 -4c-5 0 -9 1 -12 4l-155 155c-3 3 -5 7 -5 12c0 4 2 8 5 12l50 49c3 3 7 5 12 5c4 0 8 -2 11 -5l93 -93l226 225c3 3 7 5 12 5c4 0 8 -2 11 -5z" />
    <glyph glyph-name="fa-chevron-down" unicode="&#xf25d;" horiz-adv-x="640" 
d="M640 416l-320 -320l-320 320l128 128l192 -192l192 192z" />
    <glyph glyph-name="fa-chevron-left" unicode="&#xf25e;" horiz-adv-x="448" 
d="M256 320l192 -192l-128 -128l-320 320l320 320l128 -128z" />
    <glyph glyph-name="fa-chevron-right" unicode="&#xf25f;" horiz-adv-x="448" 
d="M192 320l-192 192l128 128l320 -320l-320 -320l-128 128z" />
    <glyph glyph-name="fa-chevron-up" unicode="&#xf25c;" horiz-adv-x="640" 
d="M640 224l-128 -128l-192 192l-192 -192l-128 128l320 320z" />
    <glyph glyph-name="fa-circle-slash" unicode="&#xf41c;" horiz-adv-x="640" 
d="M320 128c109 3 189 83 192 192c0 28 -6 54 -17 78l-254 -253c25 -11 51 -16 79 -17zM320 512c-109 -3 -189 -83 -192 -192c0 -28 6 -54 17 -77l252 252c-23 11 -49 17 -77 17zM320 640c181 -4 316 -139 320 -320c-4 -181 -139 -316 -320 -320c-181 4 -316 139 -320 320
c4 181 139 316 320 320z" />
    <glyph glyph-name="fa-circuit-board" unicode="&#xf152;" horiz-adv-x="896" 
d="M576 512c1 36 28 63 64 63s63 -27 63 -63s-27 -63 -63 -63s-63 27 -64 63zM576 128c1 36 28 63 64 63s63 -27 63 -63s-27 -63 -63 -63s-63 27 -64 63zM896 576v-512c-3 -109 -83 -189 -192 -192h-448l192 192h81c23 -39 63 -64 111 -64c72 1 127 56 128 128
c-1 72 -56 127 -128 128c-48 0 -88 -25 -111 -64h-145l-292 -292c-56 35 -91 93 -92 164v512c3 109 83 189 192 192v-145c-39 -23 -64 -63 -64 -111c1 -72 56 -127 128 -128c48 0 88 25 111 64h162c23 -39 63 -64 111 -64c72 1 127 56 128 128c-1 72 -56 127 -128 128
c-48 0 -88 -25 -111 -64h-162c-11 20 -27 36 -47 47v145h384c109 -3 189 -83 192 -192zM256 576c36 -1 63 -28 63 -64s-27 -63 -63 -63s-63 27 -63 63s27 63 63 64z" />
    <glyph glyph-name="fa-clippy" unicode="&#xf42a;" horiz-adv-x="896" 
d="M256 224h-128v64h128v-64zM448 352h-320v64h320v-64zM128 32h192v-64h-192v64zM896 224v-128h-320v-128l-256 192l256 192v-128h320zM128 160h128v-64h-128v64zM192 608c-37 0 -63 -24 -64 -64h512c-1 36 -32 63 -64 64h-64c-33 1 -63 28 -64 64s-28 63 -64 63
s-63 -27 -64 -63s-28 -63 -64 -64h-34h-30zM704 32h64v-128c-1 -36 -28 -63 -64 -64h-640c-36 1 -63 28 -64 64v704c1 36 28 63 64 64h192c1 73 55 127 128 128c73 -1 127 -55 128 -128h192c36 -1 63 -28 64 -64v-320h-64v192h-640v-576h640v128z" />
    <glyph glyph-name="fa-clock" unicode="&#xf147;" horiz-adv-x="896" 
d="M448 0c181 4 316 139 320 320c-5 180 -140 315 -320 320c-180 -5 -315 -140 -320 -320c4 -181 139 -316 320 -320zM448 768c253 -7 441 -195 448 -448c-7 -253 -195 -441 -448 -448c-253 7 -441 195 -448 448c7 253 195 441 448 448zM384 576l64 64l64 -64v-192h128
l64 -64l-64 -64h-256v320z" />
    <glyph glyph-name="fa-collapse" unicode="&#xf42d;" horiz-adv-x="768" 
d="M192 704h384l-192 -192zM0 256h768v-64h-768v64zM0 384h768v-64h-768v64zM192 -128l192 192l192 -192h-384z" />
    <glyph glyph-name="fa-color-mode" unicode="&#xf149;" horiz-adv-x="768" 
d="M704 640h-640v-640zM768 704v-768h-768v768h768z" />
    <glyph glyph-name="fa-comment-add" unicode="&#xf498;" horiz-adv-x="896" 
d="M0 640c0 64 65 128 128 128h640c64 0 128 -65 128 -128v-384c0 -60 -67 -128 -128 -128h-64v-256l-256 256h-327c-75 5 -121 56 -121 128v384zM384 384v-128h128v128h128v128h-128v128h-128v-128h-128v-128h128z" />
    <glyph glyph-name="fa-comment" unicode="&#xf496;" horiz-adv-x="896" 
d="M0 640c0 64 65 128 128 128h640c64 0 128 -65 128 -128v-384c0 -60 -67 -128 -128 -128h-320l-256 -256v256h-71c-75 5 -121 56 -121 128v384z" />
    <glyph glyph-name="fa-comments" unicode="&#xf497;" horiz-adv-x="896" 
d="M2 496c4 25 31 48 62 48h192v-199c5 -75 56 -121 128 -121h192v-64c0 -28 -23 -57 -44 -61c-7 -2 -13 -3 -18 -3h-192l-194 -192v192h-64l-16 2c-25 4 -48 31 -48 62v320zM322 688c4 25 31 48 62 48h448l16 -2c25 -4 48 -31 48 -62v-320c0 -36 -28 -63 -57 -63
c-1 -1 -3 -1 -7 -1h-64v-192l-194 192h-192l-16 2c-25 4 -46 31 -46 62v320z" />
    <glyph glyph-name="fa-commit" unicode="&#xf500;" horiz-adv-x="960" 
d="M352 383v-126c0 -39 26 -65 65 -65h126c39 0 65 26 65 65v126c0 39 -26 65 -65 65h-126c-39 0 -65 -26 -65 -65zM0 256v128h256v29c0 76 55 131 131 131h186c76 0 131 -55 131 -131v-29h256v-128h-256v-29c0 -76 -55 -131 -131 -131h-186c-76 0 -131 55 -131 131v29h-256
z" />
    <glyph glyph-name="fa-contrast" unicode="&#xf431;" 
d="M512 683c-100 0 -190 -40 -256 -106s-107 -157 -107 -257s41 -190 107 -256s156 -107 256 -107v726zM512 832c141 0 270 -57 363 -149c92 -93 149 -222 149 -363s-57 -270 -149 -362c-93 -93 -222 -150 -363 -150s-270 57 -362 150c-93 92 -150 221 -150 362
s57 270 150 363c92 92 221 149 362 149z" />
    <glyph glyph-name="fa-credit-card" unicode="&#xf139;" 
d="M448 384l128 128h384v32c1 1 -1 7 -4 16s-13 15 -28 16h-832c-15 -1 -25 -7 -28 -16s-5 -15 -4 -16v-32h192l-128 -128h-64v-288c-1 -1 1 -7 4 -16s13 -15 28 -16h832c15 1 25 7 28 16s5 15 4 16v288h-512zM960 640c33 -1 63 -31 64 -64v-512c-1 -33 -31 -63 -64 -64
h-896c-33 1 -63 31 -64 64v512c1 33 31 63 64 64h448h448zM448 320h192v-64h-192v64zM384 512h64l-128 -128h-64zM384 256h-256v64h256v-64zM320 192h128v-64h-128v64zM128 192h128v-64h-128v64z" />
    <glyph glyph-name="fa-dashboard-alt" unicode="&#xf134;" 
d="M786 394c9 8 20 12 31 12c24 0 43 -19 43 -43s-19 -44 -43 -44s-44 20 -44 44c0 12 4 22 13 31zM179 394c8 8 18 12 30 12c24 0 44 -19 44 -43s-20 -44 -44 -44s-43 20 -43 44c0 12 4 22 13 31zM432 225c0 40 28 72 67 79l118 174c9 11 24 4 20 -9l-60 -197
c10 -15 15 -31 15 -47c0 -44 -36 -80 -80 -80s-80 36 -80 80zM743 524c8 8 18 12 30 12c24 0 44 -19 44 -43s-20 -44 -44 -44s-43 20 -43 44c0 12 4 22 13 31zM222 524c9 8 20 12 31 12c24 0 43 -19 43 -43s-19 -44 -43 -44s-44 20 -44 44c0 12 4 22 13 31zM612 610
c9 9 19 13 31 13c24 0 44 -20 44 -44s-20 -43 -44 -43s-44 19 -44 43c0 12 4 22 13 31zM339 579c0 24 20 44 44 44s43 -20 43 -44s-19 -43 -43 -43c-21 0 -44 20 -44 43zM482 654c9 8 20 12 31 12c24 0 43 -19 43 -43s-19 -44 -43 -44c-12 0 -22 5 -30 14
c-9 8 -14 18 -14 30s4 22 13 31zM143 166c42 -100 114 -172 215 -215c50 -21 101 -32 154 -32c104 0 211 45 284 118s117 179 117 283c0 105 -44 211 -117 284s-179 117 -284 117c-104 0 -210 -44 -283 -117s-118 -180 -118 -284c0 -52 11 -103 32 -154zM0 320
c0 92 23 178 70 259c93 156 261 253 442 253c91 0 177 -23 256 -69c159 -92 256 -262 256 -443s-97 -349 -253 -442c-81 -47 -167 -70 -259 -70c-183 0 -350 97 -442 254c-47 77 -70 163 -70 258z" />
    <glyph glyph-name="fa-dashboard" unicode="&#xf133;" horiz-adv-x="832" 
d="M793 494c25 -53 38 -112 39 -175c-5 -236 -180 -411 -416 -416c-236 5 -411 180 -416 416c5 236 180 411 416 416c97 0 186 -33 257 -89l-79 -61c-51 35 -111 54 -178 54c-181 -4 -316 -139 -320 -320c4 -181 139 -316 320 -320c181 4 316 139 320 320c0 30 -4 58 -12 85
zM576 543c0 -17 -14 -32 -32 -32s-32 15 -32 33s14 31 32 31s32 -13 32 -32zM128 319c0 19 14 32 32 32s32 -13 32 -31s-14 -33 -32 -33s-32 15 -32 32zM224 447c0 -17 -14 -32 -32 -32s-32 15 -32 33s14 31 32 31s32 -13 32 -32zM288 575c17 0 32 -13 32 -31
s-14 -33 -32 -33s-32 15 -32 33s13 31 32 31zM640 319c0 19 14 32 32 32s32 -13 32 -31s-14 -33 -32 -33s-32 15 -32 32zM448 575c0 -17 -14 -32 -32 -32s-32 15 -32 33s14 31 32 31s32 -13 32 -32zM416 367c9 -1 17 -2 25 -4l167 143c62 52 115 96 160 133
c32 23 53 -1 32 -32c-72 -89 -190 -227 -275 -327c1 -8 2 -16 3 -25c-3 -63 -49 -110 -112 -111c-63 1 -110 48 -111 111c1 63 48 109 111 112z" />
    <glyph glyph-name="fa-database" unicode="&#xf115;" horiz-adv-x="768" 
d="M384 703c-73 -1 -133 -7 -181 -19s-73 -27 -75 -45c2 -18 27 -33 75 -45s108 -18 181 -18s133 6 181 18s73 27 75 45c-2 18 -27 33 -75 45s-108 18 -181 19zM384 383c-109 1 -199 13 -271 38c-73 24 -110 54 -113 90v128c3 36 40 66 113 91c72 24 162 36 271 37
c109 -1 199 -13 272 -37c72 -25 109 -55 112 -91v-128c-3 -36 -40 -66 -112 -90c-73 -25 -163 -37 -272 -38zM384 127c-109 1 -199 13 -271 38c-73 24 -110 54 -113 90v128c0 7 2 13 6 20c2 4 5 8 8 12c45 -56 189 -95 370 -95s325 39 370 95c3 -4 6 -8 8 -12
c4 -7 6 -13 6 -20v-128c-3 -36 -40 -66 -112 -90c-73 -25 -163 -37 -272 -38zM384 -129c-109 1 -199 13 -271 38c-73 24 -110 54 -113 90v128c1 11 5 22 14 32c45 -56 189 -95 370 -95s325 39 370 95c9 -10 13 -21 14 -32v-128c-3 -36 -40 -66 -112 -90
c-73 -25 -163 -37 -272 -38z" />
    <glyph glyph-name="fa-device-camera" unicode="&#xf170;" 
d="M515 491c56 0 107 -23 144 -59c36 -37 59 -88 59 -144s-23 -107 -59 -143c-37 -37 -88 -60 -144 -60s-107 23 -143 60c-37 36 -60 87 -60 143s23 107 60 144c36 36 87 59 143 59zM852 514v-85h145v85h-145zM515 576c-80 0 -152 -32 -204 -84s-84 -124 -84 -204
c0 -79 32 -151 84 -203s124 -85 204 -85c79 0 151 33 203 85s85 124 85 203c0 80 -33 152 -85 204s-124 84 -203 84zM333 706h372l32 -130h287v-642h-1024v642h301z" />
    <glyph glyph-name="fa-device-desktop" unicode="&#xf172;" 
d="M896 192h-768v64c15 49 67 115 157 200c89 84 229 145 419 184h192v-448zM960 704h-896v-576h896v576zM960 768c33 -1 63 -31 64 -64v-576c-1 -33 -31 -63 -64 -64h-320c16 -3 176 -61 192 -128c-1 -33 -31 -63 -64 -64h-512c-33 1 -63 31 -64 64c16 67 176 125 192 128
h-320c-33 1 -63 31 -64 64v576c1 33 31 63 64 64h448h448z" />
    <glyph glyph-name="fa-device-mobile" unicode="&#xf173;" horiz-adv-x="640" 
d="M576 640h-512v-640h512v640zM352 -128c19 0 32 13 32 32s-13 32 -32 32h-64c-19 0 -32 -13 -32 -32s13 -32 32 -32h64zM288 768c-19 0 -32 -13 -32 -32s13 -32 32 -32h64c19 0 32 13 32 32s-13 32 -32 32h-64zM576 832c36 -1 63 -28 64 -64v-896c-1 -36 -28 -63 -64 -64
h-512c-36 1 -63 28 -64 64v896c1 36 28 63 64 64h512z" />
    <glyph glyph-name="fa-device-video" unicode="&#xf171;" 
d="M640 75c0 -38 -27 -65 -65 -65h-510c-38 0 -65 27 -65 65v510c0 38 27 65 65 65h510c38 0 65 -27 65 -65v-510zM704 298v64l320 288v-640z" />
    <glyph glyph-name="fa-diff-added" unicode="&#xf502;" horiz-adv-x="896" 
d="M512 512v-128h128v-128h-128v-128h-128v128h-128v128h128v128h128zM832 768c32 0 64 -32 64 -64v-768s-32 -64 -64 -64h-768s-64 32 -64 64v768s32 64 64 64h768zM768 32v576s-17 32 -32 32h-576s-32 -16 -32 -32v-576c0 -20 14 -32 32 -32h576s32 16 32 32z" />
    <glyph glyph-name="fa-diff-ignored" unicode="&#xf503;" horiz-adv-x="896" 
d="M832 768c32 0 64 -32 64 -64v-768c0 -32 -32 -64 -64 -64h-768c-32 0 -64 32 -64 64v768c0 32 32 64 64 64h768zM768 32v576c0 16 -17 32 -32 32h-576c-16 0 -32 -16 -32 -32v-576c0 -20 14 -32 32 -32h576c15 0 32 16 32 32zM256 226l286 286h98v-98l-286 -286h-98v98z
" />
    <glyph glyph-name="fa-diff-modified" unicode="&#xf504;" horiz-adv-x="896" 
d="M832 768c32 0 64 -32 64 -64v-768c0 -32 -32 -64 -64 -64h-768c-32 0 -64 32 -64 64v768c0 32 32 64 64 64h768zM768 32v576c0 16 -17 32 -32 32h-576c-16 0 -32 -16 -32 -32v-576c0 -20 14 -32 32 -32h576c15 0 32 16 32 32zM448 448c71 0 128 -57 128 -128
s-57 -128 -128 -128s-128 57 -128 128s57 128 128 128z" />
    <glyph glyph-name="fa-diff-removed" unicode="&#xf505;" horiz-adv-x="896" 
d="M832 768c32 0 64 -32 64 -64v-768c0 -32 -32 -64 -64 -64h-768c-32 0 -64 32 -64 64v768c0 32 32 64 64 64h768zM768 32v576c0 16 -17 32 -32 32h-576c-16 0 -32 -16 -32 -32v-576c0 -20 14 -32 32 -32h576c15 0 32 16 32 32zM256 256v128h384v-128h-384z" />
    <glyph glyph-name="fa-diff-renamed" unicode="&#xf506;" horiz-adv-x="896" 
d="M832 768c32 0 64 -32 64 -64v-768c0 -32 -32 -64 -64 -64h-768c-32 0 -64 32 -64 64v768c0 32 32 64 64 64h768zM768 32v576c0 16 -17 32 -32 32h-576c-16 0 -32 -16 -32 -32v-576c0 -20 14 -32 32 -32h576c15 0 32 16 32 32zM448 384v128l256 -192l-256 -192v128h-192
v128h192z" />
    <glyph glyph-name="fa-diff" unicode="&#xf501;" horiz-adv-x="896" 
d="M448 576v-128h128v-128h-128v-128h-128v128h-128v128h128v128h128zM192 -64v128h384v-128h-384zM640 832l256 -256v-640h-64v608l-224 224h-480v64h512zM0 704h576l192 -192v-704h-768v896zM704 -128v608l-160 160h-480v-768h640z" />
    <glyph glyph-name="fa-download" unicode="&#xf425;" horiz-adv-x="960" 
d="M704 64v-64h128v64h-128zM960 -128h-960v256h960v-256zM384 384v384h192v-384h192l-288 -256l-288 256h192z" />
    <glyph glyph-name="fa-ellipsis-alt" unicode="&#xf14b;" horiz-adv-x="768" 
d="M0 384c0 64 64 128 128 128h512c64 0 128 -64 128 -128v-128c0 -64 -64 -128 -128 -128h-512c-64 0 -128 64 -128 128v128zM576 256c64 0 64 0 64 64s0 64 -64 64s-64 0 -64 -64s0 -64 64 -64zM384 256c64 0 64 0 64 64s0 64 -64 64s-64 0 -64 -64s0 -64 64 -64zM192 256
c64 0 64 0 64 64s0 64 -64 64s-64 0 -64 -64s0 -64 64 -64z" />
    <glyph glyph-name="fa-ellipsis" unicode="&#xf14a;" horiz-adv-x="512" 
d="M448 256c-35 0 -64 29 -64 64s29 64 64 64s64 -29 64 -64s-29 -64 -64 -64zM256 256c-35 0 -64 29 -64 64s29 64 64 64s64 -29 64 -64s-29 -64 -64 -64zM64 256c-35 0 -64 29 -64 64s29 64 64 64s64 -29 64 -64s-29 -64 -64 -64z" />
    <glyph glyph-name="fa-expand" unicode="&#xf42b;" horiz-adv-x="768" 
d="M192 64h384l-192 -192zM0 256h768v-64h-768v64zM0 384h768v-64h-768v64zM192 512l192 192l192 -192h-384z" />
    <glyph glyph-name="fa-eye-open" unicode="&#xf499;" 
d="M73 320c105 -161 266 -256 439 -256c172 0 334 95 438 256c-57 89 -129 156 -217 202c23 -41 35 -84 35 -129c0 -141 -115 -256 -256 -256s-256 115 -256 256c0 47 11 90 34 129c-88 -46 -160 -113 -217 -202zM338 393c0 -15 12 -27 27 -27c16 0 28 12 28 27
c0 67 52 119 119 119c15 0 27 12 27 27c0 16 -12 28 -27 28c-96 0 -174 -78 -174 -174zM11 359c108 177 302 290 501 290s392 -113 500 -290c8 -13 12 -26 12 -39s-4 -26 -12 -39c-108 -177 -301 -290 -500 -290s-393 113 -501 290c-7 13 -11 26 -11 39s4 26 11 39z" />
    <glyph glyph-name="fa-eye-plus" unicode="&#xf49a;" 
d="M0 256c0 13 4 26 11 39c108 177 302 290 501 290v-82c-95 0 -174 -79 -174 -174c0 -15 12 -27 28 -27c15 0 27 12 27 27c0 67 52 119 119 119v-82h146v-147h85c-52 -97 -129 -146 -231 -146c-141 0 -256 115 -256 256c0 47 12 90 35 129c-88 -45 -161 -112 -218 -202
c104 -160 267 -256 439 -256c167 0 312 78 413 219h26v147l10 1c16 -18 33 -42 52 -72c7 -13 11 -26 11 -39c0 -10 -4 -23 -11 -40c-108 -176 -302 -289 -501 -289s-393 113 -501 289c-7 17 -11 30 -11 40zM768 457h-128v128h128v128h128v-128h128v-128h-128v-128h-128v128z
" />
    <glyph glyph-name="fa-eye-slash" unicode="&#xf49c;" 
d="M763 442c3 -23 5 -39 5 -48c0 -105 -66 -201 -165 -240zM73 320c63 -98 145 -169 244 -214l45 80c-67 48 -106 125 -106 208c0 46 12 89 35 128c-86 -43 -159 -111 -218 -202zM554 66c159 13 304 106 397 254c-44 67 -98 123 -161 168l36 64c80 -55 142 -118 187 -192
c7 -13 11 -27 11 -40s-4 -27 -11 -40c-11 -19 -32 -45 -63 -82c-116 -133 -271 -208 -438 -208zM338 394c0 -16 12 -28 28 -28c15 0 27 12 27 28c0 65 54 118 119 118c16 0 27 12 27 28c0 15 -12 26 -27 26c-95 0 -174 -77 -174 -172zM0 320c0 13 4 27 11 40
c120 184 302 290 501 290c33 0 68 -3 103 -10l31 54c4 7 9 10 16 10h2l3 -2c2 0 4 -1 5 -2c15 -6 27 -11 37 -18l10 -6l8 -6c1 -1 3 -1 6 -2c9 -5 14 -13 14 -20c0 -3 0 -3 -1 -4c-18 -31 -78 -139 -180 -324l-180 -324l-28 -50c-4 -7 -9 -10 -16 -10c-5 0 -30 13 -77 40
c-6 4 -9 9 -9 16c0 5 8 21 25 50c-111 51 -201 129 -270 238c-7 13 -11 27 -11 40z" />
    <glyph glyph-name="fa-eye-times" unicode="&#xf49b;" 
d="M338 312c0 -15 12 -26 28 -26c15 0 27 11 27 26c0 65 52 120 119 120c16 0 27 12 27 28c0 15 -12 26 -27 26c-95 0 -174 -78 -174 -174zM0 240c0 13 4 27 11 40c108 176 302 288 501 288c29 0 58 -3 89 -8l27 -28l-110 -110l177 -176l65 64c0 -143 -108 -254 -248 -254
c-141 0 -256 115 -256 256c0 47 12 91 35 130c-88 -45 -161 -112 -218 -202c104 -160 267 -256 439 -256s335 96 439 256c-11 17 -18 27 -21 30l58 46c24 -30 36 -55 36 -76c0 -13 -4 -27 -11 -40c-108 -177 -301 -290 -501 -290c-199 0 -393 114 -501 290
c-7 13 -11 27 -11 40zM736 346l-96 96l96 96l-96 96l96 96l96 -96l96 96l96 -96l-96 -96l96 -96l-96 -96l-96 96z" />
    <glyph glyph-name="fa-fast-forward-circle" unicode="&#xf387;" 
d="M512 -64c212 0 384 172 384 384s-172 384 -384 384s-384 -172 -384 -384s172 -384 384 -384zM40 518c26 63 63 118 110 165c95 95 226 149 362 149s267 -54 363 -149c95 -96 149 -227 149 -363c0 -137 -54 -267 -149 -362c-100 -100 -221 -150 -363 -150
c-139 0 -269 54 -362 150c-96 93 -150 223 -150 362c0 71 13 137 40 198zM576 480l224 -160l-224 -160v320zM320 480l224 -160l-224 -160v320z" />
    <glyph glyph-name="fa-file-added" unicode="&#xf460;" horiz-adv-x="768" 
d="M768 576v-704h-768v896h576zM704 512l-192 192h-448v-768h640v576zM320 224h-160v128h160v160h128v-160h160v-128h-160v-160h-128v160z" />
    <glyph glyph-name="fa-file-audio" unicode="&#xf452;" horiz-adv-x="768" 
d="M426 510h45v-448h-45l-179 134h-90v180h90zM561 413c35 -37 53 -79 53 -127s-18 -90 -53 -127c-5 -4 -10 -6 -15 -6c-12 0 -23 11 -23 22c0 6 2 11 7 16c25 27 39 59 39 95s-14 68 -39 95c-5 5 -7 10 -7 16c0 12 11 22 23 22c5 0 10 -2 15 -6zM704 512l-192 192h-448
v-768h640v576zM768 576v-704h-768v896h576z" />
    <glyph glyph-name="fa-file-binary" unicode="&#xf453;" horiz-adv-x="768" 
d="M0 -128v896h576l192 -192v-704h-768zM704 512l-192 192h-448v-768h640v576zM320 320h-192v256h192v-256zM256 512h-64v-128h64v128zM256 64h64v-64h-192v64h64v128h-64v64h128v-192zM512 384h64v-64h-192v64h64v128h-64v64h128v-192zM576 0h-192v256h192v-256zM512 192
h-64v-128h64v128z" />
    <glyph glyph-name="fa-file-code-alt" unicode="&#xf456;" horiz-adv-x="768" 
d="M704 512l-192 192h-448v-768h640v576zM768 576v-704h-768v896h576zM129 228v58h32c17 0 32 12 32 28v86c0 64 59 114 128 114v-57c-19 0 -34 -6 -45 -17c-13 -9 -19 -22 -19 -40v-114c0 -16 -15 -29 -32 -29c17 0 32 -13 32 -29v-114c0 -18 6 -31 19 -40
c11 -11 26 -17 45 -17v-57c-35 0 -65 11 -90 34c-25 21 -38 48 -38 80v86c0 16 -15 28 -32 28h-32zM449 0v57c19 0 34 6 45 17c13 9 19 22 19 40v114c0 16 16 29 32 29c-16 0 -32 13 -32 29v114c0 19 -13 38 -22 43c-16 9 -30 14 -42 14v57c33 0 64 -11 91 -33
c25 -23 37 -50 37 -81v-86c0 -16 16 -28 32 -28h32v-58h-32c-16 0 -32 -12 -32 -28v-86c0 -64 -59 -114 -128 -114z" />
    <glyph glyph-name="fa-file-code" unicode="&#xf455;" horiz-adv-x="768" 
d="M288 448l64 -64l-96 -96l96 -96l-64 -64l-160 160zM416 384l64 64l160 -160l-160 -160l-64 64l96 96zM576 768l192 -192v-704h-768v896h576zM704 -64v576l-192 192h-448v-768h640z" />
    <glyph glyph-name="fa-file-excel" unicode="&#xf45d;" horiz-adv-x="768" 
d="M173 67h42l121 176l-118 169h-42v66h180v-66h-47l66 -99c4 -5 8 -10 11 -14c1 -3 2 -5 3 -6h1l1 1c3 4 9 13 12 19l64 99h-46v66h174v-66h-42l-121 -175l119 -170h42v-66h-181v66h48l-67 100c-1 2 -2 4 -4 6c-2 1 -3 3 -3 5c-3 2 -6 7 -7 10h-1c-1 0 -1 -1 -2 -2
c-1 -2 -3 -5 -5 -8c-2 -5 -4 -8 -6 -11l-64 -100h47v-66h-175v66zM704 512l-192 192h-448v-768h640v576zM768 576v-704h-768v896h576z" />
    <glyph glyph-name="fa-file-image" unicode="&#xf457;" horiz-adv-x="768" 
d="M288 320c-53 0 -96 43 -96 96s43 96 96 96s96 -43 96 -96s-43 -96 -96 -96zM640 0h-512v128l64 64l128 -64l192 192l128 -192v-128zM704 512l-192 192h-448v-768h640v576zM768 576v-704h-768v896h576z" />
    <glyph glyph-name="fa-file-media" unicode="&#xf459;" horiz-adv-x="768" 
d="M576 768l192 -192v-704h-768v896h576zM704 -64v576l-192 192h-448v-768h640zM128 576h384l128 -128v-384h-128c0 71 -57 128 -128 128c71 0 128 57 128 128s-57 128 -128 128s-128 -57 -128 -128s57 -128 128 -128c-71 0 -128 -57 -128 -128h-128v512z" />
    <glyph glyph-name="fa-file-modified" unicode="&#xf461;" horiz-adv-x="768" 
d="M164 325c-21 12 -28 39 -16 59l21 37c12 21 39 28 59 16l89 -52v104c0 23 20 43 44 43h43c23 0 43 -20 43 -43v-104l89 52c20 12 47 5 59 -16l21 -37c12 -20 5 -47 -15 -59l-90 -52l90 -51c20 -12 27 -39 15 -59l-21 -37c-12 -21 -39 -28 -59 -16l-89 52v-104
c0 -23 -20 -43 -43 -43h-43c-24 0 -44 20 -44 43v104l-89 -52c-20 -12 -47 -5 -59 16l-21 37c-12 20 -5 47 16 59l89 51zM768 576v-704h-768v896h576zM704 512l-192 192h-448v-768h640v576z" />
    <glyph glyph-name="fa-file-pdf" unicode="&#xf451;" horiz-adv-x="768" 
d="M576 768l192 -192v-704h-768v896h576zM64 704v-600c42 36 92 55 108 60c7 12 105 207 129 288c-23 79 -29 160 -16 209c7 28 22 39 35 43h-256zM347 397c-21 -81 -101 -233 -97 -227c84 37 148 46 232 59c-40 18 -77 18 -135 168zM704 -64v198c-8 -1 -14 -2 -24 -2
c-41 3 -114 22 -168 49c-63 -7 -128 -19 -187 -34c-6 -2 -41 -14 -79 -29c-96 -161 -146 -182 -180 -182h-2v0h2h638zM704 247v265l-192 192h-162v0c28 0 59 -20 52 -73c0 0 4 -70 -13 -174c55 -158 120 -177 147 -190c28 3 55 5 79 5c35 0 65 -10 89 -25z" />
    <glyph glyph-name="fa-file-ppt" unicode="&#xf45e;" horiz-adv-x="768" 
d="M768 576v-704h-768v896h576zM704 512l-192 192h-448v-768h640v576zM190 66h57v345h-57v66h229c34 0 61 -3 81 -11c52 -23 85 -75 85 -142c0 -34 -8 -64 -24 -91c-33 -53 -77 -63 -140 -63h-85v-104h57v-66h-203v66zM410 240c39 0 87 10 87 84c0 68 -44 83 -87 83h-74
v-167h74z" />
    <glyph glyph-name="fa-file-removed" unicode="&#xf462;" horiz-adv-x="768" 
d="M768 576v-704h-768v896h576zM704 512l-192 192h-448v-768h640v576zM576 224h-384v128h384v-128z" />
    <glyph glyph-name="fa-file-renamed" unicode="&#xf463;" horiz-adv-x="768" 
d="M384 512l256 -192l-256 -192v128h-192v128h192v128zM768 576v-704h-768v896h576zM704 512l-192 192h-448v-768h640v576z" />
    <glyph glyph-name="fa-file-symlink" unicode="&#xf458;" horiz-adv-x="768" 
d="M576 768l192 -192v-704h-768v896h576zM704 -64v576l-192 192h-448v-768h640zM384 384v128l256 -192l-256 -192v128c-125 0 -224 -56 -256 -192c0 209 107 320 256 320z" />
    <glyph glyph-name="fa-file-txt" unicode="&#xf45a;" horiz-adv-x="768" 
d="M448 576v-64h-320v64h320zM576 768l192 -192v-704h-768v896h576zM704 -64v576l-192 192h-448v-768h640zM128 64v64h512v-64h-512zM128 192v64h512v-64h-512zM128 320v64h512v-64h-512z" />
    <glyph glyph-name="fa-file-video" unicode="&#xf45b;" horiz-adv-x="768" 
d="M768 576v-704h-768v896h576zM704 512l-192 192h-448v-768h640v576zM448 288l160 128v-320l-160 128v64zM160 351c0 19 14 33 33 33h190c19 0 33 -14 33 -33v-190c0 -19 -14 -33 -33 -33h-190c-19 0 -33 14 -33 33v190z" />
    <glyph glyph-name="fa-file-word" unicode="&#xf45c;" horiz-adv-x="768" 
d="M768 576v-704h-768v896h576zM704 512l-192 192h-448v-768h640v576zM256 384l21 -234l107 171l106 -170l22 233h-64v64h192v-64h-64l-32 -352h-64l-96 165l-96 -165h-64l-32 352h-64v64h192v-64h-64z" />
    <glyph glyph-name="fa-file-zip" unicode="&#xf45f;" horiz-adv-x="768" 
d="M320 256h-64v64h64v-64zM320 384h-64v64h64v-64zM320 512h-64v64h64v-64zM192 448v64h64v-64h-64zM576 768l192 -192v-704h-768v896h576zM704 -64v576l-192 192h-192v-64h-64v64h-192v-768h640zM192 576v64h64v-64h-64zM192 320v64h64v-64h-64zM192 192v64h64v-64h64
l64 -64v-128h-256v128zM320 128h-128v-64h128v64z" />
    <glyph glyph-name="fa-flag" unicode="&#xf129;" horiz-adv-x="960" 
d="M192 698c84 53 127 70 192 70c75 0 139 -18 192 -54s117 -54 192 -54c57 0 121 24 192 73v-596c-73 -49 -137 -73 -192 -73c-75 0 -139 18 -192 54s-117 54 -192 54c-57 0 -121 -23 -192 -70v596zM0 -192v960c0 36 28 64 64 64c17 0 33 -6 46 -18c12 -13 18 -29 18 -46
v-960h-128z" />
    <glyph glyph-name="fa-flame" unicode="&#xf14d;" horiz-adv-x="739" 
d="M313 791c213 -137 200 -301 115 -382c-18 -19 -27 -38 -27 -58c0 -21 10 -38 31 -51c55 -28 117 13 114 81c-9 100 24 161 116 169c-31 -67 -27 -121 10 -161c37 -41 59 -102 67 -183c1 -140 -86 -298 -293 -342c48 24 69 64 69 112c1 73 -52 127 -139 102
c-91 -27 -154 48 -119 176c-143 -137 -119 -326 18 -406c-311 87 -317 332 -217 472c35 46 73 84 114 115c41 30 77 60 109 91c57 56 80 133 32 265z" />
    <glyph glyph-name="fa-fold" unicode="&#xf42f;" horiz-adv-x="896" 
d="M896 576v-64l-160 -160l160 -160v-64h-224l-64 64h192l-128 128h-448l-128 -128h192l-64 -64h-224v64l160 160l-160 160v64h224l64 -64h-192l128 -128h448l128 128h-192l64 64h224zM640 640l-192 -192l-192 192h128v192h128v-192h128zM256 64l192 192l192 -192h-128v-192
h-128v192h-128z" />
    <glyph glyph-name="fa-folder-added-o" unicode="&#xf488;" horiz-adv-x="896" 
d="M97 516c-19 0 -33 -14 -33 -33v-479h768v479c0 19 -14 33 -33 33h-702zM384 576v32c0 17 -17 32 -32 32h-256c-16 0 -32 -15 -32 -32v-32h320zM832 576c32 0 64 -32 64 -64v-576h-896v704c0 32 32 64 64 64h320c32 0 64 -32 64 -64v-32c0 -16 16 -32 32 -32h352zM256 324
h128v128h128v-128h128v-128h-128v-128h-128v128h-128v128z" />
    <glyph glyph-name="fa-folder-added" unicode="&#xf482;" horiz-adv-x="896" 
d="M384 576v32s-17 32 -32 32h-256s-32 -15 -32 -32v-32h320zM832 576c32 0 64 -32 64 -64v-576h-896v704s32 64 64 64h320s64 -32 64 -64v-32s16 -32 32 -32h352zM256 324v-128h128v-128h128v128h128v128h-128v128h-128v-128h-128z" />
    <glyph glyph-name="fa-folder-link-o" unicode="&#xf487;" horiz-adv-x="896" 
d="M97 516c-19 0 -33 -14 -33 -33v-479h768v479c0 19 -14 33 -33 33h-702zM448 64l256 192l-256 192v-128c-149 0 -256 -111 -256 -320c32 136 131 192 256 192v-128zM64 608v-32h320v32c0 17 -17 32 -32 32h-256c-16 0 -32 -15 -32 -32zM832 576c32 0 64 -32 64 -64v-576
h-896v704c0 32 32 64 64 64h320c32 0 64 -32 64 -64v-32c0 -16 16 -32 32 -32h352z" />
    <glyph glyph-name="fa-folder-link" unicode="&#xf481;" horiz-adv-x="896" 
d="M448 64l256 192l-256 192v-128c-149 0 -256 -111 -256 -320c32 136 131 192 256 192v-128zM64 608v-32h320v32s-17 32 -32 32h-256c-16 0 -32 -15 -32 -32zM832 576c32 0 64 -32 64 -64v-576h-896v704s32 64 64 64h320c32 0 64 -32 64 -64v-32s16 -32 32 -32h352z" />
    <glyph glyph-name="fa-folder-modified-o" unicode="&#xf489;" horiz-adv-x="896" 
d="M97 516c-19 0 -33 -14 -33 -33v-479h768v479c0 19 -14 33 -33 33h-702zM384 576v32c0 17 -17 32 -32 32h-256c-16 0 -32 -15 -32 -32v-32h320zM832 576c32 0 64 -32 64 -64v-576h-896v704c0 32 32 64 64 64h320c32 0 64 -32 64 -64v-32c0 -16 16 -32 32 -32h352zM224 324
l48 80l112 -80v128h96v-128l112 80l48 -80l-112 -80l112 -80l-48 -80l-112 80v-128h-96v128l-112 -80l-48 80l112 80z" />
    <glyph glyph-name="fa-folder-modified" unicode="&#xf483;" horiz-adv-x="896" 
d="M384 576v32s-17 32 -32 32h-256s-32 -15 -32 -32v-32h320zM832 576c32 0 64 -32 64 -64v-576h-896v704s32 64 64 64h320s64 -32 64 -64v-32s16 -32 32 -32h352zM224 324l112 -80l-112 -80l48 -80l112 80v-128h96v128l112 -80l48 80l-112 80l112 80l-48 80l-112 -80v128
h-96v-128l-112 80z" />
    <glyph glyph-name="fa-folder-o" unicode="&#xf486;" horiz-adv-x="896" 
d="M97 516c-19 0 -33 -14 -33 -33v-479h768v479c0 19 -14 33 -33 33h-702zM384 576v32c0 17 -17 32 -32 32h-256c-16 0 -32 -15 -32 -32v-32h320zM832 576c32 0 64 -32 64 -64v-576h-896v704c0 32 32 64 64 64h320c32 0 64 -32 64 -64v-32c0 -16 16 -32 32 -32h352z" />
    <glyph glyph-name="fa-folder-removed-o" unicode="&#xf48a;" horiz-adv-x="896" 
d="M97 516c-19 0 -33 -14 -33 -33v-479h768v479c0 19 -14 33 -33 33h-702zM384 576v32c0 17 -17 32 -32 32h-256c-16 0 -32 -15 -32 -32v-32h320zM832 576c32 0 64 -32 64 -64v-576h-896v704c0 32 32 64 64 64h320c32 0 64 -32 64 -64v-32c0 -16 16 -32 32 -32h352zM256 324
h384v-128h-384v128z" />
    <glyph glyph-name="fa-folder-removed" unicode="&#xf484;" horiz-adv-x="896" 
d="M384 576v32s-17 32 -32 32h-256s-32 -15 -32 -32v-32h320zM832 576c32 0 64 -32 64 -64v-576h-896v704s32 64 64 64h320s64 -32 64 -64v-32s16 -32 32 -32h352zM256 324v-128h384v128h-384z" />
    <glyph glyph-name="fa-folder-renamed-o" unicode="&#xf48b;" horiz-adv-x="896" 
d="M97 516c-19 0 -33 -14 -33 -33v-479h768v479c0 19 -14 33 -33 33h-702zM384 576v32c0 17 -17 32 -32 32h-256c-16 0 -32 -15 -32 -32v-32h320zM832 576c32 0 64 -32 64 -64v-576h-896v704c0 32 32 64 64 64h320c32 0 64 -32 64 -64v-32c0 -16 16 -32 32 -32h352zM448 452
l256 -192l-256 -192v128h-256v128h256v128z" />
    <glyph glyph-name="fa-folder-submodule" unicode="&#xf485;" horiz-adv-x="896" 
d="M384 544v32s-16 32 -32 32h-256s-32 -16 -32 -32v-32h320zM832 544c32 0 64 -32 64 -64v-128h-192c0 32 -32 64 -64 64h-256s-64 -32 -64 -64v-384h-320v640s32 64 64 64h320s64 -32 64 -64v-32s16 -32 32 -32h352zM576 224v32s-16 32 -32 32h-64s-32 -17 -32 -32v-32
h128zM832 288c32 0 64 -32 64 -64v-256h-512v320s32 64 64 64h128s64 -32 64 -64h192z" />
    <glyph glyph-name="fa-folder" unicode="&#xf480;" horiz-adv-x="896" 
d="M384 576v32s-17 32 -32 32h-256s-32 -15 -32 -32v-32h320zM832 576c32 0 64 -32 64 -64v-576h-896v704s32 64 64 64h320s64 -32 64 -64v-32s16 -32 32 -32h352z" />
    <glyph glyph-name="fa-font-bold" unicode="&#xf601;" 
d="M388 322v-430h96c43 0 80 3 112 12c31 9 58 23 78 40c21 17 37 38 47 66c10 27 15 58 15 94c0 37 -5 70 -15 98c-10 27 -27 49 -48 66c-20 19 -47 33 -78 42c-32 9 -68 12 -111 12h-96zM388 750v-344h88c39 0 72 2 101 10c28 7 51 19 70 32c19 15 33 32 42 54
s14 49 14 78s-5 55 -13 76c-9 21 -24 39 -41 54c-19 13 -42 23 -70 30c-29 7 -64 10 -103 10h-88zM0 832h595c61 0 116 -5 162 -16s83 -25 114 -46s54 -48 70 -80c15 -32 22 -67 22 -110c0 -31 -5 -58 -16 -82s-26 -45 -47 -64c-21 -17 -48 -31 -79 -42
c-32 -12 -69 -20 -110 -24c51 -5 95 -15 134 -28s71 -31 98 -54s48 -50 61 -80s20 -65 20 -102c0 -51 -9 -95 -28 -132s-48 -68 -85 -92s-85 -42 -144 -54s-129 -18 -209 -18h-558v84h129v858h-129v82z" />
    <glyph glyph-name="fa-font-italic" unicode="&#xf602;" horiz-adv-x="604" 
d="M284 -119h130l-14 -73h-400l15 73h129l177 878h-131l16 73h398l-14 -73h-131z" />
    <glyph glyph-name="fa-font" unicode="&#xf600;" 
d="M0 -186v72h89l360 940h114l361 -940h100v-72h-368v72h113l-85 222h-426l-85 -222h112v-72h-285zM286 181h371l-185 481z" />
    <glyph glyph-name="fa-gear" unicode="&#xf11d;" horiz-adv-x="896" 
d="M896 271l-123 -44l-30 -70l59 -116l-72 -72l-118 56l-71 -29l-40 -124h-102l-44 123l-70 29l-116 -58l-72 72l56 118l-29 70l-124 41v102l123 44l29 70l-58 116l72 72l118 -56l71 29l40 124h102l44 -123l70 -29l116 58l72 -72l-56 -118l29 -70l124 -41v-102zM448 482
c-92 -3 -159 -70 -162 -162c3 -92 70 -159 162 -162c92 3 160 70 161 162c-1 92 -69 159 -161 162z" />
    <glyph glyph-name="fa-gears-alt" unicode="&#xf11f;" 
d="M160 32c0 -19 6 -34 19 -45c11 -13 26 -19 45 -19c36 0 64 28 64 64c0 17 -6 33 -18 46c-13 12 -28 18 -46 18c-36 0 -64 -28 -64 -64zM0 64l70 12l3 9l7 17l3 6c1 1 1 1 1 2l-41 58l45 45l58 -41l2 1c1 1 2 1 3 1c1 1 2 2 3 2l2 1c1 1 2 1 3 1l4 2c6 3 12 5 17 6l12 70
h64l12 -70c2 0 3 0 4 -1s2 -1 5 -1c2 -1 8 -3 17 -8l8 -4l58 41l45 -45l-41 -58c0 -1 1 -3 2 -4l2 -4c0 -1 1 -3 2 -4c0 -1 0 -1 1 -2l1 -2c3 -5 5 -11 6 -18l70 -12v-64l-70 -12l-2 -8c-1 -2 -1 -4 -2 -6s-2 -4 -2 -5c-1 -3 -3 -5 -4 -6v-1l-4 -8l41 -58l-45 -45l-58 41
c-1 0 -3 -1 -4 -2l-4 -2c-1 0 -3 -1 -4 -2s-3 -2 -4 -2c-5 -3 -11 -5 -18 -6l-12 -70h-64l-12 70l-8 3c-2 1 -6 2 -11 5l-7 2c-1 0 -2 1 -3 2c-1 0 -2 0 -3 1l-2 1l-58 -41l-45 45l41 58c-3 3 -4 5 -4 8l-1 2c-1 1 -1 2 -1 3l-2 4c-3 6 -5 12 -6 17l-70 12v64zM533 480
c0 -39 14 -72 41 -98c26 -27 59 -41 98 -41c77 0 139 62 139 139s-62 139 -139 139s-139 -62 -139 -139zM320 448v64l67 12c1 1 1 2 1 3s0 2 1 3l2 12c0 3 0 5 1 6l-57 37l24 59l67 -14l2 3l2 2c1 1 2 2 3 5c1 0 1 1 1 2s0 1 1 2l1 1c1 1 2 2 3 5l-39 56l46 46l56 -39
c3 1 4 2 5 3l3 2l2 2l10 6l-14 67l59 24l37 -57c1 0 2 0 3 1s2 1 3 1c3 0 5 0 6 1l12 2l12 67h64l12 -67c1 -1 3 -1 6 -1l12 -2c1 0 2 0 3 -1s2 -1 3 -1l37 57l59 -24l-14 -67c1 -1 2 -2 5 -3c4 -2 7 -4 10 -7c1 -1 2 -2 5 -3l56 39l46 -46l-39 -56c1 -3 2 -4 3 -5l2 -3
l2 -2l6 -10l67 14l24 -59l-57 -37c0 -1 0 -2 1 -3s1 -2 1 -3c0 -3 0 -5 1 -6l2 -12l67 -12v-64l-67 -12c-1 -1 -1 -3 -1 -6l-2 -12c0 -1 0 -2 -1 -3s-1 -2 -1 -3l57 -37l-24 -59l-67 14c-1 -1 -2 -2 -3 -5c-2 -4 -4 -7 -7 -10c-1 -1 -2 -2 -3 -5l39 -56l-46 -46l-56 39
c-3 -1 -4 -2 -5 -3l-10 -6l-2 -2l-3 -2l14 -67l-59 -24l-37 57c-5 -1 -9 -2 -12 -2l-12 -3l-12 -67h-64l-12 67c-1 1 -2 1 -3 1s-2 0 -3 1l-12 2c-3 0 -5 0 -6 1l-37 -57l-59 24l14 67l-3 2l-2 2l-4 3c-1 0 -4 1 -5 2l-1 1c-1 1 -2 2 -5 3l-56 -39l-46 46l39 56
c-1 3 -2 4 -3 5s-2 2 -3 5c-2 4 -4 7 -7 10l-67 -14l-24 59l57 37c-1 5 -2 9 -2 12l-3 12z" />
    <glyph glyph-name="fa-gears" unicode="&#xf11e;" 
d="M751 71c0 -39 31 -69 68 -69s68 30 68 69c0 36 -31 68 -68 68s-68 -32 -68 -68zM614 108c0 5 27 11 80 17c5 10 10 19 16 27c-18 40 -27 65 -27 74c0 1 1 3 2 4l1 1c1 0 2 0 3 1l3 2c3 1 7 3 11 6l32 18c10 6 15 9 16 9c5 0 40 -41 52 -61c2 1 7 1 16 1s14 0 16 -1
c13 19 30 39 49 60l3 1c2 0 24 -12 67 -37c1 -1 2 -3 2 -4c0 -9 -9 -34 -27 -74c7 -10 12 -19 16 -27c53 -6 79 -12 79 -17v-75c0 -6 -26 -11 -79 -16c-3 -7 -9 -17 -16 -28c18 -40 27 -65 27 -74c0 -1 -1 -2 -2 -3l-67 -38c-4 0 -39 41 -52 61h-9c-1 -1 -4 -1 -7 -1
s-6 0 -7 1h-9c-12 -20 -47 -61 -52 -61c-1 0 -23 13 -66 38c-1 1 -2 2 -2 3c0 9 9 34 27 74c-7 9 -12 18 -16 28c-53 5 -80 11 -80 16v75zM245 248c27 -27 59 -41 96 -41c73 0 137 62 137 137s-61 136 -137 136c-75 0 -136 -61 -136 -136c0 -37 13 -69 40 -96zM771 569
c13 -13 29 -20 48 -20c39 0 68 31 68 68s-31 68 -68 68s-68 -31 -68 -68c0 -19 7 -35 20 -48zM0 394c0 10 4 15 12 16l83 13c5 13 10 27 17 40c-12 18 -28 39 -48 62c-3 3 -4 6 -4 10c0 5 1 8 4 11c21 28 75 79 86 79c5 0 8 -1 11 -4l61 -48c16 7 30 13 41 17
c4 42 8 69 13 82c2 9 7 13 16 13h99c10 0 15 -4 16 -13l12 -82c3 -1 16 -6 40 -16l63 47c3 3 6 4 11 4c3 0 6 -1 11 -4c51 -48 77 -77 77 -86c0 -4 -4 -11 -13 -22c-5 -5 -9 -11 -13 -17c-11 -13 -19 -24 -24 -32c9 -19 15 -34 18 -43l81 -13c9 -1 13 -6 13 -16v-98
c0 -8 -6 -16 -13 -16l-82 -13c-2 -7 -8 -21 -17 -41l48 -61c2 -4 3 -8 3 -11s-1 -7 -3 -10c-24 -31 -75 -79 -86 -79c-5 0 -8 1 -11 3l-62 48c-13 -7 -26 -12 -41 -16c-4 -38 -8 -66 -12 -83c-3 -9 -8 -13 -16 -13h-99c-8 0 -16 7 -16 14l-13 81c-15 5 -29 10 -40 17
l-62 -48c-3 -2 -7 -3 -11 -3c-5 0 -8 1 -11 4c-51 47 -77 76 -77 85c0 4 1 7 4 10c1 1 8 11 21 29c17 20 25 31 26 32c-12 25 -18 39 -19 44l-81 13c-9 0 -13 5 -13 15v99zM614 654c0 5 27 11 80 17c5 10 10 19 16 27c-18 40 -27 65 -27 74c0 1 1 3 2 4l1 1c1 0 2 0 3 1l3 2
c3 1 7 3 11 6l32 19l16 8c5 0 40 -41 52 -61c2 1 7 1 16 1s14 0 16 -1c21 28 37 48 49 60l3 1c2 0 24 -12 67 -37c1 -1 2 -3 2 -4c0 -9 -9 -34 -27 -74c7 -10 12 -19 16 -27c53 -6 79 -12 79 -17v-75c0 -6 -26 -11 -79 -16c-3 -7 -9 -17 -16 -28c18 -40 27 -64 27 -73
c0 -1 -1 -3 -2 -4l-67 -38c-4 0 -39 41 -52 61h-9c-1 -1 -4 -1 -7 -1s-6 0 -7 1h-9c-12 -20 -47 -61 -52 -61c-1 0 -23 13 -66 38c-1 1 -2 3 -2 4c0 9 9 33 27 73c-7 9 -12 18 -16 28c-53 5 -80 11 -80 16v75z" />
    <glyph glyph-name="fa-gift" unicode="&#xf15f;" horiz-adv-x="832" 
d="M0 447h384v-192h-384v192zM832 447v-192h-384v192h384zM295 526c47 -4 77 26 72 73s-43 86 -90 91c-47 4 -77 -26 -72 -73s43 -84 90 -91zM555 690c-47 -5 -85 -44 -90 -91s25 -77 72 -72s86 43 91 90c4 47 -26 77 -73 73zM448 447h-64v8l-87 10c-87 11 -157 83 -169 168
c-7 87 50 143 135 135c67 -8 124 -54 153 -115c29 61 86 107 153 115c85 8 142 -48 135 -135c-12 -85 -82 -157 -169 -168l-39 -5c-16 -2 -32 -4 -48 -5v-8zM64 191h320v-320h-320v320zM448 191h320v-320h-320v320z" />
    <glyph glyph-name="fa-globe-alt" unicode="&#xf13b;" horiz-adv-x="1025" 
d="M444 658c-12 27 -20 53 -27 80s-9 54 -10 83c33 7 67 11 101 11s65 -2 98 -9c-13 -33 -27 -65 -45 -95s-36 -58 -57 -83c-5 3 -19 7 -30 11c-12 3 -25 5 -30 2zM552 588c28 35 52 68 73 104c21 35 39 72 52 112c20 -7 43 -16 62 -25s39 -20 55 -32c8 -48 10 -97 11 -144
c1 -48 -1 -94 -5 -139c-23 -4 -40 -12 -56 -24s-27 -27 -35 -46c-31 11 -61 27 -86 47c-25 19 -51 40 -72 63c4 15 8 29 8 43s-2 28 -7 41zM351 502c-52 -33 -107 -58 -166 -74c-59 -17 -118 -28 -179 -33c16 93 54 179 112 249s130 124 217 155c1 -29 8 -60 14 -88
c6 -29 17 -57 26 -82c-16 -17 -29 -38 -32 -60c-4 -22 -3 -46 8 -67zM921 367c-1 17 -8 33 -15 47c-8 14 -21 25 -33 34c1 20 3 40 5 59c1 19 2 39 2 59c0 39 0 77 -5 114c43 -43 74 -90 99 -141c25 -52 39 -106 47 -159c-16 -4 -30 -6 -47 -8s-33 -4 -53 -5zM903 292h-1
c23 1 42 3 63 5c20 2 39 4 60 8c-1 -3 -1 -5 0 -8c0 -3 0 -5 -1 -8s-1 -5 0 -7c0 -3 0 -5 -1 -8c-36 -47 -82 -86 -132 -117c-50 -32 -107 -55 -160 -70c19 24 38 50 53 78c15 27 30 54 38 82c19 3 33 7 47 15c14 7 23 17 34 30zM702 6c53 11 107 28 155 50s95 50 134 83
c-52 -139 -160 -240 -286 -292c-63 -26 -130 -39 -200 -39c-71 0 -139 15 -204 44c41 7 84 17 123 31s78 30 110 50c36 -20 72 -20 104 -5c31 15 55 42 64 78zM489 -8h1c-49 -25 -97 -44 -148 -56s-101 -18 -153 -15c-39 33 -74 73 -101 114c-28 41 -52 86 -65 131
c64 -55 140 -98 220 -128c79 -30 165 -46 246 -46zM1 294h1c-1 2 -1 4 -1 6v6c-1 2 -1 4 0 6c0 2 0 4 -1 7l1 2c68 7 143 18 212 38c68 20 136 50 191 90c17 -8 32 -11 49 -10c16 0 31 5 47 12c31 -32 64 -59 98 -82s72 -41 112 -54c5 -11 10 -21 18 -29c7 -8 13 -16 24 -21
c-12 -28 -25 -55 -41 -79c-17 -25 -34 -49 -55 -70c-28 21 -64 25 -94 15s-59 -34 -71 -66c-96 1 -189 22 -274 61s-159 96 -216 168z" />
    <glyph glyph-name="fa-globe" unicode="&#xf13a;" horiz-adv-x="768" 
d="M497 621c3 3 2 7 -2 14c-5 6 -7 13 -8 21c-2 15 -20 27 -37 30c-9 1 -18 3 -29 6s-20 2 -26 -2c-20 -17 -5 -21 13 -22c9 -1 21 -7 36 -20c11 -8 42 -31 53 -27zM416 618c8 0 11 5 8 13c-1 3 -6 7 -13 11c-8 4 -13 7 -16 9c-6 4 -30 5 -38 5c-4 -1 -5 -2 -2 -5
c2 -3 7 -4 14 -4c15 -1 34 -7 19 -22c-1 -2 2 -4 9 -5s13 -2 19 -2zM348 667c7 -4 28 -2 36 14c3 13 -20 9 -28 2c-1 -1 -1 -3 -1 -4c-1 -2 -1 -3 -2 -4l-4 -5c-1 -1 -2 -2 -1 -3zM474 345c7 1 13 4 2 8c-5 1 -9 1 -12 0c-3 -2 -7 -3 -10 -3c-4 1 -12 5 -24 12
s-24 10 -37 10c-5 -1 -8 -2 -9 -4s0 -3 1 -4s5 -1 14 -2c8 -1 19 -6 32 -13s23 -10 30 -9c6 1 10 3 13 5zM384 705c217 -5 379 -167 384 -384c-4 -187 -125 -334 -300 -375c4 4 8 11 13 20s12 17 22 24c13 7 25 15 38 24c24 17 42 32 55 52c7 9 14 17 23 23
c24 17 74 99 67 126c-7 9 -19 13 -35 14c-16 0 -28 1 -35 3c-5 3 -7 8 -7 15c0 12 -12 21 -32 25c-11 2 -25 8 -43 17s-31 13 -40 11c-18 -4 -16 -3 -35 -18c-10 -7 -18 -11 -23 -11c-12 -1 -46 0 -50 30c-2 15 -7 24 -15 28c-9 3 -14 5 -17 4c0 1 1 6 4 13s2 13 -3 17
c-6 -1 -15 -6 -27 -15s-23 -6 -33 9c-8 19 -7 33 3 43c20 19 62 30 81 11c9 -10 16 -15 20 -16c4 1 4 6 0 15c-4 8 -5 15 -4 22c3 5 8 11 15 17c7 5 10 10 10 14c-1 9 -5 38 24 45c-1 1 -5 8 0 12c3 2 5 4 8 7c2 2 5 1 9 -3c3 0 21 11 16 16c-6 3 -11 6 -15 10
c-5 3 3 11 24 23l-20 16c-11 9 -21 15 -29 18c-6 1 -10 1 -12 0c-3 -2 -8 0 -16 5c-1 1 -22 10 -21 -3c2 -10 3 -20 3 -29c0 -10 -7 -10 -20 -1c-15 10 -26 17 -32 20c-13 7 12 19 20 23c3 1 4 3 2 6c0 3 2 6 6 9c3 3 -1 4 -12 3c-12 -1 -21 2 -26 8c-12 12 -31 15 -39 12
c-4 -1 -4 -4 0 -7c3 -4 4 -6 3 -7c-2 -1 -8 1 -18 5c-21 8 -39 18 -64 2l-42 -28c-13 -9 -21 -16 -22 -22c3 3 39 23 50 14c3 -7 4 -17 3 -29c-1 -13 0 -23 4 -32c4 -6 4 -6 -1 0c-5 5 -8 3 -9 -7c-3 -12 -7 -25 -14 -39c-7 -15 -6 -33 5 -56s15 -36 14 -41s-1 -9 2 -12
c3 -5 6 -10 9 -14c3 -5 5 -7 6 -6c1 2 -1 9 -5 21s-6 20 -5 23c1 1 2 -1 3 -6s4 -11 8 -17l14 -18c5 -7 8 -13 8 -18c0 -11 4 -25 29 -36l70 -27c5 -1 9 -2 11 -1c4 0 11 -8 15 -15c2 -4 4 -7 7 -9c5 -5 26 -17 32 -17c3 0 5 1 6 3s3 3 6 3c4 -1 17 -9 18 -13v-9
c0 -4 0 -7 -1 -9l-12 -19c-7 -11 -10 -22 -9 -32v-10c0 -4 5 -11 14 -21c9 -11 15 -19 18 -26s12 -15 27 -24c29 -23 4 -74 -11 -99c-11 -23 -10 -54 1 -61c-25 -5 -50 -7 -76 -7c-217 5 -379 167 -384 384c5 217 167 379 384 384z" />
    <glyph glyph-name="fa-group-o" unicode="&#xf11a;" 
d="M358 -80h564c-25 112 -108 212 -200 231c-25 8 -38 24 -38 48v34c0 19 8 33 24 42c59 35 98 110 98 190c0 115 -74 207 -166 207s-166 -92 -166 -207c0 -80 39 -155 98 -190c17 -9 25 -23 25 -42v-34c0 -24 -13 -40 -38 -48c-92 -19 -176 -119 -201 -231zM256 -128
c0 34 8 74 24 119c40 110 106 188 199 234c-67 60 -101 140 -101 240c0 165 118 303 262 303s262 -138 262 -303c0 -100 -34 -180 -101 -240c119 -56 223 -216 223 -353c0 -25 -21 -47 -48 -47h-672c-27 0 -48 20 -48 47zM0 -64c0 140 106 299 223 352
c-67 64 -100 144 -100 240c0 168 117 304 261 304c35 0 71 -9 108 -26c-35 -18 -64 -42 -89 -72c-7 1 -13 2 -19 2c-92 0 -166 -93 -166 -208c0 -80 39 -155 99 -190c16 -9 24 -22 24 -41v-35c0 -21 -15 -41 -38 -46c-92 -20 -173 -120 -201 -232h95c-9 -37 -15 -69 -17 -95
h-131c-27 0 -49 22 -49 47z" />
    <glyph glyph-name="fa-group" unicode="&#xf119;" 
d="M678 383c29 12 47 20 54 22v76c-10 3 -18 8 -24 14c-4 6 -6 17 -6 32v52c0 57 33 91 88 91s88 -34 88 -91v-52v-5v-5c0 -2 -1 -9 -2 -11s-1 -4 -2 -6s-2 -4 -4 -5c-2 -2 -2 -3 -4 -5c-4 -4 -10 -6 -17 -8v-77c35 -12 80 -34 134 -67l14 -9c18 -10 27 -23 27 -40v-51
c0 -4 -2 -6 -6 -6h-128c-6 26 -23 47 -49 61l-11 6c-54 31 -104 59 -152 84zM0 289c0 17 9 30 27 40l14 9c54 33 99 55 134 67v76c-20 7 -29 12 -29 46v52c0 57 33 91 88 91s88 -34 88 -91v-52v-19c-1 -7 -10 -22 -30 -26v-77c17 -5 35 -13 55 -23
c-59 -30 -113 -58 -160 -86l-4 -3c-27 -15 -43 -35 -49 -61h-128c-4 0 -6 2 -6 6v51zM175 198c0 31 7 43 30 57c101 57 169 93 205 109v110c-20 15 -30 36 -30 65v87c0 100 68 132 132 132c32 0 60 -6 87 -24s45 -57 45 -108v-87c0 -29 -10 -50 -30 -65v-110
c42 -18 110 -54 205 -109c23 -14 30 -26 30 -57v-73c0 -4 -4 -10 -8 -10h-658c-4 0 -8 6 -8 10v73z" />
    <glyph glyph-name="fa-heart-o" unicode="&#xf411;" 
d="M73 502c0 -63 36 -131 107 -202l332 -320l331 319c72 71 108 139 108 203c0 109 -48 173 -144 190c-25 3 -43 5 -56 5c-67 0 -152 -59 -211 -128c-7 -8 -16 -12 -28 -12s-21 4 -28 12c-20 23 -48 49 -83 77c-46 34 -89 51 -128 51c-99 0 -162 -38 -187 -113
c-9 -20 -13 -47 -13 -82zM0 502c0 168 102 268 273 268c83 0 171 -52 239 -124c83 83 162 124 239 124c171 0 273 -100 273 -268c0 -84 -44 -170 -131 -257l-356 -343c-7 -7 -15 -10 -25 -10s-18 3 -25 10l-357 344c-4 3 -9 8 -15 15c-65 65 -115 158 -115 241z" />
    <glyph glyph-name="fa-heart" unicode="&#xf410;" 
d="M0 499c0 168 102 268 273 268c83 0 171 -52 239 -124c83 83 162 124 239 124c171 0 273 -100 273 -268c0 -84 -44 -170 -131 -257l-356 -343c-7 -7 -15 -10 -25 -10s-18 3 -25 10l-357 344c-4 3 -9 8 -15 15c-65 65 -115 158 -115 241z" />
    <glyph glyph-name="fa-history" unicode="&#xf148;" horiz-adv-x="896" 
d="M384 63v192l-64 64l128 128l64 -64h128l64 -64l-64 -64h-128v-192l-65 -63zM448 767c253 -7 441 -195 448 -448c-7 -253 -195 -441 -448 -448c-253 7 -441 195 -448 448c0 84 24 160 64 227v-99h91c-17 -39 -26 -82 -27 -128c4 -181 139 -316 320 -320
c181 4 316 139 320 320c-4 181 -139 316 -320 320c-56 0 -107 -15 -152 -40l88 -88h-256v256l74 -74c71 47 155 74 246 74z" />
    <glyph glyph-name="fa-horizontal-rule" unicode="&#xf60d;" horiz-adv-x="640" 
d="M64 384v-128h-64v384h64v-192h128v192h64v-384h-64v128h-128zM640 256h-64v128h64v-128zM640 448h-64v128h64v-128zM448 448h128v-64h-128v-128h-64v384h192v-64h-128v-128zM0 0v128h640v-128h-640z" />
    <glyph glyph-name="fa-image" unicode="&#xf60e;" 
d="M256 384c-71 0 -128 57 -128 128s57 128 128 128s128 -57 128 -128s-57 -128 -128 -128zM64 704v-768h896v768h-896zM0 703c0 38 27 65 65 65h894c38 0 65 -27 65 -65v-766c0 -38 -27 -65 -65 -65h-894c-38 0 -65 27 -65 65v766zM128 192l128 96l192 -96l288 320
l160 -320v-192h-768v192z" />
    <glyph glyph-name="fa-indent-left" unicode="&#xf60a;" horiz-adv-x="896" 
d="M256 512v-384l-256 192zM0 -128v128h896v-128h-896zM384 128v128h512v-128h-512zM384 384v128h512v-128h-512zM0 640v128h896v-128h-896z" />
    <glyph glyph-name="fa-indent-right" unicode="&#xf60b;" horiz-adv-x="896" 
d="M0 512l256 -192l-256 -192v384zM0 -128v128h896v-128h-896zM384 128v128h512v-128h-512zM384 384v128h512v-128h-512zM0 640v128h896v-128h-896z" />
    <glyph glyph-name="fa-info-circle" unicode="&#xf30c;" 
d="M512 -64c212 0 384 172 384 384s-172 384 -384 384s-384 -172 -384 -384s172 -384 384 -384zM40 518c26 63 63 118 110 165c95 95 226 149 362 149s267 -54 363 -149c95 -96 149 -227 149 -363c0 -137 -54 -267 -149 -362c-100 -100 -221 -150 -363 -150
c-139 0 -269 54 -362 150c-96 93 -150 223 -150 362c0 71 13 137 40 198zM345 320c77 63 168 105 211 104c14 1 24 -7 29 -26c3 -20 1 -44 -8 -71l-43 -164c-4 -11 -5 -21 -3 -29c0 -5 3 -9 7 -8c2 -1 6 0 11 2c13 4 26 10 39 18l23 15l19 -23c-59 -61 -144 -106 -195 -109
c-19 1 -32 9 -37 22c-8 17 -7 46 3 87l38 153c0 3 1 9 4 17c1 1 1 5 1 11c0 4 -2 7 -5 8c-26 -5 -52 -17 -78 -35zM468 562c0 41 37 76 90 77c41 -1 62 -22 62 -61c0 -43 -39 -76 -86 -75c-41 -1 -66 19 -66 59z" />
    <glyph glyph-name="fa-info-round" unicode="&#xf305;" 
d="M361 292c26 18 52 30 78 35c3 -1 5 -4 5 -8c0 -6 0 -10 -1 -11c-3 -8 -4 -14 -4 -17l-38 -153c-10 -41 -11 -70 -3 -87c5 -13 18 -21 37 -22c51 3 136 48 195 109l-19 23l-23 -15c-13 -8 -26 -14 -39 -18c-5 -2 -9 -3 -11 -2c-4 -1 -7 3 -7 8c-2 8 -1 18 3 29l43 164
c9 27 11 51 8 71c-5 19 -15 27 -29 26c-43 1 -134 -41 -211 -104zM468 562c0 -40 25 -60 66 -59c47 -1 86 32 86 75c0 39 -21 60 -62 61c-53 -1 -90 -36 -90 -77zM40 518c26 63 63 118 110 165c95 95 226 149 362 149s267 -54 363 -149c95 -96 149 -227 149 -363
c0 -137 -54 -267 -149 -362c-100 -100 -221 -150 -363 -150c-139 0 -269 54 -362 150c-96 93 -150 223 -150 362c0 71 13 137 40 198z" />
    <glyph glyph-name="fa-issue-closed" unicode="&#xf554;" horiz-adv-x="960" 
d="M640 516l65 -67l159 159l96 -96l-256 -256l-160 164zM448 0c173 0 257 131 248 120l200 200c0 -247 -201 -448 -448 -448s-448 201 -448 448s201 448 448 448c124 0 236 -50 317 -131l-91 -91c-58 58 -138 94 -226 94c-177 0 -320 -143 -320 -320s143 -320 320 -320z
M512 576v-320h-128v320h128zM384 64v128h128v-128h-128z" />
    <glyph glyph-name="fa-issue-opened" unicode="&#xf552;" horiz-adv-x="896" 
d="M448 768c247 0 448 -201 448 -448s-201 -448 -448 -448s-448 201 -448 448s201 448 448 448zM448 0c177 0 320 143 320 320s-143 320 -320 320s-320 -143 -320 -320s143 -320 320 -320zM384 64v128h128v-128h-128zM384 256v320h128v-320h-128z" />
    <glyph glyph-name="fa-issue-reopened" unicode="&#xf553;" horiz-adv-x="896" 
d="M639 65l-63 63h192v-192l-38 38c-77 -63 -175 -102 -282 -102c-247 0 -448 201 -448 448c0 83 24 160 64 227v-99h91c-17 -39 -27 -82 -27 -128c0 -177 143 -320 320 -320c72 0 138 25 191 65zM384 64v128h128v-128h-128zM512 576v-320h-128v320h128zM896 320
c0 -84 -24 -161 -64 -228v100h-91c17 39 27 82 27 128c0 177 -143 320 -320 320c-72 0 -138 -25 -191 -65l63 -63h-192v192l38 -38c77 63 175 102 282 102c247 0 448 -201 448 -448z" />
    <glyph glyph-name="fa-jersey" unicode="&#xf15d;" horiz-adv-x="832" 
d="M321 384h-64v-256h64v256zM353 448l32 -32v-320l-32 -32h-128l-32 32v320l32 32h128zM577 384h-64v-256h64v256zM609 448l32 -32v-320l-32 -32h-128l-32 32v320l32 32h128zM705 -128v557c-33 60 -63 156 -64 339h-64c3 -100 -35 -189 -160 -192c-125 5 -163 92 -160 192
h-64c4 -192 -13 -320 -128 -384v-480c0 -21 15 -32 31 -32h609zM704 832c-5 -144 7 -368 128 -384v-576c-1 -33 -31 -63 -64 -64h-704c-33 1 -63 31 -64 64l1 576c121 16 133 240 128 384h192c0 -33 31 -63 95 -63s97 30 97 63h192h-1z" />
    <glyph glyph-name="fa-jump-down" unicode="&#xf391;" horiz-adv-x="768" 
d="M768 128v-128h-768v128h768zM768 640l-384 -384l-384 384h768z" />
    <glyph glyph-name="fa-jump-left" unicode="&#xf392;" horiz-adv-x="640" 
d="M0 704h128v-768h-128v768zM640 704v-768l-384 384z" />
    <glyph glyph-name="fa-jump-right" unicode="&#xf393;" horiz-adv-x="640" 
d="M512 704h128v-768h-128v768zM0 -64v768l384 -384z" />
    <glyph glyph-name="fa-jump-up" unicode="&#xf390;" horiz-adv-x="768" 
d="M768 640v-128h-768v128h768zM384 384l384 -384h-768z" />
    <glyph glyph-name="fa-key-alt" unicode="&#xf128;" horiz-adv-x="1025" 
d="M417 333l-312 -311l46 -46l311 312zM546 656c0 -11 3 -18 9 -22l272 -272c4 -6 11 -9 22 -9c9 0 17 3 23 9l45 45c6 6 9 14 9 23c0 11 -3 18 -9 22l-272 272c-4 6 -11 9 -22 9c-9 0 -17 -3 -23 -9l-45 -45c-6 -6 -9 -14 -9 -23zM192 -193h-192l32 224l357 357l-2 3
c-1 0 -1 1 -1 2s0 2 -1 2l-2 3l-1 1c0 1 0 2 -1 2l-70 141c-16 31 -7 70 24 93l277 184c34 21 67 17 98 -10l292 -292c27 -31 31 -64 10 -98l-184 -277c-23 -31 -62 -40 -93 -24l-141 70l-4 3c-1 0 -1 0 -2 1l-2 1c-3 1 -4 2 -5 3c-2 0 -4 1 -5 2v-71h-128v-128h-128v-128
h-128v-64z" />
    <glyph glyph-name="fa-key-tab" unicode="&#xf13e;" 
d="M320 -192l-256 256l256 256v-192h704v-128h-704v-192zM64 -192h-64v512h64v-512zM1024 320h-64v512h64v-512zM704 512h-704v128h704v192l256 -256l-256 -256v192z" />
    <glyph glyph-name="fa-key" unicode="&#xf127;" horiz-adv-x="897" 
d="M704 511c36 1 63 28 63 64s-27 63 -63 63s-63 -27 -63 -63s27 -63 63 -64zM384 383l-320 -320v-64l320 320v64zM641 767c145 -4 252 -111 256 -256c-4 -145 -111 -252 -256 -256c-20 0 -39 2 -58 7l-71 -71h-128v-64h-64v-64h-64v-64l-64 -64h-128l-64 64v64l391 391
c-4 19 -6 38 -6 57c4 145 111 252 256 256z" />
    <glyph glyph-name="fa-keyboard-alt" unicode="&#xf13d;" horiz-adv-x="1023" 
d="M909 148l-170 1v113l170 1v-115zM682 149l-455 -1v115l455 -1v-113zM170 148l-57 1v113l57 1v-115zM909 320l-113 -1v115l113 -1v-113zM739 319l-114 1v113l114 1v-115zM568 319l-114 1v113l114 1v-115zM397 319l-113 1v113l113 1v-115zM227 320l-114 -1v115l114 -1v-113
zM909 490l-170 1v113h170v-114zM682 490l-114 1v113h114v-114zM511 490l-114 1v113h114v-114zM340 490l-113 1v113h113v-114zM170 490l-57 1v113h57v-114zM57 665v-569h910v569h-910zM0 92v569c0 32 25 57 57 57h909c35 -3 57 -28 57 -57v-569c0 -32 -25 -56 -56 -56h-911
c-17 0 -29 4 -39 16c-12 10 -17 23 -17 40z" />
    <glyph glyph-name="fa-keyboard" unicode="&#xf13c;" horiz-adv-x="1023" 
d="M739 262v-113l170 -1v115zM227 263v-115l455 1v113zM113 262v-113l57 -1v115zM796 434v-115l113 1v113zM625 433v-113l114 -1v115zM454 433v-113l114 -1v115zM284 433v-113l113 -1v115zM113 434v-115l114 1v113zM739 604v-113l170 -1v114h-170zM568 604v-113l114 -1v114
h-114zM397 604v-113l114 -1v114h-114zM227 604v-113l113 -1v114h-113zM113 604v-113l57 -1v114h-57zM0 92v569c0 32 25 57 57 57h909c35 -3 57 -28 57 -57v-569c0 -32 -25 -56 -56 -56h-911c-17 0 -29 4 -39 16c-12 10 -17 23 -17 40z" />
    <glyph glyph-name="fa-law" unicode="&#xf156;" horiz-adv-x="958" 
d="M863 224l-96 180l-96 -180h192zM191 404l-96 -180h192zM945 224c8 0 14 -7 13 -15c-13 -65 -90 -112 -191 -112s-178 47 -191 112c-1 8 5 15 13 15h18l127 245c-40 5 -74 15 -102 28c-29 13 -58 20 -89 21v-486c36 -1 63 -28 64 -64h57c43 -1 71 -28 71 -64h-512
c1 36 28 63 57 64h71c1 36 28 63 64 64v486c-31 -1 -60 -8 -88 -21c-29 -13 -63 -23 -103 -28l127 -245h18c8 0 14 -7 13 -15c-13 -65 -90 -112 -191 -112s-178 47 -191 112c-1 8 5 15 13 15h18l127 246c-18 3 -35 8 -52 16c-24 13 -28 42 -11 62l1 1c12 11 28 14 43 8
s33 -13 53 -13c23 3 52 13 87 32s101 29 200 32c99 -3 165 -13 200 -32s64 -29 87 -32c19 0 38 6 54 13c15 7 31 3 42 -8l1 -1c9 -10 12 -21 10 -34c-4 -25 -36 -39 -73 -44l127 -246h18zM481 608c-37 0 -66 29 -66 66c1 35 27 61 62 62c39 0 66 -27 66 -66
c-1 -35 -27 -61 -62 -62z" />
    <glyph glyph-name="fa-light-bulb" unicode="&#xf15b;" horiz-adv-x="640" 
d="M448 384v64l-64 -64l-64 64l-64 -64l-64 64v-64l128 -128zM512 279c40 45 64 104 64 169c-4 145 -111 252 -256 256c-145 -4 -252 -111 -256 -256c0 -65 24 -124 64 -169c35 -29 63 -47 64 -124v-27h64v128l-128 128v64l64 64l64 -64l64 64l64 -64l64 64l64 -64v-64
l-128 -128v-128h64v27c1 77 29 95 64 124zM448 64h-256v-32c0 -19 13 -32 32 -32h192c19 0 32 13 32 32v32zM320 768c181 -4 316 -139 320 -320c-1 -105 -49 -197 -128 -256v-192c-1 -36 -28 -63 -64 -64c-1 -36 -28 -63 -64 -64h-128c-36 1 -63 28 -64 64
c-36 1 -63 28 -64 64v192c-79 59 -127 151 -128 256c4 181 139 316 320 320z" />
    <glyph glyph-name="fa-link-alt" unicode="&#xf613;" horiz-adv-x="960" 
d="M172 304l-123 122c-33 33 -49 73 -49 120s16 87 50 119l86 86c33 33 73 49 120 49c48 0 88 -16 120 -50l121 -122c32 -32 49 -72 49 -119c0 -48 -17 -90 -52 -123l52 -52c33 35 75 52 122 52s87 -17 120 -50l123 -122c33 -33 49 -73 49 -120s-16 -87 -50 -119l-86 -86
c-33 -33 -73 -49 -120 -49c-48 0 -88 16 -120 50l-121 122c-32 32 -49 72 -49 119c0 48 17 90 52 123l-52 52c-33 -35 -75 -52 -122 -52s-87 17 -120 50zM113 546c0 -16 5 -29 16 -40l123 -122c10 -11 24 -16 40 -16s30 6 42 18l-11 11c-12 12 -14 14 -21 24
c-8 10 -10 19 -10 31c0 31 25 56 56 56c12 0 21 -2 31 -9c10 -8 12 -10 25 -22c5 -6 9 -10 10 -11c13 12 20 26 20 43c0 16 -6 29 -17 40l-121 122c-11 11 -24 16 -40 16c-15 0 -29 -5 -40 -16l-87 -86c-11 -11 -16 -24 -16 -39zM526 131c0 -16 6 -29 17 -40l121 -122
c11 -10 24 -16 40 -16s29 6 40 16l87 86c11 11 16 24 16 39c0 16 -5 29 -16 40l-123 122c-11 12 -24 17 -40 17s-30 -7 -42 -19c1 -1 5 -5 11 -10c12 -13 14 -15 22 -25c7 -10 9 -19 9 -31c0 -31 -25 -56 -56 -56c-12 0 -21 2 -31 10c-10 7 -12 9 -24 21l-11 11
c-13 -12 -20 -26 -20 -43z" />
    <glyph glyph-name="fa-link-external" unicode="&#xf614;" horiz-adv-x="768" 
d="M640 64v192h128v-320h-768v768h256v-128l-128 -2v-510h512zM384 704h384v-384l-128 128l-192 -192l-128 128l192 192z" />
    <glyph glyph-name="fa-link" unicode="&#xf612;" 
d="M768 576c128 0 256 -128 256 -256s-128 -256 -256 -256h-193s-255 128 -255 256c0 22 3 43 8 64h137c-11 -19 -18 -41 -18 -64c0 -64 65 -128 128 -128h192c63 0 128 64 128 128s-63 128 -128 128h-30c-14 39 -59 96 -107 128h138zM287 192c14 -39 59 -96 107 -128h-138
c-128 0 -256 128 -256 256s128 256 256 256h193s255 -128 255 -256c0 -22 -3 -43 -8 -64h-137c11 19 18 41 18 64c0 64 -65 128 -128 128h-192c-63 0 -128 -64 -128 -128s63 -128 128 -128h30z" />
    <glyph glyph-name="fa-list-ordered" unicode="&#xf609;" horiz-adv-x="954" 
d="M477 320v0v0v0v0zM477 320v0v0v0v0v0v0v0v0v0zM477 320v0v0v0v0v0v0v0v0zM477 320v0v0v0v0v0v0v0v0v0v0v0v0v0v0v0v0zM477 320v0v0v0v0v0v0v0v0v0v0v0v0zM78 36l-73 14c6 23 18 39 35 52c17 12 41 18 73 18c36 0 62 -7 78 -20s24 -29 24 -50c0 -12 -3 -22 -10 -32
c-6 -10 -16 -18 -29 -26c10 -2 19 -6 24 -10c9 -5 17 -13 22 -22s7 -19 7 -32c0 -16 -4 -32 -12 -46c-9 -15 -21 -28 -37 -36c-15 -8 -36 -10 -62 -10c-25 0 -45 2 -59 8c-15 6 -27 15 -36 26c-10 12 -17 25 -22 42l77 10c3 -15 8 -26 14 -32s14 -8 24 -8s19 4 26 12
c7 7 10 17 10 30c0 12 -3 21 -10 28c-6 7 -15 12 -27 12c-6 0 -14 -3 -25 -6l4 56c5 0 8 -2 10 -2c10 0 19 4 26 10c6 6 10 15 10 24c0 8 -3 15 -8 20s-12 6 -21 6s-16 -2 -22 -8c-5 -5 -9 -15 -11 -28zM230 180h-230c3 23 11 44 24 64c14 20 39 45 75 72c23 17 37 30 44 38
c6 9 9 16 9 24s-3 16 -9 22c-7 6 -14 8 -24 8s-18 -2 -24 -8s-10 -17 -12 -32l-77 6c3 21 8 38 16 50s20 22 34 28c15 7 35 10 61 10c27 0 48 -4 63 -10s27 -15 36 -28c8 -12 12 -28 12 -44s-4 -32 -14 -48c-10 -15 -28 -32 -54 -50c-16 -11 -26 -17 -31 -22
c-5 -4 -11 -10 -18 -16h119v-64zM169 804v-280h-78v184c-12 -9 -24 -18 -36 -24s-27 -10 -44 -16v62c26 8 46 19 60 30c15 12 26 27 34 44h64zM314 -130v128h640v-128h-640zM314 126v128h640v-128h-640zM314 382v128h640v-128h-640zM314 638v128h640v-128h-640z" />
    <glyph glyph-name="fa-list-unordered" unicode="&#xf608;" horiz-adv-x="960" 
d="M480 320v0v0v0v0zM480 320v0v0v0v0v0v0v0v0v0zM480 320v0v0v0v0v0v0v0v0zM480 320v0v0v0v0v0v0v0v0v0v0v0v0v0v0v0v0zM480 320v0v0v0v0v0v0v0v0v0v0v0v0zM0 0h128v-128h-128v128zM0 256h128v-128h-128v128zM0 512h128v-128h-128v128zM0 768h128v-128h-128v128zM256 -128
v128h704v-128h-704zM256 128v128h704v-128h-704zM256 384v128h704v-128h-704zM256 640v128h704v-128h-704z" />
    <glyph glyph-name="fa-location" unicode="&#xf140;" horiz-adv-x="640" 
d="M320 384c73 1 127 55 128 128c-1 73 -55 127 -128 128c-73 -1 -127 -55 -128 -128c1 -73 55 -127 128 -128zM320 832c181 -4 316 -139 320 -320c-7 -177 -153 -416 -320 -704c-167 288 -313 527 -320 704c4 181 139 316 320 320z" />
    <glyph glyph-name="fa-lock" unicode="&#xf123;" horiz-adv-x="768" 
d="M512 576c-3 67 -61 125 -128 128c-67 -3 -125 -61 -128 -128v-192h256v192zM512 320h-448v-448h448v64h-384v64h384v64h-384v64h384v64h-384v64h384v64zM704 384c33 -1 63 -31 64 -64v-448c-1 -33 -31 -63 -64 -64h-640c-33 1 -63 31 -64 64v448c1 33 31 63 64 64h64v192
c5 133 123 251 256 256c133 -5 251 -123 256 -256v-192h20h44z" />
    <glyph glyph-name="fa-logo-gitplex" unicode="&#xf000;" horiz-adv-x="960" 
d="M512 128c-106 0 -192 86 -192 192s86 192 192 192s192 -86 192 -192s-86 -192 -192 -192zM832 191c0 38 -27 65 -65 65h-191v128h253c76 0 131 -55 131 -131v-314c0 -76 -55 -131 -131 -131h-698c-76 0 -131 55 -131 131v762c0 76 55 131 131 131h698
c76 0 131 -54 131 -128h-701c-76 0 -131 -55 -131 -131v-506c0 -76 55 -131 131 -131h573v255z" />
    <glyph glyph-name="fa-mail-alt" unicode="&#xf341;" horiz-adv-x="896" 
d="M896 576v-448l-316 224zM896 32h-896l352 256l96 -64l96 64zM0 128v448l316 -224zM0 640h896l-448 -296z" />
    <glyph glyph-name="fa-mail-archive" unicode="&#xf347;" horiz-adv-x="768" 
d="M704 416l64 -256v-256h-768v256l64 256h96l-64 -256h96l64 -128h256l64 128h96l-64 256h96zM608 544l-224 -288l-224 288h160v192h128v-192h160z" />
    <glyph glyph-name="fa-mail-forward" unicode="&#xf344;" horiz-adv-x="768" 
d="M384 469v192l384 -288l-384 -288v192c-123 4 -317 -65 -384 -280c8 292 188 451 384 472z" />
    <glyph glyph-name="fa-mail-inbox" unicode="&#xf345;" horiz-adv-x="768" 
d="M689 254l-49 320h-512l-49 -320h113l64 -128h256l64 128h113zM768 254v-256h-768v256l64 384h640z" />
    <glyph glyph-name="fa-mail-read" unicode="&#xf342;" horiz-adv-x="896" 
d="M832 386l-252 -192l252 -192v384zM768 -62l-254 206l-66 -50l-66 50l-254 -206h640zM64 2l252 192l-252 192v-384zM192 397l256 -211l256 211v245h-512v-245zM896 514v-640h-896v640l128 91v101h141l179 128l179 -128h141v-101zM384 514h-128v64h128v-64zM576 386h-320
v64h320v-64z" />
    <glyph glyph-name="fa-mail-reply" unicode="&#xf343;" horiz-adv-x="768" 
d="M384 469c196 -21 376 -180 384 -472c-67 215 -261 284 -384 280v-192l-384 288l384 288v-192z" />
    <glyph glyph-name="fa-mail" unicode="&#xf340;" horiz-adv-x="896" 
d="M832 512l-252 -192l252 -192v384zM768 64l-254 206l-66 -50l-66 50l-254 -206h640zM64 128l252 192l-252 192v-384zM128 576l320 -264l320 264h-640zM896 640v-640h-896v640h896z" />
    <glyph glyph-name="fa-markdown" unicode="&#xf141;" 
d="M928 320h-96v192h-128v-192h-96l159 -224zM576 512h-128l-96 -128l-96 128h-128v-384h128v192l96 -123l96 123v-192h128v384zM950 640c41 -1 73 -33 74 -74v-492c-1 -41 -33 -73 -74 -74h-876c-41 1 -73 33 -74 74v492c1 41 33 73 74 74h876z" />
    <glyph glyph-name="fa-megaphone" unicode="&#xf157;" 
d="M832 128c72 4 127 125 128 288c0 88 -17 165 -45 218c-188 -99 -146 -403 -118 -494c11 -7 23 -11 35 -12zM261 346c151 -9 253 -25 325 -44c-6 36 -9 74 -10 114c0 95 17 179 46 246c-67 -21 -166 -41 -319 -50c-29 -47 -47 -116 -47 -196c0 -25 2 -48 5 -70zM197 349
c-3 21 -5 44 -5 67c0 79 17 146 45 193c-34 -1 -70 -1 -109 -1c-36 -5 -63 -99 -64 -192c0 -23 2 -45 5 -64c46 -1 89 -2 128 -3zM832 800c109 -5 189 -167 192 -384c-3 -217 -83 -379 -192 -384c-43 2 -86 15 -128 40c-43 25 -122 47 -237 67l45 -203l-64 -96l-192 32
l-64 287l-64 1c-72 4 -127 111 -128 256c1 145 56 252 128 256c275 5 448 26 521 64c72 37 133 59 183 64z" />
    <glyph glyph-name="fa-mention" unicode="&#xf60c;" horiz-adv-x="832" 
d="M467 733c228 -28 390 -236 362 -464c-11 -88 -90 -150 -178 -139c-40 5 -75 25 -100 53c-42 -38 -101 -61 -158 -54c-105 13 -181 109 -168 214s109 181 214 168c37 -5 69 -19 95 -39c8 5 16 8 26 8c27 0 48 -21 48 -48v-126c0 -35 22 -81 64 -81c40 0 58 21 62 56
c22 175 -104 335 -279 357s-335 -104 -357 -279s104 -335 279 -357c55 -7 112 1 164 23v0c24 10 53 -1 63 -25s-1 -53 -25 -63v0c-68 -29 -143 -39 -214 -30c-228 28 -390 236 -362 464s236 390 464 362zM511 308c6 53 -30 101 -83 107s-101 -30 -107 -83s30 -101 83 -107
s101 30 107 83z" />
    <glyph glyph-name="fa-microscope" unicode="&#xf154;" horiz-adv-x="768" 
d="M512 128c1 -36 28 -63 64 -63s63 27 63 63s-27 63 -63 63s-63 -27 -64 -63zM640 -64l128 -128h-768l128 128h128v96l-33 14c-11 5 -22 11 -31 18h-192v64h384c3 109 83 189 192 192c-1 71 -40 127 -96 160l-96 -96l-64 -128h-128l-64 64v128l128 64l256 256h64l64 64
l64 -64l-64 -64v-64l-64 -64c79 -59 127 -151 128 -256c0 -16 -1 -32 -4 -47c41 -35 68 -86 68 -145c-1 -95 -63 -171 -151 -192h23z" />
    <glyph glyph-name="fa-milestone" unicode="&#xf14e;" horiz-adv-x="832" 
d="M320 320h128v-512h-128v512zM448 704h-128v128h128v-128zM448 576h-128v-128h128v128zM832 512l-128 -128h-704v256h704z" />
    <glyph glyph-name="fa-minus-circle" unicode="&#xf30b;" 
d="M512 -64c212 0 384 172 384 384s-172 384 -384 384s-384 -172 -384 -384s172 -384 384 -384zM40 518c26 63 63 118 110 165c95 95 226 149 362 149s267 -54 363 -149c95 -96 149 -227 149 -363c0 -137 -54 -267 -149 -362c-100 -100 -221 -150 -363 -150
c-139 0 -269 54 -362 150c-96 93 -150 223 -150 362c0 71 13 137 40 198zM256 384h512v-128h-512v128z" />
    <glyph glyph-name="fa-minus-round" unicode="&#xf304;" 
d="M768 256v128h-512v-128h512zM40 518c26 63 63 118 110 165c95 95 226 149 362 149s267 -54 363 -149c95 -96 149 -227 149 -363c0 -137 -54 -267 -149 -362c-100 -100 -221 -150 -363 -150c-139 0 -269 54 -362 150c-96 93 -150 223 -150 362c0 71 13 137 40 198z" />
    <glyph glyph-name="fa-minus-square-o" unicode="&#xf313;" horiz-adv-x="896" 
d="M704 256h-512v128h512v-128zM97 704c-19 0 -33 -14 -33 -33v-702c0 -19 14 -33 33 -33h702c19 0 33 14 33 33v702c0 19 -14 33 -33 33h-702zM0 703c0 38 27 65 65 65h766c38 0 65 -27 65 -65v-766c0 -38 -27 -65 -65 -65h-766c-38 0 -65 27 -65 65v766z" />
    <glyph glyph-name="fa-minus" unicode="&#xf41a;" horiz-adv-x="512" 
d="M0 256v128h512v-128h-512z" />
    <glyph glyph-name="fa-mortar-board" unicode="&#xf158;" horiz-adv-x="1022" 
d="M512 441c36 0 63 13 63 32s-27 32 -63 32s-63 -13 -63 -32s27 -32 63 -32zM1006 493c11 -5 16 -12 16 -21c0 -10 -5 -17 -16 -22l-489 -152c-4 -1 -8 -1 -13 0l-313 98v-93c9 -5 17 -13 23 -22c12 -20 11 -46 0 -65c6 -9 9 -20 9 -32v-165c-5 -17 -27 -26 -64 -26
s-59 9 -64 26v165c1 12 4 23 9 32c-6 9 -9 20 -9 32c0 24 13 44 32 55v113l-111 35c-11 5 -16 12 -16 22c0 9 5 16 16 21l489 152c5 1 9 1 13 0zM499 237c8 -2 16 -2 23 0l245 76v-160c-2 -32 -27 -56 -75 -72s-108 -24 -181 -24s-133 8 -181 24s-73 40 -75 72v160l245 -76
h-1z" />
    <glyph glyph-name="fa-move-left" unicode="&#xf394;" 
d="M1024 448v-256h-320v-192l-384 320l384 320v-192h320zM0 640h192v-640h-192v640z" />
    <glyph glyph-name="fa-move-right" unicode="&#xf395;" 
d="M0 192v256h320v192l384 -320l-384 -320v192h-320zM832 640h192v-640h-192v640z" />
    <glyph glyph-name="fa-no-newline" unicode="&#xf14c;" 
d="M224 192c72 1 127 56 128 128c0 19 -4 36 -12 52l-168 -168c16 -8 33 -12 52 -12zM96 320c0 -19 4 -36 12 -52l168 168c-16 8 -33 12 -52 12c-72 -1 -127 -56 -128 -128zM224 544c127 -3 221 -97 224 -224c-3 -127 -97 -221 -224 -224c-127 3 -221 97 -224 224
c3 127 97 221 224 224zM1024 512v-192c-3 -31 -13 -49 -32 -56s-29 -9 -32 -8h-192v-128l-192 192l192 192v-128h128v128h128z" />
    <glyph glyph-name="fa-notification-center" unicode="&#xf346;" horiz-adv-x="896" 
d="M704 384c-106 0 -192 86 -192 192s86 192 192 192s192 -86 192 -192s-86 -192 -192 -192zM640 256h128v-253c0 -76 -55 -131 -131 -131h-506c-76 0 -131 55 -131 131v506c0 76 55 131 131 131h253v-128h-191c-38 0 -65 -27 -65 -65v-382c0 -38 27 -65 65 -65h382
c38 0 65 27 65 65v191z" />
    <glyph glyph-name="fa-os-android" unicode="&#xf183;" horiz-adv-x="866" 
d="M716 489v-410c0 -37 -31 -68 -68 -68h-46v-140c0 -35 -28 -63 -63 -63s-64 28 -64 63v140h-84v-140c0 -35 -29 -63 -64 -63s-63 28 -63 63v140h-46c-37 0 -68 31 -68 68v410h566zM740 438c0 35 28 63 63 63s63 -28 63 -63v-265c0 -35 -28 -63 -63 -63s-63 28 -63 63v265z
M0 438c0 35 28 63 63 63c33 0 63 -28 63 -63v-265c0 -35 -28 -63 -63 -63s-63 28 -63 63v265zM546 621c5 -5 10 -7 17 -7c13 0 23 11 23 24s-10 24 -23 24s-24 -11 -24 -24c0 -7 2 -12 7 -17zM286 621c5 -5 10 -7 17 -7c13 0 24 11 24 24s-11 24 -24 24s-23 -11 -23 -24
c0 -7 2 -12 6 -17zM148 511c0 95 56 182 145 227l-43 81c-5 9 8 18 15 9l44 -82c42 17 83 26 124 26s82 -9 124 -26l44 82c7 9 20 0 15 -9l-43 -81c88 -45 144 -131 144 -227h-569z" />
    <glyph glyph-name="fa-os-apple" unicode="&#xf180;" horiz-adv-x="857" 
d="M0 277c0 187 103 319 244 319c33 0 69 -6 109 -19c43 -12 71 -18 85 -18c19 0 48 7 88 21c42 14 78 21 107 21c81 0 138 -31 195 -102c-80 -68 -111 -120 -111 -200c0 -96 63 -191 140 -215c-31 -96 -76 -172 -137 -227c-35 -31 -67 -47 -97 -47c-16 0 -45 7 -86 20
c-35 13 -66 19 -93 19c-22 0 -51 -7 -87 -20c-33 -14 -60 -21 -81 -21c-40 0 -82 25 -125 75c-88 99 -151 262 -151 394zM420 583c3 135 71 218 202 249l1 -3c1 -1 1 -2 1 -4l2 -13v-6c0 -56 -28 -121 -75 -168c-40 -40 -66 -50 -131 -55z" />
    <glyph glyph-name="fa-os-linux" unicode="&#xf181;" horiz-adv-x="869" 
d="M207 315c0 -6 4 -4 12 6c1 1 3 3 4 6c0 4 1 7 2 8s1 2 1 5v2l-2 2c-2 0 -4 -3 -6 -9c-1 -4 -4 -9 -9 -15zM556 526c-11 -11 10 -40 27 -43c3 -1 5 1 8 5c5 7 2 17 -9 20c-3 1 -8 3 -14 8l-4 4l-3 4c-1 1 -2 2 -2 3l-2 -1h-1zM358 587c0 5 4 8 11 9h6c-5 -1 -8 -3 -9 -6
c-2 -4 -4 -6 -5 -6c-2 0 -3 1 -3 3zM408 594c9 4 15 4 18 -1c1 -1 1 -2 1 -3c0 -5 -3 -4 -9 2c-3 3 -6 3 -10 2zM343 629c4 0 5 -3 4 -8c-1 -8 0 -12 5 -12c1 0 1 1 1 2c3 13 1 21 -8 26c-3 0 -5 -1 -5 -4zM475 635c6 -2 9 -8 10 -18c0 -1 2 0 5 2l1 1c0 9 -3 16 -9 19
c-1 1 -4 1 -7 1c-4 0 -5 -1 -2 -4zM179 236c-13 -26 -11 -58 6 -95c1 -5 6 -10 14 -16l12 -9l2 -2c5 -5 24 -23 59 -52c8 -7 18 -15 29 -24c3 -3 7 -6 11 -9c4 -4 7 -6 8 -7l6 -4c25 -31 -4 -58 -24 -59c1 -3 7 -11 16 -25c13 -19 20 -43 20 -72c17 9 19 27 4 53l-2 3
c-1 3 -3 5 -4 6c-2 2 -4 4 -5 7c-1 1 -2 2 -2 3c6 7 12 9 19 4c17 -21 49 -27 95 -20c51 5 84 21 101 49s26 21 25 -12c0 -12 -4 -30 -13 -53c-8 -19 -4 -29 11 -30l8 44c7 31 8 62 4 94c-8 47 -5 78 9 95c5 7 14 10 29 10c0 13 6 22 18 29c24 13 58 8 77 -5
c0 7 -10 15 -31 24l4 16c2 4 3 9 3 15c0 3 1 7 2 12c1 2 1 6 0 13c-1 1 -1 5 -1 11s0 10 -1 12c-2 6 -3 10 -3 12l-2 14l-4 15c-7 37 -41 87 -68 102c9 -7 20 -22 33 -47c33 -61 43 -114 31 -159c-4 -16 -14 -24 -29 -24c-11 -2 -19 2 -22 11c-3 5 -4 21 -4 47
c-1 35 -7 69 -18 101c-4 12 -11 25 -20 40l-7 8l-3 3c-1 1 -1 1 -2 1c-11 44 -22 74 -34 91c-21 24 -28 48 -19 73c9 24 1 38 -23 42c-5 1 -14 5 -25 10c-12 6 -19 9 -21 9c-3 1 -5 6 -6 15c-3 21 9 44 25 45c24 1 40 -27 32 -51c-3 -7 -3 -12 0 -15c6 -7 23 0 23 20
c0 42 -11 67 -33 76c-4 1 -9 3 -16 4c-40 -2 -57 -27 -50 -76c0 -6 0 -9 -1 -9c-7 7 -19 9 -35 6c-5 -1 -8 0 -10 3c1 20 -2 37 -8 50c-13 26 -38 26 -49 6c-15 -28 -16 -54 -1 -77c6 -11 12 -11 18 0c3 3 2 4 -1 4h-3c-5 0 -14 16 -14 28c-1 19 7 29 24 29
c12 0 21 -17 21 -34c0 -8 0 -12 -1 -13c-6 -5 -12 -10 -18 -16c-1 -5 -6 -9 -15 -14c-13 -7 -19 -15 -20 -22c-2 -5 -1 -9 4 -11c8 -5 16 -12 23 -21c5 -7 15 -11 31 -12c21 0 40 3 58 9c3 0 8 1 13 4c13 3 25 8 37 13c3 2 7 5 12 10c8 9 29 -4 4 -12c-9 -2 -28 -10 -59 -24
c-35 -15 -42 -16 -85 -12c-3 1 -5 1 -5 -1l2 -1c1 -2 3 -5 8 -10c23 -17 49 -17 79 0c4 1 11 4 20 10c15 9 26 14 31 16c8 4 13 2 14 -5c0 -2 -1 -4 -2 -5l-8 -6l-6 -2l-2 -1c-1 -1 -2 -2 -3 -2c-3 -1 -5 -2 -6 -3c-11 -5 -23 -13 -38 -25c-16 -12 -29 -20 -40 -25
c-10 -4 -19 -4 -27 0s-20 18 -36 42c-8 13 -13 17 -14 12v-5c0 -14 -8 -35 -25 -64c-17 -26 -19 -49 -6 -69c-17 -5 -56 -88 -63 -132c-1 -2 -1 -15 -1 -40c0 -20 -1 -31 -3 -34c-3 -9 -8 -10 -17 -1c-11 11 -18 29 -20 53c-1 8 0 19 2 32c2 7 2 11 0 11zM484 737
c1 -1 3 -1 4 0l3 3l2 1l2 2c2 2 5 4 8 5h5c7 0 12 2 14 5c0 1 0 1 -1 2v1l-3 2l-2 2l-6 4c-7 5 -12 8 -14 8c-7 0 -9 -4 -7 -11c2 -4 1 -8 -4 -13c-3 -3 -3 -6 -1 -11zM2 -113c-3 9 -2 22 4 39c9 19 11 37 8 53l-6 25c-8 32 3 43 36 44c28 2 48 11 59 27c5 7 7 16 7 29
c15 -48 -15 -73 -66 -69c-28 3 -34 -7 -22 -38c1 -5 3 -9 5 -11l7 -20c1 -1 1 -5 1 -12c0 -5 -3 -15 -10 -28c-13 -25 -11 -36 13 -43c1 -1 17 -4 49 -10c41 -9 74 -17 99 -24c83 -26 126 -17 129 28c1 21 -4 42 -16 63l-11 21c-49 75 -81 121 -97 138c-25 29 -46 36 -64 23
c-4 -4 -7 -1 -9 8c-3 20 -2 37 5 52c2 5 6 14 13 26c5 9 15 31 28 66c11 33 23 59 34 79c9 15 16 26 22 31c43 55 66 92 71 111c-4 43 -7 102 -9 177c-3 79 18 122 79 149c31 15 68 16 113 3c89 -27 127 -112 122 -179c-5 -91 26 -173 93 -246c21 -22 40 -53 57 -92
c37 -86 47 -150 30 -191c-3 -8 -7 -12 -11 -12c-3 -1 -13 -11 -29 -31c-27 -39 -84 -37 -103 4c-3 5 -5 9 -5 11c-19 28 -35 21 -40 -11c-3 -15 -1 -34 4 -55c8 -25 8 -62 1 -112c-4 -23 -1 -42 10 -56c20 -28 59 -24 90 0c45 37 54 43 111 63c21 6 35 13 44 21
c23 17 12 33 -33 49c-11 4 -21 13 -28 26c-11 29 -9 61 0 70c0 -37 12 -65 36 -82l13 -8l9 -6c16 -9 24 -18 24 -27c1 -8 -2 -16 -10 -25c-16 -17 -44 -30 -67 -41c-9 -3 -14 -6 -15 -7c-29 -14 -60 -37 -92 -69c-8 -6 -21 -9 -39 -10c-39 -2 -65 10 -77 35
c-4 9 -11 14 -22 16c-15 1 -37 2 -66 2h-26c-12 0 -34 -1 -66 -3c-33 0 -58 -8 -75 -25c-35 -31 -56 -30 -119 -6c-33 12 -61 20 -84 25c-2 1 -6 2 -13 3l-16 3c-31 5 -51 10 -59 13c-9 3 -16 8 -21 16z" />
    <glyph glyph-name="fa-os-windows" unicode="&#xf182;" 
d="M466 292h558v-484l-558 77v407zM0 292h420v-401l-420 58v343zM0 691l420 58v-406h-420v348zM466 755l558 77v-489h-558v412z" />
    <glyph glyph-name="fa-package" unicode="&#xf136;" horiz-adv-x="960" 
d="M897 585l-417 111l-128 -34l416 -111zM897 521l-129 -34v-156l-128 -34v156l-128 -35v-432l384 102zM480 474l160 43l-416 111l-160 -43zM448 -14v432l-384 103v-433zM960 617v-576l-480 -128l-480 128v576l480 128z" />
    <glyph glyph-name="fa-paintcan" unicode="&#xf153;" horiz-adv-x="768" 
d="M384 544c91 -1 166 -13 227 -37c60 -25 91 -55 93 -91c-4 181 -139 316 -320 320c-181 -4 -316 -139 -320 -320c3 36 34 66 94 91c60 24 135 36 226 37zM384 352c109 0 198 25 237 64c-39 39 -128 64 -237 64s-198 -25 -237 -64c39 -39 128 -64 237 -64zM576 160
c36 1 63 28 64 64v115c-59 -31 -151 -51 -256 -51s-197 20 -256 51v-115c1 -36 28 -63 64 -64v-64c1 -36 28 -63 64 -63s63 27 64 63v32c0 19 13 32 32 32s32 -13 32 -32v-128c0 -19 13 -32 32 -32s32 13 32 32v160c0 19 13 32 32 32s32 -13 32 -32v-32c0 -19 13 -32 32 -32
s32 13 32 32v32zM384 800c217 -5 379 -167 384 -384v-64c-1 -36 -28 -63 -64 -64v-320c-2 -36 -33 -66 -93 -90c-61 -25 -136 -37 -227 -38c-91 1 -166 13 -226 38c-61 24 -92 54 -94 90v320c-36 1 -63 28 -64 64v64c5 217 167 379 384 384z" />
    <glyph glyph-name="fa-pause-circle" unicode="&#xf386;" 
d="M512 -64c212 0 384 172 384 384s-172 384 -384 384s-384 -172 -384 -384s172 -384 384 -384zM40 518c26 63 63 118 110 165c95 95 226 149 362 149s267 -54 363 -149c95 -96 149 -227 149 -363c0 -137 -54 -267 -149 -362c-100 -100 -221 -150 -363 -150
c-139 0 -269 54 -362 150c-96 93 -150 223 -150 362c0 71 13 137 40 198zM576 512h128v-384h-128v384zM320 512h128v-384h-128v384z" />
    <glyph glyph-name="fa-pencil" unicode="&#xf41b;" horiz-adv-x="896" 
d="M192 0h-64v64h-64v-128h128v64zM512 576l192 -192l-512 -512h-191l-1 192zM896 576l-128 -128l-192 192l128 128z" />
    <glyph glyph-name="fa-pin" unicode="&#xf427;" horiz-adv-x="520" 
d="M196 128c20 -2 43 -3 64 -3s44 1 64 3l-64 -320zM450 427c39 -20 70 -55 70 -88c0 -75 -101 -148 -260 -148s-260 74 -260 148c0 34 32 69 70 88c33 17 62 59 62 85v64c0 22 -12 39 -23 52c-15 13 -24 29 -24 45c0 53 61 95 175 95s175 -42 175 -95c0 -16 -9 -32 -24 -45
c-11 -13 -23 -30 -23 -52v-64c0 -26 29 -68 62 -85z" />
    <glyph glyph-name="fa-play-circle" unicode="&#xf384;" 
d="M512 -64c212 0 384 172 384 384s-172 384 -384 384s-384 -172 -384 -384s172 -384 384 -384zM40 518c26 63 63 118 110 165c95 95 226 149 362 149s267 -54 363 -149c95 -96 149 -227 149 -363c0 -137 -54 -267 -149 -362c-100 -100 -221 -150 -363 -150
c-139 0 -269 54 -362 150c-96 93 -150 223 -150 362c0 71 13 137 40 198zM384 544l384 -224l-384 -224v448z" />
    <glyph glyph-name="fa-playback-fast-forward" unicode="&#xf382;" horiz-adv-x="768" 
d="M0 64v512l384 -256zM768 320l-384 -256v256v256z" />
    <glyph glyph-name="fa-playback-pause" unicode="&#xf381;" horiz-adv-x="512" 
d="M0 0v640h192v-640h-192zM320 640h192v-640h-192v640z" />
    <glyph glyph-name="fa-playback-play" unicode="&#xf380;" horiz-adv-x="512" 
d="M0 -0v640l512 -320z" />
    <glyph glyph-name="fa-playback-rewind" unicode="&#xf383;" horiz-adv-x="768" 
d="M384 320l384 256v-512zM0 320l384 256v-256v-256z" />
    <glyph glyph-name="fa-plug" unicode="&#xf132;" 
d="M192 130l128 -127l-192 -193l-128 129zM209 357c23 83 70 165 141 247l444 -443c-61 -51 -119 -90 -175 -117c-111 -59 -252 -50 -344 41v1c-75 73 -97 163 -66 271zM873 172l-512 511l87 88l115 -116l178 180l91 -91l-179 -178l102 -102l178 179l91 -90l-179 -179
l115 -116z" />
    <glyph glyph-name="fa-plus-circle" unicode="&#xf30a;" 
d="M512 -64c212 0 384 172 384 384s-172 384 -384 384s-384 -172 -384 -384s172 -384 384 -384zM40 518c26 63 63 118 110 165c95 95 226 149 362 149s267 -54 363 -149c95 -96 149 -227 149 -363c0 -137 -54 -267 -149 -362c-100 -100 -221 -150 -363 -150
c-139 0 -269 54 -362 150c-96 93 -150 223 -150 362c0 71 13 137 40 198zM256 384h192v192h128v-192h192v-128h-192v-192h-128v192h-192v128z" />
    <glyph glyph-name="fa-plus-round" unicode="&#xf303;" 
d="M448 256v-192h128v192h192v128h-192v192h-128v-192h-192v-128h192zM40 518c26 63 63 118 110 165c95 95 226 149 362 149s267 -54 363 -149c95 -96 149 -227 149 -363c0 -137 -54 -267 -149 -362c-100 -100 -221 -150 -363 -150c-139 0 -269 54 -362 150
c-96 93 -150 223 -150 362c0 71 13 137 40 198z" />
    <glyph glyph-name="fa-plus-square-o" unicode="&#xf312;" horiz-adv-x="896" 
d="M512 256v-192h-128v192h-192v128h192v192h128v-192h192v-128h-192zM97 704c-19 0 -33 -14 -33 -33v-702c0 -19 14 -33 33 -33h702c19 0 33 14 33 33v702c0 19 -14 33 -33 33h-702zM0 703c0 38 27 65 65 65h766c38 0 65 -27 65 -65v-766c0 -38 -27 -65 -65 -65h-766
c-38 0 -65 27 -65 65v766z" />
    <glyph glyph-name="fa-plus" unicode="&#xf418;" horiz-adv-x="640" 
d="M640 384v-128h-256v-256h-128v256h-256v128h256v256h128v-256h256z" />
    <glyph glyph-name="fa-podium" unicode="&#xf15c;" horiz-adv-x="768" 
d="M672 480l-128 128h-224v-64h-64v64h-32l-128 -128h576zM384 -32l1 320h-118l53 -320h64zM352 800c17 -1 32 -16 32 -32s-13 -31 -32 -32h-32v-64h256l192 -192v-128h-192l-64 -384l128 -64v-64h-512v64l128 64l-64 384h-192v128l192 192h64v64c1 33 31 63 64 64h32z" />
    <glyph glyph-name="fa-primitive-dot" unicode="&#xf650;" horiz-adv-x="512" 
d="M0 320c0 142 114 256 256 256c141 0 256 -114 256 -256s-115 -256 -256 -256s-256 114 -256 256z" />
    <glyph glyph-name="fa-primitive-square" unicode="&#xf651;" horiz-adv-x="512" 
d="M512 64h-512v512h512v-512z" />
    <glyph glyph-name="fa-pull-request-accept" unicode="&#xf52a;" 
d="M896 416v-288c32 0 64 -32 64 -64v-128c0 -32 -32 -64 -64 -64h-128c-32 0 -64 32 -64 64v128c0 32 32 64 64 64v160zM768 -31c0 -19 14 -33 33 -33h62c19 0 33 14 33 33v62c0 19 -14 33 -33 33h-62c-19 0 -33 -14 -33 -33v-62zM64 -31c0 -19 14 -33 33 -33h62
c19 0 33 14 33 33v62c0 19 -14 33 -33 33h-62c-19 0 -33 -14 -33 -33v-62zM64 609c0 -19 14 -33 33 -33h62c19 0 33 14 33 33v62c0 19 -14 33 -33 33h-62c-19 0 -33 -14 -33 -33v-62zM0 63c0 37 27 65 64 65v384c-37 0 -64 28 -64 65v126c0 39 26 65 65 65h126
c39 0 65 -26 65 -65v-126c0 -37 -27 -65 -64 -65v-384c37 0 64 -28 64 -65v-126c0 -39 -26 -65 -65 -65h-126c-39 0 -65 26 -65 65v126zM1024 640l-512 -512l-256 256l128 128l128 -128l384 384z" />
    <glyph glyph-name="fa-pull-request-add" unicode="&#xf528;" 
d="M831 -48c19 0 33 14 33 33v62c0 19 -14 33 -33 33h-62c-19 0 -33 -14 -33 -33v-62c0 -19 14 -33 33 -33h62zM864 272v-128c37 0 64 -27 64 -65v-126c0 -38 -27 -65 -65 -65h-126c-38 0 -65 27 -65 65v126c0 38 27 65 64 65v128h128zM64 625c0 -19 14 -33 33 -33h62
c19 0 33 14 33 33v62c0 19 -14 33 -33 33h-62c-19 0 -33 -14 -33 -33v-62zM0 719c0 39 26 65 65 65h126c39 0 65 -26 65 -65v-126c0 -37 -27 -65 -64 -65v-448h160v128l256 -192l-256 -192v128h-223c-39 0 -65 26 -65 65v511c-37 0 -64 28 -64 65v126zM736 528h-160v128h160
v160h128v-160h160v-128h-160v-160h-128v160z" />
    <glyph glyph-name="fa-pull-request-close" unicode="&#xf52b;" 
d="M384 384h256v128l192 -192l-192 -192v128h-256v-128l-192 192l192 192v-128zM832 -31c0 -19 14 -33 33 -33h62c19 0 33 14 33 33v62c0 19 -14 33 -33 33h-62c-19 0 -33 -14 -33 -33v-62zM832 609c0 -19 14 -33 33 -33h62c19 0 33 14 33 33v62c0 19 -14 33 -33 33h-62
c-19 0 -33 -14 -33 -33v-62zM768 63c0 37 27 65 64 65v384c-37 0 -64 28 -64 65v126c0 39 26 65 65 65h126c39 0 65 -26 65 -65v-126c0 -37 -27 -65 -64 -65v-384c37 0 64 -28 64 -65v-126c0 -39 -26 -65 -65 -65h-126c-39 0 -65 26 -65 65v126zM64 -31c0 -19 14 -33 33 -33
h62c19 0 33 14 33 33v62c0 19 -14 33 -33 33h-62c-19 0 -33 -14 -33 -33v-62zM64 609c0 -19 14 -33 33 -33h62c19 0 33 14 33 33v62c0 19 -14 33 -33 33h-62c-19 0 -33 -14 -33 -33v-62zM0 63c0 37 27 65 64 65v384c-37 0 -64 28 -64 65v126c0 39 26 65 65 65h126
c39 0 65 -26 65 -65v-126c0 -37 -27 -65 -64 -65v-384c37 0 64 -28 64 -65v-126c0 -39 -26 -65 -65 -65h-126c-39 0 -65 26 -65 65v126z" />
    <glyph glyph-name="fa-pull-request-reject" unicode="&#xf529;" 
d="M864 -64v128h-128v-128h128zM736 128v192l64 64l64 -64v-192h64v-256h-256v256h64zM64 609c0 -19 14 -33 33 -33h62c19 0 33 14 33 33v62c0 19 -14 33 -33 33h-62c-19 0 -33 -14 -33 -33v-62zM0 703c0 39 26 65 65 65h126c39 0 65 -26 65 -65v-126c0 -37 -27 -65 -64 -65
v-448h160v128l256 -192l-256 -192v128h-223c-39 0 -65 26 -65 65v511c-37 0 -64 28 -64 65v126zM672 384l-96 96l128 128l-128 128l96 96l128 -128l128 128l96 -96l-128 -128l128 -128l-96 -96l-128 128z" />
    <glyph glyph-name="fa-pulse" unicode="&#xf142;" horiz-adv-x="896" 
d="M896 294v-128h-218l-102 96l-230 -326l-58 345l-58 -115h-230v128h152l200 410l70 -442l141 198l173 -166h160z" />
    <glyph glyph-name="fa-pushpin-o" unicode="&#xf429;" horiz-adv-x="886" 
d="M583 274c35 71 101 130 196 175l-205 211c-46 -97 -105 -164 -176 -200l-13 -6c-80 -38 -174 -57 -281 -57l416 -416c0 112 21 210 63 293zM856 524c20 -20 30 -44 30 -73s-10 -54 -30 -75c-11 -11 -23 -19 -36 -24c-140 -67 -195 -176 -195 -371c0 -30 -10 -55 -29 -74
c-39 -39 -111 -40 -150 0l-167 169l-279 -199l199 279l-169 168c-28 24 -38 69 -22 113c18 43 50 65 96 65c96 0 178 17 246 50l11 7c45 25 85 72 118 141c5 14 12 25 21 34c40 40 108 38 148 -2z" />
    <glyph glyph-name="fa-pushpin" unicode="&#xf428;" horiz-adv-x="834" 
d="M573 7c0 -31 -23 -53 -51 -53c-15 0 -27 5 -38 16l-169 169l-315 -236l236 315l-168 169c-16 15 -20 34 -12 56c9 21 25 32 48 32c215 0 342 64 421 228c12 33 54 46 86 19l208 -209c27 -32 15 -74 -18 -86c-165 -83 -228 -205 -228 -420z" />
    <glyph glyph-name="fa-puzzle" unicode="&#xf131;" 
d="M0 503c1 -1 5 -2 11 -2l21 -3c7 -1 10 -2 11 -2l2 -1c61 -10 111 -15 151 -15c59 0 100 33 100 77c0 15 -10 36 -30 64c-20 25 -30 55 -30 90c0 64 53 107 125 107c69 0 116 -41 116 -104c0 -33 -11 -60 -34 -83c-23 -25 -34 -51 -34 -79c0 -44 33 -68 89 -68
c26 0 63 3 111 9c37 6 71 10 100 11v-1l-2 -11c0 -3 0 -5 -1 -6c-1 -9 -2 -14 -2 -15l-2 -13c-10 -62 -15 -112 -15 -151c0 -59 33 -100 76 -100c18 0 39 10 64 30c27 19 58 29 91 29c64 0 106 -51 106 -124c0 -69 -40 -116 -103 -116c-33 0 -61 11 -84 34
c-25 23 -51 34 -79 34c-45 0 -68 -25 -68 -76c0 -16 3 -40 10 -71c7 -26 10 -50 10 -71v-3c-13 0 -20 0 -21 -1c-14 -1 -34 -3 -59 -6c-53 -8 -97 -12 -132 -12c-56 0 -89 24 -89 68c0 29 11 55 34 78c23 25 34 53 34 84c0 63 -47 104 -116 104c-72 0 -125 -43 -125 -107
c0 -35 10 -65 30 -90c20 -28 30 -49 30 -64c0 -44 -41 -77 -100 -77c-39 0 -90 5 -151 15l-17 3c-2 0 -8 1 -17 2l-8 1c-1 0 -2 0 -3 1v631z" />
    <glyph glyph-name="fa-question-circle" unicode="&#xf309;" 
d="M512 -64c212 0 384 172 384 384s-172 384 -384 384s-384 -172 -384 -384s172 -384 384 -384zM40 518c26 63 63 118 110 165c95 95 226 149 362 149s267 -54 363 -149c95 -96 149 -227 149 -363c0 -137 -54 -267 -149 -362c-100 -100 -221 -150 -363 -150
c-139 0 -269 54 -362 150c-96 93 -150 223 -150 362c0 71 13 137 40 198zM435 106c0 37 32 67 68 66l3 1c43 -3 68 -31 68 -72c-3 -39 -33 -66 -70 -65l-2 -1c-46 7 -68 30 -67 71zM327 428v4c1 67 25 117 74 150c35 19 71 28 106 27c51 1 97 -12 138 -39
c40 -36 55 -67 55 -119c0 -30 -9 -57 -27 -80v-1c-5 -5 -8 -9 -9 -10c-4 -5 -8 -9 -13 -12l-16 -13l-18 -15l-29 -21c-16 -9 -26 -21 -29 -34l-2 -6c-1 -7 -2 -11 -2 -12v-12l-1 -4l-109 -1v10c0 8 1 17 2 26c0 14 2 27 7 39c2 5 5 10 9 14c7 8 24 22 50 43c6 5 13 11 22 16
l10 7l2 1c3 4 6 6 7 6l2 2l4 4l1 2l4 4l7 12c4 6 7 13 8 20c1 1 1 4 1 10c0 11 -1 19 -4 24c0 1 0 2 -1 3l-3 9c-6 9 -11 16 -16 20c-12 6 -21 9 -27 10c-10 0 -16 0 -18 1c-29 -3 -48 -12 -55 -26c-11 -17 -17 -35 -17 -54v-6z" />
    <glyph glyph-name="fa-question-round" unicode="&#xf302;" 
d="M435 106c-1 -41 21 -64 67 -71l2 1c37 -1 67 26 70 65c0 41 -25 69 -68 72l-3 -1c-36 1 -68 -29 -68 -66zM440 427v6c0 19 6 37 17 54c7 14 26 23 55 26c2 -1 8 -1 18 -1c6 -1 15 -4 27 -10c5 -4 10 -11 16 -20l3 -9c1 -1 1 -2 1 -3c3 -5 4 -13 4 -24c0 -6 0 -9 -1 -10
c-1 -7 -4 -14 -8 -20l-7 -12l-4 -4l-1 -2l-4 -4l-2 -2l-2 -1c0 -1 0 -1 -1 -1l-4 -4l-2 -1l-10 -7c-9 -5 -16 -11 -22 -16c-26 -21 -43 -35 -50 -43c-4 -4 -7 -9 -9 -14c-5 -12 -7 -25 -7 -39c-1 -9 -2 -18 -2 -26v-10l109 1l1 4v12c0 1 1 5 2 12l2 6c3 13 13 25 29 34
l29 21l18 15l16 13c5 3 9 7 13 12c1 1 4 5 9 10v1c18 23 27 50 27 80c0 52 -15 83 -55 119c-41 27 -87 40 -138 39c-35 1 -71 -8 -106 -27c-49 -33 -73 -83 -74 -150v-4zM40 518c26 63 63 118 110 165c95 95 226 149 362 149s267 -54 363 -149c95 -96 149 -227 149 -363
c0 -137 -54 -267 -149 -362c-100 -100 -221 -150 -363 -150c-139 0 -269 54 -362 150c-96 93 -150 223 -150 362c0 71 13 137 40 198z" />
    <glyph glyph-name="fa-quote" unicode="&#xf60f;" horiz-adv-x="640" 
d="M0 320c0 256 256 256 256 256v-128c-128 0 -128 -128 -128 -128h128v-256h-256v256zM640 448c-128 0 -128 -128 -128 -128h128v-256h-256v256c0 256 256 256 256 256v-128z" />
    <glyph glyph-name="fa-radio-checked" unicode="&#xf658;" horiz-adv-x="896" 
d="M448 160c-88 0 -160 72 -160 160s72 160 160 160s160 -72 160 -160s-72 -160 -160 -160zM448 0c177 0 320 143 320 320s-143 320 -320 320s-320 -143 -320 -320s143 -320 320 -320zM448 -128c-247 0 -448 201 -448 448s201 448 448 448s448 -201 448 -448
s-201 -448 -448 -448z" />
    <glyph glyph-name="fa-radio-unchecked" unicode="&#xf657;" horiz-adv-x="896" 
d="M448 0c177 0 320 143 320 320s-143 320 -320 320s-320 -143 -320 -320s143 -320 320 -320zM448 -128c-247 0 -448 201 -448 448s201 448 448 448s448 -201 448 -448s-201 -448 -448 -448z" />
    <glyph glyph-name="fa-redo" unicode="&#xf432;" horiz-adv-x="896" 
d="M740 651l156 117v-448l-434 120l168 136c-53 39 -111 64 -182 64c-177 0 -320 -143 -320 -320s143 -320 320 -320c119 0 213 65 278 160l110 -64c-77 -134 -222 -224 -388 -224c-247 0 -448 201 -448 448s201 448 448 448c104 0 216 -37 292 -117z" />
    <glyph glyph-name="fa-repo-add" unicode="&#xf511;" horiz-adv-x="896" 
d="M640 -32h-448v64h448v-64zM256 160h-64v64h64v-64zM256 288h-64v64h64v-64zM256 416h-64v64h64v-64zM256 544h-64v64h64v-64zM640 544h-128v128h128v128h128v-128h128v-128h-128v-128h-128v128zM0 -95v830c0 39 26 65 65 65h383v-64h-255c-39 0 -65 -26 -65 -65v-702
c0 -39 26 -65 65 -65h510c39 0 65 26 65 65v319h64v-383c0 -39 -26 -65 -65 -65h-702c-39 0 -65 26 -65 65z" />
    </font>
</defs>
</svg>
