<?xml version="1.0" encoding="UTF-8" standalone="no"?>
<svg
   xmlns:dc="http://purl.org/dc/elements/1.1/"
   xmlns:cc="http://creativecommons.org/ns#"
   xmlns:rdf="http://www.w3.org/1999/02/22-rdf-syntax-ns#"
   xmlns:svg="http://www.w3.org/2000/svg"
   xmlns="http://www.w3.org/2000/svg"
   xmlns:sodipodi="http://sodipodi.sourceforge.net/DTD/sodipodi-0.dtd"
   xmlns:inkscape="http://www.inkscape.org/namespaces/inkscape"
   inkscape:version="1.0 (4035a4f, 2020-05-01)"
   sodipodi:docname="add-to-git.svg"
   id="svg839"
   height="200"
   width="200"
   p-id="20805"
   version="1.1"
   viewBox="0 0 1024 1024"
   class="icon"
   t="1655854321124">
  <metadata
     id="metadata843">
    <rdf:RDF>
      <cc:Work
         rdf:about="">
        <dc:format>image/svg+xml</dc:format>
        <dc:type
           rdf:resource="http://purl.org/dc/dcmitype/StillImage" />
      </cc:Work>
    </rdf:RDF>
  </metadata>
  <sodipodi:namedview
     inkscape:current-layer="svg839"
     inkscape:window-maximized="1"
     inkscape:window-y="25"
     inkscape:window-x="58"
     inkscape:cy="100"
     inkscape:cx="100"
     inkscape:zoom="3.34"
     showgrid="false"
     id="namedview841"
     inkscape:window-height="1027"
     inkscape:window-width="1862"
     inkscape:pageshadow="2"
     inkscape:pageopacity="0"
     guidetolerance="10"
     gridtolerance="10"
     objecttolerance="10"
     borderopacity="1"
     bordercolor="#666666"
     pagecolor="#ffffff"
     inkscape:document-rotation="0" />
  <defs
     id="defs835">
    <style
       id="style833"
       type="text/css">@font-face { font-family: feedback-iconfont; src: url(&quot;//at.alicdn.com/t/font_1031158_u69w8yhxdu.woff2?t=1630033759944&quot;) format(&quot;woff2&quot;), url(&quot;//at.alicdn.com/t/font_1031158_u69w8yhxdu.woff?t=1630033759944&quot;) format(&quot;woff&quot;), url(&quot;//at.alicdn.com/t/font_1031158_u69w8yhxdu.ttf?t=1630033759944&quot;) format(&quot;truetype&quot;); }
</style>
  </defs>
  <path
     style="stroke-width:1.0422"
     id="path837"
     p-id="20806"
     d="m 785.37325,704.64113 v -86.79559 h 45.56221 V 183.86757 H 238.62674 v 435.49688 a 160.8346,153.19422 0 0 1 22.7811,-1.51891 h 68.34332 v 86.79559 h -68.34332 a 68.343315,65.096698 0 0 0 0,130.19339 h 159.46774 v 86.79559 H 261.40784 A 159.46773,151.89229 0 0 1 101.94012,769.73783 V 227.26538 A 136.68662,130.1934 0 0 1 238.62674,97.071982 h 637.87092 a 45.562209,43.397796 0 0 1 45.56222,43.397798 v 737.76254 a 45.562209,43.397796 0 0 1 -45.56222,43.39779 H 694.24883 V 834.83452 H 830.93546 V 704.64113 Z M 284.18895,227.26538 h 91.12443 v 86.7956 h -91.12443 z m 0,130.19338 h 91.12443 v 86.79557 H 284.18895 Z M 603.12442,748.03894 V 1008.4257 H 512.00001 V 748.03894 H 375.31338 L 557.5622,531.04995 739.81104,748.03894 Z" />
</svg>
