<?xml version="1.0" standalone="no"?><!DOCTYPE svg PUBLIC "-//W3C//DTD SVG 1.1//EN" "http://www.w3.org/Graphics/SVG/1.1/DTD/svg11.dtd"><svg t="1707701972917" class="icon" viewBox="0 0 1024 1024" version="1.1" xmlns="http://www.w3.org/2000/svg" p-id="5225" xmlns:xlink="http://www.w3.org/1999/xlink" width="200" height="200"><path d="M291.446154 708.923077a31.507692 31.507692 0 0 1 31.507692-31.507692h378.092308a31.507692 31.507692 0 1 1 0 63.015384H322.953846a31.507692 31.507692 0 0 1-31.507692-31.507692z" p-id="5226"></path><path d="M512 929.476923a31.507692 31.507692 0 0 1-31.507692-31.507692V519.876923a31.507692 31.507692 0 1 1 63.015384 0v378.092308a31.507692 31.507692 0 0 1-31.507692 31.507692zM118.153846 189.046154a94.523077 94.523077 0 0 1 94.523077-94.523077h598.646154a94.523077 94.523077 0 0 1 94.523077 94.523077v126.030769a94.523077 94.523077 0 0 1-94.523077 94.523077H212.676923a94.523077 94.523077 0 0 1-94.523077-94.523077v-126.030769z m94.523077-31.507692a31.507692 31.507692 0 0 0-31.507692 31.507692v126.030769a31.507692 31.507692 0 0 0 31.507692 31.507692h598.646154a31.507692 31.507692 0 0 0 31.507692-31.507692v-126.030769a31.507692 31.507692 0 0 0-31.507692-31.507692H212.676923z" p-id="5227"></path></svg>