<?xml version="1.0" standalone="no"?><!DOCTYPE svg PUBLIC "-//W3C//DTD SVG 1.1//EN" "http://www.w3.org/Graphics/SVG/1.1/DTD/svg11.dtd"><svg t="1763890408372" class="icon" viewBox="0 0 1024 1024" version="1.1" xmlns="http://www.w3.org/2000/svg" p-id="6809" xmlns:xlink="http://www.w3.org/1999/xlink" width="200" height="200"><path d="M619.776 543.936a39.552 39.552 0 0 1 21.696 21.888l144.96 362.752a34.88 34.88 0 1 1-64.832 25.92l-40.704-101.76H525.632l-41.856 102.08a34.88 34.88 0 0 1-44.8 19.328l-0.768-0.32a34.88 34.88 0 0 1-19.008-45.568l148.928-362.752a39.552 39.552 0 0 1 51.648-21.568z m229.76-3.2c19.2 0 34.88 15.616 34.816 34.88l-0.576 364.48a34.88 34.88 0 0 1-69.76-0.128l0.512-364.416c0-19.264 15.68-34.88 35.008-34.88zM378.496 55.424L459.2 121.6c21.12-3.968 38.272-6.016 52.096-6.144h1.152c13.76 0 31.36 1.92 53.12 5.824l66.368-63.36A39.552 39.552 0 0 1 678.4 51.584l0.768 0.448 114.56 66.496a39.552 39.552 0 0 1 19.392 38.784L800 269.952c9.984 13.76 17.344 25.088 22.528 34.432l0.512 0.96c4.928 9.216 9.984 20.736 15.104 34.752l113.088 53.248c12.288 5.76 20.16 18.048 20.16 31.616V492.8a34.88 34.88 0 0 1-69.824 0v-45.632l-106.048-49.472-13.504-6.4-4.8-14.08a269.632 269.632 0 0 0-15.68-38.72 338.88 338.88 0 0 0-25.664-37.952l-8.448-11.136 1.664-13.888 12.48-106.496-77.632-45.12-62.464 60.224-13.248 12.8-17.92-3.712c-26.432-5.376-46.016-8-57.856-8-11.648 0-30.336 2.56-55.168 7.936l-16.448 3.52-12.992-10.624-77.568-63.488-68.48 38.016 21.76 99.648 4.224 19.392-14.528 13.568c-17.792 16.64-30.016 29.952-36.288 39.168a185.728 185.728 0 0 0-19.2 41.152l-5.44 15.36-15.296 5.696-93.632 34.816v101.632l94.464 37.76 16.064 6.4 4.608 16.768c4.8 17.536 9.728 30.528 14.272 38.592 4.416 7.744 12.032 17.088 22.912 27.648l13.44 12.992-3.392 18.368-19.072 104.384 77.376 49.92c16 10.24 20.736 31.36 10.88 47.552l-0.448 0.64a34.88 34.88 0 0 1-48.256 10.432l-94.4-60.8a39.552 39.552 0 0 1-17.472-40.32l19.52-106.816-0.896-0.96a172.928 172.928 0 0 1-20.096-27.2L192 664.96c-5.696-10.048-10.88-22.4-15.616-37.056l-0.192-0.576-97.792-39.04a39.616 39.616 0 0 1-24.896-35.968V408.32c0-16.512 10.304-31.36 25.792-37.12l98.432-36.544c6.592-16.256 13.44-29.568 20.672-40.512l0.896-1.28c7.296-10.624 17.728-22.656 31.424-36.416l-21.952-103.04a39.552 39.552 0 0 1 18.688-42.56l0.768-0.384 106.048-58.88a39.552 39.552 0 0 1 44.288 3.904z m225.856 605.632l-50.048 121.792h98.688l-48.64-121.792z m-87.68-350.848c79.808 0 149.76 51.328 174.528 125.952a34.88 34.88 0 0 1-66.304 21.952 114.112 114.112 0 1 0-157.312 138.88 34.88 34.88 0 1 1-30.08 63.04 183.872 183.872 0 0 1 79.168-349.824z" p-id="6810"></path></svg>