<?xml version="1.0" standalone="no"?><!DOCTYPE svg PUBLIC "-//W3C//DTD SVG 1.1//EN" "http://www.w3.org/Graphics/SVG/1.1/DTD/svg11.dtd"><svg t="1759963509092" class="icon" viewBox="0 0 1024 1024" version="1.1" xmlns="http://www.w3.org/2000/svg" p-id="11021" xmlns:xlink="http://www.w3.org/1999/xlink" width="200" height="200"><path d="M1013.775951 516.722584a12.8 12.8 0 0 1-9.322496 9.322495l-198.487702 49.599298a320 320 0 0 0-232.836121 232.836121l-49.644553 198.532957a12.8 12.8 0 0 1-24.844904-0.045255l-49.599298-198.487702a320 320 0 0 0-232.83612-232.836121L17.626545 525.95457a12.8 12.8 0 0 1 0-24.799649l198.532957-49.644553a320 320 0 0 0 232.836121-232.836121L498.640175 20.2318a12.8 12.8 0 0 1 24.844904-0.045255l49.644553 198.532957a320 320 0 0 0 232.836121 232.836121l198.487702 49.599298a12.8 12.8 0 0 1 9.322496 15.567663zM713.374363 513.554745l-9.956064-4.525483a409.792 409.792 0 0 1-187.807561-187.807561l-4.525483-9.956064-4.615993 9.956064a409.792 409.792 0 0 1-187.807561 187.807561l-9.956064 4.525483 10.001319 4.661248a409.792 409.792 0 0 1 187.762306 187.762306l4.570738 9.910809 4.615993-9.865554a409.792 409.792 0 0 1 187.807561-187.807561l9.910809-4.661248z" p-id="11022"></path><path d="M887.453079 38.673217l5.656855 22.763181c11.087434 44.576011 45.888402 79.376979 90.509668 90.509668l22.763181 5.656855a12.8 12.8 0 0 1-0.045255 24.844904l-22.717926 5.702109a124.416 124.416 0 0 0-90.509668 90.509668l-5.702109 22.717926a12.8 12.8 0 0 1-24.79965 0l-5.702109-22.717926a124.416 124.416 0 0 0-90.509668-90.509668l-22.717926-5.702109a12.8 12.8 0 0 1-0.045255-24.844904l22.763181-5.656855c44.576011-11.177944 79.376979-45.978911 90.509668-90.509668l5.656855-22.763181a12.8 12.8 0 0 1 24.890158 0z" p-id="11023"></path></svg>