<?xml version="1.0" standalone="no"?><!DOCTYPE svg PUBLIC "-//W3C//DTD SVG 1.1//EN" "http://www.w3.org/Graphics/SVG/1.1/DTD/svg11.dtd"><svg t="1763871574824" class="icon" viewBox="0 0 1024 1024" version="1.1" xmlns="http://www.w3.org/2000/svg" p-id="1900" xmlns:xlink="http://www.w3.org/1999/xlink" width="200" height="200"><path d="M618.666667 149.333333a42.666667 42.666667 0 0 0-42.666667-42.666666h-128a42.666667 42.666667 0 1 0 0 85.333333h21.333333v42.666667h-149.333333a170.666667 170.666667 0 0 0-170.666667 170.666666v320a170.666667 170.666667 0 0 0 170.666667 170.666667h384a170.666667 170.666667 0 0 0 170.666667-170.666667V405.333333a170.666667 170.666667 0 0 0-170.666667-170.666666h-149.333333V192h21.333333a42.666667 42.666667 0 0 0 42.666667-42.666667zM320 810.666667a85.333333 85.333333 0 0 1-85.333333-85.333334V405.333333a85.333333 85.333333 0 0 1 85.333333-85.333333h384a85.333333 85.333333 0 0 1 85.333333 85.333333v320a85.333333 85.333333 0 0 1-85.333333 85.333334H320zM64 448a42.666667 42.666667 0 0 0-42.666667 42.666667v149.333333a42.666667 42.666667 0 1 0 85.333334 0v-149.333333a42.666667 42.666667 0 0 0-42.666667-42.666667z m896 0a42.666667 42.666667 0 0 0-42.666667 42.666667v149.333333a42.666667 42.666667 0 1 0 85.333334 0v-149.333333a42.666667 42.666667 0 0 0-42.666667-42.666667z m-512 117.333333a53.333333 53.333333 0 1 0-106.666667 0 53.333333 53.333333 0 0 0 106.666667 0z m234.666667 0a53.333333 53.333333 0 1 0-106.666667 0 53.333333 53.333333 0 0 0 106.666667 0z" p-id="1901"></path></svg>