<?xml version="1.0" encoding="UTF-8" standalone="no"?>
<svg
   t="1765593843440"
   class="icon"
   viewBox="0 0 1024 1024"
   version="1.1"
   p-id="34352"
   width="200"
   height="200"
   id="svg1"
   sodipodi:docname="ai2.svg"
   inkscape:version="1.3.2 (091e20e, 2023-11-25)"
   xmlns:inkscape="http://www.inkscape.org/namespaces/inkscape"
   xmlns:sodipodi="http://sodipodi.sourceforge.net/DTD/sodipodi-0.dtd"
   xmlns="http://www.w3.org/2000/svg"
   xmlns:svg="http://www.w3.org/2000/svg">
  <defs
     id="defs1" />
  <sodipodi:namedview
     id="namedview1"
     pagecolor="#ffffff"
     bordercolor="#666666"
     borderopacity="1.0"
     inkscape:showpageshadow="2"
     inkscape:pageopacity="0.0"
     inkscape:pagecheckerboard="0"
     inkscape:deskcolor="#d1d1d1"
     inkscape:zoom="3.075"
     inkscape:cx="100"
     inkscape:cy="99.837398"
     inkscape:window-width="1864"
     inkscape:window-height="1027"
     inkscape:window-x="60"
     inkscape:window-y="25"
     inkscape:window-maximized="1"
     inkscape:current-layer="svg1" />
  <path
     d="m 516.20415,55.362601 a 20.615808,21.112425 0 0 1 19.89717,15.868816 576.2545,590.13597 0 0 0 150.19447,269.815873 577.73668,591.65386 0 0 0 263.51404,153.85852 20.481064,20.974435 0 0 1 0,40.70695 576.43416,590.31995 0 0 0 -263.51404,153.85853 577.69177,591.60785 0 0 0 -122.52707,186.05612 c -11.40831,27.27596 -20.66072,55.14988 -27.6674,83.75974 a 20.436149,20.928438 0 0 1 -39.74944,0 A 576.34433,590.22796 0 0 0 346.1125,689.47129 577.87143,591.79184 0 0 0 164.38798,563.99265 541.67025,554.7186 0 0 0 82.643371,535.61276 a 20.481064,20.974435 0 0 1 0,-40.70695 A 578.05109,591.97583 0 0 0 346.1125,341.00129 577.24262,591.14789 0 0 0 496.35188,71.185421 20.481064,20.974435 0 0 1 516.15923,55.362601 Z m 0,207.766499 A 666.98202,683.04904 0 0 1 409.71159,405.99444 l -0.17966,0.18399 A 667.61083,683.69299 0 0 1 270.07206,515.23628 c 46.26205,27.13799 89.24533,59.93354 128.00665,97.69671 l 11.45322,11.40715 0.13475,0.138 c 41.68076,42.7768 77.4328,90.84322 106.49255,142.77335 A 667.74558,683.83097 0 0 1 622.74161,624.47814 l 0.13475,-0.138 A 666.17356,682.22109 0 0 1 762.33623,515.23628 667.38626,683.463 0 0 1 622.87636,406.17843 l -0.13475,-0.18399 A 665.94899,681.99112 0 0 1 516.20415,263.1291 Z"
     p-id="34353"
     id="path1"
     style="stroke-width:1.06529" />
  <path
     d="m 933.71317,191.58166 a 165.1873,165.1873 0 0 0 -154.7468,154.74679 h -0.62022 A 165.15284,165.15284 0 0 0 623.59935,191.58166 v -0.62023 A 165.15284,165.15284 0 0 0 778.34615,36.214634 h 0.62022 a 165.1873,165.1873 0 0 0 154.7468,154.746796 z"
     p-id="21723"
     id="path1-8"
     style="stroke-width:0.403794" />
</svg>
