<?xml version="1.0" standalone="no"?><!DOCTYPE svg PUBLIC "-//W3C//DTD SVG 1.1//EN" "http://www.w3.org/Graphics/SVG/1.1/DTD/svg11.dtd"><svg t="1764891371306" class="icon" viewBox="0 0 1024 1024" version="1.1" xmlns="http://www.w3.org/2000/svg" p-id="9180" xmlns:xlink="http://www.w3.org/1999/xlink" width="200" height="200"><path d="M789.333333 512V234.666667q0-42.666667-42.666666-42.666667H234.666667q-42.666667 0-42.666667 42.666667v554.666666q0 42.666667 42.666667 42.666667h298.666666a42.666667 42.666667 0 1 1 0 85.333333H234.666667q-53.013333 0-90.517334-37.482666Q106.666667 842.346667 106.666667 789.333333V234.666667q0-53.013333 37.482666-90.517334Q181.653333 106.666667 234.666667 106.666667h512q53.013333 0 90.517333 37.482666Q874.666667 181.653333 874.666667 234.666667v277.333333a42.666667 42.666667 0 1 1-85.333334 0zM490.666667 277.333333h-170.666667a42.666667 42.666667 0 1 0 0 85.333334h170.666667a42.666667 42.666667 0 1 0 0-85.333334z m213.333333 213.333334a42.666667 42.666667 0 0 0-42.666667-42.666667H320a42.666667 42.666667 0 1 0 0 85.333333h341.333333a42.666667 42.666667 0 0 0 42.666667-42.666666zM320 704h85.333333a42.666667 42.666667 0 1 0 0-85.333333h-85.333333a42.666667 42.666667 0 1 0 0 85.333333z m310.442667 79.36c-15.701333-4.202667-15.701333-26.517333 0-30.72l7.722666-2.090667a159.274667 159.274667 0 0 0 112.384-112.384l2.069334-7.722666c4.224-15.701333 26.538667-15.701333 30.762666 0l2.069334 7.722666a159.274667 159.274667 0 0 0 112.384 112.384l7.701333 2.069334c15.722667 4.224 15.722667 26.538667 0 30.762666l-7.68 2.069334a159.274667 159.274667 0 0 0-112.426667 112.384l-2.048 7.701333c-4.224 15.722667-26.538667 15.722667-30.762666 0l-2.069334-7.68a159.274667 159.274667 0 0 0-112.384-112.405333l-7.722666-2.069334z" p-id="9181"></path></svg>