<?xml version="1.0" standalone="no"?><!DOCTYPE svg PUBLIC "-//W3C//DTD SVG 1.1//EN" "http://www.w3.org/Graphics/SVG/1.1/DTD/svg11.dtd"><svg t="1766829631918" class="icon" viewBox="0 0 1024 1024" version="1.1" xmlns="http://www.w3.org/2000/svg" p-id="9713" xmlns:xlink="http://www.w3.org/1999/xlink" width="200" height="200"><path d="M533.312 85.312v85.312H234.688v682.688h554.624V490.624h85.376v448H149.312V85.376h384z m192 512v85.376H298.688v-85.376h426.624zM554.688 448v85.312h-256V448h256z" p-id="9714"></path><path d="M782.72 77.12l2.88 24.832c6.976 60.48 54.656 108.16 115.136 115.136l24.768 2.816a14.848 14.848 0 0 1 0 29.504l-24.768 2.88A130.944 130.944 0 0 0 785.6 367.36l-2.88 24.832a14.848 14.848 0 0 1-29.44 0l-2.88-24.832a130.944 130.944 0 0 0-115.136-115.072l-24.768-2.88a14.848 14.848 0 0 1 0-29.44l24.768-2.88a130.944 130.944 0 0 0 115.136-115.2l2.88-24.768a14.848 14.848 0 0 1 29.312-0.896l0.128 0.896z" p-id="9715"></path></svg>