<?xml version="1.0" standalone="no"?><!DOCTYPE svg PUBLIC "-//W3C//DTD SVG 1.1//EN" "http://www.w3.org/Graphics/SVG/1.1/DTD/svg11.dtd"><svg t="1718615322018" class="icon" viewBox="0 0 1024 1024" version="1.1" xmlns="http://www.w3.org/2000/svg" p-id="2344" xmlns:xlink="http://www.w3.org/1999/xlink" width="200" height="200"><path d="M170.688 96c-41.28 0-74.688 33.408-74.688 74.688V384c0 41.216 33.408 74.688 74.688 74.688H384c41.216 0 74.688-33.472 74.688-74.688V170.688C458.688 129.408 425.216 96 384 96H170.688z m0 469.312C129.408 565.312 96 598.784 96 640v213.312c0 41.28 33.408 74.688 74.688 74.688H384c41.216 0 74.688-33.408 74.688-74.688V640c0-41.216-33.472-74.688-74.688-74.688H170.688zM640 96c-41.216 0-74.688 33.408-74.688 74.688V384c0 41.216 33.472 74.688 74.688 74.688h213.312c41.28 0 74.688-33.472 74.688-74.688V170.688c0-41.28-33.408-74.688-74.688-74.688H640z m0 469.312c-41.216 0-74.688 33.472-74.688 74.688v213.312c0 41.28 33.472 74.688 74.688 74.688h213.312c41.28 0 74.688-33.408 74.688-74.688V640c0-41.216-33.408-74.688-74.688-74.688H640z" p-id="2345"></path></svg>