<?xml version="1.0" standalone="no"?><!DOCTYPE svg PUBLIC "-//W3C//DTD SVG 1.1//EN" "http://www.w3.org/Graphics/SVG/1.1/DTD/svg11.dtd"><svg t="1700028513543" class="icon" viewBox="0 0 1024 1024" version="1.1" xmlns="http://www.w3.org/2000/svg" p-id="4043" xmlns:xlink="http://www.w3.org/1999/xlink" width="200" height="200"><path d="M426.666667 597.333333h170.666666a42.666667 42.666667 0 0 0 0-85.333333h-170.666666a42.666667 42.666667 0 0 0 0 85.333333z m384-469.333333H213.333333a128 128 0 0 0-128 128v128a42.666667 42.666667 0 0 0 42.666667 42.666667h42.666667v341.333333a128 128 0 0 0 128 128h426.666666a128 128 0 0 0 128-128v-341.333333h42.666667a42.666667 42.666667 0 0 0 42.666667-42.666667V256a128 128 0 0 0-128-128z m-42.666667 640a42.666667 42.666667 0 0 1-42.666667 42.666667H298.666667a42.666667 42.666667 0 0 1-42.666667-42.666667v-341.333333h512z m85.333333-426.666667H170.666667V256a42.666667 42.666667 0 0 1 42.666666-42.666667h597.333334a42.666667 42.666667 0 0 1 42.666666 42.666667z" p-id="4044"></path></svg>