<?xml version="1.0" encoding="UTF-8" standalone="no"?>
<svg
   xmlns:dc="http://purl.org/dc/elements/1.1/"
   xmlns:cc="http://creativecommons.org/ns#"
   xmlns:rdf="http://www.w3.org/1999/02/22-rdf-syntax-ns#"
   xmlns:svg="http://www.w3.org/2000/svg"
   xmlns="http://www.w3.org/2000/svg"
   xmlns:sodipodi="http://sodipodi.sourceforge.net/DTD/sodipodi-0.dtd"
   xmlns:inkscape="http://www.inkscape.org/namespaces/inkscape"
   inkscape:version="1.0 (4035a4f, 2020-05-01)"
   sodipodi:docname="arrow-double.svg"
   id="svg64"
   version="1.1"
   viewBox="0 0 1024 1024"
   height="200.00px"
   width="200px"
   class="icon">
  <metadata
     id="metadata70">
    <rdf:RDF>
      <cc:Work
         rdf:about="">
        <dc:format>image/svg+xml</dc:format>
        <dc:type
           rdf:resource="http://purl.org/dc/dcmitype/StillImage" />
      </cc:Work>
    </rdf:RDF>
  </metadata>
  <defs
     id="defs68" />
  <sodipodi:namedview
     inkscape:current-layer="svg64"
     inkscape:window-maximized="1"
     inkscape:window-y="23"
     inkscape:window-x="0"
     inkscape:cy="67.351874"
     inkscape:cx="100"
     inkscape:zoom="4.135"
     showgrid="false"
     id="namedview66"
     inkscape:window-height="971"
     inkscape:window-width="1920"
     inkscape:pageshadow="2"
     inkscape:pageopacity="0"
     guidetolerance="10"
     gridtolerance="10"
     objecttolerance="10"
     borderopacity="1"
     bordercolor="#666666"
     pagecolor="#ffffff" />
  <path
     style="stroke-width:1.26493"
     id="path62"
     d="m 776.74931,513.99926 -232.69493,268.2243 a 41.156365,47.452687 0 0 0 58.2039,67.10822 L 863.96467,547.51861 a 41.014139,47.288701 0 0 0 0,-67.03869 L 602.19795,178.73627 a 41.134769,47.427786 0 1 0 -58.14357,67.03868 z m -376.9682,0 -232.69492,268.2243 a 41.156364,47.452686 0 1 0 58.20389,67.10822 L 486.99647,547.51861 a 41.014139,47.288701 0 0 0 0,-67.03869 L 225.22976,178.73627 a 41.134769,47.427786 0 0 0 -58.14357,67.03868 z" />
</svg>
