<?xml version="1.0" encoding="UTF-8" standalone="no"?>
<svg
   class="icon"
   width="200px"
   height="200.00px"
   viewBox="0 0 1024 1024"
   version="1.1"
   id="svg1"
   sodipodi:docname="at.svg"
   inkscape:version="1.3.2 (091e20e, 2023-11-25)"
   xmlns:inkscape="http://www.inkscape.org/namespaces/inkscape"
   xmlns:sodipodi="http://sodipodi.sourceforge.net/DTD/sodipodi-0.dtd"
   xmlns="http://www.w3.org/2000/svg"
   xmlns:svg="http://www.w3.org/2000/svg">
  <defs
     id="defs1" />
  <sodipodi:namedview
     id="namedview1"
     pagecolor="#ffffff"
     bordercolor="#666666"
     borderopacity="1.0"
     inkscape:showpageshadow="2"
     inkscape:pageopacity="0.0"
     inkscape:pagecheckerboard="0"
     inkscape:deskcolor="#d1d1d1"
     inkscape:zoom="3.075"
     inkscape:cx="100"
     inkscape:cy="99.837398"
     inkscape:window-width="1864"
     inkscape:window-height="1027"
     inkscape:window-x="58"
     inkscape:window-y="25"
     inkscape:window-maximized="1"
     inkscape:current-layer="svg1" />
  <path
     d="m 939.29106,472.36068 c 0,74.63328 -22.66652,134.88115 -68.14393,180.88601 -47.64299,48.28376 -113.47696,72.35441 -197.28532,72.35441 -30.31827,0 -52.98479,-4.05925 -68.14393,-12.10655 -19.77905,-10.25495 -31.47325,-28.05869 -34.93819,-53.41122 a 189.12827,186.58321 0 0 1 -62.87432,53.41122 c -23.38838,13.24599 -49.80859,20.36749 -76.80629,20.72356 -51.25231,0 -91.09918,-16.09458 -119.6128,-48.21253 -28.5858,-32.18917 -42.8787,-74.7045 -42.8787,-127.546 0,-50.56263 10.82795,-95.85534 32.33949,-136.0918 21.65591,-40.23645 50.38608,-71.57103 86.40708,-94.00376 a 215.76503,212.86153 0 0 1 117.01409,-33.54224 c 25.62616,0 48.36485,4.62897 68.21611,13.81571 19.70687,9.18672 34.86601,22.43271 45.33303,39.59551 l 3.53713,-24.07065 a 20.139994,19.868975 0 0 1 7.79613,-12.96113 22.161212,21.862994 0 0 1 13.13792,-4.27289 h 68.14393 c 7.00207,0 12.48823,2.56373 16.60285,7.76243 4.11462,5.12748 5.48617,10.68224 4.33118,16.37944 l -48.94234,256.72994 c -4.61994,18.37346 -5.19743,31.83309 -1.6603,40.37889 3.46496,8.68823 13.42667,12.96112 29.59642,12.96112 38.47532,0 71.68105,-14.31421 99.61718,-43.08505 30.24608,-32.11795 45.4774,-74.06357 45.4774,-125.69442 0,-62.02822 -16.45849,-116.57889 -49.01453,-163.79441 C 777.52142,263.77205 736.15863,229.37523 682.52418,205.30456 A 417.5981,411.97857 0 0 0 507.11131,169.12737 340.57524,335.9922 0 0 0 331.48191,215.55952 352.26944,347.52903 0 0 0 204.07297,341.32515 338.98715,334.42547 0 0 0 156.71872,513.66537 c 0,62.02822 15.73663,119.4987 47.20988,172.34021 a 351.33102,346.60323 0 0 0 127.48112,125.69441 338.26528,333.71332 0 0 0 174.76318,46.6458 345.48392,340.83482 0 0 0 206.09206,-65.51777 16.386304,16.165797 0 0 1 13.93196,-4.27289 c 5.77491,0.56972 10.46703,3.13346 14.00416,7.83365 l 26.20365,30.97851 c 3.53713,4.70018 5.05304,10.53981 4.33117,16.37943 A 19.923435,19.65533 0 0 1 762.86759,858.417 453.5469,447.44362 0 0 1 641.52232,919.51945 425.17766,419.45614 0 0 1 506.1729,940.95515 419.83587,414.18623 0 0 1 289.61381,883.27103 437.66591,431.77633 0 0 1 131.52569,727.31026 419.83587,414.18623 0 0 1 73.054732,513.66537 c 0,-76.91216 19.490317,-148.19835 58.470958,-213.6449 A 437.66591,431.77633 0 0 1 289.61381,144.0597 423.01208,417.31969 0 0 1 507.90537,86.375579 c 79.18844,0 151.66354,16.023371 217.42531,48.212531 65.83397,32.18916 117.37503,76.41365 154.62319,132.67348 39.48594,59.74935 59.33719,128.11572 59.33719,205.09909 z m -478.59557,166.9991 c 34.86601,0 65.54521,-16.37945 91.67668,-49.13832 26.20365,-32.68767 39.26937,-70.28917 39.26937,-112.80451 0,-26.49197 -6.92988,-47.71403 -20.86185,-63.73739 -14.00415,-16.16581 -33.85541,-24.14187 -59.48156,-24.14187 -20.93405,0 -41.29061,6.62299 -61.06967,19.79775 -19.85124,13.24599 -36.09318,31.90431 -48.87016,56.04618 -13.06573,26.20711 -19.63469,55.12039 -19.27376,84.38974 0,28.69962 7.00208,50.84748 20.93405,66.37233 14.00415,15.45366 33.20572,23.21609 57.74909,23.21609 z"
     id="path1"
     style="stroke-width:1.1203" />
</svg>
