<?xml version="1.0" standalone="no"?><!DOCTYPE svg PUBLIC "-//W3C//DTD SVG 1.1//EN" "http://www.w3.org/Graphics/SVG/1.1/DTD/svg11.dtd"><svg class="icon" width="200px" height="200.00px" viewBox="0 0 1024 1024" version="1.1" xmlns="http://www.w3.org/2000/svg"><path d="M896 474.88c0 67.072-20.096 121.216-60.416 162.56-42.24 43.392-100.608 65.024-174.912 65.024-26.88 0-46.976-3.648-60.416-10.88-17.536-9.216-27.904-25.216-30.976-48a167.68 167.68 0 0 1-55.744 48c-20.736 11.904-44.16 18.304-68.096 18.624-45.44 0-80.768-14.464-106.048-43.328-25.344-28.928-38.016-67.136-38.016-114.624 0-45.44 9.6-86.144 28.672-122.304 19.2-36.16 44.672-64.32 76.608-84.48a191.296 191.296 0 0 1 103.744-30.144c22.72 0 42.88 4.16 60.48 12.416 17.472 8.256 30.912 20.16 40.192 35.584l3.136-21.632a17.856 17.856 0 0 1 6.912-11.648 19.648 19.648 0 0 1 11.648-3.84h60.416c6.208 0 11.072 2.304 14.72 6.976 3.648 4.608 4.864 9.6 3.84 14.72l-43.392 230.72c-4.096 16.512-4.608 28.608-1.472 36.288 3.072 7.808 11.904 11.648 26.24 11.648 34.112 0 63.552-12.864 88.32-38.72 26.816-28.864 40.32-66.56 40.32-112.96 0-55.744-14.592-104.768-43.456-147.2-25.728-40.256-62.4-71.168-109.952-92.8a370.24 370.24 0 0 0-155.52-32.512 301.952 301.952 0 0 0-155.712 41.728A312.32 312.32 0 0 0 244.16 357.12 300.544 300.544 0 0 0 202.176 512c0 55.744 13.952 107.392 41.856 154.88a311.488 311.488 0 0 0 113.024 112.96A299.904 299.904 0 0 0 512 821.76a306.304 306.304 0 0 0 182.72-58.88 14.528 14.528 0 0 1 12.352-3.84c5.12 0.512 9.28 2.816 12.416 7.04l23.232 27.84c3.136 4.224 4.48 9.472 3.84 14.72a17.664 17.664 0 0 1-6.976 13.184 402.112 402.112 0 0 1-107.584 54.912A376.96 376.96 0 0 1 512 896a372.224 372.224 0 0 1-192-51.84A388.032 388.032 0 0 1 179.84 704 372.224 372.224 0 0 1 128 512c0-69.12 17.28-133.184 51.84-192A388.032 388.032 0 0 1 320 179.84 375.04 375.04 0 0 1 513.536 128c70.208 0 134.464 14.4 192.768 43.328 58.368 28.928 104.064 68.672 137.088 119.232 35.008 53.696 52.608 115.136 52.608 184.32zM471.68 624.96c30.912 0 58.112-14.72 81.28-44.16 23.232-29.376 34.816-63.168 34.816-101.376 0-23.808-6.144-42.88-18.496-57.28-12.416-14.528-30.016-21.696-52.736-21.696-18.56 0-36.608 5.952-54.144 17.792-17.6 11.904-32 28.672-43.328 50.368-11.584 23.552-17.408 49.536-17.088 75.84 0 25.792 6.208 45.696 18.56 59.648 12.416 13.888 29.44 20.864 51.2 20.864z" /></svg>