<?xml version="1.0" standalone="no"?><!DOCTYPE svg PUBLIC "-//W3C//DTD SVG 1.1//EN" "http://www.w3.org/Graphics/SVG/1.1/DTD/svg11.dtd"><svg t="1750603967318" class="icon" viewBox="0 0 1024 1024" version="1.1" xmlns="http://www.w3.org/2000/svg" p-id="11693" xmlns:xlink="http://www.w3.org/1999/xlink" width="200" height="200"><path d="M411.605333 180.394667c-26.581333 20.096-48.469333 54.144-48.469333 115.114666 0 60.885333 21.162667 96.938667 42.709333 123.477334a417.024 417.024 0 0 0 20.992 23.722666c4.693333 5.12 9.813333 10.538667 14.208 15.658667 9.557333 11.093333 26.666667 31.914667 26.666667 59.605333v4.138667c0 16.938667 0.042667 36.565333-3.754667 51.413333-2.346667 9.386667-7.509333 22.570667-19.882666 32.853334-12.885333 10.666667-27.477333 13.226667-38.613334 13.226666H213.418667L213.333333 725.333333h597.333334v-105.770666h-191.317334c-4.693333 0-18.005333 0-30.933333-7.509334a53.845333 53.845333 0 0 1-24.746667-34.005333 126.805333 126.805333 0 0 1-3.157333-27.008c-0.298667-8.746667-0.298667-19.626667-0.298667-32.426667v-0.64c0-28.330667 14.208-49.408 25.856-63.701333 5.845333-7.168 12.458667-14.208 18.261334-20.437333l0.298666-0.298667c6.186667-6.656 11.946667-12.842667 17.706667-19.626667 21.205333-25.002667 41.898667-57.898667 41.898667-118.4 0-62.549333-20.48-96.554667-44.458667-115.968-25.6-20.778667-61.824-30.208-100.949333-30.208-39.253333 0-78.677333 9.514667-107.221334 31.061334zM360.149333 112.341333C408.32 75.946667 468.053333 64 518.826667 64c50.901333 0 108.714667 12.032 154.666666 49.194667 47.530667 38.528 76.074667 98.944 76.074667 182.314666 0 85.461333-31.317333 137.173333-62.122667 173.568-7.082667 8.362667-14.08 15.872-20.010666 22.186667l-0.426667 0.512a346.752 346.752 0 0 0-14.805333 16.469333 37.802667 37.802667 0 0 0-6.656 9.984v16h186.453333a64 64 0 0 1 64 64V768a42.666667 42.666667 0 0 1-42.666667 42.666667H170.666667a42.666667 42.666667 0 0 1-42.666667-42.666667l0.085333-169.813333a64 64 0 0 1 64-63.957334H382.293333l0.085334-12.458666a78.72 78.72 0 0 0-6.016-7.722667c-3.285333-3.84-6.912-7.722667-11.434667-12.586667a500.224 500.224 0 0 1-25.301333-28.629333c-30.72-37.802667-61.866667-92.245333-61.866667-177.322667 0.042667-84.906667 32.341333-145.322667 82.389333-183.168zM128 896a42.666667 42.666667 0 0 1 42.666667-42.666667h682.666666a42.666667 42.666667 0 1 1 0 85.333334H170.666667a42.666667 42.666667 0 0 1-42.666667-42.666667z" p-id="11694"></path></svg>