<?xml version="1.0" standalone="no"?><!DOCTYPE svg PUBLIC "-//W3C//DTD SVG 1.1//EN" "http://www.w3.org/Graphics/SVG/1.1/DTD/svg11.dtd"><svg t="1656047248807" class="icon" viewBox="0 0 1030 1024" version="1.1" xmlns="http://www.w3.org/2000/svg" p-id="3671" xmlns:xlink="http://www.w3.org/1999/xlink" width="201.171875" height="200"><defs><style type="text/css">@font-face { font-family: feedback-iconfont; src: url("//at.alicdn.com/t/font_1031158_u69w8yhxdu.woff2?t=1630033759944") format("woff2"), url("//at.alicdn.com/t/font_1031158_u69w8yhxdu.woff?t=1630033759944") format("woff"), url("//at.alicdn.com/t/font_1031158_u69w8yhxdu.ttf?t=1630033759944") format("truetype"); }
</style></defs><path d="M206.13355771 326.43852471v502.88623417a125.57079141 125.57079141 0 0 0 125.4972463 125.32073731h503.6069751a125.57079141 125.57079141 0 0 0 125.49724628-125.32073731V326.43852471a125.57079141 125.57079141 0 0 0-125.49724628-125.32073818H331.61609463a125.57079141 125.57079141 0 0 0-125.49724629 125.32073818z m629.10422139-69.13233194a68.63222549 68.63222549 0 0 1 69.13233194 68.05857393v503.95999218a68.63222549 68.63222549 0 0 1-68.16153692 69.13233194H331.61609463a68.63222549 68.63222549 0 0 1-69.13233194-68.0585748V326.43852471a68.63222549 68.63222549 0 0 1 68.1615378-69.13233194h504.59247862z" p-id="3672"></path><path d="M69.35450381 193.02783242v546.33664073c0 38.55230683 19.2982166 75.50133223 49.8782417 99.60939404 12.87038057 9.6343998 30.5800251 6.42783604 40.2291334-6.42783604s6.44254541-30.52118935-6.44254453-40.15558916c-17.65080791-12.87038057-27.34404346-32.1244708-27.34404346-54.62925117V191.48338672a67.92619307 67.92619307 0 0 1 67.57317686-67.47021386h547.05738163c17.65080791 0 35.38987031 8.03111748 48.27496026 20.88678954a29.78573906 29.78573906 0 0 0 40.2144249 1.58857296c4.83926309-3.20656377 8.04582685-11.25239063 8.04582686-19.28350812a29.60923096 29.60923096 0 0 0-8.04582686-19.2835081C806.27574482 83.81345732 772.54799258 69.35450381 738.71727646 69.35450381H193.24846778A123.8498376 123.8498376 0 0 0 69.35450381 193.02783242z" p-id="3673"></path><path d="M555.28125224 366.59411299v183.17126162h-185.03930566a28.91790703 28.91790703 0 1 0 0 57.83581494h183.42131485v183.1712625a28.96203428 28.96203428 0 0 0 57.92406943 0V607.61589893h183.42131484a28.91790703 28.91790703 0 0 0 0-57.83581495H611.57262148V366.59411299a28.81494404 28.81494404 0 0 0-28.77081679-28.91790703h-0.23534473c-16.09165372 0-27.35875283 12.87038057-27.35875283 28.91790703z" p-id="3674"></path></svg>