<?xml version="1.0" encoding="UTF-8" standalone="no"?>
<svg
   xmlns:dc="http://purl.org/dc/elements/1.1/"
   xmlns:cc="http://creativecommons.org/ns#"
   xmlns:rdf="http://www.w3.org/1999/02/22-rdf-syntax-ns#"
   xmlns:svg="http://www.w3.org/2000/svg"
   xmlns="http://www.w3.org/2000/svg"
   xmlns:sodipodi="http://sodipodi.sourceforge.net/DTD/sodipodi-0.dtd"
   xmlns:inkscape="http://www.inkscape.org/namespaces/inkscape"
   inkscape:version="1.0 (4035a4f, 2020-05-01)"
   sodipodi:docname="bell-off.svg"
   id="svg3221"
   version="1.1"
   viewBox="50 50 974 974"
   height="200.00px"
   width="200px"
   class="icon">
  <metadata
     id="metadata3227">
    <rdf:RDF>
      <cc:Work
         rdf:about="">
        <dc:format>image/svg+xml</dc:format>
        <dc:type
           rdf:resource="http://purl.org/dc/dcmitype/StillImage" />
      </cc:Work>
    </rdf:RDF>
  </metadata>
  <defs
     id="defs3225" />
  <sodipodi:namedview
     inkscape:current-layer="svg3221"
     inkscape:window-maximized="1"
     inkscape:window-y="23"
     inkscape:window-x="0"
     inkscape:cy="124.66747"
     inkscape:cx="100"
     inkscape:zoom="4.135"
     showgrid="false"
     id="namedview3223"
     inkscape:window-height="971"
     inkscape:window-width="1920"
     inkscape:pageshadow="2"
     inkscape:pageopacity="0"
     guidetolerance="10"
     gridtolerance="10"
     objecttolerance="10"
     borderopacity="1"
     bordercolor="#666666"
     pagecolor="#ffffff" />
  <path
     id="path3219"
     d="m 985.22129,928.95526 -842.016,-842.016 -54.016009,54.016 200.000009,202.016 q -34.016,66.016 -34.016,140 v 256 l -86.016,84 v 44 h 644 l 118.016,116 54.016,-54.016 z m -645.984,-148 v -298.016 q 0,-40 16,-76 l 374.016,374.016 z m 128,128 h 172 q 0,36 -24.992,60.992 -24.992,24.992 -60.992,24.992 -36,0 -60.992,-24.992 -24.992,-24.992 -24.992,-60.992 z m -72,-677.984 q 30.016,-20 72,-34.016 v -14.016 q 0,-34.016 24.992,-59.008 24.992,-24.992 60.992,-24.992 36,0 60.992,24.992 24.992,24.992 24.992,59.008 v 14.016 q 94.016,28 152.992,107.008 58.976,79.008 59.008,179.008 v 204 l -84,-86.016 v -118.016 q 0,-58.016 -28.992,-107.008 -28.992,-48.992 -78.016,-78.016 -49.024,-29.024 -107.008,-28.992 -50.016,0 -96,24 l -62.016,-62.016 z" />
</svg>
