<?xml version="1.0" standalone="no"?><!DOCTYPE svg PUBLIC "-//W3C//DTD SVG 1.1//EN" "http://www.w3.org/Graphics/SVG/1.1/DTD/svg11.dtd"><svg class="icon" width="200px" height="200.00px" viewBox="0 0 1024 1024" version="1.1" xmlns="http://www.w3.org/2000/svg"><path d="M746.666667 554.666667a192 192 0 0 0-192 192 192 192 0 0 0 192 192 192 192 0 0 0 192-192 192 192 0 0 0-192-192m0 64a128 128 0 0 1 128 128 128 128 0 0 1-17.92 64L682.666667 636.586667a128 128 0 0 1 64-17.92M636.586667 682.666667L810.666667 856.746667a128 128 0 0 1-64 17.92 128 128 0 0 1-128-128 128 128 0 0 1 17.92-64M512 85.333333c-46.933333 0-85.333333 38.4-85.333333 85.333334v12.373333C303.786667 219.306667 213.333333 333.653333 213.333333 469.333333v256l-85.333333 85.333334v42.666666h362.666667a277.333333 277.333333 0 0 1-20.053334-85.333333H298.666667v-298.666667a213.333333 213.333333 0 0 1 213.333333-213.333333 213.333333 213.333333 0 0 1 213.333333 213.333333 277.333333 277.333333 0 0 1 21.333334 0 277.333333 277.333333 0 0 1 64 7.68V469.333333c0-135.68-90.453333-250.026667-213.333334-286.293333V170.666667a85.333333 85.333333 0 0 0-85.333333-85.333334m-85.333333 810.666667a85.333333 85.333333 0 0 0 85.333333 85.333333c21.333333 0 41.386667-8.106667 56.746667-21.333333a277.333333 277.333333 0 0 1-55.466667-64z" /></svg>