<?xml version="1.0" standalone="no"?><!DOCTYPE svg PUBLIC "-//W3C//DTD SVG 1.1//EN" "http://www.w3.org/Graphics/SVG/1.1/DTD/svg11.dtd"><svg class="icon" width="200px" height="200.00px" viewBox="0 0 1024 1024" version="1.1" xmlns="http://www.w3.org/2000/svg"><path d="M890.127 145.672h-43.389V132.78c0-38.644-31.466-70.234-69.923-70.234h-1.031c-38.458 0-69.923 31.59-69.923 70.234v12.892H319.162V132.78c0-38.644-31.465-70.234-69.923-70.234h-1.063c-38.456 0-69.923 31.59-69.923 70.234v12.892h-43.296c-38.458 0-69.923 31.622-69.923 70.206v671.446c0 38.645 31.465 70.236 69.923 70.236h755.169c38.458 0 69.923-31.591 69.923-70.236V215.878c0-38.584-31.464-70.206-69.923-70.206zM733.83 132.779c0-23.222 18.792-42.139 41.954-42.139h1.031c23.13 0 41.954 18.917 41.954 42.139v124.927c0 23.224-18.824 42.14-41.954 42.14h-1.031c-23.162 0-41.954-18.915-41.954-42.14V132.779z m-527.607 0c0-23.222 18.792-42.139 41.954-42.139h1.063c23.098 0 41.954 18.917 41.954 42.139v124.927c0 23.224-18.856 42.14-41.954 42.14h-1.063c-23.162 0-41.954-18.915-41.954-42.14V132.779z m683.904 768.626H134.958c-7.585 0-13.985-6.525-13.985-14.08V393.649h783.138v493.676c0 7.555-6.399 14.08-13.984 14.08zM223.755 494.2h129.024v63.488H223.755V494.2z m225.28 0h128v63.488h-128V494.2z m224.256 0h125.952v63.488H673.291V494.2zM223.755 623.224h129.024v62.464H223.755v-62.464z m225.28 0h128v62.464h-128v-62.464z m224.256 0h125.952v62.464H673.291v-62.464zM223.755 749.176h129.024v65.536H223.755v-65.536z m225.28 0h128v65.536h-128v-65.536z m224.256 0h125.952v65.536H673.291v-65.536z" /></svg>