<?xml version="1.0" encoding="UTF-8" standalone="no"?>
<svg
   xmlns:dc="http://purl.org/dc/elements/1.1/"
   xmlns:cc="http://creativecommons.org/ns#"
   xmlns:rdf="http://www.w3.org/1999/02/22-rdf-syntax-ns#"
   xmlns:svg="http://www.w3.org/2000/svg"
   xmlns="http://www.w3.org/2000/svg"
   xmlns:sodipodi="http://sodipodi.sourceforge.net/DTD/sodipodi-0.dtd"
   xmlns:inkscape="http://www.inkscape.org/namespaces/inkscape"
   inkscape:version="1.0 (4035a4f, 2020-05-01)"
   sodipodi:docname="copy.svg"
   id="svg55"
   version="1.1"
   viewBox="0 0 1024 1024"
   height="200.00px"
   width="200px"
   class="icon">
  <metadata
     id="metadata61">
    <rdf:RDF>
      <cc:Work
         rdf:about="">
        <dc:format>image/svg+xml</dc:format>
        <dc:type
           rdf:resource="http://purl.org/dc/dcmitype/StillImage" />
      </cc:Work>
    </rdf:RDF>
  </metadata>
  <defs
     id="defs59" />
  <sodipodi:namedview
     inkscape:current-layer="svg55"
     inkscape:window-maximized="1"
     inkscape:window-y="23"
     inkscape:window-x="0"
     inkscape:cy="157.07376"
     inkscape:cx="100"
     inkscape:zoom="4.135"
     showgrid="false"
     id="namedview57"
     inkscape:window-height="971"
     inkscape:window-width="1920"
     inkscape:pageshadow="2"
     inkscape:pageopacity="0"
     guidetolerance="10"
     gridtolerance="10"
     objecttolerance="10"
     borderopacity="1"
     bordercolor="#666666"
     pagecolor="#ffffff" />
  <path
     style="stroke-width:0.911123"
     id="path53"
     d="M 837.75886,42.099699 H 402.69577 A 142.02473,141.4604 0 0 0 260.31149,183.73916 v 73.23709 H 165.20886 A 120.81091,120.33087 0 0 0 44.577733,378.02337 V 852.90055 A 120.99069,120.50993 0 0 0 165.20886,973.23139 H 641.98048 A 120.99069,120.50993 0 0 0 763.69027,852.90055 v -94.54568 h 71.91125 A 143.82251,143.25103 0 0 0 979.42403,617.07354 V 183.38103 A 142.02473,141.4604 0 0 0 837.75886,42.099699 Z M 693.93636,852.90055 a 51.776103,51.570372 0 0 1 -51.77611,51.21224 H 165.20886 A 51.776103,51.570372 0 0 1 113.79232,852.90055 V 378.02337 a 51.596325,51.391308 0 0 1 51.41654,-51.21224 h 476.77162 a 51.776103,51.570372 0 0 1 51.77609,51.21224 z m 215.73375,-236.3642 a 71.911254,71.625518 0 0 1 -74.7877,71.62551 H 763.69027 V 378.02337 A 120.81091,120.33087 0 0 0 641.98048,256.97625 H 330.24519 v -73.41616 a 71.911254,71.625518 0 0 1 71.91125,-72.52083 h 435.06309 a 73.349479,73.058027 0 0 1 71.91125,71.62552 z" />
</svg>
