<?xml version="1.0" encoding="UTF-8" standalone="no"?>
<svg
   xmlns:dc="http://purl.org/dc/elements/1.1/"
   xmlns:cc="http://creativecommons.org/ns#"
   xmlns:rdf="http://www.w3.org/1999/02/22-rdf-syntax-ns#"
   xmlns:svg="http://www.w3.org/2000/svg"
   xmlns="http://www.w3.org/2000/svg"
   xmlns:sodipodi="http://sodipodi.sourceforge.net/DTD/sodipodi-0.dtd"
   xmlns:inkscape="http://www.inkscape.org/namespaces/inkscape"
   inkscape:version="1.0 (4035a4f, 2020-05-01)"
   sodipodi:docname="detail-2.svg"
   id="svg54"
   version="1.1"
   viewBox="0 0 1024 1024"
   height="200.00px"
   width="200px"
   class="icon">
  <metadata
     id="metadata60">
    <rdf:RDF>
      <cc:Work
         rdf:about="">
        <dc:format>image/svg+xml</dc:format>
        <dc:type
           rdf:resource="http://purl.org/dc/dcmitype/StillImage" />
      </cc:Work>
    </rdf:RDF>
  </metadata>
  <defs
     id="defs58" />
  <sodipodi:namedview
     inkscape:current-layer="svg54"
     inkscape:window-maximized="1"
     inkscape:window-y="23"
     inkscape:window-x="0"
     inkscape:cy="114.51028"
     inkscape:cx="100"
     inkscape:zoom="4.135"
     showgrid="false"
     id="namedview56"
     inkscape:window-height="971"
     inkscape:window-width="1920"
     inkscape:pageshadow="2"
     inkscape:pageopacity="0"
     guidetolerance="10"
     gridtolerance="10"
     objecttolerance="10"
     borderopacity="1"
     bordercolor="#666666"
     pagecolor="#ffffff" />
  <path
     style="stroke-width:0.859248"
     id="path50"
     fill="#434343"
     d="M 611.71588,890.81738 H 223.9577 c -23.07028,0 -44.80958,-9.16108 -60.33765,-24.42954 -15.52807,-15.26846 -24.84491,-37.51681 -24.84491,-59.3289 V 229.91092 c 0,-22.68458 9.31684,-44.06044 24.84491,-59.3289 16.41539,-16.14094 37.71104,-24.42954 60.33765,-24.42954 h 586.96117 c 23.07028,0 44.80958,9.16108 60.33766,24.42954 16.41539,16.14096 24.84492,37.08056 24.84492,59.3289 l -1.33098,381.71165 c 0,17.01344 14.1971,30.97318 31.4998,30.97318 17.30272,0 31.49981,-13.5235 31.49981,-30.53693 l 1.33098,-381.71166 c 0,-38.82553 -15.97176,-75.90608 -43.92226,-103.38933 C 887.22826,99.474598 849.51723,83.769886 810.03156,83.769886 H 223.9577 c -39.48567,0 -77.1967,15.704712 -105.14723,43.187944 -27.950535,27.48325 -43.922267,64.12756 -43.922267,103.38933 v 576.71178 c 0,38.82553 15.971732,75.90609 43.922267,103.38933 27.95053,27.48322 65.66156,43.18795 105.14723,43.18795 h 388.20184 c 17.30271,0 31.4998,-13.95973 31.4998,-30.97317 -0.44365,-17.44968 -14.19709,-31.84567 -31.94346,-31.84567 z" />
  <path
     style="stroke-width:0.916344"
     id="path52"
     fill="#434343"
     d="M 948.4642,897.45959 820.09766,770.59427 c 60.40778,-84.4214 45.77777,-201.02556 -33.97938,-267.72313 -79.75715,-66.69758 -198.68497,-62.03341 -273.25083,11.194 -74.56586,73.22741 -78.81328,190.29797 -11.32646,270.05522 67.48682,79.29082 185.47077,94.21615 270.89115,33.58199 l 128.36654,126.86532 a 33.6116,33.218519 0 0 0 47.66552,0 c 13.2142,-13.52608 13.2142,-34.51483 0,-47.10808 z M 656.33593,788.31811 c -64.18327,0 -119.39976,-44.776 -132.14202,-106.80941 -12.27033,-62.03341 21.23711,-124.53323 80.70102,-148.7869 59.46391,-24.25366 127.8946,-3.73133 163.28979,48.97375 35.39518,52.70507 28.78808,123.13398 -16.98969,167.90998 -25.48453,24.72008 -59.46391,38.71258 -94.8591,38.71258 z M 756.85826,323.76716 c 18.4055,0 33.50744,-14.92533 33.50744,-33.11558 0,-18.19025 -15.10194,-33.11558 -33.50744,-33.11558 H 218.85144 c -18.40549,0 -33.50744,14.92533 -33.50744,33.11558 0,18.19025 15.10195,33.11558 33.50744,33.11558 z M 420.83997,522.46064 c 11.79839,0 23.12485,-6.52984 29.26002,-16.791 6.13516,-10.26117 6.13516,-22.85442 0,-33.11558 -6.13517,-10.26117 -17.46163,-16.791 -29.26002,-16.791 H 218.85144 c -18.40549,0 -33.50744,14.92533 -33.50744,33.11558 0,18.19025 15.10195,33.11558 33.50744,33.11558 0,0.46642 201.98853,0.46642 201.98853,0.46642 z M 219.32338,654.92295 c -18.4055,0 -33.50744,14.92534 -33.50744,33.11558 0,18.19025 15.10194,33.11558 33.50744,33.11558 h 134.02977 c 11.79839,0 23.12485,-6.52983 29.26002,-16.791 6.13516,-10.26116 6.13516,-22.85441 0,-33.11557 -6.13517,-10.26117 -17.46163,-16.791 -29.26002,-16.791 H 219.32338 Z" />
</svg>
