<?xml version="1.0" standalone="no"?><!DOCTYPE svg PUBLIC "-//W3C//DTD SVG 1.1//EN" "http://www.w3.org/Graphics/SVG/1.1/DTD/svg11.dtd"><svg t="1729830369923" class="icon" viewBox="0 0 1024 1024" version="1.1" xmlns="http://www.w3.org/2000/svg" p-id="15223" xmlns:xlink="http://www.w3.org/1999/xlink" width="200" height="200"><path d="M533.333333 288a32 32 0 0 0-64 0V384H373.333333a32 32 0 0 0 0 64H469.333333v96a32 32 0 0 0 64 0V448h96a32 32 0 0 0 0-64H533.333333V288zM373.333333 682.666667a32 32 0 0 0 0 64h256a32 32 0 0 0 0-64h-256z" p-id="15224"></path><path d="M213.333333 42.666667a85.333333 85.333333 0 0 0-85.333333 85.333333v768a85.333333 85.333333 0 0 0 85.333333 85.333333h597.333334a85.333333 85.333333 0 0 0 85.333333-85.333333V299.434667a85.333333 85.333333 0 0 0-25.002667-60.330667l-171.434666-171.434667A85.333333 85.333333 0 0 0 639.232 42.666667H213.333333z m-21.333333 85.333333a21.333333 21.333333 0 0 1 21.333333-21.333333h425.898667a21.333333 21.333333 0 0 1 15.104 6.229333l171.434667 171.434667a21.333333 21.333333 0 0 1 6.229333 15.104V896a21.333333 21.333333 0 0 1-21.333333 21.333333H213.333333a21.333333 21.333333 0 0 1-21.333333-21.333333V128z" p-id="15225"></path></svg>