<?xml version="1.0" standalone="no"?><!DOCTYPE svg PUBLIC "-//W3C//DTD SVG 1.1//EN" "http://www.w3.org/Graphics/SVG/1.1/DTD/svg11.dtd"><svg t="1766197189296" class="icon" viewBox="0 0 1024 1024" version="1.1" xmlns="http://www.w3.org/2000/svg" p-id="9526" xmlns:xlink="http://www.w3.org/1999/xlink" width="200" height="200"><path d="M217.984 148.032a14.016 14.016 0 0 0-14.016 13.952V862.08c0 7.68 6.272 14.016 14.08 14.016h587.968c7.68 0 14.016-6.272 14.016-14.08V325.248a13.952 13.952 0 0 0-4.16-9.856l-163.2-163.2a14.016 14.016 0 0 0-9.856-4.096H217.984z m-97.984 13.952C120 107.904 163.904 64 217.984 64h424.832c25.984 0 50.88 10.304 69.312 28.672l163.2 163.2c18.368 18.432 28.672 43.328 28.672 69.312v536.832c0 54.08-43.904 97.984-97.984 97.984H217.984a97.984 97.984 0 0 1-97.984-97.984V161.92zM512 246.016c23.168 0 41.984 18.816 41.984 41.984v84.032H638.08a41.984 41.984 0 1 1 0 83.968H553.984v84.032a41.984 41.984 0 0 1-83.968 0V456H385.92a41.984 41.984 0 0 1 0-84.032h84.032V288c0-23.168 18.816-41.984 41.984-41.984z m-168 448c0-23.232 18.816-41.984 41.984-41.984H638.08a41.984 41.984 0 1 1 0 83.968H385.92a41.984 41.984 0 0 1-41.984-41.984z" p-id="9527"></path></svg>