<?xml version="1.0" encoding="UTF-8" standalone="no"?>
<svg
   t="1756112931787"
   class="icon"
   viewBox="0 0 1024 1024"
   version="1.1"
   p-id="51831"
   width="200"
   height="200"
   id="svg2"
   sodipodi:docname="file-diff.svg"
   inkscape:version="1.3.2 (091e20e, 2023-11-25)"
   xmlns:inkscape="http://www.inkscape.org/namespaces/inkscape"
   xmlns:sodipodi="http://sodipodi.sourceforge.net/DTD/sodipodi-0.dtd"
   xmlns="http://www.w3.org/2000/svg"
   xmlns:svg="http://www.w3.org/2000/svg">
  <defs
     id="defs2" />
  <sodipodi:namedview
     id="namedview2"
     pagecolor="#ffffff"
     bordercolor="#666666"
     borderopacity="1.0"
     inkscape:showpageshadow="2"
     inkscape:pageopacity="0.0"
     inkscape:pagecheckerboard="0"
     inkscape:deskcolor="#d1d1d1"
     inkscape:zoom="3.075"
     inkscape:cx="100"
     inkscape:cy="99.837398"
     inkscape:window-width="1864"
     inkscape:window-height="1027"
     inkscape:window-x="60"
     inkscape:window-y="25"
     inkscape:window-maximized="1"
     inkscape:current-layer="svg2" />
  <path
     d="M512 256a32 32 0 0 1 32 32V384H640a32 32 0 0 1 0 64H544v96a32 32 0 0 1-64 0V448H384a32 32 0 0 1 0-64h96V288A32 32 0 0 1 512 256zM352 672A32 32 0 0 1 384 640h256a32 32 0 0 1 0 64H384a32 32 0 0 1-32-32z"
     p-id="51832"
     id="path1" />
  <path
     d="M 128,165.25528 A 128,113.63903 0 0 1 256,51.61626 H 768 A 128,113.63903 0 0 1 896,165.25528 V 847.08943 A 128,113.63903 0 0 1 768,960.72846 H 256 A 128,113.63903 0 0 1 128,847.08943 Z M 768,108.43577 H 256 a 64,56.819512 0 0 0 -64,56.81951 v 681.83415 a 64,56.819512 0 0 0 64,56.81952 h 512 a 64,56.819512 0 0 0 64,-56.81952 V 165.25528 a 64,56.819512 0 0 0 -64,-56.81951 z"
     p-id="51833"
     id="path2"
     style="stroke-width:0.942234" />
</svg>
