<?xml version="1.0" encoding="UTF-8" standalone="no"?>
<svg
   t="1756112937758"
   class="icon"
   viewBox="0 0 1024 1024"
   version="1.1"
   p-id="51983"
   width="200"
   height="200"
   id="svg1"
   sodipodi:docname="file-diff-fill.svg"
   inkscape:version="1.3.2 (091e20e, 2023-11-25)"
   xmlns:inkscape="http://www.inkscape.org/namespaces/inkscape"
   xmlns:sodipodi="http://sodipodi.sourceforge.net/DTD/sodipodi-0.dtd"
   xmlns="http://www.w3.org/2000/svg"
   xmlns:svg="http://www.w3.org/2000/svg">
  <defs
     id="defs1" />
  <sodipodi:namedview
     id="namedview1"
     pagecolor="#ffffff"
     bordercolor="#666666"
     borderopacity="1.0"
     inkscape:showpageshadow="2"
     inkscape:pageopacity="0.0"
     inkscape:pagecheckerboard="0"
     inkscape:deskcolor="#d1d1d1"
     inkscape:zoom="3.075"
     inkscape:cx="100"
     inkscape:cy="99.837398"
     inkscape:window-width="1864"
     inkscape:window-height="1027"
     inkscape:window-x="60"
     inkscape:window-y="25"
     inkscape:window-maximized="1"
     inkscape:current-layer="svg1" />
  <path
     d="M 768,48.28618 H 256 A 128,116.76098 0 0 0 128,165.04715 V 865.61301 A 128,116.76098 0 0 0 256,982.37398 H 768 A 128,116.76098 0 0 0 896,865.61301 V 165.04715 A 128,116.76098 0 0 0 768,48.28618 Z M 544,310.99837 v 87.57073 h 96 a 32.000006,29.19025 0 0 1 0,58.3805 h -96 v 87.57073 a 32,29.190244 0 0 1 -64,0 V 456.9496 h -96 a 32.000006,29.19025 0 0 1 0,-58.3805 h 96 v -87.57073 a 32,29.190244 0 0 1 64,0 z M 384,632.09106 h 256 a 32,29.190244 0 0 1 0,58.38048 H 384 a 32,29.190244 0 0 1 0,-58.38048 z"
     p-id="51984"
     id="path1"
     style="stroke-width:0.955089" />
</svg>
