<?xml version="1.0" standalone="no"?><!DOCTYPE svg PUBLIC "-//W3C//DTD SVG 1.1//EN" "http://www.w3.org/Graphics/SVG/1.1/DTD/svg11.dtd"><svg t="1700401232460" class="icon" viewBox="0 0 1024 1024" version="1.1" xmlns="http://www.w3.org/2000/svg" p-id="5965" xmlns:xlink="http://www.w3.org/1999/xlink" width="200" height="200"><path d="M560.86064 480h-105.6v-94.4H560.86064V480z m0-326.4h-105.6v97.6H560.86064V153.6z m124.8 232h-105.6V480h105.6v-94.4z m-249.6-115.2h-105.6v96h105.6v-96z m124.8 0h-105.6v96H560.86064v-96z m443.2 160c-22.4-16-76.8-20.8-116.8-12.8-4.8-38.4-27.2-72-65.6-102.4l-22.4-14.4-14.4 22.4c-28.8 44.8-36.8 118.4-6.4 166.4-14.4 8-41.6 17.6-76.8 17.6H4.06064c-14.4 81.6 9.6 187.2 70.4 259.2 59.2 70.4 148.8 105.6 264 105.6 251.2 0 438.4-115.2 524.8-326.4 33.6 0 108.8 0 145.6-72 1.6-3.2 11.2-20.8 12.8-27.2l-17.6-16z m-817.6-44.8H80.86064V480h105.6v-94.4z m124.8 0h-105.6V480h105.6v-94.4z m124.8 0h-105.6V480h105.6v-94.4z m-124.8-115.2h-105.6v96h105.6v-96z" p-id="5966"></path></svg>