<?xml version="1.0" standalone="no"?><!DOCTYPE svg PUBLIC "-//W3C//DTD SVG 1.1//EN" "http://www.w3.org/Graphics/SVG/1.1/DTD/svg11.dtd"><svg class="icon" width="200px" height="200.00px" viewBox="0 0 1024 1024" version="1.1" xmlns="http://www.w3.org/2000/svg"><path d="M734.7712 510.7712L537.2928 313.344a34.9184 34.9184 0 0 1 49.3568-49.3568l222.208 222.208a34.816 34.816 0 0 1 0 49.3056l-222.208 222.208a34.9184 34.9184 0 1 1-49.3568-49.408l197.4784-197.4784z m-320 0L217.2928 313.344a34.9184 34.9184 0 1 1 49.3568-49.3568l222.208 222.208a34.816 34.816 0 0 1 0 49.3056l-222.208 222.208a34.9184 34.9184 0 0 1-49.3568-49.408l197.4784-197.4784z" /></svg>