<?xml version="1.0" standalone="no"?><!DOCTYPE svg PUBLIC "-//W3C//DTD SVG 1.1//EN" "http://www.w3.org/Graphics/SVG/1.1/DTD/svg11.dtd"><svg class="icon" width="200px" height="200.00px" viewBox="0 0 1024 1024" version="1.1" xmlns="http://www.w3.org/2000/svg"><path d="M904 864c0 22-18 40-40 40s-40-18-40-40 18-40 40-40 40 18 40 40z m-168-40c-22 0-40 18-40 40s18 40 40 40 40-18 40-40-18-40-40-40z m288-96v208c0 48.6-39.4 88-88 88H88c-48.6 0-88-39.4-88-88V728c0-48.6 39.4-88 88-88h198.8L174 527.2c-50.4-50.4-14.6-136.6 56.6-136.6H336V80c0-44.2 35.8-80 80-80h192c44.2 0 80 35.8 80 80v310.6h105.4c71.2 0 106.8 86.2 56.6 136.6L737.2 640H936c48.6 0 88 39.4 88 88z m-523.4 35.4c6.2 6.2 16.4 6.2 22.6 0L804.6 482c10-10 3-27.4-11.4-27.4H624V80c0-8.8-7.2-16-16-16h-192c-8.8 0-16 7.2-16 16v374.6h-169.4c-14.2 0-21.4 17.2-11.4 27.4l281.4 281.4zM960 728c0-13.2-10.8-24-24-24H673.2l-104.6 104.6c-31.2 31.2-82 31.2-113.2 0L350.8 704H88c-13.2 0-24 10.8-24 24v208c0 13.2 10.8 24 24 24h848c13.2 0 24-10.8 24-24V728z" /></svg>