<?xml version="1.0" standalone="no"?><!DOCTYPE svg PUBLIC "-//W3C//DTD SVG 1.1//EN" "http://www.w3.org/Graphics/SVG/1.1/DTD/svg11.dtd"><svg class="icon" width="200px" height="200.00px" viewBox="0 0 1024 1024" version="1.1" xmlns="http://www.w3.org/2000/svg"><path d="M819.2 768a51.2 51.2 0 0 1 0 102.4H204.8a51.2 51.2 0 0 1 0-102.4h614.4zM506.0096 153.9584L512 153.6a51.2 51.2 0 0 1 50.8416 45.2096L563.2 204.8v337.152l168.6016-168.5504a51.2 51.2 0 0 1 67.584-4.2496l4.8128 4.2496a51.2 51.2 0 0 1 4.2496 67.584l-4.2496 4.8128-256 256a51.2 51.2 0 0 1-67.584 4.2496l-4.8128-4.2496-256-256a51.2 51.2 0 0 1 67.584-76.6464l4.8128 4.2496L460.8 541.952V204.8a51.2 51.2 0 0 1 45.2096-50.8416L512 153.6l-5.9904 0.3584z" /></svg>