<?xml version="1.0" encoding="UTF-8" standalone="no"?>
<svg
   xmlns:dc="http://purl.org/dc/elements/1.1/"
   xmlns:cc="http://creativecommons.org/ns#"
   xmlns:rdf="http://www.w3.org/1999/02/22-rdf-syntax-ns#"
   xmlns:svg="http://www.w3.org/2000/svg"
   xmlns="http://www.w3.org/2000/svg"
   xmlns:sodipodi="http://sodipodi.sourceforge.net/DTD/sodipodi-0.dtd"
   xmlns:inkscape="http://www.inkscape.org/namespaces/inkscape"
   inkscape:version="1.0 (4035a4f, 2020-05-01)"
   sodipodi:docname="edit2.svg"
   id="svg45"
   version="1.1"
   viewBox="0 0 1024 1024"
   height="200.00px"
   width="200px"
   class="icon">
  <metadata
     id="metadata51">
    <rdf:RDF>
      <cc:Work
         rdf:about="">
        <dc:format>image/svg+xml</dc:format>
        <dc:type
           rdf:resource="http://purl.org/dc/dcmitype/StillImage" />
      </cc:Work>
    </rdf:RDF>
  </metadata>
  <defs
     id="defs49" />
  <sodipodi:namedview
     inkscape:current-layer="svg45"
     inkscape:window-maximized="1"
     inkscape:window-y="23"
     inkscape:window-x="0"
     inkscape:cy="162.63603"
     inkscape:cx="100"
     inkscape:zoom="4.135"
     showgrid="false"
     id="namedview47"
     inkscape:window-height="971"
     inkscape:window-width="1920"
     inkscape:pageshadow="2"
     inkscape:pageopacity="0"
     guidetolerance="10"
     gridtolerance="10"
     objecttolerance="10"
     borderopacity="1"
     bordercolor="#666666"
     pagecolor="#ffffff" />
  <path
     style="stroke-width:0.872879"
     id="path43"
     d="m 851.96996,76.740834 c 34.21793,13.273184 63.02429,32.821286 79.26775,67.228716 7.05515,14.9465 11.36518,30.37233 11.36518,47.06185 -0.0962,57.73792 0.20107,115.47583 -0.0437,173.21375 -0.0962,23.13003 -13.23607,37.7802 -32.01484,37.0917 -18.61266,-0.67977 -31.87495,-15.89644 -32.00608,-38.34669 -0.29725,-51.07953 0.2273,-102.15907 -0.0962,-153.22989 -0.31473,-50.16443 -20.10762,-69.50338 -70.61273,-69.5208 q -299.62105,-0.0959 -599.25085,0 c -49.10632,0.0436 -68.71562,19.88798 -68.71562,68.72773 v 624.00523 c 0,48.85717 19.61805,68.51856 68.72436,68.63186 55.68937,0.13073 111.38748,-0.14816 167.07686,0.15687 23.69202,0.13073 38.63286,11.59988 40.41631,29.63153 1.89712,19.17334 -12.19571,34.75607 -34.20918,34.92161 -66.08414,0.48805 -132.21199,1.51649 -198.24367,-0.47055 C 125.77007,964.10064 75.876939,909.97956 75.343649,850.49861 74.609284,763.93967 75.098862,677.32844 75.081377,590.75207 75.063892,466.36064 76.91729,341.96049 74.347011,217.6562 72.887022,147.73451 100.75794,101.46573 165.76675,76.740834 Z M 969.36349,566.71567 c 0.17486,-42.62583 -32.5481,-89.85327 -73.17424,-106.62123 -42.94289,-17.72663 -78.682,-7.31201 -110.88043,25.38725 -74.80035,76.03103 -148.69149,153.1166 -226.73529,225.72257 -50.32151,46.87883 -69.01286,105.64513 -80.98127,168.4204 -8.13921,42.59098 21.34031,79.05516 63.07674,74.50588 55.50578,-6.05701 109.75265,-21.2214 150.94705,-62.99315 83.18436,-84.38887 165.54693,-169.57081 248.47775,-254.19499 19.6618,-20.04486 30.90459,-43.08773 29.26969,-70.2093 z M 546.9111,905.43025 c -16.61064,1.48157 -20.38737,-5.41212 -17.96572,-16.08819 11.53129,-50.81808 26.22733,-99.71882 65.11373,-138.33568 54.70148,-54.28671 108.15278,-109.81098 161.24564,-165.70128 11.73237,-12.34938 18.8662,-12.46267 30.02156,-0.18302 17.92201,19.73112 37.01551,38.43385 56.1702,57.01456 8.86484,8.60186 8.81239,15.06851 0.13989,24.01897 -61.37196,63.32433 -121.94837,127.40688 -183.59134,190.42618 -31.23675,31.90619 -75.40359,36.01103 -111.09024,48.84846 z M 918.465,570.19302 c -0.31473,8.07895 0,16.04461 -4.9832,23.40019 -14.05784,20.62878 -21.65503,21.66589 -39.25358,4.23557 -17.89577,-17.72663 -35.26702,-36.01974 -53.70483,-53.16246 -10.21992,-9.50823 -8.92603,-15.33867 0.64694,-24.89049 16.41832,-16.38449 34.34033,-19.26921 54.83261,-11.25998 26.49836,10.3449 42.52325,34.07627 42.46206,61.68589 z M 502.82296,240.23718 q -96.85754,0 -193.71508,0.0784 c -8.113,0 -16.50575,0 -24.26903,2.00449 -15.86753,4.0264 -26.29728,14.0924 -26.40218,31.31356 -0.10492,17.22114 9.50304,27.69676 25.86889,31.37456 a 120.64573,120.26917 0 0 0 26.42841,2.74527 q 191.45953,0.25274 382.98901,0.14816 c 11.19906,0 22.42437,-0.18302 32.86284,-4.50573 12.82517,-5.31625 19.77541,-15.08595 19.77541,-29.30036 0,-14.03141 -6.25084,-23.9754 -19.23337,-29.69255 -9.80902,-4.35757 -20.20379,-4.21813 -30.59856,-4.20941 H 502.81422 Z m -67.46544,233.04329 c 48.24081,0 96.49035,0.39219 144.72242,-0.22659 20.91193,-0.27017 35.6954,-14.33644 36.12378,-31.80161 0.45461,-18.65043 -14.40755,-32.09792 -36.91934,-32.78642 -14.08408,-0.43576 -28.20313,-0.13944 -42.30469,-0.13944 -80.15948,0 -160.31021,-0.19173 -240.46968,0.16558 -26.91799,0.12202 -43.71223,18.51972 -36.98054,40.00258 5.62139,17.89222 19.53062,24.8992 37.7761,24.84691 46.01148,-0.11329 92.03172,0 138.0432,-0.0697 z m -63.45267,169.07405 c 28.16816,0 56.33631,0.2876 84.49573,-0.0697 19.23338,-0.24401 30.51987,-10.54533 32.48692,-29.52694 a 30.782147,30.686068 0 0 0 -30.43245,-34.11112 q -84.45202,-1.6646 -168.95648,-0.12202 c -19.56559,0.33989 -31.90118,15.49555 -31.40286,33.40519 0.50706,18.30183 12.76396,29.86685 33.75458,30.27646 26.6732,0.52291 53.32891,0.13073 80.04582,0.14816 z" />
</svg>
