<?xml version="1.0" encoding="UTF-8" standalone="no"?>
<svg
   xmlns:dc="http://purl.org/dc/elements/1.1/"
   xmlns:cc="http://creativecommons.org/ns#"
   xmlns:rdf="http://www.w3.org/1999/02/22-rdf-syntax-ns#"
   xmlns:svg="http://www.w3.org/2000/svg"
   xmlns="http://www.w3.org/2000/svg"
   xmlns:sodipodi="http://sodipodi.sourceforge.net/DTD/sodipodi-0.dtd"
   xmlns:inkscape="http://www.inkscape.org/namespaces/inkscape"
   inkscape:version="1.0 (4035a4f, 2020-05-01)"
   sodipodi:docname="edit-selected.svg"
   id="svg24"
   version="1.1"
   viewBox="0 0 1024 1024"
   height="200.00px"
   width="200px"
   class="icon">
  <metadata
     id="metadata30">
    <rdf:RDF>
      <cc:Work
         rdf:about="">
        <dc:format>image/svg+xml</dc:format>
        <dc:type
           rdf:resource="http://purl.org/dc/dcmitype/StillImage" />
      </cc:Work>
    </rdf:RDF>
  </metadata>
  <defs
     id="defs28" />
  <sodipodi:namedview
     inkscape:current-layer="svg24"
     inkscape:window-maximized="1"
     inkscape:window-y="23"
     inkscape:window-x="0"
     inkscape:cy="100"
     inkscape:cx="100"
     inkscape:zoom="4.135"
     showgrid="false"
     id="namedview26"
     inkscape:window-height="971"
     inkscape:window-width="1920"
     inkscape:pageshadow="2"
     inkscape:pageopacity="0"
     guidetolerance="10"
     gridtolerance="10"
     objecttolerance="10"
     borderopacity="1"
     bordercolor="#666666"
     pagecolor="#ffffff" />
  <path
     stroke='currentColor' stroke-width="10" 
     d="M 155.86126,648.31311 617.99114,192.28024 a 27.685452,27.31698 0 0 1 0.86857,-0.85699 l 73.93646,-72.95239 c 37.99963,-37.493901 99.61333,-37.493901 137.5587,0 l 74.42501,73.40767 a 97.360504,96.06471 0 0 1 -0.0272,135.72791 l -73.28503,72.30965 a 27.522596,27.156292 0 0 1 -3.03997,2.99949 l -461.0442,454.80094 a 27.604023,27.236636 0 0 1 -1.62854,1.60687 l -8.00709,7.90048 a 27.142601,26.781353 0 0 1 -12.97415,7.12384 L 118.07876,926.83916 A 27.142601,26.781353 0 0 1 85.453361,894.648 L 138.65285,671.02372 a 27.142601,26.781353 0 0 1 7.21993,-12.85507 l 7.68137,-7.55234 a 27.57688,27.209853 0 0 1 2.30711,-2.3032 z M 212.29073,668.39912 347.37944,801.71671 772.43253,382.42787 637.58812,248.70857 212.26358,668.39912 Z m -28.58115,47.56367 -35.39396,148.85077 150.85856,-34.92289 z m 492.25817,-505.12306 134.84444,133.71928 55.53374,-54.79462 a 43.075304,42.502005 0 0 0 0,-59.99024 l -74.37071,-73.43448 a 42.993878,42.42166 0 0 0 -60.79943,0 z" />
  <path
     style="stroke-width:0.399138"
     d="M 758.99787,570.59388 A 173.5454,178.49749 0 0 0 585.45245,749.09144 173.5454,178.49749 0 0 0 758.99787,927.6407 173.5454,178.49749 0 0 0 932.59357,749.11727 173.5454,178.49749 0 0 0 758.99787,570.59388 Z M 864.00658,706.70791 747.53734,826.50075 a 15.566191,16.010371 0 0 1 -22.0901,0 l -57.12625,-58.75652 a 15.566191,16.010371 0 0 1 0,-22.6943 15.566191,16.010371 0 0 1 22.06469,0 l 46.06877,47.40938 105.38674,-108.41976 a 15.566191,16.010371 0 0 1 22.06468,0 c 6.17108,6.21758 6.17108,16.39895 0.1016,22.66836 z"
     id="path74" />
</svg>
