<?xml version="1.0" encoding="UTF-8" standalone="no"?>
<svg
   xmlns:dc="http://purl.org/dc/elements/1.1/"
   xmlns:cc="http://creativecommons.org/ns#"
   xmlns:rdf="http://www.w3.org/1999/02/22-rdf-syntax-ns#"
   xmlns:svg="http://www.w3.org/2000/svg"
   xmlns="http://www.w3.org/2000/svg"
   xmlns:sodipodi="http://sodipodi.sourceforge.net/DTD/sodipodi-0.dtd"
   xmlns:inkscape="http://www.inkscape.org/namespaces/inkscape"
   width="640px"
   height="640px"
   viewBox="0 0 640 640"
   version="1.1"
   id="svg105"
   sodipodi:docname="empty.svg"
   inkscape:version="1.0 (4035a4f, 2020-05-01)">
  <metadata
     id="metadata109">
    <rdf:RDF>
      <cc:Work
         rdf:about="">
        <dc:format>image/svg+xml</dc:format>
        <dc:type
           rdf:resource="http://purl.org/dc/dcmitype/StillImage" />
      </cc:Work>
    </rdf:RDF>
  </metadata>
  <sodipodi:namedview
     inkscape:document-rotation="0"
     pagecolor="#ffffff"
     bordercolor="#666666"
     borderopacity="1"
     objecttolerance="10"
     gridtolerance="10"
     guidetolerance="10"
     inkscape:pageopacity="0"
     inkscape:pageshadow="2"
     inkscape:window-width="1383"
     inkscape:window-height="847"
     id="namedview107"
     showgrid="false"
     inkscape:zoom="1.090625"
     inkscape:cx="320"
     inkscape:cy="320"
     inkscape:window-x="57"
     inkscape:window-y="25"
     inkscape:window-maximized="1"
     inkscape:current-layer="g99" />
  <defs
     id="defs65">
    <linearGradient
       x1="50%"
       y1="0%"
       x2="50%"
       y2="65.785099%"
       id="linearGradient-1">
      <stop
         stop-color="#FCFDFE"
         offset="0%"
         id="stop10" />
      <stop
         stop-color="#E6F1FD"
         stop-opacity="0"
         offset="100%"
         id="stop12" />
    </linearGradient>
    <linearGradient
       x1="23.7450116%"
       y1="50.0060613%"
       x2="76.2549884%"
       y2="50%"
       id="linearGradient-2">
      <stop
         stop-color="#E0EDFF"
         offset="0%"
         id="stop15" />
      <stop
         stop-color="#E1EBFB"
         offset="100%"
         id="stop17" />
    </linearGradient>
    <linearGradient
       x1="0%"
       y1="50.0060613%"
       x2="166.185627%"
       y2="50.0060613%"
       id="linearGradient-3">
      <stop
         stop-color="#DFEDF8"
         offset="0%"
         id="stop20" />
      <stop
         stop-color="#D1E1FC"
         offset="100%"
         id="stop22" />
    </linearGradient>
    <linearGradient
       x1="53.6993828%"
       y1="79.9792893%"
       x2="61.1432642%"
       y2="9.62868645%"
       id="linearGradient-4">
      <stop
         stop-color="#D4E4FF"
         offset="0%"
         id="stop25" />
      <stop
         stop-color="#D0E2FF"
         offset="100%"
         id="stop27" />
    </linearGradient>
    <linearGradient
       x1="121.886927%"
       y1="50%"
       x2="29.1475836%"
       y2="50%"
       id="linearGradient-5">
      <stop
         stop-color="#FFFFFF"
         offset="0%"
         id="stop30" />
      <stop
         stop-color="#E0ECFB"
         offset="100%"
         id="stop32" />
    </linearGradient>
    <linearGradient
       x1="50%"
       y1="14.707682%"
       x2="50%"
       y2="99.2637573%"
       id="linearGradient-6">
      <stop
         stop-color="#CCDCFA"
         offset="0%"
         id="stop35" />
      <stop
         stop-color="#C0DBFF"
         offset="100%"
         id="stop37" />
    </linearGradient>
    <linearGradient
       x1="15.24962%"
       y1="51.3855989%"
       x2="93.283446%"
       y2="50%"
       id="linearGradient-7">
      <stop
         stop-color="#DBE8FE"
         offset="0%"
         id="stop40" />
      <stop
         stop-color="#F6FAFF"
         offset="100%"
         id="stop42" />
    </linearGradient>
    <linearGradient
       x1="15.24962%"
       y1="50.8695695%"
       x2="93.283446%"
       y2="50%"
       id="linearGradient-8">
      <stop
         stop-color="#D5E5FF"
         offset="0%"
         id="stop45" />
      <stop
         stop-color="#F6FAFF"
         offset="100%"
         id="stop47" />
    </linearGradient>
    <linearGradient
       x1="50%"
       y1="14.707682%"
       x2="50%"
       y2="100%"
       id="linearGradient-9">
      <stop
         stop-color="#CCDDFC"
         offset="0%"
         id="stop50" />
      <stop
         stop-color="#BDD8FB"
         offset="100%"
         id="stop52" />
    </linearGradient>
    <linearGradient
       x1="15.24962%"
       y1="53.9920444%"
       x2="169.103538%"
       y2="-20.9583738%"
       id="linearGradient-10">
      <stop
         stop-color="#A7C5F6"
         offset="0%"
         id="stop55" />
      <stop
         stop-color="#E9F1FB"
         offset="100%"
         id="stop57" />
    </linearGradient>
    <linearGradient
       x1="15.24962%"
       y1="54.2083665%"
       x2="93.283446%"
       y2="50%"
       id="linearGradient-11">
      <stop
         stop-color="#D4E4FD"
         offset="0%"
         id="stop60" />
      <stop
         stop-color="#F6FAFF"
         offset="100%"
         id="stop62" />
    </linearGradient>
  </defs>
  <g
     stroke="none"
     stroke-width="1"
     fill="none"
     fill-rule="evenodd"
     id="g103"
     style="opacity:1">
    <g
       transform="translate(-122,-7705)"
       id="g101">
      <g
         transform="translate(122,7705)"
         id="g99">
        <rect
           fill-opacity="0"
           fill="#ffffff"
           x="0"
           y="0"
           width="640"
           height="640"
           id="rect67" />
        <g
           style="opacity:0.7"
           transform="translate(140,297)"
           id="g87">
          <polygon
             fill="url(#linearGradient-2)"
             fill-rule="nonzero"
             points="320,207 170,182.65618 170,-2.2737367e-13 319.14286,26.86421 "
             id="polygon72" />
          <polygon
             fill="url(#linearGradient-3)"
             fill-rule="nonzero"
             points="40,211 170,182.78652 170,-2.2737367e-13 40,28.239059 "
             id="polygon74" />
          <polygon
             fill="url(#linearGradient-4)"
             fill-rule="nonzero"
             points="189,238 40,211.07101 40,28 189,54.903368 "
             id="polygon76" />
          <path
             d="m 62.463563,162.7686 101.072877,17.40429 c 2.57904,0.44409 4.46356,2.68086 4.46356,5.29786 0,2.10751 -1.70848,3.81599 -3.816,3.81599 -0.21703,0 -0.43367,-0.0185 -0.64756,-0.0554 L 62.463563,171.82711 C 59.884523,171.38301 58,169.14625 58,166.52925 c 0,-2.10751 1.70848,-3.81599 3.815996,-3.81599 0.217037,0 0.433678,0.0185 0.647567,0.0553 z"
             id="矩形备份-7"
             fill="#c2d9ff"
             fill-rule="nonzero" />
          <path
             d="m 62.643125,100.75637 101.160785,16.47915 c 2.41924,0.3941 4.19609,2.48382 4.19609,4.93495 v 42.1252 c 0,2.20914 -1.79086,4 -4,4 -0.21543,0 -0.4305,-0.0174 -0.64313,-0.052 L 62.196093,151.76448 C 59.776852,151.37038 58,149.28066 58,146.82952 v -42.12519 c 0,-2.20914 1.790861,-4 4,-4 0.215427,0 0.430501,0.0174 0.643125,0.052 z"
             id="矩形"
             fill="#c2d9ff" />
          <path
             d="m 62.463563,185.7686 101.072877,17.40429 c 2.57904,0.44409 4.46356,2.68086 4.46356,5.29786 0,2.10751 -1.70848,3.81599 -3.816,3.81599 -0.21703,0 -0.43367,-0.0185 -0.64756,-0.0554 L 62.463563,194.82711 C 59.884523,194.38301 58,192.14625 58,189.52925 c 0,-2.10751 1.70848,-3.81599 3.815996,-3.81599 0.217037,0 0.433678,0.0185 0.647567,0.0553 z"
             id="矩形备份-8"
             fill="#c2d9ff"
             fill-rule="nonzero" />
          <polygon
             fill="url(#linearGradient-5)"
             fill-rule="nonzero"
             points="149.57822,99 0,72.19648 40.421785,28 190,54.778017 "
             id="polygon81" />
          <polygon
             fill="url(#linearGradient-6)"
             points="189,55.444605 320,26 320,207.17973 189.40567,238 "
             id="polygon83" />
          <polygon
             fill="url(#linearGradient-7)"
             fill-rule="nonzero"
             points="360,70.618259 319.76798,26 190,54.381741 230.23202,99 "
             id="polygon85" />
        </g>
        <g
           style="opacity:0.7"
           id="paperplane_4_"
           transform="translate(190,117)">
          <path
             d="m 48.426636,122.82209 c -1.919946,0 -3.888799,-0.0417 -5.852063,-0.12514 -0.385666,-0.0167 -0.684697,-0.34065 -0.669327,-0.72441 0.01537,-0.38375 0.374488,-0.69242 0.728015,-0.666 1.945098,0.082 3.894389,0.12375 5.793375,0.12375 l 1.155601,-0.006 c 0.0014,0 0.0042,0 0.0056,0 0.382871,0 0.695876,0.30728 0.698689,0.68965 0.0028,0.38375 -0.306036,0.69798 -0.6931,0.70076 z m 8.139512,-0.25862 c -0.366104,0 -0.672121,-0.28225 -0.697274,-0.65071 -0.02515,-0.38376 0.266893,-0.71467 0.652559,-0.73831 2.323778,-0.14877 4.647556,-0.36846 6.908453,-0.65071 0.387064,-0.0445 0.732207,0.22246 0.781114,0.60344 0.04891,0.38097 -0.223575,0.72857 -0.606446,0.77724 -2.288845,0.28642 -4.641967,0.50888 -6.993691,0.65905 -0.01537,0 -0.02934,0 -0.04472,0 z M 35.63398,122.23672 c -0.02096,0 -0.04192,0 -0.06288,-0.003 -2.294434,-0.20578 -4.639172,-0.46717 -6.971334,-0.77863 -0.382872,-0.0514 -0.651161,-0.40183 -0.59946,-0.78141 0.0517,-0.37958 0.402435,-0.64932 0.785306,-0.59648 2.312599,0.30867 4.637775,0.56867 6.911248,0.77167 0.384269,0.0348 0.667929,0.37263 0.632996,0.755 -0.03354,0.36011 -0.338157,0.63263 -0.695876,0.63263 z m 34.778419,-1.421 c -0.328375,0 -0.620419,-0.2308 -0.684697,-0.56311 -0.07406,-0.3768 0.174668,-0.74109 0.553347,-0.81478 2.294434,-0.44354 4.56651,-0.96634 6.753349,-1.55448 0.370295,-0.0987 0.757359,0.11819 0.85657,0.49081 0.100608,0.37124 -0.120171,0.75222 -0.493262,0.85233 -2.218977,0.59648 -4.52459,1.12762 -6.851162,1.57672 -0.04471,0.008 -0.08943,0.0125 -0.134145,0.0125 z m -48.62467,-0.41851 c -0.04052,0 -0.08105,-0.003 -0.121569,-0.01 -2.262295,-0.39488 -4.577689,-0.84259 -6.881904,-1.33341 -0.377282,-0.0806 -0.617625,-0.4491 -0.536579,-0.82451 0.08105,-0.37541 0.452738,-0.61873 0.828623,-0.53392 2.288844,0.48665 4.58747,0.93158 6.8316,1.32228 0.380077,0.0667 0.634393,0.42686 0.56732,0.80505 -0.06009,0.33648 -0.353527,0.57424 -0.687491,0.57424 z M 8.1259261,117.49682 c -0.057291,0 -0.1131846,-0.007 -0.1704756,-0.0209 -1.1863425,-0.29477 -2.3824663,-0.60344 -3.5883716,-0.92601 -0.37309,-0.10011 -0.5938699,-0.48108 -0.4946587,-0.85093 0.1006086,-0.37124 0.4848773,-0.58954 0.8551727,-0.49221 1.1989185,0.3198 2.3866583,0.62707 3.5660141,0.92045 0.3744874,0.0932 0.602254,0.46996 0.5072348,0.84259 -0.076854,0.31701 -0.3619113,0.52697 -0.6749157,0.52697 z m 75.7540449,-0.3198 c -0.287852,0 -0.556141,-0.17658 -0.658147,-0.46161 -0.129953,-0.36151 0.05869,-0.75917 0.423394,-0.88848 2.195223,-0.78002 4.352717,-1.6518 6.413795,-2.59033 0.349335,-0.16268 0.764345,-0.006 0.926437,0.34343 0.160694,0.34899 0.007,0.76056 -0.345143,0.92184 -2.096012,0.95661 -4.292632,1.8423 -6.525583,2.63483 -0.07825,0.0278 -0.157899,0.0403 -0.234753,0.0403 z m 12.67528,-5.79801 c -0.24174,0 -0.476493,-0.12375 -0.605049,-0.3476 -0.19423,-0.33231 -0.07965,-0.75777 0.254316,-0.94965 2.019158,-1.16238 3.968452,-2.42209 5.793372,-3.74438 0.31301,-0.22524 0.74898,-0.15711 0.97675,0.15295 0.22776,0.31006 0.1579,0.74526 -0.15371,0.9719 -1.86406,1.35008 -3.853869,2.63621 -5.916344,3.82362 -0.11039,0.064 -0.230561,0.0932 -0.349335,0.0932 z m 11.251389,-8.18951 c -0.18724,0 -0.37588,-0.0751 -0.51282,-0.22247 -0.13834,-0.14877 -0.19982,-0.34204 -0.18445,-0.52835 -0.78531,-0.0876 -1.55245,-0.19744 -2.30003,-0.32953 -0.38007,-0.0667 -0.63439,-0.42686 -0.56592,-0.80505 0.0657,-0.37819 0.43038,-0.63264 0.80906,-0.56312 1.01866,0.17798 2.07505,0.31563 3.16358,0.41157 1.38756,-1.336188 2.6787,-2.725207 3.85387,-4.142035 0.24593,-0.294767 0.6847,-0.337869 0.98373,-0.09316 0.29763,0.244712 0.33955,0.682691 0.0936,0.978848 -0.95299,1.148479 -1.98004,2.278887 -3.07136,3.380087 0.59527,0.0264 1.19752,0.0403 1.80676,0.0431 0.38567,0.001 0.69728,0.31423 0.69588,0.69798 -0.001,0.38236 -0.3144,0.69243 -0.69867,0.69243 -10e-4,0 -10e-4,0 -0.003,0 -1.07036,-0.004 -2.12256,-0.0459 -3.1482,-0.12097 -0.14812,0.14043 -0.29764,0.27808 -0.44715,0.41573 -0.13555,0.12375 -0.30602,0.18493 -0.4751,0.18493 z m 11.04179,-0.90655 c -0.34934,0 -0.64976,-0.25862 -0.69308,-0.61178 -0.0461,-0.38097 0.22637,-0.72719 0.61064,-0.77446 2.17985,-0.26279 4.47288,-0.65766 6.81483,-1.170724 0.37868,-0.08482 0.75037,0.152945 0.83281,0.528354 0.0825,0.37541 -0.1551,0.74665 -0.53099,0.82869 -2.38665,0.52279 -4.72301,0.92601 -6.94897,1.19436 -0.028,0.004 -0.0573,0.006 -0.0852,0.006 z M 98.244636,100.1737 c -0.09222,0 -0.187243,-0.0181 -0.276673,-0.057 -2.300023,-0.98719 -4.347128,-2.255244 -6.088215,-3.76801 -0.290647,-0.253055 -0.319991,-0.692424 -0.06568,-0.981629 0.252919,-0.290596 0.695876,-0.318404 0.986523,-0.06535 1.630697,1.418219 3.556233,2.608409 5.722111,3.538594 0.353527,0.151554 0.517016,0.561725 0.364706,0.913499 -0.115979,0.262786 -0.37309,0.419906 -0.642777,0.419906 z m 34.243234,-0.832858 c -0.30182,0 -0.57989,-0.196047 -0.66932,-0.497767 -0.109,-0.368458 0.102,-0.754992 0.4709,-0.864835 2.25391,-0.664615 4.48267,-1.333403 6.68488,-2.006361 0.3689,-0.115404 0.76015,0.09316 0.87334,0.460226 0.11318,0.367068 -0.0936,0.756383 -0.46252,0.869006 -2.2064,0.674349 -4.44075,1.345917 -6.69746,2.010533 -0.0671,0.02086 -0.13414,0.0292 -0.19982,0.0292 z m 13.36277,-4.083634 c -0.29623,0 -0.57151,-0.189096 -0.66653,-0.485253 -0.11598,-0.365678 0.0866,-0.756383 0.45414,-0.873177 2.25391,-0.713281 4.47009,-1.425171 6.64575,-2.13567 0.3689,-0.118185 0.76016,0.07786 0.88172,0.443541 0.12018,0.364287 -0.0796,0.757773 -0.44575,0.877348 -2.17985,0.71189 -4.40022,1.425171 -6.65833,2.139841 -0.0699,0.02364 -0.14113,0.03337 -0.211,0.03337 z m -29.22957,-2.790553 c -0.12017,0 -0.24174,-0.03059 -0.35213,-0.09594 -0.33257,-0.194657 -0.44436,-0.620123 -0.24873,-0.95104 1.2073,-2.049465 2.17566,-4.125347 2.87433,-6.167859 0.12436,-0.362897 0.52261,-0.560335 0.88592,-0.433808 0.3661,0.123747 0.56033,0.518623 0.43597,0.88152 -0.72942,2.131499 -1.7369,4.292196 -2.99171,6.423694 -0.12995,0.221075 -0.36471,0.343431 -0.60365,0.343431 z M 88.030074,91.104054 c -0.252919,0 -0.494659,-0.136261 -0.62042,-0.374021 -1.126256,-2.146793 -1.809556,-4.463216 -2.035925,-6.883919 -0.03493,-0.382363 0.247329,-0.720233 0.631598,-0.756383 0.388461,-0.03476 0.723822,0.246102 0.760153,0.628465 0.208204,2.23856 0.842597,4.382572 1.883616,6.369468 0.177462,0.34065 0.04611,0.760554 -0.296236,0.937136 -0.104801,0.05423 -0.215191,0.07925 -0.322786,0.07925 z m 71.105096,-0.183535 c -0.29065,0 -0.56313,-0.182143 -0.66234,-0.472739 -0.12297,-0.364287 0.0727,-0.757773 0.43736,-0.88152 2.2595,-0.759164 4.46451,-1.512766 6.60663,-2.253854 0.36191,-0.126528 0.76295,0.06535 0.88871,0.428246 0.12716,0.362897 -0.0657,0.757773 -0.43038,0.884301 -2.14492,0.742479 -4.35412,1.497471 -6.61781,2.258025 -0.0727,0.02642 -0.14812,0.03754 -0.22217,0.03754 z m 13.20487,-4.567496 c -0.28786,0 -0.55614,-0.176582 -0.65815,-0.461616 -0.12995,-0.361507 0.0587,-0.759164 0.42339,-0.888472 2.28326,-0.810609 4.47569,-1.601753 6.56751,-2.366478 0.3647,-0.133479 0.76294,0.05284 0.89709,0.412952 0.13275,0.360116 -0.0531,0.760554 -0.41501,0.892643 -2.09601,0.764725 -4.29263,1.557259 -6.57868,2.370649 -0.0782,0.02781 -0.1579,0.04032 -0.23615,0.04032 z m 13.12522,-4.791353 c -0.28226,0 -0.54915,-0.172411 -0.65395,-0.450493 -0.13694,-0.358726 0.0461,-0.760554 0.40802,-0.895424 2.36011,-0.885691 4.54276,-1.715766 6.52558,-2.479101 0.36051,-0.139041 0.76435,0.03893 0.90408,0.397657 0.13973,0.358726 -0.0391,0.760555 -0.39964,0.899596 -1.98702,0.764725 -4.17386,1.59619 -6.53816,2.483272 -0.081,0.03059 -0.16349,0.04449 -0.24593,0.04449 z M 120.9137,79.378726 c -0.0112,0 -0.021,0 -0.0321,0 -0.38567,-0.01807 -0.6833,-0.34204 -0.66653,-0.725794 0.0126,-0.290595 0.0196,-0.57702 0.0196,-0.862054 0,-2.073101 -0.35213,-3.973791 -1.04801,-5.650626 -0.14672,-0.354555 0.0224,-0.761945 0.37868,-0.907938 0.35493,-0.144602 0.76575,0.02225 0.91247,0.376801 0.76714,1.846465 1.1556,3.926518 1.1556,6.181763 0,0.3045 -0.007,0.613171 -0.021,0.924623 -0.0182,0.371239 -0.32838,0.663225 -0.69867,0.663225 z M 86.757096,77.601782 c -0.06567,0 -0.134145,-0.0097 -0.201217,-0.0292 -0.368898,-0.109843 -0.579896,-0.497767 -0.468109,-0.866226 0.70426,-2.344231 1.838901,-4.47851 3.368989,-6.345831 0.243137,-0.297547 0.6833,-0.343431 0.983728,-0.09872 0.299031,0.241931 0.343746,0.679911 0.100608,0.977458 -1.414109,1.725499 -2.462114,3.698491 -3.114673,5.86614 -0.09083,0.301719 -0.3675,0.496376 -0.669326,0.496376 z M 198.50804,76.536728 c -0.27667,0 -0.53937,-0.165458 -0.64837,-0.437979 -0.14392,-0.355945 0.0308,-0.760554 0.38986,-0.902376 4.1529,-1.649026 6.4669,-2.620923 6.47109,-2.622313 0.35492,-0.150164 0.76434,0.01529 0.91526,0.369849 0.14951,0.353164 -0.0168,0.761945 -0.3717,0.910719 0,0 -2.32517,0.976067 -6.49763,2.633436 -0.0852,0.03337 -0.17187,0.04866 -0.25851,0.04866 z m -83.01183,-9.285157 c -0.13415,0 -0.26969,-0.03893 -0.38986,-0.118185 -1.71174,-1.148479 -3.80356,-1.885396 -6.21677,-2.191286 -0.38287,-0.04866 -0.65256,-0.397658 -0.60505,-0.77863 0.0489,-0.379582 0.40383,-0.636808 0.78251,-0.602048 2.63259,0.333699 4.92703,1.148479 6.82042,2.417923 0.31999,0.214124 0.40384,0.646541 0.18864,0.964945 -0.13414,0.200219 -0.35492,0.307281 -0.57989,0.307281 z M 95.374498,67.131995 c -0.251522,0 -0.494659,-0.134869 -0.619022,-0.37263 -0.17886,-0.34065 -0.04751,-0.760554 0.293441,-0.938526 1.646068,-0.859274 3.447241,-1.479397 5.354613,-1.845074 0.51282,-0.09733 1.01726,-0.183534 1.51052,-0.255836 0.37868,-0.05423 0.7364,0.205781 0.79369,0.585363 0.0573,0.379582 -0.2068,0.732746 -0.58828,0.789753 -0.47509,0.06952 -0.95857,0.151554 -1.45183,0.246102 -1.77323,0.33926 -3.44445,0.91489 -4.968949,1.710205 -0.103403,0.05562 -0.21519,0.08064 -0.324183,0.08064 z"
             id="Shape"
             fill="#d1ddf3"
             fill-rule="nonzero"
             transform="rotate(-10,104.76974,93.190184)" />
          <g
             id="Group"
             transform="rotate(-10,172.25316,-957.84682)">
            <polygon
               id="Path"
               fill="url(#linearGradient-8)"
               fill-rule="nonzero"
               points="0.83526941,17.671566 21.428356,28.179387 83.207615,0.15805721 " />
            <polygon
               id="polygon91"
               fill="url(#linearGradient-9)"
               points="24.860072,45.691473 21.428356,28.179387 83.207615,0.15805721 " />
            <polygon
               id="polygon93"
               fill="url(#linearGradient-10)"
               fill-rule="nonzero"
               points="24.860072,45.691473 31.724899,31.68152 48.886269,28.179387 " />
            <polygon
               id="polygon95"
               fill="url(#linearGradient-11)"
               fill-rule="nonzero"
               points="31.724899,31.68152 48.886269,38.685785 83.207615,0.15805721 " />
          </g>
        </g>
      </g>
    </g>
  </g>
</svg>
