<?xml version="1.0" encoding="UTF-8"?>
<svg width="640px" height="640px" viewBox="0 0 640 640" version="1.1" xmlns="http://www.w3.org/2000/svg" xmlns:xlink="http://www.w3.org/1999/xlink">
    <defs>
        <linearGradient x1="50%" y1="0%" x2="50%" y2="65.785099%" id="linearGradient-1">
            <stop stop-color="#FCFDFE" offset="0%"></stop>
            <stop stop-color="#E6F1FD" stop-opacity="0" offset="100%"></stop>
        </linearGradient>
        <linearGradient x1="23.7450116%" y1="50.0060613%" x2="76.2549884%" y2="50%" id="linearGradient-2">
            <stop stop-color="#E0EDFF" offset="0%"></stop>
            <stop stop-color="#E1EBFB" offset="100%"></stop>
        </linearGradient>
        <linearGradient x1="0%" y1="50.0060613%" x2="166.185627%" y2="50.0060613%" id="linearGradient-3">
            <stop stop-color="#DFEDF8" offset="0%"></stop>
            <stop stop-color="#D1E1FC" offset="100%"></stop>
        </linearGradient>
        <linearGradient x1="53.6993828%" y1="79.9792893%" x2="61.1432642%" y2="9.62868645%" id="linearGradient-4">
            <stop stop-color="#D4E4FF" offset="0%"></stop>
            <stop stop-color="#D0E2FF" offset="100%"></stop>
        </linearGradient>
        <linearGradient x1="121.886927%" y1="50%" x2="29.1475836%" y2="50%" id="linearGradient-5">
            <stop stop-color="#FFFFFF" offset="0%"></stop>
            <stop stop-color="#E0ECFB" offset="100%"></stop>
        </linearGradient>
        <linearGradient x1="50%" y1="14.707682%" x2="50%" y2="99.2637573%" id="linearGradient-6">
            <stop stop-color="#CCDCFA" offset="0%"></stop>
            <stop stop-color="#C0DBFF" offset="100%"></stop>
        </linearGradient>
        <linearGradient x1="15.24962%" y1="51.3855989%" x2="93.283446%" y2="50%" id="linearGradient-7">
            <stop stop-color="#DBE8FE" offset="0%"></stop>
            <stop stop-color="#F6FAFF" offset="100%"></stop>
        </linearGradient>
        <linearGradient x1="15.24962%" y1="50.8695695%" x2="93.283446%" y2="50%" id="linearGradient-8">
            <stop stop-color="#D5E5FF" offset="0%"></stop>
            <stop stop-color="#F6FAFF" offset="100%"></stop>
        </linearGradient>
        <linearGradient x1="50%" y1="14.707682%" x2="50%" y2="100%" id="linearGradient-9">
            <stop stop-color="#CCDDFC" offset="0%"></stop>
            <stop stop-color="#BDD8FB" offset="100%"></stop>
        </linearGradient>
        <linearGradient x1="15.24962%" y1="53.9920444%" x2="169.103538%" y2="-20.9583738%" id="linearGradient-10">
            <stop stop-color="#A7C5F6" offset="0%"></stop>
            <stop stop-color="#E9F1FB" offset="100%"></stop>
        </linearGradient>
        <linearGradient x1="15.24962%" y1="54.2083665%" x2="93.283446%" y2="50%" id="linearGradient-11">
            <stop stop-color="#D4E4FD" offset="0%"></stop>
            <stop stop-color="#F6FAFF" offset="100%"></stop>
        </linearGradient>
    </defs>
    <g stroke="none" stroke-width="1" fill="none" fill-rule="evenodd">
        <g transform="translate(-122.000000, -7705.000000)">
            <g transform="translate(122.000000, 7705.000000)">
                <rect fill-opacity="0" fill="#FFFFFF" x="0" y="0" width="640" height="640"></rect>
                <circle fill="url(#linearGradient-1)" cx="320" cy="320" r="240"></circle>
                <path d="M320,547 C419.411255,547 500,530.454413 500,518.551724 C500,506.649036 419.411255,497 320,497 C220.588745,497 140,506.649036 140,518.551724 C140,530.454413 220.588745,547 320,547 Z" id="椭圆形" fill="#F7FAFE"></path>
                <g transform="translate(320.000000, 416.000000) rotate(-360.000000) translate(-320.000000, -416.000000) translate(140.000000, 297.000000)">
                    <polygon fill="url(#linearGradient-2)" fill-rule="nonzero" points="320 207 170 182.656179 170 -2.27373675e-13 319.142857 26.8642099"></polygon>
                    <polygon fill="url(#linearGradient-3)" fill-rule="nonzero" points="40 211 170 182.78652 170 -2.27373675e-13 40 28.2390593"></polygon>
                    <polygon fill="url(#linearGradient-4)" fill-rule="nonzero" points="189 238 40 211.07101 40 28 189 54.9033675"></polygon>
                    <path d="M62.4635625,162.768605 L163.536437,180.172887 C166.115477,180.616985 168,182.85375 168,185.470746 C168,187.578262 166.29152,189.286742 164.184004,189.286742 C163.966967,189.286742 163.750326,189.268226 163.536437,189.231395 L62.4635625,171.827113 C59.884523,171.383015 58,169.14625 58,166.529254 C58,164.421738 59.7084796,162.713258 61.8159961,162.713258 C62.0330327,162.713258 62.2496738,162.731774 62.4635625,162.768605 Z" id="矩形备份-7" fill="#C2D9FF" fill-rule="nonzero"></path>
                    <path d="M62.6431253,100.756368 L163.803907,117.235524 C166.223148,117.62962 168,119.719344 168,122.170475 L168,164.295672 C168,166.504811 166.209139,168.295672 164,168.295672 C163.784573,168.295672 163.569499,168.278268 163.356875,168.243632 L62.1960934,151.764476 C59.7768522,151.37038 58,149.280656 58,146.829525 L58,104.704328 C58,102.495189 59.790861,100.704328 62,100.704328 C62.2154267,100.704328 62.4305013,100.721732 62.6431253,100.756368 Z" id="矩形" fill="#C2D9FF"></path>
                    <path d="M62.4635625,185.768605 L163.536437,203.172887 C166.115477,203.616985 168,205.85375 168,208.470746 C168,210.578262 166.29152,212.286742 164.184004,212.286742 C163.966967,212.286742 163.750326,212.268226 163.536437,212.231395 L62.4635625,194.827113 C59.884523,194.383015 58,192.14625 58,189.529254 C58,187.421738 59.7084796,185.713258 61.8159961,185.713258 C62.0330327,185.713258 62.2496738,185.731774 62.4635625,185.768605 Z" id="矩形备份-8" fill="#C2D9FF" fill-rule="nonzero"></path>
                    <polygon fill="url(#linearGradient-5)" fill-rule="nonzero" points="149.578216 99 0 72.1964799 40.4217845 28 190 54.7780172"></polygon>
                    <polygon fill="url(#linearGradient-6)" points="189 55.444605 320 26 320 207.179726 189.405669 238"></polygon>
                    <polygon fill="url(#linearGradient-7)" fill-rule="nonzero" points="360 70.6182587 319.767981 26 190 54.3817413 230.232019 99"></polygon>
                </g>
                <g id="paperplane_4_" transform="translate(190.000000, 117.000000)">
                    <path d="M48.4266365,122.822086 C46.5066901,122.822086 44.5378367,122.780374 42.5745726,122.696949 C42.1889065,122.680264 41.8898756,122.356299 41.9052463,121.972545 C41.9206171,121.588792 42.2797337,121.280121 42.6332609,121.306539 C44.5783595,121.388573 46.5276502,121.430286 48.4266365,121.430286 L49.5822375,121.424724 C49.5836348,121.424724 49.5864295,121.424724 49.5878269,121.424724 C49.9706983,121.424724 50.2837027,121.732004 50.2865162,122.114367 C50.289292,122.49812 49.9804797,122.812353 49.5934162,122.815134 L48.4266365,122.822086 Z M56.5661476,122.56347 C56.2000443,122.56347 55.8940266,122.281216 55.8688744,121.912758 C55.8437223,121.529005 56.1357666,121.198087 56.5214327,121.17445 C58.8452107,121.025676 61.1689887,120.805991 63.4298863,120.523738 C63.8169498,120.479245 64.162093,120.746204 64.2109999,121.127176 C64.2599069,121.508148 63.9874254,121.855751 63.604554,121.904415 C61.3157095,122.19084 58.9625873,122.413305 56.6108625,122.56347 C56.5954917,122.56347 56.5815183,122.56347 56.5661476,122.56347 Z M35.6339801,122.236723 C35.61302,122.236723 35.5920599,122.236723 35.5710998,122.233942 C33.2766659,122.028162 30.9319278,121.766765 28.5997657,121.455313 C28.2168943,121.403868 27.9486049,121.053484 28.0003065,120.673902 C28.0520081,120.294321 28.4027407,120.024581 28.7856121,120.077417 C31.0982114,120.386088 33.4233867,120.646094 35.6968604,120.849094 C36.0811292,120.883854 36.3647894,121.221724 36.3298559,121.604087 C36.2963197,121.964203 35.9916994,122.236723 35.6339801,122.236723 Z M70.4123991,120.815724 C70.084024,120.815724 69.7919797,120.584916 69.727702,120.252608 C69.653643,119.875807 69.9023696,119.51152 70.281049,119.437828 C72.5754829,118.994287 74.8475593,118.471493 77.0343979,117.88335 C77.4046932,117.784631 77.7917567,118.001535 77.8909679,118.374164 C77.9915764,118.745404 77.7707966,119.126376 77.3977065,119.226486 C75.1787291,119.822972 72.8731165,120.354108 70.5465438,120.803211 C70.5018289,120.811553 70.457114,120.815724 70.4123991,120.815724 Z M21.7877286,120.397211 C21.7472057,120.397211 21.7066828,120.39443 21.6661599,120.387478 C19.4038649,119.992602 17.088471,119.54489 14.7842557,119.054075 C14.4069737,118.973431 14.166631,118.604972 14.2476768,118.229562 C14.3287226,117.854151 14.7004153,117.610829 15.0763,117.695644 C17.3651445,118.182288 19.6637703,118.627219 21.9078999,119.017924 C22.2879767,119.084664 22.5422927,119.44478 22.4752203,119.822972 C22.4151347,120.159451 22.1216931,120.397211 21.7877286,120.397211 Z M8.12592609,117.496816 C8.06863511,117.496816 8.01274148,117.489864 7.9554505,117.47596 C6.76910803,117.181193 5.57298417,116.872522 4.36707893,116.549947 C3.99398889,116.449837 3.77320902,116.068865 3.87242023,115.699016 C3.97302878,115.327776 4.35729754,115.109482 4.72759289,115.20681 C5.92651143,115.526605 7.11425124,115.833885 8.29360701,116.127262 C8.66809438,116.220419 8.89586096,116.59722 8.80084177,116.96985 C8.72398802,117.286864 8.43893047,117.496816 8.12592609,117.496816 Z M83.8799712,117.177021 C83.592119,117.177021 83.3238295,117.000439 83.2218236,116.715405 C83.0918709,116.353899 83.2805119,115.956241 83.6452179,115.826933 C85.8404406,115.046913 87.997935,114.175126 90.0590129,113.2366 C90.4083481,113.073922 90.8233584,113.231038 90.9854499,113.580031 C91.1461442,113.929024 90.9924367,114.340585 90.6403067,114.501873 C88.5442953,115.458475 86.3476753,116.344166 84.1147245,117.1367 C84.0364734,117.164508 83.956825,117.177021 83.8799712,117.177021 Z M96.555251,111.379012 C96.313511,111.379012 96.0787577,111.255265 95.9502024,111.031409 C95.755972,110.699101 95.8705539,110.273636 96.2045184,110.081759 C98.2236761,108.919377 100.172967,107.659665 101.997894,106.337385 C102.310898,106.112139 102.746869,106.180269 102.974635,106.49033 C103.202402,106.800392 103.132535,107.23559 102.820928,107.462227 C100.956875,108.812315 98.9670615,110.098444 96.9045862,111.285854 C96.7941963,111.349813 96.674025,111.379012 96.555251,111.379012 Z M107.80664,103.189497 C107.619397,103.189497 107.430756,103.114415 107.293816,102.967032 C107.155479,102.818258 107.093996,102.624991 107.109367,102.438676 C106.324062,102.35108 105.556921,102.241238 104.809344,102.109149 C104.429267,102.042409 104.174951,101.682293 104.243421,101.304101 C104.309096,100.92591 104.673802,100.671465 105.052481,100.740985 C106.071143,100.918958 107.127533,101.056608 108.216061,101.152546 C109.603621,99.8163625 110.894764,98.427343 112.069928,97.0105152 C112.31586,96.7157483 112.754625,96.6726456 113.053656,96.9173577 C113.351289,97.1620699 113.393209,97.600049 113.147277,97.8962063 C112.194291,99.044685 111.167245,100.175088 110.075922,101.276293 C110.671189,101.302711 111.273443,101.316615 111.882684,101.319396 C112.26835,101.320786 112.579957,101.633628 112.57856,102.017382 C112.577162,102.399744 112.264158,102.709806 111.879889,102.709806 C111.878492,102.709806 111.878492,102.709806 111.877095,102.709806 C110.806731,102.705634 109.754534,102.663922 108.728885,102.58884 C108.580767,102.729271 108.431252,102.866922 108.281736,103.004573 C108.146194,103.128319 107.975719,103.189497 107.80664,103.189497 Z M118.848429,102.28295 C118.499093,102.28295 118.198665,102.024334 118.155347,101.671169 C118.109235,101.290197 118.381717,100.943985 118.765985,100.896711 C120.945837,100.633924 123.238874,100.239047 125.580817,99.7259859 C125.959497,99.6411709 126.331189,99.878931 126.413632,100.254342 C126.496076,100.629752 126.258528,101.000992 125.882643,101.083026 C123.495985,101.60582 121.15963,102.009039 118.933666,102.277388 C118.90572,102.281559 118.876375,102.28295 118.848429,102.28295 Z M98.2446362,100.173698 C98.1524117,100.173698 98.0573925,100.155623 97.9679627,100.116691 C95.6679395,99.1295 93.620835,97.8614461 91.8797482,96.3486801 C91.5891012,96.0956254 91.5597571,95.6562559 91.8140731,95.3670506 C92.0669918,95.0764549 92.5099489,95.0486467 92.8005958,95.3017013 C94.4312927,96.7199195 96.3568286,97.9101104 98.5227071,98.8402947 C98.8762343,98.9918494 99.0397232,99.4020203 98.887413,99.7537941 C98.7714337,100.016582 98.514323,100.173698 98.2446362,100.173698 Z M132.487874,99.3408423 C132.186048,99.3408423 131.907977,99.1447945 131.818547,98.8430755 C131.709555,98.4746169 131.920553,98.0880829 132.289451,97.9782405 C134.543362,97.3136246 136.772121,96.6448374 138.97433,95.9718789 C139.343228,95.8564749 139.734484,96.0650364 139.847668,96.4321047 C139.960853,96.7991729 139.754047,97.1884877 139.385149,97.3011109 C137.178747,97.9754597 134.944399,98.6470277 132.687693,99.3116437 C132.620621,99.3324998 132.553549,99.3408423 132.487874,99.3408423 Z M145.850645,95.2572082 C145.554409,95.2572082 145.279133,95.0681125 145.184114,94.7719551 C145.068134,94.4062773 145.270749,94.0155721 145.638249,93.8987777 C147.89216,93.1854974 150.108343,92.4736075 152.284003,91.763108 C152.652901,91.6449231 153.044156,91.8409709 153.165725,92.2066487 C153.285896,92.5709362 153.086077,92.9644222 152.719973,93.0839974 C150.540121,93.7958873 148.319747,94.5091677 146.061644,95.2238384 C145.991777,95.2474754 145.920512,95.2572082 145.850645,95.2572082 Z M116.621067,92.4666554 C116.500896,92.4666554 116.379327,92.4360664 116.268937,92.3707171 C115.93637,92.1760597 115.824583,91.7505943 116.02021,91.4196767 C117.227513,89.3702124 118.19587,87.2943303 118.894541,85.2518181 C119.018904,84.8889211 119.417146,84.6914829 119.780455,84.8180102 C120.146558,84.9417567 120.340789,85.3366331 120.216425,85.6995301 C119.487013,87.8310286 118.479531,89.9917257 117.224718,92.1232242 C117.094766,92.3442993 116.860012,92.4666554 116.621067,92.4666554 Z M88.0300738,91.1040536 C87.7771551,91.1040536 87.5354151,90.9677935 87.4096544,90.7300334 C86.2833976,88.5832404 85.6000979,86.2668174 85.3737287,83.8461136 C85.3387952,83.4637509 85.621058,83.1258812 86.0053268,83.0897306 C86.3937876,83.0549703 86.7291494,83.3358331 86.7654803,83.7181959 C86.9736841,85.9567559 87.6080769,88.1007681 88.6490959,90.087664 C88.8265582,90.4283144 88.6952081,90.8482182 88.3528596,91.0248003 C88.248059,91.0790263 88.1376691,91.1040536 88.0300738,91.1040536 Z M159.135166,90.9205195 C158.844519,90.9205195 158.572037,90.7383758 158.472826,90.4477801 C158.34986,90.0834927 158.545488,89.6900067 158.910194,89.5662602 C161.169694,88.8070964 163.374698,88.0534942 165.516822,87.3124057 C165.878733,87.1858783 166.27977,87.3777549 166.405531,87.7406519 C166.532689,88.1035489 166.339856,88.4984254 165.97515,88.6249527 C163.830231,89.3674316 161.621035,90.1224242 159.357343,90.8829785 C159.284681,90.9093962 159.209225,90.9205195 159.135166,90.9205195 Z M172.340038,86.3530228 C172.052185,86.3530228 171.783896,86.1764407 171.68189,85.8914067 C171.551937,85.5299001 171.740578,85.1322428 172.105284,85.0029347 C174.388539,84.1923257 176.580967,83.4011824 178.672787,82.6364569 C179.037493,82.5029776 179.435735,82.6892925 179.56988,83.0494087 C179.702627,83.4095249 179.516781,83.8099629 179.154869,83.9420519 C177.058858,84.7067774 174.862238,85.4993111 172.576188,86.3127009 C172.497937,86.3405091 172.418289,86.3530228 172.340038,86.3530228 Z M185.465261,81.56167 C185.182998,81.56167 184.916106,81.3892592 184.811306,81.1111772 C184.674366,80.7524514 184.857418,80.3506229 185.219329,80.2157532 C187.579438,79.330062 189.762085,78.4999873 191.744911,77.7366522 C192.105425,77.5976112 192.509257,77.7755837 192.648991,78.1343094 C192.788725,78.4930352 192.609865,78.8948637 192.249352,79.0339047 C190.262333,79.7986302 188.075494,80.6300953 185.711193,81.5171769 C185.630147,81.5477659 185.547704,81.56167 185.465261,81.56167 Z M120.913698,79.3787264 C120.90252,79.3787264 120.892738,79.3787264 120.88156,79.3787264 C120.495894,79.360651 120.19826,79.0366855 120.215028,78.6529324 C120.227604,78.3623367 120.234591,78.0759122 120.234591,77.7908782 C120.234591,75.7177769 119.882461,73.8170865 119.186585,72.1402521 C119.039864,71.7856975 119.208943,71.3783074 119.565264,71.2323143 C119.920189,71.0877117 120.331007,71.2545609 120.477728,71.6091154 C121.244868,73.4555799 121.633329,75.5356332 121.633329,77.7908782 C121.633329,78.095378 121.626342,78.404049 121.612369,78.7155008 C121.594204,79.0867403 121.283994,79.3787264 120.913698,79.3787264 Z M86.7570962,77.6017824 C86.6914212,77.6017824 86.6229515,77.5920496 86.5558791,77.5725838 C86.1869811,77.4627414 85.9759826,77.074817 86.0877699,76.7063584 C86.7920297,74.3621272 87.9266706,72.2278479 89.4567589,70.3605273 C89.6998963,70.0629796 90.1400587,70.017096 90.440487,70.2618082 C90.7395179,70.5037395 90.7842329,70.9417187 90.5410955,71.2392664 C89.1269865,72.9647652 88.0789808,74.9377569 87.4264225,77.1054061 C87.3355954,77.407125 87.0589219,77.6017824 86.7570962,77.6017824 Z M198.508042,76.5367284 C198.231368,76.5367284 197.968668,76.3712696 197.859675,76.0987492 C197.715749,75.7428043 197.890417,75.338195 198.249534,75.1963732 C202.402431,73.5473469 204.716427,72.5754504 204.72062,72.57406 C205.075544,72.4238957 205.484965,72.5893545 205.635878,72.943909 C205.785393,73.2970732 205.61911,73.7058537 205.264185,73.8546275 C205.264185,73.8546275 202.93901,74.8306953 198.76655,76.488064 C198.681312,76.5214339 198.594677,76.5367284 198.508042,76.5367284 Z M115.496208,67.2515706 C115.362063,67.2515706 115.226521,67.2126391 115.106349,67.1333858 C113.394607,65.9849071 111.302787,65.2479898 108.88958,64.9420996 C108.506708,64.8934353 108.237021,64.5444424 108.284531,64.1634701 C108.333438,63.7838881 108.688362,63.5266623 109.067042,63.5614225 C111.699632,63.8951209 113.994066,64.7099012 115.887463,65.9793455 C116.207454,66.1934686 116.291295,66.6258861 116.076104,66.94429 C115.941959,67.144509 115.72118,67.2515706 115.496208,67.2515706 Z M95.3744979,67.1319953 C95.1229765,67.1319953 94.8798392,66.9971256 94.7554758,66.7593655 C94.5766162,66.418715 94.7079662,65.9988112 95.0489174,65.8208387 C96.6949851,64.9615654 98.4961576,64.3414425 100.403528,63.9757647 C100.916352,63.878436 101.420792,63.7922306 101.914054,63.7199293 C102.292733,63.6657033 102.650452,63.92571 102.707743,64.3052919 C102.765034,64.6848738 102.500937,65.0380379 102.119463,65.0950447 C101.644367,65.1645652 101.160887,65.2465994 100.667625,65.3411473 C98.8943997,65.6804073 97.22318,66.2560371 95.698681,67.0513516 C95.5952778,67.106968 95.4834905,67.1319953 95.3744979,67.1319953 Z" id="Shape" fill="#D1DDF3" fill-rule="nonzero" transform="translate(104.769737, 93.190184) rotate(-10.000000) translate(-104.769737, -93.190184) "></path>
                    <g id="Group" transform="translate(214.243421, 30.920245) rotate(-10.000000) translate(-214.243421, -30.920245) translate(172.335526, 7.730061)">
                        <polygon id="Path" fill="url(#linearGradient-8)" fill-rule="nonzero" points="0.835269412 17.6715662 21.4283557 28.179387 83.2076145 0.158057212"></polygon>
                        <polygon id="Path" fill="url(#linearGradient-9)" points="24.8600719 45.6914729 21.4283557 28.179387 83.2076145 0.158057212"></polygon>
                        <polygon id="Path" fill="url(#linearGradient-10)" fill-rule="nonzero" points="24.8600719 45.6914729 31.7248988 31.6815195 48.8862689 28.179387"></polygon>
                        <polygon id="Path" fill="url(#linearGradient-11)" fill-rule="nonzero" points="31.7248988 31.6815195 48.8862689 38.6857847 83.2076145 0.158057212"></polygon>
                    </g>
                </g>
            </g>
        </g>
    </g>
</svg>