<?xml version="1.0" standalone="no"?><!DOCTYPE svg PUBLIC "-//W3C//DTD SVG 1.1//EN" "http://www.w3.org/Graphics/SVG/1.1/DTD/svg11.dtd"><svg t="1696837505540" class="icon" viewBox="0 0 1024 1024" version="1.1" xmlns="http://www.w3.org/2000/svg" p-id="12280" xmlns:xlink="http://www.w3.org/1999/xlink" width="200" height="200"><path d="M928 832 896 832 896 384c0-70.4-57.6-128-128-128L576 256 576 192c0-70.4-57.6-128-128-128L192 64C121.6 64 64 121.6 64 192l0 640L32 832C14.08 832 0 846.08 0 864 0 881.92 14.08 896 32 896l896 0c17.92 0 32-14.08 32-32C960 846.08 945.92 832 928 832zM512 256l0 64 0 512L128 832 128 192c0-35.2 28.8-64 64-64l256 0c35.2 0 64 28.8 64 64L512 256zM832 832 576 832 576 320l192 0c35.2 0 64 28.8 64 64L832 832zM416 256l-192 0C206.08 256 192 270.08 192 288 192 305.92 206.08 320 224 320l192 0C433.92 320 448 305.92 448 288 448 270.08 433.92 256 416 256zM416 448l-192 0C206.08 448 192 462.08 192 480 192 497.92 206.08 512 224 512l192 0C433.92 512 448 497.92 448 480 448 462.08 433.92 448 416 448zM416 640l-192 0C206.08 640 192 654.08 192 672S206.08 704 224 704l192 0C433.92 704 448 689.92 448 672S433.92 640 416 640zM736 448l-64 0C654.08 448 640 462.08 640 480 640 497.92 654.08 512 672 512l64 0C753.92 512 768 497.92 768 480 768 462.08 753.92 448 736 448zM736 640l-64 0c-17.92 0-32 14.08-32 32s14.08 32 32 32l64 0c17.92 0 32-14.08 32-32S753.92 640 736 640z" p-id="12281"></path></svg>