<?xml version="1.0" standalone="no"?><!DOCTYPE svg PUBLIC "-//W3C//DTD SVG 1.1//EN" "http://www.w3.org/Graphics/SVG/1.1/DTD/svg11.dtd"><svg class="icon" width="200px" height="200.00px" viewBox="0 0 1024 1024" version="1.1" xmlns="http://www.w3.org/2000/svg"><path d="M512 981.33C253.21 981.33 42.67 770.79 42.67 512S253.21 42.67 512 42.67 981.33 253.21 981.33 512 770.79 981.33 512 981.33zM512 128c-211.73 0-384 172.27-384 384s172.27 384 384 384 384-172.27 384-384-172.27-384-384-384z"  /><path d="M512 640c-23.56 0-42.67-19.1-42.67-42.67V298.67c0-23.56 19.1-42.67 42.67-42.67s42.67 19.1 42.67 42.67v298.67c0 23.56-19.11 42.66-42.67 42.66zM512 768c-11.31 0-22.19-4.48-30.08-12.58-8.1-7.9-12.58-18.77-12.58-30.08 0-2.77 0.21-5.54 0.85-8.33 0.42-2.77 1.27-5.33 2.33-8.1 1.08-2.56 2.35-4.9 4.06-7.25 1.5-2.33 3.21-4.48 5.33-6.4 1.92-2.12 4.06-3.83 6.4-5.33 2.35-1.71 4.69-2.98 7.25-4.06 2.56-1.06 5.33-1.92 8.1-2.33 5.56-1.06 11.1-1.06 16.65 0 2.77 0.42 5.33 1.27 8.1 2.33 2.56 1.08 4.92 2.35 7.25 4.06 2.35 1.5 4.48 3.21 6.42 5.33 2.12 1.92 3.83 4.06 5.33 6.4 1.48 2.35 2.98 4.69 4.04 7.25 1.06 2.77 1.92 5.33 2.35 8.1 0.65 2.79 0.85 5.56 0.85 8.33 0 11.31-4.48 22.19-12.58 30.08-7.88 8.1-18.76 12.58-30.07 12.58z"  /></svg>