<?xml version="1.0" standalone="no"?><!DOCTYPE svg PUBLIC "-//W3C//DTD SVG 1.1//EN" "http://www.w3.org/Graphics/SVG/1.1/DTD/svg11.dtd"><svg class="icon" width="200px" height="200.00px" viewBox="0 0 1024 1024" version="1.1" xmlns="http://www.w3.org/2000/svg"><path d="M512 4.127c280.494 0 507.873 227.379 507.873 507.873S792.494 1019.873 512 1019.873 4.127 792.494 4.127 512 231.506 4.127 512 4.127z m0 681.84c-42.476 0-76.913 34.427-76.913 76.913 0 42.476 34.437 76.913 76.913 76.913s76.913-34.437 76.913-76.913c0-42.486-34.437-76.913-76.913-76.913z m-2.212-60.129c36.588 0 66.243-29.665 66.243-66.242V250.45c0-36.588-29.655-66.243-66.243-66.243-36.587 0-66.242 29.666-66.242 66.243v309.146c0 36.587 29.655 66.242 66.242 66.242z" /></svg>