<?xml version="1.0" standalone="no"?><!DOCTYPE svg PUBLIC "-//W3C//DTD SVG 1.1//EN" "http://www.w3.org/Graphics/SVG/1.1/DTD/svg11.dtd"><svg t="1730679207681" class="icon" viewBox="0 0 1024 1024" version="1.1" xmlns="http://www.w3.org/2000/svg" p-id="10218" xmlns:xlink="http://www.w3.org/1999/xlink" width="200" height="200"><path d="M942.3 486.4l-0.1-0.1-0.1-0.1c-36.4-76.7-80-138.7-130.7-186L760.7 351c43.7 40.2 81.5 93.7 114.1 160.9C791.5 684.2 673.4 766 512 766c-51.3 0-98.3-8.3-141.2-25.1l-54.7 54.7C374.6 823.8 439.8 838 512 838c192.2 0 335.4-100.5 430.2-300.3 7.7-16.2 7.7-35 0.1-51.3zM878.3 154.2l-42.4-42.4c-3.1-3.1-8.2-3.1-11.3 0L707.8 228.5C649.4 200.2 584.2 186 512 186c-192.2 0-335.4 100.5-430.2 300.3v0.1c-7.7 16.2-7.7 35.2 0 51.5 36.4 76.7 80 138.7 130.7 186.1L111.8 824.5c-3.1 3.1-3.1 8.2 0 11.3l42.4 42.4c3.1 3.1 8.2 3.1 11.3 0l712.8-712.8c3.1-3 3.1-8.1 0-11.2zM398.9 537.4c-1.9-8.2-2.9-16.7-2.9-25.4 0-61.9 50.1-112 112-112 8.7 0 17.3 1 25.4 2.9L398.9 537.4z m184.5-184.5C560.5 342.1 535 336 508 336c-97.2 0-176 78.8-176 176 0 27 6.1 52.5 16.9 75.4L263.3 673c-43.7-40.2-81.5-93.7-114.1-160.9C232.6 339.8 350.7 258 512 258c51.3 0 98.3 8.3 141.2 25.1l-69.8 69.8z" p-id="10219"></path><path d="M508 624c-6.4 0-12.7-0.5-18.8-1.6l-51.1 51.1c21.4 9.3 45.1 14.4 69.9 14.4 97.2 0 176-78.8 176-176 0-24.8-5.1-48.5-14.4-69.9l-51.1 51.1c1 6.1 1.6 12.4 1.6 18.8C620 573.9 569.9 624 508 624z" p-id="10220"></path></svg>