<?xml version="1.0" standalone="no"?><!DOCTYPE svg PUBLIC "-//W3C//DTD SVG 1.1//EN" "http://www.w3.org/Graphics/SVG/1.1/DTD/svg11.dtd"><svg class="icon" width="200px" height="200.00px" viewBox="0 0 1024 1024" version="1.1" xmlns="http://www.w3.org/2000/svg"><path d="M853.333333 989.866667H170.666667a68.266667 68.266667 0 0 1-68.266667-68.266667V102.4a68.266667 68.266667 0 0 1 68.266667-68.266667h512.6144L921.6 274.500267V921.6a68.266667 68.266667 0 0 1-68.266667 68.266667z m0-681.301334L649.4208 102.4H204.8a34.133333 34.133333 0 0 0-34.133333 34.133333v750.933334a34.133333 34.133333 0 0 0 34.133333 34.133333h614.4a34.133333 34.133333 0 0 0 34.133333-34.133333V308.565333z"  /><path d="M614.4 273.066667V34.133333h68.266667v204.8a34.133333 34.133333 0 0 0 34.133333 34.133334h204.8v68.266666h-238.933333a68.266667 68.266667 0 0 1-68.266667-68.266666z"  /><path d="M273.066667 273.066667h204.8v68.266666H273.066667zM273.066667 477.866667h477.866666v68.266666H273.066667zM273.066667 682.666667h477.866666v68.266666H273.066667z"  /></svg>