<?xml version="1.0" standalone="no"?><!DOCTYPE svg PUBLIC "-//W3C//DTD SVG 1.1//EN" "http://www.w3.org/Graphics/SVG/1.1/DTD/svg11.dtd"><svg t="1742204631670" class="icon" viewBox="0 0 1024 1024" version="1.1" xmlns="http://www.w3.org/2000/svg" p-id="2599" xmlns:xlink="http://www.w3.org/1999/xlink" width="200" height="200"><path d="M872.533333 134.4c-12.8-10.666667-29.866667-17.066667-49.066666-17.066667H198.4C157.866667 117.333333 123.733333 151.466667 123.733333 192c0 17.066667 6.4 34.133333 17.066667 49.066667l256 302.933333v251.733333c0 12.8 6.4 23.466667 17.066667 27.733334l162.133333 81.066666c4.266667 2.133333 8.533333 4.266667 14.933333 4.266667 6.4 0 10.666667-2.133333 17.066667-4.266667 8.533333-6.4 14.933333-17.066667 14.933333-27.733333V541.866667l256-302.933334c12.8-14.933333 19.2-34.133333 17.066667-53.333333 2.133333-19.2-6.4-38.4-23.466667-51.2z m-38.4 64L569.6 509.866667c-4.266667 6.4-8.533333 12.8-8.533333 21.333333v292.266667l-98.133334-49.066667V531.2c0-8.533333-2.133333-14.933333-8.533333-21.333333L189.866667 198.4c0-2.133333-2.133333-4.266667-2.133334-6.4 0-6.4 4.266667-10.666667 10.666667-10.666667h625.066667c2.133333 0 4.266667 0 6.4 2.133334 2.133333 2.133333 4.266667 6.4 4.266666 6.4 2.133333 2.133333 2.133333 6.4 0 8.533333z" p-id="2600"></path></svg>