<?xml version="1.0" standalone="no"?><!DOCTYPE svg PUBLIC "-//W3C//DTD SVG 1.1//EN" "http://www.w3.org/Graphics/SVG/1.1/DTD/svg11.dtd"><svg class="icon" width="200px" height="200.00px" viewBox="0 0 1024 1024" version="1.1" xmlns="http://www.w3.org/2000/svg"><path d="M160 128C107.328 128 64 171.328 64 224v576c0 52.672 43.328 96 96 96h704c52.672 0 96-43.328 96-96v-448c0-52.672-43.328-96-96-96H435.136l-41.856-77.632A96.32 96.32 0 0 0 308.8 128H160z m0 64h148.736a32 32 0 0 1 28.16 16.896L396.8 320H864c17.984 0 32 14.016 32 32V576H627.136l-41.856-77.632A96 96 0 0 0 500.8 448H352C299.328 448 256 491.328 256 544V832H160a31.552 31.552 0 0 1-32-32v-576c0-17.984 14.016-32 32-32z m192 320h148.736c11.84 0 22.592 6.4 28.16 16.768L588.8 640H896v160c0 17.984-14.016 32-32 32H320V544c0-17.984 14.016-32 32-32z" /></svg>