<?xml version="1.0" encoding="UTF-8" standalone="no"?>
<svg
   xmlns:dc="http://purl.org/dc/elements/1.1/"
   xmlns:cc="http://creativecommons.org/ns#"
   xmlns:rdf="http://www.w3.org/1999/02/22-rdf-syntax-ns#"
   xmlns:svg="http://www.w3.org/2000/svg"
   xmlns="http://www.w3.org/2000/svg"
   xmlns:sodipodi="http://sodipodi.sourceforge.net/DTD/sodipodi-0.dtd"
   xmlns:inkscape="http://www.inkscape.org/namespaces/inkscape"
   inkscape:version="1.0 (4035a4f, 2020-05-01)"
   sodipodi:docname="folder-open.svg"
   id="svg12"
   version="1.1"
   viewBox="0 0 1024 1024"
   height="200.00px"
   width="200px"
   class="icon">
  <metadata
     id="metadata18">
    <rdf:RDF>
      <cc:Work
         rdf:about="">
        <dc:format>image/svg+xml</dc:format>
        <dc:type
           rdf:resource="http://purl.org/dc/dcmitype/StillImage" />
      </cc:Work>
    </rdf:RDF>
  </metadata>
  <defs
     id="defs16" />
  <sodipodi:namedview
     inkscape:current-layer="svg12"
     inkscape:window-maximized="1"
     inkscape:window-y="23"
     inkscape:window-x="0"
     inkscape:cy="100"
     inkscape:cx="100"
     inkscape:zoom="3.52"
     showgrid="false"
     id="namedview14"
     inkscape:window-height="971"
     inkscape:window-width="1920"
     inkscape:pageshadow="2"
     inkscape:pageopacity="0"
     guidetolerance="10"
     gridtolerance="10"
     objecttolerance="10"
     borderopacity="1"
     bordercolor="#666666"
     pagecolor="#ffffff" />
  <path
     style="stroke-width:0.932123"
     id="path10"
     d="m 903.82109,571.64073 c 0,-12.53988 -8.37249,-18.78885 -25.11744,-18.78885 H 362.89086 c -12.63414,0 -26.13572,3.85842 -40.54242,11.53333 -14.36899,7.67491 -25.64545,17.06934 -33.90478,28.14134 l -139.3528,194.59878 c -5.6948,8.59758 -8.52334,15.76922 -8.52334,21.47297 0,12.49794 8.37248,18.78885 25.11745,18.78885 h 515.77507 c 12.67187,0 26.24886,-3.9423 40.7687,-11.82691 14.55756,-7.84266 25.75859,-17.32097 33.6785,-28.39297 L 895.29776,592.56849 c 5.65707,-7.88461 8.52333,-14.84655 8.52333,-20.9697 z M 362.89086,484.23903 H 726.9807 v -85.808 c 0,-14.25939 -4.41253,-26.42182 -13.2753,-36.44533 A 43.521821,48.39806 0 0 0 681.46004,346.97139 H 408.41152 c -12.63415,0 -23.3826,-5.03272 -32.24537,-15.0143 a 45.030377,50.075636 0 0 1 -13.27529,-36.48727 v -34.26449 c 0,-14.30133 -4.41252,-26.46375 -13.27529,-36.48727 A 43.521821,48.39806 0 0 0 317.3702,209.70376 H 165.68497 c -12.63416,0 -23.38262,5.03273 -32.24538,15.0143 a 45.030377,50.075636 0 0 0 -13.27528,36.48727 V 718.51249 L 241.52759,549.62255 c 13.91642,-18.91467 32.24536,-34.55806 54.98684,-46.88825 22.77918,-12.33018 44.87952,-18.49527 66.37643,-18.49527 z m 601.61188,87.4017 c 0,22.144 -7.27877,43.61697 -21.79862,64.33503 l -139.8808,194.59879 c -13.57701,18.9566 -31.90595,34.6 -54.98685,46.93018 C 724.75557,889.83491 702.65524,896 681.46004,896 H 165.68497 c -29.0774,0 -54.044,-11.78497 -74.899775,-35.39685 A 104.8446,116.59151 0 0 1 59.482671,775.88558 V 261.20533 c 0,-32.88048 10.446746,-61.14763 31.302524,-84.71757 20.855775,-23.65382 45.822375,-35.39685 74.899775,-35.39685 H 317.3702 c 29.07742,0 54.044,11.78497 74.89977,35.39685 a 104.8446,116.59151 0 0 1 31.30253,84.71757 v 17.15322 h 257.88754 c 29.0774,0 54.04399,11.78496 74.89977,35.3549 a 104.8446,116.59151 0 0 1 31.30252,84.71758 v 85.808 h 91.04132 c 17.04667,0 32.69793,4.3617 46.91607,13.12703 14.21812,8.76533 24.8157,21.38909 31.75506,37.78739 4.75194,11.44946 7.12796,23.61188 7.12796,36.48728 z" />
</svg>
