<?xml version="1.0" standalone="no"?><!DOCTYPE svg PUBLIC "-//W3C//DTD SVG 1.1//EN" "http://www.w3.org/Graphics/SVG/1.1/DTD/svg11.dtd"><svg class="icon" width="200px" height="200.00px" viewBox="0 0 1024 1024" version="1.1" xmlns="http://www.w3.org/2000/svg"><path d="M128 320h768v-22.144c0-51.968-25.344-76.032-89.472-76.032H494.656a36.096 36.096 0 0 1-25.216-10.368l-74.816-73.152A36.096 36.096 0 0 0 369.408 128h-168.32C160.768 128 128 161.6 128 203.072V320z m0 64v382.08c0 41.472 32.768 75.008 73.088 75.008h605.44c61.056 0 89.472-17.536 89.472-75.008V384H128z m378.112-226.176h300.416c96.576 0 153.472 49.664 153.472 140.032V766.08c0 94.336-56.96 139.008-153.472 139.008h-605.44C125.056 905.088 64 842.496 64 766.08V203.072C64 126.656 125.056 64 201.088 64h168.32c26.176 0 51.2 10.24 69.952 28.544l66.752 65.28z" /></svg>