<?xml version="1.0" standalone="no"?><!DOCTYPE svg PUBLIC "-//W3C//DTD SVG 1.1//EN" "http://www.w3.org/Graphics/SVG/1.1/DTD/svg11.dtd"><svg class="icon" width="200px" height="200.00px" viewBox="0 0 1024 1024" version="1.1" xmlns="http://www.w3.org/2000/svg"><path d="M236.544 98.816c76.288 0 137.728 61.44 137.728 136.704 0 58.368-37.376 108.544-89.088 128 4.096 20.992 15.36 46.592 43.008 82.944 46.08 58.88 137.728 99.84 183.808 160.768 46.08-60.928 137.728-101.888 183.808-160.768 28.16-36.352 38.912-61.952 43.008-82.944-53.76-20.48-89.088-71.168-89.088-128 0-75.264 61.952-136.704 137.728-136.704s137.728 61.44 137.728 136.704c0 59.904-39.424 111.616-94.208 130.048-3.584 23.552-19.456 67.584-48.64 105.472-46.08 60.928-108.544 93.696-163.328 145.92-34.304 28.672-54.272 66.56-58.368 87.552 51.712 19.456 89.088 69.632 89.088 128 0 75.264-61.952 136.704-137.728 136.704s-137.728-61.44-137.728-136.704c0-58.368 37.376-108.544 89.088-128-4.096-20.992-26.624-57.856-63.488-87.552-54.784-53.76-112.64-84.992-158.208-146.432-29.184-37.888-45.056-81.92-48.64-105.472-56.32-18.944-94.208-71.168-94.208-130.048-0.512-75.264 61.44-136.192 137.728-136.192m1.024 89.6c-26.112 0-47.616 21.504-47.616 47.616s21.504 47.616 47.616 47.616c26.112 0 47.616-21.504 47.616-47.616s-21.504-47.616-47.616-47.616m548.864 0c-26.112 0-47.616 21.504-47.616 47.616 0 26.112 21.504 47.616 47.616 47.616 26.112 0 47.616-21.504 47.616-47.616 0-26.112-20.992-47.616-47.616-47.616M512 786.432c-26.112 0-47.616 21.504-47.616 47.616 0 26.112 21.504 47.616 47.616 47.616 26.112 0 47.616-21.504 47.616-47.616 0-26.112-21.504-47.616-47.616-47.616z" /></svg>