<?xml version="1.0" standalone="no"?><!DOCTYPE svg PUBLIC "-//W3C//DTD SVG 1.1//EN" "http://www.w3.org/Graphics/SVG/1.1/DTD/svg11.dtd"><svg t="1630280278458" class="icon" viewBox="0 0 1024 1024" version="1.1" xmlns="http://www.w3.org/2000/svg" p-id="1655" xmlns:xlink="http://www.w3.org/1999/xlink" width="200" height="200"><defs><style type="text/css"></style></defs><path d="M671.38947 192.4c22.2-22.2 231-154 278.4-106.4 47.4 47.4-84.2 256.2-106.4 278.4-22.2 22.2-78.8 1.8-126.2-45.8-47.6-47.4-68.2-104-45.8-126.2zM283.78947 136.2C211.18947 95 107.98947 49.2 75.18947 82.2c-33.2 33.2 14.2 138.8 55.8 211.4 37-64.4 89.6-118.6 152.8-157.4zM877.38947 348c6.6 22.6 5.4 41.4-5.4 52.2-40.6 40.6-175-54-218.6-140.2-36-64.6-22.2-106.8 29.8-97.4 11.4-7.2 24.6-15.2 39.2-23.2-59.6-31-127.2-48.6-199-48.6-238.2 0-431.2 193-431.2 431.2 0 238 193 431.2 431.2 431.2S954.58947 760.2 954.58947 522c0-76.8-20.2-149-55.4-211.6-7.8 14-15.2 26.6-21.8 37.6z" fill="" p-id="1656"></path></svg>