<?xml version="1.0" standalone="no"?><!DOCTYPE svg PUBLIC "-//W3C//DTD SVG 1.1//EN" "http://www.w3.org/Graphics/SVG/1.1/DTD/svg11.dtd"><svg class="icon" width="200px" height="200.00px" viewBox="0 0 1024 1024" version="1.1" xmlns="http://www.w3.org/2000/svg"><path d="M951.466667 362.666667c0-59.733333-21.333333-119.466667-59.733334-166.4 17.066667-55.466667 12.8-115.2-12.8-166.4-4.266667-8.533333-12.8-17.066667-21.333333-21.333334-12.8-4.266667-68.266667-12.8-183.466667 59.733334-93.866667-25.6-187.733333-25.6-281.6 0C277.333333-8.533333 217.6 4.266667 204.8 8.533333c-8.533333 4.266667-17.066667 8.533333-21.333333 21.333334-21.333333 51.2-25.6 110.933333-12.8 166.4-38.4 46.933333-59.733333 106.666667-59.733334 170.666666 0 230.4 128 298.666667 251.733334 324.266667-12.8 25.6-17.066667 55.466667-17.066667 85.333333v8.533334c-98.133333 21.333333-128-17.066667-166.4-64-21.333333-29.866667-46.933333-59.733333-89.6-72.533334-21.333333-4.266667-38.4 8.533333-42.666667 25.6s8.533333 38.4 25.6 42.666667c17.066667 4.266667 29.866667 21.333333 46.933334 46.933333 38.4 46.933333 89.6 115.2 221.866666 93.866667V938.666667c0 21.333333 17.066667 34.133333 38.4 34.133333s38.4-17.066667 38.4-34.133333v-123.733334-42.666666c-4.266667-29.866667 8.533333-59.733333 29.866667-81.066667 8.533333-8.533333 12.8-25.6 8.533333-38.4-4.266667-12.8-17.066667-21.333333-29.866666-25.6-128-17.066667-243.2-59.733333-243.2-264.533333 0-51.2 17.066667-98.133333 55.466666-136.533334 8.533333-8.533333 12.8-25.6 8.533334-38.4-12.8-34.133333-17.066667-72.533333-4.266667-106.666666 21.333333 4.266667 59.733333 17.066667 119.466667 55.466666 8.533333 4.266667 21.333333 8.533333 29.866666 4.266667 89.6-25.6 187.733333-25.6 281.6 0 8.533333 4.266667 21.333333 0 29.866667-4.266667 59.733333-42.666667 102.4-55.466667 119.466667-55.466666 8.533333 38.4 8.533333 76.8-4.266667 110.933333-4.266667 12.8 0 25.6 8.533333 38.4 34.133333 38.4 55.466667 85.333333 55.466667 136.533333 0 209.066667-115.2 247.466667-243.2 264.533334-12.8 0-25.6 12.8-29.866667 25.6-4.266667 12.8 0 25.6 8.533334 38.4 21.333333 21.333333 34.133333 51.2 29.866666 85.333333V938.666667c0 21.333333 17.066667 34.133333 34.133334 34.133333s34.133333-17.066667 34.133333-34.133333v-162.133334c4.266667-29.866667-4.266667-59.733333-12.8-85.333333 119.466667-25.6 247.466667-98.133333 247.466667-328.533333z" /></svg>