<?xml version="1.0" standalone="no"?><!DOCTYPE svg PUBLIC "-//W3C//DTD SVG 1.1//EN" "http://www.w3.org/Graphics/SVG/1.1/DTD/svg11.dtd"><svg t="1746497759841" class="icon" viewBox="0 0 1024 1024" version="1.1" xmlns="http://www.w3.org/2000/svg" p-id="2652" xmlns:xlink="http://www.w3.org/1999/xlink" width="200" height="200"><path d="M480 64C214.912 64 0 278.912 0 544c0 265.088 214.912 480 480 480 265.088 0 480-214.912 480-480C960 278.912 745.088 64 480 64zM751.584 704c8.576-40.448 13.984-83.392 15.744-128l127.456 0c-3.328 44.192-13.632 87.104-30.688 128L751.584 704zM208.416 384c-8.576 40.448-13.984 83.392-15.744 128L65.216 512c3.328-44.192 13.632-87.104 30.688-128L208.416 384zM686.048 384c9.6 40.96 15.392 83.84 17.28 128L512 512l0-128L686.048 384zM512 320 512 132.672c14.592 4.256 29.056 11.36 43.232 21.376 26.592 18.752 52 47.616 73.536 83.488 14.88 24.8 27.744 52.416 38.496 82.496L512 320zM331.232 237.504c21.536-35.872 46.944-64.736 73.536-83.488 14.176-10.016 28.64-17.12 43.232-21.376L448 320l-155.264 0C303.488 289.92 316.352 262.304 331.232 237.504zM448 384l0 128-191.328 0c1.888-44.16 7.68-87.04 17.28-128L448 384zM95.904 704c-17.056-40.896-27.328-83.808-30.688-128l127.456 0c1.76 44.608 7.168 87.552 15.744 128L95.904 704zM256.672 576 448 576l0 128-174.048 0C264.352 663.04 258.56 620.16 256.672 576zM448 768l0 187.328c-14.592-4.256-29.056-11.36-43.232-21.376-26.592-18.752-52-47.616-73.536-83.488-14.88-24.8-27.744-52.416-38.496-82.496L448 768zM628.768 850.496c-21.536 35.872-46.944 64.736-73.536 83.488-14.176 9.984-28.64 17.12-43.232 21.376L512 768l155.264 0C656.512 798.08 643.648 825.664 628.768 850.496zM512 704l0-128 191.328 0c-1.888 44.16-7.68 87.04-17.28 128L512 704zM767.36 512c-1.76-44.608-7.168-87.552-15.744-128l112.512 0c17.056 40.896 27.36 83.808 30.688 128L767.36 512zM830.656 320l-95.904 0c-18.624-58.752-44.384-110.304-75.328-151.424 42.528 20.352 81.056 47.616 114.72 81.28C795.648 271.328 814.528 294.784 830.656 320zM185.856 249.856c33.664-33.664 72.192-60.928 114.72-81.28-30.944 41.12-56.672 92.672-75.328 151.424L129.344 320C145.472 294.784 164.352 271.328 185.856 249.856zM129.344 768l95.904 0c18.656 58.752 44.384 110.304 75.328 151.424-42.528-20.352-81.056-47.616-114.72-81.28C164.352 816.672 145.472 793.216 129.344 768zM774.144 838.144c-33.664 33.664-72.192 60.928-114.72 81.28 30.944-41.12 56.672-92.672 75.328-151.424l95.904 0C814.528 793.216 795.648 816.672 774.144 838.144z" p-id="2653"></path></svg>