<?xml version="1.0" standalone="no"?><!DOCTYPE svg PUBLIC "-//W3C//DTD SVG 1.1//EN" "http://www.w3.org/Graphics/SVG/1.1/DTD/svg11.dtd"><svg t="1742714853083" class="icon" viewBox="0 0 1024 1024" version="1.1" xmlns="http://www.w3.org/2000/svg" p-id="7767" xmlns:xlink="http://www.w3.org/1999/xlink" width="200" height="200"><path d="M874.666667 562.773333a32 32 0 0 1 32 32v298.666667a32 32 0 0 1-32 32h-298.666667a32 32 0 0 1-32-32v-298.666667a32 32 0 0 1 32-32h298.666667z m-426.666667 0a32 32 0 0 1 32 32v298.666667a32 32 0 0 1-32 32h-298.666667a32 32 0 0 1-32-32v-298.666667a32 32 0 0 1 32-32h298.666667z m394.666667 64h-234.666667v234.666667h234.666667v-234.666667z m32-490.666666a32 32 0 0 1 32 32v298.666666a32 32 0 0 1-32 32h-298.666667a32 32 0 0 1-32-32v-298.666666a32 32 0 0 1 32-32h298.666667z m-32 64h-234.666667v234.666666h234.666667v-234.666666z m-661.333334 426.666666v234.666667h234.666667v-234.666667h-234.666667z m266.666667-490.666666a32 32 0 0 1 32 32v298.666666a32 32 0 0 1-32 32h-298.666667a32 32 0 0 1-32-32v-298.666666a32 32 0 0 1 32-32h298.666667z m-32 64h-234.666667v234.666666h234.666667v-234.666666z" p-id="7768"></path></svg>