<?xml version="1.0" standalone="no"?><!DOCTYPE svg PUBLIC "-//W3C//DTD SVG 1.1//EN" "http://www.w3.org/Graphics/SVG/1.1/DTD/svg11.dtd"><svg t="1720753036132" class="icon" viewBox="0 0 1024 1024" version="1.1" xmlns="http://www.w3.org/2000/svg" p-id="18350" xmlns:xlink="http://www.w3.org/1999/xlink" width="200" height="200"><path d="M390.4 448H147.2c-32 0-51.2-25.6-51.2-57.6V147.2c0-32 25.6-51.2 51.2-51.2h249.6c25.6 0 51.2 19.2 51.2 51.2v249.6c0 25.6-25.6 51.2-57.6 51.2zM876.8 448H633.6c-32 0-57.6-25.6-57.6-57.6V147.2c0-32 25.6-51.2 51.2-51.2h249.6c32 0 51.2 25.6 51.2 51.2v249.6c0 25.6-19.2 51.2-51.2 51.2zM390.4 928H147.2c-32 0-51.2-25.6-51.2-51.2V633.6c0-32 19.2-57.6 51.2-57.6h249.6c25.6 0 51.2 25.6 51.2 57.6v249.6c0 25.6-25.6 44.8-57.6 44.8zM876.8 928H633.6c-32 0-51.2-25.6-51.2-51.2V633.6c-6.4-32 19.2-57.6 51.2-57.6h249.6c32 0 51.2 25.6 51.2 51.2v249.6c-6.4 32-25.6 51.2-57.6 51.2z" fill="" p-id="18351"></path></svg>