<?xml version="1.0" standalone="no"?><!DOCTYPE svg PUBLIC "-//W3C//DTD SVG 1.1//EN" "http://www.w3.org/Graphics/SVG/1.1/DTD/svg11.dtd"><svg class="icon" width="200px" height="200.00px" viewBox="0 0 1024 1024" version="1.1" xmlns="http://www.w3.org/2000/svg"><path d="M883.996444 230.001778c37.347556 0 70.001778 13.994667 97.991112 42.012444 28.017778 27.989333 42.012444 61.326222 42.012444 99.982222 0 25.315556-6.343111 48.668444-19.000889 70.001778a141.368889 141.368889 0 0 1-51.996444 51.000889 136.334222 136.334222 0 0 1-69.006223 19.000889H769.991111v1.991111a174.279111 174.279111 0 0 1-23.978667 80.014222c9.329778 47.985778-1.991111 91.306667-34.019555 129.991111 1.336889 51.996444-13.340444 93.667556-44.003556 125.013334-30.663111 31.317333-74.666667 46.990222-131.982222 46.990222h-48.014222c-24.007111 0-48.64-3.669333-73.984-11.008s-47.018667-15.644444-65.024-25.002667a2348.544 2348.544 0 0 0-57.998222-29.013333c-20.650667-9.955556-38.314667-16.298667-52.992-18.972444-12.003556 13.340444-27.306667 19.996444-45.994667 19.996444h-128c-17.351111 0-32.341333-6.343111-44.999111-19.000889C6.343111 800.341333 0 785.322667 0 768V320c0-17.351111 6.343111-32.341333 19.000889-44.999111 12.657778-12.657778 27.676444-19.000889 44.999111-19.000889h128c24.007111 0 42.012444 10.012444 53.987556 30.008889 17.351111-8.021333 38.684444-27.022222 64-57.002667 25.344-30.008889 44.657778-55.665778 58.026666-76.999111 3.982222-6.684444 10.638222-20.337778 19.996445-41.016889 9.329778-20.650667 17.976889-38.001778 25.998222-51.996444 7.964444-13.994667 20.650667-27.306667 38.001778-39.992889 17.322667-12.657778 37.319111-19.000889 59.989333-19.000889 26.652444 0 51.342222 5.973333 74.012444 18.005333a137.016889 137.016889 0 0 1 53.987556 51.000889c13.340444 21.987556 19.996444 45.653333 19.996444 70.997334a215.409778 215.409778 0 0 1-19.996444 89.998222zM64 320v448h128V320zM883.996444 448c19.996444 0 37.660444-7.68 52.992-23.011556 15.36-15.331556 23.011556-32.995556 23.011556-52.992 0-21.333333-7.68-39.651556-23.011556-54.983111-15.331556-15.36-32.995556-23.011556-52.992-23.011555H537.998222c0-9.329778 9.671111-30.008889 29.013334-62.008889 19.342222-32 29.013333-62.663111 29.013333-91.989333 0-21.333333-8.021333-39.338667-24.035556-54.016-15.985778-14.648889-35.982222-21.987556-59.989333-21.987556-14.677333 0-26.680889 5.688889-36.010667 17.009778-9.329778 11.320889-19.000889 29.013333-29.013333 52.992-9.955556 24.007111-18.318222 41.329778-24.974222 51.996444-18.659556 30.663111-44.344889 63.658667-76.999111 98.986667C312.32 320.369778 282.652444 342.698667 256 352.028444v397.994667c18.659556 3.982222 53.674667 18.688 104.988444 44.003556 51.342222 25.315556 93.667556 38.001778 127.004445 38.001777h48.014222c87.978667 0 124.672-44.657778 109.994667-133.973333 15.985778-9.358222 27.306667-25.685333 33.991111-49.038222a89.742222 89.742222 0 0 0-5.973333-66.986667c19.968-19.996444 30.634667-43.662222 31.971555-70.997333 1.336889-27.335111-5.973333-48.355556-21.987555-63.004445zM155.989333 676.010667c8.021333 7.964444 12.003556 17.322667 12.003556 27.989333s-3.982222 19.996444-12.003556 27.989333a38.4 38.4 0 0 1-27.989333 12.003556 38.4 38.4 0 0 1-27.989333-12.003556A38.4 38.4 0 0 1 88.007111 704c0-10.666667 3.982222-19.996444 12.003556-27.989333a38.4 38.4 0 0 1 27.989333-12.003556c10.666667 0 19.996444 3.982222 27.989333 12.003556z" /></svg>