<?xml version="1.0" standalone="no"?><!DOCTYPE svg PUBLIC "-//W3C//DTD SVG 1.1//EN" "http://www.w3.org/Graphics/SVG/1.1/DTD/svg11.dtd"><svg class="icon" width="200px" height="200.00px" viewBox="0 0 1024 1024" version="1.1" xmlns="http://www.w3.org/2000/svg"><path d="M853.333333 597.333333h-183.466666l31.146666-170.666666H853.333333a42.666667 42.666667 0 0 0 0-85.333334h-136.96l29.44-162.56A42.666667 42.666667 0 0 0 709.973333 128a42.666667 42.666667 0 0 0-52.053333 34.986667L625.92 341.333333h-165.546667l29.44-162.56A42.666667 42.666667 0 0 0 453.973333 128a42.666667 42.666667 0 0 0-52.053333 34.986667L369.92 341.333333H170.666667a42.666667 42.666667 0 0 0 0 85.333334h183.466666l-31.146666 170.666666H170.666667a42.666667 42.666667 0 0 0 0 85.333334h136.96l-29.44 162.56A42.666667 42.666667 0 0 0 314.026667 896a42.666667 42.666667 0 0 0 52.053333-34.986667L398.08 682.666667h165.546667l-29.44 162.56a42.666667 42.666667 0 0 0 35.84 50.773333 42.666667 42.666667 0 0 0 52.053333-34.986667l32-178.346666H853.333333a42.666667 42.666667 0 0 0 0-85.333334zM413.866667 597.333333l31.146666-170.666666h165.12l-31.146666 170.666666z" /></svg>