<?xml version="1.0" standalone="no"?><!DOCTYPE svg PUBLIC "-//W3C//DTD SVG 1.1//EN" "http://www.w3.org/Graphics/SVG/1.1/DTD/svg11.dtd"><svg class="icon" width="200px" height="200.00px" viewBox="0 0 1024 1024" version="1.1" xmlns="http://www.w3.org/2000/svg"><path d="M825.6 198.4v32h-6.4c-2.133333 0-6.4 0-12.8 2.133333-6.4 0-12.8 2.133333-17.066667 4.266667-4.266667 2.133333-8.533333 4.266667-12.8 8.533333-4.266667 4.266667-6.4 8.533333-6.4 12.8v505.6c0 8.533333 4.266667 14.933333 14.933334 19.2 8.533333 4.266667 19.2 6.4 27.733333 8.533334l14.933333 2.133333v32H597.333333v-32c27.733333 0 44.8-2.133333 49.066667-4.266667s6.4-10.666667 6.4-25.6v-224h-283.733333v224c0 14.933333 2.133333 21.333333 6.4 25.6s21.333333 4.266667 49.066666 4.266667v32h-228.266666v-32h6.4c2.133333 0 6.4 0 12.8-2.133333 6.4 0 12.8-2.133333 17.066666-4.266667 4.266667-2.133333 8.533333-4.266667 12.8-8.533333 4.266667-4.266667 6.4-8.533333 6.4-12.8v-505.6c0-8.533333-4.266667-14.933333-14.933333-19.2-8.533333-4.266667-19.2-6.4-27.733333-8.533334l-14.933334-2.133333v-32h228.266667v32c-27.733333 0-44.8 2.133333-49.066667 4.266667s-6.4 10.666667-6.4 25.6v224h283.733334v-224c0-14.933333-2.133333-21.333333-6.4-25.6-4.266667-2.133333-21.333333-4.266667-49.066667-4.266667v-32h230.4z" /></svg>