<?xml version="1.0" standalone="no"?><!DOCTYPE svg PUBLIC "-//W3C//DTD SVG 1.1//EN" "http://www.w3.org/Graphics/SVG/1.1/DTD/svg11.dtd"><svg class="icon" width="200px" height="164.76px" viewBox="0 0 1243 1024" version="1.1" xmlns="http://www.w3.org/2000/svg"><path d="M608.987429 284.452571v284.452572l243.785142 144.457143 40.96-69.12-199.094857-118.052572V284.379429z"  /><path d="M668.452571 0a506.514286 506.514286 0 0 0-501.248 512H0l217.088 221.549714 3.876571 8.265143L446.171429 512H278.674286a394.313143 394.313143 0 0 1 390.070857-398.189714 398.336 398.336 0 0 1 0 796.452571 384.585143 384.585143 0 0 1-275.602286-117.028571L314.514286 873.837714A493.348571 493.348571 0 0 0 668.452571 1024a512 512 0 0 0 0-1024z"  /></svg>