<?xml version="1.0" standalone="no"?><!DOCTYPE svg PUBLIC "-//W3C//DTD SVG 1.1//EN" "http://www.w3.org/Graphics/SVG/1.1/DTD/svg11.dtd"><svg class="icon" width="200px" height="200.00px" viewBox="0 0 1024 1024" version="1.1" xmlns="http://www.w3.org/2000/svg"><path d="M353.792 539.648c13.312-11.776 32.768-10.752 45.056 1.536l172.032 160.768 114.176-105.472a32.768 32.768 0 0 1 44.544 0l129.024 152.064V230.4H163.84v518.144l189.952-208.896z m525.824-384.512c30.72 0 55.808 24.064 55.808 53.76v606.208c0 30.208-25.088 54.272-55.808 54.272H142.848c-30.72 0-55.808-24.064-55.808-54.272V208.896c0-29.696 25.088-53.76 56.32-53.76h736.256z m-267.264 284.672a100.352 100.352 0 1 1 174.08-100.352 100.352 100.352 0 0 1-174.08 100.352z" /></svg>