<?xml version="1.0" standalone="no"?><!DOCTYPE svg PUBLIC "-//W3C//DTD SVG 1.1//EN" "http://www.w3.org/Graphics/SVG/1.1/DTD/svg11.dtd"><svg t="1624065252808" class="icon" viewBox="0 0 1024 1024" version="1.1" xmlns="http://www.w3.org/2000/svg" p-id="1212" xmlns:xlink="http://www.w3.org/1999/xlink" width="200" height="200"><defs><style type="text/css"></style></defs><path d="M481.28 715.946667a32 32 0 0 0 22.613333 9.386666h16.213334a32.853333 32.853333 0 0 0 22.613333-9.386666l218.88-219.306667a21.333333 21.333333 0 0 0 0-30.293333l-30.293333-30.293334a20.906667 20.906667 0 0 0-29.866667 0L554.666667 583.253333V149.333333a21.333333 21.333333 0 0 0-21.333334-21.333333h-42.666666a21.333333 21.333333 0 0 0-21.333334 21.333333v433.92l-146.773333-147.2a21.333333 21.333333 0 0 0-30.293333 0l-29.866667 30.293334a21.333333 21.333333 0 0 0 0 30.293333z m30.72-90.026667zM896 810.666667v-149.333334a21.333333 21.333333 0 0 0-21.333333-21.333333h-42.666667a21.333333 21.333333 0 0 0-21.333333 21.333333V810.666667H213.333333v-149.333334a21.333333 21.333333 0 0 0-21.333333-21.333333h-42.666667a21.333333 21.333333 0 0 0-21.333333 21.333333V810.666667a85.333333 85.333333 0 0 0 85.333333 85.333333h597.333334a85.333333 85.333333 0 0 0 85.333333-85.333333z" p-id="1213"></path></svg>