<?xml version="1.0" standalone="no"?><!DOCTYPE svg PUBLIC "-//W3C//DTD SVG 1.1//EN" "http://www.w3.org/Graphics/SVG/1.1/DTD/svg11.dtd"><svg class="icon" width="200px" height="200.00px" viewBox="0 0 1024 1024" version="1.1" xmlns="http://www.w3.org/2000/svg"><path d="M657.714286 548.571429h180.571428q-0.571429-1.714286-1.428571-4.571429t-1.428572-4.571429l-121.142857-283.428571H309.714286L188.571429 539.428571q-0.571429 1.142857-1.428572 4.571429t-1.428571 4.571429h180.571428l54.285715 109.714285h182.857142z m293.142857 17.142857v275.428571q0 14.857143-10.857143 25.714286t-25.714286 10.857143H109.714286q-14.857143 0-25.714286-10.857143t-10.857143-25.714286V565.714286q0-35.428571 14.285714-70.285715l136-315.428571q5.714286-14.285714 20.857143-24t30-9.714286h475.428572q14.857143 0 30 9.714286t20.857143 24l136 315.428571q14.285714 34.857143 14.285714 70.285715z"  /></svg>