<?xml version="1.0" standalone="no"?><!DOCTYPE svg PUBLIC "-//W3C//DTD SVG 1.1//EN" "http://www.w3.org/Graphics/SVG/1.1/DTD/svg11.dtd"><svg t="1656651867959" class="icon" viewBox="0 0 1024 1024" version="1.1" xmlns="http://www.w3.org/2000/svg" p-id="10977" xmlns:xlink="http://www.w3.org/1999/xlink" width="200" height="200"><defs><style type="text/css">@font-face { font-family: feedback-iconfont; src: url("//at.alicdn.com/t/font_1031158_u69w8yhxdu.woff2?t=1630033759944") format("woff2"), url("//at.alicdn.com/t/font_1031158_u69w8yhxdu.woff?t=1630033759944") format("woff"), url("//at.alicdn.com/t/font_1031158_u69w8yhxdu.ttf?t=1630033759944") format("truetype"); }
</style></defs><path d="M746.666667 501.333333a202.666667 202.666667 0 1 1-192.298667 266.794667h-84.736A202.752 202.752 0 0 1 74.666667 704a202.666667 202.666667 0 0 1 404.224-21.333333h66.218666a202.666667 202.666667 0 0 1 201.557334-181.333334z m-469.333334 85.333334a117.333333 117.333333 0 1 0 0 234.666666 117.333333 117.333333 0 0 0 0-234.666666z m469.333334 0a117.333333 117.333333 0 1 0 0 234.666666 117.333333 117.333333 0 0 0 0-234.666666zM661.845333 128a117.333333 117.333333 0 0 1 112.384 83.626667l42.922667 142.933333a1531.306667 1531.306667 0 0 1 99.285333 19.925333 42.666667 42.666667 0 0 1-19.541333 83.029334c-117.546667-27.648-245.845333-41.514667-384.853333-41.514667-139.093333 0-267.349333 13.866667-384.938667 41.514667a42.666667 42.666667 0 0 1-19.541333-83.029334 1530.752 1530.752 0 0 1 99.242666-19.882666L249.770667 211.626667A117.333333 117.333333 0 0 1 362.154667 128h299.690666z" p-id="10978"></path></svg>