<?xml version="1.0" standalone="no"?><!DOCTYPE svg PUBLIC "-//W3C//DTD SVG 1.1//EN" "http://www.w3.org/Graphics/SVG/1.1/DTD/svg11.dtd"><svg t="1749007233543" class="icon" viewBox="0 0 1024 1024" version="1.1" xmlns="http://www.w3.org/2000/svg" p-id="6110" xmlns:xlink="http://www.w3.org/1999/xlink" width="200" height="200"><path d="M288.3 415.9h446.61c17.63 0 31.92-14.3 31.92-31.94s-14.29-31.94-31.92-31.94H288.3c-17.64 0-31.9 14.29-31.9 31.94 0 17.65 14.26 31.94 31.9 31.94z m127.6-223.59h191.42c52.86-0.02 95.7-42.91 95.69-95.8 0-52.94-42.87-95.82-95.69-95.82H415.9a95.69 95.69 0 0 0-67.68 28.08 95.796 95.796 0 0 0-28.01 67.74c-0.01 52.9 42.82 95.78 95.69 95.8z m0-127.74h191.42c17.63 0 31.93 14.3 31.93 31.94s-14.29 31.94-31.93 31.94H415.9c-17.63 0-31.93-14.3-31.93-31.94s14.29-31.94 31.93-31.94z m350.92 511.01c-0.01-17.62-14.29-31.91-31.9-31.92H288.3c-17.62 0-31.91 14.29-31.91 31.93 0 17.63 14.29 31.93 31.91 31.93h446.61c17.62-0.01 31.91-14.3 31.91-31.94z m95.71-511.01h-95.71v63.88h95.71c17.62 0.01 31.9 14.31 31.9 31.94v766.54c0 17.63-14.28 31.93-31.9 31.94H160.69c-17.62-0.01-31.9-14.31-31.9-31.94V160.39c0-17.63 14.28-31.93 31.9-31.94h95.71V64.57h-95.71c-52.86 0.03-95.7 42.93-95.69 95.82v766.54c0 52.93 42.86 95.82 95.69 95.82h701.84a95.707 95.707 0 0 0 67.68-28.08 95.779 95.779 0 0 0 28.01-67.74V160.39c0-52.91-42.86-95.82-95.69-95.82zM288.3 735.29c-17.64 0-31.9 14.29-31.9 31.94 0 17.65 14.26 31.94 31.9 31.94h255.21c17.63 0 31.92-14.3 31.92-31.94s-14.29-31.94-31.92-31.94H288.3z m0 0" p-id="6111"></path></svg>