<?xml version="1.0" standalone="no"?><!DOCTYPE svg PUBLIC "-//W3C//DTD SVG 1.1//EN" "http://www.w3.org/Graphics/SVG/1.1/DTD/svg11.dtd"><svg class="icon" width="200px" height="200.00px" viewBox="0 0 1024 1024" version="1.1" xmlns="http://www.w3.org/2000/svg"><path d="M512 34.133333C249.173333 34.133333 34.133333 249.173333 34.133333 512s215.04 477.866667 477.866667 477.866667 477.866667-215.04 477.866667-477.866667S774.826667 34.133333 512 34.133333z m0 876.100267c-219.0336 0-398.2336-179.2-398.2336-398.2336S292.9664 113.7664 512 113.7664 910.2336 292.9664 910.2336 512 731.0336 910.2336 512 910.2336z"  /><path d="M512 785.066667a51.2 51.2 0 0 0 51.2-51.2v-283.067734a51.2 51.2 0 0 0-102.4 0V733.866667A51.2 51.2 0 0 0 512 785.066667z m0-547.84a51.2 51.2 0 0 0-51.2 51.2v1.706666a51.2 51.2 0 0 0 102.4 0v-1.706666a51.2 51.2 0 0 0-51.2-51.2z"  /></svg>