<?xml version="1.0" standalone="no"?><!DOCTYPE svg PUBLIC "-//W3C//DTD SVG 1.1//EN" "http://www.w3.org/Graphics/SVG/1.1/DTD/svg11.dtd"><svg class="icon" width="200px" height="200.00px" viewBox="0 0 1024 1024" version="1.1" xmlns="http://www.w3.org/2000/svg"><path d="M575.043172 512.774063c0-35.262893-28.726356-63.817235-63.817235-63.817235S447.236687 477.683185 447.236687 512.774063v255.612969c0 35.262893 28.726356 63.817235 63.817235 63.817235s63.817235-28.726356 63.817235-63.817235V512.774063z m-63.98925-319.430203c-35.262893 0-63.817235 28.726356-63.817235 63.817235s28.554342 63.817235 63.817235 63.817235 63.817235-28.726356 63.817235-63.817235c0.172014-35.262893-28.554342-63.817235-63.817235-63.817235z m0 830.65614C228.778767 1024 0 795.221233 0 512.774063S228.778767 1.720141 511.053922 1.720141c282.275155 0 511.053922 228.778767 511.053923 511.053922s-228.778767 511.225937-511.053923 511.225937z" /></svg>