<?xml version="1.0" standalone="no"?><!DOCTYPE svg PUBLIC "-//W3C//DTD SVG 1.1//EN" "http://www.w3.org/Graphics/SVG/1.1/DTD/svg11.dtd"><svg t="1680835523285" class="icon" viewBox="0 0 1024 1024" version="1.1" xmlns="http://www.w3.org/2000/svg" p-id="3682" xmlns:xlink="http://www.w3.org/1999/xlink" width="200" height="200"><path d="M301.333333 750.677333l-206.656-162.666666 102.656-190.677334L491.989333 512z" fill="#F57C00" p-id="3683"></path><path d="M938.666667 313.344l-16 493.333333L594.666667 938.666667l-197.333334-128 288-298.666667z" fill="#1E88E5" p-id="3684"></path><path d="M938.666667 313.344L678.656 620.010667 560 234.666667l113.344-136z" fill="#2962FF" p-id="3685"></path><path d="M740.010667 418.666667L496 793.344 154.666667 917.333333l54.677333-192 70.656-237.333333z" fill="#AB47BC" p-id="3686"></path><path d="M280 488L85.333333 422.677333 209.344 85.333333l266.666667 32 264 301.333334z" fill="#E91E63" p-id="3687"></path><path d="M234.666667 234.666667h533.333333v533.333333H234.666667z" fill="#000001" p-id="3688"></path><path d="M298.666667 672h192V704h-192z m138.666666-333.333333V298.666667h-106.666666v40H362.666667v138.666666h-32v40h106.666666v-40h-28.608v-138.666666z m104 184c-40 0-61.248-23.424-69.333333-33.024l30.101333-34.24c5.44 6.016 20.565333 21.930667 39.232 21.930666 24 0 29.333333-24 29.333334-37.333333V298.666667H618.666667v141.333333c0 13.312 0 34.666667-16 56-11.2 14.933333-37.333333 26.666667-61.333334 26.666667z" fill="#FFFFFF" p-id="3689"></path></svg>