<?xml version="1.0" standalone="no"?><!DOCTYPE svg PUBLIC "-//W3C//DTD SVG 1.1//EN" "http://www.w3.org/Graphics/SVG/1.1/DTD/svg11.dtd"><svg t="1718635970649" class="icon" viewBox="0 0 1024 1024" version="1.1" xmlns="http://www.w3.org/2000/svg" p-id="7534" xmlns:xlink="http://www.w3.org/1999/xlink" width="200" height="200"><path d="M460.356 215.04c0 62.976-51.052 114.03-114.038 114.03-62.964 0-114.018-51.052-114.018-114.03 0-62.982 51.052-114.036 114.018-114.036C409.302 101.004 460.356 152.056 460.356 215.04zM346.328 694.924c-62.986 0-114.038 51.068-114.038 114.038 0 62.984 51.05 114.036 114.038 114.036 62.984 0 114.038-51.05 114.038-114.036C460.366 745.992 409.312 694.924 346.328 694.924zM520.258 220.554c91.046 8.744 170.018 59.456 217.28 132.514 34.118-15.68 71.982-19.584 107.642-12.224-63.526-131.058-197.91-221.646-353.062-221.646-0.202 0-0.402 0.008-0.604 0.008C510.898 148.472 521.406 183.404 520.258 220.554zM245.304 667.328c-60.176-94.848-60.428-216.006-0.608-311.108-28.804-20.792-51.018-50.17-62.858-84.354-109.222 141.222-109.128 338.154 0.338 479.282C194.188 717.142 216.476 687.95 245.304 667.328zM737.542 669.504c-47.272 73.076-126.26 123.792-217.328 132.526 1.436 36.774-8.56 71.744-27.758 101.35 155.012-0.132 289.25-90.684 352.728-221.652C809.616 689.064 771.76 685.23 737.542 669.504zM809.964 397.26c-62.966 0-114.02 51.05-114.02 114.028 0 62.974 51.052 114.026 114.02 114.026 62.982 0 114.036-51.05 114.036-114.026C924 448.31 872.948 397.26 809.964 397.26z" p-id="7535"></path></svg>