<?xml version="1.0" standalone="no"?><!DOCTYPE svg PUBLIC "-//W3C//DTD SVG 1.1//EN" "http://www.w3.org/Graphics/SVG/1.1/DTD/svg11.dtd"><svg class="icon" width="200px" height="200.00px" viewBox="0 0 1024 1024" version="1.1" xmlns="http://www.w3.org/2000/svg"><path d="M801.142857 344.571429q-10.285714 21.142857-33.142857 21.142857l-109.714286 0 0 493.714286q0 8-5.142857 13.142857t-13.142857 5.142857l-402.285714 0q-12 0-16.571429-10.285714-4.571429-11.428571 2.285714-20l91.428571-109.714286q5.142857-6.285714 14.285714-6.285714l182.857143 0 0-365.714286-109.714286 0q-22.857143 0-33.142857-21.142857-9.714286-21.142857 5.142857-38.857143l182.857143-219.428571q10.285714-12.571429 28-12.571429t28 12.571429l182.857143 219.428571q15.428571 18.285714 5.142857 38.857143z" /></svg>