<?xml version="1.0" standalone="no"?><!DOCTYPE svg PUBLIC "-//W3C//DTD SVG 1.1//EN" "http://www.w3.org/Graphics/SVG/1.1/DTD/svg11.dtd"><svg class="icon" width="200px" height="188.24px" viewBox="0 0 1088 1024" version="1.1" xmlns="http://www.w3.org/2000/svg"><path d="M560 928a432 432 0 1 0 0-864 432 432 0 0 0 0 864z m0-96a336 336 0 1 1 0-672 336 336 0 0 1 0 672z" fill="#0A1938" fill-opacity=".08" /><path d="M992 496A432 432 0 0 0 560 64a48 48 0 0 0 0 96c185.6 0 336 150.4 336 336a48 48 0 1 0 96 0z" fill="#3699ff" /></svg>

