<?xml version="1.0" encoding="UTF-8" standalone="no"?>
<svg
   xmlns:dc="http://purl.org/dc/elements/1.1/"
   xmlns:cc="http://creativecommons.org/ns#"
   xmlns:rdf="http://www.w3.org/1999/02/22-rdf-syntax-ns#"
   xmlns:svg="http://www.w3.org/2000/svg"
   xmlns="http://www.w3.org/2000/svg"
   xmlns:sodipodi="http://sodipodi.sourceforge.net/DTD/sodipodi-0.dtd"
   xmlns:inkscape="http://www.inkscape.org/namespaces/inkscape"
   inkscape:version="1.0 (4035a4f, 2020-05-01)"
   sodipodi:docname="macosx.svg"
   id="svg28"
   height="200"
   width="200"
   p-id="2824"
   version="1.1"
   viewBox="0 0 1024 1024"
   class="icon"
   t="1629430739756">
  <metadata
     id="metadata32">
    <rdf:RDF>
      <cc:Work
         rdf:about="">
        <dc:format>image/svg+xml</dc:format>
        <dc:type
           rdf:resource="http://purl.org/dc/dcmitype/StillImage" />
      </cc:Work>
    </rdf:RDF>
  </metadata>
  <sodipodi:namedview
     inkscape:current-layer="svg28"
     inkscape:window-maximized="1"
     inkscape:window-y="25"
     inkscape:window-x="56"
     inkscape:cy="137.73909"
     inkscape:cx="100"
     inkscape:zoom="3.545"
     showgrid="false"
     id="namedview30"
     inkscape:window-height="847"
     inkscape:window-width="1384"
     inkscape:pageshadow="2"
     inkscape:pageopacity="0"
     guidetolerance="10"
     gridtolerance="10"
     objecttolerance="10"
     borderopacity="1"
     bordercolor="#666666"
     pagecolor="#ffffff" />
  <defs
     id="defs24">
    <style
       id="style22"
       type="text/css" />
  </defs>
  <path
     style="stroke-width:1.08387"
     id="path26"
     p-id="2825"
     d="m 886.67561,720.85686 c -1.14102,3.38376 -18.96761,64.15414 -62.76951,126.64274 -37.91055,53.90312 -77.11136,108.24265 -139.02481,109.19658 -60.88578,1.04605 -80.36949,-35.50414 -149.88527,-35.50414 -69.42715,0 -91.25348,34.55021 -148.79474,36.55019 C 326.71683,960.1216 280.94368,898.86107 242.88952,845.2211 165.11734,735.33812 105.23458,533.83957 185.54685,398.80215 225.0618,331.23794 296.08658,288.29088 373.43019,287.11764 c 58.28508,-1.07674 113.73951,38.58746 149.14027,38.58746 36.36902,0 103.4524,-47.99418 174.22364,-40.81331 29.63171,1.23354 112.51436,12.10626 165.91563,87.74717 -4.20169,2.79385 -99.17106,57.56648 -98.11306,169.04265 1.42712,134.578 120.79431,178.71583 122.07894,179.17525 M 650.48242,212.80349 c 31.91375,-38.04578 52.88516,-90.34365 47.36743,-142.280785 -45.56671,1.746698 -101.08397,29.574345 -134.07928,67.394255 -29.17397,32.99648 -54.88784,86.10904 -47.71637,137.44309 50.62894,3.00546 102.68611,-25.91099 134.42822,-62.55656" />
</svg>
