<?xml version="1.0" standalone="no"?><!DOCTYPE svg PUBLIC "-//W3C//DTD SVG 1.1//EN" "http://www.w3.org/Graphics/SVG/1.1/DTD/svg11.dtd"><svg t="1775433944707" class="icon" viewBox="0 0 1024 1024" version="1.1" xmlns="http://www.w3.org/2000/svg" p-id="12203" xmlns:xlink="http://www.w3.org/1999/xlink" width="200" height="200"><path d="M0 42.666667a42.666667 42.666667 0 0 1 42.666667-42.666667h384a42.666667 42.666667 0 0 1 42.666666 42.666667v192a42.666667 42.666667 0 0 1-85.333333 0V85.333333H85.333333v853.333334h298.666667v-149.333334a42.666667 42.666667 0 1 1 85.333333 0V981.333333a42.666667 42.666667 0 0 1-42.666666 42.666667H42.666667a42.666667 42.666667 0 0 1-42.666667-42.666667V42.666667zM1024 981.333333a42.666667 42.666667 0 0 1-42.666667 42.666667h-384a42.666667 42.666667 0 0 1-42.666666-42.666667v-192a42.666667 42.666667 0 1 1 85.333333 0V938.666667h298.666667V85.333333h-298.666667v149.333334a42.666667 42.666667 0 1 1-85.333333 0V42.666667a42.666667 42.666667 0 0 1 42.666666-42.666667h384a42.666667 42.666667 0 0 1 42.666667 42.666667v938.666666z" p-id="12204"></path><path d="M341.333333 469.333333a42.666667 42.666667 0 1 0 0 85.333334 42.666667 42.666667 0 0 0 0-85.333334z m-128 42.666667a128 128 0 1 1 256 0 128 128 0 0 1-256 0zM798.165333 481.834667a42.666667 42.666667 0 0 1 0 60.330666l-85.333333 85.333334a42.666667 42.666667 0 0 1-60.330667-60.330667L707.669333 512l-55.168-55.168a42.666667 42.666667 0 0 1 60.330667-60.330667l85.333333 85.333334z" p-id="12205"></path><path d="M789.333333 512a42.666667 42.666667 0 0 1-42.666666 42.666667H426.666667a42.666667 42.666667 0 1 1 0-85.333334h320a42.666667 42.666667 0 0 1 42.666666 42.666667z" p-id="12206"></path></svg>