<?xml version="1.0" standalone="no"?><!DOCTYPE svg PUBLIC "-//W3C//DTD SVG 1.1//EN" "http://www.w3.org/Graphics/SVG/1.1/DTD/svg11.dtd"><svg class="icon" width="200px" height="200.00px" viewBox="0 0 1024 1024" version="1.1" xmlns="http://www.w3.org/2000/svg"><path stroke="currentColor" stroke-width="20" d="M938.666667 853.333333c0 23.552-21.632 42.666667-48.298667 42.666667H133.632C106.965333 896 85.333333 876.885333 85.333333 853.333333s21.632-42.666667 48.298667-42.666666h756.736c26.666667 0 48.298667 19.114667 48.298667 42.666666z m0-341.333333c0 23.552-21.632 42.666667-48.298667 42.666667H133.632C106.965333 554.666667 85.333333 535.552 85.333333 512s21.632-42.666667 48.298667-42.666667h756.736c26.666667 0 48.298667 19.114667 48.298667 42.666667z m-10.666667-341.333333c0 23.552-21.504 42.666667-48 42.666666H128c-26.496 0-48-19.114667-48-42.666666S101.504 128 128 128h752c26.496 0 48 19.114667 48 42.666667z" /></svg>