<?xml version="1.0" standalone="no"?><!DOCTYPE svg PUBLIC "-//W3C//DTD SVG 1.1//EN" "http://www.w3.org/Graphics/SVG/1.1/DTD/svg11.dtd"><svg t="1704894464523" class="icon" viewBox="0 0 1024 1024" version="1.1" xmlns="http://www.w3.org/2000/svg" p-id="4226" xmlns:xlink="http://www.w3.org/1999/xlink" width="200" height="200"><path d="M754.00576 923.008a170.453333 170.453333 0 1 1 0-340.906667 170.453333 170.453333 0 0 1 0 340.906667m-340.010667-390.698667a106.538667 106.538667 0 1 1 0-213.077333 106.538667 106.538667 0 0 1 0 213.077333m347.52-332.586666h-284.458666a262.656 262.656 0 0 0-262.570667 262.613333v284.458667a262.570667 262.570667 0 0 0 262.570667 262.570666h284.458666A262.570667 262.570667 0 0 0 1024.08576 746.794667v-284.458667a262.613333 262.613333 0 0 0-262.570667-262.613333M170.539093 99.797333a85.248 85.248 0 1 1-170.496 0 85.248 85.248 0 0 1 170.496 0" p-id="4227"></path></svg>