<?xml version="1.0" standalone="no"?><!DOCTYPE svg PUBLIC "-//W3C//DTD SVG 1.1//EN" "http://www.w3.org/Graphics/SVG/1.1/DTD/svg11.dtd"><svg t="1698799392050" class="icon" viewBox="0 0 1024 1024" version="1.1" xmlns="http://www.w3.org/2000/svg" p-id="4043" xmlns:xlink="http://www.w3.org/1999/xlink" width="200" height="200"><path d="M704 443.733333c-8.533333 0-12.8 0-21.333333-4.266666L298.666667 217.6c-21.333333-12.8-25.6-38.4-17.066667-59.733333 12.8-21.333333 38.4-25.6 59.733333-17.066667l384 221.866667c21.333333 12.8 25.6 38.4 17.066667 59.733333-8.533333 12.8-25.6 21.333333-38.4 21.333333z" p-id="4044"></path><path d="M512 981.333333c-21.333333 0-42.666667-4.266667-64-17.066666l-298.666667-170.666667C110.933333 772.266667 85.333333 729.6 85.333333 682.666667V341.333333c0-46.933333 25.6-89.6 64-110.933333l298.666667-170.666667c38.4-21.333333 89.6-21.333333 128 0l298.666667 170.666667c38.4 21.333333 64 64 64 110.933333v341.333334c0 46.933333-25.6 89.6-64 110.933333l-298.666667 170.666667c-21.333333 12.8-42.666667 17.066667-64 17.066666z m0-853.333333c-8.533333 0-12.8 0-21.333333 4.266667l-298.666667 170.666666c-12.8 8.533333-21.333333 21.333333-21.333333 38.4v341.333334c0 17.066667 8.533333 29.866667 21.333333 38.4l298.666667 170.666666c12.8 8.533333 29.866667 8.533333 42.666666 0l298.666667-170.666666c12.8-8.533333 21.333333-21.333333 21.333333-38.4V341.333333c0-17.066667-8.533333-29.866667-21.333333-38.4l-298.666667-170.666666c-8.533333-4.266667-12.8-4.266667-21.333333-4.266667z m384 554.666667z" p-id="4045"></path><path d="M512 554.666667c-8.533333 0-12.8 0-21.333333-4.266667l-371.2-213.333333c-21.333333-17.066667-29.866667-42.666667-17.066667-59.733334 12.8-21.333333 38.4-29.866667 59.733333-17.066666l349.866667 204.8 349.866667-204.8c21.333333-12.8 46.933333-4.266667 59.733333 17.066666 12.8 21.333333 4.266667 46.933333-17.066667 59.733334l-371.2 213.333333c-8.533333 4.266667-12.8 4.266667-21.333333 4.266667z" p-id="4046"></path><path d="M512 985.6c-25.6 0-42.666667-17.066667-42.666667-42.666667V512c0-25.6 17.066667-42.666667 42.666667-42.666667s42.666667 17.066667 42.666667 42.666667v430.933333c0 21.333333-17.066667 42.666667-42.666667 42.666667z" p-id="4047"></path></svg>