<?xml version="1.0" standalone="no"?><!DOCTYPE svg PUBLIC "-//W3C//DTD SVG 1.1//EN" "http://www.w3.org/Graphics/SVG/1.1/DTD/svg11.dtd"><svg class="icon" width="200px" height="200.00px" viewBox="0 0 1024 1024" version="1.1" xmlns="http://www.w3.org/2000/svg"><path d="M512 0C230.4 0 0 230.4 0 512s230.4 512 512 512 512-230.4 512-512S793.6 0 512 0z m0 921.6c-225.28 0-409.6-184.32-409.6-409.6s184.32-409.6 409.6-409.6 409.6 184.32 409.6 409.6-184.32 409.6-409.6 409.6zM409.6 307.2c-25.6 0-51.2 25.6-51.2 51.2v307.2c0 25.6 25.6 51.2 51.2 51.2s51.2-25.6 51.2-51.2V358.4c0-25.6-25.6-51.2-51.2-51.2z m204.8 0c-25.6 0-51.2 25.6-51.2 51.2v307.2c0 25.6 25.6 51.2 51.2 51.2s51.2-25.6 51.2-51.2V358.4c0-25.6-25.6-51.2-51.2-51.2z" /></svg>