<?xml version="1.0" standalone="no"?><!DOCTYPE svg PUBLIC "-//W3C//DTD SVG 1.1//EN" "http://www.w3.org/Graphics/SVG/1.1/DTD/svg11.dtd"><svg t="1689727099295" class="icon" viewBox="0 0 1024 1024" version="1.1" xmlns="http://www.w3.org/2000/svg" p-id="2289" xmlns:xlink="http://www.w3.org/1999/xlink" width="200" height="200"><path d="M648.728381 130.779429a73.142857 73.142857 0 0 1 22.674286 15.433142l191.561143 191.756191a73.142857 73.142857 0 0 1-22.137905 118.564571l-67.876572 30.061715-127.341714 127.488-10.093714 140.239238a73.142857 73.142857 0 0 1-124.684191 46.445714l-123.66019-123.782095-210.724572 211.699809-51.833904-51.614476 210.846476-211.821714-127.926857-128.024381a73.142857 73.142857 0 0 1 46.299428-124.635429l144.237715-10.776381 125.074285-125.220571 29.379048-67.779048a73.142857 73.142857 0 0 1 96.207238-38.034285z m-29.086476 67.120761l-34.913524 80.530286-154.087619 154.331429-171.398095 12.751238 303.323428 303.542857 12.044191-167.399619 156.233143-156.428191 80.384-35.59619-191.585524-191.73181z" p-id="2290"></path></svg>