<?xml version="1.0" encoding="UTF-8" standalone="no"?>
<svg
   t="1705317311663"
   class="icon"
   viewBox="0 0 1024 1024"
   version="1.1"
   p-id="5343"
   width="200"
   height="200"
   id="svg2"
   sodipodi:docname="python.svg"
   inkscape:version="1.3.2 (091e20e, 2023-11-25)"
   xmlns:inkscape="http://www.inkscape.org/namespaces/inkscape"
   xmlns:sodipodi="http://sodipodi.sourceforge.net/DTD/sodipodi-0.dtd"
   xmlns="http://www.w3.org/2000/svg"
   xmlns:svg="http://www.w3.org/2000/svg">
  <defs
     id="defs2" />
  <sodipodi:namedview
     id="namedview2"
     pagecolor="#ffffff"
     bordercolor="#666666"
     borderopacity="1.0"
     inkscape:showpageshadow="2"
     inkscape:pageopacity="0.0"
     inkscape:pagecheckerboard="0"
     inkscape:deskcolor="#d1d1d1"
     inkscape:zoom="3.52"
     inkscape:cx="100"
     inkscape:cy="100"
     inkscape:window-width="1384"
     inkscape:window-height="847"
     inkscape:window-x="56"
     inkscape:window-y="25"
     inkscape:window-maximized="1"
     inkscape:current-layer="svg2" />
  <path
     d="m 372.33212,494.86873 a 150.42473,147.45582 0 0 1 26.68291,-2.35013 l -7.19006,-0.0339 H 630.93249 A 110.82642,108.63906 0 0 0 660.66,488.52493 c 44.6097,-12.10737 76.79454,-50.87898 76.79454,-98.57253 V 193.03763 c 0,-56.06012 -48.70909,-98.168426 -106.60497,-107.474153 C 594.16,79.639599 540.43721,76.923735 503.97793,77.099826 467.52328,77.293977 432.62776,80.269462 402.00667,85.563477 311.72328,100.96692 295.27272,133.36764 295.27272,193.03763 v 64.65922 h 221.09092 v 36.12121 h -292.8994 c -82.05236,0 -148.632967,96.10726 -149.266301,215.01603 -0.0046,0.57117 -0.01612,1.14008 -0.01612,1.71124 0,21.4989 2.164849,42.26182 6.183637,61.86661 18.33903,89.549 75.461094,154.86066 143.098784,154.86066 h 34.96 V 623.57087 c 0,-60.56399 46.39685,-116.79117 113.90788,-128.70214 z m 23.4817,-275.54615 c -22.09067,0 -40.03589,-17.57522 -40.03589,-39.28859 0,-21.81721 17.90376,-39.55273 40.03589,-39.55273 22.04921,0 40.07042,17.73326 40.07042,39.55273 0.002,21.71337 -17.98436,39.28859 -40.07042,39.28859 z"
     p-id="5344"
     id="path1"
     style="stroke-width:1.14009" />
  <path
     d="M 949.22049,435.01363 C 928.0994,352.56244 873.40933,293.81806 809.26303,293.81806 h -34.96 v 91.82012 c 0,76.56569 -51.32534,132.00949 -113.97467,141.50711 a 124.23236,121.7804 0 0 1 -19.11745,1.4584 H 402.02049 a 118.39879,116.06197 0 0 0 -30.05225,3.77466 c -44.03855,11.32852 -76.69552,47.2488 -76.69552,93.83613 v 196.92156 c 0,56.06012 57.5228,89.00718 113.95625,105.09241 67.54096,19.25937 141.09975,22.72927 221.93382,0 C 684.8303,913.193 737.45454,882.80376 737.45454,823.13604 V 763.39382 H 516.36364 V 727.2726 h 292.89939 c 58.12848,0 108.48885,-48.2331 133.1474,-118.63334 10.31757,-29.45459 16.13502,-62.78318 16.13502,-98.09393 0,-26.56715 -3.30024,-52.01003 -9.32496,-75.5317 z M 635.81491,796.85109 c 22.08606,0 40.02897,17.57522 40.02897,39.28182 0,21.7856 -17.94291,39.55498 -40.02897,39.55498 -22.05612,0 -40.07043,-17.76938 -40.07043,-39.55498 0,-21.74046 17.97745,-39.28182 40.07043,-39.28182 z"
     p-id="5345"
     id="path2"
     style="stroke-width:1.14009" />
</svg>
