<?xml version="1.0" standalone="no"?><!DOCTYPE svg PUBLIC "-//W3C//DTD SVG 1.1//EN" "http://www.w3.org/Graphics/SVG/1.1/DTD/svg11.dtd"><svg class="icon" width="200px" height="200.00px" viewBox="0 0 1024 1024" version="1.1" xmlns="http://www.w3.org/2000/svg"><path d="M518.859241 1024C236.093457 1027.768026 3.786457 801.56359-0.002048 518.879719-3.749596 236.113935 222.393405 3.765978 505.15919-0.002048 787.924974-3.749596 1020.231974 222.434362 1024.040957 505.118233 1027.768026 787.884017 801.584068 1020.231974 518.859241 1024ZM511.896584 813.23628C545.15351 813.23628 572.103088 786.225266 572.103088 752.988819 572.103088 719.711415 545.15351 692.761837 511.896584 692.761837 478.61918 692.761837 451.628645 719.711415 451.628645 752.988819 451.628645 786.225266 478.61918 813.23628 511.896584 813.23628ZM511.896584 180.760813C399.797808 180.760813 309.037527 240.823968 302.341089 349.113761 301.501475 353.127528 301.071428 357.243687 301.071428 361.462238 301.071428 394.698686 328.041485 421.709699 361.298411 421.709699 394.575815 421.709699 421.504915 394.698686 421.504915 361.462238 421.504915 311.556371 461.970238 271.111525 511.896584 271.111525 561.761495 271.111525 602.20634 311.556371 602.20634 361.462238 605.073316 424.535718 542.266055 452.734479 511.896584 481.936681 441.102746 541.057829 451.628645 572.410264 451.628645 572.287394 451.628645 605.523841 478.61918 632.534854 511.896584 632.534854 544.928248 632.534854 571.69352 605.871974 572.041653 572.942702 606.793502 525.41233 661.921362 483.411126 662.474279 481.936681 719.89572 433.935305 722.701261 361.482716 722.701261 361.482716 722.701261 245.001562 628.336782 180.760813 511.896584 180.760813Z" /></svg>