<?xml version="1.0" standalone="no"?><!DOCTYPE svg PUBLIC "-//W3C//DTD SVG 1.1//EN" "http://www.w3.org/Graphics/SVG/1.1/DTD/svg11.dtd"><svg class="icon" width="200px" height="200.00px" viewBox="0 0 1024 1024" version="1.1" xmlns="http://www.w3.org/2000/svg"><path d="M370.9 714.4l268.3-201.1-268.3-201.2z"  /><path d="M923.7 420.1l-25.1 10.2c-39-207-220-364.1-438.3-364.1-246.8 0-447 200.3-447 447 0 246.8 200.3 447 447 447 118.1 0 225.2-46.1 305.1-121L701 777c-63.6 58.2-147.9 93.9-240.6 93.9-197.1 0-357.6-160.5-357.6-357.6 0-197.1 160.5-357.6 357.6-357.6 180.6 0 328.4 135.3 352.3 309.5l-11.2 4.5-85.6 34.5 201.7 112c10.3 4.3 22.5-0.6 26.9-10.9l64.9-219.7-85.7 34.5z"  /></svg>