<?xml version="1.0" standalone="no"?><!DOCTYPE svg PUBLIC "-//W3C//DTD SVG 1.1//EN" "http://www.w3.org/Graphics/SVG/1.1/DTD/svg11.dtd"><svg t="1661335615183" class="icon" viewBox="0 0 1024 1024" version="1.1" xmlns="http://www.w3.org/2000/svg" p-id="7048" xmlns:xlink="http://www.w3.org/1999/xlink" width="200" height="200"><defs><style type="text/css">@font-face { font-family: feedback-iconfont; src: url("//at.alicdn.com/t/font_1031158_u69w8yhxdu.woff2?t=1630033759944") format("woff2"), url("//at.alicdn.com/t/font_1031158_u69w8yhxdu.woff?t=1630033759944") format("woff"), url("//at.alicdn.com/t/font_1031158_u69w8yhxdu.ttf?t=1630033759944") format("truetype"); }
</style></defs><path d="M132.650667 563.114667A46.506667 46.506667 0 0 1 85.333333 515.84c0-182.954667 149.845333-334.336 334.378667-334.336h410.026667c26.837333 0 47.36 20.48 47.36 47.317333a46.506667 46.506667 0 0 1-47.36 47.317334h-410.026667c-132.48 0-239.786667 108.8-239.786667 239.701333A46.506667 46.506667 0 0 1 132.693333 563.2z" p-id="7049"></path><path d="M708.309333 416.426667a43.093333 43.093333 0 0 1-29.952-12.586667 42.837333 42.837333 0 0 1 0-61.525333L790.314667 230.4 678.4 118.357333a42.837333 42.837333 0 0 1 0-61.482666 42.837333 42.837333 0 0 1 61.482667 0l143.530666 143.488a42.837333 42.837333 0 0 1 0 61.525333L739.84 405.418667c-9.429333 6.314667-20.48 11.050667-31.530667 11.050666zM561.621333 851.754667h-410.026666a46.506667 46.506667 0 0 1-47.36-47.317334c0-26.794667 20.522667-47.317333 47.36-47.317333h410.026666a239.616 239.616 0 0 0 239.786667-239.744c0-26.794667 20.48-47.274667 47.274667-47.274667 26.794667 0 47.317333 20.48 47.317333 47.274667a334.506667 334.506667 0 0 1-334.378667 334.378667z" p-id="7050"></path><path d="M273.024 990.549333a43.093333 43.093333 0 0 1-29.994667-12.629333l-143.488-143.530667a42.837333 42.837333 0 0 1 0-61.482666l143.488-143.530667a42.837333 42.837333 0 0 1 61.525334 0 42.837333 42.837333 0 0 1 0 61.525333l-111.957334 111.957334 111.957334 112a42.837333 42.837333 0 0 1 0 61.482666c-9.472 9.472-20.48 14.208-31.573334 14.208z" p-id="7051"></path></svg>