<?xml version="1.0" standalone="no"?><!DOCTYPE svg PUBLIC "-//W3C//DTD SVG 1.1//EN" "http://www.w3.org/Graphics/SVG/1.1/DTD/svg11.dtd"><svg t="1655004918309" class="icon" viewBox="0 0 1024 1024" version="1.1" xmlns="http://www.w3.org/2000/svg" p-id="10299" xmlns:xlink="http://www.w3.org/1999/xlink" width="200" height="200"><defs><style type="text/css">@font-face { font-family: feedback-iconfont; src: url("//at.alicdn.com/t/font_1031158_u69w8yhxdu.woff2?t=1630033759944") format("woff2"), url("//at.alicdn.com/t/font_1031158_u69w8yhxdu.woff?t=1630033759944") format("woff"), url("//at.alicdn.com/t/font_1031158_u69w8yhxdu.ttf?t=1630033759944") format("truetype"); }
</style></defs><path d="M710.4 249.6l76.8-76.8c2.133333-2.133333 4.266667-4.266667 6.4-2.133333 2.133333 0 2.133333 4.266667 2.133333 6.4v204.8c0 4.266667-2.133333 8.533333-4.266666 10.666666s-6.4 4.266667-10.666667 4.266667h-204.8c-4.266667 0-6.4 0-6.4-2.133333s0-4.266667 2.133333-6.4l76.8-76.8c-42.666667-27.733333-87.466667-42.666667-136.533333-42.666667-44.8 0-85.333333 10.666667-121.6 32s-66.133333 51.2-87.466667 87.466667-32 78.933333-32 121.6h-85.333333c0-44.8 8.533333-87.466667 25.6-128 17.066667-40.533333 40.533333-74.666667 70.4-104.533334s64-53.333333 104.533333-70.4c40.533333-17.066667 83.2-25.6 128-25.6 70.4 2.133333 136.533333 25.6 196.266667 68.266667z m44.8 262.4h85.333333c0 44.8-8.533333 87.466667-25.6 128-17.066667 40.533333-40.533333 74.666667-70.4 104.533333-29.866667 29.866667-64 53.333333-104.533333 70.4-40.533333 17.066667-83.2 25.6-128 25.6-72.533333 0-138.666667-21.333333-198.4-66.133333l-76.8 76.8c-2.133333 2.133333-4.266667 4.266667-6.4 2.133333-2.133333 0-2.133333-4.266667-2.133333-6.4V642.133333c0-4.266667 2.133333-8.533333 4.266666-10.666666 2.133333-2.133333 6.4-4.266667 10.666667-4.266667h204.8c4.266667 0 6.4 0 6.4 2.133333s0 4.266667-2.133333 6.4l-74.666667 74.666667c42.666667 29.866667 87.466667 42.666667 136.533333 42.666667 44.8 0 85.333333-10.666667 121.6-32 38.4-21.333333 66.133333-51.2 87.466667-87.466667s32-76.8 32-121.6z" p-id="10300"></path></svg>