<?xml version="1.0" standalone="no"?><!DOCTYPE svg PUBLIC "-//W3C//DTD SVG 1.1//EN" "http://www.w3.org/Graphics/SVG/1.1/DTD/svg11.dtd"><svg t="1773286686946" class="icon" viewBox="0 0 1024 1024" version="1.1" xmlns="http://www.w3.org/2000/svg" p-id="4800" xmlns:xlink="http://www.w3.org/1999/xlink" width="200" height="200"><path d="M924.373333 174.293333a25.173333 25.173333 0 0 0-27.306666 0l-64 55.466667A424.746667 424.746667 0 0 0 519.253333 85.333333a426.666667 426.666667 0 1 0 385.493334 592.426667A42.666667 42.666667 0 0 0 865.066667 618.666667a42.666667 42.666667 0 0 0-38.613334 25.386666A341.333333 341.333333 0 1 1 768 286.08l-75.52 64a24.746667 24.746667 0 0 0-4.906667 26.88 28.16 28.16 0 0 0 21.333334 17.92L914.133333 426.666667a21.333333 21.333333 0 0 0 17.066667-4.48 21.333333 21.333333 0 0 0 7.04-16.213334V197.973333a28.586667 28.586667 0 0 0-13.866667-23.68z" p-id="4801"></path></svg>