<?xml version="1.0" standalone="no"?><!DOCTYPE svg PUBLIC "-//W3C//DTD SVG 1.1//EN" "http://www.w3.org/Graphics/SVG/1.1/DTD/svg11.dtd"><svg t="1766841334213" class="icon" viewBox="0 0 1024 1024" version="1.1" xmlns="http://www.w3.org/2000/svg" p-id="29522" xmlns:xlink="http://www.w3.org/1999/xlink" width="200" height="200"><path d="M386.112 717.888L175.808 505.728 128 553.92l210.304 212.224 47.808-48.256z m413.376-472.32l87.872-88.704L731.84 0l-87.872 88.704-60.8-61.44L184.32 429.696l277.12 279.68 253.12-255.424a306.816 306.816 0 0 1-50.368 362.816l-74.304 75.008H164.096V960h667.52v-68.224h-145.92l25.92-25.6a376.832 376.832 0 0 0 52.416-462.08l96.256-97.216-60.8-61.312zM461.504 613.888L278.976 429.696l304.192-305.216 180.8 184.192-302.464 305.216z m297.408-422.912l-60.8-61.376 33.792-34.112 60.8 61.44-33.792 34.048z" p-id="29523"></path></svg>