<?xml version="1.0" standalone="no"?><!DOCTYPE svg PUBLIC "-//W3C//DTD SVG 1.1//EN" "http://www.w3.org/Graphics/SVG/1.1/DTD/svg11.dtd"><svg t="1705318737518" class="icon" viewBox="0 0 1024 1024" version="1.1" xmlns="http://www.w3.org/2000/svg" p-id="7674" xmlns:xlink="http://www.w3.org/1999/xlink" width="200" height="200"><path d="M802.133333 88.32c107.52 18.346667 138.24 92.16 136.533334 169.386667V256l-48.64 637.013333-630.613334 43.093334h0.426667c-52.48-2.133333-168.96-7.253333-174.506667-170.24l58.453334-106.666667 118.186666 275.626667 100.693334-325.12-2.133334 0.426666 0.853334-0.853333 328.96 104.96-84.906667-331.946667 313.6-19.626666-247.04-202.24 130.133333-72.533334v0.426667M85.333333 764.16v0.853333-0.853333M267.946667 265.813333c126.293333-125.866667 289.706667-200.106667 352.426666-136.533333 62.293333 62.72-3.413333 217.173333-129.706666 342.613333-128 125.44-288.853333 203.946667-351.573334 140.8-62.72-63.573333 1.706667-221.44 128.426667-346.88h0.426667z" p-id="7675"></path></svg>