<?xml version="1.0" encoding="UTF-8" standalone="no"?>
<svg
   xmlns:dc="http://purl.org/dc/elements/1.1/"
   xmlns:cc="http://creativecommons.org/ns#"
   xmlns:rdf="http://www.w3.org/1999/02/22-rdf-syntax-ns#"
   xmlns:svg="http://www.w3.org/2000/svg"
   xmlns="http://www.w3.org/2000/svg"
   xmlns:sodipodi="http://sodipodi.sourceforge.net/DTD/sodipodi-0.dtd"
   xmlns:inkscape="http://www.inkscape.org/namespaces/inkscape"
   version="1.1"
   id="svg2"
   xml:space="preserve"
   width="2429.4399"
   height="3454.1333"
   viewBox="0 0 2429.4399 3454.1333"
   sodipodi:docname="iStock-1156485055.eps"><metadata
     id="metadata8"><rdf:RDF><cc:Work
         rdf:about=""><dc:format>image/svg+xml</dc:format><dc:type
           rdf:resource="http://purl.org/dc/dcmitype/StillImage" /></cc:Work></rdf:RDF></metadata><defs
     id="defs6" /><sodipodi:namedview
     pagecolor="#ffffff"
     bordercolor="#666666"
     borderopacity="1"
     objecttolerance="10"
     gridtolerance="10"
     guidetolerance="10"
     inkscape:pageopacity="0"
     inkscape:pageshadow="2"
     inkscape:window-width="640"
     inkscape:window-height="480"
     id="namedview4" /><g
     id="g10"
     inkscape:groupmode="layer"
     inkscape:label="ink_ext_XXXXXX"
     transform="matrix(1.3333333,0,0,-1.3333333,0,3454.1333)"><g
       id="g12"
       transform="scale(0.1)"><path
         d="m 13541.6,25806 c 211.3,-0.1 452.1,-133.5 730.8,-482.7 772.3,-968 459.5,-2381.8 -749.7,-2381.8 -36.9,0 -74.7,1.3 -113.2,4 928.6,-2239.6 1708.1,-4240.2 616.2,-5248.2 18.3,-42.7 38,-88.8 58.8,-137.9 830.3,-900.5 4976.1,-5606.8 3840.9,-8627.12 -245.5,-653.05 -855.6,-1036.21 -1483.7,-1036.21 -12.5,0 -25,0.16 -37.6,0.46 -31.9,-430.24 -100.7,-833.99 -213.9,-1200.74 -0.8,-2.75 -1.7,-5.54 -2.5,-8.29 -27.8,-89.5 -58.4,-176.73 -91.6,-261.63 -2.1,-5.31 -4.2,-10.65 -6.3,-15.94 -16.6,-41.9 -33.8,-83.32 -51.8,-124.03 -0.5,-1.08 -1,-2.13 -1.5,-3.22 -16.8,-37.89 -34.4,-75.15 -52.4,-111.98 -3.7,-7.6 -7.4,-15.2 -11.2,-22.75 -18.9,-37.88 -38.3,-75.33 -58.6,-112.02 -0.9,-1.59 -1.8,-3.12 -2.7,-4.7 -19,-34.31 -38.7,-67.94 -58.9,-101.17 -5.3,-8.68 -10.6,-17.34 -16,-25.94 -21.5,-34.5 -43.4,-68.63 -66.2,-101.92 -96.9,-141.49 -202,-274.65 -313.2,-400.84 1.5,-1502.08 -306.9,-3860.18 -2097.8,-4978.059 C 13006.2,202.758 12617.2,100 12234.2,100 c -885.4,0 -1738.1,549.645 -2039.7,1464.11 -159.6,484.21 -247.32,1060.1 -275.4,1711.69 -207.78,-10.03 -370.53,-12.26 -474.32,-12.26 -83.41,0 -128.74,1.44 -128.74,1.44 0,0 -251.72,0.53 -661.44,34.26 C 8627.64,2638.01 8539.79,2054.12 8378.19,1564.11 8076.59,649.563 7223.98,100 6338.5,100 5955.61,100 5566.49,202.805 5213.24,423.301 3383.59,1565.36 3101.29,4001.78 3116.02,5497.51 c -88.97,97.38 -174.22,198.63 -254.47,304.69 -277.62,366.95 -463.91,816.5 -576.46,1324.26 -7.5,33.85 -14.68,67.95 -21.53,102.31 -20.56,103.09 -38.22,208.43 -53.11,315.84 -4.97,35.81 -9.63,71.84 -13.98,108.1 -8.71,72.51 -16.22,145.92 -22.56,220.15 -0.67,7.87 -1.18,15.85 -1.83,23.74 -13.72,-0.37 -27.38,-0.55 -41.09,-0.55 -628.07,0 -1238.193,383.22 -1483.642,1036.23 -224.168,596.41 -242.27,1258.62 -120.766,1944.22 -272.414,63.4 -420.496,78.8 -426.578,79.4 l 67.726,784.5 c 28.403,-2.4 217.723,-20.6 547.395,-96.4 850.065,2747.2 3489.925,5616.1 3869.735,6019.1 -1147.63,996.6 -360.75,3017.3 578.38,5282.4 -38.63,-2.7 -76.23,-4 -113.19,-4 -1209.07,0 -1521.95,1413.9 -749.69,2381.8 278.72,349.3 519.43,482.7 730.8,482.7 427.69,-0.1 735.01,-546.4 992.42,-955.2 82.78,-131.4 150.91,-237.2 207.01,-322.6 1077.04,926.2 2480.29,1006.2 2932.61,1006.2 56.98,0 98.93,-1.3 123.17,-2.3 24.26,1 66.14,2.3 123.17,2.3 452.41,0 1855.66,-80.1 2932.56,-1006.2 56.1,85.4 124.3,191.2 207.1,322.6 257.4,408.8 564.6,955.2 992.4,955.2 m 0,100 c -206.3,0 -401.9,-103.6 -598.1,-316.7 -160,-173.7 -299.5,-397.5 -422.6,-595 -19,-30.6 -37.8,-60.8 -56.4,-90.2 -51.5,-81.8 -100,-157.8 -144.7,-227.1 -457.9,369.8 -1013.7,638.2 -1653.9,798.6 -551.4,138.1 -1023.85,158.8 -1256.36,158.8 -55.16,0 -96.85,-1.2 -123.17,-2.2 -26.3,1 -67.98,2.2 -123.17,2.2 -232.5,0 -704.88,-20.7 -1256.33,-158.8 -640.17,-160.4 -1195.98,-428.8 -1653.91,-798.6 -44.8,69.3 -93.25,145.3 -144.76,227.1 -18.49,29.4 -37.24,59.4 -56.27,90 -123.11,197.5 -262.64,421.3 -422.63,595.1 -196.21,213.1 -391.86,316.7 -598.13,316.8 -264.98,0 -529.6,-170.2 -808.98,-520.4 -224.78,-281.7 -370.89,-610.5 -422.53,-950.8 -50.3,-331.5 -8.59,-648.6 120.64,-917 98.36,-204.3 247.33,-373.2 430.78,-488.4 189.06,-118.7 411.3,-181.7 661.06,-187.5 -464.05,-1123 -856.47,-2125.9 -1018.92,-2994.9 -93.44,-499.8 -104,-917.3 -32.27,-1276.2 39.14,-195.9 104.22,-376.3 193.41,-536.2 76.93,-137.9 173.8,-264.2 288.72,-376.7 -275.12,-296.6 -960.32,-1059.8 -1697.42,-2066.2 -465.61,-635.7 -871.97,-1260.1 -1207.79,-1855.8 -393.16,-697.4 -692.472,-1361.2 -890.46,-1974.4 -278.988,60.2 -439.5,75.8 -471.262,78.5 -2.863,0.2 -5.71,0.4 -8.531,0.4 -51.351,0 -95.0193,-39.3 -99.5154,-91.4 L 0.375,10964.5 c -4.73047,-54.9 35.7109,-103.2 90.5078,-108.2 1.0391,-0.1 111.1132,-11.1 321.3902,-56.6 -113.144,-711.9 -65.648,-1351.56 141.469,-1902.6 125.238,-333.2 345.106,-613.49 635.828,-810.58 266.18,-180.46 573.17,-280.13 890.82,-289.71 5.03,-52.66 10.65,-104.91 16.79,-156.03 4.4,-36.62 9.18,-73.6 14.21,-109.9 15.24,-109.85 33.44,-218.08 54.11,-321.67 7,-35.1 14.39,-70.24 21.96,-104.4 120.11,-541.87 320.08,-1000.43 594.35,-1362.95 70.92,-93.74 149.5,-188.66 233.9,-282.57 -2.67,-424.89 19.23,-840.72 65.16,-1236.56 59.33,-511.35 159.19,-990.84 296.79,-1425.15 C 3730.48,1683.95 4330.24,856.582 5160.29,338.469 5515.04,117.039 5922.45,0 6338.5,0 c 230.17,0 458.91,35.25 679.87,104.77 220.25,69.3 427.53,170.996 616.07,302.261 396.96,276.371 686.98,665.659 838.72,1125.769 150.61,456.71 243.56,1014.28 276.59,1658.69 336.65,-24.94 543.41,-26.42 564.62,-26.51 8.72,-0.25 53.71,-1.44 130.41,-1.44 85.02,0 214.88,1.5 379.22,7.99 33.9,-635.79 126.51,-1186.72 275.6,-1638.73 151.7,-460.07 441.7,-849.347 838.7,-1125.737 188.6,-131.274 395.8,-232.973 616.1,-302.278 C 11775.4,35.2539 12004.1,0 12234.2,0 c 416.1,0 823.5,117.039 1178.2,338.469 814.7,508.527 1407.9,1315.541 1763.2,2398.621 139.5,425.55 242.4,895.72 305.6,1397.46 49.4,392.43 75,805.81 76,1229.23 108,124.53 207.4,252.86 295.8,381.9 21.3,31.06 43.1,64.61 68.6,105.59 5.5,8.89 11,17.86 16.5,26.87 22.9,37.65 42.9,71.87 61,104.6 l 0.4,0.69 c 0.8,1.36 1.6,2.72 2.3,4.1 19.2,34.76 39,72.59 60.6,115.73 3.5,7.2 7.1,14.4 10.6,21.61 l 0.9,1.86 c 20.2,41.16 37.8,78.89 54,115.32 0.7,1.43 1.1,2.48 1.6,3.54 17.5,39.5 34.9,81.23 53.3,127.43 1.3,3.44 2.6,6.76 3.9,10.07 l 2.5,6.28 c 33.9,86.77 65.6,177.08 94,268.45 l 1.7,5.81 0.9,2.93 c 103.6,335.76 174.4,715.73 210.6,1130.4 316.2,10.31 621.7,109.88 886.8,289.55 290.7,197.08 510.6,477.38 635.8,810.58 140.4,373.44 208.1,789.83 201.3,1237.61 -6.1,408.3 -74.4,852.3 -203,1319.6 -219.9,799.8 -620.1,1687.3 -1189.5,2637.9 -431.2,719.7 -954.3,1468.8 -1554.9,2226.2 -481.8,607.6 -893.6,1068.2 -1103.1,1296 -8.4,19.8 -16.7,39.4 -25,58.7 118.7,119.1 217.6,253.6 294.6,400.9 83.9,160.3 144.3,340.5 179.7,535.8 64.7,357.9 49.8,772.9 -45.6,1268.7 -166.1,862.5 -554.4,1853.9 -1012.9,2963.4 249.8,5.8 472.1,68.8 661.1,187.5 183.5,115.2 332.5,284 430.8,488.4 129.3,268.4 171,585.5 120.6,916.9 -51.6,340.4 -197.8,669.2 -422.6,950.9 -279.3,350.1 -543.9,520.3 -808.9,520.4 v 0"
         style="fill:#131212;fill-opacity:1;fill-rule:nonzero;stroke:none"
         id="path14" /><path
         d="m 13942.6,17711.3 c 0,0 5243,-5427.6 3983.3,-8779.02 -370.6,-985.89 -1572.2,-1358.04 -2412.2,-722.6 -859.9,650.53 -1364.2,1932.52 -1659.8,3239.52 -440.7,1948.4 -423.8,3972.4 12.6,5921.8 l 76.1,340.3"
         style="fill:#332f3b;fill-opacity:1;fill-rule:nonzero;stroke:none"
         id="path16" /><path
         d="m 3205.09,6756.2 c 0,0 -733.95,-4620.98 2008.66,-6332.899 1170.16,-730.41 2732.93,-169.203 3164.95,1140.809 245.71,745.07 321.89,1705.99 270.78,2828.27 C 8534.98,6906.29 3205.09,6756.2 3205.09,6756.2"
         style="fill:#332f3b;fill-opacity:1;fill-rule:nonzero;stroke:none"
         id="path18" /><path
         d="m 15368.7,6756.2 c 0,0 733.9,-4620.98 -2008.7,-6332.899 -1170.2,-730.41 -2732.9,-169.203 -3164.9,1140.809 -245.76,745.07 -321.95,1705.99 -270.83,2828.27 114.53,2513.91 5444.43,2363.82 5444.43,2363.82"
         style="fill:#332f3b;fill-opacity:1;fill-rule:nonzero;stroke:none"
         id="path20" /><path
         d="m 13858.2,18079.8 -4541.65,-678.2 -4541.69,678.2 c 0,0 -4281.891,-9146.31 -1912.8,-12277.6 1912.8,-2528.2 6454.49,-2537.22 6454.49,-2537.22 0,0 4614.15,-148.46 6454.45,2537.22 2219.6,3239.03 -1912.8,12277.6 -1912.8,12277.6"
         style="fill:#f5f4f1;fill-opacity:1;fill-rule:nonzero;stroke:none"
         id="path22" /><path
         d="m 9803.07,4333.71 c 0,0 -4541.68,9.01 -6454.48,2537.21 -1871.08,2473.05 406.45,8697.98 1446.68,11205.78 l -20.41,3.1 c 0,0 -4281.895,-9146.31 -1912.8,-12277.6 1912.8,-2528.2 6454.49,-2537.22 6454.49,-2537.22 0,0 4614.15,-148.46 6454.45,2537.22 204.4,298.29 354.8,645.9 459.7,1030.97 C 14372.9,4187.09 9803.07,4333.71 9803.07,4333.71"
         style="fill:#e4e0dc;fill-opacity:1;fill-rule:nonzero;stroke:none"
         id="path24" /><path
         d="m 13394.4,17550.6 c 184.9,151.1 352.4,297.7 503.9,440 -25.9,58.2 -40.1,89.2 -40.1,89.2 l -4541.65,-678.2 -4541.69,678.2 c 0,0 -492.42,-1052 -1050.89,-2564.4 1463.38,-214.1 6352.33,-676.8 9670.43,2035.2"
         style="fill:#e4e0dc;fill-opacity:1;fill-rule:nonzero;stroke:none"
         id="path26" /><path
         d="m 5230.72,7482.85 c 273.91,-528.68 659.55,-931.67 1051.6,-1145.34 51.56,443.51 -55.23,990.97 -329.14,1519.65 -273.91,528.68 -659.55,931.67 -1051.61,1145.34 -51.55,-443.51 55.24,-990.97 329.15,-1519.65"
         style="fill:#55bf35;fill-opacity:1;fill-rule:nonzero;stroke:none"
         id="path28" /><path
         d="M 6578.73,7542.06 C 2743.62,10681.1 126.5,10953.5 100.508,10955.9 l 67.726,784.5 c 114.942,-9.8 2861.626,-276.1 6909.246,-3589.01 l -498.75,-609.33"
         style="fill:#66c430;fill-opacity:1;fill-rule:nonzero;stroke:none"
         id="path30" /><path
         d="m 5827.4,10764.4 c -529,-273.3 -932.44,-658.4 -1146.58,-1050.22 443.45,-52.08 991.04,54.07 1520.04,327.32 529,273.3 932.44,658.5 1146.58,1050.3 -443.45,52.1 -991.04,-54.1 -1520.04,-327.4"
         style="fill:#55bf35;fill-opacity:1;fill-rule:nonzero;stroke:none"
         id="path32" /><path
         d="m 5339.22,10725.1 c -356.7,-369.9 -579.79,-796.41 -646.31,-1175.96 376.88,80.24 795.06,318.66 1151.77,688.56 356.7,369.9 579.79,796.4 646.31,1176 -376.88,-80.3 -795.07,-318.7 -1151.77,-688.6"
         style="fill:#66c430;fill-opacity:1;fill-rule:nonzero;stroke:none"
         id="path34" /><path
         d="m 4631.1,17711.3 c 0,0 -5242.916,-5427.6 -3983.245,-8779.02 370.565,-985.89 1572.215,-1358.04 2412.155,-722.6 859.9,650.53 1364.24,1932.52 1659.84,3239.52 440.66,1948.4 423.83,3972.4 -12.56,5921.8 l -76.19,340.3"
         style="fill:#332f3b;fill-opacity:1;fill-rule:nonzero;stroke:none"
         id="path36" /><path
         d="m 6479.07,24179.8 c 0,0 -70.36,60.2 -454.98,671 -384.62,610.8 -880.53,1528.7 -1723.23,472.5 -842.7,-1056.2 -393.7,-2643.6 1102.38,-2345.4 l 1075.83,1201.9"
         style="fill:#332f3b;fill-opacity:1;fill-rule:nonzero;stroke:none"
         id="path38" /><path
         d="m 12094.7,24179.8 c 0,0 70.3,60.2 455,671 384.6,610.8 880.5,1528.7 1723.2,472.5 842.7,-1056.2 393.7,-2643.6 -1102.4,-2345.4 l -1075.8,1201.9"
         style="fill:#332f3b;fill-opacity:1;fill-rule:nonzero;stroke:none"
         id="path40" /><path
         d="m 13317.4,23168.6 c -1007,2424.3 -3744.74,2375.4 -4030.52,2363.5 -285.8,11.9 -3023.53,60.8 -4030.52,-2363.5 -1063.01,-2559.1 -2007.91,-4842.6 -314.97,-5748.1 324.58,-173.6 701.84,-324.4 1095.87,-454.4 2108.53,-695.3 4390.74,-695.3 6499.24,0 394,130 771.3,280.8 1095.9,454.4 1692.9,905.5 748,3189 -315,5748.1"
         style="fill:#f5f4f1;fill-opacity:1;fill-rule:nonzero;stroke:none"
         id="path42" /><path
         d="m 8299.23,20399.7 c 434.46,154 1153.92,292.2 1978.57,-17.8 189.5,-71.2 210.6,-331.3 35.7,-433.2 -305.5,-177.9 -722.22,-402.3 -923.71,-509.9 -73.7,-39.3 -162.47,-37.5 -234.62,4.5 l -894.87,522.2 c -176.18,102.8 -153.32,366 38.93,434.2"
         style="fill:#2e2a35;fill-opacity:1;fill-rule:nonzero;stroke:none"
         id="path44" /><path
         d="m 7952.7,20404.8 c 216.39,367.9 307.14,799.8 230.94,1219.7 -38.32,211.2 -118.2,411 -275.71,510 -420.03,264.1 -804.62,312.1 -1356.38,-360 -551.75,-672 -1082.29,-627.5 -1188.52,-1224.1 -116.6,-654.8 654.18,-1201.4 1476.54,-1104 491.56,58.1 880.09,562.3 1113.13,958.4"
         style="fill:#332f3b;fill-opacity:1;fill-rule:nonzero;stroke:none"
         id="path46" /><path
         d="m 7312.66,20736.6 c 259.9,0 474.55,193.7 507.45,444.6 4.7,35.8 -24.64,67.2 -60.77,67.2 h -893.35 c -36.13,0 -65.47,-31.4 -60.78,-67.2 32.91,-250.9 247.56,-444.6 507.45,-444.6"
         style="fill:#ffffff;fill-opacity:1;fill-rule:nonzero;stroke:none"
         id="path48" /><path
         d="m 7312.66,20882.3 c 202.21,0 366.13,163.9 366.13,366.1 h -732.25 c 0,-202.2 163.92,-366.1 366.12,-366.1"
         style="fill:#573025;fill-opacity:1;fill-rule:nonzero;stroke:none"
         id="path50" /><path
         d="m 10621,20404.8 c -216.3,367.9 -307.1,799.8 -230.9,1219.7 38.3,211.2 118.2,411 275.7,510 420,264.1 804.6,312.1 1356.4,-360 551.7,-672 1082.3,-627.5 1188.5,-1224.1 116.6,-654.8 -654.2,-1201.4 -1476.5,-1104 -491.6,58.1 -880.1,562.3 -1113.2,958.4"
         style="fill:#332f3b;fill-opacity:1;fill-rule:nonzero;stroke:none"
         id="path52" /><path
         d="m 11261.1,20751.5 c -259.9,0 -474.6,193.7 -507.5,444.6 -4.7,35.8 24.7,67.2 60.8,67.2 h 893.4 c 36.1,0 65.4,-31.4 60.7,-67.2 -32.9,-250.9 -247.5,-444.6 -507.4,-444.6"
         style="fill:#ffffff;fill-opacity:1;fill-rule:nonzero;stroke:none"
         id="path54" /><path
         d="m 11202.4,20897.2 c 202.2,0 366.1,163.9 366.1,366.1 h -732.2 c 0,-202.2 163.9,-366.1 366.1,-366.1"
         style="fill:#573025;fill-opacity:1;fill-rule:nonzero;stroke:none"
         id="path56" /><path
         d="m 7419.14,17529.9 c -349.32,-623.2 -498.98,-1275.5 -454.63,-1809.4 478.58,240.8 956.94,708.8 1306.26,1332 297.63,531 450.32,1083.1 461.57,1565.1 2.65,113.7 -123.38,184.4 -218.97,122.8 -405.3,-261.1 -796.59,-679.5 -1094.23,-1210.5"
         style="fill:#55bf35;fill-opacity:1;fill-rule:nonzero;stroke:none"
         id="path58" /><path
         d="m 7934.96,17444.8 c -112.94,-606.1 -54.6,-1180.7 129.51,-1604.8 324.49,329.3 585.85,844.4 698.78,1450.5 94.97,509.7 68.83,997.1 -51.36,1391.5 -30.98,101.7 -162.37,126.2 -227.9,42.4 -254.15,-324.6 -454.07,-769.9 -549.03,-1279.6"
         style="fill:#66c430;fill-opacity:1;fill-rule:nonzero;stroke:none"
         id="path60" /><path
         d="m 10717,18189 c -51.4,0 -93.6,39.5 -98,89.8 -4.2,12.9 -55.8,143.4 -476.9,248.3 -439.24,109.4 -721.25,217.6 -868.66,431.8 -147.41,-214.2 -429.43,-322.4 -868.64,-431.8 -421.1,-104.9 -472.8,-235.4 -476.93,-248.3 -4.4,-50.3 -46.62,-89.8 -98.04,-89.8 -54.37,0 -98.43,44.1 -98.43,98.4 0,45.9 30.18,282.4 625.84,430.7 575.08,143.3 759.15,256.9 820.62,506.6 10.84,44 50.28,74.9 95.58,74.9 45.29,0 84.74,-30.9 95.58,-74.9 61.46,-249.7 245.53,-363.3 820.58,-506.6 595.7,-148.3 625.8,-384.8 625.8,-430.7 0,-54.3 -44,-98.4 -98.4,-98.4 z m -97.7,88.7 v 0 z m -0.7,9.6 c 0,-0.1 0,-0.1 0,-0.2 0,0.1 0,0.1 0,0.2 z m -2690.35,0 c 0,-0.1 0,-0.1 0,-0.1 0,0 0,0 0,0.1 z m 2690.35,0.1 c 0,0 0,-0.1 0,-0.1 0,0 0,0.1 0,0.1 z m -2690.35,0 c 0,0 0,-0.1 0,-0.1 0,0 0,0.1 0,0.1"
         style="fill:#2e2a35;fill-opacity:1;fill-rule:nonzero;stroke:none"
         id="path62" /></g></g></svg>
