<?xml version="1.0" standalone="no"?><!DOCTYPE svg PUBLIC "-//W3C//DTD SVG 1.1//EN" "http://www.w3.org/Graphics/SVG/1.1/DTD/svg11.dtd"><svg t="1638836867050" class="icon" viewBox="0 0 1024 1024" version="1.1" xmlns="http://www.w3.org/2000/svg" p-id="16990" xmlns:xlink="http://www.w3.org/1999/xlink" width="200" height="200"><defs><style type="text/css"></style></defs><path d="M185.6 345.6L108.8 268.8c-12.8-12.8-12.8-32 0-44.8s32-12.8 44.8 0l32 32 76.8-76.8c12.8-12.8 32-12.8 44.8 0s12.8 32 0 44.8L185.6 345.6zM185.6 601.6L108.8 524.8c-12.8-12.8-12.8-32 0-44.8s32-12.8 44.8 0l32 32 76.8-76.8c12.8-12.8 32-12.8 44.8 0s12.8 32 0 44.8L185.6 601.6zM185.6 857.6l-76.8-76.8c-12.8-12.8-12.8-32 0-44.8s32-12.8 44.8 0l32 32 76.8-76.8c12.8-12.8 32-12.8 44.8 0s12.8 32 0 44.8l-121.6 121.6zM864 307.2h-448c-25.6 0-44.8-25.6-44.8-51.2s19.2-51.2 51.2-51.2h448c25.6 0 51.2 19.2 51.2 51.2s-32 51.2-57.6 51.2zM864 563.2h-448c-25.6 0-44.8-25.6-44.8-51.2s19.2-51.2 51.2-51.2h448c25.6 0 51.2 19.2 51.2 51.2s-32 51.2-57.6 51.2zM864 819.2h-448c-25.6 0-51.2-19.2-51.2-51.2s19.2-51.2 51.2-51.2h448c25.6 0 51.2 19.2 51.2 51.2s-25.6 51.2-51.2 51.2z" p-id="16991"></path></svg>