<?xml version="1.0" encoding="UTF-8" standalone="no"?>
<svg
   t="1784304021530"
   class="icon"
   viewBox="0 0 1024 1024"
   version="1.1"
   p-id="16573"
   width="200"
   height="200"
   id="svg1"
   sodipodi:docname="server.svg"
   inkscape:version="1.4.4 (dcaf3e7, 2026-05-05)"
   xmlns:inkscape="http://www.inkscape.org/namespaces/inkscape"
   xmlns:sodipodi="http://sodipodi.sourceforge.net/DTD/sodipodi-0.dtd"
   xmlns="http://www.w3.org/2000/svg"
   xmlns:svg="http://www.w3.org/2000/svg">
  <defs
     id="defs1" />
  <sodipodi:namedview
     id="namedview1"
     pagecolor="#ffffff"
     bordercolor="#000000"
     borderopacity="0.25"
     inkscape:showpageshadow="2"
     inkscape:pageopacity="0.0"
     inkscape:pagecheckerboard="0"
     inkscape:deskcolor="#d1d1d1"
     inkscape:zoom="4.365"
     inkscape:cx="100.11455"
     inkscape:cy="100"
     inkscape:window-width="1855"
     inkscape:window-height="1022"
     inkscape:window-x="65"
     inkscape:window-y="30"
     inkscape:window-maximized="1"
     inkscape:current-layer="svg1" />
  <path
     d="M 85.333337,334.80871 V 183.93585 a 67.426298,75.436426 0 0 1 67.426303,-75.43642 h 719.21383 a 67.426298,75.436426 0 0 1 67.42631,75.43642 v 150.87286 c 0,19.31172 -6.51788,36.96384 -17.17124,50.29095 10.65336,13.32709 17.17124,30.97922 17.17124,50.29095 v 150.87285 c 0,19.31172 -6.51788,36.96385 -17.17124,50.29095 10.65336,13.32711 17.17124,30.97923 17.17124,50.29095 v 150.87285 a 67.426298,75.436426 0 0 1 -67.42631,75.43643 H 152.75964 A 67.426298,75.436426 0 0 1 85.333337,837.71821 V 686.84536 c 0,-19.31172 6.517881,-36.96384 17.171233,-50.29095 A 67.156592,75.13468 0 0 1 85.333337,586.26346 V 435.39061 c 0,-19.31173 6.517881,-36.96386 17.171233,-50.29095 A 67.156592,75.13468 0 0 1 85.333337,334.80871 Z m 67.426303,25.14547 h 719.21383 a 22.475432,25.145475 0 0 0 22.47544,-25.14547 V 183.93585 A 22.475432,25.145475 0 0 0 871.97347,158.79037 H 152.75964 a 22.475432,25.145475 0 0 0 -22.47544,25.14548 v 150.87286 a 22.475432,25.145475 0 0 0 22.47544,25.14547 z m 719.21383,50.29096 H 152.75964 a 22.475432,25.145475 0 0 0 -22.47544,25.14547 v 150.87285 a 22.475432,25.145475 0 0 0 22.47544,25.14548 h 719.21383 a 22.475432,25.145475 0 0 0 22.47544,-25.14548 V 435.39061 a 22.475432,25.145475 0 0 0 -22.47544,-25.14547 z m 0,251.45475 H 152.75964 a 22.475432,25.145475 0 0 0 -22.47544,25.14547 v 150.87285 a 22.475432,25.145475 0 0 0 22.47544,25.14548 h 719.21383 a 22.475432,25.145475 0 0 0 22.47544,-25.14548 V 686.84536 A 22.475432,25.145475 0 0 0 871.97347,661.69989 Z M 827.0226,510.82703 a 44.950866,50.290952 0 1 1 -89.90172,0 44.950866,50.290952 0 0 1 89.90172,0 z m 0,-251.45475 a 44.950866,50.290952 0 1 1 -89.90172,0 44.950866,50.290952 0 0 1 89.90172,0 z m 0,502.9095 a 44.950866,50.290952 0 1 1 -89.90172,0 44.950866,50.290952 0 0 1 89.90172,0 z M 692.17001,510.82703 a 44.950868,50.290954 0 1 1 -89.90173,0 44.950868,50.290954 0 0 1 89.90173,0 z m 0,-251.45475 a 44.950868,50.290954 0 1 1 -89.90173,0 44.950868,50.290954 0 0 1 89.90173,0 z m 0,502.9095 a 44.950868,50.290954 0 1 1 -89.90173,0 44.950868,50.290954 0 0 1 89.90173,0 z"
     fill="#000000"
     p-id="16574"
     id="path1"
     style="stroke-width:1.11437" />
</svg>
