<?xml version="1.0" standalone="no"?><!DOCTYPE svg PUBLIC "-//W3C//DTD SVG 1.1//EN" "http://www.w3.org/Graphics/SVG/1.1/DTD/svg11.dtd"><svg t="1729754357367" class="icon" viewBox="0 0 1024 1024" version="1.1" xmlns="http://www.w3.org/2000/svg" p-id="7653" xmlns:xlink="http://www.w3.org/1999/xlink" width="200" height="200"><path d="M197.12 86.4c-17.408 3.413333-22.741333 4.864-32 8.618667-37.589333 15.274667-66.090667 48.512-76.544 89.301333-3.541333 13.952-3.584 641.322667 0 655.232 11.989333 46.890667 44.416 80.042667 93.184 95.488 7.637333 2.389333 41.941333 2.730667 322.56 3.2 213.248 0.341333 317.781333-0.042667 325.674667-1.28 50.773333-7.808 92.458667-46.250667 105.429333-97.28 3.541333-13.994667 3.584-641.365333 0-655.232-13.098667-51.072-53.930667-89.173333-104.277333-97.28-10.496-1.706667-625.536-2.432-634.026667-0.768M341.333333 512v341.333333H274.218667c-76.373333 0-78.293333-0.256-90.837334-12.8-13.824-13.824-12.8 13.994667-12.288-332.032L171.52 200.533333l4.736-8.064c2.602667-4.394667 7.381333-10.069333 10.666667-12.544 11.648-8.874667 13.610667-9.088 86.570666-9.173333L341.333333 170.666667v341.333333m483.84-338.517333c4.906667 1.664 11.221333 5.76 15.402667 9.941333 13.824 13.824 12.757333-13.738667 12.757333 328.576s1.066667 314.752-12.757333 328.576c-13.568 13.568 0.554667 12.757333-218.794667 12.757333H426.666667V170.666667h195.114666c177.109333 0 195.882667 0.256 203.392 2.816" p-id="7654"></path></svg>