<?xml version="1.0" standalone="no"?><!DOCTYPE svg PUBLIC "-//W3C//DTD SVG 1.1//EN" "http://www.w3.org/Graphics/SVG/1.1/DTD/svg11.dtd"><svg class="icon" width="200px" height="200.00px" viewBox="0 0 1024 1024" version="1.1" xmlns="http://www.w3.org/2000/svg"><path d="M661.333333 405.333333m-64 0a64 64 0 1 0 128 0 64 64 0 1 0-128 0Z" /><path d="M362.666667 405.333333m-64 0a64 64 0 1 0 128 0 64 64 0 1 0-128 0Z" /><path d="M511.573333 85.333333C276.053333 85.333333 85.333333 276.48 85.333333 512s190.72 426.666667 426.24 426.666667C747.52 938.666667 938.666667 747.52 938.666667 512S747.52 85.333333 511.573333 85.333333zM512 853.333333c-188.586667 0-341.333333-152.746667-341.333333-341.333333s152.746667-341.333333 341.333333-341.333333 341.333333 152.746667 341.333333 341.333333-152.746667 341.333333-341.333333 341.333333z m188.16-260.693333a31.786667 31.786667 0 0 0-43.946667 10.24A169.813333 169.813333 0 0 1 512 682.666667c-58.88 0-112.64-29.866667-144.213333-80.213334a31.872 31.872 0 1 0-54.186667 33.706667A232.362667 232.362667 0 0 0 512 746.666667c81.066667 0 154.88-41.386667 198.4-110.08 9.386667-14.933333 4.693333-34.56-10.24-43.946667z" /></svg>