<?xml version="1.0" standalone="no"?><!DOCTYPE svg PUBLIC "-//W3C//DTD SVG 1.1//EN" "http://www.w3.org/Graphics/SVG/1.1/DTD/svg11.dtd"><svg class="icon" width="200px" height="200.00px" viewBox="-50 -50 1074 1074" version="1.1" xmlns="http://www.w3.org/2000/svg"><path d="M512 0c-278.752 0-505.472 222.752-511.84 499.968 5.92-241.856 189.824-435.968 415.84-435.968 229.76 0 416 200.576 416 448 0 53.024 42.976 96 96 96s96-42.976 96-96c0-282.784-229.216-512-512-512zM512 1024c278.752 0 505.472-222.752 511.84-499.968-5.92 241.856-189.824 435.968-415.84 435.968-229.76 0-416-200.576-416-448 0-53.024-42.976-96-96-96s-96 42.976-96 96c0 282.784 229.216 512 512 512z" /></svg>