<?xml version="1.0" encoding="UTF-8" standalone="no"?>
<svg
   class="icon"
   width="200px"
   height="200.00px"
   viewBox="0 0 1024 1024"
   version="1.1"
   id="svg308"
   sodipodi:docname="square.svg"
   inkscape:version="1.3.2 (091e20e, 2023-11-25)"
   xmlns:inkscape="http://www.inkscape.org/namespaces/inkscape"
   xmlns:sodipodi="http://sodipodi.sourceforge.net/DTD/sodipodi-0.dtd"
   xmlns="http://www.w3.org/2000/svg"
   xmlns:svg="http://www.w3.org/2000/svg"
   xmlns:rdf="http://www.w3.org/1999/02/22-rdf-syntax-ns#"
   xmlns:cc="http://creativecommons.org/ns#"
   xmlns:dc="http://purl.org/dc/elements/1.1/">
  <metadata
     id="metadata314">
    <rdf:RDF>
      <cc:Work
         rdf:about="">
        <dc:format>image/svg+xml</dc:format>
        <dc:type
           rdf:resource="http://purl.org/dc/dcmitype/StillImage" />
        <dc:title />
      </cc:Work>
    </rdf:RDF>
  </metadata>
  <defs
     id="defs312" />
  <sodipodi:namedview
     inkscape:document-rotation="0"
     pagecolor="#ffffff"
     bordercolor="#666666"
     borderopacity="1"
     objecttolerance="10"
     gridtolerance="10"
     guidetolerance="10"
     inkscape:pageopacity="0"
     inkscape:pageshadow="2"
     inkscape:window-width="1864"
     inkscape:window-height="1027"
     id="namedview310"
     showgrid="false"
     inkscape:zoom="4.135"
     inkscape:cx="68.561064"
     inkscape:cy="99.879081"
     inkscape:window-x="58"
     inkscape:window-y="25"
     inkscape:window-maximized="1"
     inkscape:current-layer="svg308"
     inkscape:showpageshadow="2"
     inkscape:pagecheckerboard="0"
     inkscape:deskcolor="#d1d1d1" />
  <path
     d="M 797.85119,107.62112 H 227.38702 c -69.27065,0 -122.24232,52.24732 -122.24232,120.57074 v 562.66345 c 0,68.32341 52.97167,120.57073 122.24232,120.57073 h 570.46417 c 69.27065,0 122.24232,-52.24732 122.24232,-120.57073 V 228.19186 c 0,-68.32342 -52.97167,-120.57074 -122.24232,-120.57074 z m 40.74744,683.23419 c 0,24.11414 -16.29898,40.19023 -40.74744,40.19023 H 227.38702 c -24.44846,0 -40.74744,-16.07609 -40.74744,-40.19023 V 228.19186 c 0,-24.11415 16.29898,-40.19025 40.74744,-40.19024 h 570.46417 c 24.44846,0 40.74744,16.07609 40.74744,40.19024 z"
     id="path306"
     style="stroke-width:0.948466" />
</svg>
