<?xml version="1.0" encoding="UTF-8" standalone="no"?>
<svg
   class="icon"
   width="200px"
   height="200.00px"
   viewBox="0 0 1024 1024"
   version="1.1"
   id="svg1"
   sodipodi:docname="stats.svg"
   inkscape:version="1.3.2 (091e20e, 2023-11-25)"
   xmlns:inkscape="http://www.inkscape.org/namespaces/inkscape"
   xmlns:sodipodi="http://sodipodi.sourceforge.net/DTD/sodipodi-0.dtd"
   xmlns="http://www.w3.org/2000/svg"
   xmlns:svg="http://www.w3.org/2000/svg">
  <defs
     id="defs1" />
  <sodipodi:namedview
     id="namedview1"
     pagecolor="#ffffff"
     bordercolor="#666666"
     borderopacity="1.0"
     inkscape:showpageshadow="2"
     inkscape:pageopacity="0.0"
     inkscape:pagecheckerboard="0"
     inkscape:deskcolor="#d1d1d1"
     inkscape:zoom="3.075"
     inkscape:cx="100"
     inkscape:cy="99.837398"
     inkscape:window-width="1864"
     inkscape:window-height="1027"
     inkscape:window-x="58"
     inkscape:window-y="25"
     inkscape:window-maximized="1"
     inkscape:current-layer="svg1" />
  <path
     d="M 931.22129,897.9212 H 119.636 V 633.77591 l 173.25843,-178.9111 c 11.30207,5.33878 23.8065,8.5048 37.15257,8.5048 13.34607,0 25.79037,-3.16602 37.15257,-8.5048 l 121.37709,125.3371 c -5.23022,11.67081 -8.23609,24.64528 -8.23609,38.36469 0,51.40125 40.39891,93.1182 90.17614,93.1182 49.77723,0 90.17615,-41.71695 90.17615,-93.1182 0,-13.71941 -3.06599,-26.69388 -8.23609,-38.36469 L 950.63922,272.29106 c 12.98536,-13.34694 12.98536,-35.01244 0,-48.42146 -12.92525,-13.34694 -33.90623,-13.34694 -46.8916,0 L 604.78365,532.52539 c -10.58067,-4.53175 -22.12322,-7.07698 -34.26694,-7.07698 -12.14372,0 -23.74638,2.54523 -34.32705,7.07698 L 413.36975,405.63632 c 4.38858,-10.86379 6.85339,-22.845 6.85339,-35.38491 0,-51.40125 -40.39891,-93.1182 -90.17614,-93.1182 -49.77723,0 -90.17615,41.71695 -90.17615,93.1182 0,12.53991 2.46482,24.52112 6.85339,35.38491 L 119.636,536.93298 V 184.01501 c 0,-17.13375 -13.46631,-31.0394 -30.058718,-31.0394 -16.59241,0 -30.058714,13.90565 -30.058714,31.0394 v 424.18443 c -0.781527,4.15928 -0.781527,8.31856 0,12.47784 V 928.9606 c 0,17.13375 13.466304,31.0394 30.058714,31.0394 H 931.22129 c 16.59241,0 30.05871,-13.90565 30.05871,-31.0394 0,-17.13375 -13.4663,-31.0394 -30.05871,-31.0394 z M 570.51671,587.5272 c 16.59241,0 30.05872,13.90566 30.05872,31.0394 0,17.13375 -13.46631,31.0394 -30.05872,31.0394 -16.59241,0 -30.05871,-13.90565 -30.05871,-31.0394 0,-17.13374 13.40618,-31.0394 30.05871,-31.0394 z M 330.047,339.21201 c 16.59241,0 30.05871,13.90565 30.05871,31.0394 0,17.13375 -13.4663,31.0394 -30.05871,31.0394 -16.59241,0 -30.05872,-13.90565 -30.05872,-31.0394 0,-17.13375 13.40619,-31.0394 30.05872,-31.0394 z"
     id="path1"
     style="stroke-width:0.954535" />
</svg>
