<?xml version="1.0" standalone="no"?><!DOCTYPE svg PUBLIC "-//W3C//DTD SVG 1.1//EN" "http://www.w3.org/Graphics/SVG/1.1/DTD/svg11.dtd"><svg class="icon" width="200px" height="200.00px" viewBox="0 0 1024 1024" version="1.1" xmlns="http://www.w3.org/2000/svg"><path d="M929.28 896 65.28 896 65.28 623.68l184.448-184.448C261.76 444.736 275.072 448 289.28 448s27.456-3.264 39.552-8.768l129.216 129.216C452.48 580.48 449.28 593.856 449.28 608c0 52.992 43.008 96 96 96s96-43.008 96-96c0-14.144-3.264-27.52-8.768-39.552l317.44-317.44c13.824-13.76 13.824-36.096 0-49.92-13.76-13.76-36.096-13.76-49.92 0L581.76 519.296C570.496 514.624 558.208 512 545.28 512S520 514.624 508.736 519.296L377.984 388.48C382.656 377.28 385.28 364.928 385.28 352c0-52.992-43.008-96-96-96s-96 43.008-96 96c0 12.928 2.624 25.28 7.296 36.48L65.28 523.84 65.28 160c0-17.664-14.336-32-32-32s-32 14.336-32 32l0 437.312c-0.832 4.288-0.832 8.576 0 12.864L1.28 928c0 17.664 14.336 32 32 32l896 0c17.664 0 32-14.336 32-32S946.944 896 929.28 896zM545.28 576c17.664 0 32 14.336 32 32S562.944 640 545.28 640s-32-14.336-32-32S527.552 576 545.28 576zM289.28 320c17.664 0 32 14.336 32 32S306.944 384 289.28 384s-32-14.336-32-32S271.552 320 289.28 320z" /></svg>