<?xml version="1.0" standalone="no"?><!DOCTYPE svg PUBLIC "-//W3C//DTD SVG 1.1//EN" "http://www.w3.org/Graphics/SVG/1.1/DTD/svg11.dtd"><svg t="1784520754212" class="icon" viewBox="0 0 1024 1024" version="1.1" xmlns="http://www.w3.org/2000/svg" p-id="13968" xmlns:xlink="http://www.w3.org/1999/xlink" width="200" height="200"><path d="M509.155556 11.377778c-275.911111 0-500.622222 224.711111-500.622223 500.622222 0 275.911111 224.711111 500.622222 500.622223 500.622222 275.911111 0 500.622222-224.711111 500.622222-500.622222 0-275.911111-224.711111-500.622222-500.622222-500.622222z m0 904.533333c-224.711111 0-403.911111-182.044444-403.911112-403.911111 0-224.711111 182.044444-403.911111 403.911112-403.911111 224.711111 0 403.911111 182.044444 403.911111 403.911111 0 224.711111-179.2 403.911111-403.911111 403.911111z m36.977777-645.688889c-8.533333-8.533333-17.066667-11.377778-28.444444-11.377778s-19.911111 2.844444-28.444445 11.377778l-204.8 204.8c-14.222222 14.222222-14.222222 39.822222 0 54.044445l14.222223 14.222222c14.222222 14.222222 39.822222 14.222222 54.044444 0l116.622222-116.622222v298.666666c0 19.911111 17.066667 39.822222 39.822223 39.822223h19.911111c19.911111 0 39.822222-17.066667 39.822222-39.822223v-298.666666l116.622222 116.622222c14.222222 14.222222 39.822222 14.222222 54.044445 0l14.222222-14.222222c14.222222-14.222222 14.222222-39.822222 0-54.044445l-207.644445-204.8z" p-id="13969"></path></svg>