<?xml version="1.0" standalone="no"?><!DOCTYPE svg PUBLIC "-//W3C//DTD SVG 1.1//EN" "http://www.w3.org/Graphics/SVG/1.1/DTD/svg11.dtd"><svg class="icon" width="200px" height="200.00px" viewBox="0 0 1024 1024" version="1.1" xmlns="http://www.w3.org/2000/svg"><path d="M512 200A312 312 0 1 0 824 512 312 312 0 0 0 512 200z m0 549.333333A237.333333 237.333333 0 1 1 749.333333 512 237.6 237.6 0 0 1 512 749.333333z" /><path d="M474.666667 44.32m5.333333 0l64 0q5.333333 0 5.333333 5.333333l0 102.24q0 5.333333-5.333333 5.333334l-64 0q-5.333333 0-5.333333-5.333334l0-102.24q0-5.333333 5.333333-5.333333Z" /><path d="M154.935877 207.647092m3.771237-3.771236l45.254833-45.254834q3.771236-3.771236 7.542473 0l72.294597 72.294597q3.771236 3.771236 0 7.542473l-45.254834 45.254834q-3.771236 3.771236-7.542472 0l-72.294597-72.294598q-3.771236-3.771236 0-7.542472Z" /><path d="M44.426667 474.613333m5.333333 0l102.24 0q5.333333 0 5.333333 5.333334l0 64q0 5.333333-5.333333 5.333333l-102.24 0q-5.333333 0-5.333333-5.333333l0-64q0-5.333333 5.333333-5.333334Z" /><path d="M155.058812 816.193176m3.771236-3.771236l72.294597-72.294598q3.771236-3.771236 7.542473 0l45.254834 45.254834q3.771236 3.771236 0 7.542473l-72.294597 72.294597q-3.771236 3.771236-7.542473 0l-45.254834-45.254834q-3.771236-3.771236 0-7.542472Z" /><path d="M474.773333 866.613333m5.333334 0l64 0q5.333333 0 5.333333 5.333334l0 102.24q0 5.333333-5.333333 5.333333l-64 0q-5.333333 0-5.333334-5.333333l0-102.24q0-5.333333 5.333334-5.333334Z" /><path d="M736.508185 789.084994m3.771236-3.771236l45.254834-45.254834q3.771236-3.771236 7.542472 0l72.294597 72.294597q3.771236 3.771236 0 7.542473l-45.254834 45.254834q-3.771236 3.771236-7.542472 0l-72.294597-72.294598q-3.771236-3.771236 0-7.542472Z" /><path d="M866.773333 474.506667m5.333334 0l102.24 0q5.333333 0 5.333333 5.333333l0 64q0 5.333333-5.333333 5.333333l-102.24 0q-5.333333 0-5.333334-5.333333l0-64q0-5.333333 5.333334-5.333333Z" /><path d="M736.439877 234.62232m3.771237-3.771237l72.294597-72.294597q3.771236-3.771236 7.542472 0l45.254834 45.254834q3.771236 3.771236 0 7.542472l-72.294597 72.294598q-3.771236 3.771236-7.542473 0l-45.254833-45.254834q-3.771236-3.771236 0-7.542473Z" /></svg>