<?xml version="1.0" standalone="no"?><!DOCTYPE svg PUBLIC "-//W3C//DTD SVG 1.1//EN" "http://www.w3.org/Graphics/SVG/1.1/DTD/svg11.dtd"><svg class="icon" width="200px" height="200.00px" viewBox="0 0 1024 1024" version="1.1" xmlns="http://www.w3.org/2000/svg"><path d="M170.666667 384h554.666666l-68.266666 51.2a42.666667 42.666667 0 0 0-8.533334 59.733333 42.666667 42.666667 0 0 0 34.133334 17.066667 42.666667 42.666667 0 0 0 25.6-8.533333l170.666666-128a42.666667 42.666667 0 0 0 0-67.84l-164.693333-128a42.666667 42.666667 0 0 0-52.48 67.413333L728.746667 298.666667H170.666667a42.666667 42.666667 0 0 0 0 85.333333zM853.333333 682.666667H298.666667l68.266666-51.2a42.666667 42.666667 0 0 0-51.2-68.266667l-170.666666 128a42.666667 42.666667 0 0 0 0 67.84l164.693333 128a42.666667 42.666667 0 0 0 26.026667 8.96 42.666667 42.666667 0 0 0 33.706666-16.64 42.666667 42.666667 0 0 0-7.253333-59.733333L295.253333 768H853.333333a42.666667 42.666667 0 0 0 0-85.333333z" /></svg>