<?xml version="1.0" standalone="no"?><!DOCTYPE svg PUBLIC "-//W3C//DTD SVG 1.1//EN" "http://www.w3.org/Graphics/SVG/1.1/DTD/svg11.dtd"><svg t="1772545939412" class="icon" viewBox="0 0 1024 1024" version="1.1" xmlns="http://www.w3.org/2000/svg" p-id="4745" xmlns:xlink="http://www.w3.org/1999/xlink" width="200" height="200"><path d="M128 128h768a85.333333 85.333333 0 0 1 85.333333 85.333333v597.333334a85.333333 85.333333 0 0 1-85.333333 85.333333H128a85.333333 85.333333 0 0 1-85.333333-85.333333V213.333333a85.333333 85.333333 0 0 1 85.333333-85.333333z m0 85.333333v597.333334h768V213.333333H128z m227.541333 298.666667L230.4 418.133333l51.2-68.266666 216.192 162.133333L281.6 674.133333l-51.2-68.266666L355.541333 512zM512 682.666667v-85.333334h213.333333v85.333334h-213.333333z" p-id="4746"></path></svg>