<?xml version="1.0" standalone="no"?><!DOCTYPE svg PUBLIC "-//W3C//DTD SVG 1.1//EN" "http://www.w3.org/Graphics/SVG/1.1/DTD/svg11.dtd"><svg class="icon" width="200px" height="200.00px" viewBox="0 0 1024 1024" version="1.1" xmlns="http://www.w3.org/2000/svg"><path d="M955.33536031 426.60266698a159.29599969 159.29599969 0 0 0-71.68000031-96.89600062 149.11999969 149.11999969 0 0 0-75.39199969-20.28799969h-97.28000062a469.50400031 469.50400031 0 0 0 19.45600031-102.01600031c0.12799969-1.152 0.12799969-2.112 0.12799969-2.94399938 0-39.936-5.76-74.688-17.02399969-103.23200062A147.264 147.264 0 0 0 665.15936 36.13866636a132.672 132.672 0 0 0-67.968-24.96 165.504 165.504 0 0 0-63.23200031 7.68c-29.76 9.72799969-51.71200031 30.07999969-64.95999938 60.41600062-9.984 22.464-13.88800031 47.232-17.40800062 69.24799969l-0.192 1.27999969c-0.192 1.79200031-0.51199969 3.52000031-0.83199938 5.31200062-1.27999969 7.99999969-2.36800031 15.744-3.96800062 22.52799938a324.672 324.672 0 0 1-144.63999938 206.08000031 100.67200031 100.67200031 0 0 1-52.224 14.46400031h-112.64000062C96.64736 398.18666698 63.55935969 431.59466698 63.55935969 472.42666667v362.688a73.60000031 73.60000031 0 0 0 73.152 73.85599969H293.95935969c31.61599969 0 58.24000031 8.57599969 92.03200031 19.52000062l1.47199969 0.44799938c56.70400031 18.55999969 127.296 41.72800031 260.928 41.72800031h1.47200062c82.11199969-0.06400031 142.97599969-21.56800031 180.79999969-64.00000031a150.40000031 150.40000031 0 0 0 37.44-82.87999969c25.344-19.584 41.472-43.64800031 48.06400031-71.87200031 6.336-27.52000031 1.79200031-52.48000031-3.96800062-69.75999938 20.99200031-20.22400031 33.66400031-43.71199969 37.56800062-69.696a122.56000031 122.56000031 0 0 0-11.20000031-69.888 198.40000031 198.40000031 0 0 0 18.11200031-51.39200062c4.224-22.20799969 3.84-43.84000031-1.28000062-64.57599938z m-87.04000031 139.07199938c2.36800031 3.39199969 12.672 19.32799969 9.91999969 36.54400031-2.36800031 13.69600031-12.672 26.88-30.72 39.29599969a36.35200031 36.35200031 0 0 0-10.23999938 50.04800062c0.44800031 0.83200031 13.248 23.16799969 8.19199969 44.67199969-3.264 13.69600031-13.75999969 25.98400031-31.36000031 36.60799969a35.64799969 35.64799969 0 0 0-17.40799969 34.56c0.06400031 1.47199969 1.40800031 27.71200031-20.16 50.88-23.424 25.40800031-67.32799969 38.784-126.84799969 38.91200062h-1.40800031c-121.40800031 0-186.36799969-21.12-238.52800031-38.08000031-31.74400031-10.24000031-61.95199969-20.16-97.40799938-22.78399969v-376.96000031a174.72 174.72 0 0 0 26.43199969-12.99199969 375.67999969 375.67999969 0 0 0 81.53599969-67.13600062 398.71999969 398.71999969 0 0 0 96.96-185.59999969c2.43199969-10.752 4.09600031-21.888 5.76-32.38399969 7.61599969-48.83200031 13.44-66.048 33.15200062-72.44800031 9.28000031-3.00799969 41.79199969-11.39200031 66.36799969 6.78400031 23.04 16.83199969 35.52 54.27199969 35.712 107.77599938-1.152 16.128-7.296 63.87199969-20.67199969 95.87200031a59.83999969 59.83999969 0 0 0 5.24799938 56.70400031c11.00800031 16.76800031 29.63200031 26.88 49.40800031 26.88h116.16c14.016 0 27.52000031 3.58399969 38.976 10.43199938 14.71999969 8.51200031 32.12800031 27.648 37.75999969 50.75200031 5.69599969 23.68000031-0.70399969 50.36800031-19.008 79.36000031a36.288 36.288 0 0 0 2.112 42.30399938zM135.94335969 472.23466667c0-0.576 0.44800031-1.02400031 1.02400031-1.02400031h102.97600031v364.608h-103.04000062c-0.64000031 0-0.96-0.384-0.96-0.63999938v-362.88z" /></svg>