<?xml version="1.0" standalone="no"?><!DOCTYPE svg PUBLIC "-//W3C//DTD SVG 1.1//EN" "http://www.w3.org/Graphics/SVG/1.1/DTD/svg11.dtd"><svg class="icon" width="200px" height="200.00px" viewBox="0 0 1024 1024" version="1.1" xmlns="http://www.w3.org/2000/svg"><path d="M512.1 143.9c49.7 0 98 9.7 143.3 28.9 43.8 18.5 83.2 45.1 117.1 79 33.8 33.8 60.4 73.2 79 117.1 19.2 45.3 28.9 93.6 28.9 143.3s-9.7 98-28.9 143.3c-18.5 43.8-45.1 83.2-79 117.1-33.8 33.8-73.2 60.4-117.1 79-45.3 19.2-93.6 28.9-143.3 28.9s-98-9.7-143.3-28.9c-43.8-18.5-83.2-45.1-117.1-79-33.8-33.8-60.4-73.2-79-117.1-19.2-45.3-28.9-93.6-28.9-143.3s9.7-98 28.9-143.3c18.5-43.8 45.1-83.2 79-117.1s73.2-60.4 117.1-79c45.3-19.2 93.6-28.9 143.3-28.9m0-80c-247.6 0-448.2 200.7-448.2 448.2s200.7 448.2 448.2 448.2 448.2-200.7 448.2-448.2S759.7 63.9 512.1 63.9z"  /><path d="M450 705.1L291.1 549.6l55.9-57.2 102.3 100 236-236.8L742 412z"  /></svg>