<?xml version="1.0" standalone="no"?><!DOCTYPE svg PUBLIC "-//W3C//DTD SVG 1.1//EN" "http://www.w3.org/Graphics/SVG/1.1/DTD/svg11.dtd"><svg class="icon" width="200px" height="200.00px" viewBox="0 0 1024 1024" version="1.1" xmlns="http://www.w3.org/2000/svg"><path stroke="currentColor" stroke-width="20" d="M256 128c-70.752 0-128 57.248-128 128v512c0 70.752 57.248 128 128 128h512c70.752 0 128-57.248 128-128V384l-64 64v320c0 35.248-28.752 64-64 64H256c-35.248 0-64-28.752-64-64V256c0-35.248 28.752-64 64-64h448l64-64z m608 50.752l-384 384-105.504-105.248L352 434.752 306.752 480l22.752 22.496L480 653.248 909.248 224z" /></svg>