<?xml version="1.0" standalone="no"?><!DOCTYPE svg PUBLIC "-//W3C//DTD SVG 1.1//EN" "http://www.w3.org/Graphics/SVG/1.1/DTD/svg11.dtd"><svg class="icon" width="200px" height="200.00px" viewBox="0 0 1024 1024" version="1.1" xmlns="http://www.w3.org/2000/svg"><path d="M512 136.99970703c206.25029297 0 375.00029297 168.75 375.00029297 375.00029297S718.25029297 887.00029297 512 887.00029297 136.99970703 718.25029297 136.99970703 512c0-206.25029297 168.75-375.00029297 375.00029297-375.00029297z m0 322.50058594l-78.75-78.75c-7.49970703-7.49970703-18.74970703-11.25-26.25029297-11.25-11.25 0-18.74970703 3.75029297-26.25029297 11.25-15.00029297 15.00029297-15.00029297 37.50029297 0 52.49970703l78.75 78.75-78.75 78.75c-15.00029297 15.00029297-15.00029297 37.50029297 0 52.49970703 7.49970703 7.49970703 18.74970703 11.25 26.25029297 11.25 11.25 0 18.74970703-3.75029297 26.25029297-11.25l78.75-78.75 78.75 78.75c7.49970703 7.49970703 18.74970703 11.25 26.25029297 11.25 11.25 0 18.74970703-3.75029297 26.25029297-11.25 15.00029297-15.00029297 15.00029297-37.50029297 0-52.49970703l-78.75-78.75 78.75-78.75c15.00029297-15.00029297 15.00029297-37.50029297 0-52.49970703-7.49970703-7.49970703-18.74970703-11.25-26.25029297-11.25-11.25 0-18.74970703 3.75029297-26.25029297 11.25l-78.75 78.75zM512 62C264.5 62 62 264.5 62 512s202.5 450 450 450 450-202.5 450-450S759.5 62 512 62z" /></svg>