<?xml version="1.0" standalone="no"?><!DOCTYPE svg PUBLIC "-//W3C//DTD SVG 1.1//EN" "http://www.w3.org/Graphics/SVG/1.1/DTD/svg11.dtd"><svg class="icon" width="200px" height="200.00px" viewBox="0 0 1024 1024" version="1.1" xmlns="http://www.w3.org/2000/svg"><path d="M575.146667 512l236.657777-236.657778a44.657778 44.657778 0 0 0-63.146666-63.146666L512 448.853333 275.342222 212.195556a44.657778 44.657778 0 0 0-63.146666 63.146666L448.853333 512l-236.657777 236.657778a44.942222 44.942222 0 0 0 0 63.146666 44.373333 44.373333 0 0 0 31.573333 13.084445 43.804444 43.804444 0 0 0 31.573333-13.084445L512 575.146667l236.657778 236.657777a43.804444 43.804444 0 0 0 31.573333 13.084445 44.373333 44.373333 0 0 0 31.573333-13.084445 44.942222 44.942222 0 0 0 0-63.146666z" /></svg>