<?xml version="1.0" standalone="no"?><!DOCTYPE svg PUBLIC "-//W3C//DTD SVG 1.1//EN" "http://www.w3.org/Graphics/SVG/1.1/DTD/svg11.dtd"><svg class="icon" width="200px" height="200.00px" viewBox="0 0 1024 1024" version="1.1" xmlns="http://www.w3.org/2000/svg"><path d="M607.1975 512l215.44-215.44c12.46-12.46 12.46-32.68 0-45.16l-50.06-50.06c-12.46-12.46-32.68-12.46-45.16 0L511.9975 416.8 296.5575 201.36c-12.46-12.46-32.68-12.46-45.16 0L201.3575 251.4c-12.46 12.46-12.46 32.68 0 45.16L416.7975 512 201.3575 727.44c-12.46 12.46-12.46 32.68 0 45.16l50.06 50.06c12.46 12.46 32.68 12.46 45.16 0L511.9975 607.2l215.44 215.44c12.46 12.46 32.68 12.46 45.16 0l50.06-50.06c12.46-12.46 12.46-32.68 0-45.16L607.1975 512z" /></svg>