<?xml version="1.0" standalone="no"?><!DOCTYPE svg PUBLIC "-//W3C//DTD SVG 1.1//EN" "http://www.w3.org/Graphics/SVG/1.1/DTD/svg11.dtd"><svg class="icon" width="200px" height="200.00px" viewBox="0 0 1024 1024" version="1.1" xmlns="http://www.w3.org/2000/svg"><path stroke='currentColor' stroke-width="10" d="M709.47 209.455h221.44a34.91 34.91 0 0 1 0 69.818h-81.455v607.185c0 56.367-44.312 102.633-99.747 102.633H274.292c-55.435 0-99.747-46.266-99.747-102.633V279.273H93.091a34.91 34.91 0 0 1 0-69.818h244.713a186.182 186.182 0 0 1 371.665 0z m-70.052 0a116.364 116.364 0 0 0-231.563 0h231.563z m140.218 69.818H244.364v607.185c0 18.455 13.73 32.815 29.928 32.815h475.416c16.174 0 29.928-14.36 29.928-32.815V279.273z m-418.909 147.2a34.91 34.91 0 0 1 69.818 0V765.37a34.91 34.91 0 0 1-69.818 0V426.473z m232.728 0a34.91 34.91 0 0 1 69.818 0V765.37a34.91 34.91 0 0 1-69.818 0V426.473z" /></svg>