<?xml version="1.0" standalone="no"?><!DOCTYPE svg PUBLIC "-//W3C//DTD SVG 1.1//EN" "http://www.w3.org/Graphics/SVG/1.1/DTD/svg11.dtd"><svg t="1638319753800" class="icon" viewBox="0 0 1024 1024" version="1.1" xmlns="http://www.w3.org/2000/svg" p-id="3000" xmlns:xlink="http://www.w3.org/1999/xlink" width="200" height="200"><defs><style type="text/css"></style></defs><path d="M426.666667 42.666667l170.666667 0q52.992 0 90.496 37.504t37.504 90.496l0 42.666667 170.666667 0q17.664 0 30.165333 12.501333t12.501333 30.165333-12.501333 30.165333-30.165333 12.501333l-42.666667 0 0 512q0 52.992-37.504 90.496t-90.496 37.504l-426.666667 0q-52.992 0-90.496-37.504t-37.504-90.496l0-512-42.666667 0q-17.664 0-30.165333-12.501333t-12.501333-30.165333 12.501333-30.165333 30.165333-12.501333l170.666667 0 0-42.666667q0-52.992 37.504-90.496t90.496-37.504zM768 810.666667l0-512-512 0 0 512q0 17.664 12.501333 30.165333t30.165333 12.501333l426.666667 0q17.664 0 30.165333-12.501333t12.501333-30.165333zM597.333333 128l-170.666667 0q-17.664 0-30.165333 12.501333t-12.501333 30.165333l0 42.666667 256 0 0-42.666667q0-17.664-12.501333-30.165333t-30.165333-12.501333z" p-id="3001"></path></svg>