<?xml version="1.0" standalone="no"?><!DOCTYPE svg PUBLIC "-//W3C//DTD SVG 1.1//EN" "http://www.w3.org/Graphics/SVG/1.1/DTD/svg11.dtd"><svg t="1634392193235" class="icon" viewBox="0 0 1024 1024" version="1.1" xmlns="http://www.w3.org/2000/svg" p-id="2749" xmlns:xlink="http://www.w3.org/1999/xlink" width="200" height="200"><defs><style type="text/css"></style></defs><path d="M222.090191 544.207539l579.803245 0 0 64.420195 64.424288 0L866.317725 479.779158 544.212656 479.779158l0-64.412009-64.425312 0 0 64.412009L157.678182 479.779158l0 128.848577 64.412009 0L222.090191 544.207539 222.090191 544.207539zM93.253894 866.321818l193.260585 0L286.514479 673.056116 93.253894 673.056116 93.253894 866.321818 93.253894 866.321818zM415.359986 866.321818l193.268772 0L608.628758 673.056116 415.359986 673.056116 415.359986 866.321818 415.359986 866.321818zM737.473241 673.056116l0 193.265702 193.272865 0L930.746106 673.056116 737.473241 673.056116 737.473241 673.056116zM608.628758 157.678182 415.359986 157.678182l0 193.260585 193.268772 0L608.628758 157.678182 608.628758 157.678182zM608.628758 157.678182" p-id="2750"></path></svg>