<?xml version="1.0" standalone="no"?><!DOCTYPE svg PUBLIC "-//W3C//DTD SVG 1.1//EN" "http://www.w3.org/Graphics/SVG/1.1/DTD/svg11.dtd"><svg t="1741741606230" class="icon" viewBox="0 0 1024 1024" version="1.1" xmlns="http://www.w3.org/2000/svg" p-id="7532" xmlns:xlink="http://www.w3.org/1999/xlink" width="200" height="200"><path d="M448.129996 632.108247c-11.807631 0-23.583263-3.935877-31.455017-13.791569-72.733727-72.861723-72.733727-192.985969 0-267.799632l194.585919-194.937908c35.390894-35.454892 82.55742-55.134277 133.659823-55.134277s98.268929 19.679385 133.659823 55.134277c72.733727 72.861723 72.733727 192.985969 0 267.799631L790.135308 511.984c-17.695447 17.727446-45.214587 17.727446-62.878035 0s-17.695447-45.278585 0-63.006031l88.445236-88.605231c18.207431-18.111434 29.471079-43.19865 29.471079-70.877785s-11.263648-52.766351-29.471079-70.877785c-19.647386-19.679385-43.230649-29.535077-70.749789-29.535077s-51.102403 9.855692-70.749789 29.535077l-194.585919 196.921846c-18.207431 18.111434-29.471079 43.19865-29.471079 70.877785s11.263648 52.766351 29.471079 70.877786a44.030624 44.030624 0 0 1 0 63.006031 52.254367 52.254367 0 0 1-31.455017 11.807631z" p-id="7533"></path><path d="M288.934971 927.491016c-51.102403 0-98.268929-19.679385-133.659823-55.134277s-55.03828-82.717415-55.03828-133.915815 19.647386-98.460923 55.03828-133.915815l100.220868-100.444862c17.695447-17.727446 45.214587-17.727446 62.878035 0s17.695447 45.310584 0 63.006032l-100.220868 100.444861c-19.647386 19.679385-29.471079 43.326646-29.471079 70.877785s9.823693 51.1984 29.471079 70.877785a99.51689 99.51689 0 0 0 141.499578 0l194.585919-194.937908c19.647386-19.679385 29.471079-43.326646 29.471079-70.877785s-9.823693-51.1984-29.471079-70.877786c-17.695447-17.727446-17.695447-45.278585 0-63.006031s45.214587-17.727446 62.878035 0c35.390894 35.454892 55.03828 82.717415 55.03828 133.915816s-19.647386 98.460923-55.03828 133.915815l-194.585919 194.937908a186.970157 186.970157 0 0 1-133.659823 55.134277zM196.553858 484.400862H45.230587C21.647324 484.400862 0.016 464.721477 0.016 439.122277c0-23.647261 19.647386-45.278585 45.214587-45.278585h151.323271c23.583263 0 45.214587 19.679385 45.214587 45.278585 0 23.615262-19.647386 45.278585-45.214587 45.278585z m243.704384-244.15237c-23.583263 0-45.214587-19.679385-45.214587-45.278585V45.310584c0-23.615262 19.647386-45.278585 45.214587-45.278585 23.583263 0 45.214587 19.679385 45.214587 45.278585v151.643261c-1.983938 23.615262-21.631324 43.326646-45.214587 43.326646z m-115.964376 116.15637c-11.807631 0-21.631324-3.935877-31.455017-11.807631L184.746227 238.264554c-17.695447-17.727446-17.695447-45.278585 0-63.006031s45.214587-17.727446 62.878035 0L355.716884 281.5912a44.030624 44.030624 0 0 1 0 63.006031c-9.823693 7.871754-19.647386 11.807631-31.455017 11.807631z m654.475547 273.719447h-151.323271c-23.583263 0-45.214587-19.679385-45.214587-45.278585 0-23.615262 19.647386-45.278585 45.214587-45.278585h151.323271c23.583263 0 45.214587 19.679385 45.214587 45.278585s-19.647386 45.278585-45.214587 45.278585zM585.693697 1023.968001c-23.583263 0-45.214587-19.679385-45.214587-45.278585v-151.611262c0-23.615262 19.647386-45.278585 45.214587-45.278585 23.583263 0 45.214587 19.679385 45.214587 45.278585v151.643261c-1.983938 25.5992-21.631324 45.278585-45.214587 45.278585z m224.056998-161.466954c-11.807631 0-21.631324-3.935877-31.455017-11.807631l-108.092622-106.332677c-17.695447-17.727446-17.695447-45.278585 0-63.006031s45.214587-17.727446 62.878035 0l108.092622 106.332677a44.030624 44.030624 0 0 1 0 63.006031c-7.871754 7.871754-19.647386 11.807631-31.455017 11.807631z" p-id="7534"></path></svg>