<?xml version="1.0" standalone="no"?><!DOCTYPE svg PUBLIC "-//W3C//DTD SVG 1.1//EN" "http://www.w3.org/Graphics/SVG/1.1/DTD/svg11.dtd"><svg t="1689727635946" class="icon" viewBox="0 0 1024 1024" version="1.1" xmlns="http://www.w3.org/2000/svg" p-id="16823" xmlns:xlink="http://www.w3.org/1999/xlink" width="200" height="200"><path d="M932.394667 98.304l-3.114667-3.584a32 32 0 0 0-41.642667-3.114667l-3.584 3.114667-280.746666 280.704h-0.085334L94.72 883.968a32 32 0 0 0-3.114667 41.685333l3.114667 3.584a32 32 0 0 0 41.642667 3.114667l3.584-3.114667 240-239.957333 48.853333 122.538667a32 32 0 0 0 48.938667 13.738666l3.413333-2.986666 138.112-138.069334 211.242667 211.626667L875.946667 896l-0.085334-45.013333-211.328-211.669334 136.746667-136.704a32 32 0 0 0-6.698667-50.346666l-4.053333-1.962667-122.538667-49.024L929.28 139.946667a32 32 0 0 0 3.114667-41.642667l-3.114667-3.584 3.114667 3.584z m-313.642667 352.213333l102.954667 41.173334-251.477334 251.349333-41.088-102.912 189.610667-189.610667z m-303.36-337.792l-5.376 5.290667L106.709333 334.933333a96 96 0 0 0 16.597334 145.408l5.845333 3.584 174.976 100.010667 46.933333-46.933333-190.165333-108.629334a32 32 0 0 1-13.824-39.765333l1.92-3.882667 2.048-3.157333 2.389333-2.858667L356.693333 161.749333a32 32 0 0 1 49.749334 3.84l1.834666 2.986667 108.245334 202.965333 47.36-47.317333-99.157334-185.770667a96 96 0 0 0-13.525333-19.242666l-5.546667-5.632a96 96 0 0 0-124.373333-5.845334l-5.973333 4.992z" p-id="16824"></path></svg>