<?xml version="1.0" encoding="UTF-8" standalone="no"?>
<svg
   xmlns:dc="http://purl.org/dc/elements/1.1/"
   xmlns:cc="http://creativecommons.org/ns#"
   xmlns:rdf="http://www.w3.org/1999/02/22-rdf-syntax-ns#"
   xmlns:svg="http://www.w3.org/2000/svg"
   xmlns="http://www.w3.org/2000/svg"
   xmlns:sodipodi="http://sodipodi.sourceforge.net/DTD/sodipodi-0.dtd"
   xmlns:inkscape="http://www.inkscape.org/namespaces/inkscape"
   inkscape:version="1.0 (4035a4f, 2020-05-01)"
   sodipodi:docname="user-tick.svg"
   id="svg12"
   version="1.1"
   viewBox="0 0 1024 1024"
   height="200.00px"
   width="200px"
   class="icon">
  <path
     style="stroke-width:0.933004"
     d="M 812.45354,650.8864 A 448.02895,464.77796 0 0 0 668.68933,564.84486 C 781.94313,496.83107 835.41041,363.2106 799.71619,237.68215 763.92325,112.15369 647.65789,25.139055 514.95245,24.729333 382.29638,24.268395 265.38921,110.46358 228.75699,235.73596 192.17412,361.05956 244.70335,495.03854 357.46348,563.76934 185.55861,621.43765 70.132522,780.20478 70.379369,958.63855 a 34.706816,36.004287 0 0 0 17.72368,33.80207 c 11.8487,7.17005 26.807671,7.17005 38.705751,0 11.89807,-7.11893 18.76045,-20.17882 17.77305,-33.80207 0,-195.28356 162.22845,-348.26338 369.43258,-348.26338 91.97553,-0.0512 180.69266,33.6996 248.57583,94.6457 15.30458,12.70138 38.11332,11.26734 51.59122,-3.38021 a 33.867533,35.133629 0 0 0 -1.72794,-50.70304 z M 291.45635,315.93897 C 291.75257,195.22474 391.5285,97.659786 514.36001,97.813424 637.19153,98.018289 736.67124,195.94176 736.52312,316.60477 736.42436,437.26779 636.79658,535.03761 513.96506,535.03761 391.0348,534.73032 291.45635,436.70443 291.45635,315.93897 Z m 656.81292,348.46824 a 38.656382,40.101504 0 0 0 -52.47987,0 l -248.82269,245.01354 -96.12258,-94.6457 a 38.508272,39.947857 0 0 0 -36.53348,-10.75519 36.237272,37.591959 0 0 0 -27.00516,26.52947 34.06501,35.338489 0 0 0 11.10815,35.85064 l 122.18971,120.35572 v 0.15368 a 38.656382,40.101504 0 0 0 52.52923,-0.15368 l 274.9392,-270.67234 a 34.11438,35.389705 0 0 0 0.24685,-51.67614 z" />
</svg>
