<?xml version="1.0" standalone="no"?><!DOCTYPE svg PUBLIC "-//W3C//DTD SVG 1.1//EN" "http://www.w3.org/Graphics/SVG/1.1/DTD/svg11.dtd"><svg class="icon" width="200px" height="200.00px" viewBox="0 0 1024 1024" version="1.1" xmlns="http://www.w3.org/2000/svg"><path d="M994 798.2L605.9 117.5c-9.6-16.8-23.5-30.7-40.3-40.3-25.1-14.3-54.2-18-82-10.3-27.8 7.6-51 25.6-65.3 50.7L30.2 798.2C20.9 814.4 16 832.9 16 851.6c0 59.6 48.4 108 108 108h776.1c18.7 0 37.2-4.9 53.5-14.2 25.1-14.3 43.1-37.5 50.7-65.3s3.9-56.9-10.3-81.9z m-59.1 63c-2.5 9.3-8.5 17-16.9 21.8-5.4 3.1-11.6 4.7-17.8 4.7H124c-19.9 0-36-16.1-36-36 0-6.2 1.6-12.4 4.7-17.8l388.1-680.6c4.8-8.4 12.5-14.4 21.8-16.9 3.2-0.9 6.4-1.3 9.6-1.3 6.2 0 12.3 1.6 17.8 4.7 5.6 3.2 10.2 7.8 13.4 13.4l388.1 680.6c4.7 8.4 5.9 18.1 3.4 27.4z"  /><path d="M512 722c-22.1 0-40 17.9-40 40v12c0 22.1 17.9 40 40 40s40-17.9 40-40v-12c0-22.1-17.9-40-40-40z m0-412c-22.1 0-40 17.9-40 40v268c0 22.1 17.9 40 40 40s40-17.9 40-40V350c0-22.1-17.9-40-40-40z"  /></svg>