<?xml version="1.0" standalone="no"?><!DOCTYPE svg PUBLIC "-//W3C//DTD SVG 1.1//EN" "http://www.w3.org/Graphics/SVG/1.1/DTD/svg11.dtd"><svg class="icon" width="200px" height="189.81px" viewBox="0 0 1079 1024" version="1.1" xmlns="http://www.w3.org/2000/svg"><path d="M1032.192 774.144c62.464 109.056 10.752 197.632-114.176 197.632h-752.64c-125.44 0-176.64-88.576-114.176-197.632l377.856-662.528c62.464-109.056 163.328-109.568 225.792 0l377.344 662.528zM585.216 337.408H478.208l11.776 358.912h82.432l12.8-358.912z m-53.248 413.696c-16.896 0-31.232 5.632-43.008 16.384-11.264 10.24-17.92 24.576-17.408 39.936 0 14.848 5.632 28.16 17.408 38.912 11.776 10.752 26.112 16.384 43.008 16.384 16.896 0 31.232-5.632 43.52-16.384 11.264-9.728 17.92-24.064 17.92-38.912 0-15.36-6.656-29.696-17.92-39.936-12.288-10.752-27.648-16.896-43.52-16.384z" /></svg>