<?xml version="1.0" standalone="no"?><!DOCTYPE svg PUBLIC "-//W3C//DTD SVG 1.1//EN" "http://www.w3.org/Graphics/SVG/1.1/DTD/svg11.dtd"><svg t="1659237219878" class="icon" viewBox="0 0 1024 1024" version="1.1" xmlns="http://www.w3.org/2000/svg" p-id="1843" xmlns:xlink="http://www.w3.org/1999/xlink" width="200" height="200"><defs><style type="text/css">@font-face { font-family: feedback-iconfont; src: url("//at.alicdn.com/t/font_1031158_u69w8yhxdu.woff2?t=1630033759944") format("woff2"), url("//at.alicdn.com/t/font_1031158_u69w8yhxdu.woff?t=1630033759944") format("woff"), url("//at.alicdn.com/t/font_1031158_u69w8yhxdu.ttf?t=1630033759944") format("truetype"); }
</style></defs><path d="M426.666667 128H170.666667a42.666667 42.666667 0 0 0-42.666667 42.666667v256a42.666667 42.666667 0 0 0 42.666667 42.666666h256a42.666667 42.666667 0 0 0 42.666666-42.666666V170.666667a42.666667 42.666667 0 0 0-42.666666-42.666667zM384 384H213.333333V213.333333h170.666667v170.666667zM128 853.333333a42.666667 42.666667 0 0 0 42.666667 42.666667h256a42.666667 42.666667 0 0 0 42.666666-42.666667v-256a42.666667 42.666667 0 0 0-42.666666-42.666666H170.666667a42.666667 42.666667 0 0 0-42.666667 42.666666v256z m85.333333-213.333333h170.666667v170.666667H213.333333v-170.666667z m640 256a42.666667 42.666667 0 0 0 42.666667-42.666667v-256a42.666667 42.666667 0 0 0-42.666667-42.666666h-256a42.666667 42.666667 0 0 0-42.666666 42.666666v256a42.666667 42.666667 0 0 0 42.666666 42.666667h256z m-213.333333-256h170.666667v170.666667h-170.666667v-170.666667z m115.498667-542.165333a42.624 42.624 0 0 0-60.330667 0l-170.666667 170.666666a42.624 42.624 0 0 0 0 60.330667l170.666667 170.666667a42.538667 42.538667 0 0 0 60.330667 0l170.666666-170.666667a42.624 42.624 0 0 0 0-60.330667l-170.666666-170.666666zM725.333333 409.002667L614.997333 298.666667 725.333333 188.330667 835.669333 298.666667 725.333333 409.002667z" fill="" p-id="1844"></path></svg>