<?xml version="1.0" standalone="no"?><!DOCTYPE svg PUBLIC "-//W3C//DTD SVG 1.1//EN" "http://www.w3.org/Graphics/SVG/1.1/DTD/svg11.dtd"><svg t="1695195266711" class="icon" viewBox="0 0 1024 1024" version="1.1" xmlns="http://www.w3.org/2000/svg" p-id="1481" xmlns:xlink="http://www.w3.org/1999/xlink" width="200" height="200"><path d="M811.993 992l-599.988 0c-66.289 0-119.988-53.746-119.988-119.988l0-599.989c0-66.289 53.699-120.035 119.988-120.035l89.979 0 0-59.972 80.828 0c25.968-35.722 73.813-60.017 129.186-60.017s103.22 24.295 129.187 60.017l80.782 0 0 59.972 90.025 0c66.243 0 119.989 53.746 119.989 120.035l0 599.989c0.001 66.242-53.745 119.988-119.988 119.988l0 0zM661.997 151.989l-66.661 0c0-33.122-37.301-59.972-83.337-59.972-46.035 0-83.337 26.85-83.337 59.972l-66.659 0 0 120.035 299.994 0 0-120.035zM871.964 272.023c0-33.168-26.85-60.017-59.971-60.017l-90.025 0 0 119.988-419.982 0 0-119.988-89.979 0c-33.121 0-60.018 26.85-60.018 60.017l0 599.989c0 33.12 26.898 59.97 60.018 59.97l599.988 0c33.121 0 59.971-26.85 59.971-59.97l0-599.989-0.001 0zM721.968 811.993l-419.982 0c-16.537 0-29.963-13.425-29.963-30.008 0-16.584 13.425-30.009 29.963-30.009l419.982 0c16.583 0 30.008 13.425 30.008 30.009-0.001 16.583-13.426 30.008-30.008 30.008l0 0zM721.968 661.996l-419.982 0c-16.537 0-29.963-13.425-29.963-30.008 0-16.537 13.425-30.008 29.963-30.008l419.982 0c16.583 0 30.008 13.471 30.008 30.008-0.001 16.584-13.426 30.008-30.008 30.008l0 0zM721.968 512l-419.982 0c-16.537 0-29.963-13.425-29.963-30.009s13.425-30.009 29.963-30.009l419.982 0c16.583 0 30.008 13.425 30.008 30.009s-13.426 30.009-30.008 30.009l0 0z" p-id="1482"></path></svg>