<?xml version="1.0" encoding="UTF-8" standalone="no"?>
<svg
   t="1772258918388"
   class="icon"
   viewBox="0 0 1024 1024"
   version="1.1"
   p-id="1653"
   width="200"
   height="200"
   id="svg1"
   sodipodi:docname="workspace.svg"
   inkscape:version="1.3.2 (091e20e, 2023-11-25)"
   xmlns:inkscape="http://www.inkscape.org/namespaces/inkscape"
   xmlns:sodipodi="http://sodipodi.sourceforge.net/DTD/sodipodi-0.dtd"
   xmlns="http://www.w3.org/2000/svg"
   xmlns:svg="http://www.w3.org/2000/svg">
  <defs
     id="defs1" />
  <sodipodi:namedview
     id="namedview1"
     pagecolor="#ffffff"
     bordercolor="#666666"
     borderopacity="1.0"
     inkscape:showpageshadow="2"
     inkscape:pageopacity="0.0"
     inkscape:pagecheckerboard="0"
     inkscape:deskcolor="#d1d1d1"
     inkscape:zoom="3.075"
     inkscape:cx="100"
     inkscape:cy="99.837398"
     inkscape:window-width="1864"
     inkscape:window-height="1027"
     inkscape:window-x="60"
     inkscape:window-y="25"
     inkscape:window-maximized="1"
     inkscape:current-layer="svg1" />
  <path
     d="M 107.95899,299.83665 512.83252,501.91812 917.70604,299.83569 512.83252,104.72416 Z m 56.82412,313.57378 -85.236172,-41.80819 c -28.414,-13.93797 -42.618572,-34.84302 -42.618572,-62.71609 0,-27.87308 14.205543,-48.77812 42.618572,-62.71513 L 164.78311,404.36187 79.546938,362.55179 C 44.031137,348.61477 29.825595,306.80563 44.031137,271.96357 51.133909,258.02751 65.340424,244.0905 72.443196,244.0905 L 477.31769,48.978011 c 21.30831,-6.968031 42.61761,-6.968031 63.92689,0 L 946.1181,244.0905 c 35.51581,13.93701 49.72137,55.74615 28.41303,90.58821 -7.10374,13.93606 -21.30928,27.87308 -28.41303,27.87308 l -85.23617,41.81008 78.1334,34.84111 c 35.5158,13.93701 49.72134,34.84207 49.72134,69.68317 0,27.87307 -14.20554,55.74615 -49.72134,69.68317 l -78.1334,34.84111 78.1334,34.84205 c 35.5158,13.93607 49.72134,34.84111 49.72134,69.68317 0,27.87308 -14.20554,55.74616 -49.72134,69.68221 L 548.34735,975.76235 c -7.10277,6.968 -21.30832,6.968 -35.51483,6.968 -14.20652,0 -21.30928,0 -35.51483,-6.968 L 72.443196,780.64983 c -28.412059,-13.93606 -35.51483,-34.8411 -35.51483,-62.71418 0,-27.87307 14.205543,-48.77812 42.618572,-62.71514 z M 242.91652,655.22051 107.95899,717.93565 512.83252,920.01616 917.70604,724.90368 782.74853,662.18855 548.34638,773.68181 c -7.10277,6.96802 -21.30832,6.96802 -35.51483,6.96802 -14.20651,0 -21.30929,0 -35.51483,-6.96802 z M 782.74853,446.17102 548.34638,557.66427 c -21.30832,6.96803 -42.61761,6.96803 -63.92689,0 L 242.91652,446.17102 107.95899,508.88615 512.83252,710.96667 917.70604,508.88615 Z"
     p-id="1654"
     id="path1"
     style="stroke-width:0.961865" />
</svg>
