<?xml version="1.0" standalone="no"?>
<!DOCTYPE svg PUBLIC "-//W3C//DTD SVG 1.1//EN" "http://www.w3.org/Graphics/SVG/1.1/DTD/svg11.dtd" >
<svg xmlns="http://www.w3.org/2000/svg">
<metadata></metadata>
<defs>
<font id="gitop-iconsregular" horiz-adv-x="1088" >
<font-face units-per-em="1024" ascent="832" descent="-192" />
<missing-glyph horiz-adv-x="500" />
<glyph unicode="&#x2000;" horiz-adv-x="417" />
<glyph unicode="&#x2001;" horiz-adv-x="835" />
<glyph unicode="&#x2002;" horiz-adv-x="417" />
<glyph unicode="&#x2003;" horiz-adv-x="835" />
<glyph unicode="&#x2004;" horiz-adv-x="278" />
<glyph unicode="&#x2005;" horiz-adv-x="208" />
<glyph unicode="&#x2006;" horiz-adv-x="139" />
<glyph unicode="&#x2007;" horiz-adv-x="139" />
<glyph unicode="&#x2008;" horiz-adv-x="104" />
<glyph unicode="&#x2009;" horiz-adv-x="167" />
<glyph unicode="&#x200a;" horiz-adv-x="46" />
<glyph unicode="&#x202f;" horiz-adv-x="167" />
<glyph unicode="&#x205f;" horiz-adv-x="208" />
<glyph unicode="&#xe000;" horiz-adv-x="564" d="M0 0z" />
<glyph unicode="&#xf000;" horiz-adv-x="2368" d="M1 313q0 -110 63 -182t162 -72q88 0 154 68v-68q0 -150 -123 -150q-66 0 -101 46q-16 21 -22 55h-112q9 -95 74 -149q62 -53 160 -53q115 0 181 76q35 40 47 94q4 19 6 46q3 25 3 61v473h-113v-55q-60 69 -152 69q-105 0 -168 -79q-59 -72 -59 -180zM115 314q0 67 33 109 q38 48 101 48q60 0 99 -44q37 -43 37 -112q0 -66 -34 -109q-38 -47 -102 -47q-63 0 -101 47q-33 42 -33 108zM617 760q0 -31 22 -53q21 -21 52 -21q30 0 51 21q22 24 22 52q0 30 -22 52q-21 21 -52 21q-30 0 -51 -21q-22 -22 -22 -51zM634 73h113v485h-113v-485zM844 453h47 v-380h113v380h87v105h-87v179h-113v-179h-47v-105zM1151 319q0 -111 74 -185q73 -75 183 -75q112 0 186 73q75 74 75 183q0 108 -75 183q-76 74 -184 74t-184 -74q-75 -74 -75 -179zM1266 317q0 69 40 110q39 44 104 44q64 0 105 -44q39 -40 39 -112q0 -73 -39 -113 q-40 -43 -105 -43q-66 0 -105 44q-39 42 -39 114zM1787 -191h113v318q66 -68 152 -68q98 0 163 72q65 74 65 182q0 111 -66 185q-63 74 -164 74q-84 0 -151 -67v53h-112v-749zM1893 315q0 69 38 112q39 44 100 44q57 0 97 -45q38 -44 38 -113q0 -65 -39 -110 q-38 -44 -96 -44q-62 0 -100 44q-38 46 -38 112z" />
<glyph unicode="&#xf001;" d="M0 414q0 -85 33 -161q33 -77 88 -132q56 -56 133 -88.5t160 -32.5q122 0 223 66l257 -256q6 -6 15 -6q10 0 16 6l92 93q7 6 7 15q0 10 -7 16l-256 256q66 102 66 224q0 83 -32.5 159.5t-88.5 132.5t-132.5 88.5t-159.5 32.5t-160 -32.5t-133 -88.5t-88.5 -132.5 t-32.5 -159.5zM132 414q0 117 82 199q85 83 200 83t200 -83q82 -82 82 -199q0 -118 -82 -200q-85 -83 -200 -83t-200 83q-82 82 -82 200z" />
<glyph unicode="&#xf002;" d="M0 0h1024l-304 288l-208 -208l-208 208zM0 80l256 256l-256 256v-512zM0 672l512 -512l512 512h-1024zM768 336l256 -256v512z" />
<glyph unicode="&#xf003;" d="M0 -32h1024v512l-512 -256l-512 256v-512zM0 576l512 -256l512 256v128h-1024v-128z" />
<glyph unicode="&#xf004;" d="M0 -32h1024v736h-1024v-736zM64 32v448l448 -256l448 256v-448h-896zM64 576v64h896v-64l-448 -256z" />
<glyph unicode="&#xf005;" d="M0 500q0 -73 44 -148q34 -56 71 -93q9 -11 15 -15l357 -344q12 -10 25 -10t25 10l356 343q131 131 131 257t-72.5 197t-200.5 71q-69 0 -141 -45q-61 -41 -98 -79q-39 41 -98 79q-70 45 -141 45q-128 0 -200.5 -71t-72.5 -197z" />
<glyph unicode="&#xf006;" d="M0 500q0 -73 44 -148q34 -56 71 -93q9 -11 15 -15l357 -344q12 -10 25 -10t25 10l356 343q131 131 131 257t-72.5 197t-200.5 71q-69 0 -141 -45q-61 -41 -98 -79q-39 41 -98 79q-70 45 -141 45q-128 0 -200.5 -71t-72.5 -197zM73 500q0 49 13 82q21 64 77 90 q47 23 110 23q59 0 128 -51q53 -42 83 -77q10 -12 28 -12t28 12q31 36 84 77q67 51 127 51q26 0 56 -5q63 -11 100 -51q44 -47 44 -139q0 -96 -108 -203l-331 -319l-332 320q-107 107 -107 202z" />
<glyph unicode="&#xf009;" horiz-adv-x="960" d="M31 -122q0 -29 20.5 -49.5t49.5 -20.5h698q29 0 49.5 20.5t20.5 49.5v419q0 29 -20.5 49.5t-49.5 20.5h-23v139q0 134 -96 230t-230 96t-230 -96t-96 -230v-139h-23q-29 0 -49.5 -20.5t-20.5 -49.5v-419zM264 367v139q0 77 54.5 131.5t131.5 54.5t131.5 -54.5 t54.5 -131.5v-139h-372z" />
<glyph unicode="&#xf00a;" horiz-adv-x="960" d="M64 -130q0 -26 19 -45t45 -19h640q26 0 45 19t19 45v384q0 26 -19 45t-45 19h-491v213q0 71 50.5 121t120.5 50t120.5 -50t50.5 -121q0 -17 12.5 -29.5t29.5 -12.5h43q17 0 30 12.5t13 29.5q0 124 -87.5 211.5t-211.5 87.5t-211.5 -87.5t-87.5 -211.5v-213h-21 q-26 0 -45 -19t-19 -45v-384z" />
<glyph unicode="&#xf010;" horiz-adv-x="704" d="M0 -64l640 384l-640 384v-768z" />
<glyph unicode="&#xf011;" horiz-adv-x="832" d="M0 -64h320v768h-320v-768zM448 -64h320v768h-320v-768z" />
<glyph unicode="&#xf012;" horiz-adv-x="832" d="M0 -64h768v768h-768v-768z" />
<glyph unicode="&#xf013;" horiz-adv-x="832" d="M0 -64h128v352l320 -320v320l320 -320v704l-320 -320v320l-320 -320v352h-128v-768z" />
<glyph unicode="&#xf014;" horiz-adv-x="832" d="M0 -32l320 320v-320l320 320v-352h128v768h-128v-352l-320 320v-320l-320 320v-704z" />
<glyph unicode="&#xf015;" horiz-adv-x="512" d="M0 -64h128v352l320 -320v704l-320 -320v352h-128v-768z" />
<glyph unicode="&#xf016;" horiz-adv-x="512" d="M0 -32l320 320v-352h128v768h-128v-352l-320 320v-704z" />
<glyph unicode="&#xf017;" d="M0 320h320v512h384v-512h320l-512 -512z" />
<glyph unicode="&#xf018;" d="M0 320l512 512v-320h512v-384h-512v-320z" />
<glyph unicode="&#xf019;" d="M0 320l512 512l512 -512h-320v-512h-384v512h-320z" />
<glyph unicode="&#xf01a;" d="M0 128v384h512v320l512 -512l-512 -512v320h-512z" />
<glyph unicode="&#xf01b;" d="M128 388q0 27 19 45l320 320q18 19 45 19t45 -19l320 -320q19 -18 19 -45t-19 -45q-6 -8 -21 -14q-10 -5 -24 -5t-24 5q-15 6 -21 14l-211 210v-613q0 -27 -18 -45q-19 -19 -46 -19q-28 0 -45 19q-19 17 -19 45v613l-211 -210q-18 -19 -45 -19t-45 19q-19 18 -19 45z" />
<glyph unicode="&#xf01c;" d="M64 316q0 27 19 46q18 18 45 18h613l-210 211q-19 18 -19 45t19 45q18 19 45 19t45 -19l320 -320q19 -18 19 -45t-19 -45l-320 -320q-18 -19 -45 -19t-45 19q-8 6 -14 21q-5 10 -5 24t5 24q6 15 14 21l210 211h-613q-28 0 -45 19q-19 17 -19 45z" />
<glyph unicode="&#xf01d;" d="M128 258q0 27 19 45q5 7 21 15q11 4 24 4t24 -4q16 -8 21 -15l211 -210v613q0 27 19 46q18 18 45 18q26 0 46 -18q18 -20 18 -46v-613l211 210q18 19 45 19t45 -19q19 -18 19 -45t-19 -45l-320 -320q-18 -19 -45 -19t-45 19l-320 320q-19 18 -19 45z" />
<glyph unicode="&#xf01e;" d="M64 316q0 27 19 45l320 320q18 19 45 19t45 -19q7 -5 15 -21q4 -11 4 -24t-4 -24q-8 -16 -15 -21l-210 -211h613q26 0 46 -18q18 -20 18 -46q0 -27 -18 -45q-19 -19 -46 -19h-613l210 -211q19 -18 19 -45t-19 -45q-18 -19 -45 -19t-45 19l-320 320q-19 18 -19 45z" />
<glyph unicode="&#xf01f;" d="M0 320q0 -104 39.5 -198t110.5 -164q70 -71 164 -110.5t198 -39.5t198 39.5t165 110.5q70 70 109.5 164t39.5 198t-39.5 198t-109.5 165q-71 70 -165 109.5t-198 39.5t-198 -39.5t-164 -109.5q-71 -71 -110.5 -165t-39.5 -198zM96 320q0 173 122 295q121 121 294 121 q172 0 295 -121q121 -123 121 -295q0 -173 -121 -294q-122 -122 -295 -122q-174 0 -294 122q-122 120 -122 294zM192 320q0 -14 5 -24q6 -15 14 -21q18 -19 45 -19t45 19l147 146v-357q0 -28 19 -45q17 -19 45 -19q27 0 46 19q18 18 18 45v357l147 -146q18 -19 45 -19t45 19 q19 18 19 45t-19 45l-256 256q-18 19 -45 19t-45 -19l-256 -256q-8 -6 -14 -21q-5 -10 -5 -24z" />
<glyph unicode="&#xf020;" d="M0 320q0 104 39.5 198t110.5 165q70 70 164 109.5t198 39.5t198 -39.5t165 -109.5q70 -71 109.5 -165t39.5 -198t-39.5 -198t-109.5 -164q-71 -71 -165 -110.5t-198 -39.5t-198 39.5t-164 110.5q-71 70 -110.5 164t-39.5 198zM96 320q0 -174 122 -294q120 -122 294 -122 q173 0 295 122q121 121 121 294q0 172 -121 295q-123 121 -295 121q-173 0 -294 -121q-122 -122 -122 -295zM192 320q0 27 19 46q18 18 45 18h357l-146 147q-19 18 -19 45t19 45q18 19 45 19t45 -19l256 -256q19 -18 19 -45t-19 -45l-256 -256q-6 -8 -21 -14q-10 -5 -24 -5 t-24 5q-15 6 -21 14q-19 18 -19 45t19 45l146 147h-357q-28 0 -45 19q-19 17 -19 45z" />
<glyph unicode="&#xf021;" d="M0 320q0 104 39.5 198t110.5 165q70 70 164 109.5t198 39.5t198 -39.5t165 -109.5q70 -71 109.5 -165t39.5 -198t-39.5 -198t-109.5 -164q-71 -71 -165 -110.5t-198 -39.5t-198 39.5t-164 110.5q-71 70 -110.5 164t-39.5 198zM96 320q0 -174 122 -294q120 -122 294 -122 q173 0 295 122q121 121 121 294q0 172 -121 295q-123 121 -295 121q-173 0 -294 -121q-122 -122 -122 -295zM192 320q0 14 5 24q6 15 14 21q18 19 45 19t45 -19l147 -146v357q0 27 19 46q18 18 45 18q26 0 46 -18q18 -20 18 -46v-357l147 146q18 19 45 19t45 -19 q19 -18 19 -45t-19 -45l-256 -256q-18 -19 -45 -19t-45 19l-256 256q-8 6 -14 21q-5 10 -5 24z" />
<glyph unicode="&#xf022;" d="M0 320q0 -104 39.5 -198t110.5 -164q70 -71 164 -110.5t198 -39.5t198 39.5t165 110.5q70 70 109.5 164t39.5 198t-39.5 198t-109.5 165q-71 70 -165 109.5t-198 39.5t-198 -39.5t-164 -109.5q-71 -71 -110.5 -165t-39.5 -198zM96 320q0 173 122 295q121 121 294 121 q172 0 295 -121q121 -123 121 -295q0 -173 -121 -294q-122 -122 -295 -122q-174 0 -294 122q-122 120 -122 294zM192 320q0 -27 19 -45l256 -256q6 -8 21 -14q10 -5 24 -5t24 5q15 6 21 14q19 18 19 45t-19 45l-146 147h357q27 0 46 19q18 18 18 45q0 26 -18 46 q-20 18 -46 18h-357l146 147q19 18 19 45t-19 45q-18 19 -45 19t-45 -19l-256 -256q-19 -18 -19 -45z" />
<glyph unicode="&#xf023;" d="M0 -192v512h64v-512h-64zM0 512v128h704v192l256 -256l-256 -256v192h-704zM64 64l256 256v-192h704v-128h-704v-192zM960 320v512h64v-512h-64z" />
<glyph unicode="&#xf024;" horiz-adv-x="576" d="M0 64l256 -256l256 256h-192v768h-128v-768h-192z" />
<glyph unicode="&#xf025;" horiz-adv-x="576" d="M0 576l256 256l256 -256h-192v-768h-128v768h-192z" />
<glyph unicode="&#xf026;" d="M0 320l256 256v-192h768v-128h-768v-192z" />
<glyph unicode="&#xf027;" d="M0 256v128h768v192l256 -256l-256 -256v192h-768z" />
<glyph unicode="&#xf028;" d="M320 320l384 -256v512z" />
<glyph unicode="&#xf029;" d="M256 512h512l-256 -384z" />
<glyph unicode="&#xf02a;" d="M256 128l256 384l256 -384h-512z" />
<glyph unicode="&#xf02b;" d="M320 64v512l384 -256z" />
<glyph unicode="&#xf02c;" horiz-adv-x="448" d="M0 320l320 320l64 -64l-256 -256l256 -256l-64 -64z" />
<glyph unicode="&#xf02d;" horiz-adv-x="704" d="M0 448l64 64l256 -256l256 256l64 -64l-320 -320z" />
<glyph unicode="&#xf02e;" horiz-adv-x="704" d="M0 192l320 320l320 -320l-64 -64l-256 256l-256 -256z" />
<glyph unicode="&#xf02f;" horiz-adv-x="448" d="M0 64l256 256l-256 256l64 64l320 -320l-320 -320z" />
<glyph unicode="&#xf030;" horiz-adv-x="768" d="M0 320l320 320l64 -64l-256 -256l256 -256l-64 -64zM320 320l320 320l64 -64l-256 -256l256 -256l-64 -64z" />
<glyph unicode="&#xf031;" horiz-adv-x="768" d="M0 64l256 256l-256 256l64 64l320 -320l-320 -320zM320 64l256 256l-256 256l64 64l320 -320l-320 -320z" />
<glyph unicode="&#xf035;" d="M0 320q0 104 39.5 198t110.5 165q70 70 164 109.5t198 39.5t198 -39.5t165 -109.5q70 -71 109.5 -165t39.5 -198t-39.5 -198t-109.5 -164q-71 -71 -165 -110.5t-198 -39.5t-198 39.5t-164 110.5q-71 70 -110.5 164t-39.5 198zM96 320q0 -174 122 -294q120 -122 294 -122 q173 0 295 122q121 121 121 294q0 172 -121 295q-123 121 -295 121q-173 0 -294 -121q-122 -122 -122 -295zM384 96l384 224l-384 224v-448z" />
<glyph unicode="&#xf036;" d="M0 320q0 104 39.5 198t110.5 165q70 70 164 109.5t198 39.5t198 -39.5t165 -109.5q70 -71 109.5 -165t39.5 -198t-39.5 -198t-109.5 -164q-71 -71 -165 -110.5t-198 -39.5t-198 39.5t-164 110.5q-71 70 -110.5 164t-39.5 198zM96 320q0 -174 122 -294q120 -122 294 -122 q173 0 295 122q121 121 121 294q0 172 -121 295q-123 121 -295 121q-173 0 -294 -121q-122 -122 -122 -295zM320 128h128v384h-128v-384zM576 128h128v384h-128v-384z" />
<glyph unicode="&#xf037;" d="M0 320q0 104 39.5 198t110.5 165q70 70 164 109.5t198 39.5t198 -39.5t165 -109.5q70 -71 109.5 -165t39.5 -198t-39.5 -198t-109.5 -164q-71 -71 -165 -110.5t-198 -39.5t-198 39.5t-164 110.5q-71 70 -110.5 164t-39.5 198zM96 320q0 -174 122 -294q120 -122 294 -122 q173 0 295 122q121 121 121 294q0 172 -121 295q-123 121 -295 121q-173 0 -294 -121q-122 -122 -122 -295zM320 128h384v384h-384v-384z" />
<glyph unicode="&#xf038;" d="M0 320q0 104 39.5 198t110.5 165q70 70 164 109.5t198 39.5t198 -39.5t165 -109.5q70 -71 109.5 -165t39.5 -198t-39.5 -198t-109.5 -164q-71 -71 -165 -110.5t-198 -39.5t-198 39.5t-164 110.5q-71 70 -110.5 164t-39.5 198zM96 320q0 -174 122 -294q120 -122 294 -122 q173 0 295 122q121 121 121 294q0 172 -121 295q-123 121 -295 121q-173 0 -294 -121q-122 -122 -122 -295zM224 320l224 -160v320zM480 320l224 -160v320z" />
<glyph unicode="&#xf039;" d="M0 320q0 104 39.5 198t110.5 165q70 70 164 109.5t198 39.5t198 -39.5t165 -109.5q70 -71 109.5 -165t39.5 -198t-39.5 -198t-109.5 -164q-71 -71 -165 -110.5t-198 -39.5t-198 39.5t-164 110.5q-71 70 -110.5 164t-39.5 198zM96 320q0 -174 122 -294q120 -122 294 -122 q173 0 295 122q121 121 121 294q0 172 -121 295q-123 121 -295 121q-173 0 -294 -121q-122 -122 -122 -295zM320 160l224 160l-224 160v-320zM576 160l224 160l-224 160v-320z" />
<glyph unicode="&#xf040;" d="M0 416l384 -320v192h96q85 0 114 -3q101 -7 164 -36q74 -36 106 -97q38 -74 38 -183q0 -32 -3 -71l-1 -4v-9q-2 -14 -2 -15q0 -20 18 -20q13 0 24 22l13 31q73 162 73 258q0 113 -30 190q-46 115 -172 170t-342 55h-96v192z" />
<glyph unicode="&#xf041;" d="M0 163q0 113 30 190q46 115 172 170t342 55h96v192l384 -352l-384 -320v192h-96q-85 0 -114 -3q-101 -7 -164 -36q-74 -36 -106 -97q-38 -74 -38 -183q0 -32 3 -71l1 -4v-9q2 -14 2 -15q0 -20 -18 -20q-13 0 -24 22l-13 31q-73 162 -73 258z" />
<glyph unicode="&#xf042;" d="M0 -107q0 -17 12.5 -29.5t30.5 -12.5q17 0 30 12l86 86q149 -141 350 -141q182 0 318.5 111t179.5 290v4q0 9 -6.5 15.5t-14.5 6.5h-128q-15 0 -20 -16q-25 -59 -35 -78q-46 -76 -124 -119t-167 -43q-134 0 -232 92l91 91q13 13 13 30t-12.5 30t-30.5 13h-298 q-18 0 -30.5 -13t-12.5 -30v-299zM12 427q0 -9 6.5 -15.5t14.5 -6.5h133q15 0 20 16q25 59 35 78q46 76 124 119t167 43q135 0 233 -91l-92 -92q-13 -13 -13 -30t12.5 -30t30.5 -13h298q18 0 30.5 13t12.5 30v299q0 17 -12.5 29.5t-30.5 12.5q-17 0 -30 -12l-86 -86 q-72 68 -164 104.5t-189 36.5q-183 0 -319.5 -110.5t-180.5 -290.5v-4z" />
<glyph unicode="&#xf043;" d="M0 320q0 -104 39.5 -198t110.5 -164q70 -71 164 -110.5t198 -39.5q111 0 215 48q97 45 170 127l-96 84l-4 -4q-1 -2 -4 -5q-6 -6 -9 -10q-57 -55 -124 -83q-70 -29 -148 -29q-77 0 -147 29q-69 28 -125 83q-55 56 -83 125q-29 70 -29 147q0 78 29 148q28 67 83 124 q56 55 125 83q70 29 147 29q78 0 148 -29q67 -28 124 -83l-144 -144h384v384l-150 -150q-71 71 -163 110q-94 40 -199 40q-104 0 -198 -39.5t-164 -109.5q-71 -71 -110.5 -165t-39.5 -198z" />
<glyph unicode="&#xf044;" d="M0 320q0 26 17 46q16 18 40 18h391v192l256 -256l-256 -256v192h-391q-24 0 -40 19q-17 19 -17 45zM448 -128q0 27 19 46q18 18 45 18h384v768h-384q-28 0 -45 19q-19 17 -19 45q0 27 19 46q18 18 45 18h448q26 0 46 -18q18 -20 18 -46v-896q0 -27 -18 -45 q-19 -19 -46 -19h-448q-28 0 -45 19q-19 17 -19 45z" />
<glyph unicode="&#xf045;" d="M0 -128v896q0 26 18 46q20 18 46 18h448q27 0 45 -18q19 -19 19 -46q0 -28 -19 -45q-17 -19 -45 -19h-384v-768h384q27 0 45 -18q19 -19 19 -46q0 -28 -19 -45q-17 -19 -45 -19h-448q-27 0 -46 19q-18 18 -18 45zM320 320q0 26 17 46q16 18 40 18h391v192l256 -256 l-256 -256v192h-391q-24 0 -40 19q-17 19 -17 45z" />
<glyph unicode="&#xf047;" d="M0 192v-384h384l-128 128l192 224l-96 96l-224 -192zM0 448l128 128l224 -192l96 96l-192 224l128 128h-384v-384zM576 160l192 -224l-128 -128h384v384l-128 -128l-224 192zM576 480l96 -96l224 192l128 -128v384h-384l128 -128z" />
<glyph unicode="&#xf048;" d="M0 -96l96 -96l224 192l128 -128v384h-384l128 -128zM0 736l192 -224l-128 -128h384v384l-128 -128l-224 192zM576 -128l128 128l224 -192l96 96l-192 224l128 128h-384v-384zM576 384h384l-128 128l192 224l-96 96l-224 -192l-128 128v-384z" />
<glyph unicode="&#xf050;" horiz-adv-x="1024" d="M0 327q0 -29 4 -62l127 -31q9 -37 35 -88l-66 -111q38 -49 87 -87l113 66q40 -23 86 -35l32 -127q35 -5 62 -5q26 0 61 5l32 127q44 11 88 35l111 -66q48 37 88 87l-67 111q24 44 35 88l127 31q5 37 5 62q0 27 -5 62l-127 32q-12 46 -35 86l66 113q-37 50 -87 87 l-111 -67q-52 27 -88 36l-32 127q-48 4 -61 4q-12 0 -62 -4l-32 -127q-40 -10 -86 -36l-113 67q-49 -37 -87 -87l66 -113q-26 -48 -35 -86l-127 -32q-4 -33 -4 -62zM312 327q0 71 49 119q48 49 119 49q69 0 118 -49t49 -119t-49 -119t-118 -49q-70 0 -119 49t-49 119z" />
<glyph unicode="&#xf051;" d="M0 252q0 -15 13 -15l81 -13q5 -16 19 -44q-10 -13 -26 -32q-15 -19 -21 -29q-4 -4 -4 -10q0 -15 77 -85q4 -4 11 -4q6 0 11 3l62 48q18 -10 40 -17l13 -81q0 -5 5 -9.5t11 -4.5h99q11 0 16 13q6 26 12 83q22 6 41 16l62 -48q4 -3 11 -3q9 0 39.5 29.5t46.5 49.5q3 5 3 10 t-3 11q-32 39 -48 61q12 25 17 41l82 13q5 0 9 5t4 11v98q0 14 -13 16l-81 13q-5 16 -18 43q9 14 24 32q5 8 12.5 17t9.5 12q4 5 4 10q0 14 -77 86q-8 4 -11 4q-7 0 -11 -4l-63 -47q-16 8 -40 16l-12 82q-2 13 -16 13h-99q-13 0 -16 -13q-7 -22 -13 -82q-15 -5 -41 -17 l-61 48q-5 4 -11 4q-9 0 -41 -30.5t-45 -48.5q-4 -4 -4 -11q0 -6 4 -10q28 -33 48 -62q-11 -22 -17 -40l-83 -13q-12 -2 -12 -16v-99zM205 301q0 56 40 96t96 40q57 0 97 -40t40 -96q0 -57 -40 -97q-42 -40 -97 -40q-56 0 -96 40.5t-40 96.5zM614 -10q0 -8 80 -16 q6 -15 16 -28q-27 -60 -27 -74q0 -2 2 -3q65 -38 66 -38q4 0 23.5 23.5t28.5 37.5q4 0 9 -0.5t7 -0.5t7 0.5t9 0.5q9 -13 29 -37t23 -24l67 38q2 2 2 3q0 14 -27 74q8 12 16 28q79 8 79 16v75q0 8 -79 17q-3 7 -16 27q27 60 27 74q0 2 -2 4q-64 37 -67 37l-3 -1 q-25 -27 -49 -60q-7 1 -16 1t-16 -1q-9 14 -28.5 37.5t-23.5 23.5q-1 0 -16 -9q-8 -4 -32 -18q-3 -2 -6 -3.5l-5 -2.5t-3.5 -2t-2.5 -1l-1 -1q-2 -1 -2 -4q0 -14 27 -74q-8 -10 -16 -27q-80 -9 -80 -17v-75zM614 536q0 -8 80 -16q6 -15 16 -28q-27 -60 -27 -73q0 -3 2 -4 q65 -38 66 -38q4 0 23.5 23.5t28.5 37.5q4 0 9 -0.5t7 -0.5t7 0.5t9 0.5q9 -13 29 -37t23 -24l67 38q2 2 2 4q0 13 -27 73q8 12 16 28q79 8 79 16v75q0 8 -79 17q-3 7 -16 27q27 60 27 74q0 2 -2 4q-64 37 -67 37l-3 -1q-21 -21 -49 -60q-7 1 -16 1t-16 -1q-9 14 -28.5 37.5 t-23.5 23.5l-16 -8l-32 -19q-3 -2 -6 -3.5l-5 -2.5t-3.5 -2t-2.5 -1l-1 -1q-2 -1 -2 -4q0 -14 27 -74q-8 -10 -16 -27q-80 -9 -80 -17v-75zM751 28q0 27 20 47.5t48 20.5t48 -20.5t20 -47.5q0 -29 -20 -49t-48 -20t-48 20t-20 49zM751 574q0 28 20 48t48 20t48 -20t20 -48 t-19.5 -48t-48.5 -20t-48.5 20t-19.5 48z" />
<glyph unicode="&#xf052;" d="M0 0v64l70 12l3 9q4 12 7 17q0 1 1.5 3.5t2.5 4.5l-41 58l45 45l58 -41q2 0 4.5 2t3.5 2q2 0 5 2t4 2q9 4 17 6l12 70h64l12 -70q1 0 4 -1t5 -1q8 -3 17 -8q1 0 4 -2t4 -2l58 41l45 -45l-41 -58q0 -2 2 -4.5t2 -3.5q0 -2 1.5 -4t2.5 -4q4 -8 6 -18l70 -12v-64l-70 -12 l-2 -8q-4 -10 -8 -18q0 -1 -2 -4t-2 -4l41 -58l-45 -45l-58 41q-2 0 -4.5 -2t-3.5 -2q-2 0 -4 -2t-4 -2q-8 -4 -18 -6l-12 -70h-64l-12 70l-8 3q-14 5 -18 7q-1 0 -3.5 2t-4.5 2l-58 -41l-45 45l41 58q-1 1 -2.5 4t-1.5 4q0 2 -2 5t-2 4q-4 9 -6 17zM160 32q0 -28 19 -45 q17 -19 45 -19q27 0 46 19q18 18 18 45q0 26 -18 46q-20 18 -46 18q-27 0 -45 -18q-19 -19 -19 -46zM320 448v64l67 12q1 1 1 3t1 3q0 4 2 12q0 4 1 6l-57 37l24 59l67 -14q3 3 4 5q4 8 6 10q1 1 3 5l-39 56l46 46l56 -39q4 2 5 3q3 3 5 4q8 4 10 6l-14 67l59 24l37 -57 q1 0 3 1t3 1q4 0 6 1q4 0 12 2l12 67h64l12 -67q2 -1 6 -1q8 -2 12 -2q1 0 3 -1t3 -1l37 57l59 -24l-14 -67q1 -1 5 -3q6 -3 10 -7q1 -1 5 -3l56 39l46 -46l-39 -56q2 -4 3 -5q3 -3 4 -5q4 -8 6 -10l67 14l24 -59l-57 -37q0 -1 1 -3t1 -3q0 -4 1 -6q0 -4 2 -12l67 -12v-64 l-67 -12q-1 -2 -1 -6q-2 -8 -2 -12q0 -1 -1 -3t-1 -3l57 -37l-24 -59l-67 14q-1 -1 -3 -5q-3 -6 -7 -10q-1 -1 -3 -5l39 -56l-46 -46l-56 39q-4 -2 -5 -3q-2 -2 -10 -6q-2 -1 -5 -4l14 -67l-59 -24l-37 57q-2 -1 -6 -1q-2 -1 -6 -1l-12 -3l-12 -67h-64l-12 67q-1 1 -3 1 t-3 1q-4 0 -12 2q-4 0 -6 1l-37 -57l-59 24l14 67q-3 3 -5 4q-8 4 -10 6q-1 1 -5 3l-56 -39l-46 46l39 56q-2 4 -3 5t-3 5q-3 6 -7 10l-67 -14l-24 59l57 37q-1 2 -1 6q-1 2 -1 6l-3 12zM533 480q0 -59 41 -98q39 -41 98 -41q58 0 99 41q40 40 40 98q0 57 -40 99 q-42 40 -99 40q-58 0 -98 -40q-41 -41 -41 -99z" />
<glyph unicode="&#xf053;" d="M7 660l79 -122q13 -19 33 -17h23q21 2 37 -14l129 -127l83 77l-132 130q-15 13 -15 37l2 22q0 23 -18 34l-122 80q-19 11 -34 -4l-61 -62q-17 -15 -4 -34zM23 -28q0 -18 13 -31l91 -92q13 -12 31 -12q19 0 31 12l494 495q107 -37 210 20q135 75 126 221l-209 -104 l-120 192l214 116q-39 28 -84 37q-86 17 -169 -31q-79 -45 -112.5 -128t-5.5 -167l-497 -498q-13 -13 -13 -30zM533 88l249 -274q6 -7 15 -7t15 6l151 151q6 8 6 16t-7 14l-277 254z" />
<glyph unicode="&#xf054;" d="M0 319q0 -98 38 -192q40 -98 112 -170q150 -150 361 -150q103 0 196.5 39t165.5 111t111.5 168t39.5 194t-39.5 194t-111.5 168q-72 73 -165.5 111.5t-196.5 38.5q-213 0 -361 -150q-72 -72 -111 -167.5t-39 -194.5zM69 319q0 106 49 204l117 -86q-24 -57 -24 -118 t24 -118l-117 -85q-49 98 -49 203zM288 259.5q-16 59.5 0 119.5q15 59 60 104q69 67 163 67q96 0 163 -67q68 -68 68 -164q0 -97 -68 -163q-67 -67 -163 -67q-94 0 -163 67q-44 44 -60 103.5zM308 -73l85 116q57 -24 118 -24q63 0 118 24l85 -116q-93 -50 -203 -50 q-109 0 -203 50zM308 712q97 50 203 50q108 0 203 -50l-85 -117q-55 24 -118 24q-61 0 -118 -24zM788 201q23 55 23 118t-23 118l116 86q49 -98 49 -204q0 -105 -49 -203z" />
<glyph unicode="&#xf055;" d="M0 319q0 -70 19 -136q18 -67 51 -122q68 -116 184 -184q119 -70 258 -70q138 0 259 70q115 69 183 184q70 119 70 258q0 138 -70 259q-68 115 -183 183q-121 70 -259 70q-139 0 -258 -70q-115 -68 -184 -183q-70 -121 -70 -259zM111 319q0 80 31.5 154.5t86.5 129.5 q54 54 128.5 85.5t154.5 31.5t154.5 -31.5t129.5 -85.5q54 -55 85.5 -129.5t31.5 -154.5t-31.5 -154.5t-85.5 -128.5q-55 -55 -129.5 -86.5t-154.5 -31.5t-154.5 31.5t-128.5 86.5q-55 54 -86.5 128.5t-31.5 154.5zM166 362q0 -18 13 -31q12 -13 30 -13t31 13t13 31 t-13 30.5t-31 12.5t-30.5 -12.5t-12.5 -30.5zM209 492q0 -18 13 -31t31 -13t30.5 13t12.5 31t-12.5 30.5t-30.5 12.5t-31 -12.5t-13 -30.5zM339 578q0 -18 13 -30q15 -13 31 -13q18 0 30.5 12.5t12.5 30.5t-12.5 31t-30.5 13t-31 -13t-13 -31zM432 224q0 -33 23.5 -56.5 t56.5 -23.5t56.5 23.5t23.5 56.5q0 24 -15 47l60 197q3 10 -5 13.5t-15 -4.5l-118 -174q-29 -5 -48 -27t-19 -52zM469 622q0 -18 14 -30q12 -14 30 -14t30.5 13t12.5 31t-12.5 30.5t-30.5 12.5t-31 -12.5t-13 -30.5zM599 578q0 -18 14 -30q13 -13 30 -13q18 0 31 12.5 t13 30.5t-13 31t-31 13t-31 -13t-13 -31zM730 492q0 -18 13 -31q12 -13 30 -13t31 13t13 31t-13 30.5t-31 12.5t-30.5 -12.5t-12.5 -30.5zM773 362q0 -18 13 -31t31 -13t30.5 13t12.5 31t-12.5 30.5t-30.5 12.5t-31 -12.5t-13 -30.5z" />
<glyph unicode="&#xf056;" d="M0 321q-2 -5 4 -11l155 -208q6 -7 12.5 -6.5t10.5 7.5l148 215q10 16 -8 16l-100 -2q1 97 58 183q39 58 97 95.5t124 49.5q140 26 258 -54q57 -38 94.5 -96t49.5 -124q12 -65 -1.5 -133t-51.5 -124q-38 -57 -96.5 -95t-123.5 -50q-142 -26 -259 54q-5 3 -15 11 q-18 16 -25 23q-16 14 -19 17l-65 -96q2 -2 8.5 -7.5t9.5 -8.5l4.5 -4.5l4 -4l3 -3l2.5 -2.5l28 -20q76 -52 166.5 -70t177.5 -1q87 16 164.5 66t129.5 126q51 76 69.5 166.5t1.5 177.5q-17 88 -67 165t-126 129q-159 107 -340 75q-86 -14 -164.5 -65.5t-132.5 -131.5 q-76 -111 -79 -249l1 -2l-97 -3q-9 0 -11 -5zM503 233v298q0 22 22 22h42q22 0 22 -22v-234h149q21 0 21 -22v-42q0 -22 -21 -22h-213q-22 0 -22 22z" />
<glyph unicode="&#xf057;" d="M0 319q0 -140 69 -257q69 -118 186.5 -186.5t256.5 -68.5q140 0 257 69q118 69 186.5 186.5t68.5 256.5q0 140 -69 257q-69 118 -186.5 186.5t-256.5 68.5q-140 0 -257 -69q-118 -69 -186.5 -186.5t-68.5 -256.5zM149 319q0 100 49 182q49 84 132.5 132.5t181.5 48.5 q100 0 182 -49q84 -49 132.5 -132.5t48.5 -181.5q0 -100 -49 -182q-49 -84 -132.5 -132.5t-181.5 -48.5q-100 0 -182 49q-84 49 -132.5 132.5t-48.5 181.5zM341 255q0 -21 22 -21h213q21 0 21 21v299q0 21 -21 21h-43q-9 0 -15 -6t-6 -15v-235h-149q-10 0 -16 -6t-6 -15v-43 z" />
<glyph unicode="&#xf058;" d="M0 -128v256h128v64h-128v256h128v64h-128v256h1024v-256h-64v-64h64v-256h-64v-64h64v-256h-1024zM128 0h128v64h-128v-64zM128 320h128v64h-128v-64zM128 640h128v64h-128v-64zM192 128h704v64h-704v-64zM192 448h704v64h-704v-64z" />
<glyph unicode="&#xf059;" d="M0 -9q0 65 41.5 115.5t104.5 64.5v299q-63 13 -104.5 63.5t-41.5 115.5q0 77 53 130t130 53q65 0 115.5 -41.5t63.5 -104.5h300q13 63 63.5 104.5t115.5 41.5q76 0 129.5 -53.5t53.5 -129.5q0 -66 -42 -116t-105 -63v-300q64 -13 105.5 -63.5t40.5 -115.5 q0 -76 -53 -129.5t-129 -53.5q-66 0 -116 41.5t-64 105.5h-299q-13 -63 -63 -105t-116 -42q-76 0 -129.5 53.5t-53.5 129.5zM219 170q37 -8 64 -26l177 177l-177 176q-29 -20 -64 -27v-300zM335 92q19 -28 27 -64h300q8 36 27 64l-178 177zM335 549l176 -177l177 177 q-17 25 -27 64h-299q-7 -35 -27 -64zM563 321l177 -178q27 18 64 28v299q-32 7 -64 27z" />
<glyph unicode="&#xf05a;" d="M0 -192l32 224l357 357l-2 3q-1 0 -1 2t-1 2l-2 3l-1 1q0 2 -1 2l-70 141q-12 23 -5 51q6 25 29 42l277 184q25 15 51 12t47 -22l101 -101l45 -45l45 -45l101 -101q19 -21 22 -47t-12 -51l-184 -277q-17 -23 -42 -29q-28 -7 -51 5l-141 70l-4 3q-1 0 -2 1l-2 1q-4 2 -5 3 q-1 0 -2.5 0.5t-2.5 1.5v-71h-128v-128h-128v-128h-128v-64h-192zM105 23l46 -46l311 312l-45 45zM546 657q0 -16 9 -22l272 -272q6 -9 22 -9q14 0 23 9l45 45q9 9 9 23q0 16 -9 22l-272 272q-6 9 -22 9q-14 0 -23 -9l-45 -45q-9 -9 -9 -23z" />
<glyph unicode="&#xf05b;" d="M0 60h192v16q0 19 15 34q14 14 33 14h160q18 0 34 -14q14 -16 14 -34v-16h576v-128h-576v-16q0 -19 -14 -33q-15 -15 -34 -15h-160q-20 0 -33 15q-15 13 -15 33v16h-192v128zM0 252v128h576v16q0 19 15 34q14 14 33 14h160q18 0 34 -14q14 -16 14 -34v-16h192v-128h-192 v-16q0 -19 -14 -33q-15 -15 -34 -15h-160q-20 0 -33 15q-15 13 -15 33v16h-576zM0 572v128h192v16q0 19 15 34q14 14 33 14h160q18 0 34 -14q14 -16 14 -34v-16h576v-128h-576v-16q0 -19 -14 -33q-15 -15 -34 -15h-160q-20 0 -33 15q-15 13 -15 33v16h-192zM256 60v-128h128 v128h-128zM256 572h128v128h-128v-128zM640 252h128v128h-128v-128z" />
<glyph unicode="&#xf05c;" d="M64 432v160q0 19 15 34q14 14 33 14h16v192h128v-192h16q18 0 34 -14q14 -16 14 -34v-160q0 -19 -14 -33q-15 -15 -34 -15h-16v-576h-128v576h-16q-20 0 -33 15q-15 13 -15 33zM128 448h128v128h-128v-128zM384 48v160q0 19 15 34q14 14 33 14h16v576h128v-576h16 q18 0 34 -14q14 -16 14 -34v-160q0 -19 -14 -33q-15 -15 -34 -15h-16v-192h-128v192h-16q-20 0 -33 15q-15 13 -15 33zM448 64h128v128h-128v-128zM704 432v160q0 19 15 34q14 14 33 14h16v192h128v-192h16q18 0 34 -14q14 -16 14 -34v-160q0 -19 -14 -33q-15 -15 -34 -15 h-16v-576h-128v576h-16q-20 0 -33 15q-15 13 -15 33zM768 448h128v128h-128v-128z" />
<glyph unicode="&#xf05d;" d="M0 -63l128 -129l192 193l-128 127zM209 355q35 124 141 247l444 -443q-125 -106 -247 -142q-158 -46 -272 66v1q-112 109 -66 271zM361 681l87 88l115 -116l178 180l91 -91l-179 -178l102 -102l178 179l91 -90l-179 -179l115 -116l-87 -86z" />
<glyph unicode="&#xf05e;" d="M192 -192v1024h640v-1024l-320 320z" />
<glyph unicode="&#xf05f;" d="M128 -64v896h640v-64h-576v-768zM256 -192v896h640v-896l-320 320z" />
<glyph unicode="&#xf060;" horiz-adv-x="1024" d="M0 -128v256h960v-256h-960zM192 384l288 -256l288 256h-192v384h-192v-384h-192zM704 0h128v64h-128v-64z" />
<glyph unicode="&#xf061;" horiz-adv-x="1024" d="M0 -128v256h960v-256h-960zM192 512h192v-320h192v320h192l-288 256zM768 0h128v64h-128v-64z" />
<glyph unicode="&#xf062;" horiz-adv-x="1216" d="M0 -4v640q0 27 19 46q18 18 45 18h1023q29 -2 46 -19q18 -20 18 -45v-640q0 -27 -18 -45q-19 -19 -45 -19h-1025q-27 0 -44 19q-19 17 -19 45zM127 60l64 -1v129l-64 -1v-127zM127 251l128 1v127l-128 1v-129zM127 444l64 -1v129l-64 -1v-127zM255 59l512 1v127l-512 1 v-129zM255 444l128 -1v129l-128 -1v-127zM319 252l128 -1v129l-128 -1v-127zM447 444l128 -1v129l-128 -1v-127zM511 252l128 -1v129l-128 -1v-127zM639 444l128 -1v129l-128 -1v-127zM703 252l128 -1v129l-128 -1v-127zM831 60l192 -1v129l-192 -1v-127zM831 444l192 -1 v129l-192 -1v-127zM895 251l128 1v127l-128 1v-129z" />
<glyph unicode="&#xf063;" horiz-adv-x="1216" d="M0 -4v640q0 27 19 46q18 18 45 18h1023q29 -2 46 -19q18 -20 18 -45v-640q0 -27 -18 -45q-19 -19 -45 -19h-1025q-27 0 -44 19q-19 17 -19 45zM64 0h1024v640h-1024v-640zM127 60v127l64 1v-129zM127 251v129l128 -1v-127zM127 444v127l64 1v-129zM255 59v129l512 -1 v-127zM255 444v127l128 1v-129zM319 252v127l128 1v-129zM447 444v127l128 1v-129zM511 252v127l128 1v-129zM639 444v127l128 1v-129zM703 252v127l128 1v-129zM831 60v127l192 1v-129zM831 444v127l192 1v-129zM895 251v129l128 -1v-127z" />
<glyph unicode="&#xf064;" d="M64 324q0 -186 131 -317t317 -131t317 131t131 317q0 83 -27 155q-26 68 -77 131q-7 12 -8 13q-4 4 -12 10q-1 1 -1 2q-2 0 -2 2l-2 1v-1v-1q-5 4 -15 6t-16 2q-27 0 -45 -18q-19 -19 -19 -46q0 -17 8 -31q8 -15 21 -22l-1 -1h-1v-1l-1 -1q34 -45 51 -92q19 -52 19 -108 q0 -133 -93 -226q-94 -94 -227 -94q-132 0 -226 94t-94 226q0 56 19 108q17 47 51 92v1q-1 0 -1 1q-1 0 -2 1q13 7 21 22q8 14 8 31q0 26 -18 46q-20 18 -46 18q-6 0 -16 -2t-15 -6v1v1l-2 -2l-3 -3q-8 -6 -11 -10q-3 -3 -9 -13q-49 -60 -76 -131q-28 -75 -28 -155zM448 292 q0 -12 10 -22t22 -10h64q13 0 23 10q9 9 9 22v448q0 14 -9 23t-23 9h-64q-13 0 -22 -9q-10 -10 -10 -23v-448z" />
<glyph unicode="&#xf065;" horiz-adv-x="1024" d="M5 -119q0 -29 21.5 -51t51.5 -22h804q30 0 51.5 22t21.5 51v732q0 29 -21.5 51t-51.5 22h-73v55q0 37 -26.5 64t-64.5 27h-37q-37 0 -64 -27t-27 -64v-55h-220v55q0 37 -27 64t-64 27h-37q-38 0 -64.5 -27t-26.5 -64v-55h-73q-30 0 -51.5 -22t-21.5 -51v-732zM78 46h164 v-165h-164v165zM78 82v183h164v-183h-164zM78 302v164h164v-164h-164zM224 576v165q0 7 5.5 12.5t12.5 5.5h37q7 0 12.5 -5.5t5.5 -12.5v-165q0 -8 -5.5 -13t-12.5 -5h-37q-7 0 -12.5 5.5t-5.5 12.5zM279 46h183v-165h-183v165zM279 82v183h183v-183h-183zM279 302v164h183 v-164h-183zM498 46h183v-165h-183v165zM498 82v183h183v-183h-183zM498 302v164h183v-164h-183zM663 576v165q0 7 5.5 12.5t12.5 5.5h37q7 0 12.5 -5.5t5.5 -12.5v-165q0 -7 -5.5 -12.5t-12.5 -5.5h-37q-7 0 -12.5 5t-5.5 13zM718 46h164v-165h-164v165zM718 82v183h164 v-183h-164zM718 302v164h164v-164h-164z" />
<glyph unicode="&#xf066;" horiz-adv-x="1024" d="M5 -119q0 -29 21.5 -51t51.5 -22h804q30 0 51.5 22t21.5 51v732q0 29 -21.5 51t-51.5 22h-73v55q0 37 -26.5 64t-64.5 27h-37q-37 0 -64 -27t-27 -64v-55h-220v55q0 37 -27 64t-64 27h-37q-38 0 -64.5 -27t-26.5 -64v-55h-73q-30 0 -51.5 -22t-21.5 -51v-732zM64 -128 v640h832v-640h-832zM192 0h256v128h-256v64h256v128h-256v64h320v-448h-320v64zM224 576v165q0 7 5.5 12.5t12.5 5.5h37q7 0 12.5 -5.5t5.5 -12.5v-165q0 -8 -5.5 -13t-12.5 -5h-37q-7 0 -12.5 5.5t-5.5 12.5zM640 320v64h128v-448h-64v384h-64zM663 576v165q0 7 5.5 12.5 t12.5 5.5h37q7 0 12.5 -5.5t5.5 -12.5v-165q0 -7 -5.5 -12.5t-12.5 -5.5h-37q-7 0 -12.5 5t-5.5 13z" />
<glyph unicode="&#xf069;" horiz-adv-x="960" d="M0 -13v-91q0 -8 5.5 -14t13.5 -6h858q8 0 13.5 6t5.5 14v91q0 32 -8 47.5t-31 28.5q-204 118 -272 145v147q38 28 38 87v116q0 49 -18 88q-20 40 -61 64t-96 24t-97 -25q-78 -46 -78 -151v-116q0 -60 39 -87v-147q-89 -39 -273 -145q-23 -13 -31 -28.5t-8 -47.5z" />
<glyph unicode="&#xf06a;" d="M-128 40q0 -8 7 -8h161q11 49 61 76l5 4q95 55 200 108q-36 18 -69 28v96q10 2 19 8q14 9 16 21q3 10 3 28v65q0 52 -28.5 83t-81.5 31t-81.5 -31t-28.5 -83v-65q0 -13 1 -16q0 -18 7 -24q9 -11 28 -18v-95q-38 -13 -93 -41q-29 -15 -75 -43l-17 -11q-34 -18 -34 -50v-63 zM91 -10v-92q0 -4 3 -8t7 -4h822q4 0 7 4t3 8v92q0 29 -7.5 43.5t-29.5 27.5q-191 109 -256 136v137q37 28 37 82v109q0 45 -18 83t-56.5 60t-90.5 22q-54 0 -91 -23q-74 -44 -74 -142v-109q0 -54 37 -82v-137q-76 -34 -256 -136q-22 -13 -29.5 -27.5t-7.5 -43.5zM719 221 q103 -53 191 -105l13 -8q49 -27 61 -76h161q7 0 7 8v63q0 32 -34 50l-17 11q-46 28 -75 43q-55 28 -93 41v96q11 4 17 8q15 9 17 21q2 10 2 28v65q0 52 -28.5 83t-81.5 31t-81.5 -31t-28.5 -83v-65q0 -13 1 -16q0 -15 7 -24q12 -12 30 -18v-95q-14 -4 -68 -27z" />
<glyph unicode="&#xf06b;" horiz-adv-x="832" d="M0 -80q0 55 20 111q24 70 75.5 137.5t126.5 103.5q-41 38 -70.5 99.5t-29.5 140.5q0 125 74 212q76 92 188 92q111 0 187 -92q74 -87 74 -212q0 -79 -29.5 -140.5t-71.5 -99.5q85 -39 145 -129q79 -112 79 -223q0 -20 -14 -34t-34 -14h-673q-20 0 -33.5 14t-13.5 34z M102 -32h563q-18 74 -72 145t-128 86q-17 4 -27.5 17t-10.5 31v34q0 29 25 41q44 26 70.5 77.5t26.5 112.5q0 86 -48.5 147t-116.5 61q-69 0 -117.5 -61t-48.5 -147q0 -61 26.5 -112.5t70.5 -77.5q25 -12 25 -41v-34q0 -18 -10.5 -31t-27.5 -17q-74 -15 -128 -86t-72 -145z " />
<glyph unicode="&#xf06c;" d="M0 -69q0 -19 14.5 -33t34.5 -14h131q3 45 17 95h-95q19 75 72.5 145.5t128.5 86.5q17 4 27.5 17t10.5 29v35q0 27 -24 41q-45 26 -72 78t-27 112q0 86 48.5 147t117.5 61q13 0 19 -2q37 43 89 72q-52 26 -108 26q-110 0 -188 -92q-73 -88 -73 -212q0 -144 100 -240 q-82 -37 -145 -129q-78 -111 -78 -223zM256 -133q0 48 21 111q24 70 75 137.5t127 104.5q-101 90 -101 240q0 123 74 211q78 92 188 92q109 0 185.5 -89.5t76.5 -213.5q0 -150 -101 -240q83 -40 145 -129q78 -115 78 -224q0 -19 -14 -33t-34 -14h-672q-20 0 -34 13.5 t-14 33.5zM358 -85h564q-18 75 -71.5 145.5t-128.5 85.5q-17 5 -27.5 18t-10.5 30v34q0 28 24 42q44 26 71 77.5t27 112.5q0 86 -48.5 146.5t-117.5 60.5t-117.5 -60.5t-48.5 -146.5q0 -61 27 -112.5t71 -77.5q25 -14 25 -42v-34q0 -17 -10.5 -30t-27.5 -18 q-75 -15 -129 -85.5t-72 -145.5z" />
<glyph unicode="&#xf06d;" horiz-adv-x="960" d="M0 0q0 -48 40 -88t88 -40h640q48 0 88 40t40 88v256h-64v-189q0 -57 -37 -94t-94 -37h-506q-57 0 -94 37t-37 94v506q0 57 37 94t94 37h189v64h-256q-48 0 -88 -40t-40 -88v-640zM256 256l128 -128l384 448l128 -128v384h-384l128 -128z" />
<glyph unicode="&#xf06e;" d="M1 -160v832q0 13 10 23q9 9 22 9h64v-64h-32v-768h639v128h65v-192h-736q-12 0 -22 10t-10 22zM128 0v64h256v-64h-256zM128 128v64h128v-64h-128zM128 256v64h128v-64h-128zM128 384v64h192v-64h-192zM129 575v129l128 -1v65q0 28 19 45q20 19 45 18l128 1q29 -2 46 -19 q18 -20 18 -45v-64h128v-128zM321 703l128 1v64l-128 -1v-64zM384 256l256 192v-128h384v-128h-384v-128zM673 640v64h64q14 0 23 -9t9 -23v-172h-64v140h-32z" />
<glyph unicode="&#xf06f;" horiz-adv-x="960" d="M0 -94h246l492 493l-246 246l-492 -492v-247zM75 58v63l54 54l139 -139l-54 -54h-63v76h-76zM176 209q0 6 4 10l320 321q4 4 10 4q13 0 13 -13q0 -6 -4 -10l-320 -321q-4 -4 -10 -4q-13 0 -13 13zM529 682l246 -246l99 99q22 22 22 53q0 29 -22 54l-139 138 q-23 23 -54 23q-32 0 -53 -23z" />
<glyph unicode="&#xf070;" horiz-adv-x="960" d="M0 3v634q0 57 37 94t94 37h634q57 0 94 -37t37 -94v-634q0 -57 -37 -94t-94 -37h-634q-57 0 -94 37t-37 94zM64 67q0 -57 37 -94t94 -37h506q57 0 94 37t37 94v506q0 57 -37 94t-94 37h-506q-57 0 -94 -37t-37 -94v-506z" />
<glyph unicode="&#xf071;" d="M0 0q0 -48 40 -88t88 -40h640q48 0 88 40t40 88v256h-64v-189q0 -57 -37 -94t-94 -37h-506q-57 0 -94 37t-37 94v506q0 57 37 94t94 37h445v64h-512q-48 0 -88 -40t-40 -88v-640zM218 384q0 -26 20 -46l224 -224q22 -22 49.5 -21t47.5 24l425 478q17 19 16.5 44t-19.5 44 l-34 34q-22 22 -50 20.5t-48 -24.5l-337 -393l-146 146q-20 20 -46 20t-46 -20l-36 -36q-20 -20 -20 -46z" />
<glyph unicode="&#xf072;" d="M0 320q0 104 39.5 198t110.5 165q70 70 164 109.5t198 39.5t198 -39.5t165 -109.5q70 -71 109.5 -165t39.5 -198t-39.5 -198t-109.5 -164q-71 -71 -165 -110.5t-198 -39.5t-198 39.5t-164 110.5q-71 70 -110.5 164t-39.5 198zM128 320q0 -158 113 -271t271 -113 q159 0 272 113q112 112 112 271q0 160 -112 272t-272 112q-159 0 -271 -112q-113 -113 -113 -272z" />
<glyph unicode="&#xf073;" d="M0 320q0 104 39.5 198t110.5 165q70 70 164 109.5t198 39.5t198 -39.5t165 -109.5q70 -71 109.5 -165t39.5 -198t-39.5 -198t-109.5 -164q-71 -71 -165 -110.5t-198 -39.5t-198 39.5t-164 110.5q-71 70 -110.5 164t-39.5 198zM128 320q0 -158 113 -271t271 -113 q159 0 272 113q112 112 112 271q0 160 -112 272t-272 112q-159 0 -271 -112q-113 -113 -113 -272zM320 320q0 -80 56 -136t136 -56t136 56t56 136t-56 136t-136 56t-136 -56t-56 -136z" />
<glyph unicode="&#xf074;" horiz-adv-x="832" d="M0 320q0 94 55.5 183.5t145 145t183.5 55.5t183.5 -55.5t145 -145t55.5 -183.5t-55.5 -183.5t-145 -145t-183.5 -55.5t-183.5 55.5t-145 145t-55.5 183.5z" />
<glyph unicode="&#xf075;" horiz-adv-x="960" d="M0 3v634q0 57 37 94t94 37h634q57 0 94 -37t37 -94v-634q0 -57 -37 -94t-94 -37h-634q-57 0 -94 37t-37 94zM64 67q0 -57 37 -94t94 -37h506q57 0 94 37t37 94v506q0 57 -37 94t-94 37h-506q-57 0 -94 -37t-37 -94v-506zM256 128v384h384v-384h-384z" />
<glyph unicode="&#xf077;" d="M28 56q1 -98 75 -173q37 -36 82 -55q46 -20 97 -20q48 0 98 21q53 23 95 65l516 516q10 10 10 26q0 15 -10 25q-11 11 -26 11t-26 -11l-516 -515q-67 -67 -146 -65q-71 1 -122 54q-53 53 -54 122q-2 79 65 146q36 37 230 231q76 75 153 153l133 132q10 11 26 22 q29 17 57 18q32 0 56 -14q25 -16 41 -41q14 -24 14 -56q0 -14 -5 -29q-11 -31 -35 -55l-493 -493q-4 -4 -12 -10q-12 -9 -25 -14q-8 -3 -18 -3q-5 0 -7 1q-5 1 -10 6q-11 11 -6 30q5 20 26 41l346 347q11 10 11 26q0 15 -11 25q-10 11 -25 11q-16 0 -26 -11l-347 -346 q-44 -45 -47 -97q-3 -47 27 -77q18 -18 38 -23q26 -9 46 -5q22 1 47 14q26 13 44 34l494 493q41 44 53 87q14 48 2 95t-48 83t-83 48t-95 -2q-43 -13 -87 -53l-132 -133l-292 -292q-73 -73 -92 -91q-88 -88 -86 -199z" />
<glyph unicode="&#xf078;" d="M0 448v384l150 -150q71 71 163 110q94 40 199 40q104 0 198 -39.5t164 -109.5q71 -71 110.5 -165t39.5 -198t-39.5 -198t-110.5 -164q-70 -71 -164 -110.5t-198 -39.5q-111 0 -215 48q-97 45 -170 127l96 84l4 -4q1 -2 4 -5q6 -6 9 -10q57 -55 124 -83q70 -29 148 -29 q77 0 147 29q69 28 125 83q55 56 83 125q29 70 29 147q0 78 -29 148q-28 67 -83 124q-56 55 -125 83q-70 29 -147 29q-78 0 -148 -29q-67 -28 -124 -83l144 -144h-384z" />
<glyph unicode="&#xf080;" horiz-adv-x="960" d="M0 0q0 -51 35.5 -86.5t86.5 -35.5t86.5 35.5t35.5 86.5q0 50 -35 87q-37 35 -87 35q-51 0 -86.5 -35.5t-35.5 -86.5zM0 322q0 -16 10.5 -28t26.5 -13q146 -13 249 -116.5t117 -249.5q2 -16 13 -26.5t27 -10.5h86q19 0 31 13t10 31q-8 102 -51 194.5t-116 164.5 q-72 73 -164.5 116t-194.5 51h-3q-18 0 -29.5 -11.5t-11.5 -29.5v-85zM0 642q0 -16 11 -27.5t27 -12.5q135 -8 258.5 -64t215.5 -148t148 -215.5t63 -258.5q1 -16 13 -27t28 -11h91q18 0 30.5 13t10.5 30q-8 166 -76.5 318.5t-187.5 271.5q-118 119 -270.5 187t-318.5 76h-2 q-17 0 -29 -11.5t-12 -29.5v-91z" />
<glyph unicode="&#xf081;" d="M0 320q0 125 74 244.5t193.5 193.5t244.5 74t244.5 -74t193.5 -193.5t74 -244.5t-74 -244.5t-193.5 -193.5t-244.5 -74t-244.5 74t-193.5 193.5t-74 244.5zM256 256h192v-192h128v192h192v128h-192v192h-128v-192h-192v-128z" />
<glyph unicode="&#xf082;" d="M0 320q0 125 74 244.5t193.5 193.5t244.5 74t244.5 -74t193.5 -193.5t74 -244.5t-74 -244.5t-193.5 -193.5t-244.5 -74t-244.5 74t-193.5 193.5t-74 244.5zM267 172l88 -88l157 156l157 -156l88 88l-156 157l156 157l-88 88l-157 -157l-157 157l-88 -89l156 -156z" />
<glyph unicode="&#xf083;" d="M0 320q0 125 74 244.5t193.5 193.5t244.5 74t244.5 -74t193.5 -193.5t74 -244.5t-74 -244.5t-193.5 -193.5t-244.5 -74t-244.5 74t-193.5 193.5t-74 244.5zM256 256h512v128h-512v-128z" />
<glyph unicode="&#xf084;" d="M0 320q0 125 74 244.5t193.5 193.5t244.5 74t244.5 -74t193.5 -193.5t74 -244.5t-74 -244.5t-193.5 -193.5t-244.5 -74t-244.5 74t-193.5 193.5t-74 244.5zM192 288l224 -224l416 416l-96 96l-320 -320l-128 128z" />
<glyph unicode="&#xf085;" d="M0 320q0 125 74 244.5t193.5 193.5t244.5 74t244.5 -74t193.5 -193.5t74 -244.5t-74 -244.5t-193.5 -193.5t-244.5 -74t-244.5 74t-193.5 193.5t-74 244.5zM345 320l16 -28q13 9 45 24q16 8 33 11q5 -1 5 -8t-1 -11q-4 -15 -4 -17l-38 -153q-15 -62 -3 -87q8 -20 37 -22 q35 2 81 26q66 34 114 83l-19 23q-16 -10 -23 -15q-19 -12 -39 -18q-8 -3 -11 -2q-3 -1 -5 1.5t-2 6.5q-3 12 3 29l43 164q13 45 8 71q-7 27 -29 26q-27 1 -90 -27q-56 -25 -121 -77zM468 562q0 -30 16 -43q19 -17 50 -16q35 -1 63 23q23 20 23 52q0 26 -13 43 q-14 17 -49 18q-45 -1 -68 -26q-22 -25 -22 -51z" />
<glyph unicode="&#xf086;" d="M0 320q0 125 74 244.5t193.5 193.5t244.5 74t244.5 -74t193.5 -193.5t74 -244.5t-74 -244.5t-193.5 -193.5t-244.5 -74t-244.5 74t-193.5 193.5t-74 244.5zM327 428l113 -1v6q0 16 4 28q5 13 13 26q6 11 22 20q8 4 33 6q7 -1 18 -1q11 -1 27 -10q9 -7 16 -20q0 -2 1 -4.5 t2 -4.5t1 -3q4 -9 4 -24q0 -7 -1 -10q-2 -9 -8 -20l-7 -12l-4 -4q-2 -3 -5 -6q-2 -1 -5 -4q-4 -4 -6 -5l-10 -7q-11 -6 -22 -16q-38 -29 -50 -43q-6 -6 -9 -14q-7 -21 -7 -39q-1 -4 -1.5 -13t-0.5 -13v-10l109 1l1 4v12q0 6 2 12l2 6q2 9 10 17q10 12 19 17l29 21l18 15 q6 5 16 13q7 4 13 12q3 4 9 10v1q12 15 21 38q6 19 6 42q0 38 -14 69q-10 23 -41 50q-37 24 -62 30q-39 10 -76 9q-23 1 -58 -7q-19 -4 -48 -20q-36 -25 -53 -60q-20 -41 -21 -90v-4zM435 106q-1 -29 18 -50q15 -16 49 -21l2 1q27 -1 50 18q18 17 20 47q0 31 -18 51 q-18 19 -50 21l-3 -1q-27 1 -48 -18q-20 -20 -20 -48z" />
<glyph unicode="&#xf087;" d="M0 320q0 125 74 244.5t193.5 193.5t244.5 74t244.5 -74t193.5 -193.5t74 -244.5t-74 -244.5t-193.5 -193.5t-244.5 -74t-244.5 74t-193.5 193.5t-74 244.5zM64 320q0 -192 128 -320t320 -128t320 128t128 320t-128 320t-320 128t-320 -128t-128 -320zM256 256h192v-192 h128v192h192v128h-192v192h-128v-192h-192v-128z" />
<glyph unicode="&#xf088;" d="M0 320q0 125 74 244.5t193.5 193.5t244.5 74t244.5 -74t193.5 -193.5t74 -244.5t-74 -244.5t-193.5 -193.5t-244.5 -74t-244.5 74t-193.5 193.5t-74 244.5zM64 320q0 -192 128 -320t320 -128t320 128t128 320t-128 320t-320 128t-320 -128t-128 -320zM267 172l88 -88 l157 156l157 -156l88 88l-156 157l156 157l-88 88l-157 -157l-157 157l-88 -89l156 -156z" />
<glyph unicode="&#xf089;" d="M0 320q0 125 74 244.5t193.5 193.5t244.5 74t244.5 -74t193.5 -193.5t74 -244.5t-74 -244.5t-193.5 -193.5t-244.5 -74t-244.5 74t-193.5 193.5t-74 244.5zM64 320q0 -192 128 -320t320 -128t320 128t128 320t-128 320t-320 128t-320 -128t-128 -320zM256 256h512v128 h-512v-128z" />
<glyph unicode="&#xf08a;" d="M0 320q0 125 74 244.5t193.5 193.5t244.5 74t244.5 -74t193.5 -193.5t74 -244.5t-74 -244.5t-193.5 -193.5t-244.5 -74t-244.5 74t-193.5 193.5t-74 244.5zM64 320q0 -192 128 -320t320 -128t320 128t128 320t-128 320t-320 128t-320 -128t-128 -320zM192 288l224 -224 l416 416l-96 96l-320 -320l-128 128z" />
<glyph unicode="&#xf08b;" d="M0 320q0 125 74 244.5t193.5 193.5t244.5 74t244.5 -74t193.5 -193.5t74 -244.5t-74 -244.5t-193.5 -193.5t-244.5 -74t-244.5 74t-193.5 193.5t-74 244.5zM64 320q0 -192 128 -320t320 -128t320 128t128 320t-128 320t-320 128t-320 -128t-128 -320zM345 320l16 -28 q13 9 45 24q16 8 33 11q5 -1 5 -8t-1 -11q-4 -15 -4 -17l-38 -153q-15 -62 -3 -87q8 -20 37 -22q35 2 81 26q66 34 114 83l-19 23q-16 -10 -23 -15q-19 -12 -39 -18q-8 -3 -11 -2q-3 -1 -5 1.5t-2 6.5q-3 12 3 29l43 164q13 45 8 71q-7 27 -29 26q-27 1 -90 -27 q-56 -25 -121 -77zM468 562q0 -30 16 -43q19 -17 50 -16q35 -1 63 23q23 20 23 52q0 26 -13 43q-14 17 -49 18q-45 -1 -68 -26q-22 -25 -22 -51z" />
<glyph unicode="&#xf08c;" d="M0 320q0 125 74 244.5t193.5 193.5t244.5 74t244.5 -74t193.5 -193.5t74 -244.5t-74 -244.5t-193.5 -193.5t-244.5 -74t-244.5 74t-193.5 193.5t-74 244.5zM64 320q0 -192 128 -320t320 -128t320 128t128 320t-128 320t-320 128t-320 -128t-128 -320zM327 428l113 -1v6 q0 16 4 28q5 13 13 26q6 11 22 20q8 4 33 6q7 -1 18 -1q11 -1 27 -10q9 -7 16 -20q0 -2 1 -4.5t2 -4.5t1 -3q4 -9 4 -24q0 -7 -1 -10q-2 -9 -8 -20l-7 -12l-4 -4q-2 -3 -5 -6q-2 -1 -5 -4q-4 -4 -6 -5l-10 -7q-11 -6 -22 -16q-38 -29 -50 -43q-6 -6 -9 -14q-7 -21 -7 -39 q-1 -4 -1.5 -13t-0.5 -13v-10l109 1l1 4v12q0 6 2 12l2 6q2 9 10 17q10 12 19 17l29 21l18 15q6 5 16 13q7 4 13 12q3 4 9 10v1q12 15 21 38q6 19 6 42q0 38 -14 69q-10 23 -41 50q-37 24 -62 30q-39 10 -76 9q-23 1 -58 -7q-19 -4 -48 -20q-36 -25 -53 -60q-20 -41 -21 -90 v-4zM435 106q-1 -29 18 -50q15 -16 49 -21l2 1q27 -1 50 18q18 17 20 47q0 31 -18 51q-18 19 -50 21l-3 -1q-27 1 -48 -18q-20 -20 -20 -48z" />
<glyph unicode="&#xf08e;" d="M0 -96l512 864l512 -864h-1024zM448 0h128v128h-128v-128zM448 192h128v320h-128v-320z" />
<glyph unicode="&#xf08f;" d="M0 -128l512 960l512 -960h-1024zM128 -64h768l-384 768zM448 0h128v128h-128v-128zM448 192h128v320h-128v-320z" />
<glyph unicode="&#xf090;" horiz-adv-x="832" d="M0 289v126q0 14 9.5 23.5t23.5 9.5h255v255q0 14 9.5 23.5t23.5 9.5h126q14 0 23.5 -9.5t9.5 -23.5v-255h255q14 0 23.5 -9.5t9.5 -23.5v-126q0 -14 -9.5 -23.5t-23.5 -9.5h-255v-255q0 -14 -9.5 -23.5t-23.5 -9.5h-126q-14 0 -23.5 9.5t-9.5 23.5v255h-255 q-14 0 -23.5 9.5t-9.5 23.5z" />
<glyph unicode="&#xf091;" horiz-adv-x="832" d="M0 288v128q0 32 32 32h704q32 0 32 -32v-128q0 -32 -32 -32h-704q-32 0 -32 32z" />
<glyph unicode="&#xf092;" horiz-adv-x="768" d="M0 128l224 224l-224 224l128 128l224 -224l224 224l128 -128l-224 -224l224 -224l-128 -128l-224 224l-224 -224z" />
<glyph unicode="&#xf093;" d="M0 288l160 160l224 -224l480 480l160 -160l-640 -640z" />
<glyph unicode="&#xf094;" d="M-1 334l398 -392l626 617l-196 195l-431 -423l-199 197zM107 334l90 88l199 -198l431 423l88 -88l-518 -510z" />
<glyph unicode="&#xf095;" d="M20 320q0 100 38.5 190t106.5 158q67 67 157 105t190 38q203 0 348 -143q144 -146 144 -348q0 -100 -38 -189.5t-106 -157.5t-158 -106.5t-190 -38.5t-190 38.5t-157 106.5q-68 67 -106.5 157t-38.5 190zM138 320q0 -62 23 -128q20 -56 61 -109l527 526q-45 38 -109 62 q-61 23 -128 23q-156 0 -264 -110q-110 -110 -110 -264zM275 30q48 -39 109 -62q59 -22 128 -22q155 0 265 110q109 109 109 264q0 65 -22 128q-20 57 -63 108z" />
<glyph unicode="&#xf096;" d="M0 448l320 -256l-128 -352l320 224l320 -224l-128 384l320 224h-384l-128 352l-128 -352h-384z" />
<glyph unicode="&#xf097;" d="M0 448l320 -256l-128 -320l320 192l320 -192l-128 352l320 224h-384l-128 352l-128 -352h-384zM256 384h192l64 192l64 -192h192l-160 -128l64 -192l-160 128l-160 -128l64 192z" />
<glyph unicode="&#xf098;" d="M0 243v64h193q5 55 24 104q18 47 48 88h-162l-70 280l62 16l58 -232h175q0 1 1 1v1h1q0 3 -1.5 8.5t-2.5 7.5l-3 15q-3 15 -3 32q0 79 56 135t136 56t136 -56t56 -135v-17q-1 -14 -6 -30l-4 -16h1q0 -1 1 -1v-1h175l58 232l62 -16l-70 -280h-162q29 -40 49 -88 q19 -51 23 -104h193v-64h-193q-5 -35 -12 -66q-7 -28 -22 -62h124l70 -280l-62 -16l-58 232h-112q-42 -57 -108 -93q-62 -34 -139 -34q-76 0 -138 34q-67 37 -109 93h-112l-58 -232l-62 16l70 280h124q-15 34 -22 62q-7 31 -12 66h-193z" />
<glyph unicode="&#xf099;" d="M0 3v634q0 57 37 94t94 37h253v-64h-255q-29 0 -47 -18t-18 -47v-638q0 -29 18 -47t47 -18h638q29 0 47 18t18 47v191h64v-189q0 -57 -37 -94t-94 -37h-634q-57 0 -94 37t-37 94zM512 576q0 96 80 176t176 80t176 -80t80 -176t-80 -176t-176 -80t-176 80t-80 176z" />
<glyph unicode="&#xf09a;" d="M0 -136q2 -1 3 -1l8 -1q8 -2 17 -2q10 -1 17 -3q92 -15 151 -15q47 0 73.5 23.5t26.5 53.5q0 22 -30 64q-30 38 -30 90q0 49 36 78t89 29q51 0 83.5 -28t32.5 -76q0 -46 -34 -84q-34 -36 -34 -78q0 -34 24.5 -51t64.5 -17q52 0 132 12q37 4 59 6q5 1 21 1v3q0 27 -10 71 q-10 52 -10 71q0 76 68 76q41 0 79 -34q36 -34 84 -34q47 0 75 32.5t28 83.5q0 53 -28.5 88.5t-77.5 35.5q-52 0 -91 -29q-37 -30 -64 -30q-30 0 -53 26.5t-23 73.5q0 58 15 151l2 13q0 4 0.5 7.5t1.5 7.5t1 6l2 11v1q-40 -2 -100 -11q-72 -9 -111 -9q-40 0 -64.5 17 t-24.5 51q0 41 34 79q34 36 34 83q0 48 -32.5 76t-83.5 28q-53 0 -89 -29t-36 -78q0 -52 30 -90q30 -42 30 -64q0 -30 -26.5 -53.5t-73.5 -23.5q-60 0 -151 15l-2 1q-2 0 -5 0.5t-6 1.5q-3 0 -21 3q-9 0 -11 2v-631z" />
<glyph unicode="&#xf09b;" horiz-adv-x="832" d="M26 69v15v34v35v19q0 4 1 6q0 6 7 2l6 -8q32 -53 127 -86q97 -34 217 -34t217 34q95 33 127 86q5 7 7 8q1 1 4 1q3 -1 3 -9v-19v-35v-34v-15q0 -75 -104 -137q-111 -65 -254 -65q-144 0 -253 65q-49 29 -77 65t-28 72zM26 314v18v40v41v21q0 4 1 5q0 5 7 2l5 -7 q31 -46 127 -76q93 -31 218 -31t218 31q96 30 127 76q4 6 6 7q1 1 4 1q3 -1 3 -8v-21v-41v-40v-18q0 -33 -27.5 -63.5t-76.5 -52.5q-108 -48 -254 -48q-147 0 -253 48q-105 47 -105 116zM26 569v65q0 56 105 95q104 39 253 39q148 0 254 -39q49 -18 76.5 -43t27.5 -52v-65 q0 -29 -27.5 -55.5t-76.5 -45.5q-109 -42 -254 -42t-253 42q-49 19 -77 45.5t-28 55.5z" />
<glyph unicode="&#xf09c;" d="M0 544l96 96h128v64q0 53 38 91q37 37 90 37h320q52 0 91 -37q37 -39 37 -91v-64h128l96 -96q0 -13 -9 -22q-10 -10 -23 -10h-96v-640q0 -27 -18 -45q-19 -19 -46 -19h-640q-28 0 -45 19q-19 17 -19 45v640h-96q-12 0 -22 10t-10 22zM192 -96q0 -12 10 -22t22 -10h576 q13 0 23 10q9 9 9 22v608h-640v-608zM320 -32v448q0 13 10 23q9 9 22 9q14 0 23 -9t9 -23v-448q0 -13 -9 -22q-10 -10 -23 -10q-12 0 -22 10t-10 22zM320 640h384v64q0 26 -18 46q-20 18 -46 18h-256q-27 0 -45 -18q-19 -19 -19 -46v-64zM480 -32v448q0 13 10 23q9 9 22 9 q14 0 23 -9t9 -23v-448q0 -13 -9 -22q-10 -10 -23 -10q-12 0 -22 10t-10 22zM640 -32v448q0 13 10 23q9 9 22 9q14 0 23 -9t9 -23v-448q0 -13 -9 -22q-10 -10 -23 -10q-12 0 -22 10t-10 22z" />
<glyph unicode="&#xf09d;" horiz-adv-x="960" d="M14 184q14 35 34.5 85.5t24.5 61.5q22 58 49 85q26 28 71 33.5t126 -5.5l45 58q42 56 119 123q200 174 383 148h4q4 -1 7 -4l4 -4l1 -1q0 -2 1 -2q2 -6 2 -8q15 -112 -33 -213q-45 -95 -107.5 -173t-124.5 -128l-56 -46q10 -81 5 -129q-6 -44 -33 -72.5t-82 -50.5 q-70 -28 -144 -61q-33 -13 -46 4t-2 44q10 25 25 69l11 31l4 12l-132 136q-4 -1 -12 -4q-14 -5 -30 -12q-6 -3 -18 -7.5t-18 -6.5q-26 -10 -32 -12q-29 -8 -43 3q-18 14 -3 46zM593 554q0 -34 22 -57q23 -23 56 -23t55 23q23 23 23 57t-23 57t-55 23q-31 0 -56 -23 q-22 -23 -22 -57z" />
<glyph unicode="&#xf100;" d="M0 297q0 -19 11 -39q81 -132 216 -211t285 -79q149 0 284 78.5t216 211.5q12 20 12 39t-12 39q-81 132 -216 211t-284 79q-150 0 -285 -79t-216 -211q-11 -20 -11 -39zM73 297q85 133 217 202q-34 -59 -34 -129q0 -106 75 -181t181 -75t181 75t75 181q0 68 -35 129 q132 -69 217 -202q-77 -119 -192 -187.5t-246 -68.5q-132 0 -247 68.5t-192 187.5zM338 370q0 72 51 123t123 51q11 0 19 -8t8 -20q0 -11 -8 -19t-19 -8q-50 0 -84.5 -34.5t-34.5 -84.5q0 -11 -8 -19t-20 -8q-11 0 -19 8t-8 19z" />
<glyph unicode="&#xf101;" d="M0 304q0 -21 11 -40q104 -163 270 -239q-25 -44 -25 -50q0 -10 9 -16q71 -40 77 -40q10 0 16 10l28 50l180 325q140 252 180 323q1 1 1 5t-0.5 6.5t-3 5t-4 3.5t-6.5 3.5t-6 3.5q-2 2 -8.5 5.5t-9.5 5.5q-23 13 -37 19q-2 1 -5 2q-2 1 -3 2h-2q-10 0 -16 -10l-31 -55 q-58 10 -103 10q-151 0 -281.5 -77t-219.5 -213q-11 -19 -11 -39zM73 304q89 136 218 201q-35 -57 -35 -128q0 -62 28 -116.5t78 -90.5l-45 -81q-149 68 -244 215zM338 377q0 71 51.5 122t122.5 51q11 0 19 -8t8 -19q0 -12 -8 -19q-7 -8 -19 -8q-49 0 -84 -35t-35 -84 q0 -12 -8 -20t-19 -8q-12 0 -20 8t-8 20zM512 -26q126 0 239 54t199 153q42 49 63 83q11 20 11 40q0 19 -11 39q-67 111 -187 193l-36 -64q95 -67 161 -168q-70 -110 -173.5 -177t-223.5 -77zM603 138q74 29 119.5 94.5t45.5 144.5q0 20 -5 48z" />
<glyph unicode="&#xf102;" d="M0 247q0 -18 11 -40q81 -132 216 -210.5t285 -78.5t285 78.5t216 210.5q11 22 11 40q0 19 -11 39q-25 41 -52 72l-10 -1v-147h-26q-76 -106 -182 -162.5t-231 -56.5q-131 0 -246.5 68.5t-192.5 187.5q87 135 218 202q-35 -58 -35 -129q0 -106 75 -181t181 -75 q153 0 231 146h-85v147h-146v82q-50 0 -84.5 -34.5t-34.5 -84.5q0 -11 -8 -19t-19 -8q-12 0 -20 8t-8 19q0 71 51.5 122.5t122.5 51.5v82q-150 0 -285 -79t-216 -211q-11 -20 -11 -39zM576 480v128h160v160h128v-160h160v-128h-160v-160h-128v160h-160z" />
<glyph unicode="&#xf103;" d="M0 246q0 -19 11 -39q81 -132 216.5 -211t284.5 -79q150 0 285 78.5t216 211.5q11 20 11 39q0 20 -11 40q-16 26 -25 37l-58 -47q5 -5 21 -30q-77 -119 -192.5 -187.5t-246.5 -68.5t-246.5 68.5t-192.5 187.5q87 135 218 202q-35 -57 -35 -129q0 -106 75 -181t181 -75 q105 0 176.5 73.5t71.5 180.5l-65 -64l-177 176l110 110l-27 28q-41 8 -89 8q-150 0 -285 -78.5t-216 -210.5q-11 -20 -11 -40zM338 319q0 72 51.5 123t122.5 51q11 0 19 -8t8 -19q0 -13 -8 -20q-8 -8 -19 -8q-50 0 -84.5 -35t-34.5 -84q0 -11 -8 -19t-19 -8q-12 0 -20 8 t-8 19zM614 433l113 113l-113 113l91 91l113 -113l113 113l91 -91l-113 -113l113 -113l-91 -91l-113 113l-113 -113z" />
<glyph unicode="&#xf104;" horiz-adv-x="960" d="M0 45q0 -20 12 -36t32 -21l348 -100q56 -16 112 0l348 100q20 5 32 21t12 36v628q0 38 -27.5 58.5t-64.5 10.5l-300 -86q-56 -16 -112 0l-300 86q-37 10 -64.5 -10.5t-27.5 -58.5v-628zM64 96v544l352 -96v-544zM128 192l224 -64v64l-224 64v-64zM128 320l224 -64v64 l-224 64v-64zM128 448l224 -64v64l-224 64v-64zM480 0v544l352 96v-544zM544 128l224 64v64l-224 -64v-64zM544 256l224 64v64l-224 -64v-64zM544 384l224 64v64l-224 -64v-64z" />
<glyph unicode="&#xf105;" d="M0 320l256 256h128l-256 -256l256 -256h-128zM416 -64l128 768h96l-128 -768h-96zM640 64l256 256l-256 256h128l256 -256l-256 -256h-128z" />
<glyph unicode="&#xf106;" d="M0 320l320 320l128 -128l-192 -192l192 -192l-128 -128zM576 128l192 192l-192 192l128 128l320 -320l-320 -320z" />
<glyph unicode="&#xf107;" horiz-adv-x="1024" d="M0 224v128h256v29q0 57 37 94t94 37h186q57 0 94 -37t37 -94v-29h256v-128h-256v-29q0 -57 -37 -94t-94 -37h-186q-57 0 -94 37t-37 94v29h-256zM352 225q0 -29 18 -47t47 -18h126q29 0 47 18t18 47v126q0 29 -18 47t-47 18h-126q-29 0 -47 -18t-18 -47v-126z" />
<glyph unicode="&#xf108;" horiz-adv-x="896" d="M0 -31v702q0 29 18 47t47 18h702q29 0 47 -18t18 -47v-702q0 -29 -18 -47t-47 -18h-702q-29 0 -47 18t-18 47zM64 33q0 -29 18 -47t47 -18h574q29 0 47 18t18 47v574q0 29 -18 47t-47 18h-574q-29 0 -47 -18t-18 -47v-574zM128 32v64h576v-64h-576zM128 160v64h576v-64 h-576zM128 288h320v320h-320v-320zM192 352v192h192v-192h-192zM512 288v64h192v-64h-192zM512 416v64h192v-64h-192zM512 544v64h192v-64h-192z" />
<glyph unicode="&#xf109;" d="M42 281q-1 44 33 80q30 32 79 32q46 0 80 -32q31 -31 33 -80q-2 -50 -33 -80q-35 -33 -80 -33q-48 0 -79 33q-34 34 -33 80zM399 281q2 48 34 80q34 32 80 32q47 0 79 -32q34 -36 33 -80q1 -46 -33 -80q-33 -33 -79 -33q-45 0 -80 33q-32 31 -34 80zM759 281q-1 45 32 80 q32 32 79 32t81 -32q31 -33 33 -80q-2 -49 -33 -80q-35 -33 -81 -33t-79 33t-32 80z" />
<glyph unicode="&#xf10a;" d="M0 0v704h256v-704h-256zM64 512h128v64h-128v-64zM320 0v704h256v-704h-256zM384 512h128v64h-128v-64zM576 576l192 -576l256 96l-192 576z" />
<glyph unicode="&#xf10b;" d="M32 299q-1 42 7 94q7 46 26 91q16 42 43 85t59 75q40 40 73 63q38 27 84 47q43 18 92 30q49 11 96 11q51 2 97 -7q53 -10 94 -27q49 -19 88 -44q46 -29 77 -62q40 -38 65 -74q29 -43 48 -88q19 -43 32 -94q11 -52 11 -100v-1v-1v-2v-1q0 -27 -18 -45q-19 -19 -46 -19h-1 h-1h-2q-7 -42 -10 -53q-7 -28 -16 -51q-17 -43 -40 -79q-25 -39 -56 -70q-26 -30 -67 -59q-40 -27 -79 -44t-86 -28q-46 -11 -90 -11q-40 -1 -90 7t-89 25q-42 16 -82 42q-36 22 -73 56q-37 37 -60 71q-28 42 -46 81q-19 44 -29 89q-11 49 -11 93zM96 299q-2 -41 6 -81 q6 -44 22 -80q13 -36 37 -73q23 -36 51 -66q33 -33 63 -54q32 -22 73 -42q35 -15 80 -25q51 -11 84 -11q38 -1 85 7q43 6 82 22q45 18 76 39q40 25 68 53q31 30 57 66q28 40 42 75h-1q6 9 11 25l9 25q4 9 7 25q1 7 5 26q-23 1 -41 21q-15 15 -17 43q1 0 1 1q-1 1 0 2v1 q-1 0 0 1h-1q1 19 0 38q-6 50 -13 75q-8 24 -11 35q-25 54 -35 69q-26 38 -48 60q-14 17 -57 51q-15 11 -67 38q-38 17 -74 25q-39 9 -79 9q-37 1 -78 -5q-50 -10 -76 -22q-33 -12 -71 -35q-19 -11 -63 -49q-28 -28 -52 -61q-21 -29 -40 -70q-16 -36 -25 -77 q-10 -45 -10 -81z" />
<glyph unicode="&#xf10c;" d="M56 293q0 -30 21 -51t51 -21t51 21t21 51t-21 51t-51 21t-51 -21t-21 -51zM144 565q0 -39 29 -68q28 -28 67 -28q40 0 68 28t28 68q0 39 -28 67q-29 29 -68 29q-38 0 -67 -29t-29 -67zM176 21q0 -26 20 -44q18 -20 44 -20t46 20q18 18 18 44t-18 46q-20 18 -46 18 t-44 -18q-20 -20 -20 -46zM384 677q0 -54 38 -90q36 -38 90 -38q53 0 91 38q37 37 37 90q0 52 -37 91q-39 37 -91 37q-53 0 -90 -37q-38 -38 -38 -91zM448 -91q0 -28 19 -45q17 -19 45 -19q27 0 46 19q18 18 18 45q0 26 -18 46q-20 18 -46 18q-27 0 -45 -18q-19 -19 -19 -46 zM656 565q0 -54 37 -91t91 -37q53 0 90 37q38 38 38 91q0 52 -38 90t-90 38q-53 0 -91 -38q-37 -37 -37 -90zM720 21q0 -27 19 -44q18 -20 45 -20q25 0 45 20q19 19 19 44t-19 46q-20 18 -45 18q-27 0 -45 -18q-19 -19 -19 -46zM832 293q0 -28 19 -45q17 -19 45 -19 q27 0 46 19q18 18 18 45q0 26 -18 46q-20 18 -46 18q-27 0 -45 -18q-19 -19 -19 -46z" />
<glyph unicode="&#xf10d;" d="M0 324q0 16 1 25q0 27 4 48q0 3 1.5 11t2.5 12l185 -60v-8q-2 -12 -2 -18v-10q0 -59 23 -118q23 -58 61 -98l-114 -157q-75 69 -118 167q-44 99 -44 206zM49 542q54 116 161 195q104 78 238 95v-194q-67 -13 -124 -56q-60 -43 -90 -100zM265 -125l114 158q37 -16 65 -21 q35 -8 68 -8q34 0 69 8q26 5 64 21l114 -158q-54 -29 -117 -46q-58 -17 -130 -17t-130 17q-63 17 -117 46zM576 638v194q133 -17 239 -95q106 -80 160 -195l-185 -60q-30 56 -89 100q-59 43 -125 56zM748 108q40 42 62 98q22 57 22 118v10q0 3 -0.5 9t-0.5 9q-1 3 -1 8 l185 60q1 -4 2.5 -12t1.5 -11l3 -24q2 -32 2 -49q0 -107 -44 -206q-43 -98 -118 -167z" />
<glyph unicode="&#xf10e;" d="M0 320q0 40 28 68t68 28t68 -28t28 -68q0 -187 122 -317q121 -131 294 -131q169 0 291 127q33 35 47 51.5t36.5 51t32 71.5t9.5 83q0 -24 -3.5 -46.5t-7 -38.5t-15.5 -39t-16.5 -33t-24 -36t-24.5 -32.5t-31 -38t-32 -38.5q-148 -146 -358 -146q-104 0 -198 39.5 t-164 110.5q-71 70 -110.5 164t-39.5 198zM0 331v1v1v1v1v1v1v1v1v1v1v1v1v1v1v2v1v1v2v1v1v2v1v2v1v2v1v2v2v1v2v1v2v2v2v8v-1v-1v-1v-1v-1v-1v-1v-1v-1v-1v-1v-2v-1v-1v-2v-2v-1v-2v-2v-1v-2v-2v-2v-2v-2v-2v-3v-2v-3v-7v-1zM0 384q0 24 3.5 46.5t7 38.5t15.5 39t16.5 33 t24 36t24.5 32.5t31 38t32 38.5q148 146 358 146q104 0 198 -39.5t165 -109.5q70 -71 109.5 -165t39.5 -198q0 -40 -28 -68t-68 -28t-68 28t-28 68q0 186 -121 317q-123 131 -295 131q-169 0 -290 -127q-33 -34 -47.5 -51.5t-37 -51.5t-32 -71t-9.5 -83zM1024 256v1v1v1v1v1 v1v1v1v1v1v1v2v1v1v2v2v1v2v2v1v2v2v2v2v2v2v3v2v3v7v1v-1v-1v-1v-1v-1v-1v-1v-1v-1v-1v-1v-1v-1v-1v-2v-1v-1v-2v-1v-1v-2v-1v-2v-1v-2v-1v-2v-2v-1v-2v-1v-2v-2v-2v-8z" />
<glyph unicode="&#xf10f;" d="M0 -128v896h1024v-896h-1024zM64 -64h256v192h-256v-192zM64 192h256v192h-256v-192zM64 448h256v192h-256v-192zM384 -64h256v192h-256v-192zM384 192h256v192h-256v-192zM384 448h256v192h-256v-192zM704 -64h256v192h-256v-192zM704 192h256v192h-256v-192zM704 448 h256v192h-256v-192z" />
<glyph unicode="&#xf111;" d="M0 264q26 -191 172.5 -316.5t339.5 -125.5q127 0 245 65t192.5 176.5t74.5 235.5t-64.5 237t-165.5 185t-212 90v-512q0 -16 -11.5 -24.5t-23.5 -9.5t-35 -1h-512zM0 369h442v442q-166 -26 -291 -151t-151 -291z" />
<glyph unicode="&#xf112;" d="M0 -189h1024v128h-896v896h-128v-1024zM192 99q0 -40 28 -68t68 -28t68 28t28 68q0 16 -4 28q-6 15 -12 24l104 172h2h2h2h2h2h2h2h2l104 -172q-6 -9 -12 -24q-4 -12 -4 -28q0 -40 28 -68t68 -28t68 28t28 68q0 17 -4 29q-6 15 -13 25l171 298h1h2h2h1q40 0 68 28t28 68 t-28 68t-68 28t-68 -28t-28 -68q0 -18 5 -29q4 -12 12 -25l-171 -298h-1h-2h-1h-2h-2h-2h-2h-2l-104 172q7 10 12 25q4 11 4 27q0 40 -28 68t-68 28t-68 -28t-28 -68q0 -16 4 -27q5 -15 12 -25l-104 -172h-2h-2h-2h-2q-40 0 -68 -28t-28 -68z" />
<glyph unicode="&#xf113;" d="M0 0v-128h1024v128h-1024zM128 64h128v256h-128v-256zM320 64h128v512h-128v-512zM512 64h128v704h-128v-704zM704 64h128v384h-128v-384z" />
<glyph unicode="&#xf114;" d="M0 -192h1024v128h-896v896h-128v-1024zM192 32l90 330q7 22 22 22h3q13 0 21 -10l120 -150l120 240q8 16 24 16h5q11 0 19 -8l120 -120l184 399q8 17 24 17t16 -33v-703h-768z" />
<glyph unicode="&#xf120;" horiz-adv-x="960" d="M23 277q0 -149 90 -310q91 -159 186 -159q31 0 81 21q51 20 87 20q38 0 93 -19q58 -20 86 -20q49 0 100 49t83.5 108.5t50.5 116.5q-56 17 -98 79t-42 136q0 64 27.5 108.5t83.5 91.5q-39 47 -84 74.5t-111 27.5q-44 0 -107 -21q-60 -21 -88 -21q-21 0 -85 18 q-63 19 -109 19q-106 0 -175 -89.5t-69 -229.5zM443 583q47 4 73.5 14t57.5 41q36 36 55.5 82t19.5 86v6q-1 2 -2 13q0 1 -1 4l-1 3q-197 -46 -202 -249z" />
<glyph unicode="&#xf121;" d="M0 -51l420 -58v401h-420v-343zM0 343h420v406l-420 -58v-348zM466 -115l558 -77v484h-558v-407zM466 343h558v489l-558 -77v-412z" />
<glyph unicode="&#xf122;" horiz-adv-x="960" d="M15 -115q6 -12 29 -19q10 -3 51 -10q6 -2 16 -3.5t13 -2.5q37 -7 84 -25q48 -17 63 -17q28 -1 56 23q27 25 75 25q48 3 66 3q58 0 74 -1q33 -1 40 -17q10 -20 26 -28q22 -9 51 -7.5t39 10.5q48 48 92 69q2 2 15 7q20 10 37 19q15 7 30 21q12 12 10 26q0 13 -24 27l-9 6 l-13 8q-16 11 -23 26q-13 26 -13 56q-7 -6 -9 -27q-1 -23 9 -43t28 -26q15 -5 29 -13q28 -19 4 -36q-13 -12 -44 -21q-40 -14 -57.5 -24t-53.5 -39q-23 -19 -48 -20q-27 -2 -42.5 19t-9.5 57q11 73 -1 112q-9 30 -4 55q5 24 16 28t24 -17q0 -3 5 -11q6 -13 14 -21 q10 -10 31 -10q38 -1 58 27q23 30 29 31q6 0 11 12q13 31 4 80q-9 52 -34.5 111t-56.5 92q-52 56 -74 121t-19 125q3 41 -16 85q-33 74 -104 93q-74 20 -120 -4q-44 -24 -60 -58t-14 -89q3 -112 9 -177q-7 -29 -71 -111q-10 -11 -22 -31q-16 -29 -34 -79t-28 -66 q-10 -18 -13 -26q-10 -25 -5 -52q3 -14 9 -8q26 20 64 -23q27 -28 97 -138l11 -21q18 -33 16 -63q-1 -16 -14 -28t-37 -16q-20 -2 -78 16q-37 11 -99 24q-45 9 -49 10q-19 5 -21 14.5t8 28.5q10 22 10 28q0 8 -1 12q-2 8 -7 20q-3 5 -5 11q-10 23 -4 31.5t26 6.5 q34 -3 55.5 13.5t10.5 55.5q0 -18 -7 -29q-17 -24 -59 -27q-24 -1 -32 -8q-11 -10 -4 -36q3 -12 6 -25q5 -21 -8 -53q-9 -27 -4 -39zM192 234l3 3q3 0 0 -11q-3 -17 -2 -32q3 -36 20 -53q13 -13 17 1q3 4 3 34q0 33 1 40q5 33 27.5 80.5t35.5 51.5q-19 30 6 69q25 45 25 64 v5q2 7 14 -12q24 -36 36 -42t26.5 0t40.5 25q22 18 38 25q1 2 6 3q1 0 3 2l2 1l6 2l8 6q2 2 2 5q-2 11 -14 5q-8 -3 -31 -16q-15 -9 -20 -10q-22 -12 -41 -12q-21 -1 -38 12q-9 9 -10 11q0 2 5 1q32 -3 45.5 -1t39.5 13q48 21 59 24q8 2 9 5q5 7 -2 12q-6 3 -11 -5 q-4 -6 -12 -10q-15 -8 -37 -13q-11 -4 -13 -4q-27 -9 -58 -9q-24 1 -31 12q-11 14 -23 21q-7 3 -4 11q1 11 20 22q12 7 15 14q5 6 18 16q1 2 1 13t-6 22.5t-15 11.5q-26 0 -24 -29q0 -10 5 -19t9 -9q3 1 4.5 -0.5t-0.5 -3.5q-9 -16 -18 0q-11 18 -9 42q1 19 9.5 34.5 t23.5 15.5q16 -1 25.5 -20t8.5 -51q3 -4 10 -3q24 5 35 -6q1 0 1 9q-11 73 50 76q11 -2 16 -4q17 -7 26 -26q7 -17 7 -50q0 -17 -7 -20q-12 -4 -17 0.5t1 14.5q6 16 -3 34t-29 17q-13 -1 -20 -15t-5 -30q1 -13 6 -15q3 0 21 -9q15 -8 25 -10q21 -4 25.5 -14t-2.5 -28 q-6 -18 -4 -31q4 -21 23 -42q18 -22 34 -91q1 0 2 -1q1 -2 3 -3l7 -8q11 -16 20 -40q17 -48 18 -101q0 -36 4 -47q5 -14 22 -11q23 0 29 24q18 67 -31 159q-20 37 -33 47q20 -11 41.5 -42.5t26.5 -59.5l4 -15l2 -14q0 -3 3 -12q1 -6 1 -12t1 -11q2 -10 0 -13q-1 -2 -1.5 -6 t-0.5 -6q0 -9 -3 -15q-2 -12 -4 -16q31 -13 31 -24q-14 10 -34 13q-24 3 -42.5 -7t-18.5 -30q-22 0 -29 -10q-21 -25 -9 -95q4 -31 3.5 -45.5t-7.5 -48.5l-8 -44q-23 1 -11 30q13 38 13 53q1 25 -5 30q-7 4 -20 -18q-25 -42 -101 -49q-68 -10 -95 20q-10 7 -19 -4q0 -1 2 -3 q2 -4 5 -7q2 -2 4 -6q1 -2 2 -3q23 -40 -4 -53q0 43 -20 72q-14 19 -16 25q16 1 26 13q8 11 7 24.5t-9 21.5q-1 1 -54 44q-50 41 -59 52q-1 0 -2.5 1.5t-5 4.5t-6.5 5q-12 10 -14 16q-26 56 -6 95zM220 313l2 5q7 9 9 15t2 7q1 2 4 2q2 -1 2 -2v-2q0 -4 -1 -5t-1 -4 q-1 -1 -1 -4q-3 -6 -7 -10q-9 -8 -9 -2zM353 631q0 4 5 4q4 -2 7 -9.5t1 -16.5q0 -2 -1 -2q-7 0 -5 12q1 8 -4 8q-2 2 -3 4zM371 585q0 -3 3 -3q2 0 5 6q2 4 9 6h-6q-11 -1 -11 -9zM421 592q6 2 10 -2q5 -5 6 -4q4 1 2 5q-4 7 -18 1zM486 634q-4 4 2 4q3 0 7 -1q9 -5 9 -19 l-1 -1q-5 -3 -5 -2q-1 15 -10 18zM497 735q-3 6 1 11q7 7 4 13q-3 11 7 11q4 0 14 -8l6 -4q2 -1 5 -4v-1q1 -1 1 -2q-3 -5 -14 -5h-5q-5 -2 -8 -5q-2 -2 -4 -3.5t-3 -2.5q-2 -2 -4 0zM569 524h1l2 1q0 -1 2 -3l3 -4l4 -4q6 -6 14 -8q8 -1 11 -9q1 -7 -2 -12t-8 -4 q-12 2 -23.5 18.5t-3.5 24.5z" />
<glyph unicode="&#xf123;" horiz-adv-x="960" d="M14 173q0 -26 18.5 -44.5t44.5 -18.5t44.5 18.5t18.5 44.5v265q0 26 -19 44.5t-44 18.5q-26 0 -44.5 -18.5t-18.5 -44.5v-265zM162 511h569q0 72 -39 132.5t-105 94.5l43 81q4 7 -3 11.5t-12 -2.5l-44 -82q-60 26 -124 26t-124 -26l-44 82q-5 7 -12 2.5t-3 -11.5l43 -81 q-67 -34 -106 -95t-39 -132zM164 79q0 -28 20 -48t48 -20h46v-140q0 -26 18.5 -44.5t44.5 -18.5t45 18.5t19 44.5v140h84v-140q0 -26 19 -44.5t45 -18.5t44.5 18.5t18.5 44.5v140h46q28 0 48 20t20 48v410h-566v-410zM294 638q0 10 6.5 17t16.5 7t17 -7t7 -17t-7 -17t-17 -7 t-17 7q-6 7 -6 17zM553 638q0 10 7 17t17 7t16.5 -7t6.5 -17t-6.5 -17t-16.5 -7t-17 7t-7 17zM754 173q0 -26 18.5 -44.5t44.5 -18.5t44.5 18.5t18.5 44.5v265q0 26 -18.5 44.5t-44.5 18.5t-44.5 -18.5t-18.5 -44.5v-265z" />
<glyph unicode="&#xf130;" horiz-adv-x="832" d="M0 67v506q0 57 37 94t94 37h506q57 0 94 -37t37 -94v-506q0 -57 -37 -94t-94 -37h-506q-57 0 -94 37t-37 94zM64 65q0 -29 18 -47t47 -18h510q29 0 47 18t18 47v510q0 29 -18 47t-47 18h-510q-29 0 -47 -18t-18 -47v-510zM192 288v64h160v160h64v-160h160v-64h-160v-160 h-64v160h-160z" />
<glyph unicode="&#xf131;" horiz-adv-x="832" d="M0 67v506q0 57 37 94t94 37h506q57 0 94 -37t37 -94v-506q0 -57 -37 -94t-94 -37h-506q-57 0 -94 37t-37 94zM64 65q0 -29 18 -47t47 -18h510q29 0 47 18t18 47v510q0 29 -18 47t-47 18h-510q-29 0 -47 -18t-18 -47v-510zM192 288v64h384v-64h-384z" />
<glyph unicode="&#xf200;" horiz-adv-x="832" d="M0 63v-126q0 -29 18 -47t47 -18h126q29 0 47 18t18 47v126q0 28 -18 46.5t-46 18.5v64h202q22 0 38 16l176 176h95q29 0 47 18t18 47v126q0 29 -18 47t-47 18h-126q-29 0 -47 -18t-18 -47v-95l-160 -160h-160v192q28 0 46 18.5t18 46.5v126q0 29 -18 47t-47 18h-126 q-29 0 -47 -18t-18 -47v-126q0 -28 18 -46.5t46 -18.5v-384q-28 0 -46 -18.5t-18 -46.5zM64 -31v62q0 14 9.5 23.5t23.5 9.5h62q14 0 23.5 -9.5t9.5 -23.5v-62q0 -14 -9.5 -23.5t-23.5 -9.5h-62q-14 0 -23.5 9.5t-9.5 23.5zM64 609v62q0 14 9.5 23.5t23.5 9.5h62 q14 0 23.5 -9.5t9.5 -23.5v-62q0 -14 -9.5 -23.5t-23.5 -9.5h-62q-14 0 -23.5 9.5t-9.5 23.5zM576 481v62q0 14 9.5 23.5t23.5 9.5h62q14 0 23.5 -9.5t9.5 -23.5v-62q0 -14 -9.5 -23.5t-23.5 -9.5h-62q-14 0 -23.5 9.5t-9.5 23.5z" />
<glyph unicode="&#xf201;" horiz-adv-x="832" d="M0 63v-126q0 -29 18 -47t47 -18h126q29 0 47 18t18 47v126q0 28 -18 46.5t-46 18.5v64h202q22 0 38 16l80 80v96h-96l-64 -64h-160v192q28 0 46 18.5t18 46.5v126q0 29 -18 47t-47 18h-126q-29 0 -47 -18t-18 -47v-126q0 -28 18 -46.5t46 -18.5v-384q-28 0 -46 -18.5 t-18 -46.5zM64 -31v62q0 14 9.5 23.5t23.5 9.5h62q14 0 23.5 -9.5t9.5 -23.5v-62q0 -14 -9.5 -23.5t-23.5 -9.5h-62q-14 0 -23.5 9.5t-9.5 23.5zM64 609v62q0 14 9.5 23.5t23.5 9.5h62q14 0 23.5 -9.5t9.5 -23.5v-62q0 -14 -9.5 -23.5t-23.5 -9.5h-62q-14 0 -23.5 9.5 t-9.5 23.5zM384 576v128h128v128h128v-128h128v-128h-128v-128h-128v128h-128z" />
<glyph unicode="&#xf202;" horiz-adv-x="832" d="M0 63v-126q0 -29 18 -47t47 -18h126q29 0 47 18t18 47v126q0 28 -18 46.5t-46 18.5v64h202q22 0 38 16l80 80l-96 96l-64 -64h-160v192q28 0 46 18.5t18 46.5v126q0 29 -18 47t-47 18h-126q-29 0 -47 -18t-18 -47v-126q0 -28 18 -46.5t46 -18.5v-384q-28 0 -46 -18.5 t-18 -46.5zM64 -31v62q0 14 9.5 23.5t23.5 9.5h62q14 0 23.5 -9.5t9.5 -23.5v-62q0 -14 -9.5 -23.5t-23.5 -9.5h-62q-14 0 -23.5 9.5t-9.5 23.5zM64 609v62q0 14 9.5 23.5t23.5 9.5h62q14 0 23.5 -9.5t9.5 -23.5v-62q0 -14 -9.5 -23.5t-23.5 -9.5h-62q-14 0 -23.5 9.5 t-9.5 23.5zM384 544l96 96l-96 96l96 96l96 -96l96 96l96 -96l-96 -96l96 -96l-96 -96l-96 96l-96 -96z" />
<glyph unicode="&#xf203;" horiz-adv-x="1024" d="M0 63v-126q0 -29 18 -47t47 -18h126q29 0 47 18t18 47v126q0 28 -18 46.5t-46 18.5v64h192l144 144l-80 80l-96 -96h-160v192q28 0 46 18.5t18 46.5v126q0 29 -18 47t-47 18h-126q-29 0 -47 -18t-18 -47v-126q0 -28 18 -46.5t46 -18.5v-384q-28 0 -46 -18.5t-18 -46.5z M64 -31v62q0 14 9.5 23.5t23.5 9.5h62q14 0 23.5 -9.5t9.5 -23.5v-62q0 -14 -9.5 -23.5t-23.5 -9.5h-62q-14 0 -23.5 9.5t-9.5 23.5zM64 609v62q0 14 9.5 23.5t23.5 9.5h62q14 0 23.5 -9.5t9.5 -23.5v-62q0 -14 -9.5 -23.5t-23.5 -9.5h-62q-14 0 -23.5 9.5t-9.5 23.5z M576 394q0 -13 9.5 -22.5t22.5 -9.5h320q13 0 22.5 9.5t9.5 22.5v192q0 14 -9 23t-23 9h-11v64q0 62 -44 106t-105 44t-105 -44t-44 -106v-64h-11q-14 0 -23 -9t-9 -23v-192zM683 618v64q0 35 25 60.5t60 25.5t60 -25.5t25 -60.5v-64h-170z" />
<glyph unicode="&#xf204;" horiz-adv-x="960" d="M0 63v-126q0 -29 18 -47t47 -18h126q29 0 47 18t18 47v126q0 28 -18 46.5t-46 18.5v64h202q22 0 38 16l48 48l-96 96l-32 -32h-160v192q28 0 46 18.5t18 46.5v126q0 29 -18 47t-47 18h-126q-29 0 -47 -18t-18 -47v-126q0 -28 18 -46.5t46 -18.5v-384q-28 0 -46 -18.5 t-18 -46.5zM64 -31v62q0 14 9.5 23.5t23.5 9.5h62q14 0 23.5 -9.5t9.5 -23.5v-62q0 -14 -9.5 -23.5t-23.5 -9.5h-62q-14 0 -23.5 9.5t-9.5 23.5zM64 609v62q0 14 9.5 23.5t23.5 9.5h62q14 0 23.5 -9.5t9.5 -23.5v-62q0 -14 -9.5 -23.5t-23.5 -9.5h-62q-14 0 -23.5 9.5 t-9.5 23.5zM382.5 495.5q-4.5 -17.5 4.5 -32.5l21 -37q9 -16 26.5 -20.5t32.5 4.5l89 52v-104q0 -17 13 -30t31 -13h43q17 0 30 13t13 30v104l89 -52q15 -9 32.5 -4.5t26.5 20.5l21 37q9 15 4.5 32.5t-19.5 26.5l-90 51l90 52q15 9 19.5 26.5t-4.5 32.5l-21 37 q-9 16 -26.5 20.5t-32.5 -4.5l-89 -52v104q0 17 -13 30t-30 13h-43q-18 0 -31 -13t-13 -30v-104l-89 52q-15 9 -32.5 4.5t-26.5 -20.5l-21 -37q-9 -15 -4.5 -32.5t20.5 -26.5l89 -52l-89 -51q-16 -9 -20.5 -26.5z" />
<glyph unicode="&#xf205;" horiz-adv-x="832" d="M0 63v-126q0 -29 18 -47t47 -18h126q29 0 47 18t18 47v126q0 28 -18 46.5t-46 18.5v144l116 -72q13 -8 27 -8h177q0 -28 18.5 -46t46.5 -18h126q29 0 47 18t18 47v126q0 29 -18 47t-47 18h-126q-28 0 -46.5 -18t-18.5 -46h-160l-160 96v96q28 0 46 18.5t18 46.5v126 q0 29 -18 47t-47 18h-126q-29 0 -47 -18t-18 -47v-126q0 -28 18 -46.5t46 -18.5v-384q-28 0 -46 -18.5t-18 -46.5zM64 -31v62q0 14 9.5 23.5t23.5 9.5h62q14 0 23.5 -9.5t9.5 -23.5v-62q0 -14 -9.5 -23.5t-23.5 -9.5h-62q-14 0 -23.5 9.5t-9.5 23.5zM64 609v62 q0 14 9.5 23.5t23.5 9.5h62q14 0 23.5 -9.5t9.5 -23.5v-62q0 -14 -9.5 -23.5t-23.5 -9.5h-62q-14 0 -23.5 9.5t-9.5 23.5zM576 225v62q0 14 9.5 23.5t23.5 9.5h62q14 0 23.5 -9.5t9.5 -23.5v-62q0 -14 -9.5 -23.5t-23.5 -9.5h-62q-14 0 -23.5 9.5t-9.5 23.5z" />
<glyph unicode="&#xf206;" horiz-adv-x="1024" d="M0 63v-126q0 -29 18 -47t47 -18h126q29 0 47 18t18 47v126q0 28 -18 46.5t-46 18.5v384q28 0 46 18.5t18 46.5v126q0 29 -18 47t-47 18h-126q-29 0 -47 -18t-18 -47v-126q0 -28 18 -46.5t46 -18.5v-384q-28 0 -46 -18.5t-18 -46.5zM64 -31v62q0 14 9.5 23.5t23.5 9.5h62 q14 0 23.5 -9.5t9.5 -23.5v-62q0 -14 -9.5 -23.5t-23.5 -9.5h-62q-14 0 -23.5 9.5t-9.5 23.5zM64 609v62q0 14 9.5 23.5t23.5 9.5h62q14 0 23.5 -9.5t9.5 -23.5v-62q0 -14 -9.5 -23.5t-23.5 -9.5h-62q-14 0 -23.5 9.5t-9.5 23.5zM320 640l256 -192v128h159q14 0 23.5 -9.5 t9.5 -23.5v-415q-28 0 -46 -18.5t-18 -46.5v-126q0 -29 18 -47t47 -18h126q29 0 47 18t18 47v126q0 28 -18 46.5t-46 18.5v511q0 29 -18 47t-47 18h-255v128zM768 -31v62q0 14 9.5 23.5t23.5 9.5h62q14 0 23.5 -9.5t9.5 -23.5v-62q0 -14 -9.5 -23.5t-23.5 -9.5h-62 q-14 0 -23.5 9.5t-9.5 23.5z" />
<glyph unicode="&#xf207;" horiz-adv-x="1024" d="M0 62v-126q0 -28 18 -46.5t47 -18.5h126q29 0 47 18.5t18 46.5v126q0 28 -18 46.5t-46 18.5v448h192v-128l256 192l-256 192v-128h-255q-29 0 -47 -18.5t-18 -46.5v-511q-28 0 -46 -18.5t-18 -46.5zM64 30q0 14 9.5 23.5t23.5 9.5h62q14 0 23.5 -9.5t9.5 -23.5v-62 q0 -14 -9.5 -23.5t-23.5 -9.5h-62q-14 0 -23.5 9.5t-9.5 23.5v62zM320 -1l256 -192v128h255q29 0 47 18.5t18 46.5v511q28 0 46 18.5t18 46.5v126q0 28 -18 46.5t-47 18.5h-126q-29 0 -47 -18.5t-18 -46.5v-126q0 -28 18 -46.5t46 -18.5v-448h-192v128zM768 608v62 q0 14 9.5 23.5t23.5 9.5h62q14 0 23.5 -9.5t9.5 -23.5v-62q0 -14 -9.5 -23.5t-23.5 -9.5h-62q-14 0 -23.5 9.5t-9.5 23.5z" />
<glyph unicode="&#xf208;" d="M0 577q0 -28 18 -46.5t46 -18.5v-511q0 -29 18 -47t47 -18h223v-128l256 192l-256 192v-128h-160v448q28 0 46 18.5t18 46.5v126q0 29 -18 47t-47 18h-126q-29 0 -47 -18t-18 -47v-126zM64 609v62q0 14 9.5 23.5t23.5 9.5h62q14 0 23.5 -9.5t9.5 -23.5v-62 q0 -14 -9.5 -23.5t-23.5 -9.5h-62q-14 0 -23.5 9.5t-9.5 23.5zM576 480l128 128l-128 128l96 96l128 -128l128 128l96 -96l-128 -128l128 -128l-96 -96l-128 128l-128 -128zM672 128v-256h256v256h-64v192l-64 64l-64 -64v-192h-64zM736 -64v128h128v-128h-128z" />
<glyph unicode="&#xf210;" horiz-adv-x="896" d="M0 -63v766q0 29 18 47t47 18h702q29 0 47 -18t18 -47v-766q0 -29 -18 -47t-47 -18h-702q-29 0 -47 18t-18 47zM64 1q0 -29 18 -47t47 -18h574q29 0 47 18t18 47v638q0 29 -18 47t-47 18h-63v-448l-128 128l-128 -128v448h-255q-29 0 -47 -18t-18 -47v-638zM128 0v64h448 v-64h-448zM128 128v64h64v-64h-64zM128 320v64h64v-64h-64zM128 448v64h64v-64h-64zM128 576v64h64v-64h-64z" />
<glyph unicode="&#xf211;" horiz-adv-x="1024" d="M0 -64v768q0 24 20 44t44 20h320v-64h-256q-24 0 -44 -20t-20 -44v-640q0 -24 20 -44t44 -20h576q24 0 44 20t20 44v192h64v-256q0 -24 -20 -44t-44 -20h-704q-24 0 -44 20t-20 44zM128 0v64h448v-64h-448zM128 128v64h64v-64h-64zM128 320v64h64v-64h-64zM128 448v64h64 v-64h-64zM128 576v64h64v-64h-64zM448 512v128h192v192h128v-192h192v-128h-192v-192h-128v192h-192z" />
<glyph unicode="&#xf212;" horiz-adv-x="1024" d="M0 -64v768q0 48 8 56t56 8h256l64 -64h-256q-48 0 -56 -8t-8 -56v-640q0 -48 8 -56t56 -8h576q48 0 56 8t8 56v288l64 -64v-288q0 -48 -8 -56t-56 -8h-704q-48 0 -56 8t-8 56zM128 0v64h448v-64h-448zM128 128v64h64v-64h-64zM128 320v64h64v-64h-64zM128 448v64h64v-64 h-64zM128 576v64h64v-64h-64zM512 480l128 128l-128 128l96 96l128 -128l128 128l96 -96l-128 -128l128 -128l-96 -96l-128 128l-128 -128z" />
<glyph unicode="&#xf213;" horiz-adv-x="896" d="M0 -63v766q0 29 18 47t47 18h702q29 0 47 -18t18 -47v-766q0 -29 -18 -47t-47 -18h-702q-29 0 -47 18t-18 47zM64 1q0 -29 18 -47t47 -18h574q29 0 47 18t18 47v638q0 29 -18 47t-47 18h-574q-29 0 -47 -18t-18 -47v-638zM128 0v64h448v-64h-448zM128 128v64h64v-64h-64z M128 320v64h64v-64h-64zM128 448v64h64v-64h-64zM128 576v64h64v-64h-64zM288 416v192h128v-128l64 -64l64 64v128h128v-192l-128 -128v-128h-128v128z" />
<glyph unicode="&#xf214;" horiz-adv-x="896" d="M0 -63v766q0 29 18 47t47 18h702q29 0 47 -18t18 -47v-766q0 -29 -18 -47t-47 -18h-702q-29 0 -47 18t-18 47zM64 1q0 -29 18 -47t47 -18h574q29 0 47 18t18 47v638q0 29 -18 47t-47 18h-574q-29 0 -47 -18t-18 -47v-638zM128 0v64h448v-64h-448zM128 128v64h64v-64h-64z M128 320v64h64v-64h-64zM128 448v64h64v-64h-64zM128 576v64h64v-64h-64zM288 192h384v208q0 16 -16 16h-16v64q0 72 -44 116t-116 44t-116 -44t-44 -116v-64h-16q-16 0 -16 -16v-208zM384 416v64q0 96 96 96q30 0 63 -26.5t33 -69.5v-64h-192z" />
<glyph unicode="&#xf215;" horiz-adv-x="896" d="M0 -63v766q0 29 18 47t47 18h702q29 0 47 -18t18 -47v-766q0 -29 -18 -47t-47 -18h-702q-29 0 -47 18t-18 47zM64 1q0 -29 18 -47t47 -18h574q29 0 47 18t18 47v638q0 29 -18 47t-47 18h-574q-29 0 -47 -18t-18 -47v-638zM128 0v64h448v-64h-448zM128 128v64h64v-64h-64z M128 320v64h64v-64h-64zM128 448v64h64v-64h-64zM128 576v64h64v-64h-64zM309 217q0 -11 8.5 -19.5t19.5 -8.5h280q11 0 19.5 8.5t8.5 19.5v168q0 11 -8.5 19.5t-19.5 8.5h-215v93q0 31 22 53t53 22t53 -22t22 -53q0 -8 5 -13t13 -5h19q8 0 13.5 5.5t5.5 12.5 q0 54 -38.5 92.5t-92.5 38.5t-92.5 -38.5t-38.5 -92.5v-93h-9q-11 0 -19.5 -8.5t-8.5 -19.5v-168z" />
<glyph unicode="&#xf216;" d="M0 -63q0 -29 18 -47t47 -18h702q29 0 47 18t18 47v63h-64v-64h-639q-29 0 -47 18t-18 47v638q0 29 18 47t47 18h639v-64h64v63q0 29 -18 47t-47 18h-702q-29 0 -47 -18t-18 -47v-766zM128 0v64h448v-64h-448zM128 128v64h64v-64h-64zM128 320v64h64v-64h-64zM128 448v64 h64v-64h-64zM128 576v64h64v-64h-64zM320 288v128h384v128l320 -192l-320 -192v128h-384z" />
<glyph unicode="&#xf217;" d="M0 -63q0 -29 18 -47t47 -18h702q29 0 47 18t18 47v63h-64v-64h-639q-29 0 -47 18t-18 47v638q0 29 18 47t47 18h639v-64h64v63q0 29 -18 47t-47 18h-702q-29 0 -47 -18t-18 -47v-766zM128 0v64h448v-64h-448zM128 128v64h64v-64h-64zM128 320v64h64v-64h-64zM128 448v64 h64v-64h-64zM128 576v64h64v-64h-64zM320 352l320 -192v128h384v128h-384v128z" />
<glyph unicode="&#xf218;" horiz-adv-x="896" d="M0 -63v766q0 29 18 47t47 18h702q29 0 47 -18t18 -47v-766q0 -29 -18 -47t-47 -18h-702q-29 0 -47 18t-18 47zM64 1q0 -29 18 -47t47 -18h574q29 0 47 18t18 47v638q0 29 -18 47t-47 18h-574q-29 0 -47 -18t-18 -47v-638zM128 0v64h448v-64h-448zM128 128v64h64v-64h-64z M128 320v64h64v-64h-64zM128 448v64h64v-64h-64zM128 576v64h64v-64h-64zM256 448h96v128h192v-64h-128v-64h96l-128 -160zM480 192v64h128v64h-96l128 160l128 -160h-96v-128h-192z" />
<glyph unicode="&#xf219;" d="M0 -63q0 -29 18 -47t47 -18h702q29 0 47 18t18 47v63h-64v-64h-639q-29 0 -47 18t-18 47v638q0 29 18 47t47 18h639v-64h64v63q0 29 -18 47t-47 18h-702q-29 0 -47 -18t-18 -47v-766zM128 0v64h448v-64h-448zM128 128v64h64v-64h-64zM128 320v64h64v-64h-64zM128 448v64 h64v-64h-64zM128 576v64h64v-64h-64zM320 352l256 -192v128l160 -128v128h288v128h-288v128l-160 -128v128z" />
<glyph unicode="&#xf21a;" horiz-adv-x="1024" d="M0 -63q0 -29 18 -47t47 -18h702q29 0 47 18t18 47v191h-64v-127q0 -29 -18 -47t-47 -18h-574q-29 0 -47 18t-18 47v638q0 29 18 47t47 18h255v64h-319q-29 0 -47 -18t-18 -47v-766zM128 0v64h448v-64h-448zM128 128v64h64v-64h-64zM128 320v64h64v-64h-64zM128 448v64h64 v-64h-64zM128 576v64h64v-64h-64zM256 256v384l192 -192zM512 289v446q0 14 9.5 23.5t23.5 9.5h382q14 0 23.5 -9.5t9.5 -23.5v-446q0 -14 -9.5 -23.5t-23.5 -9.5h-382q-14 0 -23.5 9.5t-9.5 23.5zM576 353q0 -14 9.5 -23.5t23.5 -9.5h254q14 0 23.5 9.5t9.5 23.5v318 q0 14 -9.5 23.5t-23.5 9.5h-31v-256l-64 64l-64 -64v256h-95q-14 0 -23.5 -9.5t-9.5 -23.5v-318z" />
<glyph unicode="&#xf220;" horiz-adv-x="960" d="M0 -192v1024h672l224 -256v-768h-896zM64 -128h768v640l-224 256h-544v-896zM192 192v128h192v192h128v-192h192v-128h-192v-192h-128v192h-192z" />
<glyph unicode="&#xf221;" horiz-adv-x="960" d="M0 -192v1024h672l224 -256v-768h-896zM64 -128h768v640l-224 256h-544v-896zM256 -64h192v256h-192v-256zM256 256h192v64h-64v192h-128v-64h64v-128h-64v-64zM320 0v128h64v-128h-64zM512 0v-64h192v64h-64v192h-128v-64h64v-128h-64zM512 256h192v256h-192v-256z M576 320v128h64v-128h-64z" />
<glyph unicode="&#xf222;" horiz-adv-x="960" d="M0 -192v1024h672l224 -256v-768h-896zM64 -128h768v640l-224 256h-544v-896zM192 0v64h512v-64h-512zM192 128v64h512v-64h-512zM192 256v64h512v-64h-512zM192 384v64h256v-64h-256z" />
<glyph unicode="&#xf223;" horiz-adv-x="960" d="M0 -192v1024h672l224 -256v-768h-896zM64 -128h768v640l-224 256h-544v-896zM126 0q6 18 16 55q14 49 59 118q115 173 308 173v138l257 -230l-257 -238v155l-221 -27q-101 -36 -162 -144z" />
<glyph unicode="&#xf224;" horiz-adv-x="960" d="M0 -192v1024h672l224 -256v-768h-896zM64 -128h768v640l-224 256h-544v-896zM128 192l192 192l64 -64l-128 -128l128 -128l-64 -64zM512 64l128 128l-128 128l64 64l192 -192l-192 -192z" />
<glyph unicode="&#xf225;" horiz-adv-x="960" d="M0 -192v1024h704l192 -256v-768h-896zM64 -128h768v640l-192 256h-576v-896zM106 21q0 5 1 8q7 27 33 53q23 23 72 55q7 3 9 5l24 13l5 2l18 9q1 1 5.5 9.5t7.5 13.5l13 25q21 38 29 55l3 5q8 14 15 30q2 3 7.5 14l8.5 17q7 14 28 63l6 16q-3 13 -16 66q-14 64 -14 108 q0 20 5 40q5 14 15 19q12 7 26 7h11q11 0 23 -8q8 -6 13 -19l2 -5q0 -2 1 -3l1 -2v-3v-4q3 -14 1 -43q-6 -53 -13 -102l-3 -20q-2 -2 -2 -6q0 -2 -2 -8q19 -48 39 -77q22 -36 52 -64q10 -10 24 -18q22 -14 26 -16q31 5 57 6q38 2 51 2q41 -2 57 -6q25 -7 33 -15l4 -4 q2 -4 3 -5q3 -4 3 -9q1 -5 1 -14t-1 -13q-1 -12 -8 -24l-4 -4q-1 -2 -5 -4l-6 -3l-6 -3q-1 0 -4 -0.5t-5 -0.5q-2 -1 -6 -1h-6q-34 0 -84 16q-50 15 -94 40q-58 -7 -122 -23q-61 -15 -123 -35q-48 -86 -88 -129q-38 -41 -70 -41q-4 0 -6 1q-4 0 -6 1q-4 0 -5 1t-3 1t-3 1 l-17 9q-5 2 -6 6q-5 5 -5 15zM148 18q15 7 40 33q24 27 59 81l-4 -4q-7 -6 -9 -8t-3 -2q-28 -23 -55 -56q-21 -26 -28 -44zM335 195q49 18 84 27q45 12 95 22l-3 3q-2 1 -7 6l-3 2q-24 21 -46 48q-24 29 -39 58q-1 -4 -5 -12t-5 -12q-16 -38 -25 -55l-17 -34q-4 -7 -7 -14 q-10 -18 -15 -26zM409 584q0 -21 3 -45q4 -32 8 -44q8 12 12 30q5 20 4 41q0 26 -6 46q-7 20 -16 20q-2 0 -3 -7q-2 -20 -2 -33v-8zM643 224q39 -17 56 -22q26 -8 42 -8q4 0 14 2q4 0 10 2l2 4q0 7 -8 12q-10 6 -30 9q-24 3 -25 3h-16h-10h-11q-16 -2 -24 -2z" />
<glyph unicode="&#xf226;" horiz-adv-x="960" d="M0 -192v1024h704l192 -256v-768h-896zM64 -128h768v640l-192 256h-576v-896zM77 127q65 56 161 66q87 9 173 -27q41 28 91 45q48 16 100 15q44 0 75 -5q36 -7 69 -28q-69 -2 -104 -6q-55 -8 -99 -29q-37 -17 -67 -41q-28 -23 -53 -59q-53 49 -125 69q-71 19 -143 11 l-20 -3q-19 -5 -39 -6q-3 0 -9.5 -0.5t-9.5 -1.5zM431 354q42 29 97 29q50 0 98 -23q50 24 98 24q55 0 95 -27q-55 5 -104 -7q-57 -16 -89 -53q-31 35 -90 51q-50 12 -105 6z" />
<glyph unicode="&#xf227;" horiz-adv-x="960" d="M0 -192v1024h704l192 -256v-768h-896zM64 -128h768v640l-192 256h-576v-896zM128 448h128l63 -318l65 318h128l64 -320l44 228h-44v92h192l-128 -512h-128l-64 320l-64 -320h-128z" />
<glyph unicode="&#xf228;" horiz-adv-x="960" d="M0 -192v1024h704l192 -256v-768h-896zM64 -128h768v640l-192 256h-576v-896zM192 -32l192 256l-192 256h160l96 -128l96 128h160l-192 -256l192 -256h-160l-96 160l-32 -64h32v-96h-256z" />
<glyph unicode="&#xf229;" horiz-adv-x="960" d="M0 -192v1024h704l192 -256v-768h-896zM64 -128h768v640l-192 256h-576v-896zM256 32v224h96v64h96v-288q0 -13 -9 -22q-10 -10 -23 -10h-128q-12 0 -22 10t-10 22zM256 320h96v64h-96v-64zM256 448h96v64h-96v-64zM256 576h96v64h-96v-64zM288 64h128v64h-128v-64z M352 384h96v64h-96v-64zM352 512h96v64h-96v-64zM352 640h96v64h-96v-64z" />
<glyph unicode="&#xf22a;" horiz-adv-x="960" d="M0 -192v1024h704l192 -256v-768h-896zM64 -128h768v640l-192 256h-576v-896zM128 0h192v64h-192v-64zM128 128h192v64h-192v-64zM128 256h192v64h-192v-64zM383 159q0 -66 47 -113t113 -47q59 0 102 37q43 35 55 91h-189v189q-56 -12 -91 -55q-37 -43 -37 -102zM575 191 h189l2 8q0 3 0.5 8.5t0.5 7.5v8q0 66 -47 113t-113 47h-8h-8l-16 -3v-189z" />
<glyph unicode="&#xf22b;" horiz-adv-x="960" d="M0 -192v1024h704l192 -256v-768h-896zM64 -128h768v640l-192 256h-576v-896zM192 163v58h32q13 0 23 8q9 8 9 20v86q0 48 38 81t90 33v-57q-15 0 -24 -4q-16 -8 -21 -13q-9 -6 -14 -18q-5 -10 -5 -22v-114q0 -13 -9 -21q-10 -8 -23 -8q13 0 23 -8q9 -8 9 -21v-114 q0 -12 5 -21q5 -12 14 -19q7 -7 21 -12q9 -5 24 -5v-57q-53 0 -90 34q-38 32 -38 80v86q0 13 -9 20q-10 8 -23 8h-32zM512 -8q15 0 25 5q14 6 20 12q9 6 15 19q4 9 4 21v114q0 13 10 21t22 8q-12 0 -22 8t-10 21v114q0 11 -4 22q-7 12 -15 18q-4 4 -20 13q-11 4 -25 4v57 q51 0 91 -33q37 -34 37 -81v-86q0 -12 10 -20t22 -8h32v-58h-32q-12 0 -22 -8t-10 -20v-86q0 -48 -37 -80q-39 -34 -91 -34v57z" />
<glyph unicode="&#xf240;" horiz-adv-x="960" d="M0 -192v896h576l192 -192v-704h-768zM64 -128h640v608l-160 160h-480v-768zM128 768v64h512l256 -256v-640h-64v608l-224 224h-480zM192 -64v128h384v-128h-384zM192 320v128h128v128h128v-128h128v-128h-128v-128h-128v128h-128z" />
<glyph unicode="&#xf241;" horiz-adv-x="960" d="M0 -64v768l2 16q3 18 19.5 33t42.5 15h768q34 0 50 -22q10 -15 14 -35v-7v-768l-2 -16q-3 -18 -19.5 -33t-42.5 -15h-768q-35 0 -50 23q-13 18 -13 34q-1 3 -1 7zM128 32q0 -13 8 -21.5t15 -9.5q3 -1 9 -1h576l8 1q9 1 16.5 9.5t7.5 21.5v576q0 13 -8 21.5t-15 9.5 q-3 1 -9 1h-576l-8 -1q-9 -1 -16.5 -9.5t-7.5 -21.5v-576zM256 256v128h128v128h128v-128h128v-128h-128v-128h-128v128h-128z" />
<glyph unicode="&#xf242;" horiz-adv-x="960" d="M0 -64v768l2 16q3 18 19.5 33t42.5 15h768q34 0 50 -22q10 -15 14 -35v-7v-768l-2 -16q-3 -18 -19.5 -33t-42.5 -15h-768q-35 0 -50 23q-13 18 -13 34q-1 3 -1 7zM128 32q0 -13 8 -21.5t15 -9.5q3 -1 9 -1h576l8 1q9 1 16.5 9.5t7.5 21.5v576q0 13 -8 21.5t-15 9.5 q-3 1 -9 1h-576l-8 -1q-9 -1 -16.5 -9.5t-7.5 -21.5v-576zM256 128v98l286 286h98v-98l-286 -286h-98z" />
<glyph unicode="&#xf243;" horiz-adv-x="960" d="M0 -64v768l2 16q3 18 19.5 33t42.5 15h768q34 0 50 -22q10 -15 14 -35v-7v-768l-2 -16q-3 -18 -19.5 -33t-42.5 -15h-768q-35 0 -50 23q-13 18 -13 34q-1 3 -1 7zM128 32q0 -13 8 -21.5t15 -9.5q3 -1 9 -1h576l8 1q9 1 16.5 9.5t7.5 21.5v576q0 13 -8 21.5t-15 9.5 q-3 1 -9 1h-576l-8 -1q-9 -1 -16.5 -9.5t-7.5 -21.5v-576zM320 320q0 53 37.5 90.5t90.5 37.5q54 0 91 -37t37 -91q0 -53 -37.5 -90.5t-90.5 -37.5t-90.5 37.5t-37.5 90.5z" />
<glyph unicode="&#xf244;" horiz-adv-x="960" d="M0 -64v768l2 16q3 18 19.5 33t42.5 15h768q34 0 50 -22q10 -15 14 -35v-7v-768l-2 -16q-3 -18 -19.5 -33t-42.5 -15h-768q-35 0 -50 23q-13 18 -13 34q-1 3 -1 7zM128 32q0 -13 8 -21.5t15 -9.5q3 -1 9 -1h576l8 1q9 1 16.5 9.5t7.5 21.5v576q0 13 -8 21.5t-15 9.5 q-3 1 -9 1h-576l-8 -1q-9 -1 -16.5 -9.5t-7.5 -21.5v-576zM256 256v128h384v-128h-384z" />
<glyph unicode="&#xf245;" horiz-adv-x="960" d="M0 -64v768l2 16q3 18 19.5 33t42.5 15h768q34 0 50 -22q10 -15 14 -35v-7v-768l-2 -16q-3 -18 -19.5 -33t-42.5 -15h-768q-35 0 -50 23q-13 18 -13 34q-1 3 -1 7zM128 32q0 -13 8 -21.5t15 -9.5q3 -1 9 -1h576l8 1q9 1 16.5 9.5t7.5 21.5v576q0 13 -8 21.5t-15 9.5 q-3 1 -9 1h-576l-8 -1q-9 -1 -16.5 -9.5t-7.5 -21.5v-576zM256 256v128h192v128l256 -192l-256 -192v128h-192z" />
<glyph unicode="&#xf250;" horiz-adv-x="960" d="M0 1v638q0 29 18 47t47 18h382q29 0 47 -18t18 -47q0 -28 18 -45.5t47 -17.5h319v-575q0 -29 -18 -47t-47 -18h-766q-29 0 -47 18t-18 47zM64 576h384v31q0 14 -9.5 23.5t-23.5 9.5h-318q-14 0 -23.5 -9.5t-9.5 -23.5v-31z" />
<glyph unicode="&#xf251;" horiz-adv-x="960" d="M0 1v638q0 29 18 47t47 18h382q28 0 46.5 -18t18.5 -46t18.5 -46t46.5 -18h254q29 0 47 -18t18 -47v-510q0 -29 -18 -47t-47 -18h-766q-29 0 -47 18t-18 47zM64 576h384v31q0 14 -9.5 23.5t-23.5 9.5h-318q-14 0 -23.5 -9.5t-9.5 -23.5v-31zM256 192h128v-128h128v128 h128v128h-128v128h-128v-128h-128v-128z" />
<glyph unicode="&#xf252;" horiz-adv-x="960" d="M0 1v638q0 29 18 47t47 18h382q28 0 46.5 -18t18.5 -46t18.5 -46t46.5 -18h254q29 0 47 -18t18 -47v-510q0 -29 -18 -47t-47 -18h-766q-29 0 -47 18t-18 47zM64 576h384v31q0 14 -9.5 23.5t-23.5 9.5h-318q-14 0 -23.5 -9.5t-9.5 -23.5v-31zM192 64q25 75 79 120 q48 40 96 56q44 13 70 16h11v-128l256 192l-256 192v-128l-14 -1q-30 -2 -86 -25q-58 -25 -105 -92q-51 -75 -51 -202z" />
<glyph unicode="&#xf253;" horiz-adv-x="960" d="M0 1v638q0 29 18 47t47 18h382q28 0 46.5 -18t18.5 -46t18.5 -46t46.5 -18h254q29 0 47 -18t18 -47v-222q0 -14 -9.5 -23.5t-23.5 -9.5h-62q-14 0 -23.5 9.5t-9.5 23.5v30q0 29 -18 47t-47 18h-254q-29 0 -47 -18t-18 -47v-383h-319q-29 0 -47 18t-18 47zM64 576h384v31 q0 14 -9.5 23.5t-23.5 9.5h-318q-14 0 -23.5 -9.5t-9.5 -23.5v-31zM448 -64v319q0 29 18 47t47 18h126q29 0 47 -18t18 -47v-30q0 -14 9.5 -23.5t23.5 -9.5h126q14 0 23.5 -9.5t9.5 -23.5v-190q0 -14 -9.5 -23.5t-23.5 -9.5h-415zM512 192h128v31q0 14 -9.5 23.5t-23.5 9.5 h-62q-14 0 -23.5 -9.5t-9.5 -23.5v-31z" />
<glyph unicode="&#xf260;" d="M0 320q0 125 74 244.5t193.5 193.5t244.5 74t244.5 -74t193.5 -193.5t74 -244.5t-74 -244.5t-193.5 -193.5t-244.5 -74t-244.5 74t-193.5 193.5t-74 244.5zM128 320q0 -94 55.5 -183.5t145 -145t183.5 -55.5t183.5 55.5t145 145t55.5 183.5t-55.5 183.5t-145 145 t-183.5 55.5t-183.5 -55.5t-145 -145t-55.5 -183.5zM448 64h128v128h-128v-128zM448 256h128v320h-128v-320z" />
<glyph unicode="&#xf261;" d="M0 320q0 125 74 244.5t193.5 193.5t244.5 74t244.5 -74t193.5 -193.5t74 -244.5t-74 -244.5t-193.5 -193.5t-244.5 -74t-244.5 74t-193.5 193.5t-74 244.5zM448 0h128v128h-128v-128zM448 256h128v384h-128v-384z" />
<glyph unicode="&#xf262;" d="M0 128v384l320 320h384l320 -320v-384l-320 -320h-384zM128 192l256 -256h256l256 256v256l-256 256h-256l-256 -256v-256zM448 64v128h128v-128h-128zM448 256v320h128v-320h-128z" />
<glyph unicode="&#xf263;" d="M0 128v384l320 320h384l320 -320v-384l-320 -320h-384zM448 64h128v128h-128v-128zM448 256h128v320h-128v-320z" />
<glyph unicode="&#xf265;" d="M16 231l407 -407q33 -33 66 0l511 510q24 25 24 59v392q0 47 -47 47h-392q-34 0 -59 -24l-510 -511q-33 -33 0 -66zM125 264l473 473h331v-331l-473 -473zM598 501q0 35 30 64.5t65 29.5t65 -29.5t30 -64.5q0 -36 -30 -65.5t-65 -29.5t-65 29.5t-30 65.5z" />
<glyph unicode="&#xf266;" d="M-0.5 271.5q-0.5 -30.5 22.5 -54.5l243 -256q25 -26 57.5 -26t57.5 25l-307 312l385 390q-26 25 -58 25t-57 -26l-320 -336q-23 -23 -23.5 -53.5zM193 244l335 -335q28 -28 55 0l421 420q20 21 20 49v322q0 39 -39 39h-323q-29 0 -48 -20l-421 -420q-26 -28 0 -55z M283 272l390 390h273v-273l-390 -390zM673 467q0 29 24.5 53.5t53.5 24.5t53.5 -24.5t24.5 -53.5t-24.5 -53.5t-53.5 -24.5t-53.5 24.5t-24.5 53.5z" />
<glyph unicode="&#xf267;" horiz-adv-x="1152" d="M16 231q-33 33 0 66l510 511q26 24 59 24h392q47 0 47 -47v-401h-96v352h-320l-480 -480l320 -320l32 32l9 -144q-7 -13 -28.5 -14t-37.5 14zM576 0h160v-160h128v160h160v128h-160v160h-128v-160h-160v-128zM598 501q0 -36 30 -65.5t65 -29.5t65 29.5t30 65.5 q0 35 -30 64.5t-65 29.5t-65 -29.5t-30 -64.5z" />
<glyph unicode="&#xf26a;" horiz-adv-x="1152" d="M16 231q-33 33 0 66l510 511q26 24 59 24h392q47 0 47 -47v-401l-96 32v320h-320l-480 -480l320 -320l41 -112q-7 -13 -28.5 -14t-37.5 14zM576 -96l96 -96l128 128l128 -128l96 96l-128 128l128 128l-96 96l-128 -128l-128 128l-96 -96l128 -128zM598 501 q0 -36 30 -65.5t65 -29.5t65 29.5t30 65.5q0 35 -30 64.5t-65 29.5t-65 -29.5t-30 -64.5z" />
<glyph unicode="&#xf270;" horiz-adv-x="1024" d="M0 192q0 -52 26 -81q38 -43 95 -47h71v-256l256 256h320q46 0 87 41.5t41 86.5v384q0 47 -40 87.5t-88 40.5h-640q-47 0 -87.5 -40t-40.5 -88v-384z" />
<glyph unicode="&#xf271;" horiz-adv-x="1024" d="M0 256q0 -45 41 -86.5t87 -41.5h320l256 -256v256h64q10 0 14 1q40 5 70 26q19 13 31.5 40.5t12.5 60.5v384q0 48 -40.5 88t-87.5 40h-640q-48 0 -88 -40.5t-40 -87.5v-384zM256 384v128h128v128h128v-128h128v-128h-128v-128h-128v128h-128z" />
<glyph unicode="&#xf272;" horiz-adv-x="1024" d="M0 128q0 -25 14.5 -42t33.5 -20l16 -2h64v-192l194 192h192q8 0 18 3q16 3 30 21t14 40v64h-192q-52 0 -81 26q-43 38 -47 95v199h-192q-25 0 -42 -14.5t-20 -33.5l-2 -16v-320zM320 320q0 -24 14 -41.5t32 -20.5l16 -2h192l194 -192v192h64q5 0 7 1q19 0 38 16.5 t19 46.5v320q0 25 -14.5 42t-33.5 20l-16 2h-448q-25 0 -42 -14.5t-20 -33.5l-2 -16v-320z" />
</font>
</defs>
</svg>
