<?xml version="1.0" standalone="no"?>
<!DOCTYPE svg PUBLIC "-//W3C//DTD SVG 1.1//EN" "http://www.w3.org/Graphics/SVG/1.1/DTD/svg11.dtd" >
<svg xmlns="http://www.w3.org/2000/svg">
<metadata></metadata>
<defs>
<font id="pui-iconsregular" horiz-adv-x="1664" >
<font-face units-per-em="1792" ascent="1536" descent="-256" />
<missing-glyph horiz-adv-x="576" />
<glyph horiz-adv-x="128" />
<glyph unicode="&#xd;" horiz-adv-x="725" />
<glyph unicode=" "  horiz-adv-x="576" />
<glyph unicode="&#x09;" horiz-adv-x="576" />
<glyph unicode="&#xa0;" horiz-adv-x="576" />
<glyph unicode="&#xa8;" horiz-adv-x="1920" />
<glyph unicode="&#xa9;" horiz-adv-x="1920" />
<glyph unicode="&#xae;" horiz-adv-x="1920" />
<glyph unicode="&#xb4;" horiz-adv-x="1920" />
<glyph unicode="&#xc6;" horiz-adv-x="1920" />
<glyph unicode="&#x2000;" horiz-adv-x="896" />
<glyph unicode="&#x2001;" />
<glyph unicode="&#x2002;" horiz-adv-x="896" />
<glyph unicode="&#x2003;" />
<glyph unicode="&#x2004;" horiz-adv-x="640" />
<glyph unicode="&#x2005;" horiz-adv-x="512" />
<glyph unicode="&#x2006;" horiz-adv-x="384" />
<glyph unicode="&#x2007;" horiz-adv-x="384" />
<glyph unicode="&#x2008;" horiz-adv-x="320" />
<glyph unicode="&#x2009;" horiz-adv-x="435" />
<glyph unicode="&#x200a;" horiz-adv-x="213" />
<glyph unicode="&#x202f;" horiz-adv-x="435" />
<glyph unicode="&#x205f;" horiz-adv-x="512" />
<glyph unicode="&#x2122;" horiz-adv-x="1920" />
<glyph unicode="&#x221e;" horiz-adv-x="1920" />
<glyph unicode="&#x2260;" horiz-adv-x="1920" />
<glyph unicode="&#x2322;" d="M0 640q0 -210 103 -385q103 -178 280 -280.5t385 -102.5q210 0 386 103q177 103 279.5 280t102.5 385q0 210 -103 386q-103 177 -280 279.5t-385 102.5q-210 0 -385 -103q-178 -103 -280.5 -280t-102.5 -385zM128 640q0 128 50.5 247t137.5 206t205.5 137t246.5 50 t247 -50t206 -137t137 -206t50 -247q0 -130 -51 -248q-51 -119 -136 -204q-87 -87 -206 -137.5t-247 -50.5q-127 0 -246 50.5t-206 137.5t-137.5 206t-50.5 246zM384 896q0 -53 37.5 -90.5t90.5 -37.5t90.5 37.5t37.5 90.5q0 54 -37 91t-91 37q-53 0 -90.5 -37.5 t-37.5 -90.5zM402 307q-8 -25 4 -48.5t38 -31.5q25 -8 48.5 4t31.5 38q25 80 92.5 129.5t151.5 49.5t151.5 -49.5t92.5 -129.5q8 -26 32 -38t49 -4t37 31.5t4 48.5q-37 121 -138 195t-228 74t-228 -74t-138 -195zM896 896q0 -53 37.5 -90.5t90.5 -37.5t90.5 37.5t37.5 90.5 q0 54 -37 91t-91 37q-53 0 -90.5 -37.5t-37.5 -90.5z" />
<glyph unicode="&#x2323;" d="M0 640q0 -210 103 -385q103 -178 280 -280.5t385 -102.5q210 0 386 103q177 103 279.5 280t102.5 385q0 210 -103 386q-103 177 -280 279.5t-385 102.5q-210 0 -385 -103q-178 -103 -280.5 -280t-102.5 -385zM128 640q0 128 50.5 247t137.5 206t205.5 137t246.5 50 t247 -50t206 -137t137 -206t50 -247q0 -130 -51 -248q-51 -119 -136 -204q-87 -87 -206 -137.5t-247 -50.5q-127 0 -246 50.5t-206 137.5t-137.5 206t-50.5 246zM384 896q0 -53 37.5 -90.5t90.5 -37.5t90.5 37.5t37.5 90.5q0 54 -37 91t-91 37q-53 0 -90.5 -37.5 t-37.5 -90.5zM402 461q37 -121 138 -195t228 -74t228 74t138 195q8 25 -4 48.5t-37 31.5t-49 -4t-32 -38q-25 -80 -92.5 -129.5t-151.5 -49.5t-151.5 49.5t-92.5 129.5q-8 26 -31.5 38t-48.5 4q-26 -8 -38 -31.5t-4 -48.5zM896 896q0 -53 37.5 -90.5t90.5 -37.5t90.5 37.5 t37.5 90.5q0 54 -37 91t-91 37q-53 0 -90.5 -37.5t-37.5 -90.5z" />
<glyph unicode="&#x2328;" horiz-adv-x="2048" d="M0 128q0 -53 37.5 -90.5t90.5 -37.5h1664q53 0 90.5 37.5t37.5 90.5v896q0 53 -37.5 90.5t-90.5 37.5h-1664q-53 0 -90.5 -37.5t-37.5 -90.5v-896zM128 128v896h1664v-896h-1664zM256 272q0 -16 16 -16h96q16 0 16 16v96q0 16 -16 16h-96q-16 0 -16 -16v-96zM256 528 q0 -16 16 -16h224q16 0 16 16v96q0 16 -16 16h-224q-16 0 -16 -16v-96zM256 784q0 -16 16 -16h96q16 0 16 16v96q0 16 -16 16h-96q-16 0 -16 -16v-96zM512 272q0 -16 16 -16h864q16 0 16 16v96q0 16 -16 16h-864q-16 0 -16 -16v-96zM512 784q0 -16 16 -16h96q16 0 16 16v96 q0 16 -16 16h-96q-16 0 -16 -16v-96zM640 528q0 -16 16 -16h96q16 0 16 16v96q0 16 -16 16h-96q-16 0 -16 -16v-96zM768 784q0 -16 16 -16h96q16 0 16 16v96q0 16 -16 16h-96q-16 0 -16 -16v-96zM896 528q0 -16 16 -16h96q16 0 16 16v96q0 16 -16 16h-96q-16 0 -16 -16v-96z M1024 784q0 -16 16 -16h96q16 0 16 16v96q0 16 -16 16h-96q-16 0 -16 -16v-96zM1152 528q0 -16 16 -16h96q16 0 16 16v96q0 16 -16 16h-96q-16 0 -16 -16v-96zM1280 784q0 -16 16 -16h96q16 0 16 16v96q0 16 -16 16h-96q-16 0 -16 -16v-96zM1408 528q0 -16 16 -16h224 q16 0 16 16v352q0 16 -16 16h-96q-16 0 -16 -16v-240h-112q-16 0 -16 -16v-96zM1536 272q0 -16 16 -16h96q16 0 16 16v96q0 16 -16 16h-96q-16 0 -16 -16v-96z" />
<glyph unicode="&#x2601;" horiz-adv-x="2048" d="M0 448q0 -185 131.5 -316.5t316.5 -131.5h1088q159 0 271.5 112.5t112.5 271.5q0 134 -83.5 239t-213.5 135q41 64 41 138q0 106 -75 181t-181 75q-95 0 -166 -62q-60 143 -188.5 230.5t-285.5 87.5q-212 0 -362 -150t-150 -362q0 -5 2 -43q-117 -54 -187.5 -164 t-70.5 -241z" />
<glyph unicode="&#x2602;" horiz-adv-x="1792" d="M0 681q0 -13 9.5 -22.5t22.5 -9.5q12 0 23 10q51 48 95.5 70t99.5 22q66 0 126.5 -36t104.5 -98q9 -13 18 -28q2 -4 5.5 -10t5 -9t4.5 -7t5.5 -6.5t5.5 -4.5t7 -3t9 -1t9 1t8 3.5t6 4t5.5 6.5t5 7.5t5 9t5.5 9.5q13 23 17 28q44 62 104 98t126 36t126 -36t104 -98 q9 -13 18 -28q2 -4 6 -11.5t6 -10t5.5 -7.5t7 -7t8 -3.5t10.5 -1.5t10.5 1.5t7.5 3.5t7 7t5.5 7.5t6 10.5t6.5 11q13 23 17 28q44 62 104.5 98t126.5 36q55 0 99.5 -22t95.5 -70q11 -10 23 -10q13 0 22.5 9.5t9.5 22.5q0 6 -1 7q-32 136 -114 250t-196 189 q-233 153 -521 153q-189 0 -360 -68q-175 -70 -301 -207.5t-170 -316.5q-1 -1 -1 -7zM384 128q0 -104 76 -180t180 -76t180 76t76 180v580q-35 11 -64 11t-64 -11v-580q0 -50 -39 -89t-89 -39t-89 39t-39 89q0 26 -19 45t-45 19t-45 -19t-19 -45zM768 1310q56 2 64 2t64 -2 v98q0 26 -19 45t-45 19t-45 -19t-19 -45v-98z" />
<glyph unicode="&#x2609;" horiz-adv-x="1920" d="M43.5 916.5q-4.5 -15.5 4.5 -28.5l180 -248l-180 -248q-9 -12 -4 -28t20 -21l292 -96v-306q0 -16 14 -26t28 -4l292 94l180 -248q10 -13 26 -13t26 13l180 248l292 -94q14 -6 28 4t14 26v306l292 96q15 4 20 20q5 17 -4 29l-180 248l180 248q9 13 4.5 28.5t-20.5 20.5 l-292 96v306q0 16 -14 26t-28 4l-292 -94l-180 248q-9 12 -26 12t-26 -12l-180 -248l-292 94q-14 6 -28 -4t-14 -26v-306l-292 -96q-16 -5 -20.5 -20.5zM320 640q0 115 45 222t124 186q78 78 185 123t222 45t222 -44.5t186 -123.5t123.5 -186t44.5 -222q0 -116 -45 -223 q-47 -108 -123 -184q-79 -79 -186 -124t-222 -45t-222 45t-185 124q-79 78 -124 185t-45 222z" />
<glyph unicode="&#x2693;" horiz-adv-x="1920" d="M0 0q0 -22 20 -30q10 -2 12 -2q14 0 23 9l93 93q120 -144 319.5 -227t428.5 -83t428.5 83t319.5 227l93 -93q10 -9 23 -9q2 0 12 2q20 8 20 30v352q0 14 -9 23t-23 9h-352q-22 0 -30 -19.5t7 -35.5l100 -100q-67 -91 -189 -153.5t-272 -82.5v647h192q26 0 45 19t19 45 v128q0 26 -19 45t-45 19h-192v163q59 34 93.5 93t34.5 128q0 106 -75 181t-181 75t-181 -75t-75 -181q0 -69 34.5 -128t93.5 -93v-163h-192q-26 0 -45 -19t-19 -45v-128q0 -26 19 -45t45 -19h192v-647q-150 20 -272 82.5t-189 153.5l100 100q15 16 7 35.5t-30 19.5h-352 q-14 0 -23 -9t-9 -23v-352zM832 1280q0 26 19 45t45 19t45 -19t19 -45t-19 -45t-45 -19t-45 19t-19 45z" />
<glyph unicode="&#x2709;" horiz-adv-x="1920" d="M0 32q0 -66 47 -113t113 -47h1472q66 0 113 47t47 113v1088q0 66 -47 113t-113 47h-1472q-66 0 -113 -47t-47 -113v-1088zM128 32v768q32 -36 69 -66q262 -200 426 -338q41 -35 83 -67q37 -28 91 -50.5t98 -22.5h2q49 0 103 25q35 15 63.5 33.5t44.5 31t61 50.5 q164 138 426 338q37 30 69 66v-768q0 -13 -9.5 -22.5t-22.5 -9.5h-1472q-13 0 -22.5 9.5t-9.5 22.5zM128 1120q0 13 9.5 22.5t22.5 9.5h1472q17 0 23 -10l6 -9q3 -5 3 -25v-14v-11q0 -57 -45 -129.5t-102 -117.5q-40 -31 -401 -317l-35 -29q-50 -42 -90 -69q-55 -37 -94 -37 h-2q-40 0 -93 37q-41 26 -91 69l-35 29q-361 286 -401 317q-147 116 -147 284z" />
<glyph unicode="&#x270f;" d="M0 -128h416l832 832l-416 416l-832 -832v-416zM128 128v107l91 91l235 -235l-91 -91h-107v128h-128zM298 384q0 10 7 17l542 542q7 7 17 7q22 0 22 -22q0 -10 -7 -17l-542 -542q-7 -7 -17 -7q-22 0 -22 22zM896 1184l416 -416l166 166q37 37 37 90t-37 91l-235 234 q-38 38 -91 38q-54 0 -90 -38z" />
<glyph unicode="&#xe000;" horiz-adv-x="628" d="M0 0z" />
<glyph unicode="&#xf000;" horiz-adv-x="1920" d="M93 1350q0 -35 43 -78l632 -632v-768h-320q-26 0 -45 -19t-19 -45t19 -45t45 -19h896q26 0 45 19t19 45t-19 45t-45 19h-320v768l632 632q43 43 43 78q0 24 -18 37q-28 21 -81 21h-1408q-26 0 -43 -4q-23 -4 -39.5 -18t-16.5 -36z" />
<glyph unicode="&#xf001;" d="M0 -64q0 -49 33 -88t87 -61q102 -43 200 -43t200 43q54 22 87 61t33 88v709l768 237v-537q-87 39 -192 39q-96 0 -200 -42q-54 -23 -87 -62t-33 -88t33 -88t87 -61q102 -43 200 -43t200 43q54 22 87 61t33 88v1120q0 40 -28 68t-68 28q-17 0 -28 -4l-832 -256 q-30 -10 -49 -35.5t-19 -56.5v-967q-87 39 -192 39q-96 0 -200 -42q-54 -23 -87 -62t-33 -88z" />
<glyph unicode="&#xf002;" horiz-adv-x="1792" d="M0 704q0 -141 55 -271.5t151 -226.5t226.5 -151t271.5 -55q221 0 399 124l343 -342q36 -38 90 -38q52 0 90 38t38 90q0 53 -37 90l-343 343q124 178 124 399q0 141 -54.5 272t-150.5 227t-227 150.5t-272 54.5t-271.5 -54.5t-226.5 -150.5t-151 -227t-55 -272zM256 704 q0 185 131.5 316.5t316.5 131.5t316.5 -131.5t131.5 -316.5t-131 -316q-132 -132 -317 -132t-316.5 131.5t-131.5 316.5z" />
<glyph unicode="&#xf004;" horiz-adv-x="1920" d="M0 940q0 -63 22.5 -134t54.5 -125q27 -45 64.5 -93t59.5 -70q18 -19 27 -26l624 -602q18 -18 44 -18t44 18l623 600q229 229 229 450q0 220 -127 344t-351 124q-124 0 -246 -79q-104 -69 -172 -137q-70 70 -171 137q-122 79 -247 79q-224 0 -351 -124t-127 -344z" />
<glyph unicode="&#xf005;" horiz-adv-x="1792" d="M0 889q0 -22 25 -48l364 -354l-86 -500q-2 -18 -2 -20q0 -22 11 -36t31 -14q17 0 40 12l449 236l449 -236q21 -12 40 -12q20 0 30.5 14t10.5 36q0 15 -1 20l-86 500l363 354q26 26 26 48q0 37 -56 46l-502 73l-225 455q-20 41 -49 41t-49 -41l-225 -455l-502 -73 q-56 -9 -56 -46z" />
<glyph unicode="&#xf006;" horiz-adv-x="1792" d="M0 889q0 -22 25 -48l364 -354l-86 -500q-2 -18 -2 -20q0 -22 11 -36t31 -14q17 0 40 12l449 236l449 -236q21 -12 40 -12q41 0 41 50q0 15 -1 20l-86 500l363 354q26 26 26 48q0 37 -56 46l-502 73l-225 455q-20 41 -49 41t-49 -41l-225 -455l-502 -73q-56 -9 -56 -46z M221 829l422 62l189 382l189 -382l422 -62l-306 -297l72 -421l-377 199l-378 -199l73 421z" />
<glyph unicode="&#xf007;" horiz-adv-x="1536" d="M0 131q0 -119 73 -189t194 -70h874q121 0 194 70t73 189q0 53 -3 104q-8 113 -41 217q-35 112 -105 179q-78 73 -197 73q-9 0 -42 -21q-27 -18 -74 -48q-45 -29 -112 -49.5t-130 -20.5q-68 0 -133 22q-25 8 -47 17t-44.5 21.5t-32 18t-33.5 22t-26 17.5q-33 21 -42 21 q-60 0 -111 -20q-92 -37 -148 -134q-47 -84 -69 -206q-18 -100 -18 -213zM320 1024q0 -159 112.5 -271.5t271.5 -112.5t271.5 112.5t112.5 271.5q0 160 -112 272t-272 112q-159 0 -271.5 -112.5t-112.5 -271.5z" />
<glyph unicode="&#xf008;" horiz-adv-x="2048" d="M0 -96q0 -66 47 -113t113 -47h1600q66 0 113 47t47 113v1344q0 66 -47 113t-113 47h-1600q-66 0 -113 -47t-47 -113v-1344zM128 -64v128q0 26 19 45t45 19h128q26 0 45 -19t19 -45v-128q0 -26 -19 -45t-45 -19h-128q-26 0 -45 19t-19 45zM128 320v128q0 26 19 45t45 19 h128q26 0 45 -19t19 -45v-128q0 -26 -19 -45t-45 -19h-128q-26 0 -45 19t-19 45zM128 704v128q0 26 19 45t45 19h128q26 0 45 -19t19 -45v-128q0 -26 -19 -45t-45 -19h-128q-26 0 -45 19t-19 45zM128 1088v128q0 26 19 45t45 19h128q26 0 45 -19t19 -45v-128q0 -26 -19 -45 t-45 -19h-128q-26 0 -45 19t-19 45zM512 -64v512q0 26 19 45t45 19h768q26 0 45 -19t19 -45v-512q0 -26 -19 -45t-45 -19h-768q-26 0 -45 19t-19 45zM512 704v512q0 26 19 45t45 19h768q26 0 45 -19t19 -45v-512q0 -26 -19 -45t-45 -19h-768q-26 0 -45 19t-19 45zM1536 -64 v128q0 26 19 45t45 19h128q26 0 45 -19t19 -45v-128q0 -26 -19 -45t-45 -19h-128q-26 0 -45 19t-19 45zM1536 320v128q0 26 19 45t45 19h128q26 0 45 -19t19 -45v-128q0 -26 -19 -45t-45 -19h-128q-26 0 -45 19t-19 45zM1536 704v128q0 26 19 45t45 19h128q26 0 45 -19 t19 -45v-128q0 -26 -19 -45t-45 -19h-128q-26 0 -45 19t-19 45zM1536 1088v128q0 26 19 45t45 19h128q26 0 45 -19t19 -45v-128q0 -26 -19 -45t-45 -19h-128q-26 0 -45 19t-19 45z" />
<glyph unicode="&#xf009;" horiz-adv-x="1792" d="M0 128q0 -52 38 -90t90 -38h512q52 0 90 38t38 90v384q0 52 -38 90t-90 38h-512q-52 0 -90 -38t-38 -90v-384zM0 896q0 -52 38 -90t90 -38h512q52 0 90 38t38 90v384q0 52 -38 90t-90 38h-512q-52 0 -90 -38t-38 -90v-384zM896 128q0 -52 38 -90t90 -38h512q52 0 90 38 t38 90v384q0 52 -38 90t-90 38h-512q-52 0 -90 -38t-38 -90v-384zM896 896q0 -52 38 -90t90 -38h512q52 0 90 38t38 90v384q0 52 -38 90t-90 38h-512q-52 0 -90 -38t-38 -90v-384z" />
<glyph unicode="&#xf00a;" horiz-adv-x="1920" d="M0 96q0 -40 28 -68t68 -28h320q40 0 68 28t28 68v192q0 40 -28 68t-68 28h-320q-40 0 -68 -28t-28 -68v-192zM0 608q0 -40 28 -68t68 -28h320q40 0 68 28t28 68v192q0 40 -28 68t-68 28h-320q-40 0 -68 -28t-28 -68v-192zM0 1120q0 -40 28 -68t68 -28h320q40 0 68 28 t28 68v192q0 40 -28 68t-68 28h-320q-40 0 -68 -28t-28 -68v-192zM640 96q0 -40 28 -68t68 -28h320q40 0 68 28t28 68v192q0 40 -28 68t-68 28h-320q-40 0 -68 -28t-28 -68v-192zM640 608q0 -40 28 -68t68 -28h320q40 0 68 28t28 68v192q0 40 -28 68t-68 28h-320 q-40 0 -68 -28t-28 -68v-192zM640 1120q0 -40 28 -68t68 -28h320q40 0 68 28t28 68v192q0 40 -28 68t-68 28h-320q-40 0 -68 -28t-28 -68v-192zM1280 96q0 -40 28 -68t68 -28h320q40 0 68 28t28 68v192q0 40 -28 68t-68 28h-320q-40 0 -68 -28t-28 -68v-192zM1280 608 q0 -40 28 -68t68 -28h320q40 0 68 28t28 68v192q0 40 -28 68t-68 28h-320q-40 0 -68 -28t-28 -68v-192zM1280 1120q0 -40 28 -68t68 -28h320q40 0 68 28t28 68v192q0 40 -28 68t-68 28h-320q-40 0 -68 -28t-28 -68v-192z" />
<glyph unicode="&#xf00b;" horiz-adv-x="1920" d="M0 96q0 -40 28 -68t68 -28h320q40 0 68 28t28 68v192q0 40 -28 68t-68 28h-320q-40 0 -68 -28t-28 -68v-192zM0 608q0 -40 28 -68t68 -28h320q40 0 68 28t28 68v192q0 40 -28 68t-68 28h-320q-40 0 -68 -28t-28 -68v-192zM0 1120q0 -40 28 -68t68 -28h320q40 0 68 28 t28 68v192q0 40 -28 68t-68 28h-320q-40 0 -68 -28t-28 -68v-192zM640 96q0 -40 28 -68t68 -28h960q40 0 68 28t28 68v192q0 40 -28 68t-68 28h-960q-40 0 -68 -28t-28 -68v-192zM640 608q0 -40 28 -68t68 -28h960q40 0 68 28t28 68v192q0 40 -28 68t-68 28h-960 q-40 0 -68 -28t-28 -68v-192zM640 1120q0 -40 28 -68t68 -28h960q40 0 68 28t28 68v192q0 40 -28 68t-68 28h-960q-40 0 -68 -28t-28 -68v-192z" />
<glyph unicode="&#xf00c;" horiz-adv-x="1920" d="M121 608q0 -40 28 -68l498 -498q28 -28 68 -28t68 28l860 860q28 28 28 68t-28 68l-136 136q-28 28 -68 28t-68 -28l-656 -657l-294 295q-28 28 -68 28t-68 -28l-136 -136q-28 -28 -28 -68z" />
<glyph unicode="&#xf00d;" horiz-adv-x="1536" d="M110 214q0 -40 28 -68l136 -136q28 -28 68 -28t68 28l294 294l294 -294q28 -28 68 -28t68 28l136 136q28 28 28 68t-28 68l-294 294l294 294q28 28 28 68t-28 68l-136 136q-28 28 -68 28t-68 -28l-294 -294l-294 294q-28 28 -68 28t-68 -28l-136 -136q-28 -28 -28 -68 t28 -68l294 -294l-294 -294q-28 -28 -28 -68z" />
<glyph unicode="&#xf00e;" horiz-adv-x="1792" d="M0 704q0 -141 55 -271.5t151 -226.5t226.5 -151t271.5 -55q221 0 399 124l343 -342q36 -38 90 -38q53 0 90.5 37.5t37.5 90.5t-37 90l-343 343q124 178 124 399q0 141 -54.5 272t-150.5 227t-227 150.5t-272 54.5t-271.5 -54.5t-226.5 -150.5t-151 -227t-55 -272z M256 704q0 185 131.5 316.5t316.5 131.5t316.5 -131.5t131.5 -316.5t-131 -316q-132 -132 -317 -132t-316.5 131.5t-131.5 316.5zM384 672q0 -13 9.5 -22.5t22.5 -9.5h224v-224q0 -13 9.5 -22.5t22.5 -9.5h64q13 0 22.5 9.5t9.5 22.5v224h224q13 0 22.5 9.5t9.5 22.5v64 q0 13 -9.5 22.5t-22.5 9.5h-224v224q0 13 -9.5 22.5t-22.5 9.5h-64q-13 0 -22.5 -9.5t-9.5 -22.5v-224h-224q-13 0 -22.5 -9.5t-9.5 -22.5v-64z" />
<glyph unicode="&#xf010;" horiz-adv-x="1792" d="M0 704q0 -141 55 -271.5t151 -226.5t226.5 -151t271.5 -55q221 0 399 124l343 -342q36 -38 90 -38q53 0 90.5 37.5t37.5 90.5t-37 90l-343 343q124 178 124 399q0 141 -54.5 272t-150.5 227t-227 150.5t-272 54.5t-271.5 -54.5t-226.5 -150.5t-151 -227t-55 -272z M256 704q0 185 131.5 316.5t316.5 131.5t316.5 -131.5t131.5 -316.5t-131 -316q-132 -132 -317 -132t-316.5 131.5t-131.5 316.5zM384 672q0 -13 9.5 -22.5t22.5 -9.5h576q13 0 22.5 9.5t9.5 22.5v64q0 13 -9.5 22.5t-22.5 9.5h-576q-13 0 -22.5 -9.5t-9.5 -22.5v-64z" />
<glyph unicode="&#xf011;" d="M0 640q0 -153 60 -295.5t165 -247.5t247.5 -165t295.5 -60t295.5 60t247.5 165t165 247.5t60 295.5q0 182 -80.5 343t-226.5 270q-42 32 -95 25t-84 -50q-32 -42 -24.5 -94.5t49.5 -84.5q98 -74 151.5 -181t53.5 -228q0 -103 -40 -197.5t-110 -164.5t-164.5 -110 t-197.5 -40t-197.5 40t-164.5 110t-110 164.5t-40 197.5q0 121 53.5 228t151.5 181q42 32 49.5 84.5t-24.5 94.5q-31 43 -83.5 50t-95.5 -25q-146 -109 -226.5 -270t-80.5 -343zM640 768q0 -52 38 -90t90 -38t90 38t38 90v640q0 52 -38 90t-90 38t-90 -38t-38 -90v-640z" />
<glyph unicode="&#xf012;" horiz-adv-x="1920" d="M0 96v-192q0 -14 9 -23t23 -9h192q14 0 23 9t9 23v192q0 14 -9 23t-23 9h-192q-14 0 -23 -9t-9 -23zM384 -96q0 -14 9 -23t23 -9h192q14 0 23 9t9 23v320q0 14 -9 23t-23 9h-192q-14 0 -23 -9t-9 -23v-320zM768 -96q0 -14 9 -23t23 -9h192q14 0 23 9t9 23v576q0 14 -9 23 t-23 9h-192q-14 0 -23 -9t-9 -23v-576zM1152 -96q0 -14 9 -23t23 -9h192q14 0 23 9t9 23v960q0 14 -9 23t-23 9h-192q-14 0 -23 -9t-9 -23v-960zM1536 -96q0 -14 9 -23t23 -9h192q14 0 23 9t9 23v1472q0 14 -9 23t-23 9h-192q-14 0 -23 -9t-9 -23v-1472z" />
<glyph unicode="&#xf013;" d="M0 531q0 -13 8 -23.5t21 -12.5l183 -27q13 -48 41 -99q-15 -21 -54 -70q-41 -52 -51 -67q-8 -11 -8 -23q0 -13 7 -23q39 -54 165 -168q11 -11 25 -11q15 0 25 9l141 107q38 -20 90 -37l28 -184q1 -13 11.5 -21.5t24.5 -8.5h222q29 0 36 28q12 43 29 186q47 15 91 38 l138 -108q13 -9 26 -9q20 0 91 68t102 111q9 10 9 23q0 14 -10 25q-75 93 -107 138q20 39 39 91l185 28q12 2 20 13t8 23v222q0 13 -8 23.5t-21 12.5l-183 28q-15 47 -41 98q10 14 54 71q36 45 51 66q8 11 8 23q0 15 -7 22q-37 52 -165 170q-11 10 -25 10q-15 0 -24 -9 l-142 -107q-38 20 -90 37l-28 184q-1 13 -11.5 21.5t-24.5 8.5h-222q-29 0 -36 -28q-12 -43 -29 -186q-47 -15 -91 -38l-138 107q-13 10 -26 10q-20 0 -91.5 -68.5t-101.5 -110.5q-9 -14 -9 -23q0 -13 10 -24q61 -73 107 -138q-26 -48 -39 -92l-186 -28q-11 -2 -19 -13 t-8 -23v-222zM512 640q0 106 75 181t181 75t181 -75t75 -181t-75 -181t-181 -75t-181 75t-75 181z" />
<glyph unicode="&#xf014;" horiz-adv-x="1536" d="M0 1056q0 -14 9 -23t23 -9h96v-952q0 -83 47 -141.5t113 -58.5h832q66 0 113 60.5t47 143.5v948h96q14 0 23 9t9 23v64q0 14 -9 23t-23 9h-309l-70 167q-15 37 -54 63t-79 26h-320q-40 0 -79 -26t-54 -63l-70 -167h-309q-14 0 -23 -9t-9 -23v-64zM256 76v948h896v-948 q0 -44 -21 -67q-7 -9 -11 -9h-832q-2 0 -10 9q-22 24 -22 67zM384 224q0 -14 9 -23t23 -9h64q14 0 23 9t9 23v576q0 14 -9 23t-23 9h-64q-14 0 -23 -9t-9 -23v-576zM480 1152l49 117q8 10 17 11h317q9 -1 17 -11l48 -117h-448zM640 224q0 -14 9 -23t23 -9h64q14 0 23 9t9 23 v576q0 14 -9 23t-23 9h-64q-14 0 -23 -9t-9 -23v-576zM896 224q0 -14 9 -23t23 -9h64q14 0 23 9t9 23v576q0 14 -9 23t-23 9h-64q-14 0 -23 -9t-9 -23v-576z" />
<glyph unicode="&#xf015;" horiz-adv-x="1792" d="M26 636.5q-1 -13.5 7 -23.5l62 -74q20 -21 45 -4l692 577l692 -577q7 -7 21 -7h3q13 1 21 11l62 74q8 10 7 23.5t-11 21.5l-219 182v408q0 14 -9 23t-23 9h-192q-14 0 -23 -9t-9 -23v-195l-244 204q-32 26 -76 26t-76 -26l-719 -599q-10 -8 -11 -21.5zM256 64 q0 -26 19 -45t45 -19h384v384h256v-384h384q26 0 45 19t19 45v480q0 5 -1 6l-575 474l-575 -474v-3q-1 -1 -1 -3v-480z" />
<glyph unicode="&#xf016;" horiz-adv-x="1408" d="M0 -32q0 -40 28 -68t68 -28h1088q40 0 68 28t28 68v896q0 40 -20 88t-48 76l-312 312q-28 28 -76 48t-88 20h-640q-40 0 -68 -28t-28 -68v-1344zM128 0v1280h512v-416q0 -40 28 -68t68 -28h416v-768h-1024zM768 896v376q30 -11 41 -22l313 -313q11 -11 22 -41h-376z" />
<glyph unicode="&#xf017;" d="M0 640q0 -210 103 -385q103 -178 280 -280.5t385 -102.5q210 0 386 103q177 103 279.5 280t102.5 385q0 210 -103 386q-103 177 -280 279.5t-385 102.5q-210 0 -385 -103q-178 -103 -280.5 -280t-102.5 -385zM224 640q0 149 73 273q73 126 198.5 198.5t272.5 72.5 q149 0 273 -73q126 -73 198.5 -198.5t72.5 -272.5q0 -149 -73 -273q-73 -126 -198.5 -198.5t-272.5 -72.5q-149 0 -273 73q-126 73 -198.5 198.5t-72.5 272.5zM512 544q0 -14 9 -23t23 -9h320q14 0 23 9t9 23v448q0 14 -9 23t-23 9h-64q-14 0 -23 -9t-9 -23v-352h-224 q-14 0 -23 -9t-9 -23v-64z" />
<glyph unicode="&#xf018;" horiz-adv-x="2048" d="M50 73q0 -73 46 -73h704q-13 0 -22 9.5t-8 22.5l20 256q1 13 11 22.5t23 9.5h272q13 0 23 -9.5t11 -22.5l20 -256q1 -13 -8 -22.5t-22 -9.5h704q46 0 46 73q0 53 -26 116l-417 1044q-9 20 -26.5 33.5t-37.5 13.5h-339q13 0 23 -9.5t11 -22.5l15 -192q1 -14 -8 -23t-22 -9 h-166q-13 0 -22 9t-8 23l15 192q1 13 11 22.5t23 9.5h-339q-20 0 -37.5 -13.5t-26.5 -33.5l-417 -1044q-26 -63 -26 -116zM809 540v4l24 320q1 13 11 22.5t23 9.5h186q13 0 23 -9.5t11 -22.5l24 -320v-4q1 -12 -8 -20t-21 -8h-244q-12 0 -21 8t-8 20z" />
<glyph unicode="&#xf019;" horiz-adv-x="1792" d="M0 96q0 -40 28 -68t68 -28h1472q40 0 68 28t28 68v320q0 40 -28 68t-68 28h-464l-136 -136q-59 -56 -136 -56t-136 56l-135 136h-465q-40 0 -68 -28t-28 -68v-320zM325 984q-17 -40 14 -69l448 -448q18 -19 45 -19t45 19l448 448q31 28 14 70q-17 39 -59 39h-256v448 q0 26 -19 45t-45 19h-256q-26 0 -45 -19t-19 -45v-448h-256q-42 0 -59 -40zM1152 192q0 26 19 45t45 19t45 -19t19 -45t-19 -45t-45 -19t-45 19t-19 45zM1408 192q0 26 19 45t45 19t45 -19t19 -45t-19 -45t-45 -19t-45 19t-19 45z" />
<glyph unicode="&#xf01a;" d="M0 640q0 -210 103 -385q103 -178 280 -280.5t385 -102.5q210 0 386 103q177 103 279.5 280t102.5 385q0 210 -103 386q-103 177 -280 279.5t-385 102.5q-210 0 -385 -103q-178 -103 -280.5 -280t-102.5 -385zM224 640q0 149 73 273q73 126 198.5 198.5t272.5 72.5 q149 0 273 -73q126 -73 198.5 -198.5t72.5 -272.5q0 -149 -73 -273q-73 -126 -198.5 -198.5t-272.5 -72.5q-149 0 -273 73q-126 73 -198.5 198.5t-72.5 272.5zM418 620.5q-8 -19.5 7 -35.5l320 -320q11 -9 23 -9t23 9l319 319q10 11 10 24q0 14 -9 23t-23 9h-192v352 q0 14 -9 23t-23 9h-192q-14 0 -23 -9t-9 -23v-352h-192q-22 0 -30 -19.5z" />
<glyph unicode="&#xf01b;" d="M0 640q0 -210 103 -385q103 -178 280 -280.5t385 -102.5q210 0 386 103q177 103 279.5 280t102.5 385q0 210 -103 386q-103 177 -280 279.5t-385 102.5q-210 0 -385 -103q-178 -103 -280.5 -280t-102.5 -385zM224 640q0 149 73 273q73 126 198.5 198.5t272.5 72.5 q149 0 273 -73q126 -73 198.5 -198.5t72.5 -272.5q0 -149 -73 -273q-73 -126 -198.5 -198.5t-272.5 -72.5q-149 0 -273 73q-126 73 -198.5 198.5t-72.5 272.5zM416 672q0 -14 9 -23t23 -9h192v-352q0 -14 9 -23t23 -9h192q14 0 23 9t9 23v352h192q22 0 30 20q7 19 -7 35 l-320 320q-11 9 -23 9t-23 -9l-319 -319q-10 -11 -10 -24z" />
<glyph unicode="&#xf01c;" d="M0 64q0 -26 19 -45t45 -19h1408q26 0 45 19t19 45v482q0 63 -25 123l-238 552q-10 24 -36 41.5t-53 17.5h-832q-27 0 -53 -17.5t-36 -41.5l-238 -552q-25 -60 -25 -123v-482zM197 576q1 1 3 8l2 8l212 496h708l212 -496l3 -8q0 -1 0.5 -4t1.5 -4h-316l-95 -192h-320 l-95 192h-316z" />
<glyph unicode="&#xf01d;" d="M0 640q0 -210 103 -385q103 -178 280 -280.5t385 -102.5q210 0 386 103q177 103 279.5 280t102.5 385q0 210 -103 386q-103 177 -280 279.5t-385 102.5q-210 0 -385 -103q-178 -103 -280.5 -280t-102.5 -385zM224 640q0 149 73 273q73 126 198.5 198.5t272.5 72.5 q149 0 273 -73q126 -73 198.5 -198.5t72.5 -272.5q0 -149 -73 -273q-73 -126 -198.5 -198.5t-272.5 -72.5q-149 0 -273 73q-126 73 -198.5 198.5t-72.5 272.5zM512 320q0 -36 32 -56q18 -8 32 -8q17 0 32 9l544 320q32 18 32 55t-32 55l-544 320q-31 19 -63.5 0.5 t-32.5 -55.5v-640z" />
<glyph unicode="&#xf01e;" d="M0 640q0 -153 60 -295.5t165 -247.5t247.5 -165t295.5 -60q172 0 327 72.5t264 204.5q8 10 7.5 22.5t-9.5 20.5l-137 138q-11 9 -26 8t-22 -11q-73 -95 -178.5 -147t-225.5 -52q-103 0 -197.5 40t-164.5 110t-110 164.5t-40 197.5t40 197.5t110 164.5t164.5 110t197.5 40 q200 0 349 -137l-138 -138q-31 -30 -14 -69.5t59 -39.5h448q26 0 45 19t19 45v448q0 42 -40 59t-69 -14l-130 -129q-108 102 -245 157t-284 55q-153 0 -295.5 -60t-247.5 -165t-165 -247.5t-60 -295.5z" />
<glyph unicode="&#xf021;" d="M0 0q0 -26 19 -45t45 -19t45 19l129 129q107 -102 243.5 -157t282.5 -55q273 0 477.5 166t268.5 435q1 1 1 7q0 13 -9.5 22.5t-22.5 9.5h-192q-22 0 -30 -23q-41 -98 -53 -117q-70 -114 -186 -179t-250 -65q-199 0 -348 138l137 137q19 19 19 45t-19 45t-45 19h-448 q-26 0 -45 -19t-19 -45v-448zM18 800q0 -13 9.5 -22.5t22.5 -9.5h199q22 0 30 23q41 98 53 117q70 114 186 179t250 65q200 0 349 -137l-138 -138q-19 -19 -19 -45t19 -45t45 -19h448q26 0 45 19t19 45v448q0 26 -19 45t-45 19t-45 -19l-130 -129q-107 101 -245 156.5 t-284 55.5q-274 0 -479 -166t-271 -435v-7z" />
<glyph unicode="&#xf022;" horiz-adv-x="1920" d="M0 160q0 -66 47 -113t113 -47h1472q66 0 113 47t47 113v1088q0 66 -47 113t-113 47h-1472q-66 0 -113 -47t-47 -113v-1088zM128 160v832q0 13 9.5 22.5t22.5 9.5h1472q13 0 22.5 -9.5t9.5 -22.5v-832q0 -13 -9.5 -22.5t-22.5 -9.5h-1472q-13 0 -22.5 9.5t-9.5 22.5z M256 288q0 -13 9.5 -22.5t22.5 -9.5h64q13 0 22.5 9.5t9.5 22.5v64q0 13 -9.5 22.5t-22.5 9.5h-64q-13 0 -22.5 -9.5t-9.5 -22.5v-64zM256 544q0 -13 9.5 -22.5t22.5 -9.5h64q13 0 22.5 9.5t9.5 22.5v64q0 13 -9.5 22.5t-22.5 9.5h-64q-13 0 -22.5 -9.5t-9.5 -22.5v-64z M256 800q0 -13 9.5 -22.5t22.5 -9.5h64q13 0 22.5 9.5t9.5 22.5v64q0 13 -9.5 22.5t-22.5 9.5h-64q-13 0 -22.5 -9.5t-9.5 -22.5v-64zM512 288q0 -13 9.5 -22.5t22.5 -9.5h960q13 0 22.5 9.5t9.5 22.5v64q0 13 -9.5 22.5t-22.5 9.5h-960q-13 0 -22.5 -9.5t-9.5 -22.5v-64z M512 544q0 -13 9.5 -22.5t22.5 -9.5h960q13 0 22.5 9.5t9.5 22.5v64q0 13 -9.5 22.5t-22.5 9.5h-960q-13 0 -22.5 -9.5t-9.5 -22.5v-64zM512 800q0 -13 9.5 -22.5t22.5 -9.5h960q13 0 22.5 9.5t9.5 22.5v64q0 13 -9.5 22.5t-22.5 9.5h-960q-13 0 -22.5 -9.5t-9.5 -22.5v-64z " />
<glyph unicode="&#xf024;" horiz-adv-x="1920" d="M64 1280q0 -73 64 -110v-1266q0 -13 9.5 -22.5t22.5 -9.5h64q13 0 22.5 9.5t9.5 22.5v1266q64 37 64 110q0 53 -37.5 90.5t-90.5 37.5t-90.5 -37.5t-37.5 -90.5zM320 320q0 -26 19 -45t45 -19q16 0 33 9q272 146 464 146q68 0 137.5 -20.5t120.5 -49.5q122 -70 232 -70 q154 0 369 116q29 15 40.5 28.5t11.5 37.5v763q0 26 -19 45t-45 19q-22 0 -142 -68q-50 -28 -113.5 -48t-114.5 -20t-88 19q-135 63 -226 90t-193 27q-185 0 -421 -120q-47 -24 -65 -34.5t-31.5 -26.5t-13.5 -37v-742z" />
<glyph unicode="&#xf025;" horiz-adv-x="1792" d="M0 650q0 -166 60 -314l20 -49l185 -33q22 -84 91 -137t156 -53v-32q0 -14 9 -23t23 -9h64q14 0 23 9t9 23v576q0 14 -9 23t-23 9h-64q-14 0 -23 -9t-9 -23v-32q-71 0 -130 -35t-93 -96l-68 12q-29 96 -29 193q0 149 88 279q88 132 236.5 209.5t315.5 77.5q168 0 316 -78 q149 -78 236.5 -209.5t87.5 -278.5q0 -97 -29 -193l-68 -12q-34 61 -93 96t-130 35v32q0 14 -9 23t-23 9h-64q-14 0 -23 -9t-9 -23v-576q0 -14 9 -23t23 -9h64q14 0 23 9t9 23v32q87 0 156 53t91 137l185 33l20 49q60 148 60 314q0 148 -66 288.5t-180 245.5 q-114 104 -268.5 164t-317.5 60t-317.5 -60t-268.5 -164q-114 -105 -180 -245.5t-66 -288.5z" />
<glyph unicode="&#xf026;" horiz-adv-x="896" d="M0 448q0 -26 19 -45t45 -19h262l333 -333q19 -19 45 -19t45 19t19 45v1088q0 26 -19 45t-45 19t-45 -19l-333 -333h-262q-26 0 -45 -19t-19 -45v-384z" />
<glyph unicode="&#xf027;" horiz-adv-x="1280" d="M0 448q0 -26 19 -45t45 -19h262l333 -333q19 -19 45 -19t45 19t19 45v1088q0 26 -19 45t-45 19t-45 -19l-333 -333h-262q-26 0 -45 -19t-19 -45v-384zM908 464q0 -27 19 -45.5t45 -18.5q13 0 25 5q69 28 112 93.5t43 141.5t-42 142q-44 67 -113 93q-12 5 -25 5 q-26 0 -45 -18.5t-19 -45.5q0 -35 41 -60q19 -12 34 -23q41 -30 41 -93q0 -34 -12 -57q-7 -14 -19.5 -26.5t-19 -16.5t-24.5 -15q-41 -25 -41 -61z" />
<glyph unicode="&#xf028;" horiz-adv-x="1792" d="M0 448q0 -26 19 -45t45 -19h262l333 -333q19 -19 45 -19t45 19t19 45v1088q0 26 -19 45t-45 19t-45 -19l-333 -333h-262q-26 0 -45 -19t-19 -45v-384zM908 464q0 -27 19 -45.5t45 -18.5q13 0 25 5q69 28 112 93.5t43 141.5t-42 142q-44 67 -113 93q-12 5 -25 5 q-26 0 -45 -18.5t-19 -45.5q0 -35 41 -60q19 -12 34 -23q41 -30 41 -93q0 -34 -12 -57q-7 -14 -19.5 -26.5t-19 -16.5t-24.5 -15q-41 -25 -41 -61zM1008 228q0 -26 19 -45t46 -19q10 0 25 5q140 59 225 188.5t85 282.5t-85 283q-86 130 -225 188q-15 5 -26 5q-26 0 -45 -19 t-19 -45q0 -40 39 -59q57 -29 76 -44q74 -54 115.5 -135.5t41.5 -173.5t-41.5 -173.5t-115.5 -135.5q-19 -15 -76 -44q-39 -19 -39 -59zM1109 -7q0 -26 19 -45t45 -19q11 0 26 5q211 91 338 283.5t127 422.5t-127 423q-127 192 -338 283q-15 5 -26 5q-26 0 -45 -19t-19 -45 q0 -37 39 -59q7 -4 23 -10q3 -2 7 -3.5t6 -2.5t4.5 -2.5t4.5 -2.5q44 -24 82 -51q123 -91 192 -227t69 -289t-69 -289t-192 -227q-38 -27 -82 -51q-6 -4 -22 -10q-19 -9 -23 -11q-39 -22 -39 -59z" />
<glyph unicode="&#xf029;" horiz-adv-x="1536" d="M0 0h640v640h-640v-640zM0 768h640v640h-640v-640zM128 129v383h384v-383h-384zM128 896v384h384v-384h-384zM256 256h128v128h-128v-128zM256 1024h128v128h-128v-128zM768 0h128v384h128v-128h384v384h-128v-128h-128v128h-384v-640zM768 768h640v640h-640v-640z M896 896v384h384v-384h-384zM1024 0h128v128h-128v-128zM1024 1024h128v128h-128v-128zM1280 0h128v128h-128v-128z" />
<glyph unicode="&#xf02a;" horiz-adv-x="1920" d="M0 0h63v1408h-63v-1408zM94 1h32v1407h-32v-1407zM189 1h31v1407h-31v-1407zM346 1h31v1407h-31v-1407zM472 1h62v1407h-62v-1407zM629 1h31v1407h-31v-1407zM692 1h31v1407h-31v-1407zM755 1h31v1407h-31v-1407zM880 1h63v1407h-63v-1407zM1037 1h63v1407h-63v-1407z M1163 1h63v1407h-63v-1407zM1289 1h63v1407h-63v-1407zM1383 1h63v1407h-63v-1407zM1541 1h94v1407h-94v-1407zM1666 1h32v1407h-32v-1407zM1729 0h63v1408h-63v-1408z" />
<glyph unicode="&#xf02b;" d="M0 864q0 -54 26.5 -118t64.5 -100l715 -716q37 -37 90 -37t91 37l491 492q37 37 37 90t-37 91l-715 714q-38 38 -102 64.5t-117 26.5h-416q-52 0 -90 -38t-38 -90v-416zM192 1088q0 53 37.5 90.5t90.5 37.5t90.5 -37.5t37.5 -90.5t-37 -90q-38 -38 -91 -38t-90.5 37.5 t-37.5 90.5z" />
<glyph unicode="&#xf02c;" horiz-adv-x="2048" d="M0 864q0 -54 26.5 -118t64.5 -100l715 -716q37 -37 90 -37t91 37l491 492q37 37 37 90t-37 91l-715 714q-38 38 -102 64.5t-117 26.5h-416q-52 0 -90 -38t-38 -90v-416zM192 1088q0 53 37.5 90.5t90.5 37.5t90.5 -37.5t37.5 -90.5t-37 -90q-38 -38 -91 -38t-90.5 37.5 t-37.5 90.5zM704 1408q53 0 117 -26.5t102 -64.5l715 -714q37 -38 37 -91t-37 -90l-470 -470q32 -33 55 -46t57 -13q53 0 91 37l491 492q37 37 37 90t-37 91l-715 714q-38 38 -102 64.5t-117 26.5h-224z" />
<glyph unicode="&#xf02d;" horiz-adv-x="1792" d="M10 184q-22 -59 2 -127q28 -78 99.5 -131.5t148.5 -53.5h923q65 0 122.5 43.5t76.5 107.5l275 906q23 72 -18 129q-20 28 -59 43q2 -37 -5 -57l-300 -987q-8 -25 -34.5 -41t-56.5 -16h-923q-120 0 -144 70q-10 27 1 42.5t38 15.5h869q92 0 128 34t72 154l274 906 q22 74 -18 130t-114 56h-761q-14 0 -51 -9l1 3q-29 6 -47 6q-36 -1 -63 -35q-20 -26 -35 -68l-15 -35q-14 -30 -34 -52q-2 -2 -8.5 -10.5t-9.5 -12.5q-13 -18 -7 -44q5 -18 3 -26q-4 -36 -27 -94.5t-43 -86.5l-22 -22q-18 -18 -22 -31q-5 -5 0 -28q3 -24 2 -32 q-4 -33 -24.5 -89t-42.5 -93q-3 -6 -17 -23t-16.5 -26.5t0.5 -29.5q2 -21 -1 -30q-20 -92 -75 -183q-5 -9 -16 -23q-12 -16 -17 -24q-11 -18 -5 -40q5 -16 -1 -59q-3 -23 -3 -27zM492 800l21 64q4 13 16.5 22.5t25.5 9.5h608q14 0 20 -9.5t2 -22.5l-21 -64 q-4 -13 -16.5 -22.5t-25.5 -9.5h-608q-14 0 -20 9.5t-2 22.5zM575 1056l21 64q4 13 16.5 22.5t25.5 9.5h608q14 0 20 -9.5t2 -22.5l-21 -64q-4 -13 -16.5 -22.5t-25.5 -9.5h-608q-14 0 -20 9.5t-2 22.5z" />
<glyph unicode="&#xf02f;" horiz-adv-x="1792" d="M0 160q0 -13 9.5 -22.5t22.5 -9.5h224v-160q0 -40 28 -68t68 -28h960q40 0 68 28t28 68v160h224q13 0 22.5 9.5t9.5 22.5v416q0 79 -56.5 135.5t-135.5 56.5h-64v256q0 40 -20 88t-48 76l-152 152q-28 28 -76 48t-88 20h-672q-40 0 -68 -28t-28 -68v-544h-64 q-79 0 -135.5 -56.5t-56.5 -135.5v-416zM384 0v256h896v-256h-896zM384 640v640h640v-160q0 -40 28 -68t68 -28h160v-384h-896zM1408 576q0 26 19 45t45 19t45 -19t19 -45t-19 -45t-45 -19t-45 19t-19 45z" />
<glyph unicode="&#xf031;" horiz-adv-x="1792" d="M0 -128h21q83 0 167 14l48 8q291 -20 349 -20q2 14 2 27q0 39 -1 58q-56 8 -70 11l-14 2q-77 11 -103 32q-17 12 -17 43q0 18 23 84q75 208 104 274l450 -2l92 -228l47 -114q6 -16 6 -32q0 -15 -12 -27q-10 -9 -68 -23l-131 -28q-4 -29 -4 -78l58 2l200 11q74 2 135 2 q90 0 189 -8q120 -8 192 -8q1 8 1 26t-6 57q-55 21 -103 27q-48 5 -69 23q-12 7 -35 57q-44 89 -65 149q-34 93 -65 164q-59 138 -96 235q-25 65 -124 297l-205 480l-11 21h-128l-280 -724l-237 -616q-22 -40 -33 -53.5t-37.5 -24t-87.5 -21.5q-56 -10 -80 -18zM555 527 l170 450q38 -78 94.5 -216.5t89.5 -235.5l-29 -2q-27 0 -52 1q-66 0 -119 1q-26 0 -77.5 0.5t-76.5 1.5z" />
<glyph unicode="&#xf032;" horiz-adv-x="1536" d="M0 -128q231 7 272 11q202 13 298 11l197 -4q113 -4 198 11q130 24 203.5 60t139.5 108q100 109 100 278q0 134 -93.5 238t-265.5 144q123 56 150 77q127 95 127 233q0 134 -86 226q-74 78 -198 115q-103 27 -191 27h-74q-27 0 -40 1h-22h-14q-6 -1 -14 -1l-45 -1 l-380 -13l-260 -6l4 -83q97 -12 114 -13q51 -3 69 -15q11 -8 12 -12q9 -20 11 -109q5 -150 9 -404l2 -497q0 -128 -9 -194q-4 -24 -21 -51q-45 -19 -123 -31q-24 -3 -68 -12zM533 1292q75 13 130 13q165 0 252.5 -72.5t87.5 -189.5q0 -155 -86.5 -222t-266.5 -67 q-68 0 -109 7q-1 23 -1 77l1 98q1 158 -6 279q-2 44 -2 77zM540 329l1 173v144q26 10 101 10q166 0 247 -32q84 -33 133 -113.5t49 -192.5q0 -110 -38 -181q-38 -73 -123.5 -113.5t-214.5 -40.5q-62 0 -140 32q-12 28 -12 44z" />
<glyph unicode="&#xf033;" horiz-adv-x="1152" d="M0 -126q25 2 98 9q137 12 174 11l198 -2q133 -14 145 -17q19 -3 28 -3q10 0 42 2q3 1 23 1q1 8 9 41q5 25 7 58q-1 0 -26.5 4t-39.5 6q-54 6 -119 21q-3 18 -1 27l12 45l43 235l38 158l61 311q22 107 66 306q10 100 37 170q36 14 101 31q57 13 109 31l13 51 q8 19 4.5 28.5t-34.5 7.5q-46 -4 -68 -5q-149 -9 -214 -9q-21 0 -73 2l-317 14l-19 -103q22 -3 38 -4q105 -6 144 -28v-38l-8 -50l-22 -135l-16 -63l-29 -157l-3 -11q-8 -22 -22 -77q-18 -73 -33 -152l-12 -64l-56 -268l-27 -139q-12 -62 -41 -101q-24 -12 -72.5 -27 t-80 -22.5t-40.5 -9.5z" />
<glyph unicode="&#xf034;" horiz-adv-x="1920" d="M0 1023q12 -17 56 -44q8 0 21 14t19 31q10 33 24 84q15 56 22 75q9 24 22 33q16 12 74 25t99 13q111 0 148 -6q16 -1 20 -21q2 -14 2 -57v-102q-2 -57 0 -119l5 -428q1 -241 -6 -433q-3 -35 -12 -56q-21 -13 -159 -50q-58 -16 -79 -49v-9l1 -26l2 -26q27 0 70 4 q151 14 233 14q161 0 238 -8q73 -10 187 -10q25 0 34 1q3 20 3 29l-5 50q-19 10 -50 18q-48 12 -87 25l-18 5q-42 8 -89 32q-12 40 -11 85l1 147l-3 359v332l-1 152q-2 45 8 136q37 5 67 5q66 0 111 1t104 1q32 0 42 -2q15 -4 22 -13t11 -35q12 -83 27 -128q28 -83 54 -128 q29 3 68 18q4 17 4 51l1 58l-1 100q-1 35 -1 132v104q-9 1 -28 1l-42 -1l-7 -8q-8 -9 -22 -16.5t-27 -6.5l-34 2l-508 1l-115 -1l-19 -3h-130q-189 0 -211 5l-54 27l-81 -1v-383zM1414 109.5q-9 -18.5 11 -44.5l126 -162q20 -26 49 -26t49 26l126 162q20 26 11 44.5 t-42 18.5h-80v1024h80q33 0 42 18.5t-11 44.5l-126 162q-20 26 -49 26t-49 -26l-126 -162q-20 -26 -11 -44.5t42 -18.5h80v-1024h-80q-33 0 -42 -18.5z" />
<glyph unicode="&#xf035;" d="M0 1023q12 -17 56 -44q8 0 21 14t19 31q10 33 24 84q15 56 22 75q9 24 22 33q14 9 131 23.5t170 14.5q111 0 148 -6q16 -1 20 -21q2 -18 2 -278l5 -44q0 -297 -6 -433q-3 -35 -12 -56q-21 -13 -159 -50q-58 -16 -79 -49v-9l1 -26l2 -26q20 0 70 5q146 13 233 13 q161 0 238 -8q73 -10 187 -10q25 0 34 1q3 19 3 29l-5 50q-19 10 -50 18q-48 12 -87 25l-18 5q-42 8 -89 32q-12 40 -11 85l1 147l-3 359v-52l-1 152q-2 45 8 136q37 5 127 5q70 0 128 1t139 1q48 0 58 -2q15 -4 22 -13t11 -35q12 -83 27 -128q28 -83 54 -128q29 3 68 18 q4 17 4 51l1 58l-1 100q-1 35 -1 132v104q-9 1 -28 1l-42 -1l-7 -8q-8 -9 -22 -16.5t-27 -6.5l-34 2l-764 1l-115 -1l-19 -3h-130q-189 0 -211 5l-54 27l-81 -1v-383zM5 64q0 -29 26 -49l162 -126q26 -20 44.5 -11t18.5 42v80h1024v-80q0 -33 18.5 -42t44.5 11l162 126 q26 20 26 49t-26 49l-162 126q-26 20 -44.5 11t-18.5 -42v-80h-1024v80q0 33 -18.5 42t-44.5 -11l-162 -126q-26 -20 -26 -49z" />
<glyph unicode="&#xf036;" horiz-adv-x="1920" d="M0 64q0 -26 19 -45t45 -19h1664q26 0 45 19t19 45v128q0 26 -19 45t-45 19h-1664q-26 0 -45 -19t-19 -45v-128zM0 448q0 -26 19 -45t45 -19h1280q26 0 45 19t19 45v128q0 26 -19 45t-45 19h-1280q-26 0 -45 -19t-19 -45v-128zM0 832q0 -26 19 -45t45 -19h1536q26 0 45 19 t19 45v128q0 26 -19 45t-45 19h-1536q-26 0 -45 -19t-19 -45v-128zM0 1216q0 -26 19 -45t45 -19h1152q26 0 45 19t19 45v128q0 26 -19 45t-45 19h-1152q-26 0 -45 -19t-19 -45v-128z" />
<glyph unicode="&#xf037;" horiz-adv-x="1920" d="M0 64q0 -26 19 -45t45 -19h1664q26 0 45 19t19 45v128q0 26 -19 45t-45 19h-1664q-26 0 -45 -19t-19 -45v-128zM128 832q0 -26 19 -45t45 -19h1408q26 0 45 19t19 45v128q0 26 -19 45t-45 19h-1408q-26 0 -45 -19t-19 -45v-128zM384 448q0 -26 19 -45t45 -19h896 q26 0 45 19t19 45v128q0 26 -19 45t-45 19h-896q-26 0 -45 -19t-19 -45v-128zM512 1216q0 -26 19 -45t45 -19h640q26 0 45 19t19 45v128q0 26 -19 45t-45 19h-640q-26 0 -45 -19t-19 -45v-128z" />
<glyph unicode="&#xf038;" horiz-adv-x="1920" d="M0 64q0 -26 19 -45t45 -19h1664q26 0 45 19t19 45v128q0 26 -19 45t-45 19h-1664q-26 0 -45 -19t-19 -45v-128zM128 832q0 -26 19 -45t45 -19h1536q26 0 45 19t19 45v128q0 26 -19 45t-45 19h-1536q-26 0 -45 -19t-19 -45v-128zM384 448q0 -26 19 -45t45 -19h1280 q26 0 45 19t19 45v128q0 26 -19 45t-45 19h-1280q-26 0 -45 -19t-19 -45v-128zM512 1216q0 -26 19 -45t45 -19h1152q26 0 45 19t19 45v128q0 26 -19 45t-45 19h-1152q-26 0 -45 -19t-19 -45v-128z" />
<glyph unicode="&#xf039;" horiz-adv-x="1920" d="M0 64q0 -26 19 -45t45 -19h1664q26 0 45 19t19 45v128q0 26 -19 45t-45 19h-1664q-26 0 -45 -19t-19 -45v-128zM0 448q0 -26 19 -45t45 -19h1664q26 0 45 19t19 45v128q0 26 -19 45t-45 19h-1664q-26 0 -45 -19t-19 -45v-128zM0 832q0 -26 19 -45t45 -19h1664q26 0 45 19 t19 45v128q0 26 -19 45t-45 19h-1664q-26 0 -45 -19t-19 -45v-128zM0 1216q0 -26 19 -45t45 -19h1664q26 0 45 19t19 45v128q0 26 -19 45t-45 19h-1664q-26 0 -45 -19t-19 -45v-128z" />
<glyph unicode="&#xf03a;" horiz-adv-x="1920" d="M0 32q0 -13 9.5 -22.5t22.5 -9.5h192q13 0 22.5 9.5t9.5 22.5v192q0 13 -9.5 22.5t-22.5 9.5h-192q-13 0 -22.5 -9.5t-9.5 -22.5v-192zM0 416q0 -13 9.5 -22.5t22.5 -9.5h192q13 0 22.5 9.5t9.5 22.5v192q0 13 -9.5 22.5t-22.5 9.5h-192q-13 0 -22.5 -9.5t-9.5 -22.5 v-192zM0 800q0 -13 9.5 -22.5t22.5 -9.5h192q13 0 22.5 9.5t9.5 22.5v192q0 13 -9.5 22.5t-22.5 9.5h-192q-13 0 -22.5 -9.5t-9.5 -22.5v-192zM0 1184q0 -13 9.5 -22.5t22.5 -9.5h192q13 0 22.5 9.5t9.5 22.5v192q0 13 -9.5 22.5t-22.5 9.5h-192q-13 0 -22.5 -9.5 t-9.5 -22.5v-192zM384 32q0 -13 9.5 -22.5t22.5 -9.5h1344q13 0 22.5 9.5t9.5 22.5v192q0 13 -9.5 22.5t-22.5 9.5h-1344q-13 0 -22.5 -9.5t-9.5 -22.5v-192zM384 416q0 -13 9.5 -22.5t22.5 -9.5h1344q13 0 22.5 9.5t9.5 22.5v192q0 13 -9.5 22.5t-22.5 9.5h-1344 q-13 0 -22.5 -9.5t-9.5 -22.5v-192zM384 800q0 -13 9.5 -22.5t22.5 -9.5h1344q13 0 22.5 9.5t9.5 22.5v192q0 13 -9.5 22.5t-22.5 9.5h-1344q-13 0 -22.5 -9.5t-9.5 -22.5v-192zM384 1184q0 -13 9.5 -22.5t22.5 -9.5h1344q13 0 22.5 9.5t9.5 22.5v192q0 13 -9.5 22.5 t-22.5 9.5h-1344q-13 0 -22.5 -9.5t-9.5 -22.5v-192z" />
<glyph unicode="&#xf03b;" horiz-adv-x="1920" d="M0 32q0 -13 9.5 -22.5t22.5 -9.5h1728q13 0 22.5 9.5t9.5 22.5v192q0 13 -9.5 22.5t-22.5 9.5h-1728q-13 0 -22.5 -9.5t-9.5 -22.5v-192zM0 1184q0 -13 9.5 -22.5t22.5 -9.5h1728q13 0 22.5 9.5t9.5 22.5v192q0 13 -9.5 22.5t-22.5 9.5h-1728q-13 0 -22.5 -9.5 t-9.5 -22.5v-192zM32 704q0 -14 9 -23l288 -288q9 -9 23 -9q13 0 22.5 9.5t9.5 22.5v576q0 13 -9.5 22.5t-22.5 9.5q-14 0 -23 -9l-288 -288q-9 -9 -9 -23zM640 416q0 -13 9.5 -22.5t22.5 -9.5h1088q13 0 22.5 9.5t9.5 22.5v192q0 13 -9.5 22.5t-22.5 9.5h-1088 q-13 0 -22.5 -9.5t-9.5 -22.5v-192zM640 800q0 -13 9.5 -22.5t22.5 -9.5h1088q13 0 22.5 9.5t9.5 22.5v192q0 13 -9.5 22.5t-22.5 9.5h-1088q-13 0 -22.5 -9.5t-9.5 -22.5v-192z" />
<glyph unicode="&#xf03c;" horiz-adv-x="1920" d="M0 32q0 -13 9.5 -22.5t22.5 -9.5h1728q13 0 22.5 9.5t9.5 22.5v192q0 13 -9.5 22.5t-22.5 9.5h-1728q-13 0 -22.5 -9.5t-9.5 -22.5v-192zM0 416q0 -13 9.5 -22.5t22.5 -9.5q14 0 23 9l288 288q9 9 9 23t-9 23l-288 288q-9 9 -23 9q-13 0 -22.5 -9.5t-9.5 -22.5v-576z M0 1184q0 -13 9.5 -22.5t22.5 -9.5h1728q13 0 22.5 9.5t9.5 22.5v192q0 13 -9.5 22.5t-22.5 9.5h-1728q-13 0 -22.5 -9.5t-9.5 -22.5v-192zM640 416q0 -13 9.5 -22.5t22.5 -9.5h1088q13 0 22.5 9.5t9.5 22.5v192q0 13 -9.5 22.5t-22.5 9.5h-1088q-13 0 -22.5 -9.5 t-9.5 -22.5v-192zM640 800q0 -13 9.5 -22.5t22.5 -9.5h1088q13 0 22.5 9.5t9.5 22.5v192q0 13 -9.5 22.5t-22.5 9.5h-1088q-13 0 -22.5 -9.5t-9.5 -22.5v-192z" />
<glyph unicode="&#xf03d;" horiz-adv-x="1920" d="M0 288q0 -119 84.5 -203.5t203.5 -84.5h704q119 0 203.5 84.5t84.5 203.5v166l403 -403q18 -19 45 -19q10 0 25 5q39 17 39 59v1088q0 42 -39 59q-15 5 -25 5q-27 0 -45 -19l-403 -402v165q0 119 -84.5 203.5t-203.5 84.5h-704q-119 0 -203.5 -84.5t-84.5 -203.5v-704z " />
<glyph unicode="&#xf03e;" horiz-adv-x="2048" d="M0 32q0 -66 47 -113t113 -47h1600q66 0 113 47t47 113v1216q0 66 -47 113t-113 47h-1600q-66 0 -113 -47t-47 -113v-1216zM128 32v1216q0 13 9.5 22.5t22.5 9.5h1600q13 0 22.5 -9.5t9.5 -22.5v-1216q0 -13 -9.5 -22.5t-22.5 -9.5h-1600q-13 0 -22.5 9.5t-9.5 22.5z M256 128h1408v448l-416 416l-512 -512l-160 160l-320 -320v-192zM256 960q0 -80 56 -136t136 -56t136 56t56 136t-56 136t-136 56t-136 -56t-56 -136z" />
<glyph unicode="&#xf041;" horiz-adv-x="1152" d="M0 896q0 -108 33 -179l365 -774q15 -33 46.5 -52t67.5 -19t67.5 19t47.5 52l364 774q33 71 33 179q0 212 -150 362t-362 150t-362 -150t-150 -362zM256 896q0 106 75 181t181 75t181 -75t75 -181t-75 -181t-181 -75t-181 75t-75 181z" />
<glyph unicode="&#xf042;" d="M0 640q0 -210 103 -385q103 -178 280 -280.5t385 -102.5q210 0 386 103q177 103 279.5 280t102.5 385q0 210 -103 386q-103 177 -280 279.5t-385 102.5q-210 0 -385 -103q-178 -103 -280.5 -280t-102.5 -385zM224 640q0 149 73 273q73 126 198.5 198.5t272.5 72.5v-1088 q-149 0 -273 73q-126 73 -198.5 198.5t-72.5 272.5z" />
<glyph unicode="&#xf043;" horiz-adv-x="1152" d="M0 512q0 -212 150 -362t362 -150t362 150t150 362q0 148 -81 275q-1 2 -9 13t-22.5 32.5t-30.5 45.5q-64 90 -101 151q-50 77 -103.5 184.5t-79.5 194.5q-8 29 -32.5 46.5t-52.5 17.5q-27 0 -51.5 -17.5t-33.5 -46.5q-30 -98 -83 -201q-50 -99 -91 -165.5t-109 -163.5 l-63 -91q-81 -131 -81 -275zM256 384q0 35 20 69l41 61q33 48 46 94q4 16 21 16t21 -16q13 -46 46 -94l41 -61q20 -34 20 -69q0 -53 -37.5 -90.5t-90.5 -37.5t-90.5 37.5t-37.5 90.5z" />
<glyph unicode="&#xf044;" horiz-adv-x="1920" d="M0 288q0 -119 84.5 -203.5t203.5 -84.5h832q119 0 203.5 84.5t84.5 203.5v190q0 21 -20 29t-35 -7l-64 -64q-9 -9 -9 -22v-126q0 -66 -47 -113t-113 -47h-832q-66 0 -113 47t-47 113v832q0 66 47 113t113 47h832q22 0 45 -6q18 -6 32 8l49 49q12 12 9 28.5t-18 23.5 q-53 25 -117 25h-832q-119 0 -203.5 -84.5t-84.5 -203.5v-832zM640 256h288l672 672l-288 288l-672 -672v-288zM736 448v56l116 116l152 -152l-116 -116h-56v96h-96zM944 688q-16 16 1 33l350 350q17 17 33 1t-1 -33l-350 -350q-17 -17 -33 -1zM1376 1280l288 -288l92 92 q28 28 28 68t-28 68l-152 152q-28 28 -68 28t-68 -28z" />
<glyph unicode="&#xf045;" horiz-adv-x="1792" d="M0 288q0 -119 84.5 -203.5t203.5 -84.5h832q119 0 203.5 84.5t84.5 203.5v259q0 21 -20 28.5t-36 -7.5q-24 -23 -54 -37q-18 -11 -18 -29v-214q0 -66 -47 -113t-113 -47h-832q-66 0 -113 47t-47 113v832q0 66 47 113t113 47h112q7 0 16 4q54 34 133 60q26 5 26 32 q0 13 -9.5 22.5t-22.5 9.5h-255q-119 0 -203.5 -84.5t-84.5 -203.5v-832zM256 704q0 -108 56 -236q42 -96 89 -168q2 -2 5 -7.5t4.5 -7.5t4.5 -6.5t5 -6.5t4.5 -5t5 -4.5t5.5 -3.5t6.5 -2.5t6.5 -0.5q2 0 12 2q23 11 20 34q-30 226 11.5 357t161.5 189t339 58h160v-192 q0 -42 39 -59q15 -5 25 -5q27 0 45 19l384 384q19 19 19 45t-19 45l-384 384q-19 19 -45 19q-10 0 -25 -5q-39 -17 -39 -59v-192h-160q-102 0 -196 -11q-175 -22 -284 -79q-107 -57 -163 -135q-55 -76 -75 -170q-18 -82 -18 -181z" />
<glyph unicode="&#xf046;" horiz-adv-x="1792" d="M0 288q0 -119 84.5 -203.5t203.5 -84.5h832q119 0 203.5 84.5t84.5 203.5v318q0 21 -20 29q-6 3 -12 3q-13 0 -23 -10l-64 -64q-9 -9 -9 -22v-254q0 -66 -47 -113t-113 -47h-832q-66 0 -113 47t-47 113v832q0 66 47 113t113 47h832q22 0 45 -6q8 -2 9 -2q13 0 23 10 l49 49q12 12 9 28.5t-18 23.5q-53 25 -117 25h-832q-119 0 -203.5 -84.5t-84.5 -203.5v-832zM257 768q0 -33 24 -57l430 -430q24 -24 57 -24t57 24l814 814q24 24 24 57t-24 57l-110 110q-24 24 -57 24t-57 -24l-647 -647l-263 263q-24 24 -57 24t-57 -24l-110 -110 q-24 -24 -24 -57z" />
<glyph unicode="&#xf047;" horiz-adv-x="1920" d="M0 640q0 -26 19 -45l256 -256q19 -19 45 -19t45 19t19 45v128h384v-384h-128q-26 0 -45 -19t-19 -45t19 -45l256 -256q19 -19 45 -19t45 19l256 256q19 19 19 45t-19 45t-45 19h-128v384h384v-128q0 -26 19 -45t45 -19t45 19l256 256q19 19 19 45t-19 45l-256 256 q-19 19 -45 19t-45 -19t-19 -45v-128h-384v384h128q26 0 45 19t19 45t-19 45l-256 256q-19 19 -45 19t-45 -19l-256 -256q-19 -19 -19 -45t19 -45t45 -19h128v-384h-384v128q0 26 -19 45t-45 19t-45 -19l-256 -256q-19 -19 -19 -45z" />
<glyph unicode="&#xf048;" horiz-adv-x="1152" d="M0 -64q0 -26 19 -45t45 -19h128q26 0 45 19t19 45v678q5 -10 13 -19l710 -710q19 -19 32 -13t13 32v1472q0 26 -13 32t-32 -13l-710 -710q-8 -6 -13 -19v678q0 26 -19 45t-45 19h-128q-26 0 -45 -19t-19 -45v-1408z" />
<glyph unicode="&#xf049;" horiz-adv-x="1920" d="M0 -64q0 -26 19 -45t45 -19h128q26 0 45 19t19 45v678q5 -10 13 -19l710 -710q19 -19 32 -13t13 32v710q4 -10 13 -19l710 -710q19 -19 32 -13t13 32v1472q0 26 -13 32t-32 -13l-710 -710q-8 -6 -13 -19v710q0 26 -13 32t-32 -13l-710 -710q-8 -6 -13 -19v678 q0 26 -19 45t-45 19h-128q-26 0 -45 -19t-19 -45v-1408z" />
<glyph unicode="&#xf04a;" horiz-adv-x="1792" d="M122 640q0 -26 19 -45l710 -710q19 -19 32 -13t13 32v710q3 -7 13 -19l710 -710q19 -19 32 -13t13 32v1472q0 26 -13 32t-32 -13l-710 -710q-8 -8 -13 -19v710q0 26 -13 32t-32 -13l-710 -710q-19 -19 -19 -45z" />
<glyph unicode="&#xf04b;" horiz-adv-x="1536" d="M0 -96q0 -26 16.5 -36t39.5 3l1328 738q23 14 23 31t-23 31l-1328 738q-23 13 -39.5 3t-16.5 -36v-1472z" />
<glyph unicode="&#xf04c;" d="M0 -64q0 -26 19 -45t45 -19h512q26 0 45 19t19 45v1408q0 26 -19 45t-45 19h-512q-26 0 -45 -19t-19 -45v-1408zM896 -64q0 -26 19 -45t45 -19h512q26 0 45 19t19 45v1408q0 26 -19 45t-45 19h-512q-26 0 -45 -19t-19 -45v-1408z" />
<glyph unicode="&#xf04d;" d="M0 -64q0 -26 19 -45t45 -19h1408q26 0 45 19t19 45v1408q0 26 -19 45t-45 19h-1408q-26 0 -45 -19t-19 -45v-1408z" />
<glyph unicode="&#xf04e;" horiz-adv-x="1792" d="M0 -96q0 -26 13 -32t32 13l710 710q10 12 13 19v-710q0 -26 13 -32t32 13l710 710q19 19 19 45t-19 45l-710 710q-19 19 -32 13t-13 -32v-710q-5 11 -13 19l-710 710q-19 19 -32 13t-13 -32v-1472z" />
<glyph unicode="&#xf050;" horiz-adv-x="1920" d="M0 -96q0 -26 13 -32t32 13l710 710q10 12 13 19v-710q0 -26 13 -32t32 13l710 710q10 12 13 19v-678q0 -26 19 -45t45 -19h128q26 0 45 19t19 45v1408q0 26 -19 45t-45 19h-128q-26 0 -45 -19t-19 -45v-678q-5 11 -13 19l-710 710q-19 19 -32 13t-13 -32v-710 q-5 11 -13 19l-710 710q-19 19 -32 13t-13 -32v-1472z" />
<glyph unicode="&#xf051;" horiz-adv-x="1152" d="M0 -96q0 -26 13 -32t32 13l710 710q10 12 13 19v-678q0 -26 19 -45t45 -19h128q26 0 45 19t19 45v1408q0 26 -19 45t-45 19h-128q-26 0 -45 -19t-19 -45v-678q-5 11 -13 19l-710 710q-19 19 -32 13t-13 -32v-1472z" />
<glyph unicode="&#xf052;" horiz-adv-x="1666" d="M1 64q0 -26 19 -45t45 -19h1408q26 0 45 19t19 45v256q0 26 -19 45t-45 19h-1408q-26 0 -45 -19t-19 -45v-256zM1 525q6 -13 32 -13h1472q26 0 32 13t-13 32l-710 710q-19 19 -45 19t-45 -19l-710 -710q-19 -19 -13 -32z" />
<glyph unicode="&#xf053;" horiz-adv-x="1280" d="M53 705q0 -54 37 -91l652 -651q37 -37 91 -37q53 0 90 37l75 75q37 37 37 90q0 54 -37 91l-486 485l486 486q37 37 37 91q0 53 -37 90l-75 75q-37 37 -90 37q-54 0 -91 -37l-652 -651q-37 -37 -37 -90z" />
<glyph unicode="&#xf054;" horiz-adv-x="1280" d="M117 128q0 -53 37 -91l76 -75q37 -37 90 -37t90 37l652 651q37 38 37 91t-37 90l-652 651q-36 38 -90 38t-90 -38l-76 -75q-37 -37 -37 -90t37 -91l486 -485l-486 -486q-37 -37 -37 -90z" />
<glyph unicode="&#xf055;" d="M0 640q0 -210 103 -385q103 -178 280 -280.5t385 -102.5q210 0 386 103q177 103 279.5 280t102.5 385q0 210 -103 386q-103 177 -280 279.5t-385 102.5q-210 0 -385 -103q-178 -103 -280.5 -280t-102.5 -385zM320 576v128q0 26 19 45t45 19h256v256q0 26 19 45t45 19h128 q26 0 45 -19t19 -45v-256h256q26 0 45 -19t19 -45v-128q0 -26 -19 -45t-45 -19h-256v-256q0 -26 -19 -45t-45 -19h-128q-26 0 -45 19t-19 45v256h-256q-26 0 -45 19t-19 45z" />
<glyph unicode="&#xf056;" d="M0 640q0 -210 103 -385q103 -178 280 -280.5t385 -102.5q210 0 386 103q177 103 279.5 280t102.5 385q0 210 -103 386q-103 177 -280 279.5t-385 102.5q-210 0 -385 -103q-178 -103 -280.5 -280t-102.5 -385zM320 576v128q0 26 19 45t45 19h768q26 0 45 -19t19 -45v-128 q0 -26 -19 -45t-45 -19h-768q-26 0 -45 19t-19 45z" />
<glyph unicode="&#xf057;" d="M0 640q0 -210 103 -385q103 -178 280 -280.5t385 -102.5q210 0 386 103q177 103 279.5 280t102.5 385q0 210 -103 386q-103 177 -280 279.5t-385 102.5q-210 0 -385 -103q-178 -103 -280.5 -280t-102.5 -385zM387 414q0 26 19 45l181 181l-181 181q-19 19 -19 45 q0 27 19 46l90 90q19 19 46 19q26 0 45 -19l181 -181l181 181q19 19 45 19q27 0 46 -19l90 -90q19 -19 19 -46q0 -26 -19 -45l-181 -181l181 -181q19 -19 19 -45q0 -27 -19 -46l-90 -90q-19 -19 -46 -19q-26 0 -45 19l-181 181l-181 -181q-19 -19 -45 -19q-27 0 -46 19 l-90 90q-19 19 -19 46z" />
<glyph unicode="&#xf058;" d="M0 640q0 -210 103 -385q103 -178 280 -280.5t385 -102.5q210 0 386 103q177 103 279.5 280t102.5 385q0 210 -103 386q-103 177 -280 279.5t-385 102.5q-210 0 -385 -103q-178 -103 -280.5 -280t-102.5 -385zM252 621q0 28 18 46l91 90q19 19 45 19t45 -19l226 -226 l408 407q19 19 45 19t45 -19l91 -90q18 -18 18 -46q0 -27 -18 -45l-543 -543q-19 -19 -46 -19q-26 0 -45 19l-362 362q-18 18 -18 45z" />
<glyph unicode="&#xf059;" d="M0 640q0 -210 103 -385q103 -178 280 -280.5t385 -102.5q210 0 386 103q177 103 279.5 280t102.5 385q0 210 -103 386q-103 177 -280 279.5t-385 102.5q-210 0 -385 -103q-178 -103 -280.5 -280t-102.5 -385zM417 939q127 213 371 213q86 0 170 -41q86 -42 140 -117.5 t54 -161.5q0 -44 -12 -81q-23 -67 -73 -108q-38 -32 -95 -64q-31 -18 -53.5 -48.5t-22.5 -50.5q0 -14 -9 -23t-23 -9h-192q-14 0 -23 9t-9 23v36q0 63 50.5 122.5t117.5 89.5q49 22 68.5 45t19.5 61q0 33 -37.5 59t-85.5 26q-51 0 -84.5 -23t-87.5 -93q-9 -12 -25 -12 q-12 0 -19 6l-132 100q-23 18 -8 42zM640 160v192q0 14 9 23t23 9h192q14 0 23 -9t9 -23v-192q0 -14 -9 -23t-23 -9h-192q-14 0 -23 9t-9 23z" />
<glyph unicode="&#xf05a;" d="M0 640q0 -210 103 -385q103 -178 280 -280.5t385 -102.5q210 0 386 103q177 103 279.5 280t102.5 385q0 210 -103 386q-103 177 -280 279.5t-385 102.5q-210 0 -385 -103q-178 -103 -280.5 -280t-102.5 -385zM512 160v160q0 14 9 23t23 9h96v320h-96q-14 0 -23 9t-9 23 v160q0 14 9 23t23 9h320q14 0 23 -9t9 -23v-512h96q14 0 23 -9t9 -23v-160q0 -14 -9 -23t-23 -9h-448q-14 0 -23 9t-9 23zM640 1056v160q0 14 9 23t23 9h192q14 0 23 -9t9 -23v-160q0 -14 -9 -23t-23 -9h-192q-14 0 -23 9t-9 23z" />
<glyph unicode="&#xf05b;" d="M0 576q0 -26 19 -45t45 -19h143q37 -161 154.5 -278.5t278.5 -154.5v-143q0 -26 19 -45t45 -19h128q26 0 45 19t19 45v143q161 37 278.5 154.5t154.5 278.5h143q26 0 45 19t19 45v128q0 26 -19 45t-45 19h-143q-37 161 -154.5 278.5t-278.5 154.5v143q0 26 -19 45t-45 19 h-128q-26 0 -45 -19t-19 -45v-143q-161 -37 -278.5 -154.5t-154.5 -278.5h-143q-26 0 -45 -19t-19 -45v-128zM339 512h109q26 0 45 19t19 45v128q0 26 -19 45t-45 19h-109q32 108 112.5 188.5t188.5 112.5v-109q0 -26 19 -45t45 -19h128q26 0 45 19t19 45v109 q108 -32 188.5 -112.5t112.5 -188.5h-109q-26 0 -45 -19t-19 -45v-128q0 -26 19 -45t45 -19h109q-32 -108 -112.5 -188.5t-188.5 -112.5v109q0 26 -19 45t-45 19h-128q-26 0 -45 -19t-19 -45v-109q-108 32 -188.5 112.5t-112.5 188.5z" />
<glyph unicode="&#xf05c;" d="M0 640q0 -210 103 -385q103 -178 280 -280.5t385 -102.5q210 0 386 103q177 103 279.5 280t102.5 385q0 210 -103 386q-103 177 -280 279.5t-385 102.5q-210 0 -385 -103q-178 -103 -280.5 -280t-102.5 -385zM224 640q0 149 73 273q73 126 198.5 198.5t272.5 72.5 q149 0 273 -73q126 -73 198.5 -198.5t72.5 -272.5q0 -149 -73 -273q-73 -126 -198.5 -198.5t-272.5 -72.5q-149 0 -273 73q-126 73 -198.5 198.5t-72.5 272.5zM429 480q0 -13 10 -23l146 -146q10 -10 23 -10t23 10l137 137l137 -137q10 -10 23 -10t23 10l146 146 q10 10 10 23t-10 23l-137 137l137 137q10 10 10 23t-10 23l-146 146q-10 10 -23 10t-23 -10l-137 -137l-137 137q-10 10 -23 10t-23 -10l-146 -146q-10 -10 -10 -23t10 -23l137 -137l-137 -137q-10 -10 -10 -23z" />
<glyph unicode="&#xf05d;" d="M0 640q0 -210 103 -385q103 -178 280 -280.5t385 -102.5q210 0 386 103q177 103 279.5 280t102.5 385q0 210 -103 386q-103 177 -280 279.5t-385 102.5q-210 0 -385 -103q-178 -103 -280.5 -280t-102.5 -385zM224 640q0 149 73 273q73 126 198.5 198.5t272.5 72.5 q149 0 273 -73q126 -73 198.5 -198.5t72.5 -272.5q0 -149 -73 -273q-73 -126 -198.5 -198.5t-272.5 -72.5q-149 0 -273 73q-126 73 -198.5 198.5t-72.5 272.5zM346 640q0 -26 19 -45l294 -294q19 -19 45 -19t45 19l422 422q19 19 19 45t-19 45l-102 102q-19 19 -45 19 t-45 -19l-275 -275l-147 147q-19 19 -45 19t-45 -19l-102 -102q-19 -19 -19 -45z" />
<glyph unicode="&#xf05e;" d="M0 643q0 -154 60 -297.5t165 -248.5q104 -104 246.5 -164.5t296.5 -60.5t296.5 60t247.5 165q104 105 164 248.5t60 297.5q0 159 -61 300q-61 142 -163 245q-105 105 -247.5 165t-296.5 60t-296.5 -60.5t-246.5 -164.5q-105 -105 -165 -248t-60 -297zM224 643 q0 149 73 274q73 126 198.5 199t272.5 73q166 0 300 -91l-755 -754q-89 137 -89 299zM471 185l754 753q87 -134 87 -295q0 -109 -42.5 -211t-116.5 -176t-175 -117t-210 -43q-160 0 -297 89z" />
<glyph unicode="&#xf060;" d="M64 576q0 -53 37 -90l651 -652q38 -37 91 -37t90 37l75 76q38 36 38 90t-38 90l-293 294h704q51 0 84 37t33 91v128q0 54 -33 91t-84 37h-704l293 293q38 38 38 91t-38 91l-75 74q-38 38 -90 38q-53 0 -91 -38l-651 -650q-37 -38 -37 -91z" />
<glyph unicode="&#xf061;" d="M0 512q0 -54 33 -91t84 -37h704l-293 -293q-38 -38 -38 -91t38 -91l75 -75q38 -37 90 -37q53 0 91 37l651 651q37 37 37 91q0 56 -37 90l-651 651q-38 38 -91 38q-52 0 -90 -38l-75 -75q-38 -36 -38 -90t38 -90l293 -294h-704q-51 0 -84 -37t-33 -91v-128z" />
<glyph unicode="&#xf062;" horiz-adv-x="1792" d="M53 565q0 -52 38 -90l75 -75q36 -38 90 -38t90 38l294 293v-704q0 -51 37 -84t91 -33h128q54 0 91 33t37 84v704l294 -293q36 -38 90 -38q53 0 91 38l75 75q37 38 37 90q0 53 -37 91l-651 651q-37 37 -91 37q-56 0 -90 -37l-651 -651q-38 -38 -38 -91z" />
<glyph unicode="&#xf063;" horiz-adv-x="1792" d="M53 704q0 -54 38 -90l651 -652q37 -37 90 -37t91 37l651 652q37 37 37 90t-37 91l-75 75q-38 37 -91 37t-90 -37l-294 -294v704q0 52 -38 90t-90 38h-128q-52 0 -90 -38t-38 -90v-704l-294 294q-37 37 -90 37t-91 -37l-74 -75q-38 -38 -38 -91z" />
<glyph unicode="&#xf064;" horiz-adv-x="1920" d="M0 416q0 -167 127 -451l24 -54q18 -39 41 -39q15 0 23.5 10t8.5 25q0 3 -2 27q-3 16 -3 23q-5 75 -5 123q0 102 18 181q34 157 128 240q96 83 239 112q138 27 329 27h224v-256q0 -26 19 -45t45 -19t45 19l512 512q19 19 19 45t-19 45l-512 512q-19 19 -45 19t-45 -19 t-19 -45v-256h-224q-713 0 -875 -403q-53 -135 -53 -333z" />
<glyph unicode="&#xf065;" d="M0 -64q0 -26 19 -45t45 -19h448q26 0 45 19t19 45t-19 45l-144 144l332 332q10 10 10 23t-10 23l-114 114q-10 10 -23 10t-23 -10l-332 -332l-144 144q-19 19 -45 19t-45 -19t-19 -45v-448zM781 800q0 -13 10 -23l114 -114q10 -10 23 -10t23 10l332 332l144 -144 q19 -19 45 -19t45 19t19 45v448q0 26 -19 45t-45 19h-448q-26 0 -45 -19t-19 -45t19 -45l144 -144l-332 -332q-10 -10 -10 -23z" />
<glyph unicode="&#xf066;" d="M13 32q0 -13 10 -23l114 -114q10 -10 23 -10t23 10l332 332l144 -144q19 -19 45 -19t45 19t19 45v448q0 26 -19 45t-45 19h-448q-26 0 -45 -19t-19 -45t19 -45l144 -144l-332 -332q-10 -10 -10 -23zM768 704q0 -26 19 -45t45 -19h448q26 0 45 19t19 45t-19 45l-144 144 l332 332q10 10 10 23t-10 23l-114 114q-10 10 -23 10t-23 -10l-332 -332l-144 144q-19 19 -45 19t-45 -19t-19 -45v-448z" />
<glyph unicode="&#xf067;" horiz-adv-x="1536" d="M0 608q0 -40 28 -68t68 -28h416v-416q0 -40 28 -68t68 -28h192q40 0 68 28t28 68v416h416q40 0 68 28t28 68v192q0 40 -28 68t-68 28h-416v416q0 40 -28 68t-68 28h-192q-40 0 -68 -28t-28 -68v-416h-416q-40 0 -68 -28t-28 -68v-192z" />
<glyph unicode="&#xf068;" horiz-adv-x="1536" d="M0 608q0 -40 28 -68t68 -28h1216q40 0 68 28t28 68v192q0 40 -28 68t-68 28h-1216q-40 0 -68 -28t-28 -68v-192z" />
<glyph unicode="&#xf069;" horiz-adv-x="1792" d="M122.5 408.5q-13.5 -51.5 12.5 -97.5l64 -110q26 -46 77.5 -59.5t97.5 12.5l266 153v-307q0 -52 38 -90t90 -38h128q52 0 90 38t38 90v307l266 -153q46 -26 97.5 -12.5t77.5 59.5l64 110q26 46 12.5 97.5t-59.5 77.5l-266 154l266 154q46 26 59.5 77.5t-12.5 97.5 l-64 110q-26 46 -77.5 59.5t-97.5 -12.5l-266 -153v307q0 52 -38 90t-90 38h-128q-52 0 -90 -38t-38 -90v-307l-266 153q-46 26 -97.5 12.5t-77.5 -59.5l-64 -110q-26 -46 -12.5 -97.5t59.5 -77.5l266 -154l-266 -154q-46 -26 -59.5 -77.5z" />
<glyph unicode="&#xf06a;" d="M0 640q0 -210 103 -385q103 -178 280 -280.5t385 -102.5q210 0 386 103q177 103 279.5 280t102.5 385q0 210 -103 386q-103 177 -280 279.5t-385 102.5q-210 0 -385 -103q-178 -103 -280.5 -280t-102.5 -385zM624 1126q0 12 9.5 19t24.5 7h220q15 0 24.5 -7t9.5 -19 l-18 -621q-1 -10 -10.5 -17.5t-23.5 -7.5h-185q-14 0 -24 7.5t-10 17.5zM640 161v190q0 13 10 23t23 10h192q13 0 22 -9.5t9 -23.5v-190q0 -14 -9 -23.5t-22 -9.5h-192q-13 0 -23 10t-10 23z" />
<glyph unicode="&#xf06b;" d="M0 544q0 -14 9 -23t23 -9h96v-416q0 -40 28 -68t68 -28h1088q40 0 68 28t28 68v416h96q14 0 23 9t9 23v320q0 14 -9 23t-23 9h-440q93 0 158.5 65.5t65.5 158.5t-65.5 158.5t-158.5 65.5q-106 0 -168 -77l-128 -165l-128 165q-62 77 -168 77q-93 0 -158.5 -65.5 t-65.5 -158.5t65.5 -158.5t158.5 -65.5h-440q-14 0 -23 -9t-9 -23v-320zM376 1120q0 40 28 68t68 28q44 0 69 -31l126 -161h-195q-40 0 -68 28t-28 68zM608 180v716h320v-716q0 -24 -18 -38t-46 -14h-192q-28 0 -46 14t-18 38zM870 1024l125 161q25 31 69 31q40 0 68 -28 t28 -68t-28 -68t-68 -28h-194z" />
<glyph unicode="&#xf06c;" horiz-adv-x="1920" d="M0 121q0 -5 2 -13q2 -9 8 -20q5 -9 6 -11q16 -29 27 -42q27 -35 82 -35q27 0 58 30t55 72q56 102 84 102q23 0 96 -37q74 -38 88 -42q139 -47 286 -47q224 0 438 108q455 226 542 651q20 100 20 193q0 86 -32 220q-16 69 -48 113.5t-70 44.5q-26 0 -43 -4q-30 -7 -64 -36 q-13 -12 -59 -58q-37 -36 -113 -56q-100 -26 -342 -30q-230 -4 -325 -35q-223 -74 -374 -234q-77 -81 -120 -186.5t-43 -218.5q0 -53 9 -104q1 -5 16 -44q14 -36 14 -38q0 -31 -99 -104q-41 -30 -70 -68t-29 -71zM384 448q0 25 19 45q119 132 236 220q247 183 577 183 q26 0 45 -19t19 -45t-19 -45t-45 -19q-181 0 -312.5 -52t-269.5 -176q-4 -4 -26.5 -26t-40.5 -40q-47 -47 -74 -71q-20 -19 -45 -19q-26 0 -45 19t-19 45z" />
<glyph unicode="&#xf06e;" horiz-adv-x="1920" d="M0 576q0 -34 20 -69q141 -231 378 -369t498 -138q262 0 498.5 138t377.5 369q20 35 20 69t-20 69q-141 231 -378 369t-498 138t-498 -138t-378 -369q-20 -35 -20 -69zM128 576q152 236 381 353q-61 -103 -61 -225q0 -185 131.5 -316.5t316.5 -131.5t316.5 131.5 t131.5 316.5q0 122 -61 225q229 -117 381 -353q-135 -208 -336.5 -328t-431.5 -120t-431.5 120t-336.5 328zM592 704q0 125 89.5 214.5t214.5 89.5q20 0 34 -14t14 -34t-14 -34t-34 -14q-86 0 -147 -61t-61 -147q0 -20 -14 -34t-34 -14t-34 14t-14 34z" />
<glyph unicode="&#xf070;" horiz-adv-x="1920" d="M0 576q0 -37 20 -69q183 -286 472 -418q-44 -76 -44 -87q0 -18 16 -28q121 -70 134 -70q18 0 28 16l49 89q71 126 316 567t315 566q1 1 1 9q0 6 -1.5 10.5t-2.5 7t-5.5 6t-6.5 5t-9 5t-10 5.5q-22 12 -32 18q-30 18 -64 34q-14 6 -18 6q-18 0 -28 -16l-54 -97 q-94 17 -180 17q-265 0 -492.5 -134t-383.5 -373q-20 -32 -20 -69zM128 576q152 236 381 353q-61 -103 -61 -225q0 -107 49 -203t136 -159l-78 -141q-261 118 -427 375zM592 704q0 125 89.5 214.5t214.5 89.5q20 0 34 -14t14 -34t-14 -34t-34 -14q-86 0 -147 -61t-61 -147 q0 -20 -14 -34t-34 -14t-34 14t-14 34zM896 0q220 0 418 94.5t349 267.5q70 80 109 145q20 35 20 69t-20 69q-56 94 -143 183t-184 154l-63 -112q166 -116 282 -294q-123 -191 -304 -308.5t-390 -135.5zM1056 286q130 50 209 164.5t79 253.5q0 36 -8 84z" />
<glyph unicode="&#xf071;" horiz-adv-x="1920" d="M16 61q-35 -64 2 -126q17 -29 46.5 -46t63.5 -17h1536q34 0 63.5 17t46.5 46q37 62 2 126l-768 1408q-38 67 -112 67t-112 -67zM752 992q0 13 11 22.5t23 9.5h220q12 0 23 -9t11 -21l-18 -459q-1 -10 -10.5 -16.5t-23.5 -6.5h-185q-14 0 -24 6.5t-10 16.5zM768 161v190 q0 14 9.5 23.5t22.5 9.5h192q13 0 22.5 -9.5t9.5 -23.5v-190q0 -14 -9.5 -23.5t-22.5 -9.5h-192q-13 0 -22.5 9.5t-9.5 23.5z" />
<glyph unicode="&#xf072;" horiz-adv-x="1536" d="M0.5 475.5q1.5 -14.5 12.5 -21.5l252 -189l189 -252q10 -12 24 -13h2q14 0 23 9l96 96q13 13 8 31l-53 194l259 259l279 -508q6 -13 21 -16q2 -1 7 -1q12 0 19 6l128 96q17 14 12 33l-160 696l161 161q78 78 108 172t-12 148q-54 42 -148 12t-172 -108l-160 -160 l-665 159q-17 5 -30 -8l-128 -128q-11 -11 -8.5 -27t16.5 -24l508 -279l-259 -259l-194 53q-1 1 -8 1q-14 0 -23 -9l-96 -97q-10 -12 -8.5 -26.5z" />
<glyph unicode="&#xf074;" horiz-adv-x="1920" d="M0 160q0 -14 9 -23t23 -9h224q66 0 128 17q118 32 197 110q78 77 138 183q37 68 103 216q46 110 78 171q47 90 96 139q60 60 156 60h256v-192q0 -13 9.5 -22.5t22.5 -9.5q14 0 23 9l320 320q9 9 9 23t-9 23l-319 319q-11 10 -24 10q-14 0 -23 -9t-9 -23v-192h-256 q-70 0 -128 -16q-115 -32 -196 -111q-81 -80 -138 -183q-39 -69 -104 -216q-46 -110 -78 -171q-47 -90 -96 -139q-60 -60 -156 -60h-224q-14 0 -23 -9t-9 -23v-192zM0 1056q0 -14 9 -23t23 -9h224q43 0 82 -14q68 -27 114 -92q35 -50 77 -136q76 179 137 273 q-160 225 -410 225h-224q-14 0 -23 -9t-9 -23v-192zM743 353q44 -64 111 -123q34 -30 117 -68q39 -19 127 -29q58 -8 144 -6l166 1v-192q0 -13 9.5 -22.5t22.5 -9.5q14 0 23 9l320 320q9 9 9 23t-9 23l-319 319q-11 10 -24 10q-14 0 -23 -9t-9 -23v-192h-256q-44 0 -81 15 q-37 14 -62.5 34.5t-51.5 56.5q-39 55 -78 136q-74 -175 -136 -273z" />
<glyph unicode="&#xf075;" horiz-adv-x="1920" d="M0 640q0 -148 89.5 -279.5t248.5 -221.5q-20 -72 -53 -135q-26 -50 -63 -90q-6 -7 -33.5 -37t-32.5 -36q-13 -13 -15 -17l-3 -4q-3 -5 -5 -9.5t-2 -5.5l-2 -10q-3 -7 0 -12v-1q4 -18 17.5 -29t30.5 -9q58 7 114 22q263 68 460 242q80 -8 145 -8q243 0 450 86t326.5 233.5 t119.5 320.5q0 174 -120 322q-121 148 -327 233t-449 85q-180 0 -346 -50t-288 -137q-122 -88 -192 -206.5t-70 -246.5z" />
<glyph unicode="&#xf076;" d="M0 576q0 -202 99 -362q99 -162 274.5 -252t394.5 -90q221 0 396 91q176 90 274 251t98 362v128q0 26 -19 45t-45 19h-384q-26 0 -45 -19t-19 -45v-128q0 -52 -23 -90q-40 -64 -125 -87q-55 -15 -108 -15q-14 0 -44 2q-78 8 -135 43q-33 20 -55 59t-22 88v128q0 26 -19 45 t-45 19h-384q-26 0 -45 -19t-19 -45v-128zM0 960q0 -26 19 -45t45 -19h384q26 0 45 19t19 45v384q0 26 -19 45t-45 19h-384q-26 0 -45 -19t-19 -45v-384zM1024 960q0 -26 19 -45t45 -19h384q26 0 45 19t19 45v384q0 26 -19 45t-45 19h-384q-26 0 -45 -19t-19 -45v-384z" />
<glyph unicode="&#xf077;" horiz-adv-x="1792" d="M53 320q0 -54 38 -90l75 -75q36 -38 90 -38t90 38l486 485l486 -485q36 -38 90 -38q53 0 91 38l75 75q37 37 37 90t-38 91l-650 651q-38 37 -91 37t-90 -37l-651 -651q-38 -38 -38 -91z" />
<glyph unicode="&#xf078;" horiz-adv-x="1792" d="M53 832q0 -54 38 -90l651 -651q36 -38 90 -38q53 0 91 38l651 651q37 37 37 90t-37 91l-75 75q-38 37 -91 37t-90 -37l-486 -486l-486 486q-37 37 -90 37t-91 -37l-74 -75q-38 -38 -38 -91z" />
<glyph unicode="&#xf079;" horiz-adv-x="2048" d="M0 704q0 -26 19 -45t45 -19h192v-576v-11v-13q0 -6 1 -11q1 -8 9 -20q5 -9 22 -9h960q13 0 22.5 9.5t9.5 22.5q0 11 -7 21l-160 192q-9 11 -25 11h-576v384h192q26 0 45 19t19 45q0 24 -15 41l-320 384q-19 22 -49 22t-49 -22l-320 -384q-15 -17 -15 -41zM640 1120 q0 -12 7 -20l160 -192q9 -12 25 -12h576v-384h-192q-26 0 -45 -19t-19 -45q0 -24 15 -41l320 -384q20 -23 49 -23t49 23l320 384q15 17 15 41q0 26 -19 45t-45 19h-192v576v11v13q0 6 -1 12t-8 19q-6 9 -23 9h-960q-13 0 -22.5 -9.5t-9.5 -22.5z" />
<glyph unicode="&#xf07a;" horiz-adv-x="1792" d="M0 1216q0 -26 19 -45t45 -19h204l177 -823q0 -1 -2.5 -5.5t-7.5 -14t-10 -18.5q-41 -74 -41 -99q0 -26 19 -45t45 -19h1024q26 0 45 19t19 45t-19 45t-45 19h-920q24 48 24 64q0 9 -8 49q-2 6 -5 21l1044 122q25 3 41 21.5t16 42.5v512q0 26 -19 45t-45 19h-1201l-4 26 q-4 17 -6 29q-7 36 -20 51q-18 22 -49 22h-256q-26 0 -45 -19t-19 -45zM384 0q0 -53 37.5 -90.5t90.5 -37.5t90.5 37.5t37.5 90.5q0 54 -37 91t-91 37q-53 0 -90.5 -37.5t-37.5 -90.5zM1280 0q0 -53 37.5 -90.5t90.5 -37.5t90.5 37.5t37.5 90.5q0 54 -37 91t-91 37 q-53 0 -90.5 -37.5t-37.5 -90.5z" />
<glyph unicode="&#xf07b;" horiz-adv-x="1792" d="M0 224q0 -92 66 -158t158 -66h1216q92 0 158 66t66 158v704q0 92 -66 158t-158 66h-672v32q0 92 -66 158t-158 66h-320q-92 0 -158 -66t-66 -158v-960z" />
<glyph unicode="&#xf07c;" horiz-adv-x="2048" d="M0 224q0 -7 1 -12v-13l5 6l337 396q61 72 164 119.5t197 47.5h832v160q0 92 -66 158t-158 66h-544v32q0 92 -66 158t-158 66h-320q-92 0 -158 -66t-66 -158v-960zM73 56q0 -28 25 -42t62 -14h1088q66 0 143.5 35.5t120.5 86.5l336 396q31 34 31 66q0 28 -25 42t-62 14 h-1088q-66 0 -143.5 -35.5t-120.5 -86.5l-336 -396q-31 -34 -31 -66z" />
<glyph unicode="&#xf07d;" horiz-adv-x="896" d="M64 64q0 -26 19 -45l256 -256q19 -19 45 -19t45 19l256 256q19 19 19 45t-19 45t-45 19h-128v1024h128q26 0 45 19t19 45t-19 45l-256 256q-19 19 -45 19t-45 -19l-256 -256q-19 -19 -19 -45t19 -45t45 -19h128v-1024h-128q-26 0 -45 -19t-19 -45z" />
<glyph unicode="&#xf07e;" horiz-adv-x="1920" d="M0 640q0 -26 19 -45l256 -256q19 -19 45 -19t45 19t19 45v128h1024v-128q0 -26 19 -45t45 -19t45 19l256 256q19 19 19 45t-19 45l-256 256q-19 19 -45 19t-45 -19t-19 -45v-128h-1024v128q0 26 -19 45t-45 19t-45 -19l-256 -256q-19 -19 -19 -45z" />
<glyph unicode="&#xf080;" horiz-adv-x="2048" d="M0 32q0 -66 47 -113t113 -47h1600q66 0 113 47t47 113v1216q0 66 -47 113t-113 47h-1600q-66 0 -113 -47t-47 -113v-1216zM128 32v1216q0 13 9.5 22.5t22.5 9.5h1600q13 0 22.5 -9.5t9.5 -22.5v-1216q0 -13 -9.5 -22.5t-22.5 -9.5h-1600q-13 0 -22.5 9.5t-9.5 22.5z M256 128h256v384h-256v-384zM640 128h256v896h-256v-896zM1024 128h256v640h-256v-640zM1408 128h256v1024h-256v-1024z" />
<glyph unicode="&#xf081;" d="M0 160q0 -119 84.5 -203.5t203.5 -84.5h960q119 0 203.5 84.5t84.5 203.5v960q0 119 -84.5 203.5t-203.5 84.5h-960q-119 0 -203.5 -84.5t-84.5 -203.5v-960zM256 286q24 -3 50 -3q146 0 261 90q-67 1 -121 41.5t-75 104.5q23 -4 39 -4q21 0 51 8q-73 14 -123 73t-50 133 v2q50 -24 100 -26q-91 61 -91 175q0 56 29 106q79 -98 192.5 -155.5t241.5 -64.5q-5 22 -5 48q0 87 61.5 148.5t148.5 61.5q91 0 153 -66q70 14 134 51q-26 -77 -93 -117q67 9 121 34q-41 -64 -105 -109q1 -6 1 -27q0 -84 -24 -168q-51 -176 -196 -299q-71 -61 -169.5 -96 t-208.5 -35q-174 0 -322 94z" />
<glyph unicode="&#xf082;" d="M0 160q0 -119 84.5 -203.5t203.5 -84.5h960q119 0 203.5 84.5t84.5 203.5v960q0 119 -84.5 203.5t-203.5 84.5h-960q-119 0 -203.5 -84.5t-84.5 -203.5v-960zM739 618v219h131v131q0 144 67.5 214.5t216.5 70.5h175v-219h-110q-54 0 -70.5 -18.5t-16.5 -69.5v-109h198 l-23 -219h-175v-635h-262v635h-131z" />
<glyph unicode="&#xf083;" horiz-adv-x="1920" d="M0 0q0 -53 37.5 -90.5t90.5 -37.5h1536q53 0 90.5 37.5t37.5 90.5v1280q0 53 -37.5 90.5t-90.5 37.5h-1536q-53 0 -90.5 -37.5t-37.5 -90.5v-1280zM128 0v128h1536v-128h-1536zM128 1024v128h644l64 128h828v-256h-1536zM256 1216v128h384v-128h-384zM512 574 q0 159 112.5 271.5t271.5 112.5t271.5 -112.5t112.5 -271.5t-112 -271q-113 -113 -272 -113t-271.5 112.5t-112.5 271.5zM640 574q0 -106 75 -181t181 -75t181 75t75 181t-75 181t-181 75t-181 -75t-75 -181zM736 576q0 66 47 113t113 47q14 0 23 -9t9 -23t-9 -23t-23 -9 q-40 0 -68 -28t-28 -68q0 -14 -9 -23t-23 -9t-23 9t-9 23z" />
<glyph unicode="&#xf085;" horiz-adv-x="2048" d="M0 549q0 -11 7 -19.5t17 -9.5l152 -24q12 -38 35 -82q-22 -31 -47 -61q-9 -12 -17.5 -22.5t-15 -19.5t-8.5 -11q-7 -10 -7 -19q0 -27 144 -160q11 -8 21 -8q13 0 20 7l118 89q38 -20 75 -31l23 -153q1 -10 10 -17.5t20 -7.5h186q23 0 30 24q13 49 23 155q40 12 77 31 l115 -90q10 -7 21 -7q17 0 74.5 56t86.5 93q7 7 7 19q0 10 -7 20q-58 71 -90 115q21 41 32 76l155 24q9 1 16 10.5t7 19.5v185q0 24 -24 30l-152 23q-8 27 -34 82q15 22 45 60t42 54q7 10 7 19q0 27 -144 160q-11 8 -21 8q-13 0 -20 -7l-118 -89q-38 20 -75 31l-23 153 q-1 10 -10 17.5t-20 7.5h-186q-23 0 -30 -24q-13 -50 -23 -154q-39 -12 -77 -32l-115 90q-10 7 -21 7q-17 0 -76.5 -56.5t-84.5 -91.5q-7 -7 -7 -20q0 -10 7 -20q58 -71 90 -115q-21 -41 -32 -76l-155 -24q-9 -1 -16 -10.5t-7 -19.5v-185zM384 640q0 106 75 181t181 75 t181 -75t75 -181t-75 -181t-181 -75t-181 75t-75 181zM1152 58q0 -16 149 -31q11 -26 30 -52q-51 -113 -51 -138q0 -4 4 -7q122 -71 124 -71q7 0 43.5 44t54.5 71q26 -2 30 -2t30 2q18 -27 54.5 -71t43.5 -44q2 0 124 71q4 3 4 7q0 25 -51 138q19 26 30 52q149 15 149 31 v140q0 16 -149 31q-15 31 -30 52q51 113 51 138q0 4 -4 7q-119 70 -124 70l-6 -2q-40 -40 -92 -112q-26 2 -30 2t-30 -2q-18 27 -54.5 70.5t-43.5 43.5q-2 0 -30 -16l-59 -34q-8 -5 -17 -10t-13 -7.5t-5 -2.5q-4 -3 -4 -7q0 -25 51 -138q-15 -21 -30 -52q-149 -15 -149 -31 v-140zM1152 1082q0 -16 149 -31q11 -26 30 -52q-51 -113 -51 -138q0 -4 4 -7q122 -71 124 -71q7 0 43.5 44t54.5 71q26 -2 30 -2t30 2q18 -27 54.5 -71t43.5 -44q2 0 124 71q4 3 4 7q0 25 -51 138q19 26 30 52q149 15 149 31v140q0 16 -149 31q-15 31 -30 52q51 113 51 138 q0 4 -4 7q-119 70 -124 70l-6 -2q-40 -40 -92 -112q-26 2 -30 2t-30 -2q-18 27 -54.5 70.5t-43.5 43.5q-2 0 -30 -16l-59 -34q-8 -5 -17 -10t-13 -7.5t-5 -2.5q-4 -3 -4 -7q0 -25 51 -138q-15 -21 -30 -52q-149 -15 -149 -31v-140zM1408 128q0 52 38 90t90 38t90 -38t38 -90 q0 -53 -37.5 -90.5t-90.5 -37.5t-90.5 37.5t-37.5 90.5zM1408 1152q0 52 38 90t90 38t90 -38t38 -90q0 -53 -37.5 -90.5t-90.5 -37.5t-90.5 37.5t-37.5 90.5z" />
<glyph unicode="&#xf086;" horiz-adv-x="1920" d="M0 768q0 -118 70.5 -223t195.5 -178q-21 -52 -45 -82q-5 -6 -12.5 -15.5t-10.5 -13.5q-6 -8 -26 -30l-23 -25l-4 -4q-2 -3 -4 -5q-3 -3 -4 -5t-6 -11q-3 -6 -3 -12q0 -5 1 -7q2 -13 11.5 -21t20.5 -8h3q56 8 86 16q155 41 278 128q87 -16 176 -16q190 0 354 69 q163 68 256.5 186.5t93.5 256.5q0 139 -94 257t-257 186.5t-353 68.5t-353 -68q-163 -69 -257 -187.5t-94 -256.5zM616 132q201 -132 472 -132q89 0 176 16q123 -87 278 -128q30 -8 86 -16q12 -1 22 7t13 22q1 2 1 7v6l-3 6t-2 5q-2 6 -7 11l-5 5l-4 4l-23 25q-20 22 -26 30 q-2 2 -9.5 12t-12.5 17q-25 30 -46 82q125 73 195.5 177.5t70.5 223.5q0 122 -74 229t-205 179q23 -77 23 -152q0 -134 -66.5 -254t-192.5 -212q-116 -84 -264 -129t-309 -45q-36 0 -88 4z" />
<glyph unicode="&#xf087;" d="M0 128q0 -53 37.5 -90.5t90.5 -37.5h288q24 0 138 -40q133 -46 224 -67t182 -21h129q142 0 227.5 81t84.5 219q60 77 60 178q0 22 -3 43q38 68 38 144q0 36 -9 69q49 73 49 163q0 103 -76 179t-180 76h-176q48 99 48 192q0 116 -35 186q-34 67 -100 100.5t-153 33.5 q-52 0 -90 -37q-26 -26 -46 -70t-28 -77.5t-18 -86.5q-12 -60 -36 -86q-41 -44 -107 -128q-101 -131 -137 -155h-274q-53 0 -90.5 -37.5t-37.5 -90.5v-640zM128 192q0 26 19 45t45 19t45 -19t19 -45t-19 -45t-45 -19t-45 19t-19 45zM384 128v640h32q34 0 76 36q48 42 78 80 q36 44 66 83l23 30q65 79 77 91q25 26 44.5 72t26.5 76t19 87q12 59 38 85q92 0 126 -44.5t34 -147.5q0 -60 -48 -160q-48 -102 -48 -160h352q50 0 89 -38.5t39 -89.5q0 -40 -22.5 -83.5t-52.5 -44.5q15 -17 25 -47.5t10 -55.5q0 -69 -53 -119q18 -32 18 -69 q0 -38 -18 -74.5t-47 -51.5q5 -33 5 -56q0 -167 -192 -167h-121q-132 0 -342 73q-18 7 -64 23q-5 2 -20.5 7t-30 9.5t-22.5 6.5q-45 9 -65 9h-32z" />
<glyph unicode="&#xf088;" d="M0 512q0 -53 37.5 -90.5t90.5 -37.5h274q36 -24 137 -155q60 -79 107 -127q33 -37 49 -148q4 -38 25 -91q22 -53 59 -86t85 -33q84 0 151 33q137 66 137 287q0 93 -48 192h176q104 0 180 76t76 179q0 90 -49 163q9 33 9 69q0 76 -38 144q3 21 3 43q0 102 -60 178v5 q1 136 -84.5 215.5t-227.5 79.5h-112q-100 0 -193 -20.5t-230 -67.5q-114 -40 -138 -40h-288q-53 0 -90.5 -37.5t-37.5 -90.5v-640zM128 1088q0 26 19 45t45 19t45 -19t19 -45t-19 -45t-45 -19t-45 19t-19 45zM384 512v640h32q25 0 65 10q8 2 73 22q47 16 64 23 q210 73 342 73h128q89 0 137 -42t48 -125q0 -23 -5 -56q29 -15 47 -51.5t18 -74.5q0 -37 -18 -69q53 -50 53 -119q0 -25 -10 -55.5t-25 -47.5q30 -1 52.5 -44.5t22.5 -83.5q0 -51 -39 -89.5t-89 -38.5h-352q0 -58 48 -159q48 -102 48 -161q0 -103 -34 -147.5t-126 -44.5 q-26 26 -38 85q-12 57 -19 87t-26.5 76t-44.5 72q-12 12 -77 91l-23 30q-26 35 -66 84q-30 37 -78 79q-42 36 -76 36h-32z" />
<glyph unicode="&#xf089;" horiz-adv-x="1024" d="M0 889q0 -22 25 -48l364 -354l-86 -500q-2 -18 -2 -20q0 -22 11 -36t31 -14q17 0 40 12l449 236v1339q-29 0 -49 -41l-225 -455l-502 -73q-56 -9 -56 -46z" />
<glyph unicode="&#xf08a;" horiz-adv-x="1920" d="M0 940q0 -63 22.5 -134t54.5 -125q27 -45 64.5 -93t59.5 -70q18 -19 27 -26l624 -602q18 -18 44 -18t44 18l623 600q229 229 229 450q0 220 -127 344t-351 124q-124 0 -246 -79q-104 -69 -172 -137q-70 70 -171 137q-122 79 -247 79q-224 0 -351 -124t-127 -344zM128 940 q0 83 22 143q20 60 53 97t83 61q81 39 192 39q104 0 223 -89q92 -71 146 -134q18 -22 49 -22t49 22q55 64 147 134q52 40 112 64.5t110 24.5q48 0 98 -8q110 -20 176 -90q76 -85 76 -242q0 -168 -188 -356l-580 -559l-581 560q-187 187 -187 355z" />
<glyph unicode="&#xf08b;" horiz-adv-x="1792" d="M0 288q0 -119 84.5 -203.5t203.5 -84.5h320q25 0 31 26q3 20 2 50q-1 11 -1 20q0 6 -2 14q-2 4 -15 14q-5 4 -23 4h-13h-11h-288q-66 0 -113 47t-47 113v704q0 66 47 113t113 47h320q25 0 31 26q3 20 2 50q-1 11 -1 20q0 13 -9.5 22.5t-22.5 9.5h-320 q-119 0 -203.5 -84.5t-84.5 -203.5v-704zM384 448q0 -26 19 -45t45 -19h448v-288q0 -26 19 -45t45 -19t45 19l544 544q19 19 19 45t-19 45l-544 544q-19 19 -45 19t-45 -19t-19 -45v-288h-448q-26 0 -45 -19t-19 -45v-384z" />
<glyph unicode="&#xf08c;" d="M0 160v960q0 119 84.5 203.5t203.5 84.5h960q119 0 203.5 -84.5t84.5 -203.5v-960q0 -119 -84.5 -203.5t-203.5 -84.5h-960q-119 0 -203.5 84.5t-84.5 203.5zM223 1030q0 -52 36 -86t92 -34h1q58 0 94.5 34t36.5 86q-1 52 -36.5 86t-92.5 34t-94 -34t-37 -86zM237 122 h231v694h-231v-694zM595 122h231v388q0 39 11.5 65.5t40.5 50.5q30 24 74 24q116 0 116 -157v-371h231v398q0 151 -71.5 231.5t-194.5 80.5q-133 0 -207 -114v98h-231q3 -66 0 -694zM824 715l2 3v-3h-2z" />
<glyph unicode="&#xf08e;" horiz-adv-x="1920" d="M0 288q0 -119 84.5 -203.5t203.5 -84.5h832q119 0 203.5 84.5t84.5 203.5v320q0 14 -9 23t-23 9h-64q-14 0 -23 -9t-9 -23v-320q0 -66 -47 -113t-113 -47h-832q-66 0 -113 47t-47 113v832q0 66 47 113t113 47h704q14 0 23 9t9 23v64q0 14 -9 23t-23 9h-704 q-119 0 -203.5 -84.5t-84.5 -203.5v-832zM685 576q0 -13 10 -23l114 -114q10 -10 23 -10t23 10l652 652l176 -176q19 -19 45 -19t45 19t19 45v512q0 26 -19 45t-45 19h-512q-26 0 -45 -19t-19 -45t19 -45l176 -176l-652 -652q-10 -10 -10 -23z" />
<glyph unicode="&#xf090;" d="M0 448q0 -26 19 -45t45 -19h448v-288q0 -26 19 -45t45 -19t45 19l544 544q19 19 19 45t-19 45l-544 544q-19 19 -45 19t-45 -19t-19 -45v-288h-448q-26 0 -45 -19t-19 -45v-384zM895 52q1 -11 1 -20q0 -13 9.5 -22.5t22.5 -9.5h320q119 0 203.5 84.5t84.5 203.5v704 q0 119 -84.5 203.5t-203.5 84.5h-320q-25 0 -30 -26q-4 -19 -3 -50q1 -11 1 -20q0 -7 2 -13q2 -5 15 -15q5 -4 23 -4h13h11h288q66 0 113 -47t47 -113v-704q0 -66 -47 -113t-113 -47h-320q-25 0 -30 -26q-4 -19 -3 -50z" />
<glyph unicode="&#xf092;" d="M0 160q0 -119 84.5 -203.5t203.5 -84.5h224q19 0 33 2q13 2 23 14t10 32v68q-1 43 -1 103l-23 -4q-54 -9 -125 4q-38 6 -68.5 30t-42.5 61l-10 23q-11 25 -33 52.5t-42 36.5l-7 5q-7 4 -13 12q-17 19 -4 26q7 4 29 4l20 -3q23 -4 52 -25t46 -51q23 -40 55 -62t66 -22 q59 0 102 20q9 67 49 103q-57 6 -102 18q-113 30 -175 106q-73 90 -73 255q0 121 79 206q-37 90 7 204q26 8 79.5 -11t90.5 -41l42 -27q95 26 192 26t192 -26l38 24q44 27 95.5 45t77.5 10q45 -113 8 -204q79 -85 79 -206q0 -84 -20 -150q-37 -118 -134 -172 q-81 -45 -197 -57q52 -45 52 -142v-239q0 -35 21 -42q18 -6 44 -6h224q119 0 203.5 84.5t84.5 203.5v960q0 119 -84.5 203.5t-203.5 84.5h-960q-119 0 -203.5 -84.5t-84.5 -203.5v-960zM271 315q-3 -7 6 -12t14 2q3 7 -7 11t-13 -1zM303 280q3 -7 9 -9.5t10 0.5q8 5 -2 16 q-10 9 -16 3q-4 -3 -1 -10zM331.5 247q-1.5 -6 3.5 -14q6 -8 12.5 -8t8 6t-3.5 14t-12 8t-8.5 -6zM368.5 193q4.5 -8 12 -11t13.5 2q5 5 1 13t-11.5 11t-13.5 -2t-1.5 -13zM418.5 161.5q2.5 -6.5 13.5 -8.5q15 -6 19 6q3 12 -13 16q-10 2 -16 -2.5t-3.5 -11zM481 154 q0 -12 16.5 -12t16.5 12t-16.5 12t-16.5 -12zM540 158q1 -7 10 -8t16 3.5t6 10.5q-2 11 -18 8.5t-14 -14.5z" />
<glyph unicode="&#xf093;" horiz-adv-x="1792" d="M0 -32q0 -40 28 -68t68 -28h1472q40 0 68 28t28 68v320q0 40 -28 68t-68 28h-427q-21 -57 -71 -92.5t-110 -35.5h-256q-60 0 -110 35.5t-71 92.5h-427q-40 0 -68 -28t-28 -68v-320zM325 935.5q17 -39.5 59 -39.5h256v-448q0 -26 19 -45t45 -19h256q26 0 45 19t19 45v448 h256q43 0 59 40q17 40 -14 69l-448 448q-18 19 -45 19t-45 -19l-448 -448q-31 -30 -14 -69.5zM1152 64q0 26 19 45t45 19t45 -19t19 -45t-19 -45t-45 -19t-45 19t-19 45zM1408 64q0 26 19 45t45 19t45 -19t19 -45t-19 -45t-45 -19t-45 19t-19 45z" />
<glyph unicode="&#xf095;" horiz-adv-x="1536" d="M0 1069q0 -53 16 -110q11 -39 35 -103l18 -49q35 -98 83 -175q79 -128 215.5 -264.5t264.5 -215.5q77 -48 175 -83l49 -18q64 -24 103 -35q57 -16 110 -16q89 0 187.5 52.5t120.5 104.5q11 25 21 68.5t10 70.5q0 14 -3 21q-6 19 -76 53l-54 30q-66 35 -117 66l-25 18 q-41 28 -64 28q-37 0 -105 -90q-67 -91 -99 -91q-7 0 -22 5q-20 8 -45 23q-5 3 -9.5 5.5t-6.5 3.5l-3 2q-137 76 -235 174t-174 235l-2 3q-1 2 -3.5 6.5t-5.5 9.5q-12 19 -14 24q-14 25 -14 43q0 32 91 99q90 68 90 105q0 15 -7 29q-13 28 -39 60q-31 51 -66 117l-30 54 q-34 70 -53 76q-7 3 -21 3q-27 0 -70.5 -10t-68.5 -21q-52 -22 -104.5 -120.5t-52.5 -187.5z" />
<glyph unicode="&#xf096;" horiz-adv-x="1536" d="M0 288q0 -119 84.5 -203.5t203.5 -84.5h832q119 0 203.5 84.5t84.5 203.5v832q0 119 -84.5 203.5t-203.5 84.5h-832q-119 0 -203.5 -84.5t-84.5 -203.5v-832zM128 288v832q0 66 47 113t113 47h832q66 0 113 -47t47 -113v-832q0 -66 -47 -113t-113 -47h-832q-66 0 -113 47 t-47 113z" />
<glyph unicode="&#xf097;" horiz-adv-x="1408" d="M0 7q0 -33 20 -62q35 -50 96 -50q47 0 83 33l441 424l441 -424q35 -32 83 -32q23 0 44 8q33 13 52.5 41t19.5 62v1289q0 34 -19 62q-35 50 -97 50h-1048q-23 0 -44 -9q-33 -13 -52.5 -41t-19.5 -62v-1289zM128 38v1242h1024v-1242l-512 491z" />
<glyph unicode="&#xf098;" d="M0 160q0 -119 84.5 -203.5t203.5 -84.5h960q119 0 203.5 84.5t84.5 203.5v960q0 119 -84.5 203.5t-203.5 84.5h-960q-119 0 -203.5 -84.5t-84.5 -203.5v-960zM256 905q0 59 34 131q53 116 181 116q12 0 17 -2.5t16 -17.5q22 -34 25 -40q21 -40 26 -48q9 -15 25 -45 q17 -32 28 -48q20 -29 20 -46q0 -27 -65 -76q-66 -48 -66 -72q0 -12 10 -32q10 -21 18 -31q55 -99 126.5 -170.5t170.5 -126.5q10 -7 31 -18q20 -10 32 -10q15 0 44 33q64 76 85 90q11 8 19 8q17 0 46 -20q3 -2 19 -13l53 -29q72 -39 89 -49q35 -23 38 -30q2 -6 2 -16 q0 -50 -22 -101q-20 -44 -92.5 -79t-132.5 -35q-32 0 -64 8q-30 5 -63 19q-15 5 -63 23q-164 60 -320.5 216.5t-216.5 320.5q-18 48 -23 63q-14 33 -19 63q-8 32 -8 64z" />
<glyph unicode="&#xf099;" horiz-adv-x="1792" d="M44 145q224 -145 496 -145q173 0 323 55q274 98 443 356q153 236 153 508q0 33 -1 42q94 68 162 167q-90 -39 -186 -50q105 63 142 178q-96 -57 -205 -78q-96 102 -236 102q-134 0 -228.5 -94.5t-94.5 -228.5q0 -34 8 -74q-197 10 -370.5 99t-295.5 239q-44 -76 -44 -163 q0 -82 38.5 -153t105.5 -116q-78 3 -146 41v-4q0 -116 73 -205t186 -112q-44 -11 -85 -11q-24 0 -61 5q31 -97 114.5 -159.5t187.5 -64.5q-175 -138 -401 -138q-47 0 -78 4z" />
<glyph unicode="&#xf09a;" horiz-adv-x="896" d="M0 696h170v-824h341v824h227l30 284h-257v142q0 56 17 84q18 30 96 30h142v284h-227q-194 0 -281.5 -91.5t-87.5 -277.5v-171h-170v-284z" />
<glyph unicode="&#xf09b;" d="M0 640q0 -250 146 -450.5t379 -278.5q25 -5 39 6t14 31v54q-1 34 -1 89l-23 -4q-54 -9 -125 4q-38 6 -68.5 30t-42.5 61l-10 23q-11 25 -33 52.5t-42 36.5l-7 5q-7 4 -13 12q-17 19 -4 26q7 4 29 4l20 -3q23 -4 52 -25t46 -51q23 -40 55 -62t66 -22q59 0 102 20 q9 67 49 103q-57 6 -102 18q-113 30 -175 106q-73 90 -73 255q0 121 79 206q-37 90 7 204q26 8 79.5 -11t90.5 -41l42 -27q95 26 192 26t192 -26l38 24q44 27 95.5 45t77.5 10q45 -113 8 -204q79 -85 79 -206q0 -84 -20 -150q-37 -118 -134 -172q-81 -45 -197 -57 q52 -45 52 -142v-211q0 -20 13.5 -31t38.5 -6q233 78 379 278.5t146 450.5q0 210 -103 386q-103 177 -280 279.5t-385 102.5q-210 0 -385 -103q-178 -103 -280.5 -280t-102.5 -385z" />
<glyph unicode="&#xf09c;" horiz-adv-x="1792" d="M0 96q0 -40 28 -68t68 -28h960q40 0 68 28t28 68v576q0 40 -28 68t-68 28h-96v192q0 106 75 181t181 75t181 -75t75 -181v-256q0 -26 19 -45t45 -19h64q26 0 45 19t19 45v256q0 185 -131.5 316.5t-316.5 131.5t-316.5 -131.5t-131.5 -316.5v-192h-672q-40 0 -68 -28 t-28 -68v-576z" />
<glyph unicode="&#xf09d;" horiz-adv-x="2048" d="M0 32q0 -66 47 -113t113 -47h1600q66 0 113 47t47 113v1216q0 66 -47 113t-113 47h-1600q-66 0 -113 -47t-47 -113v-1216zM128 32v608h1664v-608q0 -13 -9.5 -22.5t-22.5 -9.5h-1600q-13 0 -22.5 9.5t-9.5 22.5zM128 1024v224q0 13 9.5 22.5t22.5 9.5h1600 q13 0 22.5 -9.5t9.5 -22.5v-224h-1664zM256 128h256v128h-256v-128zM640 128h384v128h-384v-128z" />
<glyph unicode="&#xf09e;" horiz-adv-x="1536" d="M0 192q0 -80 56 -136t136 -56t136 56t56 136t-56 136t-136 56t-136 -56t-56 -136zM0 697q0 -25 16.5 -43t41.5 -20q229 -22 391.5 -184.5t184.5 -391.5q2 -25 20 -41.5t43 -16.5h135q29 0 47.5 20.5t16.5 48.5q-13 160 -80.5 306t-181.5 259q-113 114 -259 181.5 t-306 80.5h-5q-27 0 -45.5 -17.5t-18.5 -46.5v-135zM0 1201q0 -25 17.5 -43.5t42.5 -19.5q212 -13 406 -100.5t339 -232.5t232.5 -339t99.5 -406q1 -25 19.5 -42.5t44.5 -17.5h143q28 0 47 20t17 47q-13 261 -120 501t-294 426q-186 187 -426 294t-501 120h-3 q-27 0 -45.5 -18.5t-18.5 -45.5v-143z" />
<glyph unicode="&#xf0a0;" d="M0 160q0 -66 47 -113t113 -47h1216q66 0 113 47t47 113v320q0 27 -16 75l-197 606q-17 53 -63 86t-101 33h-782q-55 0 -101 -33t-63 -86l-197 -606q-16 -48 -16 -75v-320zM128 160v320q0 13 9.5 22.5t22.5 9.5h1216q13 0 22.5 -9.5t9.5 -22.5v-320q0 -13 -9.5 -22.5 t-22.5 -9.5h-1216q-13 0 -22.5 9.5t-9.5 22.5zM178 640l157 482q4 13 16 21.5t26 8.5h782q14 0 26 -8.5t16 -21.5l157 -482h-1180zM880 320q0 -33 23.5 -56.5t56.5 -23.5t56.5 23.5t23.5 56.5q0 32 -23 57q-25 23 -57 23q-33 0 -56.5 -23.5t-23.5 -56.5zM1136 320 q0 -33 23.5 -56.5t56.5 -23.5t56.5 23.5t23.5 56.5q0 32 -23 57q-25 23 -57 23q-33 0 -56.5 -23.5t-23.5 -56.5z" />
<glyph unicode="&#xf0a1;" horiz-adv-x="1920" d="M0 672q0 -66 47 -113t113 -47h122q-18 -58 -22 -110q-10 -105 12 -200q17 -73 55 -183q7 -19 13 -37t10.5 -32.5t5.5 -18.5q46 -41 132 -55q89 -14 170.5 12t109.5 82q-45 36 -61 51q-64 54 -82 105q-21 60 17 123q-39 40 -40 93q-2 54 31.5 101t90.5 65 q394 -33 812 -380q52 0 90 38t38 90v384q53 0 90.5 37.5t37.5 90.5t-37.5 90.5t-90.5 37.5v384q0 52 -38 90t-90 38q-460 -384 -896 -384h-480q-66 0 -113 -47t-47 -113v-192zM768 633v270q372 40 768 343v-954q-392 299 -768 341z" />
<glyph unicode="&#xf0a3;" d="M2 435q12 -41 52 -51l188 -48l-53 -186q-12 -42 19 -70q28 -31 70 -19l186 53l48 -188q10 -41 51.5 -51.5t69.5 19.5l135 138l135 -138q19 -22 51 -22q3 0 19 2q41 12 51 52l48 188l186 -53q42 -12 70 19q31 28 19 70l-53 186l188 48q40 10 52 51q10 41 -20 70l-138 135 l138 135q30 29 20 70q-12 41 -52 51l-188 48l53 186q12 42 -19 70q-28 31 -70 19l-186 -53l-48 188q-10 41 -51 51.5t-70 -19.5l-135 -139l-135 139q-29 31 -70 20t-51 -52l-48 -188l-186 53q-42 12 -70 -19q-31 -28 -19 -70l53 -186l-188 -48q-40 -10 -52 -51 q-10 -41 20 -70l138 -135l-138 -135q-30 -29 -20 -70z" />
<glyph unicode="&#xf0a4;" horiz-adv-x="1920" d="M0 128q0 -53 37.5 -90.5t90.5 -37.5h288q58 0 223 -59q189 -69 322 -69q142 0 227.5 81t84.5 219q60 77 60 178q0 22 -3 43q32 56 37 119h169q105 0 180.5 76t75.5 181q0 103 -76 179t-180 76h-374q22 59 22 128q0 120 -80 188t-208 68q-76 0 -124 -67q-34 -46 -78 -135 q-20 -42 -33 -62q-32 -52 -100 -129q-1 -3 -14 -17q-14 -16 -39 -43q-16 -16 -47 -40q-23 -19 -45 -19h-288q-53 0 -90.5 -37.5t-37.5 -90.5v-640zM128 192q0 26 19 45t45 19t45 -19t19 -45t-19 -45t-45 -19t-45 19t-19 45zM384 128v640h32q71 0 140 57q34 28 105 110 t108 141q8 12 37 65q66 139 90 139q74 0 117 -32t43 -96q0 -82 -48 -152q-48 -72 -48 -104h576q50 0 89 -38.5t39 -89.5q0 -52 -38 -90t-90 -38h-331q15 -17 25 -47.5t10 -55.5q0 -69 -53 -119q18 -32 18 -69q0 -38 -18 -74.5t-47 -51.5q5 -33 5 -56q0 -167 -189 -167 q-26 0 -58 5t-56.5 10t-67 17.5t-60.5 18.5t-68.5 23.5t-62.5 21.5q-96 32 -167 32h-32z" />
<glyph unicode="&#xf0a5;" horiz-adv-x="1920" d="M0 769q0 -105 75.5 -181t180.5 -76h169q5 -63 37 -119q-3 -21 -3 -43q0 -102 61 -178l-1 -5q-1 -138 86 -216.5t231 -78.5q126 0 317 69q165 59 223 59h288q53 0 90.5 37.5t37.5 90.5v640q0 53 -37.5 90.5t-90.5 37.5h-288q-9 0 -21 5q-15 6 -46 32q-18 14 -45 44t-33 38 q-68 77 -100 129q-13 20 -33 62q-43 88 -77 135q-50 67 -125 67q-128 0 -208 -68t-80 -188q0 -69 22 -128h-374q-104 0 -180 -76t-76 -179zM128 768q0 51 39 89.5t89 38.5h576q0 32 -48 104q-48 70 -48 152q0 64 43 96t117 32q8 0 19 -11q13 -15 41 -66q26 -48 29 -59 q17 -33 38 -68q41 -65 112 -145l5 -5l4 -4q1 -1 3 -5q60 -68 99 -100q59 -49 130 -49h32v-640h-32q-71 0 -167 -32q-10 -3 -62 -21t-69 -23.5t-61 -19t-68 -18t-57 -9.5t-60 -5q-89 0 -136.5 42t-47.5 125q0 35 4 56q-29 15 -47 51.5t-18 74.5q0 37 18 69q-53 50 -53 119 q0 25 10 55.5t25 47.5h-331q-52 0 -90 38t-38 90zM1536 192q0 26 19 45t45 19t45 -19t19 -45t-19 -45t-45 -19t-45 19t-19 45z" />
<glyph unicode="&#xf0a6;" d="M0 640q0 -76 67 -124q46 -34 135 -78q42 -20 62 -33q52 -32 129 -100q3 -1 17 -14q16 -14 43 -39q12 -12 41 -47q18 -24 18 -45v-288q0 -53 37.5 -90.5t90.5 -37.5h640q53 0 90.5 37.5t37.5 90.5v288q0 58 59 223q69 189 69 322q0 142 -81 227.5t-219 84.5 q-76 60 -178 60q-22 0 -43 -3q-56 32 -119 37v169q0 105 -76 180.5t-181 75.5q-103 0 -179 -76t-76 -180v-374q-59 22 -128 22q-120 0 -188 -80t-68 -208zM128 640q0 74 32 117t96 43q81 0 153 -48q70 -48 103 -48v576q0 50 38.5 89t89.5 39q52 0 90 -38t38 -90v-331 q17 15 47.5 25t55.5 10q69 0 119 -53q32 18 69 18q38 0 74.5 -18t51.5 -47q33 5 56 5q167 0 167 -189q0 -26 -5 -58t-10 -56.5t-17.5 -67t-18.5 -60.5t-23.5 -68.5t-21.5 -62.5q-32 -96 -32 -167v-32h-640v32q0 71 -57 140q-28 34 -110 105t-141 108q-12 8 -65 37 q-139 66 -139 90zM1152 -64q0 26 19 45t45 19t45 -19t19 -45t-19 -45t-45 -19t-45 19t-19 45z" />
<glyph unicode="&#xf0a7;" d="M0 640q0 -128 68.5 -208t187.5 -80q75 0 128 22v-374q0 -104 76 -180t179 -76q105 0 181 75.5t76 180.5v169q66 8 119 37q21 -3 43 -3q102 0 178 61l5 -1q138 -1 216.5 86t78.5 231q0 126 -69 317q-59 165 -59 223v288q0 53 -37.5 90.5t-90.5 37.5h-640 q-53 0 -90.5 -37.5t-37.5 -90.5v-288q0 -12 -4 -21q-4 -10 -32 -46q-20 -24 -44 -45q-25 -22 -39 -33q-77 -68 -129 -100q-20 -13 -62 -33q-88 -43 -135 -77q-67 -50 -67 -125zM128 640q0 8 12 19q13 12 66 41q49 27 58 29q33 17 68 38q65 41 145 112q2 2 14 12 q68 60 100 99q49 59 49 130v32h640v-32q0 -71 32 -167q3 -10 21 -62t23.5 -69t19 -61t18 -68t9.5 -57t5 -60q0 -89 -42 -136.5t-125 -47.5q-35 0 -56 4q-15 -29 -51.5 -47t-74.5 -18q-37 0 -69 18q-50 -53 -119 -53q-56 0 -103 35v-331q0 -52 -38 -90t-90 -38 q-51 0 -89.5 39t-38.5 89v576q-33 0 -103 -48q-72 -48 -153 -48q-64 0 -96 43t-32 117zM1152 1344q0 26 19 45t45 19t45 -19t19 -45t-19 -45t-45 -19t-45 19t-19 45z" />
<glyph unicode="&#xf0a8;" d="M0 640q0 -210 103 -385q103 -178 280 -280.5t385 -102.5q210 0 386 103q177 103 279.5 280t102.5 385q0 210 -103 386q-103 177 -280 279.5t-385 102.5q-210 0 -385 -103q-178 -103 -280.5 -280t-102.5 -385zM251 640q0 27 18 45l453 453q18 18 45 18t45 -18l91 -91 q19 -19 19 -45t-19 -45l-189 -189h502q26 0 45 -19t19 -45v-128q0 -26 -19 -45t-45 -19h-502l189 -189q18 -18 18 -45t-18 -45l-91 -91q-18 -18 -45 -18t-45 18l-453 453q-18 18 -18 45z" />
<glyph unicode="&#xf0a9;" d="M0 640q0 -210 103 -385q103 -178 280 -280.5t385 -102.5q210 0 386 103q177 103 279.5 280t102.5 385q0 210 -103 386q-103 177 -280 279.5t-385 102.5q-210 0 -385 -103q-178 -103 -280.5 -280t-102.5 -385zM256 576v128q0 26 19 45t45 19h502l-189 189q-18 18 -18 45 t18 45l91 91q18 18 45 18t45 -18l453 -453q18 -18 18 -45t-18 -45l-453 -453q-18 -18 -45 -18t-45 18l-91 91q-19 19 -19 45t19 45l189 189h-502q-26 0 -45 19t-19 45z" />
<glyph unicode="&#xf0aa;" d="M0 640q0 -210 103 -385q103 -178 280 -280.5t385 -102.5q210 0 386 103q177 103 279.5 280t102.5 385q0 210 -103 386q-103 177 -280 279.5t-385 102.5q-210 0 -385 -103q-178 -103 -280.5 -280t-102.5 -385zM252 641q0 27 18 45l453 453q18 18 45 18t45 -18l453 -453 q18 -18 18 -45t-18 -45l-91 -91q-19 -19 -45 -19t-45 19l-189 189v-502q0 -26 -19 -45t-45 -19h-128q-26 0 -45 19t-19 45v502l-189 -189q-18 -18 -45 -18t-45 18l-91 91q-18 18 -18 45z" />
<glyph unicode="&#xf0ab;" d="M0 640q0 -210 103 -385q103 -178 280 -280.5t385 -102.5q210 0 386 103q177 103 279.5 280t102.5 385q0 210 -103 386q-103 177 -280 279.5t-385 102.5q-210 0 -385 -103q-178 -103 -280.5 -280t-102.5 -385zM252 639q0 27 18 45l91 91q19 19 45 19t45 -19l189 -189v502 q0 26 19 45t45 19h128q26 0 45 -19t19 -45v-502l189 189q18 18 45 18t45 -18l91 -91q18 -18 18 -45t-18 -45l-453 -453q-18 -18 -45 -18t-45 18l-453 453q-18 18 -18 45z" />
<glyph unicode="&#xf0ac;" d="M0 640q0 208 102.5 385t280.5 280q175 103 385 103q208 0 385 -102.5t280 -279.5q103 -176 103 -386q0 -208 -102.5 -385t-279.5 -280q-176 -103 -386 -103q-208 0 -385 102.5t-280 280.5q-103 175 -103 385zM226 979q6 -6 12 -8q3 -1 5 -9q1 -10 2.5 -11.5t11.5 3.5 q9 -8 3 -19q1 1 44 -27q19 -18 21 -25t-10 -14q-2 6 -14 13q-4 2 -4 0q-3 -6 0.5 -18.5t9.5 -12.5q-7 0 -8 -16q-3 -17 -3 -35q0 -21 -1 -24l2 -1q-3 -13 6 -35t21 -19q-13 -3 20 -43q4 -5 8 -9l4 -3l8 -4q20 -14 25 -21q3 -3 10 -22q6 -17 14 -24q-2 -7 10 -20 q11 -15 10 -23q-1 0 -2 -1t-3 -1q3 -7 16 -14q12 -8 15 -13l2 -10q1 -5 1.5 -8t3 -4.5t6.5 -0.5q2 20 -24 62l-17 29q-3 5 -5 16q-1 4 -3 9l-2 5q5 0 15 -5q1 0 2.5 -1t2.5 -2t2 -1q3 -2 2 -3q-5 -12 14 -36q13 -17 29 -32q8 -8 14 -19q8 -14 0 -14q8 0 19 -9.5t18 -20.5 q5 -8 8 -26q5 -29 14 -37q5 -7 12 -10q27 -14 29 -15t19 -10q24 -16 37 -16q6 0 15 3l13 3q15 2 29 -15q13 -17 21 -21q35 -19 55 -11q-2 -2 1 -7q4 -12 17 -30l5 -9q4 -6 18 -15t18 -15q5 4 7 9q-3 -8 7 -20t18 -10q14 3 14 32q-31 -15 -49 18l-2 6q-6 8 -7 17q-2 10 5 10 q9 0 10 3.5t-2 12.5l-4 13q-2 10 -11 20q-10 12 -12 15q-5 -9 -16 -8t-16 9q0 -2 -1 -5l-2 -7q-14 0 -15 1q2 3 3 18q2 22 9 34q10 18 11 27q1 6 -4.5 9.5t-17.5 2.5q-19 -1 -26 -20q-2 -3 -3 -10q-4 -14 -14 -19q-7 -3 -24 -2t-24 5q-12 8 -22 29t-10 37q0 10 3 27 q4 30 -3 49q2 1 9 10q6 7 10 10q6 2 9 2q2 -1 4 1t3 6q-1 1 -4 3t-3 3q7 -3 28 2q21 4 27 -2q15 -11 22 2l-2 10q-3 7 -1 13q5 -27 29 -9q4 -4 16 -5t17 -5q1 -1 3.5 -2.5t3.5 -2.5q6 -6 11 -4q4 2 8 6q10 -14 12 -24q10 -39 19 -44q15 -7 16 8q0 8 -2 26l-1 8v18l-1 8 q-30 6 -17 31q4 9 15 18q1 1 8 4q21 7 28 14q21 19 15 35q6 0 11 9q-1 0 -5 3q-1 1 -3.5 2.5t-3.5 2.5q-2 1 -3 1l-2 1q10 5 2 16q5 3 8 11q2 8 7 10q6 -7 13 -5.5t9.5 7.5t-0.5 12q4 6 21 11q15 3 18 9q6 -2 7.5 1t1.5 13q0 15 18 21l6 2t5 2l2 1l17 11l1 4q23 -2 31 14 q6 10 -7 17q5 9 -18 15q2 1 12 1q6 -1 12.5 2t5 7t-14.5 8q-17 5 -43 -12l-9 -9q-7 -8 -13 -10q2 2 4 5q1 3 5 11q1 5 3 7q6 8 22 15q13 6 52 12q35 8 51 -11q-2 2 9 13t15 12q5 2 15 5q11 1 15 7l2 22q-11 -1 -17 6.5t-7 21.5q0 -2 -6 -8q0 12 -16 7q-8 -2 -9 -1 q-10 3 -15 8t-8 16q-5 20 -13 26q-8 5 -10 10l-2 6q-4 8 -7 12q-4 2 -6 2q-5 0 -14 -15l-5 -5q-1 1 -10 1q-1 -1 -5 -3q-6 -6 -13 -7l-8 -1q15 5 -3 11q-10 3 -15 2q8 4 7 11.5t-8 14.5h5q-2 8 -26 17l-13 6q-9 5 -34.5 9.5t-32.5 0.5q-7 -8 0 -24q5 -18 -2 -26 q-7 -7 -7 -12q0 -7 14 -15q27 -17 -6 -38q-14 -9 -17.5 -14.5t0.5 -15.5q3 -12 10 -17q4 -4 -2 -8q-2 -2 -12 -8l-3 -2q-11 -5 -20.5 5.5t-13.5 26.5q-8 26 -16 30q-23 8 -29 -1q-6 14 -37 24.5t-62 5.5q8 1 -1 16q-7 14 -18 11q5 10 5 31q3 12 12 23q9 9 17 22q3 6 1 6 q33 -5 49 11q4 4 12 17q7 14 10 17q13 9 29 0q27 -16 30 6q2 12 -8 20q16 -1 -1 21l-4 5q-11 4 -27 -5q-7 -4 2 -8q-1 0 -9 -10q-11 -15 -17 -18.5t-16 5.5q-1 0 -5 14q-10 27 -26 -2q3 8 -10 15t-25 8q22 14 -7 27q-11 4 -21 5q-13 1 -20 -4q-11 -14 0 -19q7 -5 22 -10 q7 -2 8 -3q13 -10 8 -14q-1 -1 -8 -3q-18 -8 -18 -9q-3 -4 0 -14q3 -9 -2 -14q-5 4 -9 18q-1 4 -1 8q0 2 -2 1q-11 -1 -29 1l-10 1l-16 -2q-25 -5 -34 7q-5 8 0 20q1 3 4 2q-3 2 -11 10l-10 8q-43 -14 -94 -41q8 -1 25 8q3 2 7 3l2 2h1q35 14 42 7l5 5q18 -22 20 -25 q-7 4 -30 1q-21 -6 -22 -12q7 -11 5 -18q-3 2 -11 10q-16 15 -30 16q-18 0 -22 -1q-147 -80 -235 -222zM307 851zM878.5 84q0.5 -6 4 -10.5t9.5 -5.5q0 -6 -8 -20q-10 -16 -5 -38q205 36 351 189q-4 4 -12 5q-10 1 -13 3q-12 5 -24 8q2 14 -10 22l-13 8q-6 4 -11.5 8t-6.5 5 q-3 2 -5 4t-4 3t-5 3q-6 3 -9 2q-2 -1 -10 -1l-3 -1q-1 0 -2.5 -0.5t-2.5 -1.5l-6 -3q-2 -1 -4 -3q-1 -2 0 -3q-23 18 -36 22q-5 2 -11 6q-12 9 -20 8q-16 -2 -18 -22l-2 -13q-8 4 0 18q6 12 3 18.5t-11 4.5q-10 -2 -24 -13l-9 -7q-10 -3 -17 -13q-3 -4 -6 -12l-5 -11 q-1 4 -11 7q-7 1 -10 4q3 -24 4 -34q1 -21 5 -38q7 -32 -12 -48q-10 -10 -17.5 -19t-10.5 -17t-2.5 -14zM1041 1041q1 0 1 1zM1063 835z" />
<glyph unicode="&#xf0ae;" horiz-adv-x="1920" d="M0 64q0 -26 19 -45t45 -19h1664q26 0 45 19t19 45v256q0 26 -19 45t-45 19h-1664q-26 0 -45 -19t-19 -45v-256zM0 576q0 -26 19 -45t45 -19h1664q26 0 45 19t19 45v256q0 26 -19 45t-45 19h-1664q-26 0 -45 -19t-19 -45v-256zM0 1088q0 -26 19 -45t45 -19h1664 q26 0 45 19t19 45v256q0 26 -19 45t-45 19h-1664q-26 0 -45 -19t-19 -45v-256zM640 640v128h1024v-128h-1024zM1024 128v128h640v-128h-640zM1280 1152v128h384v-128h-384z" />
<glyph unicode="&#xf0b0;" horiz-adv-x="1536" d="M5 1240q-17 -40 14 -69l493 -493v-486q0 -26 19 -45l256 -256q18 -19 45 -19q10 0 25 5q39 17 39 59v742l493 493q31 28 14 70q-17 39 -59 39h-1280q-42 0 -59 -40z" />
<glyph unicode="&#xf0b2;" d="M0 -64q0 -26 19 -45t45 -19h448q42 0 59 39.5t-14 69.5l-144 144l355 355l355 -355l-144 -144q-31 -30 -14 -69.5t59 -39.5h448q26 0 45 19t19 45v448q0 42 -40 59t-69 -14l-144 -144l-355 355l355 355l144 -144q19 -19 45 -19q10 0 25 5q39 17 39 59v448q0 26 -19 45 t-45 19h-448q-42 0 -59 -39.5t14 -69.5l144 -144l-355 -355l-355 355l144 144q31 30 14 69.5t-59 39.5h-448q-26 0 -45 -19t-19 -45v-448q0 -43 40 -59q13 -5 24 -5q26 0 45 19l144 144l355 -355l-355 -355l-144 144q-30 31 -69.5 14t-39.5 -59v-448z" />
<glyph unicode="&#xf0c0;" horiz-adv-x="2048" d="M0 671q0 -75 54.5 -117t139.5 -42h134q104 124 265 128q-81 117 -81 256q0 24 5 66q-67 -23 -133 -23q-102 0 -216 64q-38 21 -44 21q-124 0 -124 -353zM128 1280q0 -106 75 -181t181 -75t181 75t75 181t-75 181t-181 75t-181 -75t-75 -181zM256 3q0 -119 73 -189 t194 -70h874q121 0 194 70t73 189q0 53 -3 104q-8 113 -41 217q-35 112 -105 179q-78 73 -197 73q-10 0 -43 -21q-39 -27 -73 -48q-42 -29 -109.5 -49.5t-132.5 -20.5t-132.5 20.5t-109.5 49.5q-34 21 -73 48q-33 21 -43 21q-60 0 -111 -20q-92 -37 -148 -134 q-47 -84 -69 -206q-18 -100 -18 -213zM576 896q0 -159 112.5 -271.5t271.5 -112.5t271.5 112.5t112.5 271.5q0 160 -112 272t-272 112q-159 0 -271.5 -112.5t-112.5 -271.5zM1280 1280q0 -106 75 -181t181 -75t181 75t75 181t-75 181t-181 75t-181 -75t-75 -181zM1327 640 q161 -4 265 -128h134q85 0 139.5 42t54.5 117q0 353 -124 353q-6 0 -43 -21q-114 -64 -217 -64q-66 0 -133 23q5 -42 5 -66q0 -139 -81 -256z" />
<glyph unicode="&#xf0c1;" horiz-adv-x="1792" d="M16 1088q0 -120 84 -204l208 -208q84 -84 204 -84q123 0 208 88l88 -88q-88 -85 -88 -209q0 -120 83 -203l206 -207q82 -85 204 -85q120 0 203 83l147 146q85 82 85 203q0 120 -84 204l-208 208q-84 84 -204 84q-123 0 -208 -88l-88 88q88 85 88 209q0 120 -83 203 l-206 207q-82 85 -204 85q-120 0 -203 -83l-147 -146q-85 -82 -85 -203zM208 1088q0 39 28 67l147 146q29 27 68 27q40 0 68 -28l206 -207q28 -28 28 -68q0 -41 -33 -73q-8 8 -18 19q-24 24 -41 37q-23 16 -53 16q-40 0 -68 -28t-28 -68q0 -31 17 -53q12 -17 36 -40l19 -19 q-30 -31 -72 -31q-41 0 -68 27l-208 208q-28 28 -28 68zM911 383q0 41 33 73l19 -19q23 -24 40 -36q22 -17 53 -17q40 0 68 28t28 68q0 30 -16 53q-13 17 -37 41q-11 10 -19 18q30 32 72 32q40 0 68 -28l208 -208q28 -28 28 -68q0 -39 -28 -67l-147 -146q-29 -26 -68 -26 q-41 0 -68 27l-206 207q-28 28 -28 68z" />
<glyph unicode="&#xf0c3;" horiz-adv-x="1792" d="M115.5 -64.5q34.5 -63.5 140.5 -63.5h1152q106 0 140.5 63.5t-21.5 152.5l-503 793v399h64q26 0 45 19t19 45t-19 45t-45 19h-512q-26 0 -45 -19t-19 -45t19 -45t45 -19h64v-399l-503 -793q-56 -89 -21.5 -152.5zM476 384l272 429l20 31v436h128v-436l20 -31l272 -429 h-712z" />
<glyph unicode="&#xf0c4;" horiz-adv-x="1920" d="M1 157q-11 -122 76.5 -203.5t224.5 -81.5q133 0 242.5 63t166.5 145q82 119 46 244q8 3 12 5l110 66l690 -387q14 -8 31 -8q16 0 29 7l128 64q31 17 35 51q3 37 -25 56l-507 398l507 398q28 19 25 56q-4 34 -35 51l-128 64q-13 7 -29 7q-17 0 -31 -8l-690 -387l-110 66 q-4 2 -12 5q36 125 -46 245q-56 82 -166 144.5t-243 62.5q-137 0 -222 -79q-44 -39 -63 -93q-50 -129 40 -260q56 -82 165.5 -145t243.5 -63q85 0 151 31q9 -13 22 -22l122 -73l-122 -73q-13 -9 -22 -22q-66 31 -151 31q-146 0 -278 -84q-82 -53 -131 -124t-56 -147z M168 176q26 68 113.5 122t184.5 54q74 0 113 -36q46 -42 21 -108t-106 -117q-92 -59 -192 -59q-77 0 -117.5 40t-16.5 104zM168 976q-24 64 16.5 104t117.5 40q100 0 192 -59q81 -51 106 -117t-21 -108q-39 -36 -113 -36q-97 0 -184.5 54t-113.5 122zM672 448l160 96v113 l768 431l128 -64l-736 -576l-96 32l-160 -96l-26 26q-1 1 -4.5 5t-6.5 7t-6.5 7t-4.5 5l-4 4l-3 2zM672 704l9 9l3 3l2 1q2 1 2 2l12 12q3 3 6 6.5t4 4.5l26 26l79 -47l-14 -8q-33 -19 -33 -56v-11zM896 576q0 -26 19 -45t45 -19t45 19t19 45t-19 45t-45 19t-45 -19t-19 -45 zM1018 391q12 5 13 7l177 138l520 -408l-128 -64z" />
<glyph unicode="&#xf0c5;" horiz-adv-x="1920" d="M0 224q0 -40 28 -68t68 -28h544v-288q0 -40 28 -68t68 -28h960q40 0 68 28t28 68v1216q0 40 -28 68t-68 28h-416q-61 0 -128 -40v328q0 40 -28 68t-68 28h-416q-40 0 -88 -20t-76 -48l-408 -408q-28 -28 -48 -76t-20 -88v-672zM128 256v640h416q40 0 68 28t28 68v416h384 v-416l-316 -316q-28 -28 -48 -76t-20 -88v-256h-512zM213 1024l299 299v-299h-299zM768 -128v640h416q40 0 68 28t28 68v416h384v-1152h-896zM853 640l299 299v-299h-299z" />
<glyph unicode="&#xf0c6;" horiz-adv-x="1536" d="M4 1023q0 -155 113 -271l777 -776q100 -100 235 -100q117 0 196 79t79 196q0 138 -100 235l-581 581q-62 63 -149 63q-82 0 -139 -57t-57 -139q0 -88 63 -149l410 -410q10 -10 22 -10q16 0 47 31t31 47q0 12 -10 22l-410 410q-25 26 -25 59q0 29 19 48t48 19q35 0 60 -24 l581 -581q63 -63 63 -145q0 -64 -42 -106t-106 -42q-82 0 -145 63l-776 777q-76 76 -76 181q0 106 73.5 181t178.5 75q101 0 181 -77l606 -607q10 -10 23 -10q16 0 46.5 30.5t30.5 46.5q0 12 -10 22l-605 606q-116 113 -273 113q-159 0 -269 -111t-110 -270z" />
<glyph unicode="&#xf0c7;" d="M0 -32q0 -40 28 -68t68 -28h1344q40 0 68 28t28 68v928q0 40 -20 88t-48 76l-280 280q-28 28 -76 48t-88 20h-928q-40 0 -68 -28t-28 -68v-1344zM128 0v1280h128v-416q0 -40 28 -68t68 -28h576q40 0 68 28t28 68v416q15 0 39 -10t34 -20l281 -281q10 -10 20 -34.5 t10 -38.5v-896h-128v416q0 40 -28 68t-68 28h-832q-40 0 -68 -28t-28 -68v-416h-128zM384 0v384h768v-384h-768zM640 928v320q0 13 9.5 22.5t22.5 9.5h192q13 0 22.5 -9.5t9.5 -22.5v-320q0 -13 -9.5 -22.5t-22.5 -9.5h-192q-13 0 -22.5 9.5t-9.5 22.5z" />
<glyph unicode="&#xf0c8;" d="M0 160q0 -119 84.5 -203.5t203.5 -84.5h960q119 0 203.5 84.5t84.5 203.5v960q0 119 -84.5 203.5t-203.5 84.5h-960q-119 0 -203.5 -84.5t-84.5 -203.5v-960z" />
<glyph unicode="&#xf0c9;" d="M0 64q0 -26 19 -45t45 -19h1408q26 0 45 19t19 45v128q0 26 -19 45t-45 19h-1408q-26 0 -45 -19t-19 -45v-128zM0 576q0 -26 19 -45t45 -19h1408q26 0 45 19t19 45v128q0 26 -19 45t-45 19h-1408q-26 0 -45 -19t-19 -45v-128zM0 1088q0 -26 19 -45t45 -19h1408 q26 0 45 19t19 45v128q0 26 -19 45t-45 19h-1408q-26 0 -45 -19t-19 -45v-128z" />
<glyph unicode="&#xf0ca;" horiz-adv-x="1920" d="M0 128q0 -80 56 -136t136 -56t136 56t56 136t-56 136t-136 56t-136 -56t-56 -136zM0 640q0 -80 56 -136t136 -56t136 56t56 136t-56 136t-136 56t-136 -56t-56 -136zM0 1152q0 -80 56 -136t136 -56t136 56t56 136t-56 136t-136 56t-136 -56t-56 -136zM512 32 q0 -13 9.5 -22.5t22.5 -9.5h1216q13 0 22.5 9.5t9.5 22.5v192q0 13 -9.5 22.5t-22.5 9.5h-1216q-13 0 -22.5 -9.5t-9.5 -22.5v-192zM512 544q0 -13 9.5 -22.5t22.5 -9.5h1216q13 0 22.5 9.5t9.5 22.5v192q0 13 -9.5 22.5t-22.5 9.5h-1216q-13 0 -22.5 -9.5t-9.5 -22.5v-192z M512 1056q0 -13 9.5 -22.5t22.5 -9.5h1216q13 0 22.5 9.5t9.5 22.5v192q0 13 -9.5 22.5t-22.5 9.5h-1216q-13 0 -22.5 -9.5t-9.5 -22.5v-192z" />
<glyph unicode="&#xf0cb;" horiz-adv-x="1920" d="M15 438q0 -18 6 -54h362v159h-105v-60h-127q1 41 111 103q46 26 77.5 67.5t31.5 88.5q0 70 -49 112t-124 42q-58 0 -105.5 -28.5t-71.5 -79.5l85 -59q34 58 81 58q25 0 39.5 -13.5t14.5 -38.5q0 -37 -80 -88q-33 -23 -66 -48q-80 -64 -80 -161zM19 -190q66 -66 172 -66 q83 0 136.5 46.5t53.5 125.5q0 51 -30 88t-81 49l95 115v88h-333v-152h106v53q27 0 49 1q21 1 48 1v-1q-40 -38 -79 -92l-33 -44l26 -56q105 8 105 -56q0 -27 -20.5 -42t-51.5 -15q-56 0 -106 45zM34 1400l71 -76q43 38 50 54h2v-12v-121q-1 -54 -1 -122h-107v-99h335v99 h-108v404h-106zM512 32q0 -13 9.5 -22.5t22.5 -9.5h1216q13 0 22.5 9.5t9.5 22.5v192q0 13 -9.5 22.5t-22.5 9.5h-1216q-14 0 -23 -9t-9 -23v-192zM512 544q0 -13 9.5 -22.5t22.5 -9.5h1216q13 0 22.5 9.5t9.5 22.5v192q0 13 -9.5 22.5t-22.5 9.5h-1216q-14 0 -23 -9t-9 -23 v-192zM512 1056q0 -13 9.5 -22.5t22.5 -9.5h1216q13 0 22.5 9.5t9.5 22.5v192q0 13 -9.5 22.5t-22.5 9.5h-1216q-13 0 -22.5 -9.5t-9.5 -22.5v-192z" />
<glyph unicode="&#xf0cc;" horiz-adv-x="1920" d="M0 544q0 -14 9 -23t23 -9h1728q14 0 23 9t9 23v64q0 14 -9 23t-23 9h-1728q-14 0 -23 -9t-9 -23v-64zM384 972q0 -91 48 -188q23 -46 51 -80h743q-37 24 -95 52q-103 46 -173 66q-213 62 -279 129q-66 68 -66 140q0 89 68.5 147t180.5 58q119 0 190 -70.5t123 -225.5 l14 -2l84 -6l12 3q5 30 5 45q0 55 -14 183q-11 81 -21 118q-207 67 -344 67q-127 0 -228.5 -34t-166 -93.5t-98.5 -138.5t-34 -170zM414 154q2 -64 2 -156v-13q0 -14 8 -22q14 -11 72 -28l140 -40q83 -23 195 -23q121 0 197.5 19t158.5 68q70 45 109 81q112 114 112 316 q0 56 -7 92h-411q111 -45 164.5 -97t53.5 -131q0 -67 -47 -129q-42 -56 -116 -84.5t-145 -28.5q-75 0 -132 22q-116 39 -185 151q-5 7 -12 27q-31 77 -53 127l-102 -2v-44l-2 -37q-2 -38 0 -68z" />
<glyph unicode="&#xf0cd;" d="M0 -32q0 14 9 23t23 9h1472q14 0 23 -9t9 -23v-64q0 -14 -9 -23t-23 -9h-1472q-14 0 -23 9t-9 23v64zM0 1405l3 -88q14 -3 45 -4q95 -2 118 -13q33 -14 41 -72q5 -37 5 -167v-333q0 -166 20.5 -263t78.5 -169q62 -78 181.5 -123t281.5 -45q276 0 437 122q71 56 104 110.5 t49 134.5q18 115 11 395t-18 305q0 18 -1 31q-2 26 -2 27q0 26 15 41q7 7 79 17q41 2 84 13q4 21 4 31q0 13 -6 51l-18 2q-117 -13 -196 -10l-205 10h-84l-2 -86l14 -3l100 2q44 1 70 -28t31 -94l4 -59q5 -70 14 -159q14 -137 14 -251q0 -156 -21 -229q-16 -57 -53 -114 q-19 -30 -65 -64t-99 -51q-85 -28 -191 -28q-88 0 -177 47q-136 74 -147 294l-14 280l-1 229v26q-1 13 -1 32q0 119 13 132q19 25 79 25q64 0 124 9v9l-2 64l1 14q-40 -2 -86 -2q-8 0 -27.5 -1t-52.5 -2l-66 -2q-82 -3 -168 -3q-43 0 -166 7q-47 4 -112 4q-31 0 -40 -1z" />
<glyph unicode="&#xf0ce;" horiz-adv-x="1792" d="M0 160q0 -66 47 -113t113 -47h1344q66 0 113 47t47 113v1088q0 66 -47 113t-113 47h-1344q-66 0 -113 -47t-47 -113v-1088zM128 160v192q0 14 9 23t23 9h320q14 0 23 -9t9 -23v-192q0 -14 -9 -23t-23 -9h-320q-14 0 -23 9t-9 23zM128 544v192q0 14 9 23t23 9h320 q14 0 23 -9t9 -23v-192q0 -14 -9 -23t-23 -9h-320q-14 0 -23 9t-9 23zM128 928v192q0 14 9 23t23 9h320q14 0 23 -9t9 -23v-192q0 -14 -9 -23t-23 -9h-320q-14 0 -23 9t-9 23zM640 160v192q0 14 9 23t23 9h320q14 0 23 -9t9 -23v-192q0 -14 -9 -23t-23 -9h-320q-14 0 -23 9 t-9 23zM640 544v192q0 14 9 23t23 9h320q14 0 23 -9t9 -23v-192q0 -14 -9 -23t-23 -9h-320q-14 0 -23 9t-9 23zM640 928v192q0 14 9 23t23 9h320q14 0 23 -9t9 -23v-192q0 -14 -9 -23t-23 -9h-320q-14 0 -23 9t-9 23zM1152 160v192q0 14 9 23t23 9h320q14 0 23 -9t9 -23 v-192q0 -14 -9 -23t-23 -9h-320q-14 0 -23 9t-9 23zM1152 544v192q0 14 9 23t23 9h320q14 0 23 -9t9 -23v-192q0 -14 -9 -23t-23 -9h-320q-14 0 -23 9t-9 23zM1152 928v192q0 14 9 23t23 9h320q14 0 23 -9t9 -23v-192q0 -14 -9 -23t-23 -9h-320q-14 0 -23 9t-9 23z" />
<glyph unicode="&#xf0d0;" horiz-adv-x="1792" d="M27 160q0 -27 18 -45l198 -198q18 -18 45 -18t45 18l1286 1286q18 18 18 45t-18 45l-198 198q-18 18 -45 18t-45 -18l-1286 -1286q-18 -18 -18 -45zM128 1408l98 -30l30 -98l30 98l98 30l-98 30l-30 98l-30 -98zM320 1216l196 -60l60 -196l60 196l196 60l-196 60l-60 196 l-60 -196zM768 1408l98 -30l30 -98l30 98l98 30l-98 30l-30 98l-30 -98zM1083 1062l293 293l107 -107l-293 -293zM1408 768l98 -30l30 -98l30 98l98 30l-98 30l-30 98l-30 -98z" />
</font>
</defs>
</svg>
