<?xml version="1.0" standalone="no"?>
<!DOCTYPE svg PUBLIC "-//W3C//DTD SVG 1.1//EN" "http://www.w3.org/Graphics/SVG/1.1/DTD/svg11.dtd" >
<svg xmlns="http://www.w3.org/2000/svg">
<metadata></metadata>
<defs>
<font id="pui-iconsregular" horiz-adv-x="1824" >
<font-face units-per-em="1792" ascent="1536" descent="-256" />
<missing-glyph horiz-adv-x="500" />
<glyph horiz-adv-x="1792" />
<glyph horiz-adv-x="1792" />
<glyph unicode="&#xd;" horiz-adv-x="1792" />
<glyph unicode="&#x2000;" horiz-adv-x="769" />
<glyph unicode="&#x2001;" horiz-adv-x="1538" />
<glyph unicode="&#x2002;" horiz-adv-x="769" />
<glyph unicode="&#x2003;" horiz-adv-x="1538" />
<glyph unicode="&#x2004;" horiz-adv-x="512" />
<glyph unicode="&#x2005;" horiz-adv-x="384" />
<glyph unicode="&#x2006;" horiz-adv-x="256" />
<glyph unicode="&#x2007;" horiz-adv-x="256" />
<glyph unicode="&#x2008;" horiz-adv-x="192" />
<glyph unicode="&#x2009;" horiz-adv-x="307" />
<glyph unicode="&#x200a;" horiz-adv-x="85" />
<glyph unicode="&#x202f;" horiz-adv-x="307" />
<glyph unicode="&#x205f;" horiz-adv-x="384" />
<glyph unicode="&#xe000;" horiz-adv-x="532" d="M0 0z" />
<glyph unicode="&#xf700;" d="M1792 1088v192q0 52 -17.5 94.5t-46 68.5t-62.5 45t-68 28t-62.5 14t-45.5 6h-18h-1152q-90 0 -155.5 -26.5t-96 -64t-47.5 -75t-19 -64.5l-2 -26v-192q0 -7 0.5 -18.5t7 -44.5t17.5 -63.5t35 -67t56.5 -63.5t85.5 -45t118 -18h1152q66 0 118 12t85.5 28.5t57 46t34.5 53 t17 62t7 59.5t1 59zM1600 1152q0 -52 -17.5 -94.5t-46 -68.5t-62.5 -45t-68 -28t-62.5 -14t-45.5 -6h-18h-704q-90 0 -155.5 26.5t-96 64t-47.5 75t-19 64.5l-2 26q0 5 0.5 14.5t7 36t17.5 50.5t35 53.5t56.5 51t85.5 36t118 14.5h704q7 0 18.5 -0.5t44.5 -5.5t63.5 -14 t67 -28t63.5 -45t45 -68.5t18 -94.5zM650 974q-73 0 -124.5 53t-51.5 128q0 74 51.5 127t124.5 53t124.5 -53t51.5 -127q0 -75 -51.5 -128t-124.5 -53zM1792 67v192q0 52 -17.5 94.5t-46 68.5t-62.5 45t-68 28t-62.5 14t-45.5 5l-18 1h-1152q-90 0 -155.5 -26.5t-96 -64 t-47.5 -75t-19 -63.5l-2 -27v-192q0 -7 0.5 -18.5t7 -44.5t17.5 -63.5t35 -67t56.5 -63.5t85.5 -45t118 -18h1152q66 0 118 12t85.5 28.5t57 46t34.5 53t17 62t7 59.5t1 59zM1425 -47q-73 0 -124.5 53t-51.5 128q0 74 51.5 127t124.5 53t124.5 -53t51.5 -127 q0 -75 -51.5 -128t-124.5 -53z" />
<glyph unicode="&#xf701;" d="M1208 203q-151 0 -208 -137h-311q-148 0 -148 148v368q68 -30 148 -30h311q57 -140 208 -140q95 0 161.5 66t66.5 161t-66.5 161.5t-161.5 66.5q-151 0 -208 -137h-311q-148 0 -148 148v217q136 64 136 208q0 95 -66 161.5t-161 66.5q-96 0 -162 -66.5t-66 -161.5 q0 -144 136 -208v-881q0 -62 21 -119t60.5 -104t104.5 -75t145 -28h311q57 -140 208 -140q95 0 161.5 66t66.5 161t-66.5 161.5t-161.5 66.5zM317 1303q0 56 39.5 94.5t93.5 38.5q53 0 92.5 -38t39.5 -93t-39.5 -93t-92.5 -38t-93 38.5t-40 90.5zM1208 772q54 0 93.5 -38 t39.5 -93t-39.5 -93t-93.5 -38q-53 0 -92.5 38t-39.5 93t39.5 93t92.5 38zM1208 -154q-53 0 -92.5 38t-39.5 93t39.5 93t92.5 38q54 0 93.5 -38t39.5 -93t-39.5 -93t-93.5 -38z" />
<glyph unicode="&#xf702;" d="M936 236v799q152 74 152 232q0 107 -74 180.5t-180 73.5t-179.5 -74t-73.5 -180q0 -159 152 -232v-799q-152 -72 -152 -236q0 -106 73.5 -180t179.5 -74t180 74t74 180q0 164 -152 236zM691 1267q0 63 42 105.5t101 42.5t103.5 -42t44.5 -103t-44 -103.5t-104 -42.5 q-58 0 -100.5 42t-42.5 101zM834 -144q-59 0 -101 42t-42 104q0 61 42 103t101 42t103.5 -42t44.5 -103t-44 -103.5t-104 -42.5z" />
<glyph unicode="&#xf703;" d="M706 1266q0 106 -73.5 179.5t-179.5 73.5t-179.5 -73.5t-73.5 -179.5q0 -158 152 -232v-796q-152 -74 -152 -236q0 -106 73.5 -179.5t179.5 -73.5t179.5 73.5t73.5 179.5q0 162 -152 236v796q152 74 152 232zM1397 238v796q152 74 152 232q0 106 -73.5 179.5t-179.5 73.5 t-179.5 -73.5t-73.5 -179.5q0 -158 152 -232v-796q-152 -74 -152 -236q0 -106 73.5 -179.5t179.5 -73.5t179.5 73.5t73.5 179.5q0 162 -152 236zM453 1123q-59 0 -101 42t-42 103q0 62 42 104t101 42q60 0 104 -42.5t44 -103.5t-44.5 -103t-103.5 -42zM1153 1266 q0 63 42 105.5t101 42.5q60 0 104 -42.5t44 -103.5t-44.5 -103t-103.5 -42q-58 0 -100.5 42.5t-42.5 100.5zM601 2q0 -58 -44.5 -101t-103.5 -43t-101 42.5t-42 103.5t42 103t101 42q60 0 104 -42.5t44 -104.5zM1296 -142q-59 0 -101 42.5t-42 103.5t42 103t101 42 t103.5 -42t44.5 -103t-44.5 -103.5t-103.5 -42.5z" />
<glyph unicode="&#xf704;" d="M1593 1275q0 106 -74.5 180.5t-178.5 74.5q-105 0 -180.5 -75t-75.5 -180q0 -161 150 -228q-6 -96 -60 -162q-47 -57 -94 -80.5t-171 -60.5q-15 -5 -23 -7q-217 -68 -293 -129v434q153 68 153 233q0 106 -74.5 180.5t-180.5 74.5q-105 0 -179.5 -75t-74.5 -180 q0 -166 152 -233v-802q-152 -70 -152 -239q0 -105 74.5 -180t179.5 -75q106 0 180.5 74.5t74.5 180.5q0 170 -149 234q11 79 36.5 128.5t77.5 84.5q51 32 93 48.5t142 47.5q102 29 163 56.5t141 81.5q159 101 189 360q154 63 154 233zM347 1275q0 64 42 106.5t102 42.5 q62 0 105.5 -42.5t43.5 -106.5q0 -59 -44 -102t-105 -43q-59 0 -101.5 43t-42.5 102zM1238 1175q-43 39 -43 100q0 64 42 106.5t103 42.5t105 -43t44 -106q0 -59 -44.5 -102t-104.5 -43q-58 0 -102 45zM389 -100q-42 42 -42 101q0 63 42 106t102 43q61 0 105 -43t44 -106 q0 -60 -44 -102t-105 -42q-59 0 -102 43z" />
<glyph unicode="&#xf705;" d="M1632 196v211q0 129 -85 224.5t-235 95.5h-184q-146 0 -146 96v259q133 61 133 205q0 92 -65 157.5t-157 65.5t-157.5 -65.5t-65.5 -157.5q0 -141 134 -205v-259q0 -96 -141 -96h-185q-79 0 -142 -27.5t-101.5 -73t-59 -102t-20.5 -117.5v-211q-134 -62 -134 -208 q0 -92 65.5 -157.5t157.5 -65.5q91 0 156.5 65.5t65.5 157.5q0 147 -133 208v211q0 3 7 50q8 33 44.5 64.5t93.5 31.5h185q91 0 141 22v-379q-134 -62 -134 -208q0 -92 66 -157.5t157 -65.5t156.5 65.5t65.5 157.5q0 148 -133 208v379q56 -22 146 -22h184q141 0 141 -146 v-211q-133 -61 -133 -208q0 -92 65.5 -157.5t157.5 -65.5q91 0 157 65.5t66 157.5q0 146 -134 208zM768 1287q0 55 36 93t89 38t91.5 -38.5t38.5 -92.5q0 -52 -38.5 -89t-91.5 -37t-89 36.5t-36 89.5zM373 -12q0 -53 -38 -89.5t-91 -36.5t-89 36.5t-36 89.5q0 56 36 93.5 t89 37.5t91 -38t38 -93zM1023 -12q0 -53 -38.5 -89.5t-91.5 -36.5t-89 36.5t-36 89.5q0 56 36 93.5t89 37.5t91.5 -38t38.5 -93zM1453 -100q-35 34 -35 88q0 56 36 93.5t89 37.5q52 0 90.5 -38t38.5 -93q0 -53 -38.5 -89.5t-90.5 -36.5q-51 0 -90 38z" />
<glyph unicode="&#xf706;" d="M1444 1202h301q12 0 20 -8.5t8 -19.5v-165q0 -13 -8 -20.5t-20 -7.5h-301v-303q0 -11 -9 -19.5t-20 -8.5h-165q-12 0 -20 8.5t-8 19.5v303h-302q-12 0 -20.5 8t-8.5 20v165q0 11 8.5 19.5t20.5 8.5h302v302q0 12 8 20.5t20 8.5h165q11 0 20 -9t9 -20v-302zM964 663 l-149 118q-120 -146 -282 -205v495q57 31 90 88.5t33 123.5q0 103 -71 174t-173 71q-103 0 -174.5 -71t-71.5 -174q0 -66 33 -123.5t90 -88.5v-866q-57 -32 -90 -89t-33 -123q0 -104 70 -175t173 -71t175 71.5t72 174.5q0 66 -33 123t-90 89v32q0 48 23.5 81t84.5 82 q27 22 101 72.5t131 97t91 93.5zM498 1196q-36 -36 -86 -36q-52 0 -87.5 36t-35.5 87t35.5 86.5t87.5 35.5q50 0 85.5 -36t35.5 -86q0 -51 -35 -87zM498 -95q-35 -35 -86 -35q-52 0 -87.5 35.5t-35.5 87.5q0 50 35.5 85.5t87.5 35.5q50 0 85.5 -35.5t35.5 -85.5 q0 -52 -35 -88z" />
<glyph unicode="&#xf707;" d="M1552 1060l166 95q28 17 36 48.5t-8 59.5l-40 68q-18 29 -47.5 36.5t-58.5 -8.5l-166 -94v190q0 32 -23.5 55.5t-54.5 23.5h-80q-31 0 -54.5 -23.5t-23.5 -55.5v-190l-163 94q-28 17 -61 8.5t-49 -36.5l-37 -68q-17 -29 -8.5 -60t36.5 -48l163 -95l-163 -96 q-28 -15 -36.5 -47t8.5 -61l37 -67q16 -27 49 -35.5t61 5.5l163 95v-189q0 -31 23.5 -55.5t54.5 -24.5h80q31 0 54.5 24.5t23.5 55.5v189l166 -95q28 -14 58 -5.5t48 35.5l40 67q16 29 8 61t-36 47zM946 663l-149 118q-120 -146 -282 -205v495q57 31 90 88.5t33 123.5 q0 103 -71 174t-173 71q-103 0 -174.5 -71t-71.5 -174q0 -66 33 -123.5t90 -88.5v-866q-57 -32 -90 -89t-33 -123q0 -104 70 -175t173 -71t175 71.5t72 174.5q0 66 -33 123t-90 89v32q0 48 23.5 81t84.5 82q27 22 101 72.5t131 97t91 93.5zM480 1196q-36 -36 -86 -36 q-52 0 -87.5 36t-35.5 87t35.5 86.5t87.5 35.5q50 0 85.5 -36t35.5 -86q0 -51 -35 -87zM480 -95q-35 -35 -86 -35q-52 0 -87.5 35.5t-35.5 87.5q0 50 35.5 85.5t87.5 35.5q50 0 85.5 -35.5t35.5 -85.5q0 -52 -35 -88z" />
<glyph unicode="&#xf708;" d="M1724 1149q-57 97 -152.5 152.5t-208.5 55.5q-111 0 -208 -57q-97 -56 -153 -151.5t-56 -208.5q0 -110 57 -209q56 -96 151.5 -151.5t208.5 -55.5q114 0 209 55q97 57 152.5 152.5t55.5 208.5q0 112 -56 209zM1408 89v273q0 14 -9 23t-23 9h-64q-14 0 -23 -9t-9 -23v-273 q0 -66 -47 -113t-113 -47h-832q-66 0 -113 47t-47 113v959q0 66 47 113t113 47h579q14 0 23 9t9 23v64q0 14 -9 23t-23 9h-579q-119 0 -203.5 -84.5t-84.5 -203.5v-959q0 -119 84.5 -203.5t203.5 -84.5h832q119 0 203.5 84.5t84.5 203.5z" />
<glyph unicode="&#xf709;" d="M1736 1534q25 0 41 -17.5t14 -41.5v-754q0 -15 -13 -36.5t-21 -29.5l-879 -879q-35 -35 -85 -35t-85 35l-674 675q-35 36 -35 84.5t35 83.5l879 880q6 6 29.5 20t35.5 15h753h2h3zM1672 1415h-671q-2 -1 -5 -3l-4 -2l-874 -876l675 -673l874 873l5 8v673zM1076 1052 q0 80 58.5 137t139.5 57q79 0 136.5 -57t57.5 -137t-57.5 -137t-136.5 -57q-81 0 -139.5 57t-58.5 137z" />
<glyph unicode="&#xf70a;" d="M113 456l743 744l-63 71l-747 -748q-30 -30 -30 -65.5t30 -67.5l524 -547q28 -29 68 -29q17 0 29 8t31 26zM1722 1253q19 0 32 -14t11 -33v-601q0 -12 -10.5 -30t-16.5 -23l-700 -701q-27 -27 -68 -27t-68 27l-537 539q-29 28 -29 67t29 66l700 702q33 27 53 28h600h1h3z M1671 1158h-535l-8 -4l-697 -698l539 -537l696 696q3 3 5 7v536zM1196 869q0 64 46.5 109.5t110.5 45.5q63 0 109 -45.5t46 -109.5t-46 -109.5t-109 -45.5q-64 0 -110.5 45.5t-46.5 109.5z" />
<glyph unicode="&#xf70b;" d="M1522 239l-6 758q-2 128 -38 178q-115 153 -480 153h-130v169q0 13 -8.5 21.5t-21.5 8.5t-23 -9l-250 -249q-10 -10 -10 -23q0 -11 10 -22l250 -250q10 -8 23 -8t21.5 9t8.5 22v152h130q71 0 121.5 -6t94.5 -22t69 -47.5t30 -78.5l6 -756q-151 -74 -151 -237 q0 -106 74.5 -180t179.5 -74q106 0 180 74t74 180q0 164 -154 237zM153 1038v-799q-151 -73 -151 -237q0 -107 73.5 -180.5t179.5 -73.5q107 0 180.5 74t73.5 180q0 164 -153 237v799q153 74 153 231q0 107 -73.5 180.5t-180.5 73.5q-106 0 -179.5 -73.5t-73.5 -180.5 q0 -158 151 -231zM155 1168q-43 43 -43 103q0 61 42 103.5t101 42.5q60 0 104 -43t44 -103t-43.5 -102t-104.5 -42q-60 0 -100 41zM403 2q0 -57 -44.5 -99.5t-103.5 -42.5q-60 0 -101.5 40.5t-41.5 102.5q0 61 42 103.5t101 42.5q61 0 104.5 -42.5t43.5 -104.5zM1422 -140 q-60 0 -102 41.5t-42 101.5q0 61 42.5 103.5t101.5 42.5q60 0 103.5 -43t43.5 -103t-43.5 -101.5t-103.5 -41.5z" />
<glyph unicode="&#xf70c;" d="M1638 249l-6 758q-2 130 -38 178q-25 32 -55.5 55.5t-84 47.5t-139.5 37t-201 13h-130v169q0 13 -8.5 21.5t-21.5 8.5t-23 -9l-250 -249q-10 -10 -10 -23q0 -11 10 -22l250 -250q10 -8 23 -8t21.5 9t8.5 22v152h130q56 0 100 -3.5t85.5 -13.5t69 -27t44 -44.5t16.5 -65.5 l6 -756q-151 -74 -151 -237q0 -106 74.5 -180t179.5 -74q106 0 180 74t74 180q0 164 -154 237zM154 1033l6 -758q1 -110 38 -178q81 -153 480 -153h130v-169q0 -13 8.5 -21.5t21.5 -8.5t23 9l250 249q10 10 10 23q0 11 -10 22l-250 250q-10 8 -23 8t-21.5 -9t-8.5 -22v-152 h-130q-56 0 -100 3.5t-85.5 13.5t-69 27t-44 44.5t-16.5 65.5l-6 756q151 74 151 237q0 106 -74.5 180.5t-179.5 74.5q-106 0 -180 -74t-74 -181q0 -164 154 -237zM254 1412q60 0 102 -41.5t42 -101.5q0 -61 -42.5 -103.5t-101.5 -42.5q-60 0 -103.5 43t-43.5 103 t43.5 101.5t103.5 41.5zM1538 -130q-60 0 -102 41.5t-42 101.5q0 61 42.5 103.5t101.5 42.5q60 0 103.5 -43t43.5 -103t-43.5 -101.5t-103.5 -41.5z" />
<glyph unicode="&#xf70d;" d="M1088 832l192 -192q0 -30 16 -42.5t32 0t16 42.5l448 832v-1728h-1792v64l448 640h64l128 -128q0 -30 16 -42.5t32 0t16 42.5l320 512q0 48 8 48t56 -48z" />
<glyph unicode="&#xf70e;" d="M1283 1425h-300q-33 0 -33 -33v-1432q0 -33 33 -33h300q33 0 33 33v1432q0 33 -33 33zM342 988h-300q-33 0 -33 -29v-999q0 -33 33 -33h300q33 0 33 33v999q0 29 -33 29zM1757 988h-304q-33 0 -33 -29v-999q0 -33 33 -33h304q29 0 29 33v999q0 16 -6.5 22.5t-22.5 6.5z M812 460h-300q-33 0 -33 -33v-467q0 -33 33 -33h300q34 0 34 33v467q0 15 -9 24t-25 9z" />
<glyph unicode="&#xf70f;" d="M1001 1339h-934q-16 0 -25 -9.5t-9 -25.5v-329q0 -35 34 -35h934q21 8 21 35v329q0 29 -21 35zM1660 829h-1593q-34 0 -34 -34v-330q0 -34 34 -34h1593q30 0 30 34v330q0 34 -30 34zM1211 324h-1144q-16 0 -25 -9.5t-9 -25.5v-329q0 -35 34 -35h1144q33 0 33 35v329 q0 35 -33 35z" />
<glyph unicode="&#xf710;" d="M768 896l448 -320q48 0 64 8t64 56l448 704q0 48 -8 64t-56 64q0 22 -10 26.5t-22 -2.5t-22 -16l-10 -8l-448 -704l-448 320q0 48 -8 56t-56 8v-64l-704 -1216v-64q0 -28 16 -44t32 -18l16 -2q48 0 56 8t8 56zM256 640h-128q-64 32 -107 -9q-33 -31 -26 -71 q17 -44 69 -48l128 -64zM768 448v64h-64l-128 -192h128l512 -448h64l512 448v128q-48 48 -88 48t-40 -48l-384 -384z" />
<glyph unicode="&#xf711;" d="M1519 1489h-198q-73 0 -73 -89v-1535h363v1535q0 36 -26 62.5t-66 26.5zM977 949h-198q-71 0 -71 -92v-992h360v992q0 37 -25.5 64.5t-65.5 27.5zM437 405h-198q-73 0 -73 -89v-451h361v451q0 36 -25.5 62.5t-64.5 26.5z" />
<glyph unicode="&#xf712;" d="M924 1335q72 0 122 -48q165 69 300 92q-204 115 -426 115q-143 0 -300 -56q109 -55 211 -129q43 26 93 26zM483 928q25 0 52 -8q103 106 215 193q-7 23 -7 41q0 30 11 59q-117 84 -282 151q-136 -80 -236 -218q74 -131 170 -237q35 19 77 19zM1494 1272 q-205 -23 -389 -100v-18q0 -45 -18 -78q184 -216 273 -489q119 -7 163 -111q120 12 241 45q7 76 7 122q0 377 -277 629zM302 747q0 20 15 70q-84 90 -155 207q-93 -180 -93 -381q0 -238 122 -437q35 215 148 430q-37 48 -37 111zM1194 484q22 37 48 59q-76 249 -248 444 q-48 -15 -70 -15q-55 0 -104 37q-111 -86 -181 -166q26 -54 26 -96q0 -24 -8 -56q242 -164 537 -207zM1153 362q-306 46 -573 229q-46 -26 -97 -26q-21 0 -37 4q-126 -244 -148 -507q126 -137 293 -203q211 325 562 503zM1431 240q0 -30 2 -52q1 -22 1 -52q0 -100 -11 -181 q221 157 307 429q-92 -26 -199 -33q-32 -87 -100 -111zM1242 266q-329 -158 -529 -452q98 -22 207 -22q202 0 359 78q26 121 26 266q0 52 -4 96q-31 13 -59 34z" />
<glyph unicode="&#xf713;" d="M1018 1361q-149 0 -285 -57t-235 -154t-159.5 -231.5t-64.5 -284.5h-227l337 -375l336 375h-260q6 149 81.5 273.5t201.5 196t275 71.5q113 0 216.5 -44.5t178.5 -120t119.5 -180t44.5 -218.5q0 -150 -75 -278.5t-204 -204t-280 -75.5q-186 0 -331 109l-128 -138 q210 -162 459 -162q152 0 290.5 59.5t238 160t158.5 239t59 290.5q0 203 -99.5 375.5t-271.5 273t-375 100.5zM1227 313l91 90l-237 238v373h-128v-428z" />
<glyph unicode="&#xf714;" d="M1645 1378q-37 27 -81 10l-672 -271l-674 271q-43 19 -81.5 -6.5t-38.5 -77.5v-1128q0 -61 57 -81l700 -282l19 -3h11q2 -4 7 -4q7 0 9 4h7q7 0 19 3l701 282q56 20 56 81v1128q0 52 -39 74zM239 1202l565 -226v-986l-565 225v987zM980 976l563 226v-987l-563 -225v986z M345 790l353 -141v120l-353 140v-119zM1086 649l351 141v119l-351 -140v-120zM345 423l353 -141v120l-353 141v-120zM1086 282l351 141v120l-351 -141v-120z" />
<glyph unicode="&#xf715;" d="M1651 -171v1452q0 15 -10.5 24.5t-26.5 9.5h-77v-1370q0 -42 -35 -42h-1159q-28 0 -33 31v85h1078q35 0 35 38v1413q0 36 -35 36h-133v-793q0 -11 -4 -15t-14 -4q-11 0 -14 10l-129 125q-4 8 -14 8q-4 0 -6 -8h-6l-128 -131q-6 -4 -13 -4q-11 0 -14.5 4t-3.5 15v793h-680 q-16 0 -25.5 -10t-9.5 -26v-1641q0 -16 9.5 -25.5t25.5 -9.5h1385q17 0 27 9.5t10 25.5z" />
<glyph unicode="&#xf716;" d="M1739 -171v1452q0 15 -10.5 24.5t-26.5 9.5h-77v-1370q0 -42 -35 -42h-1159q-28 0 -33 31v85h1078q35 0 35 38v1413q0 36 -35 36h-1159q-16 0 -25.5 -10t-9.5 -26v-1641q0 -16 9.5 -25.5t25.5 -9.5h1385q17 0 27 9.5t10 25.5zM1042 834h265q19 0 19 -23v-180 q0 -12 -8 -16q-6 -6 -11 -6h-265v-262q0 -9 -4 -16q-9 -5 -14 -5h-186q-7 0 -12 5q-7 9 -7 16v262h-264q-7 0 -11 6q-7 5 -7 16v180q0 23 18 23h264v261q0 21 19 21h186q18 0 18 -21v-261z" />
<glyph unicode="&#xf717;" d="M1649 1135h-1502q-50 0 -85.5 -36.5t-35.5 -86.5v-803q0 -53 35 -87.5t86 -34.5h1502q51 0 87 35t36 87v803q0 50 -36.5 86.5t-86.5 36.5zM373 785h-173v174h173v-174zM636 785h-174v174h174v-174zM897 785h-172v174h172v-174zM1160 785h-174v174h174v-174zM1249 959h347 v-174h-347v174zM286 525v173h176v-173h-176zM549 525v173h176v-173h-176zM811 525v173h175v-173h-175zM1073 525v173h176v-173h-176zM1509 698v-173h-174v173h174zM200 436h173v-174h-173v174zM462 436h873v-174h-873v174zM1421 436h175v-174h-175v174z" />
<glyph unicode="&#xf718;" d="M1538 1218h-807q-70 0 -118 -42l-576 -501q-47 -45 0 -92l576 -498q56 -48 118 -48h807q71 0 120 49.5t49 118.5v845q0 71 -49 119.5t-120 48.5zM869 291l-121 124l215 213l-215 216l121 123l216 -214l217 214l121 -123l-216 -216l216 -213l-121 -124l-217 214z" />
<glyph unicode="&#xf719;" d="M1252 1317h-709q-24 -4 -45 -28t-21 -61h861q0 35 -21.5 59t-39.5 30h-25zM1508 971v86q0 34 -22 58.5t-40 27.5h-24h-1050q-24 -3 -45 -26.5t-21 -59.5v-86h1202zM1629 884h-1444v137l-53 -50q-5 -8 -18 -18q-9 -8 -16.5 -15.5t-12 -13t-5.5 -6.5q-4 -6 -8.5 -16 t-10 -27.5t-5 -38.5t9.5 -39q5 -20 69 -391q17 -100 32 -189t23.5 -139.5t9.5 -57.5q17 -86 106 -86h1226q24 3 50 26.5t34 59.5l130 777q12 60 1.5 90.5t-67.5 83.5l-51 50v-137zM1252 504l-3 -25q0 -23 -23.5 -42.5t-58.5 -19.5h-520q-84 0 -84 87v172h119v-138h449v138 h121v-172z" />
<glyph unicode="&#xf71a;" d="M1245 161h-155q-25 0 -25 -26v-182h-853v1274h100v-67q0 -34 40 -34h571q40 0 40 34v67h102v-179q0 -29 25 -29h155q24 0 24 29v276q0 48 -32 76q-31 31 -74 31h-303v78q0 29 -32 29h-380q-13 0 -21 -8.5t-8 -20.5v-78h-303q-46 0 -72 -31q-34 -28 -34 -76v-1466 q0 -49 34 -79q25 -30 72 -30h1047q44 0 74 30q32 29 32 79v277q0 26 -24 26zM714 825v51q0 27 -28 27h-380q-27 0 -27 -27v-51q0 -22 27 -22h380q28 0 28 22zM1746 527v145q0 10 -6.5 17t-16.5 7h-672v169q0 16 -15 22.5t-26 -4.5l-291 -268q-8 -8 -8 -18q0 -8 8 -18 l291 -264q11 -11 26 -4.5t15 22.5v170h672q23 0 23 24zM596 548v50q0 28 -28 28h-262q-27 0 -27 -28v-50q0 -24 27 -24h262q28 0 28 24zM714 228v51q0 23 -28 23h-380q-27 0 -27 -23v-51q0 -23 27 -23h380q28 0 28 23z" />
<glyph unicode="&#xf71b;" d="M1612 1337h-1429q-73 0 -125.5 -52.5t-52.5 -127.5v-1071q0 -72 53 -125.5t125 -53.5h1429q74 0 126 53t52 126v1071q0 76 -51.5 128t-126.5 52zM183 1157h1429v-1071h-1429v1071zM361 811h447v161h-447v-161zM1425 401l-38 14q-44 12 -80 41.5t-36 62.5q0 27 51 99 q50 71 50 158q0 196 -161 196t-161 -196q0 -83 51 -158q46 -65 46 -99q0 -81 -150 -118q-10 0 -10 -125h445zM361 544h447v160h-447v-160zM361 276h447v160h-447v-160z" />
<glyph unicode="&#xf71c;" d="M1393 1275q0 106 -74.5 180.5t-178.5 74.5q-105 0 -180.5 -75t-75.5 -180q0 -161 150 -228q-6 -96 -60 -162q-47 -57 -94 -80.5t-171 -60.5q-15 -5 -23 -7q-217 -68 -293 -129v434q153 68 153 233q0 106 -74.5 180.5t-180.5 74.5q-105 0 -179.5 -75t-74.5 -180 q0 -166 152 -233v-802q-152 -70 -152 -239q0 -105 74.5 -180t179.5 -75q106 0 180.5 74.5t74.5 180.5q0 170 -149 234q11 79 36.5 128.5t77.5 84.5q51 32 93 48.5t142 47.5q102 29 163 56.5t141 81.5q159 101 189 360q154 63 154 233zM147 1275q0 64 42 106.5t102 42.5 q62 0 105.5 -42.5t43.5 -106.5q0 -59 -44 -102t-105 -43q-59 0 -101.5 43t-42.5 102zM1038 1175q-43 39 -43 100q0 64 42 106.5t103 42.5t105 -43t44 -106q0 -59 -44.5 -102t-104.5 -43q-58 0 -102 45zM1444 302h301q12 0 20 -8.5t8 -19.5v-165q0 -13 -8 -20.5t-20 -7.5 h-301v-303q0 -11 -9 -19.5t-20 -8.5h-165q-12 0 -20 8.5t-8 19.5v303h-302q-12 0 -20.5 8t-8.5 20v165q0 11 8.5 19.5t20.5 8.5h302v302q0 12 8 20.5t20 8.5h165q11 0 20 -9t9 -20v-302zM189 -100q-42 42 -42 101q0 63 42 106t102 43q61 0 105 -43t44 -106q0 -60 -44 -102 t-105 -42q-59 0 -102 43z" />
<glyph unicode="&#xf71d;" d="M30 1308h1738v-1521h-1738v1521zM1659 1199h-1521v-1303h1521v1303zM1550 4h-1303v1087h1303v-1087zM790 656h-109v109h-108v108h-109v-108h109v-109h108v-108h-108v-109h-109v-109h109v109h108v109h109v108zM1225 439h-326v-109h326v109z" />
<glyph unicode="&#xf71e;" d="M215 1427h-169v-1634h1707v166h-1538v1468zM505 99q64 0 109 45t45 108q0 44 -25 84l164 274h14h13l165 -274q-25 -38 -25 -84q0 -63 44.5 -108t108.5 -45t108.5 45t44.5 108q0 46 -26 87l271 475h11q63 0 108 45t45 108q0 64 -45 108.5t-108 44.5q-64 0 -109 -44.5 t-45 -108.5q0 -48 27 -86l-272 -476h-10h-13l-165 274q25 37 25 84q0 64 -45 108.5t-108 44.5q-64 0 -108.5 -44.5t-44.5 -108.5q0 -46 24 -84l-164 -274h-14q-63 0 -108 -44.5t-45 -108.5q0 -63 45 -108t108 -45z" />
<glyph unicode="&#xf71f;" d="M198 1427h-169v-1634h1714v166h-1545v1468zM1449 1184h-156q-58 0 -58 -70v-1008h286v1008q0 28 -20.5 49t-51.5 21zM592 959h-156q-56 0 -56 -72v-781h284v781q0 29 -20.5 50.5t-51.5 21.5zM1010 697h-156q-57 0 -57 -70v-521h284v521q0 29 -20 49.5t-51 20.5z" />
<glyph unicode="&#xf720;" d="M1756 -41v-166h-1710v1634h169v-1468h1541zM1583 145h-1225v43l306 439h42l90 -90q0 -20 11 -28t22 0t11 28l218 351q0 35 5 35q7 -1 38 -35l132 -130q0 -21 10.5 -30t21.5 0t11 30l307 569v-1182z" />
<glyph unicode="&#xf721;" d="M1363 745h108q44 0 76 -32t32 -76v-757q0 -44 -32 -76t-76 -32h-1081q-44 0 -76 32t-32 76v757q0 44 32 76t76 32h108v324q0 179 126.5 305.5t305.5 126.5t306 -126.5t127 -305.5v-324zM1147 745v324q0 89 -63.5 152.5t-153.5 63.5q-89 0 -152.5 -63.5t-63.5 -152.5v-324 h433zM930 96q45 0 76.5 32t31.5 76q0 45 -31.5 77t-76.5 32q-44 0 -76 -32t-32 -77q0 -44 32 -76t76 -32z" />
<glyph unicode="&#xf722;" d="M1193 1450h220q137 0 233.5 -97t96.5 -233v-330h-221v330q0 46 -32 78.5t-77 32.5h-220q-46 0 -78.5 -32.5t-32.5 -78.5v-330h28q34 0 58.5 -24.5t24.5 -58.5v-825q0 -34 -24.5 -58.5t-58.5 -24.5h-936q-34 0 -58.5 24.5t-24.5 58.5v825q0 34 24.5 58.5t58.5 24.5h688 v330q0 137 97 233.5t234 96.5zM752 19l-48 240q48 33 48 91q0 46 -32.5 78t-78.5 32q-45 0 -77 -32t-32 -78q0 -57 47 -91l-47 -240h220z" />
<glyph unicode="&#xf723;" d="M109 1382v-1575h1575v1575h-1575zM1585 -95h-1378v1378h1378v-1378zM601 988v98h-295v-393h196v97h-98v198h197zM699 988h197v98h-197v-98zM995 988h196v98h-196v-98zM1290 1086v-98h98v-198h-197v-97h296v393h-197zM601 693h197v97h-197v-97zM896 693h197v97h-197v-97z M601 397v99h-295v-394h196v98h-98v197h197zM699 397h197v99h-197v-99zM995 397h196v99h-196v-99zM1290 496v-99h98v-197h-197v-98h296v394h-197zM601 102h197v98h-197v-98zM896 102h197v98h-197v-98z" />
<glyph unicode="&#xf724;" d="M192 1536h1280q48 0 88 -40t40 -88v-1280q0 -48 -40 -88t-88 -40h-576v-256l-192 192l-192 -192v256h-320v1536zM1472 1408h-1024v-960h1024v960zM704 1184h-96v96h96v-96zM704 992h-96v96h96v-96zM704 800h-96v96h96v-96zM704 608h-96v96h96v-96zM1472 320h-1152v-192 h192v96h384v-96h576v192z" />
<glyph unicode="&#xf725;" d="M1344 608h128v-480q0 -48 -40 -88t-88 -40h-576v-256l-192 192l-192 -192v256h-320v1536h800v-128h-544v-960h1024v160zM1792 1248v-192h-320v-320h-192v320h-320v192h320v288h192v-288h320zM576 1184h-96v96h96v-96zM576 992h-96v96h96v-96zM576 800h-96v96h96v-96z M480 704h96v-96h-96v96zM1344 320h-1152v-192h192v96h384v-96h576v192z" />
<glyph unicode="&#xf726;" d="M192 1536h1280q48 0 88 -40t40 -88v-1280q0 -48 -40 -88t-88 -40h-576v-256l-192 192l-192 -192v256h-320v1536zM1472 1408h-1024v-960h1024v960zM864 864l-224 288l128 96l192 -256l224 256l128 -96l-256 -288v-288h-192v288zM1472 320h-1152v-192h192v96h384v-96h576 v192z" />
<glyph unicode="&#xf727;" d="M1344 576h128v-448q0 -48 -40 -88t-88 -40h-576v-256l-192 192l-192 -192v256h-320v1536h768v-128h-512v-960h1024v128zM1637 1175h18q22 0 37.5 -16t15.5 -38v-324q0 -22 -15.5 -38t-37.5 -16h-540q-22 0 -37.5 16t-15.5 38v324q0 22 15.5 38t37.5 16h18v108 q0 103 74.5 177t177.5 74t177.5 -74t74.5 -177v-108zM1529 1175v108q0 59 -42 101t-102 42q-59 0 -101.5 -42t-42.5 -101v-108h288zM576 1184h-96v96h96v-96zM576 992h-96v96h96v-96zM576 800h-96v96h96v-96zM480 704h96v-96h-96v96zM1344 320h-1152v-192h192v96h384v-96 h576v192z" />
<glyph unicode="&#xf728;" d="M1531 1538q104 0 178 -73.5t74 -176.5v-145q0 -15 -10.5 -25.5t-26.5 -10.5h-36q-15 0 -25.5 10.5t-10.5 25.5v145q0 60 -41.5 101t-101.5 41t-102.5 -41t-42.5 -101v-109h54q22 0 38.5 -16.5t16.5 -38.5v-324q0 -22 -16 -37.5t-39 -15.5h-542q-21 0 -36.5 15.5 t-15.5 37.5v324q0 22 15.5 38.5t36.5 16.5h381v109q0 103 73.5 176.5t178.5 73.5zM1344 576h128v-448q0 -48 -40 -88t-88 -40h-576v-256l-192 192l-192 -192v256h-320v1536h768v-128h-512v-960h1024v128zM576 1184h-96v96h96v-96zM576 992h-96v96h96v-96zM576 800h-96v96h96 v-96zM480 704h96v-96h-96v96zM1344 320h-1152v-192h192v96h384v-96h576v192z" />
<glyph unicode="&#xf729;" d="M619 1308q-44 64 -114 101t-151 37q-135 0 -230 -95t-95 -230q0 -81 37 -151t101 -114q59 156 177.5 274.5t274.5 177.5zM1436 1446q-81 0 -151 -37t-115 -101q156 -59 275 -177.5t178 -274.5q64 44 101 114t37 151q0 135 -95.5 230t-229.5 95zM895 1230q176 0 325.5 -87 t236.5 -236.5t87 -326.5q0 -234 -148 -412l40 -345h-108l-108 195q-149 -87 -325 -87t-325 87l-108 -195h-108l39 345q-148 180 -148 412q0 132 51.5 252.5t138.5 207.5t207.5 138.5t252.5 51.5zM895 147q179 0 306 127t127 306t-127 306t-306 127t-306 -127t-127 -306 t127 -306t306 -127zM1003 905h-216v-370l248 -248l153 153l-185 185v280z" />
<glyph unicode="&#xf72a;" d="M729 1352q-166 -34 -306 -128t-234 -232q-43 76 -43 162q0 134 95.5 229.5t229.5 95.5q77 0 144.5 -34t113.5 -93zM1621 992q-94 138 -234 232t-306 128q46 59 113.5 93t144.5 34q134 0 229.5 -95.5t95.5 -229.5q0 -86 -43 -162zM905 1262q154 0 294.5 -60t242.5 -162 t162 -242.5t60 -294.5t-60 -294.5t-162 -242.5t-242.5 -162t-294.5 -60t-294.5 60t-242.5 162t-162 242.5t-60 294.5t60 294.5t162 242.5t242.5 162t294.5 60zM905 -107q124 0 237 48.5t194.5 130t130 194.5t48.5 237t-48.5 237t-130 194.5t-194.5 130t-237 48.5t-237 -48.5 t-194.5 -130t-130 -194.5t-48.5 -237t48.5 -237t130 -194.5t194.5 -130t237 -48.5zM905 503h325v-108h-433v542h108v-434z" />
<glyph unicode="&#xf72b;" d="M1674 1489v-1697h-1592v1697h213v-106h212v106h742v-106h212v106h213zM1567 1065h-1379v-1167h1379v1167zM613 640h212v213h-212v-213zM931 640h212v213h-212v-213zM1249 640h212v213h-212v-213zM295 322h212v212h-212v-212zM613 322h212v212h-212v-212zM931 322h212v212 h-212v-212zM1249 322h212v212h-212v-212zM295 4h212v212h-212v-212zM613 4h212v212h-212v-212zM931 4h212v212h-212v-212z" />
<glyph unicode="&#xf72c;" d="M506 1171q-22 0 -38 16t-16 38v216q0 23 16 38.5t38 15.5t37.5 -16t15.5 -38v-216q0 -22 -15.5 -38t-37.5 -16zM1260 1171q-22 0 -37.5 16t-15.5 38v216q0 22 15.5 38t37.5 16t38 -15.5t16 -38.5v-216q0 -22 -16 -38t-38 -16zM1368 1279h162q44 0 76 -31.5t32 -76.5 v-1186q0 -51 -41 -84v-24q0 -44 -31.5 -75.5t-75.5 -31.5h-1214q-44 0 -75.5 31.5t-31.5 75.5v24q-41 33 -41 84v1186q0 45 32 76.5t76 31.5h162v-54q0 -44 31.5 -75.5t76.5 -31.5q44 0 75.5 31.5t31.5 75.5v54h540v-54q0 -44 31.5 -75.5t75.5 -31.5q45 0 76.5 31.5 t31.5 75.5v54zM236 -14v-1h1294v1v970h-1294v-970zM452 848h539v-755h-539v108h431v216h-431v107h431v216h-431v108zM1099 848h215v-755h-107v647h-108v108zM276 -163h1214q35 0 62.5 15.5t38.5 43.5q-29 -19 -61 -19h-1294q-32 0 -61 19q11 -28 38.5 -43.5t62.5 -15.5z" />
<glyph unicode="&#xf72d;" d="M892 1459q169 0 323 -66t265 -177t177 -264.5t66 -322.5t-66 -323t-177 -265t-265 -177t-323 -66t-322.5 66t-264.5 177t-177 265t-66 323t66 322.5t177 264.5t264.5 177t322.5 66zM892 6q169 0 312.5 83.5t227 227t83.5 312.5t-83.5 312.5t-227 227t-312.5 83.5 t-312.5 -83.5t-227 -227t-83.5 -312.5t83.5 -312.5t227 -227t312.5 -83.5zM788 1044q0 43 30.5 73.5t73.5 30.5t73.5 -30.5t30.5 -73.5t-30.5 -73.5t-73.5 -30.5t-73.5 30.5t-30.5 73.5zM477 940q0 43 30.5 73.5t73.5 30.5t73.5 -30.5t30.5 -73.5t-30.5 -73.5t-73.5 -30.5 t-73.5 30.5t-30.5 73.5zM1100 940q0 43 30.5 73.5t73.5 30.5t73.5 -30.5t30.5 -73.5t-30.5 -73.5t-73.5 -30.5t-73.5 30.5t-30.5 73.5zM892 836l104 -519v-104h-208v104z" />
<glyph unicode="&#xf72e;" d="M1275 1260v-206h-825v206h206v103q0 43 30 73t73 30h207q43 0 73 -30t30 -73v-103h206zM966 1363h-207v-103h207v103zM1584 1260v-1238q0 -85 -60.5 -145.5t-145.5 -60.5h-1031q-85 0 -145.5 60.5t-60.5 145.5v1238h206v-1237v-1h1031v1238h206zM1296 775l-94 94 l-443 -391l-236 185l-94 -95l330 -382z" />
<glyph unicode="&#xf72f;" d="M1108 1282l-268 -1286h-161l268 1286h161zM679 210h-214l-429 429l429 429h214l-429 -429zM1751 639l-429 -429h-214l428 429l-428 429h214z" />
<glyph unicode="&#xf730;" d="M1756 850l-114 -21q-4 -28 -8 -40l98 -63l-42 -99l-113 24q-7 -12 -23 -34l66 -95l-76 -77l-95 66q-4 -3 -34 -22l24 -114l-100 -41l-62 97q-30 -6 -41 -8l-20 -113h-108l-21 113q-14 2 -40 8l-63 -97l-100 41l25 114q-19 11 -34 22l-95 -66l-77 77l66 95q-16 22 -23 34 l-113 -24l-41 99l97 63q-6 24 -8 40l-114 21v108l114 21q2 16 8 40l-97 63l41 99l113 -24q7 12 23 34l-66 95l77 77l95 -66q15 11 34 22l-25 113l100 42l63 -97q26 6 40 8l21 113h108l21 -113q16 -2 40 -8l62 97l100 -42l-24 -113q30 -19 34 -22l95 66l76 -77l-66 -95 q16 -22 23 -34l113 24l42 -99l-98 -63q4 -12 8 -40l114 -21v-108zM1162 669q98 0 166.5 68.5t68.5 166.5t-68.5 166.5t-166.5 68.5t-166.5 -68.5t-68.5 -166.5t68.5 -166.5t166.5 -68.5zM711 377l-70 -98q15 -28 24 -58l119 -19v-109l-119 -19q-9 -30 -24 -58l70 -98 l-76 -76l-98 69q-28 -15 -58 -23l-20 -119h-108l-20 119q-28 7 -57 23l-98 -69l-76 76l69 98q-15 28 -24 58l-118 19v109l118 19q9 30 24 58l-69 98l76 76l98 -70q32 18 57 24l20 119h108l20 -119q27 -7 58 -24l98 70zM405 39q45 0 76.5 32t31.5 76q0 45 -31.5 77t-76.5 32 q-44 0 -76 -32t-32 -77q0 -44 32 -76t76 -32z" />
<glyph unicode="&#xf731;" d="M319 -195h1196q35 0 60 25t25 60q0 92 -36.5 197t-101.5 200q-111 160 -258 230q63 58 108 139q71 133 71 287q0 220 -132 377q-66 79 -152.5 121.5t-181.5 42.5t-181.5 -42.5t-152.5 -121.5q-132 -157 -132 -377q0 -154 71 -287q45 -81 108 -139q-147 -70 -258 -230 q-65 -95 -101.5 -200t-36.5 -197q0 -35 25 -60t60 -25zM1418 -24h-1002q26 111 97 214q115 166 259 197q29 7 48 30t19 54v61q0 50 -43 74q-79 45 -126.5 136.5t-47.5 200.5q0 153 86.5 261.5t208.5 108.5t208.5 -108.5t86.5 -261.5q0 -109 -47.5 -200.5t-126.5 -136.5 q-43 -24 -43 -74v-61q0 -31 19 -54t48 -30q144 -31 259 -197q71 -103 97 -214z" />
<glyph unicode="&#xf732;" d="M221 100h152q-22 -78 -27 -154h-212q-32 0 -54.5 23t-22.5 54q0 82 33 177t92 180q100 146 232 208q-58 54 -97 125q-64 119 -64 259q0 197 118 340q124 147 302 147q91 0 172 -42q-79 -43 -143 -114q-14 3 -29 3q-110 0 -188 -98t-78 -236q0 -97 43 -180t114 -124 q39 -23 39 -67v-55q0 -27 -17 -48t-44 -27q-131 -28 -233 -178q-64 -93 -88 -193zM545 -156h1077q32 0 54.5 22.5t22.5 53.5q0 83 -33 177.5t-92 180.5q-98 143 -232 208q57 51 97 125q64 117 64 259q0 198 -118 339q-125 148 -302 148q-86 0 -164 -38.5t-137 -109.5 q-119 -141 -119 -339q0 -142 64 -259q40 -74 97 -125q-132 -65 -232 -208q-58 -85 -91 -180t-33 -178q0 -32 22.5 -54t54.5 -22zM1535 -3h-904q24 101 88 194q102 149 233 177q27 6 44 27t17 49v55q0 44 -39 67q-71 41 -114 123.5t-43 180.5q0 137 78 235t188 98t188 -98 t78 -235q0 -98 -43 -180.5t-114 -123.5q-39 -23 -39 -67v-55q0 -28 17 -49t44 -27q131 -28 233 -177q64 -93 88 -194z" />
<glyph unicode="&#xf733;" d="M1206 1481l417 -416l-417 -416v312h-1145v208h1145v312zM1727 1481v-832h-104v832h104zM165 649v-833h-104v833h104zM582 336h1145v-208h-1145v-312l-417 416l417 417v-313z" />
<glyph unicode="&#xf734;" />
<glyph unicode="&#xf735;" d="M256 1408h1280q48 0 88 -40t40 -88v-1280q0 -48 -40 -88t-88 -40h-1280q-48 0 -88 40t-40 88v1280q0 48 40 88t88 40zM768 320v64h-128q-3 0 -7 -0.5t-15 -4t-19.5 -9.5t-15.5 -19t-7 -31v-320h64v128h128v64h-128v128h128zM1024 0v320q0 28 -16 44t-32 18l-16 2h-128 v-64h128v-320h64zM1280 256v64q0 3 -0.5 7t-4 15t-9.5 19.5t-19 15.5t-31 7h-64q-3 0 -7 -0.5t-15 -4t-19.5 -9.5t-15.5 -19t-7 -31h128v-64h-64v-64h64v-128h-64v64h-64v-64q0 -3 0.5 -7t4 -15t9.5 -19.5t19 -15.5t31 -7h64q3 0 7 0.5t15 4t19.5 9.5t15.5 19t7 31v128 q0 48 -4 52t-28 -20zM1536 320v64h-128q-3 0 -7 -0.5t-15 -4t-19.5 -9.5t-15.5 -19t-7 -31v-320h64v128h128v64h-128v128h128z" />
<glyph unicode="&#xf736;" d="M256 1408h1280q48 0 88 -40t40 -88v-1280q0 -48 -40 -88t-88 -40h-1280q-48 0 -88 40t-40 88v1280q0 48 40 88t88 40zM768 320v64h-128q-3 0 -7 -0.5t-15 -4t-19.5 -9.5t-15.5 -19t-7 -31v-320h64v128h128v64h-128v128h128zM1024 0v320q0 28 -16 44t-32 18l-16 2h-128 v-64h128v-320h64zM1280 256v64q0 3 -0.5 7t-4 15t-9.5 19.5t-19 15.5t-31 7h-64q-3 0 -7 -0.5t-15 -4t-19.5 -9.5t-15.5 -19t-7 -31h128v-64h-64v-64h64v-128h-64v64h-64v-64q0 -3 0.5 -7t4 -15t9.5 -19.5t19 -15.5t31 -7h64q3 0 7 0.5t15 4t19.5 9.5t15.5 19t7 31v128 q0 48 -4 52t-28 -20zM1536 320v64h-128q-3 0 -7 -0.5t-15 -4t-19.5 -9.5t-15.5 -19t-7 -31v-320h64v128h128v64h-128v128h128z" />
<glyph unicode="&#xf737;" />
<glyph unicode="&#xf738;" />
<glyph unicode="&#xf739;" />
<glyph unicode="&#xf73a;" d="M256 1408h1280q48 0 88 -40t40 -88v-1280q0 -48 -40 -88t-88 -40h-1280q-48 0 -88 40t-40 88v1280q0 48 40 88t88 40zM768 320v64h-128q-3 0 -7 -0.5t-15 -4t-19.5 -9.5t-15.5 -19t-7 -31v-320h64v128h128v64h-128v128h128zM1024 0v320q0 28 -16 44t-32 18l-16 2h-128 v-64h128v-320h64zM1280 256v64q0 3 -0.5 7t-4 15t-9.5 19.5t-19 15.5t-31 7h-64q-3 0 -7 -0.5t-15 -4t-19.5 -9.5t-15.5 -19t-7 -31h128v-64h-64v-64h64v-128h-64v64h-64v-64q0 -3 0.5 -7t4 -15t9.5 -19.5t19 -15.5t31 -7h64q3 0 7 0.5t15 4t19.5 9.5t15.5 19t7 31v128 q0 14 -8 22t-16 9l-8 1q4 0 9 1t14 9t9 22zM1536 320v64h-128q-3 0 -7 -0.5t-15 -4t-19.5 -9.5t-15.5 -19t-7 -31v-320h64v128h128v64h-128v128h128z" />
<glyph unicode="&#xf73b;" d="M256 1408h1280q48 0 88 -40t40 -88v-1280q0 -48 -40 -88t-88 -40h-1280q-48 0 -88 40t-40 88v1280q0 48 40 88t88 40zM768 320v64h-128q-3 0 -7 -0.5t-15 -4t-19.5 -9.5t-15.5 -19t-7 -31v-320h64v128h128v64h-128v128h128zM1024 0v320q0 28 -16 44t-32 18l-16 2h-128 v-64h128v-320h64zM1280 256v64q0 3 -0.5 7t-4 15t-9.5 19.5t-19 15.5t-31 7h-64q-3 0 -7 -0.5t-15 -4t-19.5 -9.5t-15.5 -19t-7 -31h128v-64h-64v-64h64v-128h-64v64h-64v-64q0 -3 0.5 -7t4 -15t9.5 -19.5t19 -15.5t31 -7h64q3 0 7 0.5t15 4t19.5 9.5t15.5 19t7 31v128 q0 14 -8 22t-16 9l-8 1q4 0 9 1t14 9t9 22zM1536 320v64h-128q-3 0 -7 -0.5t-15 -4t-19.5 -9.5t-15.5 -19t-7 -31v-320h64v128h128v64h-128v128h128z" />
<glyph unicode="&#xf73c;" d="M256 1408h1280q48 0 88 -40t40 -88v-1280q0 -48 -40 -88t-88 -40h-1280q-48 0 -88 40t-40 88v1280q0 48 40 88t88 40zM768 320v64h-128q-3 0 -7 -0.5t-15 -4t-19.5 -9.5t-15.5 -19t-7 -31v-320h64v128h128v64h-128v128h128zM1024 0v320q0 28 -16 44t-32 18l-16 2h-128 v-64h128v-320h64zM1280 256v64q0 3 -0.5 7t-4 15t-9.5 19.5t-19 15.5t-31 7h-64q-3 0 -7 -0.5t-15 -4t-19.5 -9.5t-15.5 -19t-7 -31h128v-64h-64v-64h64v-128h-64v64h-64v-64q0 -3 0.5 -7t4 -15t9.5 -19.5t19 -15.5t31 -7h64q3 0 7 0.5t15 4t19.5 9.5t15.5 19t7 31v128 q0 14 -8 22t-16 9l-8 1q4 0 9 1t14 9t9 22zM1536 320v64h-128q-3 0 -7 -0.5t-15 -4t-19.5 -9.5t-15.5 -19t-7 -31v-320h64v128h128v64h-128v128h128z" />
<glyph unicode="&#xf73d;" d="M256 1408h1280q48 0 88 -40t40 -88v-1280q0 -48 -40 -88t-88 -40h-1280q-48 0 -88 40t-40 88v1280q0 48 40 88t88 40zM768 320v64h-128q-3 0 -7 -0.5t-15 -4t-19.5 -9.5t-15.5 -19t-7 -31v-320h64v128h128v64h-128v128h128zM1024 0v320q0 28 -16 44t-32 18l-16 2h-128 v-64h128v-320h64zM1280 256v64q0 3 -0.5 7t-4 15t-9.5 19.5t-19 15.5t-31 7h-64q-3 0 -7 -0.5t-15 -4t-19.5 -9.5t-15.5 -19t-7 -31h128v-64h-64v-64h64v-128h-64v64h-64v-64q0 -3 0.5 -7t4 -15t9.5 -19.5t19 -15.5t31 -7h64q3 0 7 0.5t15 4t19.5 9.5t15.5 19t7 31v128 q0 14 -8 22t-16 9l-8 1q4 0 9 1t14 9t9 22zM1536 320v64h-128q-3 0 -7 -0.5t-15 -4t-19.5 -9.5t-15.5 -19t-7 -31v-320h64v128h128v64h-128v128h128z" />
<glyph unicode="&#xf73e;" d="M256 1408h1280q48 0 88 -40t40 -88v-1280q0 -48 -40 -88t-88 -40h-1280q-48 0 -88 40t-40 88v1280q0 48 40 88t88 40zM768 320v64h-128q-3 0 -7 -0.5t-15 -4t-19.5 -9.5t-15.5 -19t-7 -31v-320h64v128h128v64h-128v128h128zM1024 0v320q0 28 -16 44t-32 18l-16 2h-128 v-64h128v-320h64zM1280 256v64q0 3 -0.5 7t-4 15t-9.5 19.5t-19 15.5t-31 7h-64q-3 0 -7 -0.5t-15 -4t-19.5 -9.5t-15.5 -19t-7 -31h128v-64h-64v-64h64v-128h-64v64h-64v-64q0 -3 0.5 -7t4 -15t9.5 -19.5t19 -15.5t31 -7h64q3 0 7 0.5t15 4t19.5 9.5t15.5 19t7 31v128 q0 14 -8 22t-16 9l-8 1q4 0 9 1t14 9t9 22zM1536 320v64h-128q-3 0 -7 -0.5t-15 -4t-19.5 -9.5t-15.5 -19t-7 -31v-320h64v128h128v64h-128v128h128z" />
<glyph unicode="&#xf73f;" d="M256 1408h1280q48 0 88 -40t40 -88v-1280q0 -48 -40 -88t-88 -40h-1280q-48 0 -88 40t-40 88v1280q0 48 40 88t88 40zM768 320v64h-128q-3 0 -7 -0.5t-15 -4t-19.5 -9.5t-15.5 -19t-7 -31v-320h64v128h128v64h-128v128h128zM1024 0v320q0 28 -16 44t-32 18l-16 2h-128 v-64h128v-320h64zM1280 256v64q0 3 -0.5 7t-4 15t-9.5 19.5t-19 15.5t-31 7h-64q-3 0 -7 -0.5t-15 -4t-19.5 -9.5t-15.5 -19t-7 -31h128v-64h-64v-64h64v-128h-64v64h-64v-64q0 -3 0.5 -7t4 -15t9.5 -19.5t19 -15.5t31 -7h64q3 0 7 0.5t15 4t19.5 9.5t15.5 19t7 31v128 q0 14 -8 22t-16 9l-8 1q4 0 9 1t14 9t9 22zM1536 320v64h-128q-3 0 -7 -0.5t-15 -4t-19.5 -9.5t-15.5 -19t-7 -31v-320h64v128h128v64h-128v128h128z" />
</font>
</defs>
</svg>
